<svg width="80" height="80" viewBox="0 0 80 80" fill="none" xmlns="http://www.w3.org/2000/svg">
<path opacity="0.5" d="M15.1436 33.4216C18.1662 32.7459 21.7987 32.063 25.8801 31.5408V24.8575C25.8801 17.0711 32.2148 10.7364 40.0012 10.7364C47.7876 10.7364 54.1223 17.0711 54.1223 24.8575V31.5408C58.2037 32.063 61.8362 32.7459 64.8589 33.4216V24.8575C64.8589 11.1511 53.7078 0 40.0012 0C26.2946 0 15.1436 11.1511 15.1436 24.8577V33.4216Z" fill="#273BEF"/>
<path d="M40.0014 49.8955C38.3873 49.8955 37.0742 51.2086 37.0742 52.8227C37.0742 54.4369 38.3873 55.75 40.0014 55.75C41.6155 55.75 42.9286 54.4369 42.9286 52.8227C42.9287 51.2086 41.6155 49.8955 40.0014 49.8955Z" fill="#273BEF"/>
<path d="M40.0009 35.3096C25.2694 35.3096 12.9975 38.6486 8.79297 39.9436V75.3641C13.0039 76.6582 25.3023 79.9994 40.0009 79.9994C54.7325 79.9994 67.0044 76.6603 71.2087 75.3653V39.9449C66.998 38.6508 54.6997 35.3096 40.0009 35.3096ZM42.3447 60.0661V67.758H37.6572V60.0661C34.602 59.0752 32.3863 56.2032 32.3863 52.8219C32.3863 48.6232 35.8022 45.2072 40.0009 45.2072C44.1997 45.2072 47.6156 48.6232 47.6156 52.8219C47.6158 56.2032 45.4 59.0752 42.3447 60.0661Z" fill="#273BEF"/>
</svg>
