<svg width="16" height="16" viewBox="0 0 16 16" fill="none" xmlns="http://www.w3.org/2000/svg">
<g clip-path="url(#clip0_55_6214)">
<path d="M15.2344 4.57808C14.5812 3.19371 13.5469 2.0312 12.2437 1.21558C10.4312 0.0843248 8.28437 -0.275051 6.20312 0.2062C4.12187 0.684326 2.35 1.94683 1.21875 3.75933C0.0843709 5.57183 -0.275004 7.71559 0.206246 9.79997C0.687496 11.8812 1.95 13.6531 3.75937 14.7844C5.03437 15.5812 6.49687 16.0031 7.99375 16.0031H8.09062C9.58125 15.9844 11.0312 15.5531 12.2875 14.7594C12.6531 14.5281 12.7594 14.0468 12.5281 13.6812C12.2969 13.3156 11.8156 13.2093 11.45 13.4406C10.4406 14.0812 9.27187 14.4281 8.07187 14.4437C6.84062 14.4594 5.6375 14.1187 4.5875 13.4656C3.12812 12.5531 2.1125 11.1281 1.72812 9.45309C1.34375 7.77809 1.63125 6.05309 2.54375 4.59371C4.425 1.58433 8.40625 0.665576 11.4156 2.54683C12.4656 3.20308 13.2969 4.13746 13.8219 5.24996C14.3344 6.33434 14.5344 7.53746 14.4 8.72497C14.3531 9.15309 14.6594 9.54059 15.0906 9.58747C15.5187 9.63434 15.9062 9.32809 15.9531 8.89684C16.1187 7.41871 15.8687 5.92496 15.2344 4.57808Z" fill="#273BEF"/>
<path d="M10.5846 5.28752L6.81581 9.05626L5.41894 7.65939C5.11269 7.35314 4.61894 7.35314 4.31269 7.65939C4.00645 7.96564 4.00645 8.45939 4.31269 8.76564L6.26269 10.7156C6.41581 10.8688 6.61581 10.9438 6.81581 10.9438C7.01581 10.9438 7.21581 10.8688 7.36894 10.7156L11.6877 6.39377C11.9939 6.08752 11.9939 5.59377 11.6877 5.28752C11.3814 4.9844 10.8877 4.9844 10.5846 5.28752Z" fill="#273BEF"/>
</g>
<defs>
<clipPath id="clip0_55_6214">
<rect width="16" height="16" fill="white"/>
</clipPath>
</defs>
</svg>
