<svg width="48" height="48" viewBox="0 0 48 48" fill="none" xmlns="http://www.w3.org/2000/svg">
<path d="M20.7016 0C15.5778 0 11.4092 4.1685 11.4092 9.29241C11.4092 14.4161 15.5778 18.5847 20.7016 18.5847C25.8254 18.5847 29.9939 14.4162 29.9939 9.29241C29.9939 4.1685 25.8254 0 20.7016 0Z" fill="#273BEF"/>
<path d="M26.1856 20.5408H15.2178C11.3407 20.5408 8.18652 23.695 8.18652 27.572V41.3523C8.18652 43.6785 10.0791 45.5711 12.4053 45.5711H20.5554C19.2069 43.6192 18.4158 41.2543 18.4158 38.7076C18.4158 32.033 23.846 26.6028 30.5206 26.6028C31.4354 26.6028 32.3266 26.7055 33.1838 26.8987C32.8437 23.3365 29.8354 20.5408 26.1856 20.5408Z" fill="#273BEF"/>
<path opacity="0.4" d="M30.5208 29.4153C25.397 29.4153 21.2285 33.5838 21.2285 38.7076C21.2285 43.8314 25.397 48 30.5208 48C35.6446 48 39.8131 43.8315 39.8131 38.7076C39.8131 33.5839 35.6446 29.4153 30.5208 29.4153ZM33.8624 40.1138H31.927V42.0493C31.927 42.8259 31.2974 43.4556 30.5207 43.4556C29.7441 43.4556 29.1145 42.8259 29.1145 42.0493V40.1138H27.179C26.4024 40.1138 25.7728 39.4842 25.7728 38.7076C25.7728 37.931 26.4024 37.3013 27.179 37.3013H29.1145V35.3659C29.1145 34.5893 29.7441 33.9596 30.5207 33.9596C31.2974 33.9596 31.927 34.5893 31.927 35.3659V37.3013H33.8624C34.6391 37.3013 35.2687 37.931 35.2687 38.7076C35.2687 39.4842 34.6391 40.1138 33.8624 40.1138Z" fill="#273BEF"/>
</svg>
