<svg width="16" height="16" viewBox="0 0 16 16" fill="none" xmlns="http://www.w3.org/2000/svg">
<g clip-path="url(#clip0_2_3362)">
<path d="M12.2335 10.6492C12.7969 11.4062 13.3778 12.1807 13.9587 12.9553C12.7969 14.3284 11.3534 15.2086 9.61061 15.5782C7.67422 15.9831 5.84345 15.6839 4.06549 14.6981C5.64981 13.5186 7.19892 12.3568 8.76564 11.1949C9.11771 11.5294 9.45218 11.8639 9.78664 12.1807C10.1563 12.5328 10.0155 12.5504 10.4908 12.2864C11.1421 11.9167 11.6878 11.4062 12.1103 10.7901C12.1279 10.7549 12.1631 10.7197 12.1807 10.6844C12.1631 10.6844 12.1807 10.6844 12.2335 10.6492ZM5.31534 12.1984C4.87525 12.5328 4.47037 12.8321 4.06549 13.1489C3.76623 13.3778 3.46697 13.589 3.16771 13.8179C3.04448 13.9235 2.95646 13.9235 2.81563 13.8003C1.47776 12.6032 0.632792 11.1245 0.315928 9.36418C-0.000936568 7.58622 0.280721 5.89628 1.12569 4.29435C1.1433 4.25914 1.1785 4.20633 1.19611 4.17113C1.19611 4.15352 1.21371 4.15352 1.24892 4.13592C2.41075 5.66743 3.59019 7.19894 4.75203 8.73045C4.71682 8.78326 4.69922 8.81847 4.66401 8.85367C4.31194 9.22335 3.95987 9.59302 3.59019 9.9451C3.48457 10.0507 3.46697 10.1387 3.53738 10.262C3.90705 10.9661 4.41756 11.547 5.05129 12.0223C5.1393 12.0751 5.20972 12.1279 5.31534 12.1984ZM11.8815 1.26654C11.3182 1.67142 10.7548 2.0763 10.1915 2.46358C9.22333 3.15012 8.25514 3.85426 7.30454 4.5408C7.18132 4.62882 7.0933 4.64642 6.98768 4.5232C6.67081 4.18873 6.33635 3.88947 6.01948 3.555C5.93147 3.46698 5.84345 3.44938 5.72022 3.50219C4.96327 3.88947 4.36475 4.43518 3.87185 5.12172C3.83664 5.15693 3.80143 5.20974 3.76623 5.26255C3.48457 4.89287 3.22052 4.5584 2.95646 4.20633C2.67481 3.83666 2.41075 3.46698 2.1467 3.11491C2.05868 2.99169 2.04108 2.90367 2.1643 2.78044C3.51978 1.28414 5.19212 0.403964 7.19892 0.192721C8.78324 0.0166856 10.2971 0.33355 11.7054 1.0905C11.7582 1.12571 11.8111 1.14331 11.8639 1.17852C11.8639 1.23133 11.8639 1.24893 11.8815 1.26654ZM14.7509 11.8287C14.3812 11.3534 14.0467 10.9133 13.7122 10.4732C12.9377 9.4522 12.1631 8.41358 11.371 7.39258C11.2653 7.25175 11.2653 7.16373 11.3886 7.04051C11.723 6.70604 12.0399 6.37157 12.3744 6.0371C12.4624 5.94909 12.4976 5.86107 12.4272 5.73784C12.0399 4.99849 11.5118 4.38237 10.8253 3.88947C10.7724 3.85426 10.7196 3.80145 10.6492 3.76624C10.702 3.71343 10.7548 3.67823 10.79 3.64302C11.459 3.13252 12.1279 2.63962 12.7969 2.12911C12.9025 2.04109 12.9905 2.00589 13.1137 2.12911C14.7861 3.64302 15.6838 5.5266 15.7719 7.79746C15.8071 9.11773 15.5078 10.3676 14.9093 11.547C14.8565 11.6174 14.8037 11.7055 14.7509 11.8287Z" fill="#231815"/>
</g>
<defs>
<clipPath id="clip0_2_3362">
<rect width="15.808" height="16" fill="white"/>
</clipPath>
</defs>
</svg>
