<svg width="17" height="16" viewBox="0 0 17 16" fill="none" xmlns="http://www.w3.org/2000/svg">
<g clip-path="url(#clip0_2_3364)">
<path d="M16.8086 8.00136C16.8141 12.3786 13.2664 16 8.80996 16C4.35354 16 0.805866 12.3759 0.808595 7.99591C0.811324 3.6159 4.35354 0 8.81269 0C13.2718 0 16.8168 3.62681 16.8086 8.00136Z" fill="#FE9B00"/>
<path d="M14.9583 8.99485C14.9447 8.96756 14.9556 8.94573 14.9556 8.9239C15.002 8.44906 14.6991 8.02879 14.2406 7.93055C13.9404 7.86778 13.673 7.95238 13.4437 8.14887C13.1654 8.38629 12.9007 8.64008 12.6387 8.89661C12.3194 9.21044 12.0065 9.52973 11.6999 9.85448C11.4843 10.0837 11.2333 10.2611 10.9331 10.3648C10.0871 10.6541 9.16197 10.2011 8.83995 9.41512C8.80175 9.3196 8.80448 9.3005 8.88089 9.235C9.05827 9.07945 9.23839 8.92663 9.41577 8.77108C9.42123 8.76562 9.42668 8.76289 9.43214 8.75743C9.45397 8.74379 9.47035 8.71104 9.49764 8.72468C9.52493 8.73833 9.50855 8.76835 9.51128 8.79018C9.52205 9.00116 9.60622 9.20175 9.74925 9.35723C9.89227 9.51272 10.0851 9.61332 10.2945 9.64162C10.7284 9.70166 11.1623 9.43695 11.2933 9.02214C11.4489 8.53092 11.1896 8.04244 10.6875 7.88143C10.3818 7.78318 10.1035 7.84868 9.86059 8.05062C9.66138 8.21436 9.47035 8.38629 9.27659 8.55821C9.14833 8.67283 9.02007 8.79018 8.88908 8.90207C8.8391 8.94497 8.80538 9.00374 8.79356 9.06853C8.68986 9.59523 8.39513 9.9882 7.92848 10.2475C7.63624 10.4104 7.30044 10.4781 6.96788 10.4412C6.6062 10.4103 6.26432 10.2628 5.99363 10.0209C5.80224 9.85308 5.65272 9.64282 5.55699 9.40693C5.55127 9.39559 5.5467 9.3837 5.54335 9.37145C5.53375 9.35149 5.53149 9.32877 5.53698 9.30731C5.54247 9.28585 5.55536 9.26701 5.57337 9.2541C5.63613 9.20225 5.69617 9.1504 5.75894 9.09855C5.8872 8.98666 6.01546 8.87478 6.14645 8.76562C6.16828 8.74651 6.19012 8.71377 6.21741 8.72468C6.2447 8.7356 6.23378 8.7738 6.23651 8.80109C6.24282 9.00705 6.31764 9.20502 6.44911 9.36368C6.58059 9.52234 6.76122 9.63263 6.96242 9.6771C7.18992 9.72556 7.42734 9.68533 7.62617 9.56461C7.825 9.44389 7.97023 9.25181 8.03218 9.0276C8.19592 8.42449 7.71834 7.82958 7.09614 7.8596C6.90652 7.8652 6.72452 7.9355 6.58036 8.05881C6.40298 8.20618 6.22832 8.359 6.0564 8.51182C5.87901 8.66737 5.70436 8.82565 5.52697 8.98121C5.50319 9.00062 5.48418 9.02523 5.4714 9.05314C5.45863 9.08106 5.45243 9.11153 5.45329 9.14222V10.3266C5.45329 10.4385 5.43692 10.4549 5.32503 10.4521C5.21988 10.4521 5.11598 10.4294 5.02038 10.3856C4.92479 10.3418 4.83975 10.2779 4.77105 10.1983C4.71647 10.1356 4.70555 10.1356 4.63187 10.1765C4.3617 10.3266 4.07516 10.4085 3.76678 10.3975C3.13366 10.3757 2.65063 10.0892 2.32315 9.54611C2.16898 9.29016 2.08957 8.99615 2.09392 8.69739C2.09421 8.3052 2.23234 7.92558 2.48416 7.6249C2.74069 7.31107 3.06816 7.1064 3.46932 7.0409C4.0042 6.9563 4.49542 7.05455 4.9075 7.42842C5.03843 7.54778 5.15229 7.6846 5.24589 7.83503C5.25931 7.86525 5.28233 7.8902 5.31139 7.90599C5.3314 7.89317 5.34772 7.87535 5.35873 7.85429C5.36973 7.83323 5.37505 7.80966 5.37415 7.78591C5.37142 7.51574 5.37415 7.24557 5.37415 6.97268C5.37415 6.35866 5.37324 5.74554 5.37142 5.13334C5.37142 5.01327 5.38507 4.99962 5.50787 4.99962C5.68896 4.99984 5.86362 5.06674 5.99853 5.18755C6.13343 5.30836 6.21912 5.47461 6.23924 5.65458C6.24468 5.69803 6.24742 5.74178 6.24742 5.78557V7.21828C6.25015 7.28378 6.2638 7.29197 6.32384 7.26195C6.49928 7.16903 6.68947 7.10717 6.88601 7.07911C7.37449 7.01088 7.81113 7.13369 8.19864 7.43933C8.32836 7.54358 8.44153 7.66687 8.53431 7.80502C8.53974 7.81473 8.54614 7.82387 8.55341 7.83231C8.57251 7.8596 8.58889 7.88961 8.62436 7.89507C8.64347 7.8978 8.69805 7.82685 8.70078 7.79683C8.70538 7.75972 8.70721 7.72232 8.70623 7.68494V5.76647C8.70623 5.37076 8.95184 5.0733 9.34209 4.99962C9.385 4.98955 9.42901 4.98497 9.47308 4.98598C9.53039 4.98871 9.55495 5.01054 9.56859 5.06512C9.57764 5.10816 9.58131 5.15216 9.57951 5.19611V7.21283C9.58497 7.2483 9.59588 7.25922 9.63136 7.24557C9.67775 7.22647 9.72414 7.20464 9.77054 7.18554C10.4255 6.92355 11.1596 7.08184 11.6344 7.58943C11.7938 7.76107 11.918 7.96225 12.0001 8.18162L12.0165 8.23074C12.0438 8.30169 12.052 8.30442 12.1093 8.25257L12.8788 7.57305C13.0945 7.3764 13.3564 7.23747 13.6402 7.16916C14.0385 7.0759 14.457 7.12908 14.8193 7.31899C15.1816 7.5089 15.4634 7.82285 15.6133 8.20345C15.629 8.23457 15.6337 8.27006 15.6268 8.30422C15.6199 8.33837 15.6016 8.3692 15.5751 8.39175C15.3868 8.57732 15.2039 8.76562 15.0156 8.95392C14.9996 8.97141 14.9801 8.98536 14.9583 8.99485Z" fill="#191C31"/>
<path d="M14.2182 9.73442C14.2175 9.74479 14.2144 9.75487 14.2092 9.76386C14.204 9.77286 14.1968 9.78052 14.1881 9.78627C13.9889 9.98548 13.7897 10.1847 13.5932 10.3866C13.5772 10.4055 13.5555 10.4186 13.5314 10.424C13.5073 10.4294 13.482 10.4268 13.4595 10.4167C12.9901 10.242 12.6581 9.92453 12.4634 9.46425C12.4334 9.39603 12.4389 9.37419 12.4935 9.3278C12.6872 9.15861 12.8837 8.98941 13.0775 8.82294C13.0897 8.80923 13.1059 8.79969 13.1238 8.79565C13.143 8.81476 13.1375 8.83932 13.1402 8.86115C13.15 8.98951 13.1824 9.11514 13.2357 9.23229C13.364 9.49973 13.5823 9.65255 13.8634 9.72077C13.9233 9.73444 13.9848 9.73995 14.0462 9.73715C14.1008 9.73169 14.1581 9.73442 14.2182 9.73442Z" fill="#191C31"/>
<path d="M4.70785 8.71925C4.7215 9.20501 4.30669 9.62801 3.80183 9.63347C3.56062 9.6347 3.32874 9.54037 3.15691 9.37109C2.98507 9.20181 2.88727 8.97137 2.88489 8.73017C2.87671 8.23349 3.26695 7.80776 3.80183 7.79685C4.29578 7.78593 4.71058 8.18982 4.70785 8.71925Z" fill="#FF9C00"/>
</g>
<defs>
<clipPath id="clip0_2_3364">
<rect width="16" height="16" fill="white" transform="translate(0.808594)"/>
</clipPath>
</defs>
</svg>
