<svg width="17" height="16" viewBox="0 0 17 16" fill="none" xmlns="http://www.w3.org/2000/svg">
<g clip-path="url(#clip0_2_3365)">
<path d="M8.80859 16C13.2269 16 16.8086 12.4183 16.8086 8C16.8086 3.58172 13.2269 0 8.80859 0C4.39032 0 0.808594 3.58172 0.808594 8C0.808594 12.4183 4.39032 16 8.80859 16Z" fill="#767DFF"/>
<path fill-rule="evenodd" clip-rule="evenodd" d="M7.69262 3.25H9.92262C9.9999 3.24996 10.0758 3.27051 10.1425 3.30953C10.2092 3.34854 10.2643 3.40462 10.3021 3.472L13.7551 9.6315C13.7915 9.69643 13.8106 9.76959 13.8106 9.844C13.8106 9.91841 13.7915 9.99157 13.7551 10.0565L12.6501 12.0275C12.6124 12.0949 12.5574 12.151 12.4908 12.1901C12.4242 12.2292 12.3484 12.2499 12.2711 12.25H5.34412C5.2668 12.25 5.19088 12.2294 5.12417 12.1903C5.05747 12.1512 5.0024 12.095 4.96462 12.0275L3.86012 10.0565C3.82377 9.99157 3.80469 9.91841 3.80469 9.844C3.80469 9.76959 3.82377 9.69643 3.86012 9.6315L7.31312 3.472C7.35096 3.40462 7.40606 3.34854 7.47276 3.30953C7.53946 3.27051 7.61535 3.24996 7.69262 3.25ZM8.80762 5.7005L6.48112 9.844H11.1341L8.80762 5.7005Z" fill="white"/>
</g>
<defs>
<clipPath id="clip0_2_3365">
<rect width="16" height="16" fill="white" transform="translate(0.808594)"/>
</clipPath>
</defs>
</svg>
