<svg width="17" height="16" viewBox="0 0 17 16" fill="none" xmlns="http://www.w3.org/2000/svg">
<g clip-path="url(#clip0_2_3366)">
<path d="M8.80859 16C13.2269 16 16.8086 12.4183 16.8086 8C16.8086 3.58172 13.2269 0 8.80859 0C4.39032 0 0.808594 3.58172 0.808594 8C0.808594 12.4183 4.39032 16 8.80859 16Z" fill="#1B75BC"/>
<path fill-rule="evenodd" clip-rule="evenodd" d="M6.60209 4.301L8.80859 6.604L10.9611 4.301L12.3086 5.68L10.1106 8L12.3086 10.3015L10.9611 11.698L8.80859 9.396L6.60209 11.698L5.30859 10.34L7.48859 7.987L5.30859 5.68L6.60209 4.3015V4.301ZM6.77959 4.113L8.79959 2L10.8196 4.113L9.75659 5.2455L8.79959 4.1885L7.84259 5.2455L6.77959 4.113ZM6.77959 11.887L7.84259 10.7545L8.79959 11.8115L9.75659 10.7545L10.8196 11.887L8.79959 14L6.77959 11.887Z" fill="white"/>
</g>
<defs>
<clipPath id="clip0_2_3366">
<rect width="16" height="16" fill="white" transform="translate(0.808594)"/>
</clipPath>
</defs>
</svg>
