<svg width="17" height="16" viewBox="0 0 17 16" fill="none" xmlns="http://www.w3.org/2000/svg">
<g clip-path="url(#clip0_2_3370)">
<path d="M8.82812 16C13.2464 16 16.8281 12.4183 16.8281 8C16.8281 3.58172 13.2464 0 8.82812 0C4.40985 0 0.828125 3.58172 0.828125 8C0.828125 12.4183 4.40985 16 8.82812 16Z" fill="#F49E00"/>
<path d="M10.7051 8.667C11.8281 6.9075 12.7026 4 12.7026 4L10.8301 4.4245L10.1446 6.8495C10.0801 5.0315 8.83361 4.366 8.83361 4.366C7.83511 3.8795 6.94511 4.0935 6.30361 4.428C5.50961 4.841 4.93211 5.561 4.65561 6.39C4.26261 7.5695 4.31061 8.893 4.36261 9.492C4.38361 9.773 4.44561 10.0495 4.54761 10.3135C5.23661 12.1 7.14511 11.9985 7.14511 11.9985C8.89361 11.9365 9.95611 9.8775 9.95611 9.8775L10.4571 11.3915C10.9061 12.151 11.9006 11.8665 12.1051 11.824C12.1411 11.816 12.1731 11.812 12.2096 11.804L13.3276 11.6335V11.147C10.8936 11.213 10.7051 8.6675 10.7051 8.6675V8.667ZM8.33561 10.497C8.18505 10.6513 7.99523 10.7616 7.78661 10.816C7.33311 10.929 6.98461 10.7385 6.74411 10.505C6.47542 10.2337 6.29145 9.89005 6.21461 9.516C5.77361 7.021 6.38311 5.9275 6.78811 5.425C6.89842 5.28414 7.04064 5.17151 7.20303 5.0964C7.36542 5.02129 7.54333 4.98585 7.72211 4.993C9.29411 5.075 9.64711 8.364 9.64711 8.364C9.20211 9.5315 8.62861 10.209 8.33561 10.497Z" fill="white"/>
</g>
<defs>
<clipPath id="clip0_2_3370">
<rect width="16" height="16" fill="white" transform="translate(0.828125)"/>
</clipPath>
</defs>
</svg>
