<svg width="17" height="16" viewBox="0 0 17 16" fill="none" xmlns="http://www.w3.org/2000/svg">
<g clip-path="url(#clip0_2_3371)">
<path d="M16.6037 0H1.05252C0.928592 0 0.828125 0.100467 0.828125 0.2244V15.7756C0.828125 15.8995 0.928592 16 1.05252 16H16.6037C16.7277 16 16.8281 15.8995 16.8281 15.7756V0.2244C16.8281 0.100467 16.7277 0 16.6037 0Z" fill="#322A3F"/>
<path d="M8.73021 4.26175L5.65394 10.6758H10.761C10.8334 10.6758 10.9042 10.697 10.9646 10.7368C11.0251 10.7767 11.0725 10.8333 11.101 10.8998L11.1064 10.9122C11.1253 10.9563 11.1337 11.0041 11.131 11.0519C11.1283 11.0997 11.1145 11.1463 11.0908 11.1879C11.0482 11.2621 10.9868 11.3238 10.9127 11.3667C10.8387 11.4096 10.7547 11.4322 10.6691 11.4322H5.24154C5.15782 11.4322 5.07598 11.4074 5.00634 11.361L4.9777 11.342C4.89259 11.285 4.83092 11.1992 4.804 11.1004C4.77709 11.0016 4.78676 10.8964 4.83122 10.8042L8.46101 3.33471C8.49896 3.25675 8.55297 3.1877 8.61949 3.13207C8.68251 3.07951 8.76178 3.05036 8.84384 3.04958C8.9259 3.04879 9.00571 3.07641 9.06973 3.12775C9.09847 3.15039 9.12174 3.17921 9.13781 3.21207L12.8195 10.7331C12.8694 10.8353 12.8798 10.9524 12.8487 11.0618C12.8316 11.1219 12.7953 11.1749 12.7454 11.2126C12.6954 11.2502 12.6345 11.2705 12.5719 11.2704H12.5298C12.4456 11.2704 12.3633 11.2465 12.2922 11.2014C12.2212 11.1563 12.1645 11.092 12.1287 11.0158L8.95349 4.26287C8.94367 4.2416 8.92799 4.22357 8.90829 4.21089C8.88858 4.19821 8.86567 4.19142 8.84225 4.1913C8.81882 4.19118 8.79584 4.19775 8.77601 4.21023C8.75618 4.22271 8.74032 4.24058 8.73029 4.26175H8.73021Z" fill="#F4AE95"/>
</g>
<defs>
<clipPath id="clip0_2_3371">
<rect width="16" height="16" fill="white" transform="translate(0.828125)"/>
</clipPath>
</defs>
</svg>
