<svg width="17" height="16" viewBox="0 0 17 16" fill="none" xmlns="http://www.w3.org/2000/svg">
<g clip-path="url(#clip0_2_3372)">
<path d="M9.60921 3.28692C9.60921 3.28692 9.62559 3.22685 9.67474 3.22685C9.72389 3.22685 9.85495 3.19955 9.89317 3.22685C9.9314 3.25416 9.91501 3.33607 9.87133 3.33607C9.82764 3.33607 9.58737 3.32515 9.60921 3.28692ZM10.9526 3.11764C11.0942 3.18812 11.2423 3.24481 11.3949 3.28692C11.4106 3.28962 11.4267 3.28854 11.4419 3.2838C11.457 3.27905 11.4709 3.27076 11.4822 3.25962C11.5259 3.21047 11.586 3.11764 11.5259 3.09034C11.4386 3.04665 11.2966 2.94836 11.0727 3.00842C10.8488 3.06849 10.9198 3.10672 10.9526 3.11764ZM3.93003 6.56883C3.93003 6.56883 3.79897 6.57429 3.82082 6.42139C3.84266 6.26849 4.0174 6.08283 4.12116 6.01184C4.22491 5.94085 4.27952 5.88624 4.27952 5.77702C4.27952 5.66781 4.43788 5.58044 4.47611 5.52583C4.51433 5.47122 4.65631 5.40023 4.63447 5.49307C4.61262 5.5859 4.55802 5.62412 4.55802 5.74426C4.55802 5.8644 4.57986 5.94631 4.63993 5.82071C4.7 5.69511 5.07133 5.11081 5.44812 4.80501C5.82491 4.49921 6.3273 4.16064 6.39283 4.14972C6.45836 4.1388 6.49658 4.18249 6.49658 4.25348C6.49658 4.32446 6.31638 4.39545 6.22901 4.47191C6.14163 4.54836 5.07133 5.39477 4.76552 6.0446C4.70289 6.13172 4.63153 6.21223 4.55256 6.28487C4.4488 6.37225 4.43242 6.49784 4.29044 6.63982C4.14846 6.7818 4.15392 6.92924 4.08293 6.95109C4.01194 6.97293 3.91911 6.88556 3.97372 6.69989C4.02832 6.51423 4.19761 6.39955 4.31774 6.26303C4.43788 6.12651 4.48157 6.00638 4.4488 6.00638C4.41604 6.00638 4.24129 6.0446 4.19215 6.18112C4.143 6.31764 4.143 6.37771 4.08293 6.43231C4.01194 6.49784 3.96826 6.57429 3.93003 6.56883ZM6.57303 4.06781C6.56008 4.07385 6.54882 4.08298 6.54025 4.09441C6.53167 4.10585 6.52605 4.11922 6.52389 4.13334C6.52224 4.15046 6.52606 4.16767 6.53481 4.18249C6.56757 4.22617 6.64402 4.19341 6.69863 4.14426C6.81832 4.05803 6.94226 3.97784 7.06996 3.90399C7.06996 3.90399 6.71501 3.99136 6.57303 4.06781Z" fill="black"/>
<path d="M4.26788 7.1971C4.26788 7.1971 4.21873 7.27355 4.14774 7.1971C4.07675 7.12065 4.16958 6.96228 4.28972 6.85307C4.40985 6.74385 4.75388 6.19778 4.84671 6.04488C5.08412 5.70565 5.36502 5.39905 5.68221 5.13293C6.04262 4.84351 6.68699 4.32474 7.01463 4.13908C7.34228 3.95341 7.79006 3.70768 8.26514 3.61484C8.74023 3.52201 9.7177 3.59846 10.9136 4.34112C10.9287 4.37517 10.9297 4.41381 10.9164 4.44861C10.9031 4.4834 10.8766 4.51151 10.8426 4.52679C10.8426 4.52679 9.61941 3.76228 8.56003 3.80051C7.50064 3.83873 6.63784 4.54317 5.86788 5.2203C5.09791 5.89744 5.18528 5.97389 5.08699 6.09402C4.98869 6.21416 4.67743 6.64556 4.62282 6.72201C4.56822 6.79846 4.39347 7.10426 4.26788 7.1971ZM11.2194 3.7186C9.90883 3.21075 9.06787 3.33634 8.82214 3.39095C8.81457 3.39294 8.8078 3.39724 8.80279 3.40326C8.79777 3.40927 8.79475 3.4167 8.79415 3.4245C8.79355 3.43231 8.7954 3.44011 8.79944 3.44682C8.80347 3.45353 8.8095 3.45882 8.81668 3.46194C8.88596 3.48284 8.95743 3.49567 9.02965 3.50017C9.31361 3.52747 9.57026 3.58754 9.75593 3.58208C9.9416 3.57662 10.4167 3.63123 10.7006 3.74044C10.9846 3.84966 11.1047 3.89334 11.1047 3.89334C11.1264 3.89293 11.1475 3.8866 11.1658 3.87505C11.184 3.8635 11.1988 3.84716 11.2085 3.82781C11.2631 3.75682 11.2194 3.7186 11.2194 3.7186Z" fill="black"/>
<path d="M11.0832 4.00809C11.0832 4.00809 11.1324 4.18283 10.9685 4.19376C10.8047 4.20468 10.1385 3.80058 9.88185 3.77328C9.62519 3.74597 9.79993 3.58215 10.133 3.67498C10.4661 3.76782 11.0832 4.00809 11.0832 4.00809ZM10.1876 3.17806C10.1803 3.18067 10.174 3.18548 10.1695 3.19183C10.165 3.19819 10.1626 3.20577 10.1626 3.21355C10.1626 3.22133 10.165 3.22891 10.1695 3.23527C10.174 3.24162 10.1803 3.24644 10.1876 3.24905C10.28 3.29034 10.3773 3.3197 10.4771 3.33642C10.63 3.34734 11.045 3.4784 11.2416 3.58215C11.3672 3.64768 11.4327 3.41833 11.3508 3.39103C11.2033 3.33642 10.832 3.19444 10.7173 3.16714C10.6136 3.13983 10.3405 3.12345 10.1876 3.17806ZM7.92144 4.19922C9.68526 3.95894 10.6027 4.82174 10.7173 4.7999C10.832 4.77805 10.7993 4.65246 10.7993 4.65246C10.3569 4.28113 9.2757 3.84427 8.27092 3.96986C7.26615 4.09546 6.72553 4.75621 6.52348 4.87635C6.32144 4.99648 6.15761 5.25314 5.99925 5.40604C5.84089 5.55894 5.61154 5.60809 5.54601 5.66269C5.48048 5.7173 4.55761 7.08249 4.43748 7.22993C4.31734 7.37737 4.28458 7.51389 4.38833 7.56849C4.49208 7.6231 4.55761 7.44836 4.55761 7.44836C4.55761 7.44836 5.04362 6.65109 5.15284 6.52549C5.26205 6.39989 5.617 5.84836 5.68799 5.76099C5.75898 5.67362 5.84089 5.69 5.81359 5.76099C5.78628 5.83198 5.22383 6.64563 5.12007 6.77123C5.01632 6.89682 4.56307 7.51935 4.53577 7.74324C4.50847 7.96713 4.67229 8.00535 4.79789 7.71047C4.92348 7.41559 5.11461 7.00058 5.19106 6.91867C5.26751 6.83675 5.54601 6.52549 5.617 6.38351C5.68799 6.24153 5.99925 5.67362 6.24499 5.40058C6.49278 5.13837 6.76526 4.90064 7.05864 4.69068C7.20371 4.5887 7.35716 4.49919 7.51734 4.42311C7.59925 4.38488 7.74123 4.22106 7.92144 4.19922Z" fill="black"/>
<path d="M5.98242 5.97427C5.98242 5.97427 6.40836 5.32991 6.8616 5.01865C7.31484 4.70738 7.57696 4.48895 7.71894 4.43435C7.86092 4.37974 8.34692 4.12855 9.44999 4.37974C10.5531 4.63093 10.6841 4.99134 10.635 5.06233C10.5858 5.13332 10.4111 5.02411 10.1599 4.88759C9.90869 4.75107 9.43361 4.5381 9.05136 4.54902C8.66911 4.55994 7.91552 4.82206 7.86638 4.86575C7.81723 4.90943 7.81177 4.77837 7.94283 4.75107C8.07389 4.72377 8.1558 4.62001 8.23771 4.60909C8.31962 4.59817 8.43976 4.57087 8.43976 4.50534C8.43976 4.43981 8.16672 4.45073 8.0302 4.50534C7.89368 4.55994 7.36399 4.86028 7.2657 4.91489C7.1674 4.9695 7.03635 5.00772 7.0145 5.08964C6.99266 5.17155 6.82884 5.36267 6.74693 5.40636C6.66501 5.45004 6.25546 5.77223 6.21177 5.84868C6.19295 5.89213 6.16018 5.92807 6.11864 5.95082C6.07711 5.97357 6.02917 5.98182 5.98242 5.97427Z" fill="black"/>
<path d="M6.83008 5.4664C6.83008 5.4664 6.88469 5.54831 7.11404 5.37357C7.34339 5.19882 7.37069 5.1606 7.39253 5.1606C7.41438 5.1606 7.35431 5.07323 7.31062 5.11145C7.26694 5.14968 6.83554 5.38995 6.83008 5.4664ZM7.46352 5.32442C7.46352 5.32442 7.39799 5.30804 7.52359 5.21521C7.64919 5.12237 8.47376 4.63091 9.06898 4.66367C9.6642 4.69644 10.3522 5.04592 10.4724 5.14968C10.5925 5.25343 10.5051 5.46094 10.4724 5.45002C10.4396 5.4391 9.69696 4.87664 9.18365 4.86026C8.67034 4.84388 8.15157 5.04046 7.93861 5.17698C7.72564 5.3135 7.64919 5.36265 7.46352 5.32442Z" fill="black"/>
<path d="M8.12843 5.29146C8.12227 5.28977 8.11672 5.28638 8.11241 5.28167C8.1081 5.27697 8.1052 5.27114 8.10406 5.26486C8.10292 5.25858 8.10358 5.25211 8.10595 5.24619C8.10833 5.24027 8.11234 5.23514 8.11751 5.23139C8.29265 5.11335 8.48975 5.03174 8.69707 4.9914C8.90439 4.95106 9.11771 4.95282 9.32434 4.99658C10.0615 5.15494 10.3673 5.50443 10.3837 5.58634C10.4001 5.66825 10.3728 5.85937 10.2636 5.82115C10.1544 5.78292 9.79943 5.24231 9.22604 5.19317C8.6745 5.14402 8.54891 5.38975 8.12843 5.29146Z" fill="black"/>
<path d="M8.88885 5.42259L8.82332 5.40074C8.8124 5.39528 8.81786 5.38436 8.82332 5.38436C8.91615 5.36252 9.22742 5.30245 9.51137 5.4062C9.71328 5.48959 9.89555 5.6142 10.0465 5.77207C10.0491 5.77465 10.0508 5.77804 10.0513 5.78168C10.0517 5.78532 10.051 5.78902 10.0491 5.79217C10.0472 5.79532 10.0443 5.79774 10.0409 5.79905C10.0374 5.80036 10.0337 5.80047 10.0301 5.79938L8.88885 5.42259ZM4.91342 8.20757C4.91342 8.20757 4.88066 8.31132 4.78783 8.23487C4.69499 8.15842 4.75506 8.03829 4.78783 7.95091C4.82059 7.86354 5.07178 7.35023 5.13185 7.29016C5.19192 7.23009 5.41581 6.96252 5.41581 6.90245C5.41581 6.84238 5.47588 7.07173 5.24653 7.42122C5.0281 7.77071 5.11547 7.86354 4.91342 8.20757ZM5.11001 8.5516C5.11001 8.5516 5.07724 8.62259 5.01718 8.5516C4.95711 8.48061 5.01172 8.31132 5.08271 8.14204C5.1537 7.97276 5.25199 7.5905 5.30114 7.51405C5.35028 7.4376 5.35574 7.60689 5.35574 7.65603C5.35574 7.70518 5.37213 7.97276 5.27929 8.20211C5.23538 8.32426 5.17863 8.44141 5.11001 8.5516ZM5.39397 8.8847C5.39397 8.8847 5.32844 8.99392 5.24653 8.86286C5.21868 8.81872 5.2039 8.7676 5.2039 8.71542C5.2039 8.66323 5.21868 8.61211 5.24653 8.56798C5.27383 8.51883 5.31206 8.36047 5.3339 8.33317C5.35574 8.30586 5.38305 8.37139 5.39397 8.4533C5.40489 8.53521 5.45404 8.62805 5.45404 8.66627C5.45404 8.7045 5.44312 8.83009 5.39397 8.8847ZM5.55233 9.01576C5.5423 8.98458 5.52757 8.95512 5.50864 8.92839C5.49226 8.91747 5.43765 8.98846 5.43219 9.04306C5.42673 9.09767 5.4868 9.11951 5.49226 9.16866C5.49772 9.21781 5.54141 9.15774 5.55233 9.10313C5.55896 9.07438 5.55896 9.04451 5.55233 9.01576ZM5.72161 7.37753C5.77597 7.07108 5.90753 6.78354 6.10387 6.54204C6.42059 6.17071 6.56803 6.11064 6.56803 6.11064C6.56803 6.11064 6.61172 6.09972 6.58987 6.18709C6.56803 6.27446 6.40421 6.47651 6.3769 6.53658C6.3496 6.59665 6.15301 6.79323 6.15301 6.826C6.15301 6.85876 6.24039 6.83146 6.25131 6.84784C6.26223 6.86422 6.30045 6.88607 6.25131 7.00074C6.20216 7.11542 6.01103 7.51951 6.00557 7.60689C6.00011 7.69426 5.71615 8.34955 5.68885 8.34955C5.66155 8.34955 5.60148 8.34409 5.60694 8.14204C5.6124 7.93999 5.91274 7.18095 5.99465 7.05535C6.07656 6.92975 6.08202 6.92975 6.04926 6.93521C6.01649 6.94067 5.81445 7.1591 5.78714 7.31201C5.75984 7.46491 5.72161 7.37753 5.72161 7.37753ZM6.48612 7.32839C6.48612 7.32839 6.40967 7.50859 6.25131 7.49767C6.09294 7.48675 6.33322 7.08811 6.37144 6.91883C6.40967 6.74955 6.70455 6.09972 6.76462 6.04511C6.82469 5.9905 6.98851 5.92497 7.01581 5.97958C7.04312 6.03419 6.92844 6.11064 6.86837 6.23078C6.8083 6.35091 6.62264 6.68948 6.60626 6.80962C6.58987 6.92975 6.48612 7.32839 6.48612 7.32839Z" fill="black"/>
<path d="M6.33195 7.71058C6.33709 7.69735 6.33946 7.6832 6.33891 7.66902C6.33836 7.65483 6.33491 7.64091 6.32877 7.62812C6.32263 7.61532 6.31392 7.60392 6.3032 7.59462C6.29248 7.58532 6.27996 7.57832 6.26642 7.57406C6.16267 7.53037 6.1572 7.56314 6.10806 7.64505C6.05891 7.72696 5.74219 8.49146 5.74219 8.60614C5.74219 8.72082 5.77495 8.93378 5.81318 8.96655C5.8514 8.99931 5.88963 8.93925 5.88963 8.85733C5.9026 8.75667 5.94431 8.66187 6.00976 8.5843C6.04233 8.53908 6.065 8.4875 6.0763 8.43292C6.08759 8.37835 6.08725 8.32201 6.07529 8.26757C6.05345 8.13652 6.26096 7.92355 6.26096 7.92355C6.26185 8.07673 6.25455 8.22985 6.23912 8.38225C6.21727 8.51877 6.07529 8.62798 6.04253 8.68805C6.00976 8.74812 5.99338 8.98293 5.96608 9.05392C5.93894 9.14045 5.93331 9.2323 5.9497 9.3215C5.96608 9.39249 6.00976 9.56723 6.03707 9.44163C6.06437 9.31604 6.16267 8.94471 6.18997 8.95017C6.21727 8.95563 6.21181 9.35972 6.19543 9.44163C6.17905 9.52355 6.1572 9.92218 6.1572 9.97133C6.1572 10.0205 6.00976 10.2444 5.98246 10.3263C5.95516 10.4082 5.79133 10.7085 5.79133 10.7249C5.79133 10.7413 5.95516 10.7249 6.05891 10.643C6.0982 10.6088 6.1301 10.567 6.15263 10.52C6.17517 10.4731 6.18788 10.422 6.18997 10.37C6.18997 10.3044 6.17905 10.1461 6.21727 10.0532C6.2555 9.96041 6.35379 9.74198 6.37017 9.6546C6.38385 9.43092 6.38385 9.20661 6.37017 8.98293C6.35925 8.85733 6.38656 8.32764 6.42478 8.21843C6.46301 8.10921 6.46847 8.0546 6.49577 8.0546C6.52308 8.0546 6.50669 8.38771 6.49577 8.49146C6.48485 8.59522 6.45755 8.93379 6.45755 8.98293C6.41084 9.40042 6.47684 9.8228 6.64867 10.2061C6.64867 10.2061 6.67598 10.3263 6.80703 10.2444C6.93809 10.1625 6.74697 9.79658 6.7142 9.69283C6.68144 9.58908 6.57222 9.04846 6.61045 8.97201C6.64867 8.89556 6.8671 9.72559 6.87256 9.80751C6.87802 9.88942 6.90533 10.1461 6.94901 10.1515C6.9927 10.157 7.1729 10.0478 7.1729 10.0259C7.17268 9.96773 7.15561 9.91083 7.12376 9.86211C7.07461 9.7802 6.81249 9.10853 6.76335 8.55153C6.7142 7.99454 6.80157 7.04437 6.84526 6.94607C6.88895 6.84778 7.09099 6.4 7.14014 6.32901C7.18929 6.25802 7.33127 5.96314 7.35857 5.95222C7.38587 5.94129 7.41318 5.94129 7.41318 5.97406C7.37979 6.08738 7.33967 6.19862 7.29304 6.30716C7.26028 6.4 7.08553 6.67849 7.05277 6.77133C6.95295 7.06634 6.89058 7.37272 6.8671 7.68327C6.81796 8.17474 6.93263 9.00477 6.9654 9.1686C6.99816 9.33242 7.20567 9.88942 7.32034 9.93856C7.43502 9.98771 7.53331 9.84027 7.51693 9.81297C7.50055 9.78566 7.26028 9.3488 7.20567 9.1686C7.15106 8.98839 7.05277 8.55699 7.06915 8.4587C7.08553 8.36041 7.21113 9.27781 7.64253 9.75836C7.64253 9.75836 7.69714 9.79112 7.79543 9.72559C7.89372 9.66007 7.88826 9.60546 7.79543 9.5017C7.7026 9.39795 7.38587 8.78635 7.34219 8.62798C7.2985 8.46962 7.10738 7.94539 7.09645 7.92901C7.07554 7.7433 7.0829 7.5555 7.1183 7.37201C7.16744 7.14266 7.23843 6.82047 7.24389 6.7331C7.24935 6.64573 7.39133 6.44914 7.4241 6.40546C7.45686 6.36177 7.53331 6.15426 7.57154 6.00682C7.60976 5.85938 7.68622 5.76109 7.62069 5.75017C7.55516 5.73925 7.31488 5.77747 7.2712 5.82662C7.22751 5.87576 7.05277 5.97952 6.68144 6.82594C6.68144 6.82594 6.57768 7.02252 6.57768 7.1372C6.57762 7.28571 6.53187 7.4306 6.44662 7.55222C6.41551 7.6098 6.37695 7.66305 6.33195 7.71058Z" fill="black"/>
<path d="M6.42111 9.95515C6.4082 9.95296 6.39498 9.95335 6.38222 9.95628C6.36945 9.95922 6.3574 9.96465 6.34674 9.97226C6.33609 9.97988 6.32704 9.98952 6.32012 10.0006C6.3132 10.0118 6.30855 10.0241 6.30643 10.0371C6.29531 10.1386 6.29166 10.2408 6.29551 10.3429C6.29005 10.3975 6.22452 10.534 6.2409 10.5449C6.25729 10.5558 6.38288 10.5231 6.44295 10.4521C6.51038 10.3784 6.55082 10.2841 6.55763 10.1845C6.55763 10.0917 6.52486 9.95515 6.42111 9.95515ZM7.9938 5.88145C7.9938 5.88145 8.07572 5.78315 8.05387 5.76131C8.03203 5.73947 7.91189 5.66848 7.86821 5.72309C7.75663 5.88071 7.66835 6.05359 7.60609 6.23639C7.5624 6.40022 7.32213 6.86438 7.30029 6.96267C7.24615 7.26027 7.24246 7.56486 7.28937 7.86369C7.3549 8.33331 7.76445 9.28894 7.94466 9.49099C8.12486 9.69303 8.29961 9.49099 8.29961 9.49099L8.16309 9.33263C8.16309 9.33263 7.82452 8.72102 7.78084 8.65003C7.73715 8.57905 7.50234 8.0439 7.51872 7.86915C7.5351 7.69441 7.57333 7.45414 7.51326 7.22479C7.45319 6.99544 7.72623 6.43298 7.76991 6.35107C7.8136 6.28008 7.9938 5.88145 7.9938 5.88145Z" fill="black"/>
<path d="M7.84497 7.08294C7.84894 6.99547 7.86549 6.90903 7.89411 6.82629C7.93234 6.71707 7.97603 6.53687 7.89411 6.49318C7.8122 6.44949 7.67022 6.48226 7.67022 6.78806C7.67022 7.09386 7.59923 7.44335 7.67022 7.90206C7.74121 8.36076 8.08524 9.16895 8.54394 9.58397C9.00265 9.99899 8.92074 9.85701 9.14463 10.0591C9.36852 10.2611 10.5044 10.4741 10.8211 10.4358C11.1378 10.3976 11.2197 10.2447 11.2361 10.1901C11.2525 10.1355 11.2088 10.0427 11.1651 10.0864C11.1214 10.13 10.8866 10.343 10.1166 10.1737C9.34668 10.0044 9.14463 9.81332 9.10094 9.7751C9.05726 9.73687 8.62586 9.29455 8.57671 9.25086C8.52756 9.20718 8.03063 8.53004 8.03063 8.43175C8.03063 8.33346 8.675 9.56213 9.53234 9.88977C10.3897 10.2174 10.7064 10.1628 10.8702 10.1082C11.0341 10.0536 11.2033 10.0044 11.2033 9.94438C11.2033 9.88431 11.1979 9.76964 11.1433 9.76964C11.0887 9.76964 10.7665 9.96076 10.6136 9.94438C10.4607 9.928 10.2368 9.8297 10.0293 9.8297C9.82176 9.8297 9.3849 9.57305 9.27569 9.46929C9.16647 9.36554 8.58763 9.07066 8.03063 7.87475C8.02517 7.88021 7.81766 7.26315 7.84497 7.08294Z" fill="black"/>
<path d="M9.35241 10.2775C9.35241 10.2775 9.12306 10.1246 9.07937 10.13C9.03569 10.1355 9.04115 10.2119 9.04661 10.2938C9.05207 10.3758 9.08483 10.4631 9.13944 10.4741C9.19405 10.485 9.34149 10.4522 9.37426 10.4741C9.63771 10.6069 9.92602 10.6831 10.2207 10.6979C10.663 10.7143 10.7504 10.7307 10.876 10.7198C11.0016 10.7089 11.2145 10.6324 11.2309 10.5833C11.2473 10.5341 11.2364 10.3812 11.1927 10.3812C11.149 10.3812 11.0999 10.5997 10.2644 10.5014C9.43979 10.3921 9.35241 10.2775 9.35241 10.2775Z" fill="black"/>
<path d="M9.46104 10.6158C9.46104 10.6158 9.29176 10.4956 9.24262 10.5448C9.19347 10.5939 9.18255 10.7414 9.35183 10.7796C9.52111 10.8178 9.90336 10.927 9.99073 10.9434C10.1619 10.9754 10.3354 10.9936 10.5095 10.998C10.6952 10.998 10.8808 10.9106 10.9573 10.9106C11.0337 10.9106 11.2631 10.9106 11.274 10.8615C11.2752 10.8039 11.266 10.7465 11.2467 10.6922C11.2412 10.6704 11.1757 10.6758 11.132 10.6977C10.9912 10.7534 10.8447 10.7937 10.6952 10.8178C10.4445 10.8326 10.1929 10.8142 9.94705 10.7632C9.78201 10.7247 9.61967 10.6754 9.46104 10.6158Z" fill="black"/>
<path d="M11.1045 11.0911C11.1045 11.0911 10.7551 11.3314 9.78304 11.1785C8.81102 11.0256 9.06222 10.6433 9.08406 10.6597C9.1059 10.6761 9.18781 10.7907 9.24788 10.8126C9.30795 10.8344 10.0342 11.0747 10.2363 11.0802C10.4383 11.0856 10.7004 11.0747 10.8151 11.0365C10.9298 10.9983 11.0827 10.9 11.1428 10.9819C11.2028 11.0529 11.1045 11.0911 11.1045 11.0911Z" fill="black"/>
<path d="M9.21042 11.1015C9.21042 11.1015 9.12305 11.0414 9.12305 11.1015C9.12731 11.1445 9.14262 11.1858 9.16749 11.2212C9.19237 11.2566 9.22596 11.2849 9.26503 11.3035C9.34131 11.3419 9.42535 11.3625 9.51076 11.3636C9.61407 11.3718 9.71451 11.4016 9.80564 11.451C9.88755 11.4892 10.177 11.6039 10.6794 11.511C11.1817 11.4182 11.3073 11.2981 11.3292 11.2653C11.3456 11.2157 11.3456 11.162 11.3292 11.1124C11.3183 11.0578 11.28 11.036 11.2364 11.0796C11.1927 11.1233 10.8978 11.3854 10.177 11.3363C9.45615 11.2871 9.21042 11.1015 9.21042 11.1015Z" fill="black"/>
<path d="M9.70202 11.4949C9.70202 11.4949 9.64196 11.4075 9.47813 11.4512C9.31431 11.4949 9.89861 11.8062 9.93138 11.8335C9.96414 11.8608 10.0024 11.8772 10.1443 11.8608C10.2863 11.8444 10.6904 11.8226 10.8324 11.7898C10.9744 11.757 11.2583 11.6751 11.3457 11.5659C11.4331 11.4567 11.4003 11.3857 11.3184 11.3966C11.2365 11.4075 10.7341 11.7188 10.2317 11.6751C9.72933 11.6314 9.70202 11.4949 9.70202 11.4949Z" fill="black"/>
<path d="M10.4007 11.9375C10.4007 11.9375 10.155 11.943 10.1659 11.9921C10.1871 12.0352 10.2209 12.0709 10.2629 12.0943C10.3048 12.1177 10.3529 12.1278 10.4007 12.1232C10.5099 12.1013 11.1215 12.003 11.2471 11.9375C11.3727 11.872 11.4765 11.8556 11.4765 11.7792C11.4765 11.7027 11.4547 11.6153 11.4 11.6317C11.3454 11.6481 10.8157 11.9867 10.4007 11.9375ZM10.8867 12.1559C10.8867 12.1559 10.6192 12.2433 10.6192 12.2706C10.6192 12.2979 10.7284 12.4235 10.8157 12.4181C10.9031 12.4126 11.0942 12.287 11.1925 12.2542C11.2908 12.2215 11.5256 12.1887 11.5366 12.1232C11.545 12.0553 11.5316 11.9864 11.4983 11.9266C11.4803 11.9184 11.4608 11.9142 11.441 11.9142C11.4212 11.9142 11.4017 11.9184 11.3837 11.9266C11.3454 11.9484 10.9741 12.1505 10.8867 12.1559ZM11.1434 12.571C11.1136 12.5855 11.0809 12.593 11.0478 12.593C11.0147 12.593 10.982 12.5855 10.9523 12.571C10.8485 12.5218 10.8867 12.4617 10.9741 12.4181C11.0615 12.3744 11.2253 12.3143 11.2854 12.287C11.3454 12.2597 11.5093 12.1996 11.5366 12.2215C11.5653 12.2516 11.5844 12.2896 11.5912 12.3307C11.5912 12.358 11.1434 12.571 11.1434 12.571ZM11.2908 12.8167C11.2908 12.8167 11.127 12.7293 11.127 12.7075C11.1379 12.6854 11.154 12.6664 11.1741 12.6521C11.1941 12.6378 11.2173 12.6287 11.2417 12.6256C11.2908 12.6256 11.6239 12.4891 11.6239 12.4891C11.6239 12.4891 11.7113 12.571 11.7113 12.6529C11.7113 12.7348 11.3564 12.8276 11.2908 12.8167ZM11.7113 12.9969C11.6644 13.0058 11.6162 13.0058 11.5693 12.9969C11.5202 12.9805 11.4546 12.9095 11.4328 12.9095C11.411 12.9095 11.482 12.8658 11.5366 12.8604C11.5912 12.8549 11.684 12.8222 11.7168 12.8167C11.7495 12.8112 11.7932 12.8549 11.7932 12.9095C11.7932 12.9641 11.7113 12.9969 11.7113 12.9969ZM8.41301 5.93615C8.44792 5.90331 8.47906 5.86668 8.50585 5.82694C8.50585 5.81056 8.33656 5.7068 8.25465 5.72318C8.17274 5.73957 7.89424 6.28564 7.98161 7.04468C8.06898 7.80373 8.26557 8.58462 9.33588 9.42557C9.54192 9.59083 9.78176 9.70877 10.0384 9.77105C10.2951 9.83333 10.5623 9.83843 10.8212 9.78598C10.8212 9.78598 10.8977 9.71499 10.7884 9.70953C10.6792 9.70407 10.1058 9.60032 9.91472 9.51294C9.72359 9.42557 9.30858 9.02694 9.24305 8.99963C9.17752 8.97233 8.68605 8.46448 8.67513 8.40441C8.66421 8.34434 8.47308 8.00032 8.42939 7.83649C8.38571 7.67267 8.27649 6.98462 8.24373 6.85356C8.21096 6.7225 8.1782 6.50953 8.18912 6.43308C8.20004 6.35663 8.32018 6.04537 8.41301 5.93615Z" fill="black"/>
<path d="M8.78953 6.01747C8.78953 6.01747 8.88782 5.99016 8.89328 5.9574C8.89874 5.92463 8.88236 5.84818 8.7513 5.82634C8.62024 5.8045 8.49465 5.89733 8.40727 6.13214C8.3199 6.36695 8.35813 6.86388 8.4728 7.16968C8.58748 7.47549 8.52195 7.72122 8.73492 8.13078C8.94789 8.54033 8.94243 8.54033 9.02434 8.60586C9.10625 8.67139 9.49942 9.05364 9.55949 9.11371C9.61956 9.17378 9.96904 9.40313 10.0346 9.40313C10.1001 9.40313 10.1329 9.29392 10.1274 9.23931C10.1219 9.1847 10.1165 9.1574 10.0237 9.15194C9.93082 9.14648 9.79976 8.99358 9.79976 8.99358C9.79976 8.99358 9.30283 8.52395 9.26461 8.50211C9.22638 8.48026 8.82229 8.02156 8.82229 7.96695C8.82229 7.91235 8.82775 7.8359 8.86052 7.87958C8.89328 7.92327 9.12809 8.26183 9.28099 8.40381C9.43389 8.54579 9.9199 8.95535 10.0346 9.0045C10.1492 9.05364 10.2039 9.0591 10.2148 8.96627C10.2257 8.87344 10.2803 8.82975 10.3295 8.85706C10.3786 8.88436 10.7445 9.09733 10.8591 9.08095C10.9738 9.06457 11.1431 8.89528 11.1977 8.9062C11.2523 8.91713 11.0994 9.08641 11.0503 9.11371C11.0011 9.14102 11.0885 9.20108 11.1049 9.21201C11.1351 9.22842 11.1697 9.23513 11.2039 9.23123C11.2381 9.22732 11.2702 9.21298 11.296 9.19016C11.3834 9.11371 11.3943 9.00996 11.3342 8.87344C11.2742 8.73692 11.2578 8.50757 11.2414 8.46388C11.225 8.4202 11.2032 8.35467 11.1595 8.46388C11.1158 8.5731 11.0339 8.79699 10.7499 8.80791C10.413 8.8354 10.077 8.74465 9.79976 8.55125C9.45027 8.3219 9.0298 8.00518 8.70215 7.07139C8.37451 6.1376 8.78953 6.01747 8.78953 6.01747Z" fill="black"/>
<path d="M11.1159 8.00555C11.1015 7.99866 11.0853 7.99654 11.0696 7.99948C11.0539 8.00243 11.0395 8.01029 11.0286 8.02193C11.0122 8.04923 10.9903 7.92363 11.0231 7.8035C11.0559 7.68336 11.0286 7.50316 10.9903 7.51408C10.9521 7.525 10.6572 7.99463 10.3296 7.81442C10.0019 7.63421 9.59238 7.1209 9.4777 6.89155C9.36303 6.6622 9.22105 6.40008 9.24289 6.24718C9.24289 6.24718 9.25927 6.12705 9.26473 6.09428C9.27019 6.06152 9.1992 5.93046 9.11183 5.96322C9.02446 5.99599 8.81149 6.11612 8.78419 6.2035C8.75688 6.29087 8.66951 6.37278 8.7132 6.62397C8.75688 6.87517 8.88794 7.19735 8.93709 7.34479C8.98623 7.49223 9.13914 7.82534 9.30296 7.97278C9.46678 8.12022 9.78897 8.40964 9.93095 8.47517C10.0729 8.5407 10.3733 8.76459 10.761 8.67722C11.1487 8.58985 11.1542 8.20213 11.1542 8.16391C11.1505 8.10933 11.1376 8.05578 11.1159 8.00555ZM9.41217 7.89087C9.39579 7.86903 9.20466 7.57415 9.18282 7.55776C9.28654 7.63478 9.38337 7.72066 9.47224 7.81442C9.58146 7.94002 9.67975 8.08746 9.67975 8.13114C9.67975 8.13114 9.42856 7.91271 9.41217 7.89087ZM10.5589 8.34957C10.2531 8.33865 10.1385 8.20213 10.0565 8.15299C9.97463 8.10384 9.76166 7.8308 9.58146 7.64514C9.40125 7.45947 9.25927 7.30111 9.1992 7.18643C9.13914 7.07176 8.98077 6.5093 8.96439 6.44377C8.94801 6.37824 9.05176 6.32363 9.05176 6.3564C9.05424 6.41515 9.06154 6.47359 9.07361 6.53114C9.06268 6.80418 9.39033 7.28473 9.43402 7.37756C9.4777 7.47039 9.8545 7.87995 10.1876 8.10384C10.5207 8.32773 10.7391 8.20759 10.7937 8.18575C10.8484 8.16391 10.9084 8.16391 10.9248 8.18575C10.9412 8.20759 10.8647 8.3605 10.5589 8.34957Z" fill="black"/>
<path d="M10.9524 7.25192C10.9032 7.25192 10.794 7.38298 10.7776 7.30653C10.7612 7.23008 10.8541 7.06625 10.8541 6.91335C10.8541 6.76045 10.8213 6.47103 10.7503 6.32905C10.6793 6.18707 10.6083 6.06148 10.4827 6.13793C10.3571 6.21438 10.4227 6.27444 10.4773 6.34543C10.5319 6.41642 10.6684 6.57479 10.6684 6.76045C10.6684 6.94612 10.6411 7.18639 10.5701 7.20277C10.4991 7.21915 10.3298 7.16455 10.1769 7.04441C10.0136 6.92209 9.86189 6.78499 9.7237 6.63485C9.67455 6.56386 9.57626 6.40004 9.60356 6.37274C9.63086 6.34543 9.67455 6.33451 9.71824 6.41096C9.76192 6.48741 9.97489 6.7113 10.0295 6.76591C10.1208 6.85715 10.2174 6.94286 10.3189 7.02257C10.3844 7.06625 10.4664 7.1427 10.5264 7.04441C10.5865 6.94612 10.5974 6.7113 10.5483 6.62393C10.4991 6.53656 10.4172 6.38366 10.3899 6.34543C10.3626 6.30721 10.3189 6.24168 10.2261 6.27991C10.1333 6.31813 10.1387 6.39458 10.1715 6.42188C10.2042 6.44919 10.3517 6.55294 10.3626 6.62393C10.3735 6.69492 10.4063 6.82052 10.3517 6.76045C10.2971 6.70038 10.1551 6.5038 10.1169 6.48195C10.0786 6.46011 9.81653 6.29629 9.81653 6.29629C9.81653 6.29629 9.49981 6.16523 9.47796 6.13247C9.45612 6.0997 9.39059 6.09424 9.43974 6.27991C9.48888 6.46557 9.52165 6.68946 9.65817 6.85874C9.73471 6.94732 9.79066 7.05176 9.82199 7.16455C9.84929 7.24646 10.1223 7.65055 10.4718 7.73793C10.8213 7.8253 10.9469 7.4212 10.9633 7.38844C10.9797 7.35567 11.0015 7.25192 10.9524 7.25192ZM10.6193 7.49765C10.6083 7.57956 10.4554 7.49219 10.3899 7.49765C10.3244 7.50311 10.2042 7.3939 10.1278 7.30653C10.0513 7.21915 9.99127 7.12632 10.0131 7.1154C10.035 7.10448 10.1333 7.22462 10.2315 7.27922C10.3298 7.33383 10.4609 7.41028 10.5483 7.39936C10.6356 7.38844 10.6193 7.49765 10.6193 7.49765ZM11.3674 9.22325C11.3674 9.22325 11.2964 9.30516 11.2964 9.33793C11.2964 9.37069 11.3346 9.38707 11.3346 9.41984C11.3346 9.4526 11.3619 9.46898 11.4001 9.44168C11.4384 9.41438 11.4384 9.38161 11.4329 9.33793C11.4274 9.29424 11.4384 9.20687 11.3674 9.22325ZM11.4384 9.51267C11.4384 9.51267 11.3674 9.55636 11.3674 9.61096C11.3646 9.65643 11.3646 9.70202 11.3674 9.74748C11.3706 9.75648 11.3765 9.76426 11.3844 9.76976C11.3922 9.77526 11.4015 9.77821 11.4111 9.77821C11.4206 9.77821 11.43 9.77526 11.4378 9.76976C11.4456 9.76426 11.4515 9.75648 11.4548 9.74748C11.4766 9.7038 11.5039 9.67649 11.4821 9.62188C11.4602 9.5782 11.4821 9.47444 11.4384 9.51267ZM11.493 10.0424C11.493 10.0424 11.3947 10.1134 11.4001 10.0751C11.4056 10.0369 11.4111 9.87308 11.4438 9.86762C11.4766 9.86216 11.4766 9.79663 11.5312 9.89492C11.5858 9.99322 11.5476 10.0096 11.493 10.0424ZM11.5749 10.168C11.5749 10.168 11.6022 10.0642 11.5257 10.1297C11.4493 10.1953 11.4274 10.1734 11.4329 10.2171C11.4384 10.2608 11.4548 10.3372 11.4984 10.3263C11.5312 10.3154 11.6077 10.3318 11.5749 10.168ZM11.6186 10.3864C11.6186 10.3864 11.493 10.4465 11.5039 10.5174C11.5148 10.5884 11.5749 10.6594 11.6022 10.6594C11.6295 10.6594 11.6732 10.583 11.6568 10.5229C11.6404 10.4628 11.6623 10.3591 11.6186 10.3864Z" fill="black"/>
<path d="M8.8286 1.13013C7.46992 1.13013 6.14175 1.53302 5.01205 2.28787C3.88235 3.04271 3.00185 4.1156 2.48191 5.37086C1.96196 6.62611 1.82592 8.00736 2.09099 9.33994C2.35605 10.6725 3.01032 11.8966 3.97105 12.8573C4.93178 13.818 6.15583 14.4723 7.48841 14.7374C8.82098 15.0024 10.2022 14.8664 11.4575 14.3464C12.7128 13.8265 13.7856 12.946 14.5405 11.8163C15.2953 10.6866 15.6982 9.35843 15.6982 7.99974C15.6984 7.09755 15.5209 6.20416 15.1757 5.3706C14.8306 4.53704 14.3246 3.77966 13.6866 3.14171C13.0487 2.50377 12.2913 1.99776 11.4577 1.65261C10.6242 1.30745 9.7308 1.12991 8.8286 1.13013ZM8.8286 14.4107C7.56011 14.4112 6.31993 14.0356 5.26491 13.3313C4.2099 12.627 3.38742 11.6257 2.90148 10.4539C2.41555 9.2822 2.28799 7.99268 2.53493 6.74845C2.78188 5.50422 3.39223 4.36116 4.28881 3.46381C5.1854 2.56647 6.32794 1.95514 7.57196 1.70714C8.81598 1.45914 10.1056 1.5856 11.2777 2.07053C12.4499 2.55547 13.4519 3.3771 14.1571 4.43151C14.8623 5.48593 15.239 6.72578 15.2395 7.99428C15.2402 8.83662 15.0748 9.67082 14.7529 10.4492C14.4311 11.2276 13.9589 11.935 13.3636 12.5309C12.7682 13.1267 12.0613 13.5994 11.2831 13.922C10.505 14.2445 9.67094 14.4106 8.8286 14.4107Z" fill="black"/>
<path d="M8.82813 0C7.24588 0 5.69916 0.469192 4.38357 1.34824C3.06797 2.22729 2.04259 3.47672 1.43709 4.93853C0.831591 6.40034 0.673165 8.00887 0.981846 9.56072C1.29053 11.1126 2.05245 12.538 3.17127 13.6569C4.29009 14.7757 5.71556 15.5376 7.26741 15.8463C8.81925 16.155 10.4278 15.9965 11.8896 15.391C13.3514 14.7855 14.6008 13.7602 15.4799 12.4446C16.3589 11.129 16.8281 9.58225 16.8281 8C16.828 5.87831 15.9851 3.84357 14.4848 2.34331C12.9846 0.843046 10.9498 0.00014481 8.82813 0V0ZM8.82813 15.2519C7.39384 15.2519 5.99177 14.8266 4.7992 14.0297C3.60664 13.2329 2.67715 12.1003 2.12827 10.7752C1.57939 9.45007 1.43578 7.99196 1.71559 6.58523C1.99541 5.1785 2.68608 3.88634 3.70028 2.87215C4.71447 1.85796 6.00663 1.16728 7.41336 0.887466C8.82008 0.60765 10.2782 0.751262 11.6033 1.30014C12.9284 1.84902 14.061 2.77851 14.8578 3.97107C15.6547 5.16364 16.08 6.56571 16.08 8C16.0791 9.92305 15.3148 11.7671 13.955 13.1269C12.5952 14.4867 10.7512 15.251 8.82813 15.2519Z" fill="#151515"/>
</g>
<defs>
<clipPath id="clip0_2_3372">
<rect width="16" height="16" fill="white" transform="translate(0.828125)"/>
</clipPath>
</defs>
</svg>
