<svg width="17" height="16" viewBox="0 0 17 16" fill="none" xmlns="http://www.w3.org/2000/svg">
<g clip-path="url(#clip0_2_3374)">
<path d="M12.3438 11.9673L8.32542 15.9858L6.3321 13.9924C8.48161 13.8654 10.557 13.1665 12.3438 11.9673ZM16.1531 7.8404L15.6607 7.35067L8.32542 0.0126953L0.98745 7.35067L0.357422 7.9807L0.585079 8.17659C0.841855 8.39101 1.10657 8.59484 1.37923 8.78544C4.28054 10.8291 7.87805 11.4459 11.2003 10.6332C12.5556 10.3049 13.8421 9.74107 15.0042 8.96809C15.2928 8.7775 15.5734 8.57102 15.8487 8.35395C15.9996 8.23218 16.1478 8.10776 16.2934 7.9807L16.1531 7.8404ZM10.2605 9.68548C8.07129 8.34071 5.55118 7.63392 2.98342 7.6445C6.32945 6.18591 10.4352 5.98737 14.1995 8.15276C13.0003 8.91515 11.6609 9.43664 10.2605 9.68548Z" fill="#2B71FF"/>
</g>
<defs>
<clipPath id="clip0_2_3374">
<rect width="15.936" height="16" fill="white" transform="translate(0.357422)"/>
</clipPath>
</defs>
</svg>
