<svg width="17" height="16" viewBox="0 0 17 16" fill="none" xmlns="http://www.w3.org/2000/svg">
<g clip-path="url(#clip0_2_3375)">
<path d="M3.0584 16L5.37233 11.9929L7.68627 8L9.98609 3.99295L10.367 3.35802L10.5364 3.99295L11.2418 6.63139L10.4517 8L8.13777 11.9929L5.83794 16H8.60337L10.9173 11.9929L12.1166 9.91887L12.681 11.9929L13.7533 16H16.2365L15.1642 11.9929L14.0919 8L13.8097 6.97002L15.5311 3.99295H13.0196L12.9349 3.69665L12.0602 0.42328L11.9473 0H9.53459L9.47815 0.0846561L7.22066 3.99295L4.90673 8L2.6069 11.9929L0.292969 16H3.0584Z" fill="black"/>
</g>
<defs>
<clipPath id="clip0_2_3375">
<rect width="15.9436" height="16" fill="white" transform="translate(0.292969)"/>
</clipPath>
</defs>
</svg>
