<svg width="17" height="16" viewBox="0 0 17 16" fill="none" xmlns="http://www.w3.org/2000/svg">
<g clip-path="url(#clip0_2_3376)">
<path d="M8.23828 16C12.6566 16 16.2383 12.4183 16.2383 8C16.2383 3.58172 12.6566 0 8.23828 0C3.82 0 0.238281 3.58172 0.238281 8C0.238281 12.4183 3.82 16 8.23828 16Z" fill="#199248"/>
<path d="M8.23828 2C4.92478 2 2.23828 4.6865 2.23828 8C2.23828 11.3135 4.92478 14 8.23828 14C11.5518 14 14.2383 11.3135 14.2383 8C14.2383 6.4087 13.6061 4.88258 12.4809 3.75736C11.3557 2.63214 9.82958 2 8.23828 2ZM9.60978 13.118C8.91954 13.3019 8.19924 13.3444 7.49218 13.2428C6.78512 13.1412 6.1059 12.8977 5.49536 12.5269C4.88482 12.1561 4.35558 11.6656 3.93944 11.085C3.52331 10.5044 3.22888 9.84569 3.07386 9.14839C2.91884 8.45109 2.90643 7.72965 3.03738 7.02743C3.16833 6.32521 3.43993 5.65672 3.83585 5.06216C4.23177 4.4676 4.74384 3.95925 5.34126 3.56766C5.93869 3.17607 6.60913 2.90934 7.31228 2.7835C8.65648 2.546 10.0405 2.83643 11.1758 3.59426C12.3111 4.35209 13.1102 5.51884 13.4064 6.85133C13.7026 8.18381 13.4732 9.57921 12.7659 10.7467C12.0586 11.9142 10.928 12.7636 9.60978 13.118Z" fill="white"/>
<path d="M9.70276 3.64335C9.70276 3.90185 9.70276 4.15985 9.71276 4.41835C9.36695 4.28417 9.00695 4.18989 8.63976 4.13735C8.62476 3.90285 8.69176 3.64535 8.62326 3.42285C8.36168 3.40421 8.09922 3.40104 7.83726 3.41335C7.82426 3.65435 7.82926 3.89635 7.83726 4.13835C7.46993 4.19331 7.10998 4.28959 6.76426 4.42535C6.77176 4.16435 6.77426 3.90385 6.77076 3.64235C5.85804 3.94968 5.0648 4.53572 4.50287 5.31786C3.94094 6.1 3.63867 7.03878 3.63867 8.00185C3.63867 8.96492 3.94094 9.90371 4.50287 10.6858C5.0648 11.468 5.85804 12.054 6.77076 12.3614C6.77076 12.1054 6.76826 11.8504 6.76326 11.5954C7.10636 11.7296 7.46447 11.8218 7.82976 11.8699C7.82976 12.1044 7.82976 12.3389 7.81576 12.5709C8.09576 12.6109 8.37976 12.6109 8.65976 12.5709C8.64701 12.3399 8.64034 12.1087 8.63976 11.8774C9.00528 11.826 9.36408 11.7348 9.70976 11.6054C9.7018 11.8586 9.7018 12.1121 9.70976 12.3654C10.6221 12.0573 11.4148 11.4708 11.9761 10.6883C12.5374 9.90591 12.839 8.96706 12.8384 8.00413C12.8378 7.04119 12.535 6.10272 11.9727 5.321C11.4104 4.53928 10.617 3.95372 9.70426 3.64685L9.70326 3.64335H9.70276ZM10.3878 10.6109C9.78376 11.1584 8.92576 11.2879 8.13776 11.2764C7.44626 11.2764 6.71426 11.0889 6.21476 10.5884C5.94976 10.3324 5.79976 9.99035 5.66526 9.65085C6.14826 9.52585 6.64676 9.48385 7.13326 9.37985C7.16351 9.52695 7.23205 9.66345 7.33196 9.77557C7.43187 9.88768 7.55961 9.97143 7.70226 10.0184C8.14376 10.1564 8.69076 10.1759 9.05876 9.86085C9.31976 9.64435 9.32726 9.17085 9.00376 9.00885C8.24526 8.61685 7.30026 8.74985 6.58326 8.25385C5.59576 7.63135 5.52276 5.98035 6.48926 5.30835C7.22826 4.78985 8.21626 4.72535 9.07326 4.93335C9.84826 5.12935 10.4008 5.78635 10.6668 6.51385C10.1898 6.59635 9.71326 6.68085 9.23626 6.76135C9.11076 6.00385 8.05026 5.82385 7.52326 6.26535C7.22326 6.51485 7.30026 7.04635 7.67526 7.17935C8.49526 7.51935 9.48026 7.42135 10.2068 7.99035C11.0503 8.56235 11.1383 9.92835 10.3873 10.6104L10.3878 10.6109Z" fill="white"/>
</g>
<defs>
<clipPath id="clip0_2_3376">
<rect width="16" height="16" fill="white" transform="translate(0.238281)"/>
</clipPath>
</defs>
</svg>
