<svg width="17" height="16" viewBox="0 0 17 16" fill="none" xmlns="http://www.w3.org/2000/svg">
<g clip-path="url(#clip0_2_3377)">
<path d="M8.23828 16C12.6566 16 16.2383 12.4183 16.2383 8C16.2383 3.58172 12.6566 0 8.23828 0C3.82 0 0.238281 3.58172 0.238281 8C0.238281 12.4183 3.82 16 8.23828 16Z" fill="#00688C"/>
<path d="M13.7327 11.3353V4.99883L8.23073 1.82983L8.22323 1.83383L2.74023 5.00233V11.3373L8.22773 14.4983L8.22823 14.4988L13.7322 11.3358L13.7327 11.3353ZM11.2977 10.3223L10.3592 9.78433L8.26523 10.9998C8.25917 11.0034 8.25227 11.0053 8.24523 11.0053C8.2382 11.0053 8.2313 11.0034 8.22523 10.9998L5.82273 9.60733L5.82173 7.18483L3.71123 5.97483L8.21023 3.33733C8.21204 3.33623 8.21412 3.33564 8.21623 3.33564C8.21835 3.33564 8.22043 3.33623 8.22223 3.33733L12.4007 5.72633L11.6617 6.15383L8.22423 4.17583L5.17573 5.96533L6.23323 6.57283L8.22623 5.41383L8.22723 5.41283L10.6622 6.80533L10.6612 9.11033L12.7367 10.2988L12.7362 10.3338L8.22823 12.9658L4.04923 10.5798L4.78073 10.1513L8.22123 12.1248L11.2977 10.3218V10.3223Z" fill="white"/>
<path d="M8.89111 7.57188V7.55487L8.89061 7.54387L8.89011 7.53787L8.88911 7.52537V7.52137L8.88761 7.50787V7.50437L8.88561 7.49038V7.48787L8.88361 7.47337V7.47137L8.88111 7.45637L8.88061 7.45537L8.87761 7.44037L8.87711 7.43887L8.87361 7.42387V7.42287C8.87266 7.41783 8.87149 7.41282 8.87011 7.40788V7.40687L8.86561 7.39187V7.39138L8.86111 7.37537C8.85844 7.36517 8.8551 7.35514 8.85111 7.34538V7.34487L8.84511 7.32988C8.84328 7.32481 8.84128 7.31981 8.83911 7.31487L8.83261 7.29987L8.82611 7.28587L8.81911 7.27088L8.81211 7.25688L8.80411 7.24288C8.80138 7.23841 8.79871 7.23391 8.79611 7.22937V7.22887L8.78811 7.21587L8.78761 7.21537C8.78491 7.21112 8.78207 7.20695 8.77911 7.20287V7.20187L8.77061 7.18987C8.77061 7.18987 8.77061 7.18887 8.76961 7.18887L8.76111 7.17687L8.76011 7.17587C8.75711 7.17187 8.75511 7.16788 8.75161 7.16388L8.75111 7.16287L8.74161 7.15137L8.74061 7.15037L8.73161 7.13937L8.73061 7.13837L8.72061 7.12787C8.72019 7.12744 8.71985 7.12693 8.71961 7.12637L8.71011 7.11587C8.70969 7.11544 8.70935 7.11493 8.70911 7.11437L8.69961 7.10437C8.69578 7.10054 8.69194 7.09671 8.68811 7.09288L8.68661 7.09137L8.67661 7.08137C8.67278 7.07804 8.66894 7.07471 8.66511 7.07137L8.66361 7.06987C8.6602 7.06661 8.65669 7.06345 8.65311 7.06037L8.65161 7.05888C8.6482 7.05593 8.6447 7.0531 8.64111 7.05038L8.63961 7.04938L8.62861 7.04037L8.62711 7.03937L8.61561 7.03087L8.61411 7.02987L8.60261 7.02137L8.60111 7.02037L8.58961 7.01237L8.58811 7.01187L8.57611 7.00387L8.57511 7.00287L8.56261 6.99537H8.56161L8.54861 6.98737H8.54761L8.53411 6.97937H8.53361C8.37402 6.91198 8.19456 6.90892 8.03277 6.97083C7.87097 7.03273 7.73939 7.15482 7.66556 7.31153C7.59173 7.46824 7.58136 7.64743 7.63663 7.81161C7.69191 7.97579 7.80853 8.11222 7.96211 8.19237L7.67211 9.51837H8.76911L8.47661 8.19337C8.72761 8.08837 8.89111 7.84338 8.89111 7.57188Z" fill="white"/>
</g>
<defs>
<clipPath id="clip0_2_3377">
<rect width="16" height="16" fill="white" transform="translate(0.238281)"/>
</clipPath>
</defs>
</svg>
