<svg width="17" height="16" viewBox="0 0 17 16" fill="none" xmlns="http://www.w3.org/2000/svg">
<g clip-path="url(#clip0_2_3386)">
<path d="M8.98242 16C13.4007 16 16.9824 12.4183 16.9824 8C16.9824 3.58172 13.4007 0 8.98242 0C4.56414 0 0.982422 3.58172 0.982422 8C0.982422 12.4183 4.56414 16 8.98242 16Z" fill="#346FCE"/>
<path fill-rule="evenodd" clip-rule="evenodd" d="M11.0627 9.35337L11.5407 10.2519C11.8126 10.7634 11.8702 11.3619 11.7008 11.9159C11.5315 12.4698 11.1491 12.9338 10.6377 13.2059L10.5757 13.2389C10.3224 13.3736 10.045 13.4571 9.75947 13.4846C9.47391 13.5121 9.18573 13.4831 8.91138 13.3993C8.63703 13.3154 8.38188 13.1784 8.1605 12.9959C7.93912 12.8134 7.75585 12.5892 7.62115 12.3359L6.00965 9.30487C5.74765 8.81216 5.68414 8.23786 5.83216 7.6998C5.98018 7.16175 6.3285 6.70074 6.80565 6.41137L6.32765 5.51287C6.05579 5.00133 5.99825 4.40274 6.16768 3.84877C6.33712 3.29481 6.71965 2.83082 7.23115 2.55887L7.29315 2.52587C7.80464 2.25397 8.40318 2.19636 8.95714 2.36569C9.51109 2.53503 9.97512 2.91746 10.2472 3.42887L11.8587 6.45987C12.1207 6.95252 12.1843 7.52678 12.0364 8.06483C11.8884 8.60288 11.5402 9.06392 11.0632 9.35337H11.0627ZM11.0627 9.35337L9.92915 7.22087C9.65712 6.70946 9.19309 6.32703 8.63914 6.15769C8.08518 5.98836 7.48664 6.04597 6.97515 6.31787L6.91315 6.35037C6.87665 6.37037 6.84065 6.39037 6.80565 6.41137L7.93965 8.54387C8.21169 9.05528 8.67571 9.43771 9.22967 9.60705C9.78363 9.77639 10.3822 9.71877 10.8937 9.44687L10.9557 9.41437C10.9922 9.39437 11.0282 9.37437 11.0632 9.35337H11.0627Z" fill="white"/>
</g>
<defs>
<clipPath id="clip0_2_3386">
<rect width="16" height="16" fill="white" transform="translate(0.982422)"/>
</clipPath>
</defs>
</svg>
