<svg width="16" height="16" viewBox="0 0 16 16" fill="none" xmlns="http://www.w3.org/2000/svg">
<g clip-path="url(#clip0_2_3393)">
<path d="M1.93067 7.58988C1.93067 7.58988 1.06058 6.86481 0.528862 7.83158C0.528862 7.83158 0.432186 8.02493 0.673877 8.12161C0.673877 8.12161 0.432186 8.89502 1.64064 9.04004" fill="url(#paint0_linear_2_3393)"/>
<path d="M1.93067 7.58988C1.93067 7.58988 1.06058 6.86481 0.528862 7.83158C0.528862 7.83158 0.432186 8.02493 0.673877 8.12161C0.673877 8.12161 0.432186 8.89502 1.64064 9.04004" stroke="black" stroke-width="0.145161" stroke-linecap="round" stroke-linejoin="round"/>
<path d="M12.4188 6.62249C12.4188 6.62249 12.9989 7.58926 11.9354 8.266C11.7589 8.39313 11.563 8.49106 11.3554 8.55603C11.0653 8.60437 10.5336 8.79772 10.3886 9.42612C10.3886 9.42612 10.1469 10.1512 9.5185 10.5379C9.31401 10.676 9.07672 10.7576 8.83058 10.7746C8.58444 10.7915 8.33819 10.7432 8.11669 10.6346C7.96411 10.5521 7.83197 10.4365 7.72998 10.2962L7.68164 10.2479C8.64841 8.21766 8.35838 5.84908 8.06835 4.44727H8.11669C8.11669 4.44727 9.66351 7.20255 12.4188 6.62249Z" fill="url(#paint1_linear_2_3393)"/>
<path d="M9.42182 14.3559C9.44068 14.369 9.45705 14.3854 9.47016 14.4042C9.47399 14.445 9.46479 14.4859 9.44388 14.5211C9.42298 14.5563 9.39144 14.5839 9.35382 14.6C9.3162 14.6161 9.27443 14.6199 9.23453 14.6108C9.19463 14.6017 9.15866 14.5801 9.13179 14.5492C8.16502 13.7758 8.35838 12.7124 8.35838 12.7124L7.77832 13.0991L7.72998 12.7607V12.3257L7.68164 11.6973L8.16502 12.0356L8.45505 12.1323C8.50219 12.1571 8.54369 12.1914 8.57697 12.233C8.61024 12.2746 8.63456 12.3226 8.64841 12.374L9.42182 14.3559Z" fill="url(#paint2_linear_2_3393)"/>
<path d="M6.61928 11.6008H6.57094C6.57094 11.6008 5.16913 12.2775 3.86399 11.8425C3.86399 11.8425 3.81565 12.4225 4.63741 12.3742H4.68574L4.63741 13.1476H4.58907C3.33227 12.8092 3.33227 11.6974 3.33227 11.6974C3.33227 11.6974 1.06037 10.8274 1.78544 8.02373C1.78544 8.02373 2.02713 7.15364 2.70387 6.71859C2.89722 6.4769 2.65553 6.23521 2.65553 6.23521C1.78544 5.94518 0.528644 5.12343 0.867013 2.46482C0.93836 2.0239 1.08555 1.59868 1.30206 1.20802C1.49222 0.915167 1.75997 0.680882 2.07547 0.531282C3.09058 -0.000440463 5.65251 -0.822192 7.68272 3.18989C7.83904 3.59989 7.96822 4.01973 8.06943 4.44669C8.35946 5.8485 8.64949 8.21708 7.68272 10.2473C7.49817 10.6414 7.27125 11.0141 7.00599 11.3591C7.05432 11.7458 7.24768 12.1325 7.68272 12.3258H7.73106V12.7609H7.53771C7.41365 12.7609 7.29236 12.7242 7.18913 12.6553C7.08591 12.5865 7.00536 12.4887 6.95765 12.3742L6.61928 11.6008ZM7.05432 7.58868L6.03922 6.52524C6.1359 7.58868 5.70085 7.58868 5.70085 7.58868C4.78242 7.29865 4.73408 8.1204 4.73408 8.1204C4.73408 8.1204 4.2507 8.79714 5.12079 8.7488C5.12281 8.76485 5.12281 8.78109 5.12079 8.79714L5.41082 9.08717C5.43286 9.0999 5.45787 9.1066 5.48333 9.1066C5.50878 9.1066 5.53379 9.0999 5.55583 9.08717C6.23257 8.89382 6.1359 7.92705 6.1359 7.92705L7.05432 7.58868ZM6.37759 6.86361C6.90931 6.28355 6.18423 5.70349 6.18423 5.70349L6.37759 6.86361Z" fill="url(#paint3_linear_2_3393)"/>
<path d="M5.11975 8.74993C5.11975 8.70159 5.11975 8.36323 4.73304 8.12153C4.34634 7.87984 4.78138 7.29978 5.69981 7.58981C5.69981 7.58981 6.13486 7.58981 6.03818 6.52637L7.05329 7.58981L6.13486 7.92818C6.13486 7.92818 6.23153 8.89495 5.5548 9.0883C5.53275 9.10103 5.50775 9.10773 5.48229 9.10773C5.45683 9.10773 5.43183 9.10103 5.40978 9.0883L5.11975 8.79827C5.12177 8.78222 5.12177 8.76598 5.11975 8.74993Z" fill="url(#paint4_linear_2_3393)"/>
<path d="M6.18359 5.70386C6.18359 5.70386 6.90867 6.28392 6.37695 6.86398L6.18359 5.70386Z" fill="url(#paint5_linear_2_3393)"/>
<path d="M6.03804 14.2121C6.03804 14.3088 5.9897 14.4538 5.89303 14.4538C5.86363 14.4708 5.83029 14.4797 5.79635 14.4797C5.76241 14.4797 5.72907 14.4708 5.69967 14.4538C5.16795 14.1154 4.78124 13.2453 4.78124 13.2453L4.58789 13.5354L4.63623 13.1487L4.68457 12.3752V12.2786L5.07127 12.2302L6.03804 14.2121Z" fill="url(#paint6_linear_2_3393)"/>
<path d="M4.73365 8.12012C5.12074 8.36205 5.12074 8.70076 5.12074 8.74915C4.24977 8.79754 4.73365 8.12012 4.73365 8.12012Z" fill="url(#paint7_linear_2_3393)"/>
<path d="M6.18453 5.7036C6.18453 5.7036 6.9096 6.28366 6.37788 6.86372L6.18453 5.7036ZM6.71625 5.36523C6.71625 5.36523 7.68302 6.28366 6.86126 7.34711L6.71625 5.36523ZM4.73438 8.12052C4.73438 8.12052 4.78271 7.29877 5.70114 7.5888C5.70114 7.5888 6.13619 7.5888 6.03951 6.52536L7.05462 7.5888L6.13619 7.92717C6.13619 7.92717 6.23286 8.89394 5.55613 9.08729C5.53408 9.10002 5.50908 9.10672 5.48362 9.10672C5.45816 9.10672 5.43316 9.10002 5.41111 9.08729L5.12108 8.79726C5.1231 8.78121 5.1231 8.76497 5.12108 8.74892C5.12108 8.70058 5.12108 8.36221 4.73438 8.12052Z" stroke="black" stroke-width="0.0967742" stroke-linecap="round" stroke-linejoin="round"/>
<path d="M4.73365 8.12012C4.73365 8.12012 4.24977 8.79754 5.12074 8.74915" stroke="black" stroke-width="0.0483871" stroke-linecap="round" stroke-linejoin="round"/>
<path d="M6.95814 10.6348C6.94037 10.8775 6.95664 11.1216 7.00648 11.3598C7.05482 11.7465 7.24817 12.1333 7.68322 12.3266" stroke="black" stroke-width="0.145161" stroke-linecap="round" stroke-linejoin="round"/>
<path d="M6.37695 11.0215L6.61865 11.6015L6.95701 12.375C7.00473 12.4895 7.08528 12.5873 7.1885 12.6561C7.29173 12.7249 7.41301 12.7617 7.53707 12.7617H7.68209" stroke="black" stroke-width="0.0967742" stroke-linecap="round" stroke-linejoin="round"/>
<path d="M7.731 12.762L7.77934 13.1004L8.3594 12.7137C8.3594 12.7137 8.16605 13.7771 9.13282 14.5505C9.15968 14.5814 9.19566 14.603 9.23556 14.6121C9.27546 14.6212 9.31722 14.6175 9.35484 14.6013C9.39247 14.5852 9.424 14.5576 9.44491 14.5224C9.46581 14.4872 9.47501 14.4463 9.47118 14.4055C9.45807 14.3867 9.4417 14.3703 9.42285 14.3572L8.64943 12.3753C8.61068 12.2895 8.54193 12.2207 8.45608 12.182L8.16605 12.0369L7.68266 11.6986L7.731 12.327V12.762ZM4.58901 13.1487C3.33221 12.8104 3.33221 11.6986 3.33221 11.6986C3.33221 11.6986 1.06031 10.8285 1.78538 8.02486C1.78538 8.02486 2.02708 7.15477 2.70381 6.71972C2.85145 6.62565 3.01541 6.56007 3.1872 6.52637L4.58901 13.1487ZM4.63735 13.1487L4.58901 13.5354L4.78236 13.2454C4.78236 13.2454 5.16907 14.1155 5.70079 14.4539C5.73018 14.4708 5.76353 14.4798 5.79747 14.4798C5.83141 14.4798 5.86475 14.4708 5.89414 14.4539C5.99082 14.4539 6.03916 14.3088 6.03916 14.2122L5.07239 12.2303L4.68569 12.2786V12.3753L4.63735 13.1487Z" stroke="black" stroke-width="0.145161" stroke-linecap="round" stroke-linejoin="round"/>
<path d="M3.33227 6.33188C3.1033 6.33124 2.87553 6.29871 2.65553 6.23521C1.78544 5.94518 0.528644 5.12343 0.867013 2.46482C0.93836 2.0239 1.08555 1.59868 1.30206 1.20802C1.49222 0.915167 1.75997 0.680882 2.07547 0.531282C3.09058 -0.000440464 5.65251 -0.822192 7.68272 3.18989C7.83904 3.59989 7.96822 4.01973 8.06943 4.44669C8.35946 5.8485 8.64949 8.21708 7.68272 10.2473C7.49817 10.6414 7.27125 11.0141 7.00599 11.3591M6.57094 11.6008C6.57094 11.6008 5.16913 12.2775 3.86399 11.8425C3.86399 11.8425 3.81565 12.4225 4.63741 12.3742L6.57094 11.6008Z" stroke="black" stroke-width="0.145161" stroke-linecap="round" stroke-linejoin="round"/>
<path d="M2.6543 6.23511C2.6543 6.23511 2.89623 6.47704 2.70268 6.71898" stroke="black" stroke-width="0.0967742" stroke-linecap="round" stroke-linejoin="round"/>
<path d="M8.11718 4.44727C8.11718 4.44727 9.664 7.20255 12.4193 6.62249C12.4193 6.62249 12.9994 7.58926 11.9359 8.266C11.7593 8.39313 11.5635 8.49106 11.3558 8.55603C11.0658 8.60437 10.5341 8.79772 10.3891 9.42612C10.3891 9.42612 10.1474 10.1512 9.51899 10.5379C9.3145 10.676 9.07721 10.7576 8.83107 10.7746C8.58493 10.7915 8.33868 10.7432 8.11718 10.6346C7.9646 10.5521 7.83246 10.4365 7.73047 10.2962" stroke="black" stroke-width="0.145161" stroke-linecap="round" stroke-linejoin="round"/>
<path d="M3.37984 3.67302C4.07395 3.67302 4.63664 3.11033 4.63664 2.41622C4.63664 1.72211 4.07395 1.15942 3.37984 1.15942C2.68573 1.15942 2.12305 1.72211 2.12305 2.41622C2.12305 3.11033 2.68573 3.67302 3.37984 3.67302Z" fill="white"/>
<path d="M1.97849 4.35103C2.40564 4.35103 2.75191 4.00476 2.75191 3.57761C2.75191 3.15047 2.40564 2.8042 1.97849 2.8042C1.55135 2.8042 1.20508 3.15047 1.20508 3.57761C1.20508 4.00476 1.55135 4.35103 1.97849 4.35103Z" fill="white"/>
<path d="M2.89744 3.09371C3.27119 3.09371 3.57418 2.79072 3.57418 2.41697C3.57418 2.04322 3.27119 1.74023 2.89744 1.74023C2.52369 1.74023 2.2207 2.04322 2.2207 2.41697C2.2207 2.79072 2.52369 3.09371 2.89744 3.09371Z" fill="black"/>
<path d="M1.83348 3.96457C2.10071 3.96457 2.31735 3.74793 2.31735 3.4807C2.31735 3.21346 2.10071 2.99683 1.83348 2.99683C1.56625 2.99683 1.34961 3.21346 1.34961 3.4807C1.34961 3.74793 1.56625 3.96457 1.83348 3.96457Z" fill="black"/>
<path d="M8.35938 7.05762C8.35938 7.05762 9.32614 7.34765 9.9062 8.26608" stroke="black" stroke-width="0.145161" stroke-linecap="round" stroke-linejoin="round"/>
<path d="M12.2266 9.03955L14.6918 11.6982L12.2266 9.03955Z" fill="url(#paint8_linear_2_3393)"/>
<path d="M12.2266 9.03955L14.6918 11.6982" stroke="black" stroke-width="0.145161" stroke-linecap="round" stroke-linejoin="round"/>
<path d="M10.3418 11.0215L11.9853 12.7617L10.3418 11.0215Z" fill="url(#paint9_linear_2_3393)"/>
<path d="M10.3418 11.0215L11.9853 12.7617" stroke="black" stroke-width="0.145161" stroke-linecap="round" stroke-linejoin="round"/>
<path d="M12.9023 12.9062L15.3676 15.4682L12.9023 12.9062Z" fill="url(#paint10_linear_2_3393)"/>
<path d="M12.9023 12.9062L15.3676 15.4682" stroke="black" stroke-width="0.145161" stroke-linecap="round" stroke-linejoin="round"/>
<path d="M9.90625 13.1479L12.4198 15.8549L9.90625 13.1479Z" fill="url(#paint11_linear_2_3393)"/>
<path d="M9.90625 13.1479L12.4198 15.8549" stroke="black" stroke-width="0.145161" stroke-linecap="round" stroke-linejoin="round"/>
<path d="M6.71484 14.0181L8.5517 15.9516L6.71484 14.0181Z" fill="url(#paint12_linear_2_3393)"/>
<path d="M6.71484 14.0181L8.5517 15.9516" stroke="black" stroke-width="0.145161" stroke-linecap="round" stroke-linejoin="round"/>
<path d="M1.10815 8.12151C1.10815 8.12151 0.866214 7.97635 0.914601 7.44409L1.10815 8.12151Z" fill="url(#paint13_linear_2_3393)"/>
<path d="M1.10815 8.12151C1.10815 8.12151 0.866214 7.97635 0.914601 7.44409" stroke="black" stroke-width="0.0967742" stroke-linecap="round" stroke-linejoin="round"/>
<path d="M4.11648 5.64019C4.20589 5.54089 4.16567 5.35892 4.02666 5.23375C3.88764 5.10858 3.70247 5.08761 3.61306 5.18691C3.52365 5.2862 3.56387 5.46817 3.70288 5.59334C3.8419 5.71851 4.02707 5.73949 4.11648 5.64019Z" fill="#C1272D"/>
<path d="M3.13867 5.31638C3.13867 5.31638 4.15378 5.50973 4.25045 4.39795" stroke="black" stroke-width="0.193548" stroke-miterlimit="10"/>
</g>
<defs>
<linearGradient id="paint0_linear_2_3393" x1="0.528862" y1="8.16995" x2="1.93067" y2="8.16995" gradientUnits="userSpaceOnUse">
<stop stop-color="#FAAC17"/>
<stop offset="1" stop-color="#FFD43B"/>
</linearGradient>
<linearGradient id="paint1_linear_2_3393" x1="741.94" y1="998.354" x2="1236.34" y2="998.354" gradientUnits="userSpaceOnUse">
<stop stop-color="#FAAC17"/>
<stop offset="1" stop-color="#FFD43B"/>
</linearGradient>
<linearGradient id="paint2_linear_2_3393" x1="276.087" y1="805.5" x2="342.293" y2="805.5" gradientUnits="userSpaceOnUse">
<stop stop-color="#FAAC17"/>
<stop offset="1" stop-color="#FFD43B"/>
</linearGradient>
<linearGradient id="paint3_linear_2_3393" x1="1.88212" y1="1.83642" x2="9.37456" y2="14.4527" gradientUnits="userSpaceOnUse">
<stop stop-color="#96C859"/>
<stop offset="1" stop-color="#357303"/>
</linearGradient>
<linearGradient id="paint4_linear_2_3393" x1="223.664" y1="424.707" x2="341.816" y2="424.707" gradientUnits="userSpaceOnUse">
<stop stop-color="#FAAC17"/>
<stop offset="1" stop-color="#FFD43B"/>
</linearGradient>
<linearGradient id="paint5_linear_2_3393" x1="28.6993" y1="31.2265" x2="203.199" y2="129.173" gradientUnits="userSpaceOnUse">
<stop stop-color="#96C859"/>
<stop offset="1" stop-color="#357303"/>
</linearGradient>
<linearGradient id="paint6_linear_2_3393" x1="129.301" y1="633.084" x2="172.805" y2="633.084" gradientUnits="userSpaceOnUse">
<stop stop-color="#FAAC17"/>
<stop offset="1" stop-color="#FFD43B"/>
</linearGradient>
<linearGradient id="paint7_linear_2_3393" x1="49.4171" y1="118.634" x2="55.1495" y2="118.634" gradientUnits="userSpaceOnUse">
<stop stop-color="#FAAC17"/>
<stop offset="1" stop-color="#FFD43B"/>
</linearGradient>
<linearGradient id="paint8_linear_2_3393" x1="613.749" y1="577.982" x2="739.477" y2="577.982" gradientUnits="userSpaceOnUse">
<stop stop-color="#FAAC17"/>
<stop offset="1" stop-color="#FFD43B"/>
</linearGradient>
<linearGradient id="paint9_linear_2_3393" x1="347.26" y1="439.106" x2="403.139" y2="439.106" gradientUnits="userSpaceOnUse">
<stop stop-color="#FAAC17"/>
<stop offset="1" stop-color="#FFD43B"/>
</linearGradient>
<linearGradient id="paint10_linear_2_3393" x1="648.939" y1="763.553" x2="774.667" y2="763.553" gradientUnits="userSpaceOnUse">
<stop stop-color="#FAAC17"/>
<stop offset="1" stop-color="#FFD43B"/>
</linearGradient>
<linearGradient id="paint11_linear_2_3393" x1="502.571" y1="825.232" x2="633.278" y2="825.232" gradientUnits="userSpaceOnUse">
<stop stop-color="#FAAC17"/>
<stop offset="1" stop-color="#FFD43B"/>
</linearGradient>
<linearGradient id="paint12_linear_2_3393" x1="245.506" y1="613.414" x2="315.307" y2="613.414" gradientUnits="userSpaceOnUse">
<stop stop-color="#FAAC17"/>
<stop offset="1" stop-color="#FFD43B"/>
</linearGradient>
<linearGradient id="paint13_linear_2_3393" x1="8.79756" y1="-100.677" x2="7.60245" y2="-100.782" gradientUnits="userSpaceOnUse">
<stop stop-color="#FAAC17"/>
<stop offset="1" stop-color="#FFD43B"/>
</linearGradient>
<clipPath id="clip0_2_3393">
<rect width="14.9849" height="16" fill="white" transform="translate(0.431641)"/>
</clipPath>
</defs>
</svg>
