<svg width="17" height="16" viewBox="0 0 17 16" fill="none" xmlns="http://www.w3.org/2000/svg">
<g clip-path="url(#clip0_2_3394)">
<path d="M8.41602 16C12.8343 16 16.416 12.4183 16.416 8C16.416 3.58172 12.8343 0 8.41602 0C3.99774 0 0.416016 3.58172 0.416016 8C0.416016 12.4183 3.99774 16 8.41602 16Z" fill="#13A0F6"/>
<path fill-rule="evenodd" clip-rule="evenodd" d="M4.56534 5.78398C4.36963 5.68133 4.20574 5.52707 4.09142 5.33793C3.97711 5.14879 3.91674 4.93198 3.91684 4.71098C3.83138 4.54894 3.78389 4.36959 3.77797 4.18649C3.77206 4.00339 3.80786 3.82134 3.88267 3.65412C3.95748 3.4869 4.06935 3.33889 4.20981 3.22127C4.35026 3.10366 4.51563 3.01954 4.69339 2.97526C4.87115 2.93099 5.05666 2.92772 5.23587 2.96572C5.41508 3.00371 5.5833 3.08196 5.72781 3.19456C5.87232 3.30715 5.98932 3.45114 6.06997 3.61563C6.15063 3.78011 6.19281 3.96079 6.19334 4.14398C6.87607 3.74473 7.65294 3.53484 8.44384 3.53598C10.9138 3.53598 12.9168 5.54298 12.9168 8.01798C12.9168 10.493 10.9143 12.5 8.44384 12.5C5.97334 12.5 3.97084 10.4935 3.97084 8.01798C3.96969 7.23407 4.17471 6.46363 4.56534 5.78398ZM8.44384 10.223C9.65884 10.223 10.6438 9.23598 10.6438 8.01798C10.6438 6.79998 9.65884 5.81298 8.44384 5.81298C7.22884 5.81298 6.24384 6.80048 6.24384 8.01798C6.24384 9.23548 7.22884 10.223 8.44384 10.223Z" fill="white"/>
</g>
<defs>
<clipPath id="clip0_2_3394">
<rect width="16" height="16" fill="white" transform="translate(0.416016)"/>
</clipPath>
</defs>
</svg>
