<svg width="17" height="16" viewBox="0 0 17 16" fill="none" xmlns="http://www.w3.org/2000/svg">
<g clip-path="url(#clip0_2_3404)">
<path d="M8.05859 16C12.4769 16 16.0586 12.4183 16.0586 8C16.0586 3.58172 12.4769 0 8.05859 0C3.64032 0 0.0585938 3.58172 0.0585938 8C0.0585938 12.4183 3.64032 16 8.05859 16Z" fill="#272D63"/>
<path d="M10.1661 3.6L9.81609 5.021C10.8981 5.399 11.6946 5.966 11.5391 7.016C11.4941 7.335 11.3841 7.6545 11.1571 7.896C10.9626 8.1045 10.6586 8.215 10.3991 8.3C10.0879 8.40525 9.76251 8.46241 9.43409 8.4695C9.21409 8.4695 9.00009 8.463 8.78009 8.4435C8.42409 8.417 8.06109 8.3845 7.71159 8.3065C7.60159 8.2805 7.49759 8.261 7.40059 8.2345L6.92759 10.1445L6.64909 11.1875L6.29909 12.6155L5.43809 12.4005L5.79459 10.9595C5.59359 10.9075 5.38609 10.849 5.17909 10.7965L4.05859 10.5165L4.48609 9.5315C4.48609 9.5315 5.12109 9.7015 5.11409 9.6885C5.36059 9.747 5.46409 9.584 5.50909 9.48L5.99509 7.524L6.22159 6.618L6.48109 5.575C6.49359 5.3925 6.42909 5.158 6.07909 5.073C6.09209 5.0665 5.45109 4.9165 5.45109 4.9165L5.67759 3.991L6.86259 4.291C7.04459 4.336 7.22559 4.3755 7.41359 4.421L7.76359 3L8.62459 3.215L8.28159 4.61C8.50809 4.6625 8.74159 4.7145 8.96809 4.773L9.30459 3.3845L10.1661 3.6ZM10.0951 8.75C10.3346 8.7105 10.6261 8.613 10.8331 8.528C10.8396 8.5215 10.8531 8.5215 10.8591 8.515C11.3061 8.9125 11.5196 9.558 11.2281 10.386C10.7681 11.729 9.66109 11.8395 8.19709 11.5595L7.84109 13L6.98609 12.785L7.31609 11.4095L7.32909 11.364L7.58859 10.3075C8.35259 10.4775 9.38259 10.588 9.57659 9.7925C9.68059 9.369 9.47959 9.0625 9.15559 8.841L9.49259 8.821C9.73259 8.8085 9.85509 8.789 10.0951 8.7495V8.75ZM9.84209 7.0025C10.0951 5.979 8.52709 5.7575 8.04209 5.6275L7.61409 7.361C8.10009 7.485 9.60259 7.9805 9.84209 7.0025Z" fill="#FEFEFE"/>
</g>
<defs>
<clipPath id="clip0_2_3404">
<rect width="16" height="16" fill="white" transform="translate(0.0585938)"/>
</clipPath>
</defs>
</svg>
