<svg width="17" height="16" viewBox="0 0 17 16" fill="none" xmlns="http://www.w3.org/2000/svg">
<g clip-path="url(#clip0_2_3400)">
<path d="M7.93371 15.9531C12.0921 15.9531 15.4631 12.5821 15.4631 8.4237C15.4631 4.26532 12.0921 0.894287 7.93371 0.894287C3.77533 0.894287 0.404297 4.26532 0.404297 8.4237C0.404297 12.5821 3.77533 15.9531 7.93371 15.9531Z" fill="#8DC351"/>
<path d="M10.3817 5.83542C10.0052 4.89424 9.1111 4.84719 8.02875 5.03542L7.65227 3.71777L6.85227 3.95307L7.22875 5.22366C7.04051 5.27071 6.80522 5.36483 6.56992 5.41189L6.19345 4.09424L5.39345 4.32954L5.76992 5.64719C5.58169 5.69424 5.44051 5.7413 5.25227 5.78836L4.16992 6.16483L4.40522 7.01189C4.40522 7.01189 5.01698 6.82366 4.96992 6.82366C5.29933 6.72954 5.44051 6.87071 5.53463 7.05895L5.95816 8.56483C5.95816 8.56483 6.00522 8.56483 6.05227 8.56483L5.95816 8.61189L6.56992 10.7295C6.56992 10.8237 6.56992 11.0119 6.33463 11.106L5.76992 11.2942L5.86404 12.2825L6.89933 12.0001C7.08757 11.9531 7.2758 11.906 7.46404 11.8589L7.84051 13.1766L8.64051 12.9413L8.26404 11.6237C8.49933 11.5766 8.68757 11.5295 8.92286 11.4354L9.29933 12.7531L10.0993 12.5178L9.72286 11.2001C11.0405 10.7295 11.8876 10.1178 11.6523 8.80013C11.464 7.76483 10.8523 7.43542 10.0052 7.48248C10.4758 7.01189 10.664 6.5413 10.3817 5.83542ZM10.0993 9.03542C10.3817 10.0237 8.64051 10.4001 8.0758 10.5884L7.55816 8.80013C8.12286 8.65895 9.76992 8.00013 10.0993 9.03542ZM8.96992 6.63542C9.25227 7.52954 7.79345 7.85895 7.32286 8.00013L6.85227 6.40013C7.32286 6.25895 8.73463 5.69424 8.96992 6.63542Z" fill="white"/>
</g>
<defs>
<clipPath id="clip0_2_3400">
<rect width="16" height="16" fill="white" transform="translate(0.367188)"/>
</clipPath>
</defs>
</svg>
