<svg width="17" height="16" viewBox="0 0 17 16" fill="none" xmlns="http://www.w3.org/2000/svg">
<g clip-path="url(#clip0_2_3407)">
<path d="M8.05859 16C12.4769 16 16.0586 12.4183 16.0586 8C16.0586 3.58172 12.4769 0 8.05859 0C3.64032 0 0.0585938 3.58172 0.0585938 8C0.0585938 12.4183 3.64032 16 8.05859 16Z" fill="#FB2EA3"/>
<path d="M11.3739 7.01C11.2604 7.7775 10.8349 8.149 10.2704 8.279C11.0454 8.6825 11.4404 9.302 11.0644 10.375C10.5979 11.708 9.48992 11.82 8.01642 11.5415L7.65792 12.975L6.79392 12.7595L7.14692 11.3455C6.91662 11.2883 6.68694 11.2287 6.45792 11.1665L6.10392 12.5875L5.24042 12.3725L5.59842 10.936C5.39642 10.8845 5.19142 10.8295 4.98192 10.777L3.85742 10.497L4.28642 9.507C4.28642 9.507 4.92342 9.677 4.91442 9.664C5.15942 9.7245 5.26792 9.565 5.31092 9.459L5.87592 7.193L5.96742 7.2155C5.93808 7.20403 5.90802 7.19451 5.87742 7.187L6.28042 5.5695C6.29092 5.3855 6.22792 5.1545 5.87792 5.0665C5.89142 5.0575 5.24992 4.9105 5.24992 4.9105L5.47992 3.9875L6.67192 4.285L6.67092 4.29C6.84992 4.334 7.03492 4.3765 7.22292 4.4195L7.57742 3L8.44142 3.215L8.09442 4.607C8.32592 4.66 8.55942 4.713 8.78642 4.77L9.13142 3.3875L9.99542 3.6025L9.64142 5.0225C10.7329 5.3985 11.5309 5.962 11.3739 7.01ZM9.39892 9.779C9.67892 8.66 7.79992 8.3705 7.21392 8.224L6.73942 10.1265C7.32542 10.272 9.13242 10.8525 9.39942 9.779H9.39892ZM9.66642 6.9945C9.92042 5.976 8.34942 5.7495 7.86142 5.6275L7.43142 7.353C7.91892 7.475 9.42292 7.971 9.66642 6.9945ZM12.1814 10.809C12.1395 10.8034 12.0969 10.8061 12.0561 10.817C12.0152 10.8279 11.977 10.8468 11.9434 10.8725C11.8784 10.9282 11.8344 11.0044 11.8184 11.0885C11.8082 11.1353 11.8048 11.1833 11.8084 11.231C11.8127 11.2854 11.8302 11.3379 11.8594 11.384C11.8894 11.434 11.9374 11.481 12.0024 11.525C12.0674 11.5685 12.1574 11.6035 12.2724 11.63C12.3344 11.645 12.3984 11.652 12.4639 11.6515C12.5299 11.6515 12.5909 11.641 12.6469 11.62C12.7061 11.5991 12.7589 11.5632 12.8001 11.5158C12.8413 11.4684 12.8695 11.4111 12.8819 11.3495C12.8937 11.3056 12.8967 11.2598 12.8907 11.2147C12.8847 11.1697 12.8698 11.1263 12.8469 11.087C12.8009 11.01 12.7254 10.951 12.6199 10.91L12.6969 10.577C12.8869 10.6535 13.0199 10.763 13.0969 10.9045C13.1739 11.0465 13.1899 11.215 13.1449 11.41C13.1221 11.5181 13.077 11.6203 13.0124 11.71C12.9544 11.7891 12.88 11.8548 12.7943 11.9026C12.7087 11.9504 12.6137 11.9792 12.5159 11.987C12.4084 11.9967 12.2999 11.9888 12.1949 11.9635C12.0869 11.9394 11.9832 11.8989 11.8874 11.8435C11.7991 11.7929 11.7221 11.7249 11.6609 11.6435C11.6015 11.5627 11.5608 11.4696 11.5419 11.371C11.5217 11.2579 11.526 11.1418 11.5544 11.0305C11.5736 10.946 11.6044 10.8645 11.6459 10.7885C11.6864 10.7145 11.7359 10.652 11.7954 10.601C11.8544 10.55 11.9224 10.513 11.9994 10.49C12.0769 10.4665 12.1629 10.462 12.2584 10.4755L12.1814 10.809ZM13.5274 9.7525C13.5039 9.86366 13.4581 9.96893 13.3929 10.062C13.3314 10.147 13.2579 10.214 13.1729 10.2635C13.085 10.3134 12.9876 10.3444 12.8869 10.3545C12.7753 10.3657 12.6625 10.3579 12.5534 10.3315C12.4448 10.3075 12.3409 10.2652 12.2464 10.2065C12.1605 10.1534 12.0865 10.0829 12.0294 9.9995C11.9734 9.91573 11.9359 9.82095 11.9194 9.7215C11.9018 9.60946 11.9069 9.49502 11.9344 9.385C11.958 9.27384 12.0037 9.16857 12.0689 9.0755C12.1309 8.9905 12.2039 8.923 12.2894 8.874C12.3774 8.82405 12.4748 8.79305 12.5754 8.783C12.6804 8.7715 12.7904 8.779 12.9054 8.8055C13.015 8.82948 13.1198 8.87174 13.2154 8.9305C13.3054 8.9875 13.3774 9.0565 13.4324 9.138C13.4874 9.2195 13.5239 9.312 13.5424 9.4155C13.5601 9.5277 13.555 9.64232 13.5274 9.7525ZM12.2154 8.3535L12.2879 8.041L12.5799 8.1085L12.5814 8.1025C12.5406 8.08151 12.5044 8.05261 12.4749 8.0175C12.4071 7.9386 12.3621 7.84263 12.3449 7.74C12.3365 7.68816 12.3382 7.6352 12.3499 7.584C12.359 7.54181 12.3717 7.50048 12.3879 7.4605L12.7094 7.5345C12.7001 7.55746 12.6912 7.58063 12.6829 7.604C12.6745 7.62706 12.6675 7.6506 12.6619 7.6745C12.6481 7.72936 12.6469 7.78664 12.6583 7.84205C12.6697 7.89747 12.6935 7.94958 12.7279 7.9945C12.7669 8.04482 12.8151 8.08725 12.8699 8.1195C12.9294 8.156 13.0009 8.184 13.0849 8.2035L13.8039 8.3695L13.7269 8.7025L12.2154 8.3535ZM13.3554 7.2585C13.4134 7.2725 13.4719 7.277 13.5304 7.2735C13.586 7.27001 13.6403 7.25575 13.6904 7.2315C13.7401 7.20717 13.7837 7.17197 13.8179 7.1285C13.8565 7.07759 13.8832 7.01863 13.8959 6.956C13.9191 6.87381 13.9162 6.78643 13.8874 6.706C13.8549 6.63196 13.7998 6.57016 13.7299 6.5295L13.8024 6.214C13.9109 6.2633 14.0036 6.34167 14.0702 6.44043C14.1368 6.53919 14.1748 6.65447 14.1799 6.7735C14.1849 6.8535 14.1779 6.9345 14.1594 7.0165C14.1319 7.1355 14.0879 7.2365 14.0279 7.319C13.9703 7.39999 13.8953 7.46714 13.8085 7.51557C13.7216 7.564 13.6251 7.5925 13.5259 7.599C13.3069 7.61651 13.0879 7.56474 12.8999 7.451C12.814 7.39724 12.739 7.32768 12.6789 7.246C12.6204 7.16534 12.5794 7.07339 12.5584 6.976C12.5359 6.877 12.5384 6.771 12.5639 6.6575C12.5878 6.54583 12.6388 6.44177 12.7124 6.3545C12.7814 6.27361 12.8673 6.20876 12.9639 6.1645C13.0628 6.12073 13.1693 6.09694 13.2774 6.0945C13.3904 6.0905 13.5014 6.1085 13.6114 6.148L13.3549 7.259L13.3554 7.2585ZM13.2644 9.692C13.2809 9.62794 13.2809 9.56075 13.2645 9.49668C13.2481 9.4326 13.2157 9.37372 13.1704 9.3255C13.1267 9.2778 13.0749 9.2382 13.0174 9.2085C12.8981 9.14573 12.7647 9.11473 12.6299 9.1185C12.5653 9.11974 12.5014 9.13278 12.4414 9.157C12.3799 9.18074 12.3253 9.21962 12.2827 9.27005C12.2401 9.32048 12.211 9.38082 12.1979 9.4455C12.1813 9.50932 12.181 9.57631 12.197 9.64028C12.2131 9.70425 12.2451 9.76314 12.2899 9.8115C12.3314 9.8585 12.3824 9.897 12.4429 9.9285C12.5623 9.99102 12.6957 10.022 12.8304 10.0185C12.8952 10.0169 12.9592 10.0039 13.0194 9.98C13.0812 9.95651 13.1361 9.91779 13.1789 9.86745C13.2217 9.8171 13.2511 9.75675 13.2644 9.692ZM13.3154 6.4305C13.2624 6.42222 13.2085 6.42172 13.1554 6.429C13.1049 6.43466 13.0559 6.45025 13.0114 6.47487C12.9668 6.4995 12.9276 6.53268 12.8959 6.5725C12.8631 6.61682 12.8396 6.66728 12.8267 6.72088C12.8138 6.77448 12.8119 6.83012 12.8209 6.8845C12.8309 6.937 12.8494 6.9845 12.8774 7.027C12.9392 7.11643 13.0308 7.18081 13.1359 7.2085L13.3154 6.4305Z" fill="white"/>
</g>
<defs>
<clipPath id="clip0_2_3407">
<rect width="16" height="16" fill="white" transform="translate(0.0585938)"/>
</clipPath>
</defs>
</svg>
