<svg width="17" height="16" viewBox="0 0 17 16" fill="none" xmlns="http://www.w3.org/2000/svg">
<g clip-path="url(#clip0_2_3405)">
<path d="M15.1521 8.4237C15.1521 12.5811 11.7814 15.9519 7.6221 15.9525C3.46587 15.9525 0.0951011 12.5811 0.0957034 8.4231C0.0944987 4.26505 3.46527 0.894287 7.62331 0.894287C11.7814 0.894287 15.1521 4.26566 15.1521 8.4237Z" fill="#EAB300"/>
<path d="M10.5862 6.57921C10.4892 5.57087 9.61883 5.23295 8.51893 5.13657V3.7373H7.66781V5.09923C7.44434 5.09923 7.21544 5.10345 6.98835 5.10826V3.7373H6.13723L6.13663 5.13537C5.95231 5.13898 5.771 5.1426 5.59451 5.1426V5.13838L4.42052 5.13778V6.04734C4.42052 6.04734 5.04938 6.03529 5.03854 6.04673C5.38369 6.04673 5.49572 6.24671 5.52825 6.41959V8.01342C5.55235 8.01342 5.58307 8.01463 5.618 8.01945H5.52825L5.52765 10.2524C5.51259 10.3608 5.44874 10.5337 5.2078 10.5343C5.21864 10.5439 4.58918 10.5343 4.58918 10.5343L4.41992 11.5511H5.52825C5.73426 11.5511 5.93725 11.5547 6.13603 11.5559L6.13663 12.9708H6.98715V11.5709C7.22026 11.5757 7.44614 11.5776 7.66721 11.5776L7.6666 12.9708H8.51773V11.5589C9.94892 11.477 10.9518 11.1162 11.0759 9.7717C11.1765 8.68926 10.6675 8.20557 9.85495 8.01041C10.3495 7.75983 10.6585 7.3171 10.5862 6.57921ZM9.39475 9.60424C9.39475 10.6614 7.58468 10.5415 7.00703 10.5415V8.66637C7.58468 8.66758 9.39475 8.50193 9.39475 9.60424ZM8.99841 6.9593C8.99841 7.92126 7.48771 7.80862 7.00703 7.80922V6.10938C7.48831 6.10938 8.99901 5.95638 8.99841 6.9593Z" fill="white"/>
<path d="M5.5293 7.97583H5.65579V8.06919H5.5293V7.97583Z" fill="white"/>
</g>
<defs>
<clipPath id="clip0_2_3405">
<rect width="16" height="16" fill="white" transform="translate(0.0585938)"/>
</clipPath>
</defs>
</svg>
