<svg width="17" height="16" viewBox="0 0 17 16" fill="none" xmlns="http://www.w3.org/2000/svg">
<g clip-path="url(#clip0_2_3408)">
<path d="M16.0586 0H0.0585938V16H16.0586V0Z" fill="#265FAC"/>
<path d="M13.2912 5.31494C13.1374 6.99244 11.4752 6.78182 11.4752 6.78182V5.31494H9.80867V6.78182H6.21117V5.31494H4.5793V6.77744C2.94023 6.87744 2.83211 5.34619 2.83211 5.34619H1.19336V5.41369C1.19331 6.18981 1.49609 6.93532 2.03727 7.49162C2.57846 8.04792 3.31535 8.37112 4.09117 8.39244L4.56398 8.40525V10.4946C4.56398 11.3425 4.90079 12.1557 5.50031 12.7553C6.09983 13.3549 6.91297 13.6917 7.76086 13.6918H8.28117C9.12842 13.6893 9.94023 13.3516 10.5393 12.7525C11.1384 12.1534 11.4761 11.3416 11.4787 10.4943V8.39338H11.9715C12.7541 8.39338 13.5047 8.08248 14.0581 7.52907C14.6115 6.97566 14.9224 6.22508 14.9224 5.44244V5.31494H13.2912ZM9.81648 10.3149C9.82255 10.5521 9.78157 10.7881 9.6959 11.0093C9.61023 11.2305 9.48158 11.4325 9.31737 11.6037C9.15316 11.7749 8.95666 11.9118 8.73921 12.0066C8.52177 12.1014 8.28769 12.1522 8.05051 12.156C7.81333 12.1598 7.57775 12.1165 7.35738 12.0287C7.13701 11.941 6.93622 11.8104 6.76662 11.6445C6.59701 11.4787 6.46195 11.2809 6.36924 11.0625C6.27653 10.8442 6.22801 10.6096 6.22648 10.3724C6.22648 10.3533 6.22648 10.3341 6.22648 10.3149V8.35869H9.81648V10.3149Z" fill="white"/>
</g>
<defs>
<clipPath id="clip0_2_3408">
<rect width="16" height="16" fill="white" transform="translate(0.0585938)"/>
</clipPath>
</defs>
</svg>
