<svg width="10" height="16" viewBox="0 0 10 16" fill="none" xmlns="http://www.w3.org/2000/svg">
<g clip-path="url(#clip0_2_3410)">
<path d="M3.50461 10.0277L0.0585938 6.58167V10.7233H3.23457C3.27165 10.475 3.36355 10.2373 3.50461 10.0277ZM3.23457 11.4028H0.0585938C0.131948 12.4814 0.554337 13.5075 1.26208 14.3257L3.50461 12.0582C3.36193 11.8647 3.26923 11.6398 3.23457 11.4028ZM8.24359 7.31843C7.43428 6.59779 6.4041 6.17379 5.32153 6.11414V9.28688C5.56497 9.32638 5.79631 9.41666 6.00106 9.55369L8.24359 7.31843ZM6.52502 12.0251L8.76755 14.2677C9.46239 13.4608 9.87591 12.4491 9.94604 11.3859H6.75394C6.71606 11.6108 6.63867 11.8268 6.52502 12.0251ZM6.75475 10.7241H9.93073C9.85737 9.64559 9.43499 8.61944 8.72724 7.80127L6.4839 10.0519C6.62497 10.2518 6.71767 10.4823 6.75475 10.7241ZM1.7409 14.7965C2.55101 15.5171 3.58119 15.9411 4.66376 15.9999V12.8199C4.42032 12.7804 4.18898 12.6902 3.98423 12.5531L1.7409 14.7965ZM5.32153 12.8191V15.9951C6.4041 15.9226 7.43186 15.4937 8.2444 14.7747L6.01718 12.5475C5.80599 12.6837 5.5698 12.7756 5.32153 12.8191ZM0.0585938 5.55472C0.90982 6.40594 3.57877 9.09906 4.02857 9.5408C4.22042 9.4223 4.4308 9.33605 4.65087 9.28688V4.10135L0.0666546 0C0.0585938 0 0.0585938 5.40317 0.0585938 5.55472Z" fill="black"/>
</g>
<defs>
<clipPath id="clip0_2_3410">
<rect width="9.888" height="16" fill="white" transform="translate(0.0585938)"/>
</clipPath>
</defs>
</svg>
