<svg width="17" height="16" viewBox="0 0 17 16" fill="none" xmlns="http://www.w3.org/2000/svg">
<g clip-path="url(#clip0_2_3412)">
<path d="M9.13768 14.1179C12.6472 14.1179 15.4922 11.2729 15.4922 7.76341C15.4922 4.25393 12.6472 1.40894 9.13768 1.40894C5.6282 1.40894 2.7832 4.25393 2.7832 7.76341C2.7832 11.2729 5.6282 14.1179 9.13768 14.1179Z" fill="url(#paint0_linear_2_3412)"/>
<path d="M9.94392 7.07998C10.4588 6.41054 10.297 5.15078 9.6736 4.71998C9.05016 4.28918 8.3936 4.50486 8.26664 4.62614C8.13968 4.74742 8.14552 7.57302 8.14552 7.57302C8.14552 7.57302 9.42896 7.74966 9.94392 7.07998ZM10.0394 8.28278C9.5576 8.0731 8.14528 8.1283 8.14528 8.1283C8.14528 8.1283 8.12336 8.84182 8.17464 10.1771C8.22592 11.5124 8.68232 11.5051 9.1568 11.5233C9.63128 11.5416 10.5362 11.5086 10.8342 10.3573C11.1321 9.2059 10.5215 8.49262 10.0394 8.28302" fill="black"/>
<path d="M8.94531 0C4.52707 0 0.945312 3.58176 0.945312 8C0.945312 12.4182 4.52707 16 8.94531 16C13.3636 16 16.9453 12.4183 16.9453 8C16.9453 3.58168 13.3636 0 8.94531 0ZM12.1948 5.75792C12.2168 7.09312 11.0527 7.46832 11.0527 7.46832C11.0527 7.46832 11.5272 7.00976 11.5051 5.83528C11.483 4.6608 10.6003 4.08072 10.6003 4.08072C10.6003 4.08072 12.1728 4.42272 12.1948 5.75792ZM6.96075 12.031L5.34963 12.1083V11.9612C5.34963 11.9612 6.33547 11.8618 6.33547 10.1331V5.71552C6.33547 4.25152 5.34963 3.99776 5.34963 3.99776V3.86544L6.96075 3.94256V12.031ZM9.53547 12.1138C8.83475 12.1194 7.53443 12.0237 7.53443 12.0237V3.95376C8.39155 3.94264 8.69131 3.8268 9.39747 3.92608C10.1036 4.02536 10.7107 4.71512 10.8762 5.4048C11.0417 6.09448 10.8652 6.75104 10.6388 7.1096C10.4124 7.46816 9.91611 7.71664 9.91611 7.71664C9.91611 7.71664 10.6665 7.9704 10.9315 8.19104C11.1964 8.41168 11.7094 9.01312 11.5108 10.3208C11.3121 11.6285 10.2361 12.1083 9.53539 12.1138H9.53547ZM11.3976 11.816C11.3976 11.816 12.1616 11.1649 12.128 9.84472C12.0944 8.52456 11.3976 7.904 11.3976 7.904C11.3976 7.904 12.8348 8.2572 12.8512 9.8296C12.8677 11.402 11.3976 11.816 11.3976 11.816Z" fill="black"/>
</g>
<defs>
<linearGradient id="paint0_linear_2_3412" x1="6.0988" y1="3.47334" x2="12.2194" y2="12.1142" gradientUnits="userSpaceOnUse">
<stop stop-color="#DEB354"/>
<stop offset="1" stop-color="#C89550"/>
</linearGradient>
<clipPath id="clip0_2_3412">
<rect width="16" height="16" fill="white" transform="translate(0.945312)"/>
</clipPath>
</defs>
</svg>
