<svg width="17" height="16" viewBox="0 0 17 16" fill="none" xmlns="http://www.w3.org/2000/svg">
<g clip-path="url(#clip0_2_3415)">
<path d="M8.10352 16C12.5218 16 16.1035 12.4183 16.1035 8C16.1035 3.58172 12.5218 0 8.10352 0C3.68524 0 0.103516 3.58172 0.103516 8C0.103516 12.4183 3.68524 16 8.10352 16Z" fill="#404040"/>
<path d="M8.10352 13.5C5.06602 13.5 2.60352 11.0375 2.60352 8C2.60352 4.9625 5.06602 2.5 8.10352 2.5C11.141 2.5 13.6035 4.9625 13.6035 8C13.6035 11.0375 11.141 13.5 8.10352 13.5ZM8.10352 12.949C10.8365 12.949 13.0525 10.733 13.0525 8C13.0525 5.267 10.8365 3.051 8.10352 3.051C5.37052 3.051 3.15452 5.267 3.15452 8C3.15452 10.733 5.37052 12.949 8.10352 12.949ZM11.125 6.06C11.2075 7.529 9.85002 7.917 9.85002 7.917C11.4015 8.1385 11.3185 9.469 11.3185 9.469C11.3185 11.63 8.90752 11.7145 8.90752 11.7145H5.52602V4.286H8.57502C11.125 4.397 11.125 6.06 11.125 6.06ZM7.27202 5.6165V7.4175H8.49202C8.49202 7.4175 9.35102 7.39 9.40602 6.697V6.2535C9.40602 6.2535 9.40602 5.672 8.57452 5.6165H7.27202ZM9.57202 9.6915V9.2475C9.57202 9.2475 9.57202 8.665 8.74102 8.6095H7.27152V10.412H8.65802C8.65802 10.412 9.51702 10.3845 9.57252 9.691L9.57202 9.6915Z" fill="white"/>
</g>
<defs>
<clipPath id="clip0_2_3415">
<rect width="16" height="16" fill="white" transform="translate(0.103516)"/>
</clipPath>
</defs>
</svg>
