<svg width="16" height="16" viewBox="0 0 16 16" fill="none" xmlns="http://www.w3.org/2000/svg">
<g clip-path="url(#clip0_2_3422)">
<path d="M2.33128 11.4661C2.59098 11.2077 2.94261 11.063 3.30893 11.0637C3.67525 11.0644 4.02631 11.2105 4.285 11.4699C4.54369 11.7293 4.68886 12.0807 4.68862 12.447C4.68838 12.8133 4.54276 13.1646 4.28373 13.4236C4.0247 13.6826 3.67345 13.8283 3.30713 13.8285C2.94081 13.8287 2.58937 13.6836 2.33 13.4249C2.07063 13.1662 1.92455 12.8151 1.92383 12.4488C1.92311 12.0825 2.06782 11.7309 2.32617 11.4712L2.33128 11.4661Z" fill="#FDBA4D"/>
<path d="M11.7958 2.48125C11.9893 2.28772 12.2359 2.15592 12.5043 2.10252C12.7727 2.04912 13.0509 2.07652 13.3038 2.18125C13.5567 2.28598 13.7728 2.46334 13.9248 2.6909C14.0769 2.91846 14.158 3.186 14.158 3.45969C14.158 3.73337 14.0769 4.00091 13.9248 4.22847C13.7728 4.45603 13.5567 4.63339 13.3038 4.73812C13.0509 4.84285 12.7727 4.87025 12.5043 4.81685C12.2359 4.76345 11.9893 4.63165 11.7958 4.43812C11.5367 4.17914 11.3909 3.82791 11.3906 3.46157C11.3903 3.09523 11.5354 2.74374 11.7941 2.48432H11.7958" fill="#FDBA4D"/>
<path d="M4.10547 10.4017L5.56546 11.8617L6.90293 10.5242C6.57286 10.3917 6.27304 10.1937 6.02154 9.94218C5.77004 9.69068 5.57206 9.39086 5.43954 9.06079L4.10547 10.4017Z" fill="#FDBA4D"/>
<path d="M10.6709 6.82921L12.0084 5.49173L10.5484 4.03174L9.21094 5.36922C9.54105 5.50166 9.8409 5.69963 10.0924 5.95117C10.3436 6.20093 10.5405 6.49984 10.6709 6.82921Z" fill="#FDBA4D"/>
<path d="M11.7491 13.354C11.5555 13.1604 11.4237 12.9139 11.3703 12.6455C11.3169 12.377 11.3443 12.0988 11.4491 11.8459C11.5538 11.5931 11.7312 11.377 11.9587 11.2249C12.1863 11.0729 12.4538 10.9917 12.7275 10.9917C13.0012 10.9917 13.2687 11.0729 13.4963 11.2249C13.7238 11.377 13.9012 11.5931 14.0059 11.8459C14.1107 12.0988 14.1381 12.377 14.0847 12.6455C14.0313 12.9139 13.8995 13.1604 13.7059 13.354C13.5777 13.4825 13.4254 13.5845 13.2577 13.6541C13.09 13.7237 12.9103 13.7596 12.7287 13.7598C12.5472 13.76 12.3673 13.7243 12.1995 13.655C12.0318 13.5857 11.8793 13.4839 11.7508 13.3557L11.7491 13.354Z" fill="#5DA9DD"/>
<path d="M2.46978 4.31489C2.27625 4.12137 2.14445 3.87481 2.09105 3.60639C2.03765 3.33796 2.06505 3.05973 2.16978 2.80687C2.27451 2.55402 2.45187 2.3379 2.67943 2.18585C2.90698 2.0338 3.17452 1.95264 3.44821 1.95264C3.72189 1.95264 3.98943 2.0338 4.21699 2.18585C4.44455 2.3379 4.62191 2.55402 4.72664 2.80687C4.83137 3.05973 4.85877 3.33796 4.80537 3.60639C4.75197 3.87481 4.62017 4.12137 4.42664 4.31489C4.29827 4.44328 4.14586 4.54513 3.97813 4.61462C3.8104 4.6841 3.63062 4.71987 3.44906 4.71987C3.2675 4.71987 3.08772 4.6841 2.91999 4.61462C2.75225 4.54513 2.59985 4.44328 2.47148 4.31489" fill="#5DA9DD"/>
<path d="M10.4385 11.8036L11.8985 10.3436L10.5611 9.0061C10.4285 9.33617 10.2306 9.63599 9.97905 9.8875C9.72755 10.139 9.42773 10.337 9.09766 10.4695" fill="#5DA9DD"/>
<path d="M7.01427 5.29352L5.67679 3.95605L4.2168 5.41604L5.55427 6.75351C5.68672 6.4234 5.88469 6.12355 6.13623 5.87207C6.38599 5.62087 6.6849 5.42391 7.01427 5.29352Z" fill="#5DA9DD"/>
<path d="M9.4596 1.38512C9.45933 1.75212 9.31332 2.10398 9.05367 2.36334C8.79402 2.62271 8.44199 2.76833 8.07499 2.7682C7.708 2.76806 7.35608 2.62218 7.09662 2.36262C6.83716 2.10307 6.69141 1.7511 6.69141 1.3841C6.69141 1.0171 6.83716 0.665128 7.09662 0.405574C7.35608 0.146019 7.708 0.000135451 8.07499 9.42754e-08C8.44199 -0.000135262 8.79402 0.145489 9.05367 0.404852C9.31332 0.664214 9.45933 1.01608 9.4596 1.38308V1.38512Z" fill="#18568C"/>
<path d="M9.4596 14.6149C9.45933 14.9819 9.31332 15.3337 9.05367 15.5931C8.79402 15.8525 8.44199 15.9981 8.07499 15.9979C7.708 15.9978 7.35608 15.8519 7.09662 15.5924C6.83716 15.3328 6.69141 14.9808 6.69141 14.6138C6.69141 14.2468 6.83716 13.8949 7.09662 13.6353C7.35608 13.3758 7.708 13.2299 8.07499 13.2297C8.44199 13.2296 8.79402 13.3752 9.05367 13.6346C9.31332 13.894 9.45933 14.2458 9.4596 14.6128V14.6149Z" fill="#18568C"/>
<path d="M8.57825 3.49512H7.70703V5.21035C7.99528 5.16033 8.29 5.16033 8.57825 5.21035" fill="#18568C"/>
<path d="M8.57825 10.8652C8.29 10.9153 7.99528 10.9153 7.70703 10.8652V12.5805H8.57825" fill="#18568C"/>
<path d="M14.2034 9.00599C13.8364 9.00572 13.4845 8.85971 13.2252 8.60006C12.9658 8.34041 12.8202 7.98838 12.8203 7.62138C12.8204 7.25438 12.9663 6.90246 13.2259 6.64301C13.4854 6.38355 13.8374 6.23779 14.2044 6.23779C14.5714 6.23779 14.9234 6.38355 15.1829 6.64301C15.4425 6.90246 15.5884 7.25438 15.5885 7.62138C15.5886 7.98838 15.443 8.34041 15.1836 8.60006C14.9243 8.85971 14.5724 9.00572 14.2054 9.00599H14.2034Z" fill="#18578C"/>
<path d="M1.48864 9.24119C1.2147 9.24119 0.946914 9.15996 0.71914 9.00778C0.491365 8.85559 0.313831 8.63929 0.208985 8.38621C0.104138 8.13313 0.0766885 7.85465 0.130106 7.58597C0.183524 7.31729 0.31541 7.07049 0.509088 6.87676C0.702766 6.68303 0.949539 6.55109 1.2182 6.4976C1.48687 6.44412 1.76536 6.4715 2.01846 6.57629C2.27157 6.68107 2.48791 6.85855 2.64015 7.08629C2.79239 7.31403 2.87369 7.58179 2.87375 7.85573C2.8738 8.03765 2.83801 8.2178 2.76842 8.38589C2.69883 8.55398 2.59681 8.70672 2.46818 8.83537C2.33956 8.96403 2.18685 9.06609 2.01878 9.13572C1.8507 9.20535 1.67056 9.24119 1.48864 9.24119Z" fill="#18578C"/>
<path d="M10.6816 8.29154H12.3969V7.41895H10.6816C10.7317 7.7072 10.7317 8.00192 10.6816 8.29018V8.29154Z" fill="#18578C"/>
<path d="M5.35195 8.29163C5.30193 8.00337 5.30193 7.70866 5.35195 7.42041H3.63672V8.29163" fill="#18578C"/>
<path d="M9.99764 7.9583C9.99764 8.34668 9.88247 8.72633 9.6667 9.04926C9.45093 9.37218 9.14425 9.62387 8.78544 9.77249C8.42662 9.92112 8.0318 9.96001 7.65088 9.88424C7.26997 9.80847 6.92008 9.62145 6.64546 9.34682C6.37083 9.0722 6.18381 8.72231 6.10804 8.34139C6.03228 7.96048 6.07116 7.56565 6.21979 7.20684C6.36841 6.84802 6.6201 6.54134 6.94302 6.32557C7.26595 6.1098 7.6456 5.99463 8.03398 5.99463C8.55472 5.99481 9.05408 6.20175 9.4223 6.56997C9.79052 6.93819 9.99746 7.43756 9.99764 7.9583Z" fill="#18568B"/>
</g>
<defs>
<clipPath id="clip0_2_3422">
<rect width="15.4847" height="16" fill="white" transform="translate(0.103516)"/>
</clipPath>
</defs>
</svg>
