<svg width="17" height="16" viewBox="0 0 17 16" fill="none" xmlns="http://www.w3.org/2000/svg">
<g clip-path="url(#clip0_2_3426)">
<path d="M8.66211 16C13.0804 16 16.6621 12.4183 16.6621 8C16.6621 3.58172 13.0804 0 8.66211 0C4.24383 0 0.662109 3.58172 0.662109 8C0.662109 12.4183 4.24383 16 8.66211 16Z" fill="#FE5D86"/>
<path d="M4.66211 4.5195C4.66211 4.2325 4.89811 4 5.18911 4H8.98311C11.2211 4 12.0106 4.264 12.5546 4.8005C12.7228 4.97137 12.8534 5.17561 12.9378 5.40005C13.0222 5.62448 13.0586 5.86412 13.0446 6.1035C13.0446 7.029 12.5461 7.6565 11.2011 7.932C12.5001 8.159 13.1596 8.687 13.1596 9.749C13.1719 9.99669 13.133 10.2443 13.0452 10.4762C12.9575 10.7082 12.8228 10.9195 12.6496 11.097C12.1171 11.622 11.2471 12 8.90561 12H5.18911C5.05035 12.0009 4.9169 11.9467 4.81809 11.8493C4.71927 11.7519 4.66317 11.6193 4.66211 11.4805V4.5195ZM7.54261 7.5005C7.54261 7.309 7.70011 7.154 7.89411 7.154H9.11561C9.81261 7.154 10.3341 7.12 10.5756 6.87C10.6319 6.81094 10.6753 6.74086 10.7031 6.66418C10.7308 6.5875 10.7424 6.50589 10.7371 6.4245C10.7521 6.2645 10.6981 6.1055 10.5871 5.987C10.3421 5.746 9.82111 5.7035 9.11561 5.7035H6.84211V10.3195H9.09211C9.85811 10.3195 10.4256 10.2625 10.6906 9.9985C10.8126 9.8735 10.8756 9.7035 10.8636 9.53C10.8746 9.3535 10.8121 9.18 10.6906 9.05C10.4226 8.7865 9.85561 8.7665 9.09211 8.7665H7.90211C7.85442 8.76768 7.80698 8.75921 7.76264 8.7416C7.71831 8.72398 7.67799 8.69759 7.64411 8.664C7.61048 8.6308 7.58407 8.59101 7.56651 8.54714C7.54896 8.50326 7.54066 8.45623 7.54211 8.409L7.54261 7.5005Z" fill="white"/>
</g>
<defs>
<clipPath id="clip0_2_3426">
<rect width="16" height="16" fill="white" transform="translate(0.662109)"/>
</clipPath>
</defs>
</svg>
