<svg width="17" height="16" viewBox="0 0 17 16" fill="none" xmlns="http://www.w3.org/2000/svg">
<g clip-path="url(#clip0_2_3427)">
<path d="M16.4046 9.93518C16.0208 11.4675 15.1914 12.8517 14.0213 13.9128C12.8511 14.974 11.3926 15.6644 9.83019 15.897C8.26774 16.1295 6.67143 15.8937 5.24296 15.2193C3.81449 14.5449 2.61798 13.4622 1.80462 12.1081C0.991257 10.7539 0.597548 9.18906 0.673244 7.61122C0.748939 6.03338 1.29064 4.51338 2.2299 3.2433C3.16915 1.97322 4.46381 1.01005 5.95028 0.475513C7.43674 -0.0590282 9.0483 -0.140955 10.5813 0.240085C11.6025 0.490323 12.5641 0.940311 13.4105 1.56409C14.2569 2.18786 14.9714 2.97307 15.5128 3.87442C16.0542 4.77576 16.4117 5.77539 16.5648 6.81562C16.7178 7.85585 16.6634 8.9161 16.4046 9.93518Z" fill="#3578C6"/>
<path d="M3.39648 4.73143L8.33541 2.1311L13.804 4.73143L8.60024 7.27136L3.39648 4.73143Z" fill="white"/>
<path d="M8.76953 7.51908L13.9733 4.88623V11.3445L8.76953 13.9309V7.51908Z" fill="white"/>
</g>
<defs>
<clipPath id="clip0_2_3427">
<rect width="15.9892" height="16" fill="white" transform="translate(0.662109)"/>
</clipPath>
</defs>
</svg>
