<svg width="18" height="16" viewBox="0 0 18 16" fill="none" xmlns="http://www.w3.org/2000/svg">
<g clip-path="url(#clip0_2_3431)">
<path d="M9.20461 0.939087C9.55983 0.753883 9.99341 1.18355 9.80436 1.53844C9.69478 1.82769 9.27919 1.90461 9.06693 1.68414C8.84229 1.47247 8.91563 1.05421 9.20461 0.939087ZM5.38404 1.35083C5.59982 1.26197 5.87296 1.45969 5.85093 1.6949C5.87381 1.95018 5.56168 2.13819 5.34173 2.0168C5.05033 1.90396 5.08365 1.43088 5.38404 1.35089V1.35083ZM13.209 2.02397C12.8717 1.98323 12.8184 1.45311 13.1431 1.346C13.3949 1.22318 13.6258 1.4535 13.6627 1.69216C13.6099 1.89594 13.4392 2.08258 13.209 2.02365V2.02397ZM6.25322 2.97666C6.61398 2.74849 7.12871 3.08826 7.07324 3.5073C7.05453 3.93038 6.49253 4.1755 6.17551 3.88944C5.86912 3.6648 5.9154 3.14934 6.25322 2.97679V2.97666ZM11.7602 3.2189C11.9213 2.80456 12.5734 2.79152 12.7566 3.19569C12.9376 3.50991 12.715 3.89903 12.3924 4.00581C11.9651 4.0856 11.5592 3.62366 11.7604 3.21923L11.7602 3.2189ZM8.74451 3.98214C8.74099 3.62562 9.0657 3.35997 9.40455 3.33572C9.62926 3.38077 9.87424 3.47653 9.97066 3.70333C10.1503 4.01624 9.9908 4.44688 9.66616 4.59049C9.51772 4.67368 9.34216 4.64265 9.18049 4.6328C8.93336 4.51148 8.72521 4.27354 8.74457 3.98221L8.74451 3.98214ZM3.06283 4.50157C3.39236 4.29897 3.83696 4.66872 3.71218 5.02668C3.64348 5.33633 3.22724 5.46228 2.9893 5.26462C2.73506 5.07942 2.77554 4.63404 3.06283 4.50157ZM15.2635 4.50092C15.5431 4.28384 16.0044 4.53287 15.9711 4.88554C15.9899 5.20745 15.591 5.45015 15.3134 5.28444C15.0077 5.14708 14.9766 4.6768 15.2635 4.5006V4.50092ZM10.3423 5.14148C10.8037 4.97576 11.3517 5.17407 11.6147 5.58542C11.9616 6.08829 11.777 6.85408 11.2387 7.14261C10.6809 7.48387 9.86642 7.19476 9.66042 6.57174C9.42652 6.01411 9.76727 5.31625 10.3423 5.14148ZM7.6353 5.19669C8.14665 4.95549 8.83479 5.15758 9.0818 5.68086C9.37248 6.18999 9.1477 6.89893 8.62808 7.16177C8.1078 7.45728 7.37376 7.23348 7.12219 6.6866C6.8396 6.15805 7.09032 5.44011 7.6353 5.19669ZM4.92478 6.12336C4.96389 5.7939 5.27446 5.57955 5.58802 5.55732C5.9259 5.59807 6.19578 5.86045 6.23248 6.2027C6.21032 6.54117 5.94871 6.87207 5.59004 6.86998C5.19538 6.90395 4.84942 6.51144 4.92478 6.12363V6.12336ZM12.9307 5.62923C13.3359 5.39337 13.8985 5.73672 13.8805 6.20218C13.9082 6.69534 13.2856 7.04313 12.8822 6.75362C12.4631 6.51274 12.4957 5.83444 12.9307 5.62929V5.62923ZM6.53366 7.36712C7.00753 7.23674 7.54932 7.46008 7.78172 7.89561C8.03596 8.33401 7.93224 8.94302 7.53687 9.2646C7.02976 9.73624 6.09454 9.54687 5.82466 8.90318C5.51455 8.31315 5.89122 7.5224 6.53366 7.36705V7.36712ZM11.6681 7.36464C12.1287 7.23289 12.6698 7.41027 12.9175 7.8301C13.2449 8.31009 13.0886 9.02594 12.6012 9.33533C12.0906 9.69459 11.2997 9.50593 11.0187 8.94419C10.6781 8.36309 11.0209 7.54189 11.6681 7.36464ZM3.48591 7.91224C3.89524 7.75741 4.34896 8.20911 4.18312 8.61492C4.08188 8.98454 3.56088 9.12144 3.29171 8.84869C2.97678 8.59275 3.0934 8.02325 3.48598 7.91224H3.48591ZM14.5806 8.50116C14.5688 8.16217 14.8169 7.86165 15.1647 7.84274C15.445 7.88714 15.7176 8.11328 15.6954 8.41843C15.7211 8.8215 15.2354 9.09543 14.892 8.90605C14.7311 8.82424 14.6485 8.65918 14.5806 8.50096V8.50116ZM1.47344 8.111C1.71966 8.0035 2.02429 8.21693 1.9681 8.4904C1.95506 8.80005 1.49776 8.91909 1.32983 8.66035C1.18139 8.48102 1.27018 8.20396 1.47344 8.111ZM17.0003 8.10448C17.1737 7.98101 17.4519 8.06973 17.5205 8.27234C17.6371 8.4936 17.4234 8.79673 17.1744 8.75931C16.8248 8.79119 16.7115 8.25839 17.0003 8.10448ZM7.87129 9.59081C8.51927 9.42229 9.21583 9.96239 9.21993 10.6299C9.26224 11.3041 8.57619 11.902 7.91288 11.7462C7.40016 11.6637 6.99788 11.1698 7.0145 10.6517C7.01313 10.1563 7.38706 9.69563 7.87135 9.59081H7.87129ZM10.4375 9.58944C11.0952 9.4056 11.8125 9.95561 11.8021 10.6383C11.8368 11.3 11.1722 11.8778 10.5228 11.7465C9.9116 11.6675 9.46068 10.996 9.63128 10.4029C9.7174 10.0078 10.0476 9.68637 10.4375 9.58944ZM5.48965 10.0001C5.94474 9.92249 6.3714 10.4304 6.18685 10.8623C6.05224 11.3228 5.38208 11.4477 5.0858 11.0716C4.73827 10.7104 4.99773 10.05 5.48965 10.0001ZM13.0153 10.0211C13.4212 9.85111 13.9193 10.2021 13.888 10.6426C13.9043 11.1275 13.2893 11.4618 12.8925 11.1788C12.4427 10.9245 12.5249 10.177 13.0153 10.0211ZM15.1189 12.1309C14.96 11.8347 15.2486 11.4421 15.5775 11.497C15.7412 11.4942 15.8557 11.6232 15.9605 11.7316C15.982 11.9072 16.0181 12.1163 15.8724 12.2518C15.6746 12.5022 15.2264 12.4308 15.1189 12.1312V12.1309ZM3.06159 11.5795C3.36896 11.3749 3.81127 11.68 3.74217 12.0394C3.70541 12.3572 3.3054 12.5388 3.04138 12.3588C2.75839 12.1951 2.76882 11.729 3.06159 11.5798V11.5795ZM9.13401 12.2451C9.53643 12.0675 10.049 12.4178 10.0109 12.861C10.0407 13.3508 9.40664 13.6899 9.01348 13.3956C8.57671 13.1431 8.64933 12.4002 9.13427 12.2449L9.13401 12.2451ZM6.32108 12.9009C6.66378 12.7206 7.12376 13.032 7.09253 13.4159C7.10296 13.7308 6.79559 13.9993 6.48477 13.9527C6.22733 13.9472 6.05947 13.7164 5.97694 13.497C5.98118 13.2578 6.07962 12.9914 6.32108 12.9012V12.9009ZM12.0182 12.9067C12.3706 12.6889 12.8715 13.0018 12.8382 13.412C12.8473 13.8407 12.2812 14.1153 11.953 13.8337C11.6353 13.6129 11.6741 13.0823 12.0182 12.9067ZM13.0091 15.356C12.8526 15.1188 13.0369 14.833 13.2914 14.7789C13.4961 14.8206 13.7125 14.9745 13.6695 15.2118C13.6397 15.5329 13.17 15.6315 13.0091 15.356ZM5.14466 15.15C5.20712 14.962 5.35836 14.7751 5.57968 14.824C5.9023 14.8469 5.99806 15.3332 5.71566 15.483C5.46175 15.6542 5.16715 15.4198 5.14466 15.15ZM8.93871 15.3657C9.00051 15.0876 9.36048 14.9523 9.59777 15.1001C9.75423 15.1674 9.80032 15.3428 9.84061 15.4919C9.81909 15.5695 9.79986 15.6473 9.78096 15.725C9.68382 15.8401 9.55931 15.9553 9.39732 15.9511C9.09686 15.9863 8.82586 15.6467 8.93871 15.3657Z" fill="#3CC8C8"/>
</g>
<defs>
<clipPath id="clip0_2_3431">
<rect width="16.9412" height="16" fill="white" transform="translate(0.652344)"/>
</clipPath>
</defs>
</svg>
