<svg width="17" height="16" viewBox="0 0 17 16" fill="none" xmlns="http://www.w3.org/2000/svg">
<g clip-path="url(#clip0_2_3432)">
<path fill-rule="evenodd" clip-rule="evenodd" d="M0.59375 0H16.5938V16H0.59375V0Z" fill="#0886FB"/>
<path fill-rule="evenodd" clip-rule="evenodd" d="M13.8538 8.28823C13.8633 8.19638 13.844 8.10384 13.7986 8.02345C13.6717 7.7975 13.3574 7.70377 13.1479 7.80286C13.1016 7.82566 13.0604 7.85754 13.0267 7.89658L10.8652 9.80997V12.0173C10.8652 12.0173 8.73663 11.6919 8.26263 11.565C7.65608 11.405 7.22493 11.2892 6.82893 10.92C6.69102 10.7931 6.2997 10.4292 6.27761 9.91575V9.7062L6.26656 4.06513L9.06233 4.48891C9.28292 4.5274 9.84529 4.65427 10.2865 5.05797C10.4288 5.19166 10.5526 5.34375 10.6547 5.51021C10.8258 5.78034 10.8532 5.93466 10.8586 6.03408V7.80821C10.8682 7.9157 10.9105 8.01766 10.9797 8.10044C11.0505 8.19045 11.1533 8.24968 11.2666 8.2658C11.3767 8.27685 11.4651 8.23233 11.5535 8.19417C11.6065 8.16861 11.6565 8.13717 11.7024 8.10044L13.9027 6.25333V4.35166C13.8806 3.79465 13.5937 3.39229 13.4063 3.12751C13.3015 2.98424 12.7612 2.26187 11.7794 1.92545C11.6911 1.89801 11.6194 1.87591 11.5699 1.85851L9.15572 1.41765C8.97046 1.37961 8.78257 1.35566 8.59369 1.34602C8.48356 1.34066 8.03132 1.31254 7.60118 1.3902C6.79579 1.53983 5.71491 2.11793 5.56059 2.97253C5.55122 3.02719 5.54574 3.08245 5.54419 3.13789H5.2851C5.03609 3.22828 4.79902 3.34867 4.57913 3.4964C4.35853 3.64536 3.91734 3.94864 3.60302 4.5341C3.39838 4.92593 3.28887 5.36043 3.28334 5.80244V11.1503C3.28242 11.2423 3.2861 11.3344 3.29439 11.4261C3.29439 11.4261 3.32786 11.8783 3.44871 12.263C3.58662 12.6874 4.01107 13.388 4.76123 13.8346C4.98182 13.9685 5.47791 14.0826 6.47076 14.3143C7.07861 14.4602 7.69559 14.5651 8.31753 14.6282C8.70918 14.6667 8.89663 14.6667 9.06199 14.6557C9.38167 14.6393 9.81751 14.6115 10.3025 14.3799C11.1351 13.9782 11.5157 13.2548 11.608 13.0673C11.6355 13.0121 11.6576 12.9626 11.675 12.9294H11.7851C12.3326 12.7613 12.8205 12.4399 13.191 12.0032C13.3343 11.8378 13.8197 11.2423 13.8692 10.3874C13.8747 10.2901 13.8747 10.1925 13.8692 10.0952C13.8528 9.48293 13.8528 8.88742 13.8528 8.28756L13.8538 8.28823ZM6.84533 2.90625C7.00948 2.7643 7.19103 2.64383 7.38561 2.54774C7.56771 2.45937 8.03634 2.23911 8.57126 2.36564C8.63821 2.38204 8.69244 2.39911 8.72558 2.40983L11.2181 2.8788C11.6606 2.93614 12.0698 3.14462 12.3763 3.46895C12.47 3.56937 12.8396 3.97642 12.8837 4.57193C12.8894 4.64345 12.8894 4.7153 12.8837 4.78683V5.77398L11.8742 6.55695V6.06588C11.8665 5.9642 11.8536 5.86298 11.8357 5.7626C11.7625 5.37685 11.6022 5.01289 11.367 4.69846C11.2787 4.57159 10.7715 3.87131 9.85065 3.56803C9.8011 3.55163 9.76227 3.54059 9.72947 3.52954L6.79579 3.01671L6.84533 2.90658V2.90625ZM10.2697 13.1407C10.016 13.5323 9.43724 13.5929 9.15037 13.6203C9.01846 13.6334 8.88579 13.6371 8.75336 13.6314L5.737 13.1075L5.65432 13.069C5.44281 13.0271 5.24203 12.9426 5.06417 12.8206C4.87494 12.6898 4.71529 12.5207 4.59553 12.3242C4.48498 12.1517 4.40482 11.9615 4.35853 11.7618C4.3224 11.6027 4.30754 11.4395 4.31435 11.2765L4.30899 5.75156V5.66887C4.33109 5.09546 4.76123 4.65427 5.09764 4.38949L5.23556 4.31786C5.24091 6.10437 5.24091 7.89123 5.2466 9.67774C5.2466 9.72729 5.24125 9.79892 5.2466 9.88729C5.2851 10.7088 5.77048 11.2989 5.91944 11.47C6.53168 12.1866 7.33104 12.4072 7.84956 12.5451C8.18028 12.6335 10.3474 12.9974 10.3474 12.9974C10.3257 13.0472 10.2998 13.0951 10.2701 13.1407H10.2697ZM12.8834 10.2679C12.8493 10.6174 12.7131 10.9492 12.4918 11.2219C12.3365 11.4088 12.1452 11.5626 11.9294 11.6741V10.1852C12.2491 9.92043 12.5691 9.65599 12.8834 9.39656C12.8888 9.68344 12.8888 9.97567 12.8834 10.2669V10.2679Z" fill="#FFFDFC"/>
</g>
<defs>
<clipPath id="clip0_2_3432">
<rect width="16" height="16" fill="white" transform="translate(0.59375)"/>
</clipPath>
</defs>
</svg>
