<svg width="17" height="16" viewBox="0 0 17 16" fill="none" xmlns="http://www.w3.org/2000/svg">
<g clip-path="url(#clip0_2_3437)">
<path d="M9.62692 8.6228C9.94181 8.46806 10.207 8.22811 10.3923 7.9302C10.5777 7.63229 10.6757 7.28838 10.6754 6.93752C10.6754 5.90224 9.83836 5.0632 8.80669 5.0632C7.77502 5.0632 6.93758 5.90216 6.93758 6.93744C6.93718 7.28841 7.03531 7.63244 7.22081 7.93039C7.40631 8.22833 7.67173 8.4682 7.98686 8.62272V10.9376H9.62684V8.6228H9.62692ZM8.80677 14C5.50864 14 2.82578 11.3086 2.82578 8C2.82578 4.69136 5.50904 2.00048 8.80677 2.00048C11.4981 2.00048 13.7794 3.79248 14.5278 6.24976H16.5892C15.7938 2.67336 12.6115 0 8.80677 0C4.40248 0 0.832031 3.58168 0.832031 8C0.832031 12.4183 4.40248 16 8.80677 16C12.6115 16 15.7938 13.3266 16.5893 9.75016H14.5279C13.7789 12.208 11.4981 14 8.80677 14Z" fill="#3AB03E"/>
</g>
<defs>
<clipPath id="clip0_2_3437">
<rect width="16" height="16" fill="white" transform="translate(0.710938)"/>
</clipPath>
</defs>
</svg>
