<svg width="19" height="16" viewBox="0 0 19 16" fill="none" xmlns="http://www.w3.org/2000/svg">
<g clip-path="url(#clip0_2_3438)">
<path d="M10.7262 7.1305C11.0298 4.33259 11.0542 1.55711 11.0542 0.77374V0.69387C11.2099 0.626699 11.5174 0.564432 12.0458 0.708496C12.6511 0.873928 13.1163 1.48705 13.3332 1.82282V2.03695C13.3225 3.22615 12.9498 6.1661 12.3035 8.37137C11.7391 10.2973 10.5061 12.8606 10.2599 13.3716C10.1366 13.3441 10.0118 13.3243 9.88617 13.3122C9.98443 12.6621 10.439 9.76787 10.726 7.13058L10.7262 7.1305ZM10.5121 13.4396C10.6393 13.4801 10.7636 13.5295 10.8838 13.5875C11.2031 13.17 12.6696 11.2208 13.5864 9.45837C14.6676 7.37965 15.6739 4.62169 15.8101 4.08642L15.8656 3.86747C15.7458 3.49571 15.4588 2.80377 14.9012 2.44076C14.5167 2.17443 14.0611 2.02966 13.5934 2.02521V2.0359C13.5827 3.23973 13.2041 6.21374 12.5531 8.44134C11.9974 10.3362 10.8091 12.8274 10.5113 13.4396H10.5123H10.5121ZM11.1164 13.715C11.2687 13.8078 11.4118 13.915 11.5436 14.0352C11.9328 13.6459 13.5736 12.021 14.6626 10.6485C15.92 9.06419 17.1706 6.83974 17.3749 6.35807L17.481 6.10699C17.4518 5.78777 17.3632 5.28079 17.0917 4.90508C16.826 4.56419 16.4684 4.30624 16.0611 4.16156C15.8899 4.82302 14.8486 7.60166 13.8228 9.58089C12.9139 11.318 11.4845 13.2303 11.1155 13.7145H11.1164L11.1164 13.715ZM6.4705 8.15619C7.1994 10.5434 8.28334 12.9247 8.5268 13.4503C8.65427 13.4093 8.78431 13.3768 8.91608 13.353C8.81878 12.7846 8.32345 9.79502 8.01588 6.98354C7.68011 3.91126 7.54297 1.30699 7.5293 0.778557V0.726011C7.28987 0.662781 6.78096 0.576167 6.12212 0.879796C5.64741 1.11653 5.2722 1.51418 5.06341 2.00183C5.07313 2.07382 5.08285 2.15465 5.09458 2.24512C5.19171 3.02464 5.65788 5.49553 6.4705 8.15619ZM8.27379 6.95429C8.58233 9.77067 9.08055 12.7681 9.17303 13.315C9.29814 13.302 9.42383 13.2955 9.54961 13.2955H9.6174C9.71469 12.7048 10.175 9.76971 10.4651 7.10028C10.7677 4.31604 10.7911 1.55317 10.7911 0.774616V0.648068C10.5449 0.429126 9.97462 0 9.27602 0C8.57742 0 8.01982 0.429126 7.77653 0.648068V0.769799C7.80184 1.29631 7.93811 3.89077 8.27379 6.95534V6.95438V6.95429ZM9.54961 13.5563C8.12386 13.5563 7.47282 14.4069 7.28015 14.7242C8.48599 15.6088 9.25281 16.0003 9.5603 16.0003C9.86778 16.0003 10.7417 15.5263 11.8151 14.7624C11.6176 14.4296 10.9656 13.5576 9.54961 13.5576V13.5566V13.5563ZM17.6056 6.47455C17.3798 6.9923 16.1244 9.22279 14.8645 10.811C13.7677 12.1929 12.125 13.8278 11.725 14.2171C11.8357 14.3377 11.9354 14.468 12.0228 14.6064C12.8789 13.98 13.6954 13.301 14.4674 12.5734C16.5263 10.6271 18.1649 8.70512 18.2216 7.73477C18.2417 7.48874 18.1951 7.24184 18.0867 7.02006C17.9783 6.79829 17.8121 6.60984 17.6056 6.47455ZM4.09306 10.4829C5.13446 11.7595 6.27979 12.9476 7.51731 14.035C7.60544 13.9547 7.69873 13.8803 7.79659 13.8122C6.68307 12.456 5.71892 10.9839 4.92083 9.42115C3.5746 6.79963 3.06245 4.98557 2.84343 4.21095L2.8133 4.09517V4.08983C2.5116 4.17058 1.75152 4.42262 1.45087 4.97436C1.31715 5.22883 1.24767 5.51213 1.24848 5.79959C1.30543 5.96302 1.36579 6.12525 1.4295 6.28617C1.89847 7.47493 2.79517 8.89096 4.09306 10.4829ZM3.89067 10.6484C2.62553 9.09125 1.73216 7.70158 1.23972 6.51334C1.05485 6.67588 0.671348 7.10886 0.714261 7.87577C0.769697 8.88203 2.21489 10.4732 4.85708 12.7621C5.7057 13.4978 6.44528 14.0954 7.07496 14.5662C7.15269 14.4439 7.24057 14.3283 7.33769 14.2207C6.09229 13.1267 4.93912 11.9319 3.88988 10.6485H3.89084L3.89067 10.6484ZM3.09556 4.13993C3.31161 4.90675 3.81859 6.7033 5.15361 9.29819C5.94727 10.8546 6.90829 12.3197 8.01965 13.6677C8.10458 13.6203 8.19196 13.5775 8.28141 13.5393C8.01868 12.9719 6.94526 10.6032 6.22021 8.22958C5.40294 5.55236 4.93388 3.06063 4.83457 2.27332V2.24319C4.40054 2.22139 3.97236 2.35069 3.62295 2.60909C3.21519 2.90982 3.04976 3.39728 2.98162 3.72236C3.00203 3.80407 3.0283 3.90145 3.0614 4.02012L3.09556 4.13993Z" fill="url(#paint0_linear_2_3438)"/>
</g>
<defs>
<linearGradient id="paint0_linear_2_3438" x1="4.54828" y1="1.99009" x2="14.3982" y2="12.6344" gradientUnits="userSpaceOnUse">
<stop stop-color="white"/>
<stop offset="0.16" stop-color="#D5AC51"/>
<stop offset="0.18" stop-color="#D2A644"/>
<stop offset="0.26" stop-color="#CC9B2E"/>
<stop offset="0.29" stop-color="#E6DE5F"/>
<stop offset="0.45" stop-color="#9D9A62"/>
<stop offset="0.63" stop-color="#787864"/>
<stop offset="0.7" stop-color="#517E69" stop-opacity="0.96"/>
<stop offset="0.89" stop-color="#4F99CA"/>
</linearGradient>
<clipPath id="clip0_2_3438">
<rect width="17.5153" height="16" fill="white" transform="translate(0.710938)"/>
</clipPath>
</defs>
</svg>
