<svg width="17" height="16" viewBox="0 0 17 16" fill="none" xmlns="http://www.w3.org/2000/svg">
<g clip-path="url(#clip0_2_3439)">
<path d="M8.22656 16C12.6448 16 16.2266 12.4183 16.2266 8C16.2266 3.58172 12.6448 0 8.22656 0C3.80828 0 0.226562 3.58172 0.226562 8C0.226562 12.4183 3.80828 16 8.22656 16Z" fill="#FF3A00"/>
<path d="M8.22806 2.5C11.2616 2.505 13.7276 4.973 13.7266 8.0015C13.7256 11.0335 11.2576 13.5 8.22456 13.5H8.21956C5.18956 13.497 2.72506 11.0265 2.72656 7.993C2.72806 4.965 5.19656 2.5 8.22806 2.5ZM8.22656 3.209C5.58806 3.209 3.44056 5.358 3.43956 7.999C3.43906 10.637 5.58356 12.785 8.22056 12.787C10.8621 12.787 13.0131 10.639 13.0151 7.999C13.0169 7.37004 12.8939 6.74696 12.6532 6.16589C12.4124 5.58482 12.0587 5.05733 11.6126 4.614C11.1693 4.16757 10.6419 3.81352 10.0608 3.57234C9.47979 3.33117 8.85667 3.20767 8.22756 3.209H8.22656ZM10.5906 7.5085C10.7601 8.368 10.5421 9.09 9.92456 9.717L9.83956 9.8025L9.73156 9.7495C9.67177 9.72026 9.61108 9.69291 9.54956 9.6675L9.30506 9.5655L9.50206 9.3885C9.88656 9.0435 10.0911 8.593 10.1106 8.05C10.1306 7.507 9.93806 7.0335 9.53906 6.643C9.18934 6.29988 8.7185 6.10839 8.22856 6.11C7.96079 6.10979 7.69605 6.16673 7.45203 6.27701C7.20802 6.38729 6.99035 6.54838 6.81356 6.7495C6.41456 7.2045 6.26206 7.7585 6.37356 8.351C6.44249 8.74298 6.63817 9.10149 6.93056 9.3715L7.12406 9.551L6.87956 9.6495C6.81856 9.674 6.75456 9.7005 6.68606 9.7295L6.58106 9.7735L6.50106 9.692C6.08956 9.268 5.86656 8.78 5.82006 8.2C5.72156 6.9775 6.51406 5.9005 7.70506 5.6395C7.88075 5.60062 8.06013 5.58084 8.24006 5.5805C8.79417 5.58103 9.331 5.77336 9.75938 6.12482C10.1878 6.47627 10.4813 6.96518 10.5901 7.5085H10.5906ZM5.21306 10.6535C4.47506 9.8305 3.87656 8.3705 4.41156 6.7415C4.67594 5.93893 5.18673 5.2402 5.87123 4.74475C6.55573 4.24931 7.37907 3.98239 8.22406 3.982C9.06189 3.98103 9.87903 4.24224 10.5609 4.72903C11.2428 5.21582 11.7553 5.90379 12.0266 6.6965C12.4996 8.0825 12.1706 9.6585 11.1891 10.7115L11.0641 10.845L10.6156 10.344L10.7146 10.2325C11.3286 9.541 11.6136 8.721 11.5621 7.796C11.5141 6.951 11.1781 6.215 10.5631 5.609C9.94206 4.99477 9.10302 4.65156 8.22956 4.6545C7.42727 4.65485 6.65175 4.94316 6.04406 5.467C5.57322 5.86874 5.22508 6.39501 5.03956 6.9855C4.85107 7.57245 4.83029 8.20038 4.97956 8.7985C5.10374 9.31069 5.34893 9.78564 5.69456 10.1835L5.79256 10.297L5.33456 10.79L5.21306 10.6535Z" fill="white"/>
</g>
<defs>
<clipPath id="clip0_2_3439">
<rect width="16" height="16" fill="white" transform="translate(0.226562)"/>
</clipPath>
</defs>
</svg>
