<svg width="16" height="16" viewBox="0 0 16 16" fill="none" xmlns="http://www.w3.org/2000/svg">
<path d="M8 16C12.4183 16 16 12.4183 16 8C16 3.58172 12.4183 0 8 0C3.58172 0 0 3.58172 0 8C0 12.4183 3.58172 16 8 16Z" fill="#77C3B0"/>
<path d="M12.8394 6.64145L11.9954 5.79745C11.8686 5.67 11.7177 5.569 11.5515 5.50034C11.3854 5.43167 11.2072 5.3967 11.0274 5.39745H10.8974V5.26245C10.8974 5.02595 10.8414 4.80095 10.7234 4.59845C10.6627 4.48102 10.5827 4.37455 10.4869 4.28345L9.64291 3.43895C9.51603 3.31144 9.36507 3.21041 9.19881 3.14174C9.03254 3.07307 8.85429 3.03813 8.67441 3.03895H4.78541C4.41941 3.03895 4.07641 3.17995 3.81741 3.43895L2.97341 4.28295C2.84559 4.40836 2.74431 4.5582 2.67559 4.72355C2.60687 4.88891 2.57212 5.0664 2.57341 5.24545L2.55091 8.89295C2.54591 9.25845 2.69191 9.61295 2.95091 9.87195L3.79491 10.7165C3.92175 10.8438 4.07264 10.9448 4.23882 11.0133C4.40499 11.0819 4.58314 11.1168 4.76291 11.116H4.91491V11.251C4.91491 11.4875 4.97141 11.7125 5.08941 11.915C5.15141 12.0335 5.22991 12.14 5.32591 12.23L6.16991 13.075C6.29687 13.2021 6.4478 13.3029 6.61395 13.3714C6.78011 13.4399 6.95819 13.4747 7.13791 13.474H11.0329C11.3989 13.474 11.7419 13.3335 12.0009 13.0745L12.8454 12.2305C12.9727 12.1035 13.0735 11.9526 13.1421 11.7864C13.2106 11.6203 13.2456 11.4422 13.2449 11.2625V7.60395C13.244 7.42478 13.2077 7.24755 13.1382 7.0824C13.0687 6.91724 12.9673 6.76741 12.8399 6.64145H12.8394ZM4.76291 9.87745C4.72719 9.8775 4.69288 9.86349 4.66741 9.83845L4.24541 9.41595L3.82291 8.99395C3.80478 8.97265 3.79132 8.94778 3.78341 8.92095V5.25145C3.78341 5.21145 3.80041 5.17795 3.82341 5.15545L4.66741 4.31145C4.67841 4.29995 4.68991 4.29445 4.70091 4.28895C4.72176 4.27807 4.74488 4.27225 4.76841 4.27195H8.66341C8.68591 4.27195 8.70291 4.27745 8.72541 4.28895C8.74241 4.29445 8.75341 4.30595 8.76491 4.31695L9.60891 5.16145C9.62124 5.17201 9.63084 5.18539 9.63691 5.20045C9.64291 5.20645 9.64291 5.21195 9.64291 5.21745C9.64291 5.22295 9.64791 5.22895 9.64791 5.23445C9.64791 5.23995 9.65391 5.25695 9.65391 5.26795V5.44795C9.65391 5.52695 9.59191 5.58295 9.51891 5.58295H8.84391C8.80801 5.58313 8.77351 5.56911 8.74791 5.54395L8.36491 5.16145H5.06691L4.92641 5.30145L4.73491 5.49345V8.66195L5.06691 8.99395H8.35941L8.74241 8.60595L8.74741 8.59995C8.75891 8.59445 8.77041 8.58295 8.78141 8.57745C8.79841 8.56645 8.82141 8.56645 8.83791 8.56645H9.51291C9.55791 8.56645 9.59791 8.58895 9.62591 8.62245C9.64341 8.64513 9.65322 8.67281 9.65391 8.70145V8.89295C9.65382 8.92874 9.63963 8.96306 9.61441 8.98845L9.19241 9.41045L8.77041 9.83245C8.76491 9.83845 8.75341 9.84395 8.74791 9.84945C8.74791 9.84945 8.74241 9.85495 8.73641 9.85495C8.73091 9.86095 8.72541 9.86095 8.71941 9.86095C8.71441 9.86095 8.71441 9.86095 8.70841 9.86645C8.70291 9.86645 8.69691 9.87195 8.69141 9.87195H4.76291V9.87745ZM12.0124 11.251C12.0122 11.2868 11.9978 11.3211 11.9724 11.3465L11.1284 12.191C11.1186 12.2003 11.1073 12.2079 11.0949 12.2135C11.074 12.2243 11.0509 12.2302 11.0274 12.2305H7.13241C7.11063 12.2301 7.0893 12.2243 7.07041 12.2135C7.05534 12.2074 7.04197 12.1978 7.03141 12.1855L6.18691 11.341C6.17591 11.33 6.16441 11.3185 6.15891 11.3015C6.15291 11.2965 6.15291 11.2905 6.15291 11.285C6.15291 11.279 6.14791 11.2735 6.14791 11.268C6.14791 11.2625 6.14191 11.2455 6.14191 11.234V11.054C6.14191 10.9755 6.20391 10.919 6.27691 10.919H6.95191C6.99191 10.919 7.02541 10.936 7.04791 10.9585L7.43091 11.341H10.7234L10.8639 11.2005L11.0554 11.009V7.84045L10.7234 7.50795H7.43641L7.05391 7.89645L7.04791 7.90195C7.03691 7.90795 7.02541 7.91895 7.01441 7.92445C6.99741 7.93595 6.97491 7.93595 6.95791 7.93595H6.28291C6.26105 7.93553 6.23957 7.93024 6.22003 7.92046C6.20048 7.91069 6.18336 7.89668 6.16991 7.87945C6.1525 7.85691 6.14269 7.82943 6.14191 7.80095V7.60945C6.1419 7.59172 6.14538 7.57416 6.15216 7.55778C6.15893 7.54139 6.16887 7.5265 6.18141 7.51395L6.60341 7.09195L7.02541 6.66945C7.03141 6.66395 7.04241 6.65845 7.04791 6.65245C7.04791 6.65245 7.05391 6.64745 7.05941 6.64745C7.06491 6.64145 7.07041 6.64145 7.07641 6.64145C7.08141 6.64145 7.08141 6.64145 7.08741 6.63595C7.09291 6.63595 7.09891 6.62995 7.10441 6.62995H11.0274C11.0664 6.62995 11.1004 6.64695 11.1229 6.66995L11.5449 7.09195L11.9674 7.51395C11.9724 7.51945 11.9784 7.52495 11.9839 7.53645C11.9939 7.55208 12.0015 7.5691 12.0064 7.58695V7.61495C12.0124 7.60395 12.0124 11.251 12.0124 11.251Z" fill="white"/>
</svg>
