<svg width="16" height="16" viewBox="0 0 16 16" fill="none" xmlns="http://www.w3.org/2000/svg">
<path d="M8 16C12.4183 16 16 12.4183 16 8C16 3.58172 12.4183 0 8 0C3.58172 0 0 3.58172 0 8C0 12.4183 3.58172 16 8 16Z" fill="black"/>
<path d="M7.94818 2.19892C7.87518 2.03392 8.13918 1.91692 8.21218 2.07392C9.92818 5.02992 11.6442 7.98742 13.3602 10.9479C13.2687 10.9479 13.1807 10.9179 13.0927 10.9039L8.51268 9.99092C8.36268 9.98342 8.32968 9.74092 8.47618 9.70492L10.2732 9.20992C10.2946 9.20449 10.3146 9.1944 10.3316 9.18036C10.3487 9.16633 10.3624 9.14869 10.3719 9.12873C10.3813 9.10876 10.3863 9.08695 10.3863 9.06485C10.3864 9.04276 10.3815 9.02093 10.3722 9.00092L7.94818 2.19492V2.19842V2.19892Z" fill="white"/>
<path d="M7.685 2.21411C7.7015 2.23811 7.716 2.26411 7.7285 2.29111C8.2715 3.83111 8.8285 5.37111 9.3675 6.91111C9.4155 7.03911 9.2355 7.14561 9.1475 7.05011C8.6855 6.56611 8.2455 6.06761 7.791 5.58361C7.7175 5.51761 7.611 5.56161 7.5635 5.63111L2.841 11.1791C2.786 11.2376 2.7385 11.3256 2.6465 11.3366C2.5805 11.3366 2.5365 11.2851 2.5 11.2341V11.1491C4.2305 8.17211 5.959 5.19411 7.685 2.21411Z" fill="white"/>
<path d="M6.23945 7.49754C6.32745 7.47204 6.44445 7.53404 6.41545 7.64054C6.23195 8.27854 6.03795 8.91304 5.84695 9.54704C5.81795 9.62804 5.89095 9.70104 5.96795 9.70504C8.43945 10.2 10.911 10.713 13.382 11.208C13.43 11.2155 13.463 11.252 13.4995 11.2815V11.384L13.4295 11.4575H2.93945C4.03945 10.1375 5.13595 8.81004 6.23945 7.49754Z" fill="white"/>
</svg>
