<svg width="17" height="16" viewBox="0 0 17 16" fill="none" xmlns="http://www.w3.org/2000/svg">
<g clip-path="url(#clip0_2_3447)">
<path d="M8.80664 16C13.2249 16 16.8066 12.4183 16.8066 8C16.8066 3.58172 13.2249 0 8.80664 0C4.38836 0 0.806641 3.58172 0.806641 8C0.806641 12.4183 4.38836 16 8.80664 16Z" fill="#0F1529"/>
<path fill-rule="evenodd" clip-rule="evenodd" d="M13.2231 7.673C13.1226 7.6955 13.0536 7.7085 12.9861 7.7265C12.5636 7.837 12.1381 7.9245 11.6981 7.908C11.1101 7.8855 10.6051 7.649 10.1596 7.268C9.97964 7.1135 9.81264 6.943 9.64064 6.779C9.55714 6.7 9.53714 6.61 9.60064 6.507L9.76314 6.2435L9.98264 6.4845C10.2991 6.8355 10.6376 7.155 11.0841 7.3255C11.5226 7.4925 11.9691 7.468 12.4176 7.3925C13.0516 7.2865 13.6371 7.033 14.2111 6.7485C14.2301 6.739 14.2511 6.733 14.3066 6.711C14.2686 6.7825 14.2476 6.825 14.2236 6.865C13.3856 8.274 12.5476 9.683 11.7086 11.0915C11.6056 11.2645 11.5671 11.2775 11.3881 11.19C10.2051 10.609 8.96614 10.4985 7.68714 10.7185C7.48714 10.753 7.45164 10.736 7.35614 10.531C7.25164 10.307 7.25264 10.313 7.48914 10.2675C8.14812 10.1388 8.82288 10.1113 9.49014 10.186C10.1146 10.256 10.7371 10.348 11.3101 10.642C11.3921 10.6845 11.4356 10.649 11.4766 10.581C11.8401 9.974 12.2036 9.367 12.5691 8.761C12.7646 8.4365 12.9641 8.1145 13.1606 7.791C13.1776 7.763 13.1911 7.7335 13.2231 7.673ZM4.39614 7.7335C4.48014 7.875 4.56414 8.0165 4.64914 8.1575L6.33114 10.9475C6.41114 11.0805 6.41114 11.0845 6.27264 11.148C5.97414 11.2855 6.01114 11.321 5.82864 11.0155C5.18364 9.933 4.53964 8.8495 3.89564 7.7665L3.37364 6.889C3.34864 6.8475 3.32864 6.8025 3.30664 6.759L3.32614 6.733C3.39964 6.7655 3.47364 6.796 3.54614 6.83C3.98764 7.0365 4.43414 7.2285 4.90714 7.3455C5.51414 7.4965 6.11364 7.514 6.69214 7.2255C7.05214 7.046 7.34864 6.7815 7.61564 6.48C8.04314 5.996 8.39014 5.453 8.70464 4.887L8.78114 4.75C8.82264 4.812 8.84914 4.859 8.88264 4.9C9.06714 5.126 9.02364 5.327 8.86814 5.561C8.52114 6.083 8.17164 6.6 7.70964 7.024C7.29664 7.403 6.83364 7.689 6.28964 7.8195C5.86264 7.922 5.43364 7.9015 5.00514 7.822C4.80914 7.7855 4.61414 7.7445 4.41864 7.7055L4.39614 7.7335Z" fill="white"/>
</g>
<defs>
<clipPath id="clip0_2_3447">
<rect width="16" height="16" fill="white" transform="translate(0.806641)"/>
</clipPath>
</defs>
</svg>
