<svg width="17" height="16" viewBox="0 0 17 16" fill="none" xmlns="http://www.w3.org/2000/svg">
<g clip-path="url(#clip0_2_3448)">
<path fill-rule="evenodd" clip-rule="evenodd" d="M0.806641 0H16.8066V16H0.806641V0Z" fill="#2992FB"/>
<path fill-rule="evenodd" clip-rule="evenodd" d="M11.8773 4.64267L11.5898 4.93017C10.878 4.34063 9.98148 4.02027 9.05726 4.02517C8.04847 4.02525 7.07725 4.40793 6.33953 5.096C5.60182 5.78407 5.15251 6.72632 5.08226 7.73267H4.66976C4.73679 6.61558 5.22862 5.56646 6.04442 4.8004C6.86022 4.03434 7.93817 3.60938 9.05726 3.61267C10.0891 3.61798 11.087 3.98213 11.8798 4.64267H11.8773ZM9.05726 5.07517C9.52318 5.07512 9.98252 5.18514 10.3979 5.39628C10.8132 5.60743 11.1728 5.91371 11.4473 6.29017L11.7348 6.00017C11.3132 5.43816 10.7255 5.02305 10.0548 4.81362C9.38423 4.60418 8.66472 4.61105 7.99823 4.83325C7.33174 5.05545 6.75205 5.48171 6.34127 6.05167C5.93049 6.62162 5.70945 7.30636 5.70945 8.00892C5.70945 8.71147 5.93049 9.39622 6.34127 9.96617C6.75205 10.5361 7.33174 10.9624 7.99823 11.1846C8.66472 11.4068 9.38423 11.4137 10.0548 11.2042C10.7255 10.9948 11.3132 10.5797 11.7348 10.0177L11.4473 9.73017C11.1537 10.1404 10.7595 10.4683 10.3027 10.6823C9.84587 10.8963 9.3417 10.9892 8.83859 10.9522C8.33547 10.9152 7.85032 10.7495 7.42972 10.471C7.00913 10.1924 6.6672 9.81041 6.43679 9.36164C6.20637 8.91286 6.09521 8.41238 6.11397 7.90826C6.13272 7.40413 6.28077 6.9133 6.5439 6.48289C6.80703 6.05248 7.1764 5.69694 7.61653 5.45042C8.05667 5.2039 8.55279 5.07468 9.05726 5.07517ZM12.2098 4.95267L11.9198 5.25017C12.0148 5.34833 12.1041 5.45183 12.1873 5.56017L12.4748 5.25017C12.3916 5.1418 12.3023 5.0383 12.2073 4.94017L12.2098 4.95267ZM4.64726 8.28767C4.69776 9.09932 4.97258 9.88103 5.44112 10.5457C5.90966 11.2104 6.55353 11.7319 7.301 12.0523C8.04847 12.3726 8.87019 12.4792 9.67465 12.3601C10.4791 12.241 11.2347 11.9009 11.8573 11.3777L11.5573 11.0902C10.8488 11.6793 9.95617 12.0013 9.03476 12.0002C8.02473 12.0006 7.05221 11.6175 6.31383 10.9284C5.57546 10.2392 5.12633 9.29534 5.05726 8.28767H4.64726ZM11.9173 10.7877L12.2048 11.0752C12.3011 10.9722 12.3912 10.8637 12.4748 10.7502L12.1873 10.4627C12.1041 10.571 12.0148 10.6745 11.9198 10.7727L11.9173 10.7877ZM9.05726 12.9852C7.73516 12.9852 6.46721 12.46 5.53234 11.5251C4.59747 10.5902 4.07226 9.32227 4.07226 8.00017C4.07226 6.67807 4.59747 5.41011 5.53234 4.47524C6.46721 3.54037 7.73516 3.01517 9.05726 3.01517C9.79005 3.0148 10.5138 3.1772 11.1761 3.49065C11.8385 3.80411 12.4229 4.26078 12.8873 4.82767L13.1748 4.54017C12.5916 3.84614 11.8428 3.31042 10.9976 2.98255C10.1525 2.65469 9.23828 2.54528 8.33962 2.66446C7.44097 2.78363 6.58689 3.12753 5.85641 3.66434C5.12593 4.20116 4.54263 4.91354 4.1605 5.73558C3.77837 6.55762 3.60974 7.46276 3.67021 8.36726C3.73069 9.27176 4.01832 10.1464 4.50649 10.9102C4.99465 11.6741 5.66759 12.3025 6.46304 12.7373C7.25849 13.1721 8.15075 13.3992 9.05726 13.3977C9.84461 13.3999 10.6226 13.2272 11.3351 12.8922C12.0476 12.5571 12.6768 12.068 13.1773 11.4602L12.8898 11.1727C12.4283 11.7434 11.844 12.2028 11.1805 12.5166C10.517 12.8304 9.79123 12.9906 9.05726 12.9852Z" fill="white"/>
</g>
<defs>
<clipPath id="clip0_2_3448">
<rect width="16" height="16" fill="white" transform="translate(0.806641)"/>
</clipPath>
</defs>
</svg>
