<svg width="17" height="16" viewBox="0 0 17 16" fill="none" xmlns="http://www.w3.org/2000/svg">
<g clip-path="url(#clip0_2_3451)">
<path d="M8.80664 16C13.2249 16 16.8066 12.4183 16.8066 8C16.8066 3.58172 13.2249 0 8.80664 0C4.38836 0 0.806641 3.58172 0.806641 8C0.806641 12.4183 4.38836 16 8.80664 16Z" fill="#FAB431"/>
<path fill-rule="evenodd" clip-rule="evenodd" d="M13.0566 9.6335L10.9641 8.378L11.2041 7.3835L12.0976 7.911V6.095L9.22764 4.384V8.334L8.54514 8.7115L12.3141 10.9465L8.80664 13L4.55664 10.511V5.5335L8.80664 3L13.0566 5.5335V9.6335ZM5.51564 6.095V9.334L8.27464 7.734V4.45L5.51564 6.0945V6.095ZM7.56414 9.267L5.99514 10.2265L8.80664 11.8725L10.3941 10.9425L7.56414 9.2665V9.267Z" fill="white"/>
</g>
<defs>
<clipPath id="clip0_2_3451">
<rect width="16" height="16" fill="white" transform="translate(0.806641)"/>
</clipPath>
</defs>
</svg>
