<svg width="17" height="16" viewBox="0 0 17 16" fill="none" xmlns="http://www.w3.org/2000/svg">
<g clip-path="url(#clip0_2_3452)">
<path d="M8.80664 16C13.2249 16 16.8066 12.4183 16.8066 8C16.8066 3.58172 13.2249 0 8.80664 0C4.38836 0 0.806641 3.58172 0.806641 8C0.806641 12.4183 4.38836 16 8.80664 16Z" fill="#C1A05C"/>
<path fill-rule="evenodd" clip-rule="evenodd" d="M8.94454 13C7.78504 12.997 6.74704 12.641 5.82004 11.96C5.57354 11.779 5.56604 11.675 5.77604 11.4495L5.79504 11.4295C6.05154 11.1515 6.05004 11.153 6.35454 11.372C7.05624 11.8847 7.89732 12.1717 8.76604 12.195C9.68904 12.227 10.537 12.0065 11.3035 11.512C12.223 10.919 12.85 10.093 13.1125 9.0385C13.442 7.7145 13.197 6.4885 12.329 5.411C11.721 4.656 10.931 4.1695 9.97654 3.939C9.12454 3.733 8.28754 3.7835 7.46504 4.0665C7.02954 4.2165 6.62704 4.4375 6.26354 4.7215C6.08404 4.8615 6.01604 4.8585 5.86354 4.6875C5.79017 4.60781 5.7214 4.524 5.65754 4.4365C5.56354 4.3035 5.57654 4.2245 5.70354 4.1235C6.30698 3.64485 7.01006 3.30758 7.76104 3.1365C8.44069 2.97541 9.14631 2.95668 9.83354 3.0815C10.7675 3.2505 11.5985 3.6345 12.312 4.2565C12.84 4.7175 13.267 5.2565 13.564 5.8865C13.973 6.7545 14.1395 7.6635 14.017 8.6225C13.9078 9.49756 13.564 10.3268 13.022 11.0225C12.4685 11.7435 11.76 12.2695 10.913 12.615C10.289 12.873 9.61979 13.0039 8.94454 13ZM8.62654 9.8085C8.59304 9.8595 8.57554 9.8975 8.54754 9.9265C8.37854 10.104 8.17204 10.2105 7.92304 10.2185C7.75054 10.2235 7.57754 10.209 7.40504 10.213C7.33832 10.2124 7.27255 10.2289 7.21404 10.261C6.41704 10.761 5.55904 10.834 4.65504 10.642C4.35754 10.579 4.09104 10.4645 3.86404 10.2695C3.69304 10.123 3.57254 9.95 3.55804 9.707C3.53304 9.2835 3.84654 8.9945 4.16954 8.9C4.76604 8.725 5.33354 8.8315 5.87654 9.095C6.12454 9.215 6.35654 9.368 6.59354 9.51C6.72954 9.5905 6.77004 9.5875 6.83804 9.4485C7.14554 8.8205 6.94704 8.128 6.19604 7.872C5.53704 7.647 4.89254 7.6695 4.25804 7.962C4.16504 8.005 4.06304 8.087 3.95354 7.999C3.84004 7.907 3.91604 7.7975 3.94504 7.7005C4.15354 6.9985 4.36504 6.298 4.57954 5.598C4.62654 5.4445 4.74904 5.3655 4.92804 5.375C5.19154 5.3895 5.45354 5.429 5.71704 5.435C6.11204 5.445 6.50854 5.4485 6.90304 5.429C7.19654 5.414 7.45404 5.285 7.68054 5.098C7.70804 5.0755 7.76354 5.0495 7.78154 5.0615C7.80804 5.079 7.82404 5.128 7.82654 5.165C7.84504 5.468 7.71504 5.7015 7.47404 5.883C7.18904 6.098 6.86354 6.198 6.50804 6.2065C6.13954 6.215 5.77104 6.22 5.40304 6.2215C5.32004 6.2225 5.27604 6.2525 5.25654 6.3305C5.22354 6.4605 5.18854 6.591 5.15104 6.7205C5.12254 6.817 5.15904 6.8555 5.25654 6.8515C5.48854 6.843 5.72054 6.8275 5.95204 6.829C6.48492 6.82589 6.99947 7.02329 7.39354 7.382C7.78004 7.726 7.93654 8.17 7.96004 8.666C7.97854 9.0635 7.90254 9.444 7.68404 9.7865C7.62454 9.88 7.65154 9.9205 7.75204 9.947C8.01904 10.0175 8.26554 9.9695 8.50104 9.838C8.52104 9.827 8.53954 9.8145 8.56004 9.805C8.56704 9.802 8.57754 9.8055 8.62654 9.8085ZM6.34254 9.9215L6.33454 9.873C6.30104 9.8525 6.26954 9.827 6.23304 9.811C5.96804 9.6935 5.70654 9.5635 5.43454 9.4645C5.15704 9.363 4.86854 9.2905 4.56654 9.361C4.43054 9.3925 4.29454 9.427 4.25504 9.5835C4.21104 9.756 4.31654 9.8635 4.43954 9.9575C4.47804 9.987 4.52554 10.008 4.57154 10.026C5.03854 10.206 5.51254 10.211 5.98854 10.07C6.11054 10.034 6.22504 9.9715 6.34254 9.9215Z" fill="white"/>
</g>
<defs>
<clipPath id="clip0_2_3452">
<rect width="16" height="16" fill="white" transform="translate(0.806641)"/>
</clipPath>
</defs>
</svg>
