<svg width="20" height="16" viewBox="0 0 20 16" fill="none" xmlns="http://www.w3.org/2000/svg">
<g clip-path="url(#clip0_2_3453)">
<path d="M12.9555 0.894287H6.20285L5.64284 4.02311L11.7379 4.03034C14.7403 4.03034 15.6255 5.12145 15.6002 6.92793C15.5857 7.85285 15.1847 9.42088 15.0113 9.9303C14.5488 11.2852 13.5986 12.8279 10.0362 12.8243L4.11094 12.8207L3.55273 15.9531H10.2909C12.6683 15.9531 13.6763 15.6749 14.7493 15.1835C17.123 14.0816 18.5357 11.7404 19.103 8.68383C19.943 4.1315 18.8952 0.894287 12.9555 0.894287Z" fill="#008DE4"/>
<path d="M3.28875 6.85168C1.51839 6.85168 1.26549 8.00422 1.09929 8.70152C0.8789 9.61199 0.806641 9.98412 0.806641 9.98412H7.72185C9.4922 9.98412 9.74511 8.83159 9.9113 8.13429C10.1317 7.22382 10.204 6.85168 10.204 6.85168H3.28875Z" fill="#008DE4"/>
</g>
<defs>
<clipPath id="clip0_2_3453">
<rect width="18.8235" height="16" fill="white" transform="translate(0.806641)"/>
</clipPath>
</defs>
</svg>
