<svg width="17" height="16" viewBox="0 0 17 16" fill="none" xmlns="http://www.w3.org/2000/svg">
<g clip-path="url(#clip0_2_3459)">
<path d="M8.38281 16C12.8011 16 16.3828 12.4183 16.3828 8C16.3828 3.58172 12.8011 0 8.38281 0C3.96453 0 0.382812 3.58172 0.382812 8C0.382812 12.4183 3.96453 16 8.38281 16Z" fill="#666666"/>
<path fill-rule="evenodd" clip-rule="evenodd" d="M12.923 10.575C12.8201 10.7467 12.6541 10.8713 12.4605 10.9223C12.2669 10.9732 12.0611 10.9464 11.887 10.8475L9.49752 9.4925V8.6325L10.2565 8.2025L12.6455 9.557C13.0085 9.7625 13.1325 10.2185 12.923 10.5745V10.575ZM9.14052 12.4045C9.14052 12.816 8.80102 13.1495 8.38202 13.1495C7.96302 13.1495 7.62352 12.816 7.62352 12.4045V9.695L8.38202 9.265L9.14052 9.695V12.4045ZM4.87702 10.8475C4.70289 10.9463 4.497 10.9731 4.3034 10.9221C4.1098 10.871 3.94384 10.7463 3.84102 10.5745C3.79138 10.4897 3.75917 10.3959 3.74627 10.2985C3.73337 10.2012 3.74003 10.1022 3.76588 10.0074C3.79172 9.91265 3.83623 9.824 3.89678 9.74665C3.95734 9.66931 4.03272 9.60483 4.11852 9.557L6.50752 8.202L7.26652 8.6325V9.4925L4.87702 10.8475ZM4.11852 6.443C4.03272 6.39517 3.95734 6.33069 3.89678 6.25335C3.83623 6.176 3.79172 6.08735 3.76588 5.99258C3.74003 5.89782 3.73337 5.79884 3.74627 5.70147C3.75917 5.60409 3.79138 5.51027 3.84102 5.4255C3.94384 5.25371 4.1098 5.12896 4.3034 5.07794C4.497 5.02693 4.70289 5.05369 4.87702 5.1525L7.26652 6.5075V7.3675L6.50752 7.7975L4.11852 6.443ZM7.62352 3.5955C7.62352 3.184 7.96352 2.8505 8.38202 2.8505C8.80102 2.8505 9.14052 3.184 9.14052 3.5955V6.3045L8.38202 6.735L7.62352 6.305V3.5955ZM9.49752 7.7725L9.89952 8L9.49752 8.2275V7.7725ZM8.73902 6.9375L9.14052 6.7095V7.165L8.73902 6.9375ZM7.62352 7.165V6.71L8.02502 6.9375L7.62352 7.165ZM7.26652 8.2275L6.86452 8L7.26652 7.7725V8.2275ZM8.02502 9.0625L7.62352 9.2905V8.835L8.02502 9.0625ZM9.14052 8.835V9.29L8.73902 9.0625L9.14052 8.835ZM8.38202 8.86L7.62352 8.43V7.57L8.38202 7.14L9.14052 7.57V8.43L8.38202 8.86ZM11.887 5.1525C12.0611 5.05369 12.267 5.02693 12.4606 5.07794C12.6542 5.12896 12.8202 5.25371 12.923 5.4255C13.133 5.7815 13.008 6.2375 12.6455 6.443L10.2565 7.798L9.49752 7.3675V6.5075L11.887 5.1525ZM12.824 9.2535L10.6135 8L12.824 6.7465C12.9503 6.67623 13.0612 6.58144 13.1504 6.4677C13.2395 6.35397 13.305 6.22357 13.343 6.08418C13.3811 5.94478 13.3909 5.79918 13.3719 5.65594C13.353 5.51269 13.3056 5.37468 13.2325 5.25C12.9245 4.726 12.242 4.5465 11.7085 4.849L9.49752 6.1025V3.595C9.49752 2.9905 8.99802 2.5 8.38202 2.5C7.76602 2.5 7.26652 2.9905 7.26652 3.5955V6.1025L5.05552 4.849C4.52202 4.5465 3.83952 4.726 3.53202 5.25C3.45897 5.37468 3.41157 5.51269 3.39259 5.65594C3.37361 5.79918 3.38343 5.94478 3.42149 6.08418C3.45954 6.22357 3.52505 6.35397 3.61418 6.4677C3.70331 6.58144 3.81426 6.67623 3.94052 6.7465L6.15052 8L3.94052 9.2535C3.81422 9.32373 3.70322 9.41849 3.61404 9.5322C3.52486 9.64592 3.4593 9.77631 3.4212 9.91571C3.3831 10.0551 3.37323 10.2007 3.39218 10.344C3.41112 10.4873 3.45849 10.6253 3.53152 10.75C3.83952 11.274 4.52202 11.4535 5.05552 11.151L7.26652 9.8975V12.4045C7.26652 13.0095 7.76602 13.5 8.38202 13.5C8.99802 13.5 9.49752 13.0095 9.49752 12.4045V9.8975L11.7085 11.151C12.242 11.4535 12.9245 11.274 13.2325 10.75C13.3056 10.6253 13.353 10.4873 13.3719 10.3441C13.3909 10.2008 13.3811 10.0552 13.343 9.91582C13.305 9.77643 13.2395 9.64603 13.1504 9.5323C13.0612 9.41856 12.9503 9.32377 12.824 9.2535Z" fill="white"/>
</g>
<defs>
<clipPath id="clip0_2_3459">
<rect width="16" height="16" fill="white" transform="translate(0.382812)"/>
</clipPath>
</defs>
</svg>
