<svg width="17" height="16" viewBox="0 0 17 16" fill="none" xmlns="http://www.w3.org/2000/svg">
<g clip-path="url(#clip0_2_3461)">
<path d="M8.38281 16C12.8011 16 16.3828 12.4183 16.3828 8C16.3828 3.58172 12.8011 0 8.38281 0C3.96453 0 0.382812 3.58172 0.382812 8C0.382812 12.4183 3.96453 16 8.38281 16Z" fill="#3C80F1"/>
<path d="M8.4257 2C5.6907 2.002 3.4737 4.218 3.4707 6.9525C3.4732 7.2195 3.5032 7.4855 3.5597 7.7465C3.56258 7.75885 3.56846 7.7703 3.57683 7.77983C3.5852 7.78935 3.59578 7.79667 3.60766 7.80112C3.61953 7.80557 3.63232 7.80703 3.64489 7.80535C3.65746 7.80367 3.66942 7.79891 3.6797 7.7915C3.869 7.65596 4.09589 7.58289 4.3287 7.5825C4.33995 7.58288 4.35115 7.58075 4.36147 7.57627C4.3718 7.5718 4.38101 7.56508 4.38842 7.55661C4.39584 7.54814 4.40128 7.53813 4.40435 7.52731C4.40743 7.51648 4.40806 7.5051 4.4062 7.494C4.37328 7.31721 4.35621 7.13783 4.3552 6.958C4.3552 6.42352 4.46048 5.89427 4.66501 5.40048C4.86955 4.90668 5.16934 4.45801 5.54728 4.08008C5.92521 3.70214 6.37389 3.40235 6.86768 3.19781C7.36148 2.99327 7.89072 2.888 8.4252 2.888C8.95968 2.888 9.48893 2.99327 9.98273 3.19781C10.4765 3.40235 10.9252 3.70214 11.3031 4.08008C11.6811 4.45801 11.9809 4.90668 12.1854 5.40048C12.3899 5.89427 12.4952 6.42352 12.4952 6.958C12.4952 9.203 9.6232 12.0705 8.5952 13.083C8.54996 13.1274 8.4891 13.1523 8.4257 13.1523C8.36231 13.1523 8.30145 13.1274 8.2562 13.083C7.821 12.6583 7.39864 12.2206 6.9897 11.7705H6.9697C6.57641 11.7318 6.1903 11.6393 5.8222 11.4955L5.7542 11.468C5.73846 11.4607 5.7207 11.4591 5.70388 11.4633C5.68706 11.4675 5.6722 11.4774 5.66175 11.4912C5.65129 11.5051 5.64589 11.522 5.64643 11.5394C5.64697 11.5567 5.65341 11.5733 5.6647 11.5865C6.30118 12.3471 6.97658 13.0742 7.6882 13.765C7.88515 13.9571 8.14935 14.0646 8.42445 14.0646C8.69955 14.0646 8.96376 13.9571 9.1607 13.765C10.9707 11.977 13.3807 9.332 13.3807 6.9525C13.3777 4.2175 11.1607 2.002 8.4257 2Z" fill="white"/>
<path d="M10.4853 7.45344C10.4853 7.52344 10.4798 7.59194 10.4733 7.65994C10.4553 7.9203 10.395 8.17598 10.2948 8.41694C10.1868 8.65694 10.0428 8.87844 9.8683 9.07494L9.8733 9.07944C9.52762 9.4657 9.10075 9.77066 8.6233 9.97244C8.15047 10.1759 7.63453 10.2587 7.1218 10.2134C6.63318 10.1649 6.16616 9.9877 5.7683 9.69994C5.8968 9.69594 6.0243 9.67645 6.1483 9.64194C6.26027 9.61096 6.36757 9.56505 6.4673 9.50544C6.6829 9.37673 6.85017 9.18064 6.9433 8.94744C6.9868 8.84095 7.0163 8.72995 7.0323 8.61594C7.0423 8.52095 7.0448 8.42444 7.0413 8.32844V5.08344C7.04106 5.08028 7.04106 5.07711 7.0413 5.07394V5.05694C7.04854 5.01785 7.06797 4.98204 7.0968 4.95465C7.12563 4.92726 7.16238 4.90969 7.2018 4.90444H8.2733C8.5273 4.92444 8.7758 4.99094 9.0058 5.10094C9.48512 5.32756 9.88602 5.69191 10.1573 6.14744C10.2233 6.25944 10.2813 6.37644 10.3298 6.49744C10.3763 6.61744 10.4133 6.74244 10.4398 6.86844C10.4663 6.99444 10.4813 7.12244 10.4848 7.25094V7.45394L10.4853 7.45344ZM11.3673 7.22044C11.3619 7.04037 11.3403 6.86115 11.3028 6.68494C11.2285 6.33642 11.0974 6.00248 10.9148 5.69644C10.5529 5.08779 10.017 4.60141 9.3763 4.29994C9.04889 4.14449 8.69568 4.05059 8.3343 4.02294C8.2888 4.02294 8.2448 4.02294 8.1948 4.01794H7.1958C7.1638 4.01794 7.1308 4.01794 7.0983 4.02494C6.9678 4.03994 6.8408 4.07994 6.7243 4.14194C6.56414 4.22752 6.42837 4.35239 6.32971 4.50483C6.23106 4.65728 6.17276 4.83229 6.1603 5.01344V8.32844C6.1603 8.38644 6.1563 8.44444 6.1483 8.50194C6.1433 8.54094 6.1338 8.57895 6.1198 8.61594C6.10885 8.64347 6.09367 8.66911 6.0748 8.69195C6.02868 8.74144 5.96876 8.77593 5.9028 8.79095C5.8043 8.81595 5.7028 8.82394 5.6013 8.81444C5.23925 8.779 4.89859 8.62666 4.6308 8.38044C4.55388 8.30931 4.45421 8.2678 4.34953 8.26333C4.24486 8.25886 4.14201 8.29172 4.05931 8.35604C3.97661 8.42036 3.91945 8.51196 3.89802 8.61451C3.87659 8.71706 3.89228 8.82389 3.9423 8.91595C4.25428 9.4858 4.68253 9.98372 5.1993 10.3774C5.46581 10.5763 5.75774 10.7385 6.0673 10.8599C6.37801 10.9812 6.70388 11.0592 7.0358 11.0919C7.69471 11.153 8.35846 11.0492 8.9673 10.7899C9.57373 10.5391 10.1115 10.1471 10.5358 9.64644L10.5413 9.65094C10.7754 9.38624 10.9676 9.08728 11.1113 8.76444C11.2475 8.43568 11.3294 8.08697 11.3538 7.73194C11.3608 7.64294 11.3653 7.56244 11.3683 7.47744V7.35194C11.3718 7.31494 11.3688 7.26444 11.3683 7.22044H11.3673Z" fill="white"/>
</g>
<defs>
<clipPath id="clip0_2_3461">
<rect width="16" height="16" fill="white" transform="translate(0.382812)"/>
</clipPath>
</defs>
</svg>
