<svg width="17" height="16" viewBox="0 0 17 16" fill="none" xmlns="http://www.w3.org/2000/svg">
<g clip-path="url(#clip0_2_3463)">
<path d="M8.38281 16C12.8011 16 16.3828 12.4183 16.3828 8C16.3828 3.58172 12.8011 0 8.38281 0C3.96453 0 0.382812 3.58172 0.382812 8C0.382812 12.4183 3.96453 16 8.38281 16Z" fill="#4F7AA2"/>
<path d="M7.03731 6H8.40631C9.06731 6 10.2478 6.4015 10.2478 8C10.2478 9.5985 9.06781 10 8.40631 10H7.03781L7.03731 6ZM7.79231 9.19H8.35931C8.83131 9.19 9.39781 8.901 9.39781 8C9.39781 7.099 8.83131 6.81 8.35931 6.81H7.79281L7.79231 9.19ZM10.7678 6H11.0508L13.5998 9.513V6H13.8828V10H13.5993L11.0503 6.564V10H10.7668L10.7678 6ZM2.88281 6H3.82681V7H2.88281V6ZM4.29931 6H5.24281V7H4.29931V6ZM5.71531 6H6.65981V7H5.71531V6ZM5.71531 7.5H6.65981V8.5H5.71531V7.5ZM5.71531 9H6.65981V10H5.71531V9ZM4.29931 7.5H5.24281V8.5H4.29931V7.5Z" fill="white"/>
</g>
<defs>
<clipPath id="clip0_2_3463">
<rect width="16" height="16" fill="white" transform="translate(0.382812)"/>
</clipPath>
</defs>
</svg>
