<svg width="16" height="16" viewBox="0 0 16 16" fill="none" xmlns="http://www.w3.org/2000/svg">
<g clip-path="url(#clip0_2_3465)">
<path d="M15.7276 6.49319C15.6185 5.96773 15.4257 5.46318 15.1567 4.9988C14.6026 4.07531 13.3936 2.73204 11.8825 1.67422C11.8825 1.67422 10.7407 0.935419 10.2034 0.683556C8.23886 -0.223149 6.03926 -0.407849 4.15868 1.25445C1.002 4.05852 -0.576337 7.97079 1.002 11.8663C1.03558 11.9502 1.90871 14.3345 7.14745 15.9296C9.4478 15.9968 10.7911 15.8625 12.2687 15.0062C14.1996 13.898 15.3246 11.8831 15.7276 9.83457C15.8451 9.21331 15.8619 7.11445 15.7276 6.49319Z" fill="#04FFCC"/>
<path d="M9.61726 0.968881V4.71324L5.28522 4.44459L3.50539 6.69456L3.28711 10.9426L4.7647 12.521L6.9811 13.6292L9.88592 13.9482L13.0426 13.1422V5.3345L12.4381 2.09387C12.4381 2.09387 10.7422 0.76739 9.63405 0.448364" fill="#7DF8FB"/>
<path d="M14.6865 10.2543C14.0821 10.2208 14.4179 9.26368 14.1492 8.17227C13.8302 6.96333 14.3004 6.12379 14.9216 6.15737C15.2132 6.20329 15.4896 6.31845 15.7276 6.49319C15.6185 5.96773 15.4257 5.46318 15.1567 4.9988C14.6026 4.07531 13.3936 2.73204 11.8825 1.67422V11.7991C11.8827 12.0316 11.8037 12.2573 11.6585 12.4388C11.5132 12.6204 11.3104 12.7471 11.0836 12.7979C10.8567 12.8488 10.6192 12.8208 10.4104 12.7186C10.2015 12.6164 10.0338 12.446 9.93473 12.2357C9.3355 12.6071 8.64845 12.8128 7.94372 12.8319C7.23898 12.851 6.54179 12.6828 5.92331 12.3445C5.30482 12.0061 4.78718 11.5097 4.42323 10.9059C4.05928 10.3021 3.86204 9.61258 3.85165 8.90766C3.84126 8.20274 4.01808 7.50768 4.36408 6.89343C4.71008 6.27918 5.21285 5.76773 5.8211 5.41128C6.42934 5.05482 7.12127 4.86613 7.82626 4.86447C8.53125 4.8628 9.22407 5.04821 9.83399 5.40178V1.47273C9.83109 1.32169 9.86288 1.172 9.92692 1.03519C9.99096 0.898368 10.0855 0.778072 10.2034 0.683556C8.23886 -0.223149 6.03926 -0.407849 4.15868 1.25445C1.002 4.05852 -0.576337 7.97079 1.002 11.8663C1.03558 11.9502 1.06917 12.0342 1.10275 12.1013C1.14822 12.0067 1.21085 11.9213 1.28745 11.8495C2.1102 11.0099 3.0169 12.7226 4.94785 13.7133C6.17358 14.3345 6.8788 15.1573 7.14745 15.9296C8.94407 16.1479 10.7911 15.8625 12.2687 15.0062C14.1996 13.898 15.3246 11.8831 15.7276 9.83457C15.4379 10.0879 15.071 10.2359 14.6865 10.2543ZM8.10621 2.29548C8.55956 2.27869 8.97933 2.81599 8.99613 3.06786C9.01292 3.31972 8.60994 3.21897 8.17337 3.37009C7.68644 3.538 7.33383 3.38688 7.31704 3.13502C7.30025 2.88316 7.63439 2.31227 8.10621 2.29548Z" fill="#2C398F"/>
<path d="M7.11313 10.3213C8.087 10.8754 9.26236 10.6572 9.48064 9.41464C9.59817 8.69263 9.53101 7.56765 8.89296 7.21504C6.77731 6.0061 4.99748 9.11241 7.11313 10.3213Z" fill="#2C398F"/>
</g>
<defs>
<clipPath id="clip0_2_3465">
<rect width="15.4392" height="16" fill="white" transform="translate(0.382812)"/>
</clipPath>
</defs>
</svg>
