<svg width="17" height="16" viewBox="0 0 17 16" fill="none" xmlns="http://www.w3.org/2000/svg">
<g clip-path="url(#clip0_2_3468)">
<path d="M8.42773 16C12.846 16 16.4277 12.4183 16.4277 8C16.4277 3.58172 12.846 0 8.42773 0C4.00946 0 0.427734 3.58172 0.427734 8C0.427734 12.4183 4.00946 16 8.42773 16Z" fill="#988430"/>
<path d="M8.42732 15.7437C12.7041 15.7437 16.1711 12.2767 16.1711 7.99997C16.1711 3.72322 12.7041 0.256226 8.42732 0.256226C4.15058 0.256226 0.683594 3.72322 0.683594 7.99997C0.683594 12.2767 4.15058 15.7437 8.42732 15.7437Z" fill="#7A6A2A"/>
<path d="M8.42823 15.5806C12.6149 15.5806 16.0088 12.1867 16.0088 8.00002C16.0088 3.81338 12.6149 0.419434 8.42823 0.419434C4.24159 0.419434 0.847656 3.81338 0.847656 8.00002C0.847656 12.1867 4.24159 15.5806 8.42823 15.5806Z" fill="#BA9F33"/>
<path fill-rule="evenodd" clip-rule="evenodd" d="M3.92627 7.14553C3.88096 7.10415 3.83309 7.06268 3.78906 7.02129C3.74502 6.97991 3.6998 6.93844 3.65448 6.89705L3.51983 6.76905C3.49781 6.74704 3.47452 6.72767 3.4525 6.70557C3.43048 6.6862 3.40463 6.66418 3.38261 6.64473C3.20392 6.47518 3.02421 6.30562 2.848 6.13599C3.03053 6.30298 3.20922 6.46878 3.39174 6.63824L3.45515 6.70173C3.47716 6.72366 3.50046 6.74311 3.52247 6.76513L3.65704 6.88937C3.70236 6.93076 3.74639 6.97223 3.7917 7.01737C3.83701 7.06251 3.88104 7.10406 3.92636 7.14536L3.92627 7.14553ZM1.55477 7.11993C1.55477 7.11993 2.20459 7.18718 2.52177 7.23249C2.81557 7.27396 3.7347 7.41501 3.7347 7.41501L1.55477 7.11993ZM1.55477 7.11993C1.7373 7.13546 1.91983 7.15483 2.10236 7.17429C2.19554 7.18334 2.28488 7.19366 2.37423 7.20271L2.51136 7.21832C2.55667 7.22472 2.6007 7.23121 2.64602 7.23769L3.18976 7.32439L3.46155 7.3697C3.55089 7.38523 3.64023 7.40212 3.73342 7.41765C3.64407 7.40861 3.55089 7.39564 3.46155 7.38267L3.18976 7.34384L2.64602 7.26363C2.6007 7.25715 2.55667 7.24802 2.51136 7.24162L2.37414 7.22583C2.2848 7.21678 2.19162 7.20381 2.10227 7.1934C1.91974 7.17147 1.73722 7.14809 1.55469 7.11968L1.55477 7.11993ZM3.67002 7.5843C3.67002 7.5843 2.97617 7.76043 2.74184 7.82775C2.51144 7.89115 1.81367 8.10346 1.81367 8.10346L3.66993 7.58439L3.67002 7.5843Z" fill="#CFB66C"/>
<path fill-rule="evenodd" clip-rule="evenodd" d="M3.66941 7.58435C3.51538 7.62966 3.36221 7.67369 3.20596 7.71517L2.74252 7.83941C2.58849 7.88472 2.43532 7.92876 2.28172 7.97407L2.05132 8.03747C1.97495 8.05949 1.89729 8.07886 1.81836 8.10096C1.89465 8.07536 1.97239 8.04916 2.04876 8.02715L2.27916 7.95342C2.43319 7.90546 2.58636 7.86015 2.73996 7.81228C2.89655 7.77345 3.05066 7.73198 3.20724 7.69443C3.35607 7.65688 3.51274 7.61942 3.66941 7.58444V7.58435ZM1.91026 8.5307C1.98655 8.5022 2.86685 8.09191 3.07139 7.99608C3.17379 7.94813 3.47144 7.84248 3.47144 7.84248L1.91026 8.5307Z" fill="#CFB66C"/>
<path fill-rule="evenodd" clip-rule="evenodd" d="M1.91024 8.53081C1.97748 8.50521 2.04097 8.4739 2.10565 8.44412L2.29723 8.35478L2.68174 8.1697C2.80974 8.10886 2.93416 8.04171 3.06617 7.98454C3.13349 7.95612 3.20082 7.93283 3.26807 7.91081L3.37047 7.87848C3.40537 7.86943 3.43779 7.85902 3.47287 7.84998C3.34487 7.91081 3.21012 7.96261 3.08195 8.02208C2.95395 8.08557 2.82305 8.13736 2.69096 8.19428L2.30004 8.36638C2.1688 8.41954 2.0408 8.47646 1.91016 8.53081H1.91024ZM1.99557 8.88919C1.99557 8.88919 2.79293 8.42193 3.06736 8.27175C3.21106 8.19155 3.67579 7.96107 3.67579 7.96107L1.99557 8.88919Z" fill="#CFB66C"/>
<path fill-rule="evenodd" clip-rule="evenodd" d="M1.99609 8.88935C2.13067 8.80649 2.26788 8.72235 2.4051 8.63693L2.6099 8.5126C2.67979 8.47122 2.74712 8.43239 2.81837 8.391C2.88826 8.34953 2.95559 8.30814 3.02676 8.26932C3.06064 8.2484 3.09614 8.23022 3.13291 8.21496L3.24163 8.1606C3.38533 8.09071 3.52904 8.01946 3.6805 7.95862C3.54329 8.0454 3.40214 8.11922 3.26109 8.1955C3.1912 8.23433 3.11994 8.26932 3.05006 8.30814C2.98017 8.34697 2.91284 8.38844 2.84158 8.42599C2.7717 8.46738 2.70437 8.5062 2.6332 8.54375L2.42217 8.65895L1.99626 8.88935H1.99609ZM3.66984 8.06341C3.66984 8.06341 3.17405 8.44399 3.01353 8.56568C2.85302 8.68736 2.38052 9.02912 2.38052 9.02912L3.66984 8.06341Z" fill="#CFB66C"/>
<path fill-rule="evenodd" clip-rule="evenodd" d="M6.51541 11.1326L6.26172 10.6524L6.40926 10.0517L7.46168 9.64528L7.01376 8.72624L7.23512 7.79807L7.65069 6.96692L8.93487 6.76503L9.87849 5.86536L11.9161 6.01938L12.316 8.19803L11.5458 10.9411L11.107 12.3612L9.32834 12.4285L8.50249 11.8564L7.53549 11.4524L6.51541 11.1326Z" fill="#E2CC85"/>
<path fill-rule="evenodd" clip-rule="evenodd" d="M9.63375 11.1172C9.63375 11.1172 9.38773 11.2298 8.96815 11.2039C8.84672 11.0408 7.99629 10.9645 7.99629 10.9645C7.99629 10.9645 7.89013 10.9321 7.7024 11.0098C7.51347 11.0866 7.33479 11.0771 7.16779 11.1185C7.00079 11.1599 6.83499 10.9424 6.70699 10.8971C6.57899 10.8493 6.40926 10.7341 6.40926 10.7341L6.05086 10.6991L5.33116 10.3949L4.18778 9.25574L3.87708 9.74214L3.78125 10.3441L4.12694 11.0574L5.05767 11.9053L6.87254 12.3661L7.94825 12.0491L9.29583 11.4795L9.63375 11.1171V11.1172Z" fill="#F1D789"/>
<path fill-rule="evenodd" clip-rule="evenodd" d="M3.18651 7.09118L3.41692 6.39351L3.69144 5.94295L4.57551 5.86914L4.31012 6.64327L3.57103 7.95849L3.87781 9.13257L3.33414 9.40435L3.16706 9.1481L3.03248 8.56042L3.02344 7.90021L3.18651 7.09118Z" fill="#F4ECB4"/>
<path fill-rule="evenodd" clip-rule="evenodd" d="M4.17847 11.0693L4.00891 10.8324C4.00891 10.8324 3.9636 10.7198 3.98954 10.6214C4.01514 10.5217 4.01147 10.5152 3.99859 10.4777C3.9857 10.4401 3.8769 10.3107 3.88339 10.1993C3.88979 10.0867 3.87434 10.0491 3.95712 9.95987C4.04381 9.87317 4.01796 9.72298 4.01796 9.72298L4.1306 9.79287L4.1562 9.75405C4.1562 9.75405 4.19758 9.78639 4.19758 9.8369C4.20663 9.76702 4.16908 9.44335 4.2545 9.36962C4.33992 9.29589 4.49139 9.71522 4.49139 9.71522L4.3982 9.10679L4.15867 8.48292L3.73277 7.91332L3.70717 7.28544V7.23108C3.70717 7.23108 3.51168 7.53145 3.45732 7.76868C3.41849 7.93175 3.51168 8.12981 3.4923 8.36413C3.47669 8.59718 3.45732 8.579 3.51424 8.67133C3.57115 8.76367 3.70973 8.95353 3.65538 9.09075C3.60751 9.20859 3.44435 9.12574 3.44435 9.12574C3.44435 9.12574 3.41201 9.22148 3.36797 9.25647C3.35244 9.19955 3.33563 9.16328 3.30457 9.12847C3.30193 9.15048 3.29553 9.18026 3.29553 9.18026C3.29553 9.18026 3.26703 9.09092 3.23852 8.97828C3.19978 8.82818 3.15831 8.63012 3.12076 8.52396C3.10523 8.58481 3.06641 8.76989 3.06641 8.76989L3.08842 9.05474L3.19458 9.44565L3.29698 9.70165L3.39665 10.0149L3.48326 10.2253L3.55315 10.3859L3.61399 10.7471L3.90779 11.0577L4.06446 11.1277L4.1783 11.0694L4.17847 11.0693Z" fill="#F3E19D"/>
<path fill-rule="evenodd" clip-rule="evenodd" d="M3.33992 6.52156C3.33992 6.52156 3.12889 6.87996 3.06813 7.24125C3.00737 7.60255 2.95293 7.98433 2.99133 8.47618C3.03016 8.97204 3.10397 9.27617 3.16354 9.49368C3.26594 9.85489 3.53116 10.3572 3.53116 10.3572L3.5402 10.3377C3.49562 10.2532 3.46004 10.1643 3.43405 10.0723C3.39906 9.9351 3.38609 9.77203 3.35375 9.69822C3.32524 9.62449 3.27737 9.56101 3.25408 9.47038C3.23206 9.38369 3.22848 9.24647 3.16089 9.14424C3.13239 9.10277 3.0974 8.99406 3.08708 8.88535C3.07411 8.72219 3.09356 8.53967 3.07803 8.38957C3.04953 8.13971 3.03016 7.97016 3.05601 7.83935C3.08187 7.70853 3.21661 7.33717 3.29947 7.042C3.35383 6.85299 3.3214 6.69376 3.42107 6.52933C3.52075 6.36626 3.58167 6.22256 3.60361 6.12289C3.62921 6.03227 3.33958 6.52156 3.33958 6.52156H3.33992Z" fill="#F2E8B0"/>
<path fill-rule="evenodd" clip-rule="evenodd" d="M4.34139 6.37805C4.34139 6.37805 4.23267 6.41048 4.18087 6.4674C4.12907 6.52175 4.10705 6.56707 4.03716 6.65897C3.96728 6.75088 3.96335 6.82597 3.90635 6.94117C3.84943 7.05381 3.72381 7.22337 3.70828 7.28421C3.69275 7.34506 3.6669 7.62982 3.63455 7.76447C3.60605 7.89913 3.6669 8.06485 3.6669 8.06485L3.74062 8.04923C3.74062 8.04923 3.74062 8.14506 3.81444 8.20983C3.88817 8.27324 3.90114 7.99488 3.90114 7.99488L4.17686 7.06414L4.59236 6.78194L4.63767 6.5541L4.34121 6.37805H4.34139Z" fill="#F5EEC0"/>
<path fill-rule="evenodd" clip-rule="evenodd" d="M4.54217 6.80001C4.54217 6.80001 4.34667 6.8129 4.25093 6.88287C4.21211 6.91129 4.19658 6.93459 4.15519 6.96957C4.07882 7.03298 4.00108 7.09126 3.96362 7.17438C3.92215 7.25716 3.87684 7.38277 3.84578 7.61967C3.83281 7.71934 3.83281 7.81125 3.82376 7.89155C3.81079 8.00027 3.79142 8.08697 3.80175 8.14756C3.81472 8.27181 3.94289 8.33658 3.95535 8.47764L4.22072 8.34306L4.47057 7.35785L5.00133 7.02504L4.70097 6.68848L4.54183 6.79941L4.54217 6.80001Z" fill="#E6DB9D"/>
<path fill-rule="evenodd" clip-rule="evenodd" d="M3.14266 13.434C3.14377 13.4242 3.14488 13.4145 3.14599 13.4045C3.18473 13.0717 3.1913 12.8195 3.21972 12.6615C3.26111 12.4376 3.28961 12.3543 3.28312 12.2705C3.27408 12.136 3.26375 12.0376 3.27672 11.934C3.29609 11.7968 3.43075 11.6337 3.42691 11.521C3.42427 11.4317 3.37895 11.3735 3.34013 11.3192C3.3013 11.2648 3.27024 11.2195 3.27024 11.2195C3.27024 11.2195 3.53563 11.037 3.53307 10.3016C3.53849 10.3032 3.5437 10.3053 3.5486 10.3081L3.67933 10.6796L3.76868 10.7883L4.11172 11.4278L4.55316 11.8563L5.20554 12.2951L5.61463 12.7403L5.65602 13.9274L5.1214 14.6212L5.03384 14.7798C4.33826 14.4306 3.70041 13.9767 3.14258 13.4339L3.14266 13.434Z" fill="#E5CB7A"/>
<path fill-rule="evenodd" clip-rule="evenodd" d="M4.77539 14.5695C4.77539 14.5695 4.78444 14.4219 4.90612 14.3261C4.92558 14.3585 4.93846 14.3896 4.93462 14.4128C4.95664 14.3741 5.11066 14.1255 5.4589 14.0607C5.80715 13.9973 5.89128 13.7436 5.89128 13.7436L6.63035 13.0718L7.47565 12.2938L8.50348 11.9326L8.98382 11.8148C8.98382 11.8148 8.99286 11.8497 8.97477 11.9274C9.06403 11.921 9.26209 11.8757 9.46791 11.8032C9.55077 11.7708 9.6285 11.7578 9.66989 11.8006C9.73073 11.8575 9.73978 11.9922 9.74362 12.0724C9.84329 12.0504 9.95848 11.9546 10.0508 11.9637C10.1984 11.9792 10.3292 12.1527 10.4794 12.1527C10.6774 12.1527 10.7667 12.031 10.9052 11.9352C10.9881 11.8782 11.1071 11.8072 11.1745 11.7591C11.335 11.6413 13.0334 11.1222 13.0334 11.1222L13.6288 11.161L13.7246 11.8005L13.6734 13.4722C13.6671 13.4782 13.6608 13.4846 13.6544 13.4906L10.947 14.9047L7.19405 15.48C6.35338 15.3426 5.54213 15.0636 4.79485 14.6547L4.77565 14.5694L4.77539 14.5695Z" fill="#D8C173"/>
<path fill-rule="evenodd" clip-rule="evenodd" d="M3.37109 13.6466C3.42443 13.5351 3.47238 13.4418 3.48083 13.4084C3.48749 13.4757 3.49969 13.6232 3.52427 13.7801C3.47267 13.7362 3.42161 13.6917 3.37109 13.6465V13.6466Z" fill="#F1D789"/>
<path fill-rule="evenodd" clip-rule="evenodd" d="M6.11193 15.2196L6.5973 15.0846L6.63869 15.0976C6.63869 15.0976 6.6607 15.1106 6.6607 15.1545C6.72155 15.1196 6.77334 15.126 6.81089 15.1028C6.83026 15.1442 6.84963 15.2814 6.93514 15.2982C7.0244 15.3177 7.12022 15.2594 7.21733 15.1857C7.31308 15.1093 7.42213 15.0135 7.50465 14.9746C7.53493 15.0303 7.56174 15.0878 7.58495 15.1468C7.69366 15.0601 7.88268 14.708 8.1519 14.7144C8.22972 14.5305 8.35972 14.3734 8.52584 14.2626C8.77569 14.0931 8.93228 14.0801 9.12778 14.0956C9.20542 13.9948 9.30111 13.9092 9.40997 13.8432C9.44231 13.8562 9.53166 13.9105 9.64302 13.8587C9.75566 13.807 9.88246 13.6063 10.0495 13.5805C10.1395 13.5681 10.231 13.5873 10.3084 13.6348C10.3084 13.6348 10.7948 13.1519 11.1304 12.9914C11.1174 12.9526 11.0916 12.8063 11.485 12.4826C11.507 12.5021 11.4915 12.5565 11.507 12.5594C11.5134 12.5594 11.6094 12.5181 11.731 12.4248C11.8811 12.3122 12.061 12.1944 12.1697 12.162C12.3745 12.1012 12.5918 12.2254 12.5918 12.2254C12.6103 12.2125 12.6309 12.2028 12.6526 12.1969C12.7044 12.1879 12.7419 12.1814 12.7704 12.1713C12.7678 12.2387 12.8054 12.3539 12.7704 12.4535C12.8109 12.4763 12.8539 12.4946 12.8984 12.5079C12.8765 12.5558 12.8285 12.6775 12.7483 12.7357C12.8155 12.7681 12.8246 12.8056 12.9204 12.8381C12.8816 12.8925 12.818 12.9858 12.7897 13.0429C12.7612 13.1038 12.6589 13.3562 12.6136 13.4519C12.5657 13.5478 12.501 13.7238 12.4699 13.7592C12.4387 13.7945 12.3262 13.9442 12.2395 14.018C12.3163 13.9895 12.6305 13.8937 12.7637 13.8575C12.7241 13.9157 12.5229 14.2141 12.3296 14.501C11.4037 15.056 10.3703 15.4072 9.29805 15.5313C8.22582 15.6555 7.13945 15.5496 6.11133 15.2209L6.11193 15.2196Z" fill="#E0CD81"/>
<path fill-rule="evenodd" clip-rule="evenodd" d="M4.57449 6.76498C4.57449 6.76498 4.46193 6.76498 4.43992 6.78051C4.4179 6.79604 4.55256 6.82846 4.59394 6.844C4.63533 6.85953 4.72467 6.93069 4.74797 6.9877C4.76999 7.04205 5.55702 7.35915 5.55702 7.35915L6.11366 7.33065L6.30557 7.06552L5.94051 6.74578L6.19652 5.99109L5.8574 6.04545L5.04186 6.53185L4.63277 6.68852L4.57449 6.76498Z" fill="#DFC57C"/>
<path fill-rule="evenodd" clip-rule="evenodd" d="M5.79663 7.01495C5.80468 7.02798 5.81601 7.03866 5.82949 7.04593C5.84297 7.05319 5.85812 7.05678 5.87343 7.05634C5.98863 7.05634 6.0947 7.08484 6.13873 7.14304C6.21254 7.23631 6.41709 7.53404 6.41709 7.53404L6.90639 7.71008L6.93796 7.13391L6.40335 6.76245L5.79492 6.98637V7.01487H5.79629L5.79663 7.01495Z" fill="#E5CC7C"/>
<path fill-rule="evenodd" clip-rule="evenodd" d="M5.70082 7.22853C5.70082 7.22853 5.79008 7.23502 5.90272 7.19354C6.01536 7.15207 6.20045 7.06281 6.28075 7.0978C6.3933 7.14567 6.37 7.29586 6.49178 7.4306C6.5655 7.51346 6.70016 7.5109 6.77653 7.60024C6.85291 7.68959 7.11565 7.64812 7.11565 7.64812L7.21532 8.18572L6.81536 8.6984L6.68454 9.33524H6.1437L5.64962 9.13923L5.40625 8.55043L5.52794 7.95497L5.70082 7.22853Z" fill="#D2C281"/>
<path fill-rule="evenodd" clip-rule="evenodd" d="M6.74659 7.25433C6.76 7.25847 6.77394 7.26065 6.78797 7.26082C6.77244 7.27379 6.74002 7.3022 6.75299 7.37601C6.76596 7.44983 6.80734 7.54301 6.77244 7.59992C6.8003 7.63038 6.82108 7.66663 6.83329 7.70607C6.8553 7.76956 6.86179 7.82775 7.0054 7.83688C6.98468 7.84964 6.96557 7.86485 6.94849 7.88219C6.94849 7.88219 7.04816 7.96889 7.09867 8.0491C7.15038 8.04688 7.2876 8.00421 7.2876 8.00421L7.3161 8.02367L7.37694 7.99807C7.37694 7.99807 7.32003 7.97606 7.36141 7.83756C7.40024 7.71588 7.43523 7.72237 7.43821 7.71332C7.4412 7.70428 7.46672 7.57611 7.46672 7.52432C7.48609 7.45708 7.50162 7.25254 7.50162 7.25254L7.46023 6.8008L7.22727 6.65967L7.03783 6.47681L6.85914 6.81335L6.74147 6.93068L6.73242 7.22191L6.74659 7.25433Z" fill="#E2C270"/>
<path fill-rule="evenodd" clip-rule="evenodd" d="M7.30859 6.87636C7.30859 6.87636 7.34998 6.99412 7.3656 7.08474C7.3711 7.06713 7.37414 7.04884 7.37464 7.03039C7.37464 7.03039 7.40698 7.20907 7.41338 7.28289C7.42635 7.28024 7.43898 7.2764 7.44188 7.28929C7.44479 7.30217 7.47431 7.44596 7.46748 7.52617C7.52139 7.43724 7.59598 7.36265 7.68491 7.30874C7.73671 7.27632 7.79755 7.24142 7.86104 7.23877C7.96071 7.23621 8.03316 7.30226 8.15228 7.30226C8.4396 7.30226 8.69987 7.09123 8.89144 7.02655C9.0325 6.97859 9.15418 6.94369 9.2396 6.86595C9.28107 6.83105 9.35489 6.75339 9.42213 6.63811C9.51147 6.48451 9.60466 6.35079 9.69793 6.33398C9.65573 6.34173 9.6128 6.34477 9.56993 6.34303C9.56993 6.34303 9.59843 6.31452 9.64673 6.2757C9.69503 6.23687 9.75288 6.189 9.83566 6.189C9.98328 6.189 10.057 6.21093 10.1399 6.21093C10.2227 6.20837 10.2706 6.189 10.2706 6.189C10.2706 6.189 10.3574 6.24984 10.5528 6.24984C10.7483 6.2524 10.879 6.26921 10.9813 6.27834C11.0837 6.28747 11.4266 6.24984 11.525 6.25274C11.5891 6.25522 11.6521 6.27063 11.7102 6.29806L11.393 5.37646L10.2536 4.38062L9.5753 4.86087L8.53185 5.90424L7.52218 6.27834L7.31115 6.51523V6.87636H7.30859Z" fill="#CCB360"/>
<path fill-rule="evenodd" clip-rule="evenodd" d="M9.57244 6.34816C9.57244 6.34816 9.60094 6.31975 9.64873 6.28092C9.69652 6.2421 9.75497 6.19414 9.83775 6.19414C9.98529 6.19414 10.0591 6.21615 10.142 6.21615C10.2248 6.21359 10.2727 6.19414 10.2727 6.19414C10.2727 6.19414 10.3596 6.2549 10.5549 6.2549C10.7504 6.25746 10.8811 6.27427 10.9835 6.28331C11.0858 6.29236 11.4287 6.2549 11.5271 6.25771C11.5913 6.26013 11.6542 6.27554 11.7122 6.30302L11.5685 5.88745L11.4016 5.57035L10.9252 5.04862C10.9252 5.04862 10.3534 4.71207 10.3491 4.70951C10.3465 4.70695 10.151 4.65515 10.151 4.65515L9.6332 4.96841L9.16334 6.18398L9.1543 6.43998L9.45843 6.58368C9.53481 6.45568 9.61903 6.35328 9.69797 6.34031C9.62671 6.34808 9.57235 6.34808 9.57235 6.34808L9.57244 6.34816Z" fill="#D5B457"/>
<path fill-rule="evenodd" clip-rule="evenodd" d="M9.56599 6.43497C9.52068 6.43753 9.48322 6.42849 9.47281 6.39615C9.43398 6.28743 9.40292 6.2719 9.37041 6.2719C9.3379 6.2719 9.29404 6.34179 9.26802 6.34819C9.24199 6.35459 9.2111 6.26798 9.2111 6.26798L9.1826 6.255C9.1826 6.255 9.01561 6.36372 8.89786 6.49189C8.7801 6.62006 8.58717 6.83758 8.50048 6.87632C8.41378 6.91506 8.11598 6.92811 8.0141 6.95013C7.91221 6.97215 7.79924 7.04596 7.78371 7.06277C7.76818 7.07958 7.8291 7.09767 7.83815 7.11448C7.84719 7.13001 7.7384 7.12353 7.72935 7.14008C7.72295 7.15305 7.75495 7.22678 7.77082 7.26433C7.79859 7.25052 7.82907 7.243 7.86008 7.24231C7.95974 7.23975 8.03227 7.3058 8.15131 7.3058C8.4387 7.3058 8.69887 7.09477 8.89043 7.03C9.03157 6.98213 9.15325 6.94714 9.23866 6.86949C9.28005 6.83459 9.35386 6.75685 9.42118 6.64165C9.47033 6.56272 9.51829 6.4889 9.56625 6.43455L9.56599 6.43497Z" fill="#D2B257"/>
<path fill-rule="evenodd" clip-rule="evenodd" d="M5.44609 12.8415C5.44609 12.8415 5.42049 12.7457 5.18326 12.4985C5.11593 12.4286 5.07454 12.3705 5.02923 12.3289C4.91659 12.2227 4.85054 12.1942 4.77033 12.1334C4.59428 12.0027 4.40271 12.0027 4.25516 11.8421C4.10762 11.6816 3.93567 11.3749 3.8162 11.0615C3.69844 10.7482 3.66602 10.6486 3.66602 10.6395C3.66602 10.6305 3.69844 10.5696 3.73983 10.5787C3.78122 10.5877 3.78122 10.6679 3.79163 10.6874C3.81225 10.7191 3.83563 10.749 3.86152 10.7767C3.92236 10.8466 4.00906 10.9303 4.05309 11.055C4.04405 10.9489 4.00778 10.8311 4.00778 10.8311C4.00778 10.8311 4.23562 10.9748 4.42976 11.1249C4.62526 11.2751 4.70547 11.3269 4.76256 11.4226C4.81965 11.5184 4.95414 11.7709 5.01856 11.8447C5.08299 11.9185 5.96577 12.1968 5.96577 12.1968L6.3857 12.5099L6.59417 12.9669L6.43102 13.2229L6.11775 13.2902L5.60899 13.0624L5.44609 12.8414V12.8415Z" fill="#D2B159"/>
<path fill-rule="evenodd" clip-rule="evenodd" d="M4.31445 11.2674C4.31445 11.2674 4.42061 11.4369 4.67951 11.5974C4.91255 11.7386 5.28145 11.8667 5.61032 11.9431C5.79925 11.9884 5.98827 12.0233 6.15782 12.026C6.61478 12.0324 6.92932 11.9017 7.31904 11.859C7.53007 11.837 7.78897 11.8201 8.0582 11.7566C8.4038 11.6737 8.60834 11.5804 8.8867 11.4494C9.0886 11.3562 9.27377 11.2863 9.42387 11.197C9.6349 11.0727 9.78893 10.9342 9.96762 10.8928C9.9456 10.9537 9.9223 11.0624 9.74626 11.175C9.83945 11.1724 9.96762 11.166 9.96762 11.166C9.96762 11.166 9.84337 11.2397 9.62458 11.4054C9.48992 11.5078 9.31132 11.6811 9.12879 11.7963C9.01094 11.8701 8.88277 11.9243 8.79863 11.9685C8.59383 12.0812 8.51123 12.1381 8.37666 12.2757C8.42453 12.2732 8.42846 12.2757 8.42846 12.2757C8.42846 12.2757 8.25882 12.2977 8.13722 12.3624C8.11162 12.3624 8.06724 12.3534 7.98959 12.3754C7.92875 12.3948 7.84845 12.4389 7.76567 12.4621C7.64783 12.4971 7.60909 12.4816 7.60909 12.4816L7.62846 12.5204C7.62846 12.5204 7.47486 12.5177 7.42366 12.5229C7.4327 12.5255 7.43014 12.5294 7.43014 12.5294C7.42115 12.5309 7.41249 12.534 7.40454 12.5385C7.37991 12.5544 7.3528 12.5662 7.32433 12.5734C7.3088 12.5759 7.29583 12.5759 7.27637 12.5799C7.28286 12.5954 7.33338 12.6823 7.35667 12.7335C7.3373 12.7464 7.04597 12.9665 7.04597 12.9665C7.05501 12.9807 7.06239 12.9959 7.06799 13.0118C7.07703 13.0402 7.08096 13.0817 7.09001 13.1011C7.11194 13.1399 7.12491 13.1464 7.12491 13.1464C7.12491 13.1464 7.09001 13.1529 7.02908 13.1684C6.97737 13.1814 6.91388 13.2033 6.82428 13.2163C6.79679 13.2199 6.76913 13.222 6.74142 13.2228C6.75439 13.2513 6.81131 13.36 6.70643 13.4855C6.60156 13.611 6.56922 13.6293 6.53687 13.7095C6.5206 13.6972 6.50326 13.6863 6.48508 13.6771C6.45018 13.6615 6.40222 13.6383 6.38541 13.6072C6.37561 13.6487 6.36263 13.6894 6.34658 13.7289C6.31424 13.8156 6.26637 13.9011 6.25732 13.9658C6.22234 13.9269 6.15765 13.8506 6.06831 13.8661C5.97897 13.8816 5.9078 14.0033 5.89227 14.0383C5.89227 14.0163 5.87674 13.9995 5.8729 14.0253C5.87025 14.0538 5.8211 14.3515 5.54667 14.5923C5.54411 14.5314 5.54411 14.3968 5.53762 14.3528C5.51202 14.3784 5.4807 14.4162 5.29425 14.4965C5.11172 14.5767 5.14065 14.657 5.14065 14.657C5.14065 14.657 5.12512 14.529 5.22351 14.3942C5.32318 14.2596 5.38402 14.1962 5.38402 14.1858C5.38241 14.1753 5.37792 14.1655 5.37105 14.1573C5.35808 14.1444 5.33222 14.1288 5.33222 14.1185C5.34775 14.1121 5.50178 14.0383 5.49274 13.8855C5.48369 13.7483 5.42549 13.6771 5.38402 13.6266C5.37762 13.6202 5.44495 13.5723 5.43582 13.5568C5.42933 13.5477 5.34656 13.4868 5.33615 13.4544C5.3386 13.435 5.34294 13.4159 5.34912 13.3974C5.35817 13.3689 5.36465 13.3495 5.36209 13.3301C5.35561 13.2978 5.32062 13.2084 5.31029 13.1994C5.31934 13.2019 5.38402 13.1994 5.38402 13.1994C5.38402 13.1994 5.33231 13.1165 5.32318 13.0777C5.31405 13.0389 5.29468 12.9366 5.28435 12.9172C5.30637 12.9197 5.36073 12.9236 5.36073 12.9172C5.36337 12.8977 5.31285 12.8654 5.33512 12.8404C5.35066 12.8429 5.38044 12.8559 5.40885 12.8922C5.39332 12.8507 5.36747 12.7705 5.31302 12.7382C5.33862 12.7291 5.42566 12.7057 5.50204 12.751C5.57841 12.7964 5.60444 12.8598 5.60444 12.8598C5.60444 12.8598 5.64975 12.8947 5.71972 12.9465C5.79994 13.0099 5.90217 13.1001 6.06532 13.164C6.10031 13.1834 6.18957 13.1834 6.25434 13.1705C6.28254 13.1637 6.30957 13.1528 6.33455 13.1381C6.34357 13.1328 6.35312 13.1285 6.36305 13.1251C6.34914 13.0972 6.33313 13.0704 6.31518 13.0448C6.33719 13.0448 6.36305 13.0475 6.36305 13.0475C6.36305 13.0475 6.37858 13.0125 6.30869 12.9451C6.32422 12.9296 6.34368 12.9195 6.34368 12.8933C6.32166 12.8907 6.28284 12.8584 6.27379 12.8454C6.28668 12.8364 6.30613 12.8066 6.32815 12.7975C6.30869 12.782 6.26082 12.7172 6.23881 12.7108C6.25984 12.703 6.28019 12.6935 6.29965 12.6823C6.29965 12.6823 6.19093 12.6538 6.15595 12.6306C6.12096 12.605 6.06925 12.5607 6.03819 12.5477C6.00576 12.5347 5.94884 12.5283 5.92555 12.5024C5.94748 12.5089 5.98246 12.5024 6.00841 12.5024C6.02778 12.5024 6.03691 12.5049 6.04331 12.5049C6.04075 12.4959 6.04075 12.4764 6.09126 12.47C6.11556 12.4664 6.13914 12.4589 6.16115 12.448C6.16115 12.448 6.11319 12.4455 6.05875 12.3937C6.00431 12.3419 5.95908 12.3005 5.92802 12.294C5.89568 12.2875 5.83484 12.316 5.79729 12.3134C5.74549 12.307 5.72348 12.281 5.72348 12.281C5.72348 12.281 5.55136 12.2966 5.16949 12.0636C4.83934 11.8616 4.69564 11.683 4.69564 11.683C4.66474 11.6718 4.63487 11.6579 4.60638 11.6415C4.48213 11.5769 4.30993 11.4422 4.31514 11.2661L4.31445 11.2674Z" fill="#C2A44D"/>
<path fill-rule="evenodd" clip-rule="evenodd" d="M9.07724 3.49765C9.10718 3.50738 9.1338 3.52533 9.15404 3.54945C9.21488 3.61933 9.25371 3.75135 9.11521 3.89249C9.16957 3.91186 9.19201 3.91809 9.23946 3.91186C9.19159 3.96886 9.08287 4.09055 9.07638 4.1967C9.0699 4.2834 9.12426 4.30934 9.12426 4.30934C9.12426 4.30934 9.0414 4.40508 9.03756 4.56534C9.07669 4.52121 9.11951 4.4805 9.16556 4.44365C9.26139 4.36728 9.3934 4.28058 9.48275 4.22623C9.48153 4.24901 9.4846 4.27182 9.49179 4.29347C9.49179 4.29347 9.65871 4.15625 9.799 4.21718C9.8624 4.24568 9.8339 4.33494 9.8339 4.33494C9.8339 4.33494 9.92069 4.3026 9.98153 4.36344C10.0424 4.42428 10.1284 4.58121 10.1725 4.64205C10.1919 4.67056 10.2424 4.72491 10.2941 4.80905C10.3648 4.92685 10.4238 5.05126 10.4702 5.18051C10.4728 5.11318 10.4896 5.00839 10.6813 5.07435C10.8729 5.14168 11.0903 5.28282 11.2728 5.56075C11.4554 5.83868 11.5006 6.15245 11.5925 6.27192C11.6857 6.38712 11.7815 6.57869 11.788 6.65899C11.7945 6.73929 11.7595 6.99811 11.9511 7.69844C12.0054 7.48101 12.0883 6.99811 12.0883 6.99811L12.1336 6.57221L12.1854 5.25441L10.8093 4.1112L9.73355 3.33057L9.0332 3.39789L9.07715 3.49756L9.07724 3.49765Z" fill="#CAA13E"/>
<path fill-rule="evenodd" clip-rule="evenodd" d="M11.6351 5.45882C11.6351 5.45882 11.6156 5.33082 11.292 5.11322C10.9684 4.89835 10.716 4.89835 10.483 4.71583C10.3043 4.57212 10.1179 4.24197 9.99659 4.13325C9.87875 4.02582 9.85938 3.71512 9.85938 3.71512L10.2568 3.38232L10.8478 2.52805L11.3474 1.97791L11.5869 2.31071L11.9197 2.70162L12.1048 3.48609L12.1721 4.63433L11.6345 5.45891L11.6351 5.45882Z" fill="#B59544"/>
<path fill-rule="evenodd" clip-rule="evenodd" d="M12.0341 6.83518C12.0439 6.66105 12.0224 6.48657 11.9706 6.32002C11.8853 6.05464 11.6988 5.58342 11.6122 5.40696C11.5772 5.21146 11.6032 5.19593 11.6407 5.17391C11.6783 5.15189 11.8194 5.07151 11.8967 4.78948C11.974 4.50746 12.2139 4.49824 12.2139 4.49824L12.3614 4.38953L12.5854 4.95L12.7809 5.45619L12.8417 5.84326L12.887 6.17333L12.7809 6.8711L12.2567 7.34488L12.034 6.83518H12.0341Z" fill="#C89D3A"/>
<path fill-rule="evenodd" clip-rule="evenodd" d="M4.71875 14.6124V14.598C4.72964 14.5912 4.73926 14.5826 4.74717 14.5724C4.75621 14.5595 4.76278 14.5439 4.76918 14.5401C4.78215 14.5336 4.843 14.5145 4.87534 14.5206C4.90768 14.5268 4.99318 14.562 5.03849 14.5595C5.13168 14.5569 5.24039 14.4857 5.4126 14.5181C5.6715 14.566 5.73234 14.742 5.88253 14.8417C5.98493 14.9117 6.09091 14.8805 6.10644 14.8805H6.14134C6.14783 14.8805 6.1957 14.8261 6.22164 14.8288C6.27344 14.8314 6.27856 14.8741 6.3109 14.8767C6.38727 14.8857 6.5349 14.8378 6.60871 14.8573C6.6306 14.8642 6.6505 14.8762 6.66673 14.8924C6.68296 14.9086 6.69502 14.9285 6.7019 14.9504C6.71743 14.9983 6.70446 15.0591 6.66691 15.0941C6.5867 15.1678 6.51032 15.2378 6.49479 15.2989C6.51455 15.314 6.53351 15.33 6.55162 15.347C5.91113 15.1838 5.29488 14.9371 4.71875 14.6132V14.6124Z" fill="#CEB052"/>
<path fill-rule="evenodd" clip-rule="evenodd" d="M11.6113 12.026C11.6113 12.026 11.8132 11.7568 11.8832 11.6234C11.9531 11.4859 11.6618 9.74512 11.6618 9.74512L12.247 7.82802L12.2314 7.20406C12.2314 7.20406 12.2599 6.62797 12.3272 6.37812C12.4075 6.52182 12.6574 6.6953 12.7117 6.78721C12.7373 6.61108 12.8243 6.23962 12.8114 5.84351C12.8593 5.91723 12.9745 6.65904 12.9745 6.65904L13.0897 7.15866L13.2399 7.68944L13.4069 8.24999L13.5066 8.63706L13.5635 8.73025L13.6114 8.89332L13.6568 9.06945L13.7875 9.48237L13.8643 9.82149L13.9251 10.4364C13.9384 10.4835 13.9479 10.5315 13.9536 10.5801C13.9562 10.6474 13.9446 10.6863 13.9446 10.6979C13.9446 10.7096 13.9666 10.8455 13.9576 10.9478C13.9446 11.0502 13.9446 11.1303 13.8643 11.2038C13.784 11.2773 13.7336 11.7164 13.7336 11.7164L13.5899 11.6207C13.5899 11.6207 13.6184 11.4898 13.551 11.3708C13.4837 11.2518 13.353 11.2271 13.2791 11.2466C13.2054 11.2621 13.0579 11.2853 13.0099 11.3268C12.9646 11.3682 12.8533 11.4963 12.751 11.5546C12.623 11.6314 12.4144 11.6375 12.3032 11.6633C12.1905 11.6889 12.0663 11.7657 11.9354 11.8549C11.8329 11.9213 11.7246 11.9784 11.6118 12.0256L11.6113 12.026Z" fill="#CCA847"/>
<path fill-rule="evenodd" clip-rule="evenodd" d="M11.6113 14.8544C11.6113 14.8544 11.6199 14.86 11.6363 14.869C12.556 14.4381 13.3801 13.8274 14.0598 13.0727C14.0524 12.8108 14.0427 12.5422 14.0321 12.4427C14.0102 12.2317 14.0257 12.0168 14.0193 11.8926C14.0128 11.7683 13.9429 11.2621 13.9105 11.1314C13.8756 11.0007 13.8081 10.9359 13.7979 10.9359C13.7889 10.9386 13.7344 11.1819 13.7344 11.2431C13.7344 11.3043 13.7214 11.4516 13.7214 11.4891C13.7124 11.4865 13.7086 11.4635 13.7086 11.4541C13.6956 11.4865 13.6801 11.5435 13.6736 11.55C13.6671 11.5565 13.6826 11.4956 13.6736 11.4826C13.6645 11.4697 13.648 11.4762 13.6516 11.4438C13.6531 11.4246 13.6561 11.4056 13.6606 11.3869C13.6606 11.3869 13.6218 11.4438 13.5934 11.5888C13.5649 11.7325 13.5649 11.7364 13.5545 11.7493C13.5455 11.7649 13.4937 11.8166 13.491 11.8361C13.4885 11.871 13.539 11.906 13.5428 11.9254C13.5454 11.9578 13.4975 12.1079 13.482 12.1814C13.4665 12.2548 13.473 12.3988 13.4564 12.4726C13.4434 12.5399 13.4308 12.5788 13.3865 12.6072C13.4189 12.6137 13.4499 12.6227 13.4499 12.6227C13.4499 12.6227 13.4952 12.8143 13.38 12.9774C13.3386 13.0343 13.3283 13.0603 13.2843 13.1121C13.1975 13.2078 13.1302 13.3169 13.1237 13.3878C13.1192 13.3669 13.1162 13.3457 13.1146 13.3243C13.1146 13.3243 12.9801 13.481 12.9231 13.5703C12.8493 13.6855 12.747 13.679 12.7183 13.7075C12.6895 13.736 12.6833 13.7878 12.6927 13.8292C12.6671 13.8356 12.6189 13.8448 12.5865 13.9444C12.571 13.9961 12.5322 14.0468 12.4713 14.0816C12.4105 14.1165 12.3367 14.127 12.2991 14.136C12.3315 14.145 12.3444 14.145 12.36 14.1554C12.3406 14.1877 12.2512 14.2382 12.1516 14.303C12.0519 14.3638 12.0039 14.4531 11.9794 14.5114C11.9538 14.5657 11.916 14.6007 11.8551 14.6072C11.8807 14.6227 11.9186 14.6589 11.938 14.6706C11.9095 14.6771 11.8612 14.6771 11.7749 14.7509C11.6843 14.826 11.6532 14.848 11.6118 14.8545L11.6113 14.8544Z" fill="#C39D3C"/>
<path fill-rule="evenodd" clip-rule="evenodd" d="M9.81097 15.4542C9.86054 15.4195 9.91423 15.391 9.9708 15.3695C10.1727 15.2893 10.3863 15.2738 10.4704 15.2479C10.5507 15.2223 10.6141 15.187 10.7138 15.1676C10.7112 15.1903 10.7089 15.2116 10.7065 15.2318C10.4127 15.3242 10.1135 15.3984 9.81055 15.4542H9.81097Z" fill="#D2BA6B"/>
<path fill-rule="evenodd" clip-rule="evenodd" d="M13.5355 10.1436C13.5355 10.1436 13.4941 10.3675 13.4203 10.5087C13.3465 10.6498 13.2667 10.8452 13.2667 10.8452C13.2672 10.8012 13.2724 10.7573 13.2822 10.7144C13.189 10.7688 12.9625 10.8996 12.8982 10.9578C12.8374 11.0121 12.7351 11.108 12.7092 11.1533C12.7701 10.9747 12.8335 10.8142 12.8439 10.7404C12.7507 10.8077 12.3157 11.1663 12.0892 11.4031L11.3836 11.974C11.3022 12.0179 11.2184 12.0572 11.1325 12.0916C11.0109 12.1433 10.8672 12.1873 10.7611 12.2288C10.7896 12.1524 10.8348 12.085 10.8983 12.0203C10.9656 11.9569 11.1675 11.7381 11.1986 11.6363C11.2271 11.5302 11.2335 11.4668 11.196 11.3774C11.161 11.3865 11.0808 11.3904 11.0264 11.4059C10.9721 11.4215 10.9138 11.4797 10.9138 11.4797C10.9138 11.4797 10.9552 11.2428 11.0445 11.0189C10.9772 11.0214 10.862 11.0408 10.862 11.0408C10.862 11.0408 11.0225 10.7716 11.2972 10.5839C11.2131 10.6018 11.1308 10.6274 11.0513 10.6602C10.8908 10.7276 10.7147 10.8272 10.584 10.8816C10.6577 10.7792 11.1755 10.0402 11.4837 9.35149C11.7909 8.66413 11.9056 8.48809 11.973 8.1192C12.0079 7.93668 11.9986 7.66694 12.0079 7.42536C12.0169 7.18584 12.0467 6.97097 12.0273 6.82727C12.1075 6.92694 12.4079 7.20785 12.4182 7.83573C12.4273 8.46352 12.1309 9.31147 11.8163 9.76834C11.8931 9.79035 12.0921 9.81629 12.2965 9.46114C12.501 9.10599 12.4985 9.00683 12.5723 8.8592C12.5814 8.93302 12.5787 8.95887 12.5787 8.95887C12.5787 8.95887 12.8766 8.59775 13.0176 8.14335C13.0461 8.33885 13.1302 8.51105 12.9982 8.86962C12.8804 9.1932 12.7264 9.27221 12.7264 9.27221C12.7264 9.27221 12.8027 9.25924 12.9153 9.19192C12.9347 9.23979 12.9309 9.29431 12.9632 9.3136C12.9956 9.33288 13.0396 9.3654 13.0461 9.39646C13.081 9.34466 13.1354 9.27861 13.1523 9.22946C13.1393 9.33186 13.1302 9.7796 13.1779 10.0074C13.2776 9.99839 13.3798 9.99191 13.4497 9.81194C13.4019 9.98807 13.4019 10.0941 13.4342 10.2443C13.4873 10.2081 13.5352 10.1434 13.5352 10.1434L13.5355 10.1436Z" fill="#C0993A"/>
<path fill-rule="evenodd" clip-rule="evenodd" d="M10.1722 3.00845C10.1722 3.00845 10.0725 3.04984 9.90298 3.04984C9.75544 3.04984 9.79683 2.99292 9.56642 2.99292C9.21177 2.99292 7.97287 3.19772 7.75535 3.19482C7.6142 3.19226 8.23169 3.25566 8.23169 3.25566L9.8098 3.27768L10.1269 3.25208L10.2448 3.01229L10.1722 3.00845Z" fill="#A88F33"/>
<path fill-rule="evenodd" clip-rule="evenodd" d="M6.0797 6.09324C6.0797 6.09324 5.87771 6.24727 5.79229 6.36511C5.70687 6.48296 5.66156 6.56053 5.56445 6.65636C5.58725 6.65722 5.61002 6.65416 5.63178 6.64731C5.63178 6.64731 5.63178 6.67291 5.61625 6.67965C5.62967 6.67815 5.64326 6.67967 5.65601 6.6841C5.66877 6.68853 5.68038 6.69576 5.68998 6.70525C5.66148 6.72078 5.58382 6.79852 5.64467 6.89042C5.68998 6.96031 5.78581 6.96671 5.78581 6.96671C5.78581 6.96671 5.76379 7.0302 5.8557 7.02372C6.05375 7.01467 6.27511 6.92789 6.37734 6.9499C6.47974 6.9755 6.53794 6.98489 6.61038 7.1105C6.68718 7.23474 6.75408 7.2542 6.75408 7.2542C6.75408 7.2542 6.7994 7.13892 6.78907 6.9668C6.82622 6.87402 6.84682 6.77545 6.84991 6.67556L6.78259 6.17977L6.48878 5.80823L6.1082 6.01926L6.0797 6.09298V6.09324Z" fill="#E3C571"/>
<path fill-rule="evenodd" clip-rule="evenodd" d="M6.44141 6.0194C6.44141 6.0194 6.46991 6.08673 6.58903 6.09313C6.57606 6.12163 6.57606 6.12556 6.57999 6.14749C6.58255 6.1695 6.58639 6.20185 6.58639 6.20185C6.5995 6.1955 6.61136 6.18683 6.62137 6.17625C6.62786 6.20475 6.61489 6.24997 6.62137 6.2824C6.62538 6.30212 6.63189 6.32125 6.64074 6.33932C6.64263 6.33489 6.6448 6.33059 6.64723 6.32643C6.64979 6.31995 6.67283 6.39632 6.73657 6.45443C6.73652 6.4455 6.73872 6.43669 6.74297 6.42883C6.74395 6.44506 6.74932 6.46073 6.7585 6.47414C6.75373 6.47187 6.74938 6.46881 6.74562 6.4651C6.74562 6.4651 6.75202 6.6699 6.78701 6.7758C6.79285 6.76896 6.79805 6.76159 6.80254 6.75378C6.80254 6.74738 6.79998 6.81078 6.79349 6.85618C6.78445 6.90149 6.79093 6.9649 6.79093 6.9649C6.81427 6.94652 6.83992 6.93129 6.86722 6.91958C6.90605 6.90397 6.96962 6.8561 7.00836 6.74994C7.03084 6.68982 7.04816 6.62791 7.06016 6.56485C7.07267 6.58895 7.08131 6.61487 7.08576 6.64165C7.0884 6.674 7.14925 6.65718 7.14925 6.65718L7.16222 6.51604L7.23902 6.1963L7.3089 5.99824L7.64546 5.47404L8.25355 5.00573L8.78432 5.12741L9.23215 4.51899L8.46065 4.05554L7.73054 4.13192L7.06792 5.04968L6.53724 5.8821L6.44141 6.01932V6.0194Z" fill="#D8B65B"/>
<path fill-rule="evenodd" clip-rule="evenodd" d="M10.2639 4.69131C10.2639 4.69131 10.2186 4.70036 10.0879 4.76811C9.95715 4.83587 9.86653 4.85737 9.81602 4.95704C9.7655 5.05672 9.76166 5.13573 9.76166 5.13573C9.76166 5.13573 9.851 5.09691 9.9028 5.08394C9.95715 5.07105 10.018 5.07489 10.0115 5.09691C10.0053 5.112 9.99664 5.12598 9.98591 5.13829C9.98591 5.13829 10.0883 5.13573 10.0856 5.18625C10.0828 5.23677 10.0662 5.29241 10.0468 5.31698C10.0274 5.34258 9.94717 5.38047 9.93813 5.41026C9.91611 5.4711 9.94717 5.47366 9.93548 5.52281C9.92644 5.57077 9.88377 5.66395 9.74391 5.82703C9.60021 5.99019 9.53911 6.10539 9.53911 6.10539C9.53911 6.10539 9.46922 5.97466 9.43296 5.86201C9.40736 5.8749 9.26989 5.95127 9.26989 5.95127L8.95143 4.84193L8.95783 4.76811C8.95783 4.76811 8.98633 4.73321 8.99281 4.66844C8.94494 4.65291 8.93846 4.63994 8.87497 4.57918C8.81148 4.51843 8.75977 4.44453 8.6537 4.39401C8.63817 4.36551 8.61871 4.32677 8.54106 4.31115C8.46341 4.29553 8.41682 4.28273 8.41682 4.28273C8.41682 4.28273 8.4582 4.26712 8.47766 4.23478C8.4297 4.24126 8.39096 4.25679 8.28609 4.25423C8.17993 4.25159 8.16824 4.24775 8.11005 4.25679C8.05185 4.26584 7.98205 4.29178 7.95602 4.20243C7.92752 4.18042 7.86668 4.19987 7.81488 4.27616C7.76309 4.35245 7.745 4.41338 7.64533 4.44316C7.63832 4.4871 7.62294 4.52928 7.60002 4.56741C7.57151 4.61537 7.5262 4.66324 7.46536 4.73441C7.36953 4.84705 7.38506 5.03214 7.23232 5.17328C7.07829 5.31434 7.25792 4.78228 7.25792 4.78228L7.50385 4.19347L8.20417 3.50867L9.29156 3.43494L9.39771 3.99814L9.92848 4.18067L10.2638 4.692L10.2639 4.69131Z" fill="#D3AE4D"/>
<path fill-rule="evenodd" clip-rule="evenodd" d="M10.4363 4.81543L9.97932 4.15658L9.65959 3.91057C9.65959 3.91057 9.43176 3.49125 9.41623 3.47828C9.40326 3.46923 9.1884 3.44593 9.05119 3.43689L9.07679 3.50029C9.10673 3.51002 9.13335 3.52797 9.15358 3.55209C9.21443 3.62197 9.25325 3.75398 9.11476 3.89512C9.16912 3.91449 9.19156 3.92072 9.239 3.91449C9.19113 3.97149 9.08242 4.09318 9.07593 4.19933C9.06945 4.28603 9.1238 4.31188 9.1238 4.31188C9.1238 4.31188 9.04095 4.40771 9.03711 4.56788C9.07624 4.52375 9.11906 4.48304 9.1651 4.44619C9.26093 4.3694 9.39294 4.28304 9.48228 4.22868C9.48106 4.25149 9.48413 4.27433 9.49132 4.29601C9.49132 4.29601 9.65823 4.1588 9.79851 4.21964C9.86191 4.24814 9.83341 4.33748 9.83341 4.33748C9.83341 4.33748 9.92019 4.30514 9.98103 4.36598C10.0419 4.42682 10.1286 4.58341 10.1726 4.64434C10.192 4.67284 10.2425 4.72719 10.2942 4.81124C10.3649 4.92906 10.4238 5.0535 10.4703 5.18278C10.4729 5.13098 10.4833 5.05854 10.5727 5.05854L10.4368 4.81517L10.4363 4.81543Z" fill="#CAA13E"/>
<path fill-rule="evenodd" clip-rule="evenodd" d="M3.58664 6.68737C3.58664 6.68737 3.5543 6.60708 3.58664 6.45049C3.61898 6.2939 3.6695 6.22009 3.68631 5.98969C3.70312 5.75929 3.8533 5.47189 3.8533 5.47189L4.26879 5.28296L4.56268 5.36317L4.64937 5.75673L4.27783 5.96153C4.27783 5.96153 4.25846 6.04823 4.15359 6.11812C4.04872 6.188 3.90374 6.24236 3.86883 6.31361C3.84797 6.35725 3.83274 6.40336 3.82352 6.45083C3.82352 6.45083 3.71737 6.42882 3.65397 6.4987C3.58664 6.56996 3.5892 6.63336 3.58664 6.68772V6.68737Z" fill="#F4EFC8"/>
<path fill-rule="evenodd" clip-rule="evenodd" d="M4.4258 6.58251C4.4258 6.58251 4.39081 6.60452 4.36495 6.65931C4.33935 6.61792 4.27817 6.37191 4.27561 6.15055C4.27305 5.9292 4.25982 5.87433 4.31102 5.79805C4.36222 5.72176 4.56301 5.64138 4.53451 5.50399C4.50601 5.37326 4.38688 5.31891 4.24062 5.35645C4.13822 5.38205 4.06202 5.59982 3.95587 5.70853C3.87557 5.79139 3.77982 5.77842 3.75397 5.82373C3.71898 5.88457 3.75132 5.94542 3.741 5.98424C3.73835 5.99721 3.70601 6.0671 3.64773 6.15124C3.52997 6.32079 3.33063 6.56032 3.30469 6.77519C3.31373 6.6535 3.30733 6.65094 3.33967 6.51629L3.32022 6.48395L3.44822 6.06454L3.53108 5.71894L3.71625 5.14022L4.04239 4.5487L4.35958 4.19397L4.68965 4.21599L4.72847 4.71177L4.91749 5.64257L5.31488 6.13187L4.67796 6.56049L4.42554 6.58251H4.4258Z" fill="#EBCC73"/>
<path fill-rule="evenodd" clip-rule="evenodd" d="M4.62414 6.75853C4.62414 6.75853 4.56978 6.7715 4.55032 6.76117C4.53087 6.75085 4.51158 6.73916 4.51798 6.72619C4.52438 6.71321 4.55937 6.69128 4.55937 6.68087C4.56009 6.67146 4.55711 6.66215 4.55107 6.6549C4.54503 6.64765 4.53641 6.64304 4.52703 6.64204C4.49724 6.6382 4.4882 6.65757 4.4882 6.65757C4.4882 6.65757 4.4597 6.63564 4.43649 6.63197C4.45022 6.63029 4.46404 6.62941 4.47787 6.62933C4.4421 6.61312 4.40415 6.60223 4.36523 6.59699C4.39758 6.57761 4.46106 6.52061 4.50245 6.52061C4.54384 6.52061 4.56978 6.51421 4.56329 6.49219C4.55681 6.47018 4.52447 6.43783 4.48957 6.42486C4.50245 6.40933 4.51158 6.38603 4.48052 6.32246C4.44809 6.25905 4.46106 6.2163 4.47147 6.20085C4.48052 6.1814 4.51286 6.14649 4.52839 6.12448C4.54392 6.10246 4.55689 6.07268 4.58275 6.05715C4.59572 6.0481 4.63711 6.03155 4.67858 6.01576C4.72389 6.00023 4.76144 5.98077 4.78729 6.00023C4.81579 6.0196 4.80282 6.04554 4.80282 6.04554C4.80282 6.04554 4.89217 6.01311 4.97238 6.05459C5.05268 6.09333 5.24818 6.11799 5.24818 6.11799L5.31824 6.25914L4.85479 6.65655L4.66322 6.75238L4.62439 6.75878L4.62414 6.75853Z" fill="#E5C66B"/>
<path fill-rule="evenodd" clip-rule="evenodd" d="M5.26644 6.10874C5.26644 6.10874 5.12274 6.20457 5.0904 6.23947C5.10977 6.24212 5.14211 6.25509 5.12914 6.27446C5.11361 6.29383 5.02043 6.36116 4.96863 6.42464C4.91427 6.48805 4.86247 6.56835 4.84438 6.60717C4.82501 6.64207 4.67739 6.74439 4.62695 6.75727C4.73311 6.75727 4.9467 6.62654 5.02691 6.62654C5.02435 6.66537 5.04893 6.7094 5.09424 6.71324C5.13955 6.71708 5.27028 6.74174 5.44632 6.63303C5.62237 6.52687 5.56417 6.44785 5.6379 6.39614C5.77904 6.30287 5.83596 6.22001 5.91361 6.1683C5.99126 6.11659 6.03145 6.10481 6.03145 6.10481C6.03145 6.10481 6.03401 6.06599 6.05705 6.06991C6.06336 6.07064 6.06935 6.07307 6.07437 6.07695C6.0794 6.08083 6.08326 6.08601 6.08556 6.09193C6.08556 6.09193 6.22021 5.9961 6.39276 5.97024C6.38873 5.96844 6.38551 5.96522 6.38371 5.9612C6.38371 5.9612 6.3966 5.95471 6.39924 5.94823C6.39924 5.94823 6.40829 5.93526 6.41477 5.94174C6.42126 5.94823 6.4303 5.9961 6.44327 6.01556C6.47177 6.00259 6.52613 5.8809 6.52613 5.8809L6.65695 5.5068V5.16504L6.55455 5.18449L5.78655 5.51064L5.32046 5.99354L5.2661 6.10874H5.26644Z" fill="#E6BD62"/>
<path fill-rule="evenodd" clip-rule="evenodd" d="M7.47669 4.43241C7.51823 4.42233 7.55806 4.40617 7.59488 4.38445C7.57935 4.42593 7.57935 4.47124 7.51202 4.56963C7.44469 4.66802 7.44213 4.68227 7.38777 4.7845C7.33341 4.89066 7.32693 5.04341 7.27513 5.11065C7.29835 5.09937 7.32325 5.09196 7.34886 5.08872C7.34886 5.08872 7.29715 5.13403 7.27513 5.18191C7.25312 5.22978 7.21429 5.32945 7.11855 5.39038C7.0228 5.45131 6.90103 5.49005 6.7703 5.63375C6.63948 5.77481 6.50491 5.9535 6.4375 6.01776C6.47249 5.95692 6.52036 5.83523 6.53333 5.75501C6.5463 5.6748 6.53068 5.57888 6.5527 5.47281C6.57472 5.36674 6.57472 5.29028 6.6807 5.10511C6.78668 4.91993 6.9681 4.27659 6.9681 4.27659L7.35901 4.15234L7.47686 4.43199L7.47669 4.43241Z" fill="#B6933F"/>
<path fill-rule="evenodd" clip-rule="evenodd" d="M7.19448 4.19547C7.19448 4.19547 7.07672 4.36503 7.04438 4.51521C7.01204 4.6654 7.04173 4.65243 7.02236 4.72624C7.01078 4.77125 7.01078 4.81845 7.02236 4.86346C7.06314 4.79776 7.11898 4.74271 7.18526 4.70286C7.29662 4.63562 7.38724 4.58766 7.44126 4.53074C7.49561 4.4699 7.54093 4.37023 7.65868 4.29386C7.61081 4.28737 7.54349 4.26536 7.53069 4.26826C7.57864 4.2139 7.72226 4.13104 7.86724 4.03137C8.01094 3.92897 8.00189 3.88767 8.23493 3.78544C8.15856 3.79841 8.12229 3.77896 8.05881 3.78544C8.08441 3.73109 8.17401 3.70514 8.26361 3.61589C8.3532 3.52663 8.20669 3.39453 8.20669 3.39453L7.52403 3.80746L7.19396 4.19581L7.19448 4.19547Z" fill="#C49937"/>
<path fill-rule="evenodd" clip-rule="evenodd" d="M5.34375 3.88733L5.35928 3.76309L5.55478 3.44983L5.75932 2.89969V2.14756L5.74379 1.71261L5.77613 1.42777L5.80071 1.33723L5.82665 1.30225L5.99356 1.38894L6.22405 1.7022L6.24606 2.30679L6.02206 3.26082L5.38258 3.95859L5.34375 3.88733Z" fill="#DFC068"/>
<path fill-rule="evenodd" clip-rule="evenodd" d="M5.85217 1.26725C5.85217 1.26725 5.74977 1.26989 5.72793 1.69579C5.70608 2.12169 5.6955 2.3456 5.67997 2.55663C5.66444 2.76766 5.62826 2.89575 5.61008 3.02008C5.59191 3.14441 5.58158 3.31388 5.52339 3.41748C5.49779 3.46535 5.44309 3.61553 5.31492 3.72817C5.17122 3.85242 4.95652 3.9392 4.92401 3.94569C4.86701 3.95857 4.57833 3.98708 4.46057 4.05184C4.41918 4.07386 4.34793 4.09972 4.269 4.17353C4.11233 4.31459 3.90395 4.567 3.75376 4.87121C3.52337 5.32561 3.29297 6.60843 3.29297 6.60843L3.34477 6.52173C3.34477 6.52173 3.35125 6.40653 3.46645 6.20455C3.57909 6.00265 3.54675 5.77609 3.70333 5.38902C3.76417 5.24148 3.84055 5.0499 3.93373 4.88675C4.08135 4.62136 4.25995 4.39352 4.43992 4.26927C4.73372 4.06737 5.05738 4.02334 5.05738 4.02334L5.40563 3.79294C5.40563 3.79294 5.46647 3.67518 5.54677 3.54053C5.65932 3.3516 5.80276 3.14057 5.83408 2.8338C5.88204 2.3794 5.76675 2.08167 5.77324 1.81244C5.77972 1.54321 5.78228 1.34516 5.83673 1.2972C5.89117 1.24924 5.85226 1.26742 5.85226 1.26742L5.85217 1.26725Z" fill="#A88F33"/>
<path fill-rule="evenodd" clip-rule="evenodd" d="M5.85173 3.29968C5.85173 3.29968 6.00534 2.92165 6.07566 2.58638C6.08863 2.51905 6.11448 2.45181 6.12097 2.39745C6.15331 2.08026 6.16236 1.94953 6.12097 1.77605C6.08863 1.64805 5.96438 1.53268 5.89961 1.44325C5.8362 1.34998 5.80642 1.31525 5.81939 1.29562C5.83236 1.276 5.8828 1.24391 5.93195 1.24775C5.9842 1.24927 6.03559 1.2614 6.08301 1.28341C6.13042 1.30541 6.17286 1.33683 6.20776 1.37575C6.30743 1.49095 6.38637 1.88195 6.38637 1.88195L6.4694 2.39787L6.68043 3.04769L5.8519 3.30019L5.85173 3.29968Z" fill="#C99E3D"/>
<path fill-rule="evenodd" clip-rule="evenodd" d="M7.295 2.90624C7.295 2.90624 7.2665 2.91912 7.21478 2.90624C7.21699 2.92737 7.21332 2.9487 7.20418 2.96788C7.19504 2.98706 7.18079 3.00335 7.16299 3.01495C7.10863 2.99294 6.59979 3.03697 6.59979 3.03697C6.59979 3.03697 6.3629 2.9955 6.28909 2.68224C6.23738 2.47377 6.32791 2.18645 6.29813 1.99744C6.25282 1.71908 6.18942 1.66464 6.18293 1.57802C6.17645 1.49141 6.16996 1.46931 6.16996 1.41495C6.14146 1.40847 6.12465 1.39942 6.09623 1.39942C6.08975 1.37382 6.10263 1.35146 6.07422 1.30615C6.08975 1.31264 6.1959 1.32561 6.32015 1.44337C6.42255 1.5392 6.42255 1.5741 6.43799 1.59356C6.45737 1.61293 6.61404 1.74716 6.68137 1.88096C6.74869 2.01476 6.87942 2.44143 6.90921 2.51132C6.91825 2.53982 6.93771 2.56832 6.98601 2.633C7.0611 2.72627 7.17109 2.88047 7.29534 2.90607L7.295 2.90624Z" fill="#B58634"/>
<path fill-rule="evenodd" clip-rule="evenodd" d="M6.45703 1.59998C6.53545 1.72665 6.6059 1.85809 6.66798 1.99353C6.74435 2.16565 6.78966 2.30679 6.88549 2.42199C6.83369 2.27189 6.74179 1.97672 6.68743 1.87185C6.62659 1.76091 6.50234 1.64145 6.45703 1.60006V1.59998Z" fill="#A88F33"/>
<path fill-rule="evenodd" clip-rule="evenodd" d="M5.57663 3.72823C5.57663 3.72823 5.44591 3.76058 5.20254 3.88875C5.12225 3.93013 5.04596 3.96503 4.97215 3.99746C4.78041 4.08416 4.57477 4.16429 4.41161 4.20849C4.42458 4.22402 4.43098 4.23042 4.43098 4.23042C4.43098 4.23042 4.43098 4.29391 4.46597 4.33009C4.4466 4.34955 4.18762 4.52559 4.26408 5.11456C4.31579 5.09519 4.37663 5.06925 4.38567 5.06925C4.40129 5.07189 4.40513 5.11456 4.4245 5.11456C4.44387 5.11456 4.50736 5.08896 4.57468 5.00192C4.57212 5.03691 4.5333 5.38899 4.74167 5.62588C4.7805 5.58057 4.87888 5.43038 4.87888 5.43038L4.88144 5.38251C4.88144 5.38251 4.89049 5.21551 4.94493 5.06276C4.99937 4.91002 5.10544 4.79738 5.10544 4.79738L5.65932 4.00642L5.57646 3.72815L5.57663 3.72823Z" fill="#E6C367"/>
<path fill-rule="evenodd" clip-rule="evenodd" d="M5.05855 4.88965C5.03319 4.90757 5.00525 4.92152 4.97569 4.93103C4.96665 4.89869 4.95368 4.78733 5.03005 4.67861C5.1194 4.5478 5.31481 4.37824 5.36917 4.24341C5.40415 4.15662 5.38862 3.93919 5.69932 3.66083C6.01002 3.38247 6.13162 3.28672 6.13162 3.28672L6.63389 3.0343L7.25136 3.27768L6.94459 4.48004L6.70643 5.04325L5.75923 4.86464L5.05847 4.88965H5.05855Z" fill="#DCBA5A"/>
<path fill-rule="evenodd" clip-rule="evenodd" d="M5.41992 4.56322L5.53777 4.41567V4.3108C5.53777 4.3108 5.6685 4.27581 5.80956 4.1321C5.95062 3.9884 6.14612 3.71268 6.31832 3.72949C6.49053 3.74895 6.50734 4.1036 6.51382 4.20336C6.52031 4.30312 6.54233 4.52951 6.57723 4.65128C6.61605 4.77297 6.15781 5.23378 6.15781 5.23378L5.84659 5.47067L5.41992 4.56322Z" fill="#E9CE77"/>
<path fill-rule="evenodd" clip-rule="evenodd" d="M5.78516 5.79161C5.78516 5.79161 5.88098 5.64142 5.81076 5.60908C5.85214 5.51589 5.92851 5.4175 5.92851 5.4175C5.92851 5.4175 5.98287 5.28293 6.1589 5.11722C6.33494 4.9515 6.44373 4.84142 6.47223 4.73014C6.4898 4.65762 6.49936 4.58339 6.50073 4.50879C6.51976 4.52434 6.54012 4.53819 6.56157 4.55018C6.59007 4.56315 6.72464 4.67442 6.70527 4.89842C6.6859 5.12242 6.60287 5.21561 6.60287 5.21561C6.60287 5.21561 6.52266 5.29582 6.46575 5.33729C6.40482 5.37868 6.38289 5.42655 6.28058 5.43047C6.2911 5.42211 6.30292 5.41554 6.31557 5.41102C6.31557 5.41102 6.20942 5.39813 6.15242 5.44985C6.09542 5.50156 5.97425 5.66087 5.91341 5.70883C5.85257 5.74766 5.78541 5.79169 5.78541 5.79169L5.78516 5.79161Z" fill="#CDAE50"/>
<path fill-rule="evenodd" clip-rule="evenodd" d="M10.0893 3.27376C9.93639 3.21802 9.77567 3.18658 9.613 3.18058C9.34113 3.17153 8.94373 3.18706 8.5541 3.18962C8.13468 3.19218 7.7541 3.04592 7.22597 3.02006C7.13927 2.96827 6.91877 2.7417 6.23047 3.22197C6.27186 3.21941 6.73018 3.11581 6.88933 3.31524C7.04984 3.5133 7.00453 3.84986 6.9826 3.93007C6.94112 4.10876 6.80647 4.36895 6.7522 4.55148C6.69792 4.73401 6.71073 4.82992 6.6719 4.95792C6.63307 5.08593 6.54765 5.1495 6.59808 5.29704C6.66541 5.25566 6.70048 5.25566 6.81295 5.00324C6.92542 4.75082 6.9023 4.57085 7.08875 4.35725C7.27128 4.14238 7.57515 3.84849 7.69069 3.77468C7.80623 3.70086 8.72365 3.22453 9.68425 3.67893C9.91593 3.65436 10.0894 3.27368 10.0894 3.27368L10.0893 3.27376Z" fill="#D2A83E"/>
<path fill-rule="evenodd" clip-rule="evenodd" d="M6.61642 3.09762C6.61547 3.08789 6.61332 3.07832 6.61002 3.06911C6.60104 3.05018 6.58924 3.03272 6.57503 3.01732C6.57503 3.01732 6.34718 2.97593 6.23198 2.98881C6.02999 3.01083 5.84745 3.26069 5.76203 3.38886C5.67661 3.51704 5.57045 3.71501 5.45525 3.81733C5.45651 3.80736 5.45421 3.79727 5.44876 3.78883C5.44876 3.78883 5.45525 3.79787 5.44236 3.81085C5.42947 3.82382 5.42939 3.83022 5.43588 3.83645L5.45533 3.85582C5.46173 3.85582 5.64043 3.77552 5.88381 3.54861C6.14272 3.31172 6.34078 3.1902 6.44438 3.14856C6.49963 3.12508 6.55738 3.10799 6.61651 3.09762H6.61642Z" fill="#C29637"/>
<path fill-rule="evenodd" clip-rule="evenodd" d="M11.0361 2.12439C11.0361 2.12439 10.9946 2.1761 10.9428 2.23311C10.8276 2.35479 10.6774 2.49192 10.5493 2.63307C10.4277 2.76772 10.2905 2.8726 10.1363 3.04864C9.98223 3.22469 9.80355 3.4201 9.75832 3.4771C9.71693 3.53411 9.68459 3.62729 9.68459 3.67517C9.66258 3.65963 9.63672 3.64282 9.63672 3.64282C9.6476 3.66315 9.66062 3.68226 9.67555 3.69983C9.70789 3.74514 9.75832 3.80223 9.78426 3.83704C9.81609 3.88137 9.83893 3.93149 9.8515 3.98459C9.86703 3.98715 9.9667 4.0066 10.091 3.80206C10.2154 3.59751 10.3784 3.37359 10.3784 3.37359L10.6373 2.98908L10.8004 2.66293L11.0052 2.29787L11.0364 2.12439H11.0361Z" fill="#AC8132"/>
<path fill-rule="evenodd" clip-rule="evenodd" d="M11.3012 1.86279C11.3012 1.86279 11.1445 1.9908 11.0837 2.0676C11.0229 2.1444 10.8789 2.34597 10.8789 2.34597L10.9307 2.33948L11.1935 2.10651L11.2959 1.92398L11.3011 1.86313L11.3012 1.86279Z" fill="#A88F33"/>
<path fill-rule="evenodd" clip-rule="evenodd" d="M11.2546 12.1502C11.2546 12.1502 11.252 12.0441 11.3116 11.9807C11.3724 11.9172 11.5265 11.824 11.6766 11.4745C11.8268 11.1249 11.8436 11.046 11.8436 11.046C11.8436 11.046 11.5743 11.2764 11.4084 11.3308C11.4472 11.2505 11.4692 11.1935 11.4887 11.1521C11.4666 11.1327 11.3735 11.1107 11.3644 11.1004C11.4161 11.0486 11.4446 10.9217 11.5495 10.8375C11.6842 10.7351 11.9301 10.5592 12.1212 10.4023C12.3124 10.2455 12.6882 9.88069 12.7361 9.77454C12.7646 9.81592 12.771 9.84178 12.771 9.84178C12.771 9.84178 12.5821 10.0878 12.4837 10.2444C12.3969 10.379 12.4034 10.4554 12.4034 10.4554L12.5821 10.3786C12.5821 10.3786 12.6338 10.5702 12.3996 10.8615C12.502 10.8227 12.5433 10.846 12.6015 10.8136C12.5057 10.8745 12.3737 10.9573 12.2494 11.1851C12.1277 11.4129 11.962 11.6783 11.6825 11.844C11.4106 12.0187 11.2539 12.1494 11.2539 12.1494L11.2546 12.1502Z" fill="#A67A2E"/>
<path fill-rule="evenodd" clip-rule="evenodd" d="M10.5512 3.40843C10.5512 3.40843 10.445 3.62969 10.4295 3.80189C10.4269 3.84336 10.4165 3.8757 10.4165 3.92358C10.414 4.0776 10.4256 4.2498 10.3909 4.33001C10.378 4.29767 10.3715 4.27566 10.3585 4.26277C10.3391 4.31713 10.3042 4.48668 10.2757 4.55008C10.2628 4.5087 10.2343 4.365 10.2369 4.19544C10.2396 4.02589 10.2433 3.99346 10.2433 3.95856C10.2369 4.01027 10.2019 4.08025 10.189 4.12163C10.1696 4.08673 10.1476 4.04142 10.1216 4.00387C10.1061 4.02947 10.0867 4.06727 10.0699 4.08673C10.0673 4.0712 10.0609 4.02973 10.057 3.97153C10.0544 3.90421 10.0505 3.81751 10.0544 3.79933C10.0608 3.76443 10.1152 3.62722 10.2304 3.50161C10.3676 3.35142 10.5088 3.06283 10.5502 2.97349C10.5915 2.88415 10.7676 2.5127 10.7676 2.5127H10.9022L10.7067 2.95796C10.7067 2.95796 10.589 3.20133 10.5281 3.29075C10.4673 3.38018 10.3391 3.63643 10.2821 3.7361C10.3235 3.68174 10.3585 3.65324 10.4 3.60145C10.4401 3.56518 10.5514 3.4086 10.5514 3.4086L10.5512 3.40843Z" fill="#8C6228"/>
<path fill-rule="evenodd" clip-rule="evenodd" d="M11.3047 1.84595C11.2828 1.91364 11.248 1.9765 11.2024 2.03112C11.1221 2.12695 10.9499 2.25504 10.8658 2.35726C10.789 2.45693 10.6354 2.72881 10.7052 3.05111C10.7308 2.98122 10.779 2.84273 10.9072 2.68605C11.0354 2.52938 11.1726 2.3495 11.24 2.20972C11.3072 2.06858 11.3163 1.95731 11.3163 1.95731L11.3419 1.92497L11.3263 1.85115L11.3043 1.84595H11.3047Z" fill="#CBA94C"/>
<path fill-rule="evenodd" clip-rule="evenodd" d="M13.9257 10.4323C13.9257 10.4323 13.8739 10.2913 13.8584 10.1631C13.8429 10.0349 13.884 10.0095 13.8364 9.86281C13.8079 9.77346 13.7562 9.78601 13.7432 9.77346C13.7302 9.76092 13.7212 9.62592 13.7238 9.55211C13.7263 9.47829 13.7212 9.38255 13.7082 9.34108C13.6889 9.32555 13.6759 9.31258 13.6474 9.21683C13.615 9.121 13.5995 9.07313 13.584 9.04471C13.5684 9.0163 13.5231 8.99036 13.5231 8.96186C13.5231 8.90485 13.5748 8.87516 13.5748 8.85946C13.5723 8.82711 13.5335 8.85306 13.5231 8.84393C13.5102 8.82839 13.5555 8.73521 13.5387 8.72224C13.5322 8.71584 13.4869 8.7702 13.4752 8.75467C13.4622 8.73905 13.4467 8.58502 13.4234 8.48279C13.4014 8.38313 13.3781 8.31068 13.3755 8.2809C13.3729 8.25239 13.1968 7.75012 13.1542 7.62844C13.1198 7.52561 13.0908 7.42105 13.0675 7.31518C13.0545 7.25434 13.0454 7.13001 13.0389 7.14298C13.0325 7.15595 13.0364 7.21935 13.026 7.21679C13.0169 7.21414 12.9846 6.99287 12.9743 6.95789C12.9652 6.9229 12.9108 6.80429 12.8975 6.71844C12.8845 6.63166 12.8561 6.4051 12.8366 6.25107C12.8172 6.09704 12.8081 6.03364 12.8081 5.99507C12.8113 5.90073 12.8061 5.8063 12.7926 5.71287C12.767 5.54972 12.7158 5.35166 12.6709 5.23654C12.5842 5.01903 12.3537 4.4624 12.3125 4.3239C12.3125 4.28892 12.3578 4.30837 12.3578 4.30837C12.3578 4.30837 12.4704 4.59057 12.5532 4.808C12.6335 5.02551 12.7099 5.21709 12.7294 5.23654C12.7449 5.25591 12.8666 5.4695 12.9209 5.81903C12.9753 6.16855 12.9947 6.49086 13.0271 6.70573C13.0426 6.80813 13.0556 6.91676 13.0879 7.02547C13.1228 7.14332 13.1772 7.265 13.2484 7.45137C13.3093 7.60804 13.3546 7.73877 13.3792 7.85141C13.4077 7.99511 13.4077 8.10383 13.4245 8.17508C13.4401 8.23593 13.4633 8.35753 13.5178 8.53348C13.5722 8.70944 13.6523 8.93609 13.7067 9.07714C13.8129 9.35934 13.8603 9.59494 13.8763 9.72055C13.8905 9.85001 13.9385 10.2979 13.9255 10.4325L13.9257 10.4323Z" fill="#A88F33"/>
<path fill-rule="evenodd" clip-rule="evenodd" d="M11.3116 1.83043L11.3051 1.84596C11.3051 1.84596 11.3245 1.85244 11.3206 1.87838C11.3209 1.91388 11.3187 1.94935 11.3142 1.98454C11.3078 2.02985 11.2948 2.06475 11.2922 2.09326C11.2922 2.1541 11.3013 2.22399 11.2154 2.39747C11.1898 2.44534 11.174 2.48673 11.1611 2.51523C11.1287 2.58512 11.1222 2.59553 11.0938 2.62787C11.1391 2.60227 11.3022 2.49987 11.385 2.51523C11.3281 2.54757 11.2413 2.61106 11.1869 2.69392C11.1999 2.69648 11.2543 2.70689 11.3405 2.69392C11.4842 2.67191 11.6447 2.62011 11.7858 2.63043C11.9399 2.63948 11.879 2.44534 11.879 2.44534L11.7012 2.05443L11.3647 1.81763L11.3116 1.83051V1.83043Z" fill="#BE9C44"/>
<path fill-rule="evenodd" clip-rule="evenodd" d="M12.1889 4.75862C12.1889 4.75862 12.0387 4.60843 11.9778 4.09302C11.917 3.57521 11.93 2.81302 11.93 2.81302L11.8083 2.51529C11.8083 2.51529 11.7827 2.31723 11.7189 2.2435C11.6552 2.16977 11.53 2.04544 11.473 1.9846C11.416 1.92376 11.3513 1.8409 11.3125 1.82793C11.3319 1.79559 11.4187 1.61306 11.7513 1.6105C12.0839 1.60794 12.1865 1.79303 12.2212 1.86036C12.2559 1.92768 12.4128 2.21876 12.471 2.77342C12.5253 3.32741 12.528 3.36888 12.5189 3.56045C12.5125 3.66661 12.4775 3.91254 12.4165 4.17528C12.3609 4.398 12.3001 4.64657 12.1887 4.75913L12.1889 4.75862Z" fill="#A17C34"/>
<path fill-rule="evenodd" clip-rule="evenodd" d="M11.7174 5.19998C11.7674 5.20359 11.8174 5.19231 11.8611 5.16756C11.9089 5.165 12.0824 5.18701 12.2157 5.01746C12.2248 5.0562 12.2482 5.16116 12.1872 5.25434C12.2197 5.22191 12.2675 5.20903 12.274 5.19998C12.2766 5.24785 12.3219 5.39539 12.1303 5.75396C12.182 5.69704 12.2429 5.6996 12.2972 5.69312C12.2999 5.76044 12.3361 5.98692 12.2403 6.10868C12.1769 6.19154 12.0733 6.1656 12.0733 6.1656C12.0748 6.14751 12.0748 6.12933 12.0733 6.11124C12.0708 6.07626 12.0578 6.04136 12.0669 6.01806C12.0168 5.9952 11.9713 5.96362 11.9322 5.92479C11.8196 5.81864 11.6733 5.63748 11.663 5.50283C11.65 5.35264 11.7847 5.3203 11.7847 5.3203C11.7734 5.31021 11.7638 5.2984 11.7562 5.28531C11.7497 5.26338 11.7432 5.2284 11.7174 5.19998Z" fill="#8C6228"/>
<path fill-rule="evenodd" clip-rule="evenodd" d="M10.7191 3.57143C10.7191 3.57143 10.7126 3.56238 10.6777 3.60377C10.6842 3.56238 10.6907 3.52347 10.6933 3.48592C10.7098 3.45116 10.7312 3.41892 10.7568 3.39018C10.7373 3.42892 10.7243 3.46391 10.7243 3.46391C10.7243 3.46391 10.7723 3.37456 10.8422 3.32021C10.89 3.28138 10.9509 3.26329 10.9767 3.22702C11.0052 3.1882 10.9987 3.18171 11.0052 3.17522C11.0052 3.17522 11.0687 3.13384 11.1658 3.01207C11.1787 2.99654 11.1982 2.97973 11.2111 2.9642C11.2331 2.95515 11.2849 2.93185 11.3457 2.90071C11.4092 2.86581 11.4803 2.81793 11.5244 2.79831C11.6111 2.75948 11.7031 2.76341 11.7457 2.70248C11.7781 2.69343 11.813 2.59632 11.8066 2.51355C11.8544 2.53292 12.1004 2.68567 12.1846 3.01966C12.2454 3.25655 12.1366 3.6216 12.0913 3.79773C12.046 3.97386 12.0396 4.1045 11.9761 4.18472C11.8958 4.29096 11.637 4.44072 11.5735 4.51487C11.5192 4.57572 11.3561 4.72974 11.3625 4.84102C11.369 4.92388 11.4712 4.96902 11.4933 4.98472C11.5154 5.00042 11.5152 5.0197 11.5567 5.01032C11.5982 5.00093 11.6136 4.98182 11.6305 4.98182C11.6499 4.98438 11.6499 4.9883 11.6589 4.9883C11.6655 4.98811 11.672 4.98722 11.6784 4.98566C11.6784 4.98566 11.6719 5.1035 11.3962 5.13926C11.3768 5.1419 11.3574 5.1483 11.3327 5.15223C11.3652 5.1367 11.3845 5.1367 11.4195 5.08882C11.3807 5.08234 11.2693 5.07585 11.2408 5.06681C11.2499 5.05128 11.2797 5.00981 11.3042 4.99044C11.3262 4.97106 11.3017 4.96484 11.2823 4.9749C11.2489 4.99759 11.217 5.02221 11.1865 5.04863C11.1541 5.07713 11.1256 5.11596 11.0738 5.15103C11.0583 5.09924 11.0609 5.00085 11.1218 4.92968C11.1062 4.93224 11.0764 4.97755 11.048 4.9685C11.0428 4.92129 11.0459 4.87354 11.057 4.82736C11.0726 4.76908 11.1567 4.66685 11.1567 4.66685L11.5631 3.94058L11.6498 3.39044L10.7191 3.57126V3.57143Z" fill="#92723A"/>
<path fill-rule="evenodd" clip-rule="evenodd" d="M10.6973 3.60256C10.6973 3.60256 10.6753 3.61809 10.7193 3.64788C10.7128 3.65692 10.6973 3.68926 10.6778 3.71128C10.6559 3.73688 10.6325 3.75275 10.6235 3.77477C10.6041 3.82008 10.5886 3.85114 10.5886 3.8706C10.5886 3.89005 10.5821 4.0143 10.5277 4.09451C10.5083 4.12301 10.4863 4.17088 10.4707 4.20323C10.4384 4.26014 10.4099 4.30563 10.4034 4.33123C10.3905 4.37654 10.3815 4.50078 10.3815 4.50078C10.3815 4.50078 10.41 4.4658 10.4203 4.45291C10.4047 4.48525 10.3879 4.52015 10.3633 4.54609C10.3788 4.53312 10.4241 4.50078 10.5005 4.43345C10.6067 4.3442 10.7724 4.19401 10.9744 4.07505C10.9135 4.09707 10.8618 4.09707 10.8204 4.10356C10.8527 4.07121 11.144 3.72945 11.2967 3.69711C11.306 3.68535 11.3106 3.67059 11.3097 3.65564L11.1789 3.64276L10.9135 3.69967L10.8747 3.49487L10.6973 3.60231V3.60256Z" fill="#B18E3E"/>
<path fill-rule="evenodd" clip-rule="evenodd" d="M11.1186 4.76766C11.1186 4.76766 11.0836 4.80256 11.0513 4.88934C11.0264 4.86334 11.005 4.83416 10.9878 4.80256C10.9399 4.72234 10.8662 4.62003 10.694 4.67831C10.6914 4.62395 10.6875 4.59545 10.694 4.55663C10.7225 4.55023 10.8092 4.48034 10.8959 4.37802C10.9568 4.30814 11.0137 4.22784 11.0526 4.12561C11.0782 4.10615 11.1225 4.07381 11.1806 4.03626C11.2634 3.97935 11.3631 3.90161 11.3786 3.81491C11.3398 3.83044 11.2569 3.86927 11.1326 3.86287C11.1806 3.84085 11.2543 3.81755 11.2453 3.72173C11.2647 3.70875 11.2802 3.69971 11.2802 3.69971C11.2657 3.69484 11.2503 3.69265 11.2349 3.69322C11.2323 3.68418 11.2284 3.67129 11.2064 3.67769C11.1844 3.68409 11.1808 3.68418 11.1779 3.69322C11.1689 3.69587 11.1391 3.69322 11.1171 3.70884C11.0951 3.72446 11.0342 3.77608 11.0109 3.78513C11.02 3.7696 11.0329 3.74639 11.0329 3.74639C11.0329 3.74639 10.9695 3.75279 10.9241 3.77199C10.8413 3.80049 10.7455 3.85229 10.6484 3.90272C10.6575 3.88719 10.6614 3.87712 10.6678 3.87422C10.6742 3.87131 10.6898 3.86782 10.6898 3.86517C10.6898 3.86253 10.6834 3.83957 10.6873 3.83027C10.7163 3.76876 10.7506 3.70987 10.7897 3.65423C10.835 3.5933 10.844 3.5066 10.844 3.5066L11.0421 3.40693L11.5987 3.27893L11.9599 3.30095L11.9146 3.5508L11.7013 3.98703L11.5188 4.38442L11.3103 4.62788L11.1187 4.76766H11.1186Z" fill="#543E26"/>
<path fill-rule="evenodd" clip-rule="evenodd" d="M12.0214 3.68631C12.0214 3.68631 11.8039 3.95554 11.743 3.99701C11.7819 3.91415 12.0214 3.42093 12.1081 3.28371C12.0887 3.26818 12.0628 3.26818 12.1236 3.02771C12.0719 3.14931 12.0537 3.2128 12.0111 3.24514C11.9684 3.27748 11.9631 3.26716 11.9343 3.26716C11.9397 3.2573 11.9419 3.246 11.9407 3.23481C11.9407 3.23481 11.7581 3.2128 11.6335 3.2128C11.5088 3.2128 11.262 3.28013 11.1247 3.33448C11.016 3.3798 10.9552 3.3798 10.9164 3.40821C10.8775 3.44055 10.8555 3.47554 10.8361 3.48458C10.8205 3.49363 10.7468 3.51693 10.7299 3.5415C10.7144 3.5671 10.6885 3.59586 10.6885 3.60234C10.6885 3.60883 10.6821 3.61796 10.7015 3.61139C10.7079 3.60883 10.7559 3.58289 10.8102 3.55055C10.8839 3.50916 10.9733 3.46129 11.038 3.43279C11.2231 3.35897 11.2814 3.37194 11.3642 3.35641C11.4509 3.34088 11.5752 3.30462 11.658 3.30462C11.7408 3.30206 11.8975 3.30462 11.9338 3.3111C11.9182 3.32407 11.9053 3.3396 11.9117 3.39396C11.9117 3.40949 11.8988 3.4263 11.8861 3.46385C11.8474 3.57 11.7736 3.74605 11.7325 3.83539C11.6756 3.95699 11.611 4.0593 11.579 4.12271C11.547 4.18611 11.4766 4.35311 11.4068 4.44245C11.3371 4.5318 11.3007 4.58615 11.2788 4.60561C11.257 4.62506 11.1002 4.74018 11.1119 4.78165C11.1404 4.77261 11.3203 4.70485 11.451 4.55774C11.5816 4.41062 11.6076 4.32085 11.7098 4.24055C11.8121 4.16025 11.8924 4.02568 11.9402 3.91441C11.9803 3.81081 11.9713 3.77847 12.0217 3.68657L12.0214 3.68631Z" fill="#806031"/>
<path fill-rule="evenodd" clip-rule="evenodd" d="M7.3343 5.69587C7.3343 5.69587 7.30579 5.81363 7.24102 5.87191C7.17762 5.92891 7.06497 5.97806 7.05209 6.07389C7.03656 6.16964 7.16473 6.21759 7.16473 6.21759C7.16473 6.21759 7.09476 6.3328 7.09476 6.41949C7.09476 6.50884 7.0922 6.52565 7.10124 6.61107C7.09097 6.61767 7.08224 6.6264 7.07564 6.63667C7.07564 6.63667 7.08204 6.71953 7.14553 6.77124C7.20902 6.82295 7.2633 6.8541 7.29564 6.84113C7.30058 6.85168 7.30491 6.8625 7.30861 6.87355C7.30861 6.87355 7.35657 6.75187 7.38891 6.64571C7.42126 6.537 7.44976 6.55244 7.46264 6.40618C7.47553 6.25992 7.61625 6.00878 7.61625 6.00878L7.71226 5.79417L7.55566 5.67249L7.3343 5.69578V5.69587Z" fill="#B6903C"/>
<path fill-rule="evenodd" clip-rule="evenodd" d="M7.62453 5.90686C7.59224 5.94001 7.56244 5.97549 7.53536 6.01302C7.49397 6.07002 7.46163 6.12173 7.40078 6.14383C7.33994 6.16593 7.30111 6.16576 7.30495 6.22669C7.30879 6.28762 7.36579 6.31339 7.39814 6.34445C7.43312 6.37679 7.46163 6.43115 7.4461 6.49208C7.46547 6.48303 7.50045 6.47262 7.5328 6.40273C7.56514 6.33284 7.79137 5.90695 7.79137 5.90695H7.62453V5.90686Z" fill="#685026"/>
<path fill-rule="evenodd" clip-rule="evenodd" d="M8.51657 4.92425C8.51657 4.92425 8.53594 4.87254 8.51657 4.835C8.49712 4.79617 8.37936 4.7832 8.32107 4.73917C8.26023 4.69386 8.18642 4.66237 8.12558 4.68225C8.13462 4.66024 8.17089 4.61228 8.14111 4.60195C8.11261 4.59291 8.00654 4.64078 7.97804 4.6628C7.94954 4.68481 7.88477 4.71067 7.87189 4.72628C7.859 4.7419 7.8369 4.77159 7.82393 4.75862C7.81096 4.74958 7.80456 4.72628 7.78254 4.73917C7.76053 4.75205 7.65454 4.83884 7.635 4.88935C7.61546 4.93987 7.57152 5.05251 7.43951 5.18059C7.3075 5.30868 7.25049 5.39162 7.28932 5.43949C7.32815 5.48736 7.34632 5.45246 7.35281 5.49385C7.3578 5.53448 7.3556 5.57566 7.34632 5.61553C7.33079 5.68286 7.30494 5.74626 7.33984 5.75923C7.42918 5.78773 7.51596 5.73363 7.53533 5.75019C7.57416 5.78509 7.51332 5.9107 7.60522 5.93527C7.69849 5.96087 7.79039 5.91326 7.79039 5.91326L8.1295 5.73073L8.45573 5.55862L8.62264 5.22846L8.53313 4.95276L8.51606 4.92425H8.51657Z" fill="#D4B968"/>
<path fill-rule="evenodd" clip-rule="evenodd" d="M8.19767 5.71264C8.19767 5.71264 8.14067 5.62594 8.21064 5.54948C8.28061 5.47302 8.38019 5.44077 8.41902 5.39289C8.41162 5.38378 8.40171 5.37704 8.39051 5.37352C8.41629 5.32741 8.45561 5.29032 8.50315 5.26729C8.48378 5.24791 8.45784 5.23238 8.42943 5.23238C8.36594 5.23238 8.32703 5.27121 8.26883 5.27121C8.21192 5.27121 8.20543 5.24271 8.20543 5.24271C8.20543 5.24271 8.30126 5.23366 8.29213 5.19091C8.28308 5.1456 8.26653 5.1456 8.26653 5.1456C8.26653 5.1456 8.45161 5.0688 8.48395 5.02784C8.51629 4.98688 8.51245 4.9385 8.51894 4.91913C8.54087 4.91913 8.66903 4.8518 8.72083 4.8803C8.77262 4.9088 8.73636 4.98646 8.73636 4.98646C8.73636 4.98646 8.89311 4.86861 8.97298 4.75307C9.04286 4.75956 9.07537 4.7052 9.12657 4.7052C9.19006 4.7052 9.28972 4.7919 9.30909 4.97698C9.32206 5.08314 9.34143 5.14398 9.32206 5.33171C9.31302 5.43786 9.31558 5.66451 9.34766 5.77698C9.36959 5.86632 9.42139 5.85727 9.42139 5.85727C9.41344 5.8845 9.39769 5.9088 9.37608 5.92716C9.34109 5.9595 9.33725 6.04501 9.34109 6.07735C9.34625 6.10099 9.35275 6.12432 9.36055 6.14723C9.36055 6.14723 9.31916 6.19511 9.30875 6.22753C9.29971 6.25987 9.25704 6.28189 9.2259 6.28189C9.19475 6.28189 9.21037 6.27924 9.16898 6.28189C9.1276 6.28453 9.11463 6.29093 9.08869 6.28189C9.06275 6.27284 9.04338 6.26243 9.05379 6.17949C9.06283 6.09663 8.73405 5.90378 8.73405 5.90378L8.19647 5.71221L8.19767 5.71264Z" fill="#CCA849"/>
<path fill-rule="evenodd" clip-rule="evenodd" d="M7.5805 6.53071C7.5805 6.53071 7.69827 6.68738 8.18245 6.68738C8.41285 6.68738 8.49315 6.66536 8.54086 6.65239C8.59265 6.63942 8.78679 6.56313 8.98229 6.33265C9.15833 6.12426 9.11951 6.03885 9.11951 6.03885L9.01711 6.02332L8.6843 6.06863L7.69955 6.48804L7.58008 6.53071H7.5805Z" fill="#585136"/>
<path fill-rule="evenodd" clip-rule="evenodd" d="M7.9409 6.56955C7.9409 6.56955 7.52148 6.66281 7.52148 6.39744C7.52148 6.13855 7.78039 5.86669 7.84515 5.81883C7.91248 5.77087 8.07299 5.71643 8.07299 5.71643H8.46007L8.53379 5.91192L8.50145 6.33387L7.9409 6.56946V6.56955Z" fill="#252211"/>
<path fill-rule="evenodd" clip-rule="evenodd" d="M8.32891 5.79552C8.32891 5.79552 8.24869 5.72171 8.06616 5.82113C7.88363 5.92054 7.736 6.12833 7.72696 6.31701C7.71791 6.48393 7.86418 6.60826 8.09202 6.61475C8.26158 6.62115 8.36389 6.60178 8.41569 6.58915C8.40272 6.57361 8.33539 6.48947 8.33539 6.48947L8.32899 5.79561L8.32891 5.79552Z" fill="#C3B378"/>
<path fill-rule="evenodd" clip-rule="evenodd" d="M8.2485 5.83689C8.2485 5.83689 8.22913 5.82136 8.1717 5.85242C8.12383 5.87802 8.05395 5.94568 7.99959 5.99355C7.9646 6.02205 7.94259 6.03494 7.92279 6.05695C7.84249 6.15278 7.77517 6.30944 7.81408 6.38709C7.85299 6.46474 7.98107 6.55408 8.30729 6.49324L8.24756 5.83698L8.2485 5.83689Z" fill="#E6D89C"/>
<path fill-rule="evenodd" clip-rule="evenodd" d="M8.14344 5.99746C8.14344 5.99746 8.09164 6.07776 8.09164 6.20593C8.09164 6.33667 8.16545 6.54506 8.43731 6.56059C8.64568 6.57356 8.78545 6.26029 8.93691 6.1386C9.05211 6.04542 9.12199 6.04277 9.12199 6.04277C9.12199 6.04277 9.00424 5.91477 8.68971 5.74896C8.37903 5.58196 8.0308 5.55994 7.8418 5.81629C7.93114 5.80981 8.21981 5.73599 8.21981 5.73599L8.36094 5.7813L8.14344 5.99754V5.99746Z" fill="#252211"/>
<path fill-rule="evenodd" clip-rule="evenodd" d="M8.54959 6.16688C8.54055 6.14751 8.53407 6.12157 8.5716 6.11517C8.60914 6.10877 8.62594 6.11253 8.63891 6.14077C8.65188 6.16902 8.6645 6.19257 8.64531 6.20426C8.62594 6.21458 8.57544 6.20426 8.54951 6.16671L8.54959 6.16688ZM8.48877 5.98436C8.48877 5.98436 8.4758 5.99341 8.48228 5.97532C8.48484 5.95339 8.50173 5.91447 8.54311 5.9236C8.58448 5.93274 8.57553 5.97796 8.5687 5.99093C8.56188 6.0039 8.52733 6.02583 8.50139 6.01653C8.49811 6.01569 8.49506 6.01408 8.49251 6.01185C8.48996 6.00961 8.48797 6.0068 8.48671 6.00365C8.48544 6.0005 8.48494 5.9971 8.48524 5.99371C8.48554 5.99033 8.48663 5.98707 8.48843 5.98419L8.48877 5.98436Z" fill="#6F674D"/>
<path fill-rule="evenodd" clip-rule="evenodd" d="M4.98438 6.06718C4.98438 6.06718 5.08678 6.14398 5.20573 6.14099C5.32349 6.13835 5.47496 6.01675 5.54484 5.93901C5.58623 5.8937 5.62164 5.84583 5.66004 5.80828C5.69247 5.77594 5.7144 5.76041 5.72993 5.73839C5.75195 5.71279 5.77524 5.66466 5.78693 5.64905C5.75843 5.67106 5.71705 5.70998 5.67429 5.73583C5.63291 5.76143 5.54356 5.80956 5.5073 5.82253C5.4724 5.8355 5.1099 6.02733 5.1099 6.02733L4.98438 6.06718Z" fill="#AC924C"/>
<path fill-rule="evenodd" clip-rule="evenodd" d="M5.14062 5.11075C5.14062 5.11075 5.19754 5.07193 5.30762 5.04727C5.41378 5.02167 5.62737 5.00195 5.62737 5.00195L5.80341 5.07875L5.8733 5.34414L5.7453 5.61994L5.58222 5.72234L5.39705 5.42461L5.14105 5.11127L5.14062 5.11075Z" fill="#9F8E57"/>
<path fill-rule="evenodd" clip-rule="evenodd" d="M4.91054 5.34753L4.84961 5.39301C4.84961 5.39301 4.86523 5.36451 4.87811 5.27781C4.891 5.19111 4.95841 4.98007 5.0568 4.85838C5.15519 4.73669 5.15263 4.74318 5.15263 4.74318C5.14358 4.74152 5.13427 4.74182 5.12534 4.74404C5.11641 4.74626 5.10806 4.75036 5.10083 4.75607C5.1138 4.72739 5.19666 4.62499 5.27952 4.57379C5.36238 4.52259 5.39472 4.50646 5.48142 4.54819C5.56812 4.58992 5.59014 4.61159 5.65363 4.60903C5.71712 4.60647 5.77139 4.53914 5.77139 4.53914C5.77139 4.53914 5.78436 4.58053 5.73649 4.67636C5.68861 4.77219 5.4996 4.96761 5.4996 4.96761L5.10604 5.23685L4.91054 5.34778V5.34753Z" fill="#EAC970"/>
<path fill-rule="evenodd" clip-rule="evenodd" d="M5.20151 5.07837C5.20151 5.07837 5.48636 5.11719 5.57305 5.03698C5.57561 5.04602 5.58603 5.04602 5.58603 5.05251C5.58533 5.0574 5.58305 5.06192 5.57954 5.06539C5.58897 5.06389 5.59849 5.06303 5.60804 5.06283C5.61944 5.06623 5.63117 5.0684 5.64303 5.06932C5.65258 5.06911 5.6621 5.06823 5.67153 5.06667C5.67063 5.07311 5.66844 5.0793 5.6651 5.08487C5.66176 5.09044 5.65733 5.09528 5.65207 5.0991C5.66504 5.0991 5.67767 5.10166 5.67767 5.11199C5.67767 5.12231 5.68023 5.15346 5.6647 5.15994C5.65184 5.1635 5.63814 5.16257 5.62588 5.1573C5.6269 5.18181 5.63356 5.20575 5.64533 5.22727C5.67093 5.27514 5.72554 5.32967 5.79893 5.31397C5.79893 5.31397 5.83767 5.40715 5.6746 5.61426C5.65267 5.64276 5.62929 5.68159 5.60087 5.71393C5.58965 5.7384 5.58106 5.764 5.57527 5.7903C5.57527 5.7903 5.85107 5.68415 5.93 5.44206C6.0103 5.19869 6.02583 4.95924 6.0103 4.73533C6.00766 4.67184 5.99733 4.62661 5.9818 4.59418C5.94297 4.51389 5.83417 4.52686 5.79023 4.57217C5.72674 4.63566 5.62059 4.79352 5.47304 4.90224C5.32286 5.01095 5.31646 5.03024 5.20117 5.07837H5.20151Z" fill="#D7BC6B"/>
<path fill-rule="evenodd" clip-rule="evenodd" d="M4.86042 5.42791C4.86042 5.42791 4.80607 5.46025 4.77756 5.58151C4.74906 5.70575 4.80316 5.85722 4.83448 5.90509C4.8658 5.95296 4.93689 6.08378 5.08434 6.09026C5.12084 6.09007 5.15694 6.08259 5.1905 6.06825C5.24198 6.04464 5.29026 6.01463 5.33421 5.9789C5.3977 5.93103 5.44941 5.88965 5.44292 5.88572C5.42739 5.87923 5.052 5.56854 5.052 5.56854L4.91086 5.41101L4.86034 5.42808L4.86042 5.42791Z" fill="#585136"/>
<path fill-rule="evenodd" clip-rule="evenodd" d="M5.21402 5.94311C5.21402 5.94311 5.2904 5.93671 5.33571 5.90821C5.38103 5.87971 5.07031 5.57166 5.07031 5.57166L5.09233 5.90446L5.21402 5.94311Z" fill="#453A25"/>
<path fill-rule="evenodd" clip-rule="evenodd" d="M4.88386 5.40453C4.88386 5.40453 4.84503 5.47834 4.84503 5.49779C4.83855 5.5612 4.858 5.76054 4.87353 5.82394C4.88906 5.89127 4.9732 5.9935 5.082 5.9935C5.14924 5.9935 5.24251 5.95211 5.24251 5.94178C5.24251 5.92881 5.14668 5.91618 5.12082 5.86797C5.10529 5.84237 5.09881 5.77871 5.09522 5.71437C5.09266 5.67298 5.09266 5.62767 5.1082 5.61197C5.14318 5.57314 5.14958 5.46178 5.14958 5.46178L5.27382 5.23096H5.11041L4.91492 5.35264L4.88386 5.40453Z" fill="#84754B"/>
<path fill-rule="evenodd" clip-rule="evenodd" d="M4.83594 5.4757C4.83594 5.4757 4.96393 5.30614 5.0793 5.26723C5.19467 5.22832 5.24629 5.2517 5.24629 5.2517L5.17896 5.4239L5.08314 5.53005L5.08962 5.58441C5.08962 5.58441 5.07401 5.72811 5.16983 5.82778C5.26566 5.92744 5.33683 5.9236 5.3783 5.9236C5.41977 5.9236 5.5388 5.88862 5.59964 5.74492C5.654 5.61035 5.69931 5.43772 5.5906 5.26467C5.48436 5.09247 5.29672 5.08582 5.26045 5.08582C5.22419 5.08582 4.93944 5.10007 4.83594 5.47544V5.4757Z" fill="#252211"/>
<path fill-rule="evenodd" clip-rule="evenodd" d="M8.12389 6.05163C8.07602 6.02962 8.12133 5.89505 8.1692 5.85358C8.21707 5.81211 8.27792 5.76432 8.38416 5.75775C8.4229 5.75519 8.46045 5.77977 8.45405 5.80571C8.445 5.85358 8.37768 5.92091 8.31683 5.96878C8.23269 6.03482 8.17825 6.07621 8.12389 6.05163Z" fill="#F7F7E7"/>
<path fill-rule="evenodd" clip-rule="evenodd" d="M5.53404 5.31779C5.56903 5.31523 5.61435 5.34339 5.62339 5.38128C5.63244 5.42267 5.60137 5.50553 5.53404 5.50553C5.47968 5.50553 5.45117 5.4382 5.45117 5.41883C5.45178 5.4029 5.45623 5.38736 5.46414 5.37351C5.4667 5.36959 5.47319 5.32427 5.53404 5.31779Z" fill="#F8F6DE"/>
<path fill-rule="evenodd" clip-rule="evenodd" d="M5.02928 5.34766C5.02928 5.34766 4.93993 5.38904 4.89854 5.47565C4.86897 5.5396 4.86003 5.61117 4.87294 5.68043C4.87943 5.71277 4.91177 5.79298 4.93379 5.82148C4.9558 5.84998 4.98559 5.86944 5.0076 5.86679C5.02962 5.86415 5.07484 5.80595 5.07484 5.77105C5.07484 5.73615 5.07749 5.58854 5.12016 5.50824C5.1577 5.42804 5.02953 5.34774 5.02953 5.34774L5.02928 5.34766Z" fill="#D4C38B"/>
<path fill-rule="evenodd" clip-rule="evenodd" d="M5.04184 5.34104C5.02631 5.35008 5.00046 5.36305 5.00686 5.37986C5.01334 5.39539 5.0677 5.40546 5.08716 5.44334C5.10917 5.48217 5.10917 5.52355 5.10269 5.543C5.1196 5.53497 5.13494 5.52399 5.148 5.51058C5.1765 5.47824 5.2114 5.4343 5.24119 5.4343C5.26064 5.4343 5.28001 5.44334 5.29819 5.44334C5.32669 5.44334 5.35511 5.4343 5.35903 5.40452C5.36543 5.3657 5.30467 5.33071 5.26969 5.3372C5.27617 5.3116 5.28522 5.2738 5.25672 5.24786C5.22821 5.22192 5.13896 5.26731 5.1195 5.28028C5.10004 5.29325 5.04184 5.34112 5.04184 5.34112V5.34104Z" fill="#E2D59D"/>
<path fill-rule="evenodd" clip-rule="evenodd" d="M7.1005 8.06085L7.29207 8.00427L7.34643 8.0431C7.34643 8.0431 7.38517 8.12596 7.4461 8.13628C7.42664 8.17767 7.37612 8.21308 7.37877 8.24244C7.38142 8.27179 7.40727 8.29423 7.40727 8.29423C7.40727 8.29423 7.23507 8.57899 7.57427 8.86597C7.49397 8.89831 7.39174 8.94277 7.33738 8.96837C7.37612 8.97741 7.45898 8.99397 7.49397 9.02537C7.52896 9.05677 7.52896 9.06676 7.5613 9.08621C7.59364 9.10567 7.61301 9.13153 7.60661 9.14313C7.58459 9.13016 7.51078 9.09142 7.4979 9.1276C7.48501 9.16378 7.17815 9.14962 7.17815 9.14962L6.66035 9.24929C6.66035 9.24929 6.67972 9.19749 6.62536 9.14962C6.56196 9.0927 6.48431 9.15218 6.40145 9.08877C6.29273 9.00591 6.28881 8.91009 6.25391 8.8739C6.28881 8.85189 6.36006 8.81955 6.52962 8.7971C6.52313 8.78413 6.50112 8.74531 6.51409 8.71041C6.52962 8.66509 6.5943 8.63659 6.57493 8.58241C6.60343 8.57592 6.61632 8.57592 6.68757 8.48658C6.7549 8.39723 6.79628 8.37786 6.84808 8.37138C6.89988 8.36489 6.93094 8.37138 7.02677 8.28203C7.09401 8.21863 7.07208 8.16427 7.07208 8.16427C7.07208 8.16427 7.11603 8.15002 7.10058 8.06068L7.1005 8.06085Z" fill="#CBAC5A"/>
<path fill-rule="evenodd" clip-rule="evenodd" d="M6.5335 8.08964C6.53606 8.07667 6.54647 8.07019 6.61636 8.07667C6.68625 8.08316 7.12897 8.03529 7.24937 8.02881C7.37106 8.01977 7.79953 8.02616 8.008 8.07019C8.21647 8.11422 8.42742 8.16601 8.52965 8.19186C8.63205 8.22036 8.66431 8.23059 8.66038 8.24356C8.65782 8.25653 8.63478 8.26916 8.62155 8.26558C8.60867 8.26302 8.26946 8.15944 8.16467 8.13759C8.05988 8.11575 7.6973 8.05731 7.49906 8.06081C7.31397 8.06345 7.24016 8.05825 7.08357 8.07633C6.9269 8.09579 6.66799 8.12164 6.59034 8.11132C6.51353 8.10227 6.52941 8.10227 6.53333 8.0893L6.5335 8.08964Z" fill="#D6BC6F"/>
<path fill-rule="evenodd" clip-rule="evenodd" d="M7.57609 9.10421C7.57609 9.10421 7.84147 9.2479 7.9373 9.42394C8.00719 9.55467 7.89591 9.61944 7.89591 9.61944C7.89591 9.61944 8.0461 9.61944 8.02664 9.70229C8.0176 9.754 7.76774 9.89378 7.60075 9.96759C7.43119 10.0414 7.43768 10.0376 7.35482 10.0504C7.27452 10.0634 7.05445 10.0248 7.00914 10.0893C6.96382 10.1537 6.98354 10.2201 6.99617 10.2304C7.00914 10.2395 7.11401 10.2524 7.11401 10.2524C7.11401 10.2524 7.09199 10.3133 6.87457 10.3198C6.65714 10.3262 6.6027 10.3417 6.58973 10.3651C6.57676 10.387 6.63111 10.3741 6.73087 10.3907C6.83053 10.4062 6.97031 10.4163 6.97031 10.4163C6.97031 10.4163 6.925 10.4551 6.80724 10.4861C6.67258 10.521 6.46156 10.5535 6.39815 10.5923C6.4305 10.6143 6.47845 10.6467 6.50055 10.6492C6.4462 10.6622 6.36974 10.6907 6.35685 10.701C6.37622 10.714 6.40216 10.7295 6.40216 10.7295C6.40216 10.7295 6.29337 10.8602 6.22996 10.8927C6.16656 10.9251 5.80151 11.0946 5.6759 11.0622C5.36264 10.9794 5.32382 10.6363 5.24744 10.6105C5.13224 10.5717 5.07789 10.6492 4.97557 10.5949C5.02089 10.5625 5.04555 10.5431 5.09342 10.5211C5.04162 10.4955 4.77368 10.3256 4.77368 10.3256C4.74566 10.2646 4.71456 10.205 4.68049 10.147C4.6287 10.0577 4.55249 9.93858 4.49532 9.8337C4.37108 9.60331 4.36459 9.49716 4.25195 9.36643C4.27141 9.34083 4.33865 9.34441 4.33865 9.34441L5.28243 9.6551L6.95589 9.70357L7.39109 9.08228L7.57617 9.10429L7.57609 9.10421Z" fill="#DFC677"/>
<path fill-rule="evenodd" clip-rule="evenodd" d="M5.09766 10.0517C5.10775 10.063 5.11953 10.0726 5.13256 10.0802C5.16498 10.1023 5.21286 10.1282 5.2452 10.1669C5.25817 10.1476 5.29051 10.1126 5.3476 10.1669C5.40469 10.2213 5.4756 10.1826 5.51972 10.1954C5.56503 10.2111 5.56759 10.2175 5.56759 10.2175C5.56759 10.2175 5.59319 10.1954 5.65045 10.1721C5.68543 10.1592 5.72682 10.1501 5.77213 10.1372C5.81352 10.1282 5.85883 10.1152 5.88998 10.1152C5.91848 10.1346 6.02071 10.2432 6.43107 10.0829C6.81815 9.93269 6.90741 9.91588 6.97217 9.93909C6.97866 9.92356 6.98514 9.89378 7.08481 9.89771C7.08481 9.85632 7.00196 9.71518 7.00196 9.71518L6.54499 9.55859H6.29505L5.54557 9.69581L5.13025 9.93278L5.09791 10.0522L5.09766 10.0517Z" fill="#C4A859"/>
<path fill-rule="evenodd" clip-rule="evenodd" d="M4.84766 9.78905C4.84766 9.78905 4.8567 9.85893 4.9603 9.93275C5.0627 10.0065 5.09487 10.0505 5.09487 10.0505C5.09487 10.0505 5.11432 10.0249 5.12985 9.99879C5.14538 9.97029 5.15835 9.93795 5.18421 9.92891C5.23601 9.90689 5.35377 9.94828 5.37971 9.94179C5.40173 9.93539 5.39524 9.89008 5.41854 9.89008C5.47289 9.88743 5.50779 9.92498 5.52725 9.92498C5.54671 9.92498 5.59449 9.92242 5.60098 9.9121C5.60746 9.90177 5.61002 9.79425 5.68384 9.74245C5.76414 9.68554 5.86253 9.71011 5.88864 9.72308C5.88864 9.74245 5.8912 9.79041 5.94299 9.79297C5.99479 9.79553 5.99991 9.78649 6.04539 9.80202C6.09088 9.81755 6.14506 9.79946 6.16964 9.87574C6.19166 9.86934 6.24345 9.86286 6.23048 9.78905C6.25608 9.76967 6.27844 9.7567 6.33288 9.68033C6.34585 9.66096 6.36778 9.63894 6.38468 9.61044C6.42999 9.61044 6.48435 9.6014 6.5568 9.6648C6.53478 9.68033 6.52181 9.6904 6.51541 9.70619C6.53436 9.72495 6.55166 9.7453 6.56712 9.76703C6.58658 9.79263 6.59955 9.82403 6.62413 9.83052C6.67848 9.84605 6.76783 9.82403 6.8675 9.83052C6.96333 9.837 7.04354 9.8719 7.07853 9.89392C7.0915 9.88752 7.0915 9.88487 7.12384 9.89136C7.15618 9.89785 7.18075 9.9004 7.14585 9.85902C7.16522 9.86806 7.18724 9.88752 7.2067 9.86806C7.22615 9.84861 7.2416 9.82019 7.29595 9.81371C7.35031 9.80722 7.36977 9.81627 7.39178 9.75935C7.42028 9.68946 7.3219 9.68946 7.3219 9.68946C7.3219 9.68946 7.36721 9.64799 7.41773 9.59363C7.47857 9.53671 7.54846 9.4629 7.56527 9.37228C7.59377 9.20528 7.4307 9.18335 7.4307 9.18335L6.63974 9.42672L5.67274 9.37876L4.84817 9.78913L4.84766 9.78905Z" fill="#927D49"/>
<path fill-rule="evenodd" clip-rule="evenodd" d="M4.13657 7.50428C4.13657 7.50428 4.11097 7.53662 4.09519 7.613C4.0794 7.68937 4.08614 7.68033 4.07317 7.73469C4.0602 7.78904 3.90088 8.33016 3.96062 8.5127C4.02035 8.69523 4.12377 8.76256 4.18845 8.91011C4.20142 8.94245 4.21405 8.96191 4.22079 8.99041C4.24281 9.08616 4.22344 9.15997 4.2493 9.25581C4.25834 9.28815 4.28172 9.3257 4.31662 9.36452C4.39342 9.44474 4.51861 9.52112 4.57262 9.57548C4.64891 9.65578 4.75771 9.81894 4.8962 9.83439C4.97002 9.84343 5.07489 9.81237 5.16159 9.76066C5.23839 9.7127 5.28583 9.64545 5.36639 9.60705C5.4233 9.57855 5.48414 9.56822 5.5385 9.55525C5.65114 9.53323 5.75345 9.52965 5.8143 9.54228C5.90748 9.56174 6.12755 9.62907 6.24949 9.62907C6.34478 9.62753 6.43953 9.61449 6.53169 9.59024C6.71677 9.53588 6.94069 9.44261 7.08831 9.40122C7.17501 9.37562 7.2449 9.36888 7.31615 9.35334C7.43783 9.32484 7.54006 9.28602 7.59835 9.2122C7.55952 9.16689 7.51165 9.09699 7.25266 9.09955C6.95886 9.10604 6.61967 9.26912 6.45267 9.29506C6.28567 9.321 6.21323 9.34293 6.02677 9.2756C5.84399 9.20759 5.83793 9.16262 5.83793 9.16262C5.83793 9.16262 5.64602 9.02838 5.56572 8.68619C5.48542 8.34399 5.56572 8.09463 5.77419 7.85765C5.82855 7.79681 5.81558 7.74245 5.81558 7.74245C5.81558 7.74245 5.95279 7.55736 5.91524 7.38404C5.87386 7.21183 5.60847 7.24682 5.60847 7.24682L4.13666 7.50428H4.13657Z" fill="#6E6342"/>
<path fill-rule="evenodd" clip-rule="evenodd" d="M4.35751 8.08044C4.34609 8.1019 4.34072 8.12605 4.34197 8.15032C4.34453 8.18522 4.35495 8.23052 4.45973 8.33282C4.54908 8.42207 4.52962 8.52172 4.52962 8.52172C4.52962 8.52172 4.57459 8.53077 4.69662 8.47369C4.79245 8.42838 4.82462 8.50867 4.82462 8.50867C4.85251 8.49404 4.88275 8.4844 4.91396 8.48017C4.94224 8.47757 4.96961 8.46883 4.99417 8.45457C4.99417 8.45457 5.10681 8.56976 5.2052 8.62411C5.29454 8.67206 5.34634 8.70439 5.39037 8.67206C5.43176 8.64356 5.43176 8.58529 5.42911 8.55943C5.41885 8.53557 5.40584 8.51298 5.39037 8.49212C5.36187 8.45074 5.31656 8.40279 5.31357 8.36413C5.30709 8.27489 5.3809 8.16867 5.36528 8.14281C5.34967 8.11696 5.29156 8.11048 5.14786 8.16227C4.99904 8.21141 4.35691 8.0807 4.35691 8.0807L4.35751 8.08044Z" fill="#39331F"/>
<path fill-rule="evenodd" clip-rule="evenodd" d="M4.69787 8.65899C4.69787 8.65899 4.62418 8.58911 4.65003 8.24992C4.68131 8.24947 4.71255 8.2525 4.74316 8.25897C4.74316 8.25897 4.78333 8.52178 4.69787 8.65899Z" fill="#292311"/>
<path fill-rule="evenodd" clip-rule="evenodd" d="M4.17158 7.24534C4.18187 7.23773 4.19141 7.22916 4.20008 7.21974C4.17448 7.26761 4.0563 7.45918 4.15212 7.76083C4.24795 8.06111 4.48868 8.28502 4.78513 8.29543C5.08158 8.30584 5.23739 8.16078 5.41557 7.94335C5.48546 7.85666 5.56576 7.74786 5.63692 7.67413C5.74308 7.55885 5.82594 7.52651 5.82594 7.41524C5.82594 7.1874 5.59289 7.08509 5.24985 6.98286C4.90681 6.88063 4.59739 6.89326 4.43688 6.96324C4.2803 7.03952 4.21297 7.11982 4.1715 7.24543L4.17158 7.24534Z" fill="#252211"/>
<path fill-rule="evenodd" clip-rule="evenodd" d="M5.27369 8.76114L5.29929 8.74817C5.29929 8.74817 5.30569 8.64576 5.34715 8.64849C5.38853 8.65498 5.40798 8.70942 5.40406 8.7288C5.4015 8.74817 5.39118 8.7806 5.34971 8.77667C5.29536 8.77795 5.27344 8.76114 5.27344 8.76114H5.27369Z" fill="#3F3824"/>
<path fill-rule="evenodd" clip-rule="evenodd" d="M5.1582 8.32606C5.1582 8.32606 5.1838 8.317 5.21512 8.3481C5.24072 8.3481 5.35234 8.33511 5.38732 8.35715C5.42231 8.3792 5.43263 8.39859 5.43263 8.39859C5.43263 8.39859 5.3019 8.42712 5.23065 8.39859C5.1582 8.37398 5.1582 8.32606 5.1582 8.32606Z" fill="#2D2815"/>
<path fill-rule="evenodd" clip-rule="evenodd" d="M5.73492 8.3456C5.73492 8.33912 5.66502 8.29127 5.5912 8.27566C5.57823 8.2731 5.57558 8.28214 5.5656 8.28214C5.55911 8.27958 5.55655 8.26013 5.55655 8.26013L5.51456 8.28222C5.51456 8.28222 5.50808 8.29127 5.5301 8.30781C5.54947 8.32334 5.5819 8.3363 5.59094 8.36215C5.59999 8.388 5.59999 8.39704 5.60392 8.40096C5.60648 8.40352 5.65179 8.40096 5.67381 8.388C5.69583 8.37503 5.73731 8.35388 5.73466 8.34535L5.73492 8.3456Z" fill="#82764F"/>
<path fill-rule="evenodd" clip-rule="evenodd" d="M5.08008 8.60847C5.08008 8.60847 5.09296 8.51928 5.17975 8.51536C5.26901 8.50888 5.2859 8.59551 5.2859 8.59551L5.2341 8.64727C5.2341 8.64599 5.19528 8.59167 5.0805 8.60847H5.08008Z" fill="#2D2816"/>
<path fill-rule="evenodd" clip-rule="evenodd" d="M5.64355 8.22384C5.64355 8.22384 5.5956 8.27567 5.48953 8.29121C5.48049 8.27823 5.46103 8.25236 5.48953 8.21095C5.51803 8.16954 5.55037 8.15656 5.58271 8.16945C5.59698 8.17177 5.61029 8.17812 5.62107 8.18775C5.63185 8.19739 5.63965 8.20991 5.64355 8.22384Z" fill="#574F35"/>
<path fill-rule="evenodd" clip-rule="evenodd" d="M5.83834 8.28738C5.84098 8.27441 5.83194 8.27185 5.83834 8.26537C5.84474 8.25888 5.87981 8.246 5.88629 8.2524C5.88885 8.25504 5.88629 8.26537 5.88629 8.278C5.88629 8.29062 5.88629 8.30359 5.87981 8.31289C5.87076 8.32586 5.84491 8.33234 5.83194 8.3285C5.81897 8.32466 5.81641 8.30649 5.81641 8.30291C5.82281 8.30035 5.83834 8.29386 5.83834 8.28738ZM6.05935 8.14763C6.05935 8.14114 6.08137 8.12817 6.09434 8.12817C6.11371 8.12817 6.11371 8.1437 6.11635 8.14763C6.12275 8.15019 6.12275 8.14498 6.12924 8.15667C6.13572 8.16836 6.14485 8.18901 6.13828 8.20198C6.13171 8.21494 6.10594 8.2239 6.09954 8.22134C6.0905 8.21486 6.062 8.15667 6.05935 8.14763Z" fill="#82764F"/>
<path fill-rule="evenodd" clip-rule="evenodd" d="M5.61523 8.31722C5.61523 8.31722 5.64374 8.32362 5.68256 8.35605C5.66959 8.3651 5.65014 8.37542 5.65014 8.37542C5.65014 8.37542 5.64758 8.34564 5.61523 8.31714V8.31722Z" fill="#6E6342"/>
<path fill-rule="evenodd" clip-rule="evenodd" d="M5.5518 8.03234C5.54532 8.02594 5.57118 8.01041 5.58671 8.01297C5.60224 8.01553 5.60872 8.02594 5.62554 8.0285C5.64235 8.03106 5.64499 8.02201 5.65114 8.01553C5.65728 8.00904 5.67964 8.01297 5.68348 8.01553C5.68587 8.01837 5.68804 8.0214 5.68997 8.02457C5.69024 8.01965 5.69152 8.01483 5.69374 8.01043C5.69596 8.00602 5.69906 8.00212 5.70285 7.99897C5.70782 7.99533 5.71354 7.99285 5.7196 7.99172C5.72566 7.9906 5.7319 7.99086 5.73784 7.99249C5.7404 8.00153 5.75337 8.03387 5.75081 8.04036C5.74825 8.04684 5.70942 8.05598 5.70285 8.0494C5.70934 8.06502 5.73784 8.09736 5.74168 8.10376C5.74552 8.11016 5.71318 8.12578 5.70029 8.12322C5.6822 8.12194 5.57084 8.05717 5.55146 8.03259L5.5518 8.03234ZM5.72137 7.81747C5.71897 7.81095 5.71439 7.80546 5.7084 7.80194C5.69935 7.79938 5.66957 7.80194 5.66957 7.81747C5.66957 7.833 5.69517 7.91987 5.72393 7.9651C5.75636 8.01041 5.77829 8.04787 5.80031 8.05828C5.80722 8.06143 5.81507 8.06184 5.82227 8.05943C5.82948 8.05703 5.8355 8.05198 5.83914 8.04531C5.8417 8.03882 5.84818 7.99095 5.84562 7.87831C5.84306 7.76567 5.83914 7.65696 5.83265 7.65047C5.82617 7.64399 5.80031 7.64407 5.79126 7.65696C5.78222 7.66985 5.72393 7.7981 5.72129 7.81747H5.72137Z" fill="#585136"/>
<path fill-rule="evenodd" clip-rule="evenodd" d="M5.60675 8.4802C5.60675 8.4802 5.56143 8.4517 5.51738 8.47115C5.47599 8.49061 5.47855 8.56698 5.47855 8.56698C5.48786 8.57063 5.49792 8.57194 5.50786 8.57081C5.5178 8.56968 5.52731 8.56614 5.53556 8.5605C5.56407 8.54113 5.60026 8.50878 5.60675 8.48028V8.4802Z" fill="#574F35"/>
<path fill-rule="evenodd" clip-rule="evenodd" d="M5.69162 8.58259C5.68906 8.55699 5.66602 8.55699 5.66602 8.54376C5.6676 8.53744 5.67127 8.53183 5.67642 8.52784C5.68157 8.52385 5.68791 8.5217 5.69443 8.52174C5.7074 8.52174 5.72003 8.53727 5.7359 8.54734C5.75143 8.55639 5.77473 8.57295 5.77729 8.59266C5.77985 8.61237 5.75169 8.66639 5.72037 8.66639C5.68906 8.66639 5.69836 8.6081 5.69187 8.58225L5.69162 8.58259ZM5.94147 8.5476C5.94147 8.5476 5.88967 8.56313 5.89351 8.5476C5.89735 8.53207 5.90913 8.52823 5.92594 8.52823C5.93448 8.51929 5.94597 8.51374 5.95828 8.51261C5.96532 8.51226 5.97224 8.51458 5.97765 8.5191C5.97765 8.5191 6.01264 8.50357 6.02297 8.51261C6.03329 8.52166 6.02561 8.52166 6.03201 8.53207C6.04016 8.54362 6.04551 8.55692 6.04763 8.5709C6.04763 8.58122 6.0088 8.60324 5.97765 8.5994C5.94147 8.59163 5.94787 8.55409 5.94147 8.5476ZM6.24304 8.48931C6.24304 8.48931 6.25857 8.49836 6.24568 8.50877C6.23664 8.51782 6.19133 8.53437 6.15242 8.53727C6.11359 8.53727 6.07869 8.54367 6.07869 8.53079C6.07869 8.5179 6.11103 8.49196 6.1304 8.48547C6.13428 8.48061 6.13922 8.47668 6.14483 8.47399C6.15045 8.4713 6.1566 8.46992 6.16283 8.46994C6.17836 8.46994 6.23911 8.46346 6.25601 8.4609C6.27154 8.45825 6.28451 8.4673 6.27538 8.48027C6.27154 8.48931 6.24304 8.48931 6.24304 8.48931ZM6.33238 8.08959C6.33238 8.08959 6.31293 8.13098 6.291 8.13098C6.26898 8.12842 6.26898 8.12193 6.26898 8.11545C6.26898 8.1064 6.291 8.0831 6.28835 8.07662C6.28195 8.07662 6.26634 8.07662 6.26898 8.06109C6.26898 8.04811 6.291 8.03258 6.31037 8.03548C6.325 8.02346 6.34323 8.01664 6.36217 8.01611C6.38418 8.01611 6.40355 8.02251 6.40355 8.03548C6.40355 8.04846 6.37795 8.07687 6.36857 8.08345C6.35824 8.09377 6.34527 8.10051 6.33238 8.08985V8.08959ZM6.03722 8.85465C6.03722 8.85465 6.01162 8.85729 6.01162 8.87018C6.01162 8.87666 6.01802 8.87666 6.02715 8.87282C6.03241 8.87253 6.03762 8.87164 6.04268 8.87018C6.04524 8.87282 6.04524 8.88571 6.06469 8.88571C6.08067 8.88355 6.09607 8.87828 6.11001 8.87018C6.12554 8.86378 6.13851 8.85721 6.13851 8.84458C6.13202 8.82256 6.11905 8.81215 6.09968 8.81215C6.08975 8.81152 6.07986 8.81377 6.07118 8.81863C6.07118 8.81863 6.06469 8.80566 6.04268 8.81863C6.02066 8.83161 6.02322 8.83161 6.02971 8.83809C6.04131 8.84842 6.03747 8.85516 6.03747 8.85516L6.03722 8.85465ZM5.89095 8.98931C5.89095 8.98283 5.9233 8.96985 5.93234 8.97378C5.94139 8.97634 5.96724 9.02549 5.96724 9.0307C5.96724 9.03719 5.9349 9.05272 5.92193 9.05272C5.90896 9.05272 5.88703 9.0307 5.88703 9.02712C5.88703 9.02456 5.90256 9.02072 5.90256 9.01807C5.9064 9.01167 5.89095 8.99605 5.89095 8.98957V8.98931ZM5.78855 8.80029C5.79504 8.79773 5.79504 8.79124 5.80408 8.78475C5.80692 8.78287 5.81014 8.78166 5.81352 8.78122C5.81689 8.78077 5.82032 8.78111 5.82354 8.7822C5.82582 8.77812 5.82898 8.77461 5.83279 8.77191C5.8366 8.76921 5.84096 8.76739 5.84556 8.76658C5.86109 8.76402 5.87406 8.76658 5.87116 8.77306C5.87116 8.79252 5.88413 8.80541 5.88413 8.82094C5.88413 8.83647 5.87508 8.85593 5.84274 8.8689C5.8104 8.87794 5.76637 8.87794 5.75988 8.87538C5.7534 8.87282 5.74691 8.84688 5.7534 8.83391C5.75988 8.82094 5.77797 8.80677 5.78838 8.80029H5.78855Z" fill="#82764F"/>
<path fill-rule="evenodd" clip-rule="evenodd" d="M5.82933 8.80908C5.82933 8.80908 5.80729 8.82205 5.80729 8.82853C5.80534 8.83479 5.80447 8.84134 5.80473 8.84789C5.80473 8.85173 5.83326 8.84533 5.8371 8.84141C5.83838 8.83885 5.82933 8.81582 5.82933 8.80908Z" fill="#6E6342"/>
<path fill-rule="evenodd" clip-rule="evenodd" d="M5.63721 8.74822C5.65009 8.75086 5.67211 8.74822 5.68892 8.7547C5.70189 8.76118 5.71093 8.77415 5.69796 8.78967C5.68499 8.80519 5.67236 8.82848 5.64361 8.82456C5.61127 8.822 5.58021 8.80519 5.58021 8.79223C5.57967 8.78403 5.58076 8.7758 5.58343 8.76803C5.58609 8.76025 5.59028 8.75308 5.59574 8.74694C5.60871 8.73662 5.61511 8.7431 5.63712 8.74822H5.63721Z" fill="#585136"/>
<path fill-rule="evenodd" clip-rule="evenodd" d="M5.62097 8.76123C5.62097 8.76123 5.57959 8.79357 5.56918 8.80919C5.55621 8.82472 5.49282 8.90493 5.47346 8.92174C5.47989 8.91039 5.48722 8.89958 5.49538 8.8894C5.46979 8.90577 5.4506 8.93045 5.44103 8.95929C5.42551 9.00725 5.5278 9.0331 5.59503 9.05256C5.66226 9.07201 5.68829 9.07816 5.68829 9.07816C5.66353 9.04095 5.64228 9.00153 5.62481 8.9604C5.59921 8.89956 5.58599 8.89307 5.6028 8.86457C5.61577 8.83607 5.63522 8.8167 5.63522 8.79468C5.62745 8.7742 5.62097 8.76123 5.62097 8.76123Z" fill="#574F35"/>
<path fill-rule="evenodd" clip-rule="evenodd" d="M4.1447 8.86355C4.15412 8.86528 4.16378 8.86528 4.1732 8.86355C4.19257 8.86091 4.39456 8.78675 4.60558 8.80006C4.76356 8.80961 4.92014 8.83534 5.07286 8.87687C5.33825 8.94676 5.66831 9.08527 5.8819 9.16429C5.93882 9.18622 5.99454 9.22514 6.0355 9.24058C6.19866 9.30408 6.20506 9.30408 6.30088 9.32089C6.41352 9.33642 6.52872 9.29887 6.64913 9.27301C6.79667 9.24058 7.04908 9.22505 7.27043 9.19271C7.34201 9.18279 7.41261 9.16677 7.48146 9.14483C7.48146 9.14483 7.30542 9.32089 6.88337 9.3843C6.71277 9.4102 6.53941 9.41239 6.36821 9.39078C6.23356 9.37781 6.1443 9.35835 6.07697 9.33898C6.0006 9.31696 5.84393 9.25868 5.65108 9.21097C5.51642 9.17598 5.36624 9.15012 5.19412 9.11778C4.76951 9.04004 4.30871 8.95077 4.14453 8.86406L4.1447 8.86355Z" fill="#252211"/>
<path fill-rule="evenodd" clip-rule="evenodd" d="M3.6683 8.0636C3.5659 8.1503 3.45727 8.23316 3.3512 8.31337L3.03146 8.55904C2.92275 8.63926 2.8166 8.72212 2.7078 8.80241C2.599 8.88271 2.49037 8.959 2.375 9.03281C2.4774 8.94612 2.58603 8.86582 2.69474 8.78688C2.80345 8.70795 2.91618 8.63055 3.02105 8.55051L3.34079 8.30449C3.45079 8.22428 3.55694 8.14142 3.6683 8.06377V8.0636ZM3.10263 8.96975C3.10263 8.96975 3.21783 8.87392 3.36153 8.73935C3.54013 8.57244 3.75892 8.35877 3.82881 8.32003L3.10254 8.96984L3.10263 8.96975Z" fill="#CFB66C"/>
<path fill-rule="evenodd" clip-rule="evenodd" d="M3.10352 8.96954C3.16052 8.91263 3.22136 8.85699 3.2822 8.80256L3.37539 8.72235C3.40389 8.69675 3.43632 8.668 3.46473 8.6395C3.52165 8.58259 3.57737 8.52166 3.63429 8.46347C3.6625 8.43421 3.69233 8.40655 3.72363 8.38062C3.73928 8.36677 3.75667 8.35501 3.77535 8.34564C3.79096 8.33659 3.80777 8.32004 3.8297 8.31714C3.81682 8.33659 3.80129 8.34564 3.78832 8.36245C3.77279 8.37542 3.75981 8.39095 3.74693 8.40383C3.71843 8.43233 3.68609 8.45818 3.65759 8.48412C3.59674 8.53591 3.53334 8.58651 3.4725 8.64069C3.41165 8.69487 3.35474 8.75332 3.29381 8.80768C3.22785 8.86339 3.167 8.91774 3.10352 8.96979V8.96954ZM3.87766 8.45178C3.87766 8.45178 3.45569 8.86476 3.3689 8.93199L3.87766 8.45178Z" fill="#CFB66C"/>
<path fill-rule="evenodd" clip-rule="evenodd" d="M3.8779 8.45178C3.83994 8.49572 3.79924 8.53722 3.75604 8.57603L3.62804 8.69771C3.58666 8.7391 3.54774 8.78057 3.5038 8.82196C3.45848 8.86078 3.4171 8.89876 3.36914 8.9346L3.49339 8.81291C3.53486 8.77153 3.58017 8.73663 3.6242 8.69515L3.74845 8.57347C3.79111 8.5308 3.83259 8.48933 3.8779 8.45178ZM3.89727 8.6757C3.85837 8.78426 3.81254 8.8902 3.76005 8.99288C3.65134 9.2104 3.48827 9.48218 3.41701 9.62076L3.89727 8.6757Z" fill="#CFB66C"/>
<path fill-rule="evenodd" clip-rule="evenodd" d="M3.89694 8.67578C3.89694 8.72366 3.88397 8.76514 3.86844 8.80653C3.8533 8.84796 3.83604 8.88858 3.81673 8.92823C3.79728 8.96706 3.77526 9.00854 3.75324 9.04609C3.73123 9.08364 3.70537 9.12239 3.68592 9.1613L3.55518 9.39173C3.50987 9.46854 3.46584 9.54578 3.41797 9.6196C3.45031 9.53673 3.49434 9.45907 3.53581 9.38269C3.58113 9.30588 3.62251 9.22907 3.66381 9.14961C3.68398 9.11002 3.70212 9.06943 3.71817 9.028C3.73754 8.98652 3.75691 8.94769 3.77253 8.91014C3.7919 8.86874 3.80743 8.82983 3.82689 8.79236C3.84882 8.75216 3.86699 8.71333 3.89677 8.67578H3.89694Z" fill="#CFB66C"/>
<path fill-rule="evenodd" clip-rule="evenodd" d="M4.35828 9.73718C4.35828 9.73718 4.23029 9.90674 4.24309 10.1216C4.27799 10.0091 4.32202 9.83685 4.35828 9.73718ZM4.47997 9.90717C4.47997 9.90717 4.43466 10.368 4.39711 10.5945C4.45019 10.3326 4.46051 10.3547 4.47997 9.90717ZM5.32782 10.6217C5.32782 10.6217 5.13625 11.1849 5.13233 11.3414C5.1738 11.1805 5.25401 10.8517 5.32782 10.6213V10.6217Z" fill="#DEC270"/>
<path fill-rule="evenodd" clip-rule="evenodd" d="M5.77539 9.70239C5.77539 9.70239 6.08609 10.215 6.31914 10.6525C6.25607 10.4323 6.11101 10.0285 5.77539 9.70239Z" fill="#CBAF59"/>
<path fill-rule="evenodd" clip-rule="evenodd" d="M6.60938 10.457C6.77996 10.7586 6.9338 11.0693 7.07017 11.3878C7.04432 11.1677 6.97435 10.791 6.60938 10.457Z" fill="#E3C677"/>
<path fill-rule="evenodd" clip-rule="evenodd" d="M9.06553 11.2128C9.11724 11.1805 9.21955 11.0044 9.3089 10.9604C9.39816 10.9151 9.46548 10.906 9.54578 10.8167C9.62599 10.7234 9.64818 10.6665 9.82405 10.5928C10.0701 10.4865 9.90085 10.3493 9.90085 10.3493C9.92795 10.3227 9.95692 10.2981 9.98755 10.2756C10.051 10.2277 10.1248 10.1694 10.1184 10.0671C10.1093 9.89502 10.077 9.64516 9.93584 9.50018C10.0731 9.47168 10.3358 9.45231 10.499 9.41092C10.688 9.36296 10.7747 9.29564 10.7747 9.29564C10.7747 9.29564 10.666 9.11055 10.8421 8.92418C11.0181 8.73781 11.1618 8.62645 11.268 8.41798C11.1463 8.40245 10.9608 8.33777 10.4873 8.51765C10.5129 8.52968 10.5376 8.54351 10.5612 8.55904C10.5612 8.55904 10.2699 8.63934 10.1638 8.72868C9.97859 8.88527 9.95529 9.01344 9.75468 9.10927C9.55406 9.2051 9.35208 9.17916 9.18517 9.25681C9.01826 9.33446 8.99359 9.40051 8.93267 9.42901C8.94564 9.44454 8.93011 9.4704 8.95468 9.49242C8.93915 9.51443 8.84853 9.66197 8.75663 9.66197C8.76567 9.69696 8.84332 9.72282 8.84332 9.72282C8.84332 9.72282 8.78641 9.76429 8.64143 9.77461C8.71515 9.85141 8.78513 9.93512 8.97798 10.0568C8.96245 10.0892 8.89768 10.1371 8.92362 10.198C8.95212 10.2588 9.02602 10.3417 9.32101 10.409C9.17083 10.4154 8.99487 10.4504 8.75782 10.418C8.52094 10.3895 8.48211 10.3727 8.33585 10.409C8.35138 10.4245 8.39277 10.4245 8.42903 10.4659C8.39021 10.4685 8.14684 10.4374 8.06398 10.5462C7.97728 10.6588 7.93974 10.8439 7.94622 10.9682C7.90091 10.9902 7.85688 11.029 7.87889 11.1093C7.90091 11.1896 8.01611 11.2155 8.08992 11.2659C8.16365 11.3203 8.17013 11.3396 8.24011 11.3267C8.31383 11.3112 8.42255 11.2375 8.48604 11.2375C8.54952 11.2375 8.59475 11.2854 8.59475 11.2854C8.59475 11.2854 8.76695 11.2025 8.78376 11.218C8.79929 11.2336 8.78632 11.3332 8.80313 11.3488C8.8202 11.3604 9.01416 11.2452 9.06596 11.2128H9.06553Z" fill="#ECD592"/>
<path fill-rule="evenodd" clip-rule="evenodd" d="M12.8278 6.0324C12.0188 3.9431 10.0187 3.55603 10.0187 3.55603H4.31259L4.3346 5.68416H5.47099V10.4363H4.3125V12.5606H9.86079C11.198 12.5606 12.2698 11.2168 12.2698 11.2168C13.9863 8.78065 12.8277 6.0324 12.8277 6.0324H12.8278ZM9.89057 9.78511C9.89057 9.78511 9.45537 10.413 8.98185 10.413H8.03465L8.01221 5.68936H9.22779C9.22779 5.68936 9.79099 5.80712 10.1845 6.92166C10.1845 6.92166 10.7061 8.5174 9.89057 9.78511Z" fill="white" fill-opacity="0.8"/>
</g>
<defs>
<clipPath id="clip0_2_3468">
<rect width="16" height="16" fill="white" transform="translate(0.427734)"/>
</clipPath>
</defs>
</svg>
