<svg width="17" height="16" viewBox="0 0 17 16" fill="none" xmlns="http://www.w3.org/2000/svg">
<g clip-path="url(#clip0_2_3471)">
<path d="M8.63672 16C13.055 16 16.6367 12.4183 16.6367 8C16.6367 3.58172 13.055 0 8.63672 0C4.21844 0 0.636719 3.58172 0.636719 8C0.636719 12.4183 4.21844 16 8.63672 16Z" fill="#242D3D"/>
<path d="M12.2043 8.73338C11.9288 7.51988 11.0723 6.18188 11.0723 6.18188C12.0593 8.87538 11.6793 10.9069 11.4178 12.0594C11.4178 12.0594 11.0728 13.3484 11.8153 12.2744C12.7413 10.9304 12.2043 8.73338 12.2043 8.73338Z" fill="white"/>
<path d="M9.76669 3.95536C10.2802 5.78436 10.5127 7.33686 10.5852 8.63136C10.7127 10.8374 10.3762 12.2889 10.1672 13.0554C10.1002 13.3049 10.3792 13.4904 10.5417 13.3019L10.5447 13.2989C10.9507 12.8344 11.1427 11.7464 11.2327 10.7914L11.2587 10.4779C11.3427 9.32786 11.2937 8.16736 11.0237 7.05536C10.5272 5.00336 9.76669 3.95536 9.76669 3.95536ZM8.84669 7.17736C8.72169 4.17336 8.49519 1.50586 8.49519 1.50586C8.49519 1.50586 8.26619 4.03986 8.14119 6.97686C8.12119 7.45336 8.10319 7.93786 8.08869 8.42536C8.06869 9.13386 8.05969 9.84536 8.05969 10.5329C8.06269 11.7549 8.10969 12.9014 8.21969 13.8159C8.26319 14.1784 8.73319 14.1784 8.77669 13.8159C8.85219 13.1919 8.89569 12.4254 8.91319 11.5834C8.92943 10.6731 8.9256 9.7625 8.90169 8.85236C8.88669 8.29486 8.86969 7.73186 8.84669 7.17736ZM5.33769 10.7969C5.26918 10.2307 5.25345 9.65942 5.29069 9.09036C5.31969 8.64336 5.38369 8.16436 5.49419 7.65336C5.59569 7.18586 5.73469 6.69536 5.92369 6.17886C5.92369 6.17886 5.31969 7.12236 4.96569 8.14086C4.89569 8.33586 4.83819 8.53586 4.79419 8.73036C4.79419 8.73036 4.68119 9.24136 4.66419 9.92336C4.65219 10.3964 4.68969 10.9564 4.84069 11.4849C4.91701 11.7615 5.03144 12.0262 5.18069 12.2714C5.18069 12.2714 5.92369 13.3774 5.57819 12.0564C5.4707 11.6422 5.3902 11.2215 5.33719 10.7969H5.33769Z" fill="white"/>
<path d="M6.39742 10.2049C6.37319 9.60688 6.38287 9.00792 6.42642 8.41095C6.45659 7.9702 6.50312 7.53073 6.56592 7.09345C6.69592 6.15294 6.90842 5.11094 7.23092 3.95544C7.23092 3.95544 6.46692 5.00344 5.97092 7.05544C5.94442 7.16544 5.92092 7.27594 5.89792 7.38345C5.80792 7.83045 5.74992 8.28344 5.72092 8.74194C5.68592 9.31695 5.69492 9.89695 5.73592 10.4749L5.76192 10.7914C5.85192 11.7464 6.04042 12.8344 6.44942 13.2989L6.45242 13.3019C6.61492 13.4879 6.89642 13.3019 6.82742 13.0554C6.67592 12.4894 6.45242 11.5489 6.39742 10.2049Z" fill="white"/>
<path d="M7.66505 10.318C7.64866 9.65244 7.64566 8.98664 7.65605 8.32098C7.66205 7.88298 7.67355 7.42098 7.69405 6.93648C7.74355 5.68548 7.97855 3.87698 8.14105 2.34448C8.14105 2.34448 7.34005 4.00198 6.97405 6.99198C6.92505 7.40098 6.87855 7.84198 6.84355 8.31848L6.81755 8.67248C6.81755 8.67248 6.77405 9.30498 6.79105 10.1585C6.81455 11.2555 6.93605 12.7185 7.38905 13.6765C7.40405 13.7055 7.42105 13.7315 7.44405 13.7515L7.44705 13.755C7.61855 13.9175 7.88255 13.7635 7.85955 13.511C7.75303 12.4496 7.68798 11.3844 7.66455 10.318H7.66505ZM9.32505 10.318C9.34005 9.71998 9.34555 9.05298 9.33405 8.32098C9.32805 7.88298 9.31655 7.42098 9.29605 6.93648C9.24705 5.68548 9.01205 3.87698 8.84905 2.34448C8.84905 2.34448 9.65055 4.00198 10.0161 6.99198C10.0656 7.40098 10.1121 7.84198 10.1466 8.31848L10.1731 8.67248C10.1731 8.67248 10.2166 9.30498 10.1991 10.1585C10.1756 11.2555 10.0541 12.7185 9.60105 13.6765C9.58775 13.7048 9.56907 13.7303 9.54605 13.7515L9.54305 13.755C9.37155 13.9175 9.10805 13.7635 9.13105 13.511C9.18905 12.9625 9.28755 11.874 9.32505 10.318Z" fill="white"/>
</g>
<defs>
<clipPath id="clip0_2_3471">
<rect width="16" height="16" fill="white" transform="translate(0.636719)"/>
</clipPath>
</defs>
</svg>
