<svg width="17" height="16" viewBox="0 0 17 16" fill="none" xmlns="http://www.w3.org/2000/svg">
<g clip-path="url(#clip0_2_3472)">
<path d="M0.636719 0H16.519V16H0.636719V0Z" fill="#121747"/>
<path d="M10.0326 12.8237C10.0326 13.625 9.38302 14.2746 8.58174 14.2746C7.78046 14.2746 7.13086 13.625 7.13086 12.8237V3.18014C7.13086 2.37885 7.78046 1.72925 8.58174 1.72925C9.38302 1.72925 10.0326 2.37885 10.0326 3.18014" fill="white"/>
<path d="M14.9193 8.99773C14.9193 9.79901 14.2697 10.4486 13.4685 10.4486C12.6672 10.4486 12.0176 9.79901 12.0176 8.99773V5.33821C12.0176 4.53693 12.6672 3.88733 13.4685 3.88733C14.2697 3.88733 14.9193 4.53693 14.9193 5.33821" fill="#52DEB8"/>
<path d="M5.14757 12.8281C5.16101 13.6268 4.52422 14.2847 3.7255 14.2975C2.92678 14.311 2.26887 13.6742 2.25607 12.8755C2.25607 12.8595 2.25607 12.8435 2.25607 12.8281V10.6598C2.24263 9.86109 2.87943 9.20318 3.67814 9.19038C4.47686 9.17758 5.13477 9.81373 5.14757 10.6124C5.14757 10.6284 5.14757 10.6444 5.14757 10.6598" fill="white"/>
</g>
<defs>
<clipPath id="clip0_2_3472">
<rect width="15.8822" height="16" fill="white" transform="translate(0.636719)"/>
</clipPath>
</defs>
</svg>
