<svg width="17" height="16" viewBox="0 0 17 16" fill="none" xmlns="http://www.w3.org/2000/svg">
<g clip-path="url(#clip0_2_3473)">
<path d="M8.51758 16C12.9359 16 16.5176 12.4183 16.5176 8C16.5176 3.58172 12.9359 0 8.51758 0C4.0993 0 0.517578 3.58172 0.517578 8C0.517578 12.4183 4.0993 16 8.51758 16Z" fill="#1693D4"/>
<path fill-rule="evenodd" clip-rule="evenodd" d="M5.48158 8.287C5.46869 8.10726 5.46785 7.92686 5.47908 7.747H4.07908L2.51758 6.498H5.76458C6.06784 5.75821 6.5846 5.12551 7.24892 4.68061C7.91325 4.23571 8.69504 3.99877 9.49458 4C11.7166 4 13.5176 5.791 13.5176 8C13.5176 10.209 11.7166 12 9.49458 12C8.7013 12.0012 7.92536 11.7679 7.26423 11.3296C6.60309 10.8912 6.08623 10.2672 5.77858 9.53601H2.51758L4.07908 8.287H5.48158ZM11.7861 8.0745C11.7861 7.6595 11.7301 7.2975 11.6176 6.9885C11.5051 6.6795 11.3491 6.4205 11.1501 6.2135C10.9506 6.006 10.7146 5.84951 10.4411 5.74451C10.1676 5.63951 9.87108 5.58651 9.54958 5.58651C9.20258 5.58651 8.87958 5.64551 8.58058 5.76351C8.28158 5.88151 8.02308 6.0475 7.80458 6.261C7.58608 6.475 7.41458 6.733 7.28908 7.036C7.16358 7.339 7.10108 7.676 7.10108 8.046C7.10108 8.422 7.16358 8.7585 7.28908 9.05501C7.41408 9.35151 7.58758 9.602 7.80908 9.806C8.03108 10.0105 8.29308 10.168 8.59508 10.28C8.91348 10.3945 9.24975 10.4512 9.58808 10.4475C10.4556 10.4475 11.1181 10.141 11.5741 9.5285L10.8026 8.9165C10.6741 9.1015 10.5106 9.2465 10.3111 9.3515C10.1121 9.4565 9.86758 9.5095 9.57858 9.5095C9.41158 9.5095 9.25058 9.481 9.09658 9.4235C8.94258 9.366 8.80408 9.288 8.68158 9.189C8.5586 9.0911 8.45738 8.96864 8.38438 8.82944C8.31137 8.69023 8.26819 8.53733 8.25758 8.3805H11.7766C11.7831 8.3295 11.7861 8.2785 11.7861 8.2275V8.0745ZM10.6291 7.5575H8.25758C8.28358 7.2325 8.41658 6.966 8.65758 6.7585C8.89908 6.5515 9.19258 6.4475 9.54008 6.4475C9.72608 6.4475 9.88858 6.4775 10.0266 6.5385C10.1646 6.5995 10.2791 6.6805 10.3691 6.7825C10.4591 6.8845 10.5246 7.0025 10.5666 7.1365C10.6087 7.27283 10.6298 7.41481 10.6291 7.5575Z" fill="white"/>
</g>
<defs>
<clipPath id="clip0_2_3473">
<rect width="16" height="16" fill="white" transform="translate(0.517578)"/>
</clipPath>
</defs>
</svg>
