<svg width="17" height="16" viewBox="0 0 17 16" fill="none" xmlns="http://www.w3.org/2000/svg">
<g clip-path="url(#clip0_2_3476)">
<path d="M8.31939 15.3246C12.6573 15.3246 16.1739 12.0522 16.1739 8.01551C16.1739 3.97881 12.6573 0.706421 8.31939 0.706421C3.98144 0.706421 0.464844 3.97881 0.464844 8.01551C0.464844 12.0522 3.98144 15.3246 8.31939 15.3246Z" fill="white"/>
<path d="M8.29297 0C3.87219 0 0.292969 3.57922 0.292969 8C0.292969 12.4208 3.87219 16 8.29297 16C12.7137 16 16.293 12.4208 16.293 8C16.293 3.57922 12.7137 0 8.29297 0ZM8.45401 14.8935C4.70855 14.8935 1.66959 11.8545 1.66959 8.10909C1.66959 4.36364 4.70855 1.32468 8.45401 1.32468C12.1995 1.32468 15.2384 4.36364 15.2384 8.10909C15.2384 11.8545 12.1995 14.8935 8.45401 14.8935Z" fill="#F6BE1D"/>
<path d="M8.4593 14.4935C11.9824 14.4935 14.8385 11.6375 14.8385 8.11433C14.8385 4.59118 11.9824 1.73511 8.4593 1.73511C4.93615 1.73511 2.08008 4.59118 2.08008 8.11433C2.08008 11.6375 4.93615 14.4935 8.4593 14.4935Z" fill="#F6BE1D"/>
<path d="M3.95579 11.8076C3.76878 10.6751 4.08566 9.79721 4.24151 9.38163C4.76099 7.99462 5.73761 7.19981 6.22592 6.86215C6.96878 6.34787 7.69605 6.1193 8.17397 6.0154C8.26748 5.99462 8.36618 5.96865 8.45968 5.94267C8.81293 5.83878 9.26488 5.69332 9.78436 5.50111C10.4129 5.26735 10.7506 5.14267 11.1766 4.90371C11.7532 4.58164 12.1376 4.25436 12.5012 3.94268C12.8753 3.6206 13.3532 3.16346 13.8415 2.55566C13.774 3.01281 13.6285 3.67255 13.3064 4.41021C13.1038 4.86215 12.922 5.27774 12.5428 5.7193C11.774 6.618 10.7558 6.97644 10.309 7.13228C10.2831 7.14267 10.3038 7.13228 9.20254 7.49592C9.06747 7.53748 8.48566 7.72968 8.35579 7.77644C7.85709 7.93747 6.69345 8.38942 5.75839 9.54786C4.46488 11.1531 4.53242 12.9557 4.56358 13.4024C4.3506 13.0751 4.07527 12.5297 3.95579 11.8076ZM8.31942 9.45436C8.9428 9.39202 9.51423 9.39202 10.0077 9.41799C10.309 9.39202 10.8701 9.29332 11.374 8.88293C11.8831 8.46734 12.0753 7.95306 12.2311 7.54267C12.4389 6.98683 12.4857 6.49852 12.4908 6.17644C12.3246 6.33748 12.0701 6.55566 11.7272 6.76345C11.4103 6.96085 11.1506 7.06475 10.7558 7.22059C10.4753 7.33488 10.096 7.47514 9.62851 7.6102C8.70384 7.89592 7.97657 8.22319 7.45709 8.49332C6.88566 8.78423 6.4441 9.06994 6.15839 9.58942C6.08566 9.72449 6.03891 9.83877 6.01293 9.92189C6.63631 9.72449 7.41553 9.54267 8.31942 9.45436ZM6.02332 11.1686C6.21034 11.1375 6.43891 11.1167 7.348 11.2102C7.58696 11.2362 7.81033 11.2621 8.00774 11.2881C8.61033 11.366 9.22332 11.257 9.75319 10.9505C9.9454 10.8414 10.1376 10.7011 10.3194 10.5141C10.6519 10.1816 10.8285 9.82838 10.9272 9.57903C10.6259 9.63098 10.2831 9.67773 9.90384 9.69332C9.67527 9.70371 9.45708 9.70371 9.25449 9.69332C8.42332 9.66215 7.75839 9.78682 7.31683 9.90111C6.57397 10.0933 5.68047 10.3219 5.23891 11.0855C5.13501 11.2673 5.07787 11.4388 5.0467 11.5531C5.43631 11.3141 5.77917 11.2102 6.02332 11.1686ZM5.27008 12.5712C5.3428 12.5608 5.41553 12.5557 5.47787 12.5505C5.68047 12.5453 5.88306 12.5712 6.08047 12.6284C6.29865 12.6907 6.53761 12.7479 6.79735 12.7946C6.95319 12.8206 7.10384 12.8414 7.24929 12.8569C7.48306 12.8829 7.71683 12.8673 7.9454 12.8154C8.09605 12.779 8.25709 12.7219 8.42332 12.6336C9.08825 12.2699 9.32721 11.6466 9.38436 11.4803C9.28046 11.5634 9.11942 11.6725 8.90644 11.7557C8.60514 11.8751 8.35059 11.8803 8.08566 11.8855C7.89864 11.8907 7.65449 11.8803 7.36358 11.8232C7.27527 11.8076 7.19215 11.7816 7.10904 11.7608C6.30904 11.5375 5.52462 11.6673 5.06748 12.1453C4.95839 12.2595 4.81813 12.4414 4.72982 12.7271C4.86488 12.6699 5.0467 12.6024 5.27008 12.5712Z" fill="#FDFFFA"/>
</g>
<defs>
<clipPath id="clip0_2_3476">
<rect width="16" height="16" fill="white" transform="translate(0.292969)"/>
</clipPath>
</defs>
</svg>
