<svg width="17" height="16" viewBox="0 0 17 16" fill="none" xmlns="http://www.w3.org/2000/svg">
<g clip-path="url(#clip0_2_3480)">
<path d="M8.01953 16C12.4378 16 16.0195 12.4183 16.0195 8C16.0195 3.58172 12.4378 0 8.01953 0C3.60125 0 0.0195312 3.58172 0.0195312 8C0.0195312 12.4183 3.60125 16 8.01953 16Z" fill="#AA15DD"/>
<path d="M8.01904 12.8059C8.13904 12.8064 8.23654 12.9059 8.23704 13.0279C8.23758 13.0862 8.21498 13.1423 8.1742 13.1839C8.13343 13.2255 8.07781 13.2493 8.01954 13.2499C7.99065 13.2497 7.9621 13.2437 7.9355 13.2324C7.90891 13.2211 7.88481 13.2047 7.86456 13.1841C7.84432 13.1634 7.82834 13.139 7.81752 13.1123C7.80671 13.0855 7.80128 13.0568 7.80154 13.0279C7.80128 12.999 7.80671 12.9704 7.81752 12.9436C7.82834 12.9168 7.84432 12.8924 7.86456 12.8718C7.88481 12.8511 7.90891 12.8347 7.9355 12.8234C7.9621 12.8121 7.99065 12.8062 8.01954 12.8059H8.01904ZM3.62904 5.67891C3.57853 5.6487 3.54187 5.59991 3.52692 5.54298C3.51196 5.48606 3.51991 5.42555 3.54904 5.37441C3.57044 5.33638 3.60275 5.30564 3.64181 5.28617C3.68086 5.26671 3.72486 5.25941 3.76811 5.26523C3.81136 5.27104 3.85187 5.28971 3.88439 5.3188C3.91692 5.34789 3.93996 5.38608 3.95054 5.42841C3.96179 5.47089 3.96035 5.51574 3.9464 5.55741C3.93245 5.59909 3.9066 5.63576 3.87204 5.66291C3.83785 5.68971 3.79637 5.70557 3.75301 5.70842C3.70966 5.71128 3.66646 5.70099 3.62904 5.67891ZM3.62904 10.3259C3.65391 10.3115 3.6814 10.3022 3.7099 10.2985C3.73841 10.2948 3.76736 10.2968 3.79509 10.3044C3.82281 10.3119 3.84875 10.325 3.8714 10.3426C3.89406 10.3603 3.91297 10.3824 3.92704 10.4074C3.95598 10.4583 3.96381 10.5186 3.94885 10.5752C3.9339 10.6319 3.89735 10.6804 3.84705 10.7104C3.82221 10.725 3.79472 10.7344 3.76619 10.7382C3.73765 10.7419 3.70865 10.74 3.68089 10.7324C3.65313 10.7248 3.62717 10.7117 3.60452 10.694C3.58188 10.6762 3.56302 10.6541 3.54904 10.6289C3.52011 10.578 3.51228 10.5177 3.52724 10.4611C3.54219 10.4045 3.57874 10.3559 3.62904 10.3259ZM12.409 5.67891C12.3842 5.69332 12.3567 5.70265 12.3282 5.70635C12.2997 5.71005 12.2707 5.70805 12.243 5.70047C12.2153 5.69289 12.1893 5.67987 12.1667 5.66218C12.144 5.64449 12.1251 5.62247 12.111 5.59741C12.0892 5.55918 12.0789 5.51539 12.0816 5.47142C12.0842 5.42745 12.0997 5.38521 12.126 5.34991C12.1521 5.31491 12.188 5.28856 12.2292 5.27429C12.2704 5.26002 12.315 5.25849 12.357 5.26991C12.3993 5.28187 12.4372 5.306 12.4659 5.3393C12.4945 5.37261 12.5128 5.41361 12.5183 5.45721C12.5239 5.50081 12.5165 5.54508 12.497 5.5845C12.4776 5.62392 12.447 5.65675 12.409 5.67891ZM8.01954 3.19391C7.96181 3.19247 7.90695 3.16838 7.86682 3.12685C7.82669 3.08531 7.8045 3.02966 7.80504 2.97191C7.80504 2.88191 7.85904 2.80041 7.94054 2.76641C7.9807 2.7497 8.02497 2.74554 8.06754 2.75446C8.11011 2.76339 8.14898 2.78498 8.17904 2.81641C8.20944 2.8481 8.2299 2.888 8.23789 2.93118C8.24589 2.97436 8.24108 3.01893 8.22404 3.05941C8.20733 3.09972 8.17891 3.13409 8.14245 3.15807C8.10599 3.18205 8.06318 3.19453 8.01954 3.19391ZM11.9195 10.2909C11.8665 10.3844 11.8486 10.4938 11.8689 10.5994C11.8893 10.7049 11.9466 10.7998 12.0305 10.8669L8.45504 12.9669C8.44127 12.8611 8.38961 12.7638 8.30963 12.6931C8.22966 12.6224 8.12678 12.5831 8.02004 12.5824C7.91331 12.5831 7.81043 12.6224 7.73046 12.6931C7.65048 12.7638 7.59882 12.8611 7.58504 12.9669L4.00854 10.8669C4.09224 10.7997 4.14927 10.7048 4.16942 10.5994C4.18958 10.494 4.17154 10.3848 4.11854 10.2914C4.06681 10.1985 3.98288 10.1278 3.88258 10.0925C3.78228 10.0572 3.67254 10.0599 3.57405 10.0999V5.89991C3.67242 5.93986 3.782 5.9425 3.88218 5.90732C3.98236 5.87215 4.06624 5.80159 4.11804 5.70891C4.17107 5.61577 4.18927 5.50681 4.1694 5.40148C4.14952 5.29616 4.09287 5.20133 4.00954 5.13391L7.58504 3.03391C7.59882 3.13976 7.65048 3.23703 7.73046 3.30772C7.81043 3.37841 7.91331 3.41773 8.02004 3.41841C8.12686 3.41772 8.2298 3.37832 8.30978 3.30753C8.38977 3.23674 8.44138 3.13935 8.45504 3.03341L12.0315 5.13341C11.948 5.20062 11.891 5.29536 11.8709 5.4007C11.8507 5.50603 11.8687 5.6151 11.9215 5.70841C11.9733 5.8013 12.0572 5.87204 12.1575 5.90732C12.2578 5.9426 12.3676 5.93996 12.466 5.89991V10.0974C12.3671 10.0573 12.2569 10.0549 12.1563 10.0905C12.0557 10.1262 11.9717 10.1975 11.92 10.2909H11.9195ZM8.86354 9.64741C8.47508 9.87579 8.01552 9.9514 7.57437 9.85953C7.13321 9.76765 6.74205 9.51487 6.47704 9.15041L8.83604 7.76841L9.64004 7.29641L10.021 7.07141L10.043 7.06091L11.663 6.10791C11.763 6.04941 11.798 5.91941 11.741 5.81741C11.728 5.79293 11.71 5.77139 11.6883 5.7541C11.6666 5.73681 11.6416 5.72415 11.6148 5.71689C11.588 5.70964 11.56 5.70793 11.5325 5.71189C11.5051 5.71585 11.4787 5.72538 11.455 5.73991L10.264 6.44241C10.0376 6.10367 9.74013 5.81821 9.39237 5.60583C9.04461 5.39344 8.65483 5.2592 8.25004 5.21241V3.84791C8.25031 3.81928 8.24493 3.79088 8.23422 3.76433C8.22351 3.73778 8.20767 3.7136 8.18761 3.69317C8.16755 3.67274 8.14367 3.65647 8.11732 3.64527C8.09097 3.63407 8.06267 3.62817 8.03404 3.62791C8.00537 3.62811 7.97702 3.63396 7.95062 3.64513C7.92421 3.65629 7.90027 3.67256 7.88016 3.693C7.86004 3.71343 7.84416 3.73764 7.83342 3.76422C7.82268 3.7908 7.81728 3.81924 7.81754 3.84791V5.19991C7.37321 5.22168 6.94081 5.35105 6.55754 5.57691C6.21164 5.77966 5.91271 6.05353 5.68054 6.38041L4.58854 5.73991C4.56475 5.72598 4.53842 5.71694 4.51109 5.71333C4.48376 5.70971 4.45598 5.71159 4.42939 5.71885C4.40279 5.72612 4.37792 5.73863 4.35622 5.75564C4.33453 5.77265 4.31645 5.79382 4.30305 5.81791C4.27551 5.86669 4.26809 5.92429 4.28238 5.97845C4.29667 6.03262 4.33153 6.07906 4.37954 6.10791L5.46304 6.74491C5.23127 7.20953 5.12935 7.72814 5.16804 8.24591L5.26854 8.81791C5.31354 8.97291 5.37004 9.12391 5.43904 9.26941L4.37954 9.89191C4.33121 9.92086 4.29617 9.96761 4.28196 10.0221C4.26774 10.0766 4.2755 10.1346 4.30354 10.1834C4.31709 10.2075 4.33529 10.2286 4.3571 10.2456C4.3789 10.2626 4.40387 10.275 4.43054 10.2823C4.45721 10.2895 4.48505 10.2913 4.51244 10.2876C4.53983 10.284 4.56621 10.2749 4.59004 10.2609L5.65354 9.63791C5.89691 9.9933 6.21824 10.2884 6.59301 10.5007C6.96779 10.713 7.3861 10.8369 7.81604 10.8629V12.1519C7.81604 12.2734 7.91304 12.3719 8.03254 12.3719C8.06117 12.3717 8.08947 12.3658 8.11582 12.3546C8.14217 12.3434 8.16605 12.3271 8.18611 12.3067C8.20617 12.2862 8.22201 12.262 8.23272 12.2355C8.24343 12.2089 8.24881 12.1805 8.24854 12.1519V10.8519C8.6376 10.8119 9.01321 10.6873 9.34904 10.4869C9.72793 10.2618 10.0476 9.94944 10.2815 9.57591L11.45 10.2599C11.55 10.3169 11.676 10.2814 11.7335 10.1804C11.7613 10.1319 11.7691 10.0746 11.7553 10.0204C11.7415 9.96629 11.7071 9.91966 11.6595 9.89041L10.4835 9.20041C10.4865 9.19391 10.4935 9.18641 10.4935 9.17841C10.8505 8.35641 9.89504 8.00341 9.68254 8.63641C9.5406 9.06141 9.24946 9.42058 8.86304 9.64741H8.86354ZM12.4095 10.3259C12.4598 10.3561 12.4963 10.4047 12.5112 10.4614C12.5261 10.5181 12.5184 10.5784 12.4895 10.6294C12.4755 10.6545 12.4566 10.6766 12.434 10.6943C12.4113 10.712 12.3853 10.725 12.3576 10.7326C12.3298 10.7401 12.3008 10.7421 12.2723 10.7383C12.2438 10.7344 12.2163 10.725 12.1915 10.7104C12.1412 10.6804 12.1047 10.6319 12.0897 10.5752C12.0748 10.5186 12.0826 10.4583 12.1115 10.4074C12.1255 10.3823 12.1444 10.3601 12.167 10.3424C12.1897 10.3246 12.2156 10.3115 12.2434 10.3039C12.2712 10.2964 12.3002 10.2944 12.3287 10.2982C12.3572 10.3019 12.3847 10.3114 12.4095 10.3259ZM6.16154 8.29341C6.14004 7.45991 6.23904 6.87841 7.02854 6.41441C7.34735 6.22677 7.716 6.14133 8.08485 6.16958C8.45369 6.19782 8.80503 6.33841 9.09154 6.57241L6.16154 8.29341Z" fill="white"/>
</g>
<defs>
<clipPath id="clip0_2_3480">
<rect width="16" height="16" fill="white" transform="translate(0.0195312)"/>
</clipPath>
</defs>
</svg>
