<svg width="20" height="16" viewBox="0 0 20 16" fill="none" xmlns="http://www.w3.org/2000/svg">
<g clip-path="url(#clip0_2_3487)">
<path d="M14.1199 5.5157C13.7459 5.5157 13.3873 5.66426 13.1229 5.92869C12.8584 6.19313 12.7099 6.55178 12.7099 6.92575C12.7099 7.29972 12.8584 7.65838 13.1229 7.92281C13.3873 8.18725 13.7459 8.33581 14.1199 8.33581C14.4939 8.33581 14.8525 8.18725 15.117 7.92281C15.3814 7.65838 15.53 7.29972 15.53 6.92575C15.53 6.55178 15.3814 6.19313 15.117 5.92869C14.8525 5.66426 14.4939 5.5157 14.1199 5.5157ZM14.1199 7.62249C13.9366 7.6203 13.7615 7.54594 13.6326 7.41551C13.5037 7.28508 13.4315 7.10911 13.4315 6.92575C13.4315 6.54421 13.7384 6.22902 14.1199 6.22902C14.5015 6.22902 14.8084 6.54421 14.8084 6.92575C14.8084 7.3073 14.5015 7.62249 14.1199 7.62249ZM5.06237 5.5157C4.6884 5.5157 4.32975 5.66426 4.06531 5.92869C3.80088 6.19313 3.65232 6.55178 3.65232 6.92575C3.65232 7.29972 3.80088 7.65838 4.06531 7.92281C4.32975 8.18725 4.6884 8.33581 5.06237 8.33581C5.43634 8.33581 5.795 8.18725 6.05943 7.92281C6.32387 7.65838 6.47243 7.29972 6.47243 6.92575C6.47243 6.55178 6.32387 6.19313 6.05943 5.92869C5.795 5.66426 5.43634 5.5157 5.06237 5.5157ZM5.06237 7.62249C4.87903 7.6203 4.70394 7.54594 4.57506 7.41551C4.44619 7.28508 4.37392 7.10911 4.37393 6.92575C4.37393 6.54421 4.68083 6.22902 5.06237 6.22902C5.44392 6.22902 5.75081 6.54421 5.75081 6.92575C5.75081 7.3073 5.44392 7.62249 5.06237 7.62249ZM9.12665 9.09061H8.1645V8.12015H9.13495V9.09061H9.12665ZM10.8934 9.09061H9.92292V8.12015H10.8934V9.09061ZM18.4745 12.9475L17.8524 8.10357L17.7446 7.26583L17.7114 6.95893C17.6087 6.02652 17.1696 5.16351 16.4765 4.53144C15.7834 3.89937 14.8836 3.54157 13.9457 3.52503V0.00817871L12.1707 1.0284V0.489257L11.4325 0.928863L10.5948 1.40994V0.762974L9.03542 1.64219V0.431196L7.29358 1.44312V0.729796L4.99602 2.0735V3.54162C4.09932 3.61136 3.25502 3.99162 2.60854 4.61691C1.96206 5.24219 1.55387 6.07335 1.45429 6.96723L1.42111 7.26583C1.38793 7.53954 1.36305 7.82985 1.31328 8.12015L0.691196 12.9558C0.599766 13.5703 0.725415 14.1975 1.04651 14.7293C1.36761 15.2611 1.86407 15.6644 2.45044 15.8697C3.0368 16.075 3.67638 16.0694 4.25909 15.854C4.8418 15.6385 5.33118 15.2267 5.64298 14.6894L7.15258 12.1347C7.34335 11.8112 7.69172 11.6038 8.06497 11.6038H11.1007C11.474 11.6038 11.8224 11.8029 12.0131 12.1347L13.5227 14.6894C13.8345 15.2282 14.3247 15.6412 14.9086 15.857C15.4925 16.0728 16.1335 16.0779 16.7207 15.8713C17.308 15.6647 17.8046 15.2595 18.1248 14.7257C18.4451 14.1918 18.5687 13.5629 18.4745 12.9475ZM17.2884 14.623C17.0843 14.854 16.8283 15.0334 16.5414 15.1463C16.2546 15.2592 15.945 15.3024 15.6382 15.2725C15.3314 15.2425 15.0361 15.1402 14.7765 14.974C14.5168 14.8077 14.3004 14.5823 14.1448 14.3161L12.6352 11.7614C12.4787 11.4953 12.2558 11.2744 11.9882 11.1202C11.7207 10.9661 11.4178 10.8841 11.109 10.8822H8.06497C7.44288 10.8822 6.85398 11.2223 6.53879 11.7614L5.0292 14.3161C4.87619 14.5852 4.66078 14.8136 4.40109 14.9821C4.1414 15.1506 3.84504 15.2543 3.53694 15.2843C3.22884 15.3144 2.91803 15.2701 2.63066 15.155C2.34328 15.0399 2.08776 14.8574 1.8856 14.623C1.69735 14.4083 1.55707 14.156 1.47411 13.8828C1.39115 13.6096 1.36742 13.3219 1.40452 13.0388L2.0266 8.21139C2.07637 7.92109 2.10125 7.62249 2.13443 7.34048L2.16761 7.05017C2.23157 6.49242 2.44374 5.96197 2.78205 5.51396C3.12036 5.06594 3.57248 4.71669 4.09143 4.50251C4.61037 4.28833 5.17721 4.21703 5.73303 4.29601C6.28885 4.375 6.81338 4.6014 7.25211 4.95167C7.87436 5.47674 8.66086 5.76728 9.47502 5.77282H9.71556C10.5035 5.77282 11.2915 5.48252 11.9385 4.95167C12.4926 4.49653 13.1872 4.2474 13.9043 4.24664C14.6766 4.25026 15.4205 4.53806 15.9942 5.05514C16.5679 5.57222 16.9311 6.28238 17.0147 7.05017L17.0479 7.34877L17.1557 8.2031L17.7778 13.0388C17.8441 13.6111 17.6699 14.1917 17.2884 14.623Z" fill="url(#paint0_linear_2_3487)"/>
<path d="M7.7168 13.719C8.64578 14.6314 10.5535 14.6231 11.4659 13.6941" stroke="url(#paint1_linear_2_3487)" stroke-width="8" stroke-miterlimit="10"/>
</g>
<defs>
<linearGradient id="paint0_linear_2_3487" x1="3.39519" y1="3.73239" x2="17.0147" y2="15.9916" gradientUnits="userSpaceOnUse">
<stop stop-color="#8D5AE9"/>
<stop offset="1" stop-color="#63D1DF"/>
</linearGradient>
<linearGradient id="paint1_linear_2_3487" x1="8.43841" y1="12.8895" x2="10.7525" y2="14.9714" gradientUnits="userSpaceOnUse">
<stop stop-color="#7B8DE5"/>
<stop offset="1" stop-color="#70ADE2"/>
</linearGradient>
<clipPath id="clip0_2_3487">
<rect width="18.9694" height="16" fill="white" transform="translate(0.0683594)"/>
</clipPath>
</defs>
</svg>
