<svg width="16" height="16" viewBox="0 0 16 16" fill="none" xmlns="http://www.w3.org/2000/svg">
<g clip-path="url(#clip0_2_3493)">
<path d="M8 16.0002C12.4183 16.0002 16 12.4185 16 8.00024C16 3.58197 12.4183 0.000244141 8 0.000244141C3.58172 0.000244141 0 3.58197 0 8.00024C0 12.4185 3.58172 16.0002 8 16.0002Z" fill="#55DDFF"/>
<path d="M5.91557 5.06024C5.9188 4.11222 6.27535 3.19944 6.91557 2.50024C7.09057 2.32524 7.11057 2.29024 7.11057 2.15024C7.11057 2.01024 7.11057 2.00024 7.00557 2.00024C6.87577 2.01462 6.74713 2.03801 6.62057 2.07024C5.12822 2.42278 3.82541 3.32885 2.97557 4.60524C2.56527 5.21051 2.27658 5.88978 2.12557 6.60524C2.00038 7.26421 1.97008 7.9377 2.03557 8.60524C2.21928 10.0865 2.96365 11.4411 4.11557 12.3902C4.73057 12.8902 5.42057 13.2902 5.42057 13.1102C5.38022 13.0327 5.32599 12.9632 5.26057 12.9052C4.95118 12.5642 4.71978 12.1599 4.58249 11.7204C4.4452 11.2809 4.4053 10.8167 4.46557 10.3602C4.51005 9.79305 4.68704 9.24422 4.9823 8.7579C5.27756 8.27158 5.68286 7.86136 6.16557 7.56024C6.28753 7.47337 6.41628 7.39646 6.55057 7.33024C6.62557 7.33024 6.58057 7.18024 6.39557 6.83024C6.07905 6.29426 5.91321 5.68271 5.91557 5.06024ZM13.6706 6.62024C13.4937 5.75897 13.1298 4.94709 12.6045 4.24205C12.0791 3.53701 11.4053 2.95603 10.6306 2.54024C10.3506 2.38524 10.2106 2.35024 10.2106 2.44524C10.237 2.5252 10.2777 2.59973 10.3306 2.66524C10.6405 3.10552 10.8143 3.62708 10.8306 4.16524C10.8621 4.44583 10.8338 4.72991 10.7476 4.99879C10.6614 5.26766 10.5193 5.51524 10.3306 5.72524C10.2337 5.82799 10.1003 5.88868 9.9592 5.89429C9.81806 5.8999 9.68034 5.84998 9.57557 5.75524C9.37557 5.61024 9.37557 5.51024 9.50057 5.32524C9.76545 4.93569 9.89702 4.47083 9.87557 4.00024C9.895 3.81105 9.87185 3.61991 9.80783 3.44083C9.74381 3.26174 9.64054 3.09924 9.50557 2.96524C9.38279 2.83792 9.22737 2.7468 9.0563 2.70183C8.88524 2.65686 8.7051 2.65977 8.53557 2.71024C8.29315 2.80792 8.07863 2.96403 7.91114 3.16467C7.74365 3.36532 7.62837 3.60427 7.57557 3.86024C7.46092 4.23024 7.39371 4.61331 7.37557 5.00024C7.37927 5.59274 7.52501 6.17571 7.80057 6.70024C7.99282 7.00174 8.23065 7.27161 8.50557 7.50024C8.56057 7.53624 8.60907 7.58024 8.65057 7.63024C8.60224 7.66999 8.54599 7.69897 8.48557 7.71524C8.09915 7.8981 7.75321 8.15642 7.46812 8.475C7.18304 8.79357 6.96457 9.16596 6.82557 9.57024C6.64256 10.0395 6.56077 10.5422 6.58557 11.0452C6.57546 11.2824 6.61468 11.519 6.70075 11.7402C6.78681 11.9614 6.91785 12.1623 7.08557 12.3302C7.27539 12.4945 7.49999 12.6137 7.74249 12.6786C7.98498 12.7436 8.23905 12.7527 8.48557 12.7052C9.14606 12.6558 9.76372 12.3595 10.2156 11.8752C10.4206 11.6552 10.4606 11.6302 10.5006 11.6802C10.5406 11.7302 10.5306 11.7602 10.4556 11.8852C9.98079 12.6962 9.21885 13.2993 8.32057 13.5752C8.14557 13.6202 8.07057 13.6552 8.07057 13.6952C8.07057 13.8252 9.16557 13.6452 9.83057 13.4102C10.6788 13.1003 11.4468 12.6045 12.0784 11.959C12.71 11.3136 13.1891 10.535 13.4806 9.68024C13.6962 9.08499 13.7897 8.45242 13.7556 7.82024C13.7784 7.41826 13.7498 7.015 13.6706 6.62024Z" fill="white"/>
</g>
<defs>
<clipPath id="clip0_2_3493">
<rect width="16" height="16" fill="white" transform="translate(0 0.000244141)"/>
</clipPath>
</defs>
</svg>
