<svg width="16" height="16" viewBox="0 0 16 16" fill="none" xmlns="http://www.w3.org/2000/svg">
<g clip-path="url(#clip0_2_3497)">
<path fill-rule="evenodd" clip-rule="evenodd" d="M7.90566 2.58309C7.77126 3.04967 7.13763 3.68521 6.30432 4.21899L6.27168 4.25163C6.23903 4.35148 6.40608 4.61837 6.60577 4.51852C7.56581 3.8849 8.30696 3.14951 8.44136 2.61573C8.54121 2.18179 8.27432 1.9821 7.70789 1.94754C7.52934 1.94177 7.35063 1.9527 7.17411 1.98018H7.03971C7.67333 1.94754 8.04007 2.14723 7.90758 2.58117L7.90566 2.58309Z" fill="#1D1D1D"/>
<path fill-rule="evenodd" clip-rule="evenodd" d="M10.3413 3.2179C10.0418 4.35267 7.80489 6.12106 5.33568 7.18862C4.91398 7.37802 4.47806 7.53403 4.03194 7.6552C3.99189 7.66537 3.9566 7.68912 3.9321 7.7224C3.83226 7.85681 3.8649 8.18898 4.09915 8.15634C4.53308 8.02833 5.0003 7.86129 5.5008 7.6552C8.10443 6.55499 10.5084 4.6522 10.8079 3.45599C10.8668 3.29665 10.8615 3.12065 10.7931 2.96516C10.7246 2.80967 10.5985 2.68686 10.4412 2.62268C10.2741 2.55547 10.0744 2.45563 9.90738 2.38843C9.99199 2.41279 10.0708 2.45412 10.1389 2.5099C10.207 2.56568 10.2631 2.63473 10.3037 2.71287C10.3443 2.791 10.3686 2.87658 10.375 2.9644C10.3815 3.05221 10.37 3.14042 10.3413 3.22366V3.2179Z" fill="#1D1D1D"/>
<path fill-rule="evenodd" clip-rule="evenodd" d="M13.4116 5.8221C13.4141 5.69658 13.3912 5.57186 13.3444 5.45536L13.2772 5.32096L13.043 4.95422C13.1151 5.07522 13.1498 5.21484 13.1428 5.35552C13.1964 5.52878 13.2875 5.6881 13.4097 5.8221H13.4116Z" fill="#1D1D1D"/>
<path fill-rule="evenodd" clip-rule="evenodd" d="M13.6791 6.78805C13.345 7.99002 11.2771 9.79297 8.77331 11.0948C8.73856 11.106 8.70671 11.1247 8.68005 11.1497C8.65339 11.1746 8.63257 11.2051 8.61908 11.239C8.60559 11.273 8.59977 11.3095 8.60204 11.3459C8.6043 11.3823 8.6146 11.4178 8.63218 11.4498C8.64976 11.4818 8.6742 11.5095 8.70375 11.531C8.7333 11.5524 8.76722 11.5671 8.80309 11.5739C8.83896 11.5807 8.87589 11.5795 8.91124 11.5703C8.94659 11.5612 8.97948 11.5444 9.00756 11.521C11.4768 10.2192 13.5121 8.48348 13.8078 7.28151C13.8666 7.12107 13.8779 6.94708 13.8404 6.78037C13.8078 6.61332 13.706 6.37907 13.6733 6.20435C13.7435 6.38994 13.7435 6.59478 13.6733 6.78037L13.6791 6.78805Z" fill="#1D1D1D"/>
<path fill-rule="evenodd" clip-rule="evenodd" d="M11.576 10.6262C11.5171 10.679 11.4711 10.7447 11.4416 10.8182C11.409 10.9526 11.5088 11.1523 11.7085 11.0102C12.9431 10.1097 13.8437 9.14194 14.0126 8.40655C14.0382 8.30821 14.0492 8.20664 14.0453 8.1051V7.91309L14.0165 7.52332C14.0209 7.65789 14.01 7.79253 13.9838 7.92461C13.7918 8.69264 12.8491 9.693 11.5818 10.6281L11.576 10.6262Z" fill="#1D1D1D"/>
<path fill-rule="evenodd" clip-rule="evenodd" d="M4.70232 4.51986C5.00058 4.39524 5.28991 4.25025 5.56827 4.08592C5.5804 4.07565 5.59015 4.06285 5.59684 4.04843C5.60353 4.034 5.60699 4.01829 5.60699 4.0024C5.60699 3.9865 5.60353 3.97079 5.59684 3.95636C5.59015 3.94194 5.5804 3.92915 5.56827 3.91887C5.54643 3.88825 5.51764 3.86323 5.48427 3.84587C5.45089 3.82852 5.41388 3.81932 5.37626 3.81903C5.14968 3.95426 4.91571 4.0767 4.67543 4.18576C3.9074 4.51986 3.30642 4.5525 3.17393 4.35281C3.15125 4.31872 3.13654 4.27996 3.13089 4.23941C3.12524 4.19886 3.1288 4.15755 3.14129 4.11856C3.18764 3.99794 3.25241 3.88524 3.3333 3.78447L3.79988 3.31789C4.24734 2.99948 4.72831 2.73099 5.23418 2.51722C5.31186 2.44526 5.4024 2.38859 5.50107 2.35017C6.2691 2.11592 6.77024 2.18312 6.66847 2.54218C6.62959 2.69472 6.54838 2.83316 6.43423 2.94155C6.50286 2.98502 6.57991 3.01349 6.66033 3.02507C6.74074 3.03665 6.82269 3.03109 6.9008 3.00876C7.04135 2.86967 7.14439 2.69727 7.20034 2.50762C7.33474 2.07368 6.79904 1.93159 5.99837 2.17352C5.93285 2.19133 5.86868 2.21379 5.80636 2.24072L5.61435 2.30793C5.55398 2.3396 5.48929 2.36224 5.42234 2.37513C5.35522 2.40203 5.29091 2.43547 5.23034 2.47497C5.16313 2.50762 5.13049 2.50762 5.06329 2.54218C4.99609 2.57674 4.96345 2.57482 4.89624 2.60938C4.84373 2.6477 4.78782 2.68113 4.7292 2.70922L4.59479 2.77643C4.54752 2.79209 4.50287 2.81475 4.46231 2.84363C4.41081 2.86586 4.36538 2.90009 4.32982 2.94347C4.2793 2.96827 4.23374 3.00211 4.19541 3.04332C4.12821 3.07596 4.12821 3.11052 4.06101 3.14316C4.01051 3.16799 3.96496 3.20183 3.9266 3.24301C3.87613 3.26787 3.83059 3.3017 3.7922 3.34285C3.725 3.41005 3.69235 3.41005 3.62515 3.47725C3.55795 3.54446 3.52531 3.54446 3.45811 3.61166C3.29125 3.71921 3.14441 3.855 3.02417 4.01296C2.9383 4.09697 2.87265 4.19939 2.83216 4.31249C2.83216 4.34513 2.79952 4.37969 2.79952 4.41233V4.47954C2.79125 4.55911 2.80245 4.6395 2.83216 4.71378C3.02417 4.98068 3.7922 4.90579 4.73496 4.52178L4.70232 4.51986Z" fill="#1D1D1D"/>
<path fill-rule="evenodd" clip-rule="evenodd" d="M2.06323 5.62046V5.68767C2.06648 5.71303 2.07795 5.73663 2.09587 5.75487C2.28788 5.98912 2.76406 6.02176 3.09623 5.94688C4.26364 5.81439 4.2982 5.61278 4.2982 5.4803C4.2982 5.4803 4.2982 5.24605 4.16379 5.24605C3.22872 5.54558 2.56245 5.54558 2.36084 5.27869C2.31148 5.16297 2.30005 5.03458 2.3282 4.91196C2.36613 4.80947 2.41038 4.70944 2.46069 4.61242C2.49333 4.54522 2.56053 4.47994 2.62773 4.37817L2.52789 4.47802C2.48166 4.54967 2.42541 4.61433 2.36084 4.67003C2.31244 4.73143 2.26757 4.79554 2.22644 4.86203C2.1938 4.92924 2.12659 5.02908 2.09203 5.09628C2.05747 5.16349 2.05939 5.19613 2.02483 5.26333C2.02711 5.28135 2.02536 5.29965 2.01971 5.31691C2.01407 5.33418 2.00467 5.34998 1.99219 5.36317C2.01006 5.44248 2.0325 5.5207 2.05939 5.59742L2.06323 5.62046Z" fill="#1D1D1D"/>
<path fill-rule="evenodd" clip-rule="evenodd" d="M5.13578 6.52848C7.37074 5.58764 9.40795 3.98438 9.67292 2.95138C9.77276 2.58464 9.64028 2.31775 9.27162 2.21791C9.19488 2.19106 9.11667 2.16863 9.03737 2.15071C8.97054 2.13025 8.90163 2.11737 8.83192 2.1123C8.90117 2.12886 8.96595 2.16038 9.02171 2.20464C9.07748 2.24891 9.12287 2.30485 9.15471 2.36853C9.18655 2.43221 9.20407 2.50209 9.20602 2.57326C9.20797 2.64443 9.19432 2.71516 9.16602 2.78049C8.89913 3.71557 7.06353 5.18443 5.02825 6.04462C3.42691 6.71281 2.1923 6.81265 1.8582 6.37872C1.81294 6.31087 1.78341 6.23376 1.77179 6.15303C1.76016 6.07231 1.76672 5.99 1.791 5.91214C1.82364 5.84493 1.82364 5.77773 1.8582 5.72013C1.791 5.88718 1.69116 6.12143 1.62395 6.29615C1.62395 6.32879 1.59131 6.36335 1.59131 6.396C1.59131 6.42864 1.55867 6.49584 1.55867 6.5304C1.53895 6.60019 1.53778 6.67393 1.5553 6.74431C1.57281 6.81469 1.60839 6.87928 1.65852 6.9317C1.99837 7.38868 3.36546 7.29651 5.13578 6.52848Z" fill="#1D1D1D"/>
<path fill-rule="evenodd" clip-rule="evenodd" d="M1.29748 9.02437C1.29521 9.04239 1.29695 9.06069 1.3026 9.07796C1.30824 9.09522 1.31764 9.11102 1.33012 9.12422V9.19142C1.33012 9.21638 1.36276 9.21638 1.36276 9.25862L1.33012 9.21638C1.36276 9.24902 1.36276 9.31622 1.39733 9.34887C1.8639 9.98441 3.6323 9.85961 5.90183 8.88997C8.80498 7.65536 11.4432 5.58744 11.8099 4.22418C11.8606 4.08111 11.8694 3.92656 11.8354 3.77864C11.8014 3.63071 11.726 3.49554 11.6179 3.38895L11.351 3.1547L11.159 3.02222C11.2587 3.08586 11.3392 3.17539 11.392 3.28124C11.4447 3.3871 11.4677 3.50529 11.4585 3.6232C11.3587 5.72568 3.21564 10.7275 1.38004 8.79588C1.29584 8.67871 1.24899 8.53884 1.24564 8.39459C1.23986 8.57314 1.25079 8.75185 1.27828 8.92837V8.96101C1.29713 8.97858 1.30877 9.00253 1.31092 9.02821L1.29748 9.02437Z" fill="#1D1D1D"/>
<path fill-rule="evenodd" clip-rule="evenodd" d="M6.43592 9.98485C9.50805 8.68304 12.3094 6.48071 12.7107 5.0445C12.7567 4.91782 12.7716 4.78197 12.7542 4.64834C12.7369 4.5147 12.6877 4.38718 12.6109 4.27647C12.4863 4.12358 12.3523 3.97865 12.2096 3.84253C12.4016 4.03454 12.4438 4.30911 12.3766 4.6432C12.0099 6.04486 9.23923 8.21454 6.23239 9.48179C3.86686 10.4937 2.06391 10.6607 1.56469 9.98485C1.50406 9.92149 1.46856 9.83822 1.46484 9.75061C1.50468 9.94686 1.56055 10.1395 1.63189 10.3266V10.4265C1.66453 10.4591 1.66453 10.4937 1.69909 10.5263C2.13303 11.1945 4.00318 11.0275 6.43784 9.99254L6.43592 9.98485Z" fill="#1D1D1D"/>
<path fill-rule="evenodd" clip-rule="evenodd" d="M2.16609 11.661C2.16609 11.6283 2.13344 11.6283 2.13344 11.5938C2.13162 11.6069 2.13376 11.6203 2.13957 11.6323C2.14538 11.6443 2.15461 11.6542 2.16609 11.661Z" fill="#1D1D1D"/>
<path fill-rule="evenodd" clip-rule="evenodd" d="M7.03657 11.1596C8.87216 10.3589 10.6406 9.25676 11.8368 8.18919C11.876 8.14455 11.9029 8.09037 11.9147 8.03208C11.9265 7.97379 11.9228 7.91343 11.904 7.85702C11.8934 7.82431 11.8758 7.79431 11.8524 7.76917C11.829 7.74402 11.8003 7.72433 11.7684 7.71151C11.7365 7.69868 11.7022 7.69303 11.6679 7.69495C11.6336 7.69687 11.6001 7.70631 11.5699 7.72261C10.1316 8.9531 8.51263 9.95494 6.76967 10.693C4.30045 11.6953 2.39766 11.8623 1.89844 11.1596C1.95695 11.2527 2.00218 11.3535 2.03284 11.4591C2.0361 11.4844 2.04756 11.5081 2.06548 11.5263C2.06548 11.5589 2.09813 11.5589 2.09813 11.5935C2.09813 11.5608 2.06548 11.5608 2.06548 11.5263C2.06548 11.5589 2.09813 11.5589 2.09813 11.5935C2.5647 12.3615 4.50014 12.2271 7.03657 11.1596Z" fill="#1D1D1D"/>
<path fill-rule="evenodd" clip-rule="evenodd" d="M4.96898 12.9951C5.10339 12.9624 5.06883 12.8607 5.03619 12.8031C4.99614 12.7428 4.94154 12.6936 4.87744 12.66C4.81333 12.6265 4.7418 12.6096 4.66945 12.6111C3.63453 12.7781 2.90106 12.6783 2.59961 12.3096V12.2616C2.67168 12.3327 2.73604 12.4112 2.79162 12.4958C2.85882 12.563 2.92602 12.6629 2.98362 12.7301C3.25052 13.0642 3.94366 13.164 4.95362 12.997L4.96898 12.9951Z" fill="#1D1D1D"/>
<path fill-rule="evenodd" clip-rule="evenodd" d="M7.87201 13.1294C7.92075 13.116 7.9622 13.0838 7.98736 13.0399C8.01253 12.9961 8.01937 12.9441 8.00642 12.8952C7.96456 12.8309 7.89988 12.7848 7.82542 12.7663C7.75096 12.7478 7.67224 12.7582 7.60512 12.7953C5.60248 13.596 4.06834 13.7285 3.5 13.2619C3.66362 13.3749 3.8195 13.4987 3.96658 13.6325C4.5426 14.0319 6.00186 13.8668 7.87201 13.1333V13.1294Z" fill="#1D1D1D"/>
<path fill-rule="evenodd" clip-rule="evenodd" d="M4.63477 14.0306C4.81916 14.106 4.99759 14.1952 5.16855 14.2975C5.80217 14.5644 7.13663 14.3647 8.80709 13.6638C11.3416 12.5963 13.6457 10.753 13.9452 9.60096C13.9429 9.58294 13.9447 9.56464 13.9503 9.54738C13.956 9.53011 13.9654 9.51432 13.9779 9.50112C14.0105 9.36671 14.0105 9.16703 14.0451 8.99998V8.89246C13.711 11.1965 6.86974 14.9657 4.63669 14.0325L4.63477 14.0306Z" fill="#1D1D1D"/>
<path fill-rule="evenodd" clip-rule="evenodd" d="M9.10695 13.9305C7.7053 14.5315 6.53789 14.7312 5.90234 14.5642C6.06939 14.5968 6.33628 14.664 6.50333 14.6967C8.2314 14.9636 12.6476 12.7939 13.5788 10.8258C13.646 10.6587 13.7132 10.4264 13.7708 10.2498C13.4406 11.3288 11.3765 12.9628 9.10695 13.9305Z" fill="#1D1D1D"/>
<path fill-rule="evenodd" clip-rule="evenodd" d="M12.1452 12.7282C11.3634 13.3466 10.4986 13.8521 9.57617 14.2297C8.64109 14.631 7.8481 14.8058 7.30664 14.7635H7.97483C8.59768 14.6885 9.20557 14.5196 9.77778 14.2624C10.5867 13.9095 11.349 13.4581 12.0473 12.9183C12.1472 12.8511 12.1798 12.7513 12.2144 12.7513C12.2144 12.7186 12.247 12.7186 12.247 12.6841V12.663C12.1798 12.6956 12.1472 12.6956 12.1472 12.7302L12.1452 12.7282Z" fill="#1D1D1D"/>
<path fill-rule="evenodd" clip-rule="evenodd" d="M1.29823 7.75577V7.92282C1.29641 7.936 1.29854 7.94941 1.30435 7.96138C1.31017 7.97334 1.31939 7.98331 1.33087 7.99002V8.02267C1.33087 8.06491 1.36352 8.06491 1.36352 8.08987V8.12251C1.42616 8.20332 1.50623 8.26895 1.59777 8.31452C1.63114 8.30249 1.65932 8.27927 1.67752 8.24882C1.69572 8.21837 1.70282 8.18256 1.69761 8.14747C1.71662 8.02439 1.70542 7.89853 1.66497 7.78074C1.56709 7.74564 1.48435 7.67781 1.43072 7.58873C1.35849 7.46778 1.32374 7.32813 1.33087 7.18743C1.33845 7.13115 1.34935 7.07537 1.36352 7.02039V7.08759L1.33087 7.32184L1.26367 7.65593C1.29631 7.65593 1.29631 7.72313 1.29631 7.75577H1.29823Z" fill="#1D1D1D"/>
<path fill-rule="evenodd" clip-rule="evenodd" d="M13.8782 12.229C13.8118 12.18 13.729 12.1588 13.6472 12.1699C13.5654 12.181 13.4912 12.2236 13.4404 12.2885C12.8483 13.1488 12.0758 13.8695 11.1766 14.4006C10.1201 15.0081 8.92381 15.3304 7.70513 15.3357H7.68016C6.58207 15.3373 5.49892 15.0812 4.51782 14.588C3.53672 14.0948 2.68505 13.3782 2.0313 12.4959H1.99866C1.99866 12.4873 1.99522 12.479 1.9891 12.4728C1.98298 12.4667 1.97467 12.4633 1.96602 12.4633L1.93338 12.4306C1.9202 12.4324 1.90678 12.4303 1.89482 12.4245C1.88286 12.4187 1.87289 12.4095 1.86617 12.398H1.67417C1.66099 12.3962 1.64757 12.3983 1.63561 12.4041C1.62365 12.4099 1.61368 12.4191 1.60696 12.4306H1.56472V12.4613C1.55606 12.4613 1.54776 12.4648 1.54164 12.4709C1.53552 12.477 1.53208 12.4853 1.53208 12.494L1.49944 12.5266C1.50126 12.5398 1.49913 12.5532 1.49332 12.5652C1.48751 12.5772 1.47828 12.5871 1.4668 12.5938V13.9628C1.4668 14.0515 1.502 14.1364 1.56465 14.1991C1.62731 14.2617 1.71228 14.2969 1.80089 14.2969C1.8455 14.2998 1.89019 14.293 1.932 14.2772C1.97381 14.2615 2.01178 14.2369 2.04338 14.2053C2.07498 14.1737 2.0995 14.1358 2.11529 14.094C2.13108 14.0521 2.1378 14.0075 2.13498 13.9628V13.5961C2.85527 14.3591 3.72452 14.9662 4.68891 15.3797C5.65331 15.7932 6.69231 16.0043 7.74161 16H7.77425C9.10099 15.997 10.4028 15.6397 11.5453 14.9651C12.5421 14.4075 13.3897 13.6178 14.0164 12.663C14.0519 12.5869 14.0579 12.5003 14.033 12.42C14.0082 12.3398 13.9543 12.2717 13.882 12.229H13.8782Z" fill="#407BA4"/>
<path fill-rule="evenodd" clip-rule="evenodd" d="M7.37029 1.01607V0.948871C7.37211 0.935697 7.36998 0.922279 7.36417 0.910316C7.35836 0.898353 7.34913 0.888383 7.33765 0.881668C7.33866 0.867433 7.3351 0.853247 7.32751 0.841164C7.31992 0.829082 7.30867 0.819731 7.29541 0.814466L7.26277 0.781824C7.26277 0.749183 7.23013 0.749183 7.19556 0.749183L7.16292 0.716542L6.0032 0.0483551C5.96663 0.0253542 5.92554 0.0104816 5.88273 0.00474495C5.83991 -0.000991742 5.79636 0.00254146 5.75503 0.0151052C5.71369 0.027669 5.67554 0.0489697 5.64316 0.0775644C5.61078 0.106159 5.58492 0.14138 5.56734 0.18084C5.54473 0.217463 5.53023 0.258501 5.52481 0.301195C5.51939 0.343889 5.52318 0.387249 5.53591 0.428359C5.54864 0.469469 5.57003 0.507376 5.59863 0.539531C5.62724 0.571686 5.6624 0.597343 5.70174 0.614778L6.06848 0.806785C5.27256 0.983885 4.50759 1.279 3.79895 1.68234C2.66664 2.35884 1.72507 3.3123 1.06284 4.45301C0.414105 5.54682 0.049786 6.78575 0.00316404 8.05662C-0.0434579 9.32748 0.229103 10.5898 0.795948 11.7282C0.827306 11.7794 0.871344 11.8217 0.923812 11.851C0.97628 11.8802 1.03541 11.8955 1.09548 11.8952C1.14209 11.9001 1.18894 11.8885 1.22797 11.8626C1.26798 11.8459 1.30384 11.8207 1.33301 11.7886C1.36219 11.7566 1.38395 11.7185 1.39678 11.6771C1.4096 11.6357 1.41317 11.592 1.40722 11.549C1.40127 11.5061 1.38596 11.465 1.36237 11.4286C0.571146 9.82716 0.417113 7.98509 0.931379 6.27443C1.44564 4.56378 2.58989 3.112 4.13304 2.21228C5.0276 1.68529 6.03439 1.37799 7.07076 1.31561C7.08878 1.31788 7.10708 1.31614 7.12434 1.31049C7.14161 1.30485 7.15741 1.29545 7.1706 1.28296C7.20324 1.25032 7.23781 1.25032 7.27045 1.21576L7.29541 1.18312L7.33765 1.1524V1.11592C7.33583 1.10274 7.33796 1.08933 7.34377 1.07736C7.34958 1.0654 7.35881 1.05543 7.37029 1.04871V1.01607Z" fill="#D37D41"/>
<path fill-rule="evenodd" clip-rule="evenodd" d="M15.7142 10.6259C15.6715 10.5536 15.6034 10.4998 15.5232 10.4749C15.443 10.4501 15.3564 10.456 15.2803 10.4915L14.9769 10.6605C15.3083 9.64279 15.4201 8.56637 15.3049 7.50229C15.1897 6.43821 14.8502 5.41065 14.3087 4.48744C13.6811 3.43005 12.8139 2.53481 11.7771 1.87382C10.7402 1.21282 9.56267 0.804541 8.33918 0.681845C8.29712 0.678146 8.25474 0.683158 8.2147 0.696568C8.17466 0.709979 8.13782 0.7315 8.10647 0.759788C8.07511 0.788076 8.04993 0.822524 8.03249 0.86098C8.01505 0.899436 8.00572 0.941075 8.00509 0.983297C8.0014 1.0252 8.00636 1.06742 8.01965 1.10733C8.03295 1.14725 8.0543 1.184 8.08238 1.21533C8.11046 1.24665 8.14468 1.27187 8.18291 1.28943C8.22114 1.30698 8.26256 1.3165 8.30462 1.31739C9.42685 1.42009 10.5086 1.78829 11.4604 2.39158C12.4122 2.99486 13.2069 3.81593 13.7788 4.78697C14.3352 5.76625 14.6524 6.86318 14.7045 7.98832C14.7565 9.11347 14.542 10.235 14.0783 11.2615V11.4957C14.0762 11.5089 14.0782 11.5224 14.0841 11.5345C14.0899 11.5465 14.0993 11.5564 14.1109 11.5629V11.5956L14.1436 11.6282V11.6608C14.1762 11.6935 14.2108 11.6935 14.2434 11.728H14.4777C14.4863 11.728 14.4946 11.7246 14.5008 11.7185C14.5069 11.7124 14.5103 11.7041 14.5103 11.6954L15.6124 11.0618C15.6749 11.0108 15.7187 10.9405 15.7367 10.8619C15.7548 10.7833 15.7462 10.701 15.7123 10.6278L15.7142 10.6259Z" fill="#E9B520"/>
</g>
<defs>
<clipPath id="clip0_2_3497">
<rect width="15.7485" height="16" fill="white" transform="translate(0 0.000244141)"/>
</clipPath>
</defs>
</svg>
