<svg width="17" height="16" viewBox="0 0 17 16" fill="none" xmlns="http://www.w3.org/2000/svg">
<g clip-path="url(#clip0_2_3498)">
<path d="M8.74805 16.0002C13.1663 16.0002 16.748 12.4185 16.748 8.00024C16.748 3.58197 13.1663 0.000244141 8.74805 0.000244141C4.32977 0.000244141 0.748047 3.58197 0.748047 8.00024C0.748047 12.4185 4.32977 16.0002 8.74805 16.0002Z" fill="#13B5EC"/>
<path fill-rule="evenodd" clip-rule="evenodd" d="M9.34805 6.45024L11.148 5.40024V7.50024L9.34805 6.45024ZM11.148 10.9502L8.74805 12.3502L6.34805 10.9502V8.50024L8.74805 9.90024L11.148 8.50024V10.9502ZM6.34805 5.40024L8.14805 6.45024L6.34805 7.50024V5.40024ZM9.04805 6.95024L10.848 8.00024L9.04805 9.05024V6.95024ZM8.44805 9.05024L6.64805 8.00024L8.44805 6.95024V9.05024ZM10.848 4.90024L8.74805 6.10024L6.64805 4.90024L8.74805 3.65024L10.848 4.90024ZM5.74805 4.70024V11.2502L8.74805 12.9502L11.748 11.2502V4.70024L8.74805 3.00024L5.74805 4.70024Z" fill="white"/>
</g>
<defs>
<clipPath id="clip0_2_3498">
<rect width="16" height="16" fill="white" transform="translate(0.748047 0.000244141)"/>
</clipPath>
</defs>
</svg>
