<svg width="17" height="16" viewBox="0 0 17 16" fill="none" xmlns="http://www.w3.org/2000/svg">
<g clip-path="url(#clip0_2_3499)">
<path d="M8.7501 15.6526C12.9754 15.6526 16.4006 12.2274 16.4006 8.00209C16.4006 3.77682 12.9754 0.351562 8.7501 0.351562C4.52485 0.351562 1.09961 3.77682 1.09961 8.00209C1.09961 12.2274 4.52485 15.6526 8.7501 15.6526Z" stroke="#384A53" stroke-width="109.356" stroke-linejoin="bevel"/>
<path d="M4.59674 13.1694C4.59674 13.1694 5.68654 12.0796 5.12664 11.7396C4.98667 11.4497 4.8467 11.6896 4.70672 12.2095C4.62674 12.5495 4.55675 11.5696 4.76671 11.4997C4.96667 11.4197 4.06683 10.6198 3.88687 10.5498C3.6969 10.4699 4.08683 10.2899 4.58674 10.7598C5.07665 11.2297 5.06665 11.3597 5.12664 11.2897C5.18663 11.2197 5.14664 10.9698 5.05666 10.8598C4.96667 10.7498 4.55675 9.86996 4.61673 9.88996C4.67672 9.90996 5.24662 10.5398 5.4066 10.9598C5.57657 11.3697 5.56656 10.1799 5.56656 10.1799C5.56656 10.1799 5.69654 9.7 5.75653 9.56002C5.81652 9.42005 5.9365 9.87996 5.9365 9.87996C5.9365 9.87996 6.02648 10.4399 6.29644 10.6398C6.56639 10.8398 6.4964 10.3699 6.4964 10.3699L6.39642 8.12029L6.86633 7.70036C6.86633 7.70036 6.81634 9.47004 7.09629 9.37006C7.37624 9.27008 7.42623 8.49022 7.42623 8.49022C7.42623 8.49022 7.6162 7.22045 7.6062 7.15047C7.5962 7.08048 7.84616 6.9405 7.84616 6.9405L8.47604 6.37061C8.47604 6.37061 8.45605 7.0005 8.716 7.13047C8.97595 7.27045 8.98595 6.48059 8.98595 6.48059L9.07594 5.71073C9.07594 5.71073 12.4953 2.96124 13.1852 2.80127C13.7851 3.41116 13.7751 4.42097 13.5251 4.72092C13.2852 5.02086 11.0656 8.01031 11.0656 8.01031C11.0656 8.01031 10.0858 7.94032 9.96578 8.22027C9.8458 8.50022 10.7856 8.43023 10.7856 8.43023L9.23591 10.4898C8.1561 10.0599 6.66637 10.8098 6.4964 11.0797C6.4964 11.0797 6.37642 11.2497 6.73636 11.2697C7.09629 11.2897 9.65584 11.3097 9.65584 11.3097L8.60602 11.5896C8.60602 11.5896 6.56639 11.5697 6.38642 11.4697C6.20645 11.3697 6.31643 11.6396 6.31643 11.6396C6.31643 11.6396 6.67637 12.2695 7.39624 12.4295C8.11611 12.5895 6.67637 12.3495 6.67637 12.3495C6.67637 12.3495 6.10647 12.2095 5.9465 11.7696C5.78653 11.3397 5.75653 11.8896 5.75653 11.8896C5.75653 11.8896 6.04648 12.5595 6.54639 12.6994C7.0363 12.8394 6.25644 12.7094 6.25644 12.7094C6.25644 12.7094 5.58656 12.4495 5.52657 12.2795C5.46658 12.1096 5.3566 12.4695 5.3566 12.4695C5.3566 12.4695 4.76671 13.1894 4.60674 13.2093C4.44677 13.2293 4.59674 13.1694 4.59674 13.1694Z" fill="black"/>
<path d="M7.96542 9.08999C7.96542 9.08999 11.2948 5.05077 12.4646 4.23093C12.5146 4.20094 12.5046 4.26093 12.5046 4.26093C12.5046 4.26093 10.295 7.13037 8.0854 9.11998C7.83545 9.34994 7.96542 9.08999 7.96542 9.08999Z" fill="black"/>
</g>
<defs>
<clipPath id="clip0_2_3499">
<rect width="16" height="16" fill="white" transform="translate(0.748047 0.000244141)"/>
</clipPath>
</defs>
</svg>
