<svg width="17" height="16" viewBox="0 0 17 16" fill="none" xmlns="http://www.w3.org/2000/svg">
<mask id="mask0_2_3501" style="mask-type:alpha" maskUnits="userSpaceOnUse" x="0" y="0" width="17" height="17">
<path fill-rule="evenodd" clip-rule="evenodd" d="M0.492188 0.000244141H16.4922V16.0002H0.492188V0.000244141Z" fill="white"/>
</mask>
<g mask="url(#mask0_2_3501)">
<path fill-rule="evenodd" clip-rule="evenodd" d="M8.49219 15.9997C4.09219 15.9997 0.492188 12.3997 0.492188 7.95972C0.532188 3.55972 4.09219 -0.0402802 8.53219 -0.000280209C12.9322 0.0397198 16.4922 3.59972 16.4922 8.07972C16.4522 12.4397 12.8922 15.9997 8.49219 15.9997Z" fill="#0090FF"/>
<path fill-rule="evenodd" clip-rule="evenodd" d="M9.25234 7.04032L9.01234 8.32032L11.2923 8.64033L11.1323 9.24032L8.89234 8.92032C8.73234 9.44032 8.65234 10.0003 8.45234 10.4803C8.25234 11.0403 8.05234 11.6003 7.81234 12.1203C7.49234 12.8003 6.93234 13.2803 6.17234 13.4003C5.73234 13.4803 5.25234 13.4403 4.89234 13.1603C4.77234 13.0803 4.65234 12.9203 4.65234 12.8003C4.65234 12.6403 4.73234 12.4403 4.85234 12.3603C4.93234 12.3203 5.13234 12.3603 5.25234 12.4003C5.37234 12.5203 5.49234 12.6803 5.57234 12.8403C5.81234 13.1603 6.13234 13.2003 6.45234 12.9603C6.81234 12.6403 7.01234 12.2003 7.13234 11.7603C7.37234 10.8003 7.61234 9.88032 7.81234 8.92032V8.76032L5.69234 8.44032L5.77234 7.84032L7.97234 8.16032L8.25234 6.92032L5.97234 6.56032L6.05234 5.92032L8.41234 6.24032C8.49234 6.00032 8.53234 5.80032 8.61234 5.60032C8.81234 4.88032 9.01234 4.16032 9.49234 3.52032C9.97234 2.88032 10.5323 2.48032 11.3723 2.52032C11.7323 2.52032 12.0923 2.64032 12.3323 2.92032C12.3723 2.96032 12.4523 3.04032 12.4523 3.12032C12.4523 3.28032 12.4523 3.48032 12.3323 3.60032C12.1723 3.72032 11.9723 3.68032 11.8123 3.52032C11.6923 3.40032 11.6123 3.28032 11.4923 3.16032C11.2523 2.84032 10.8923 2.80032 10.6123 3.08032C10.4123 3.28032 10.2123 3.56032 10.0923 3.84032C9.81234 4.68032 9.61234 5.56032 9.33234 6.44032L11.5323 6.76032L11.3723 7.36032L9.25234 7.04032Z" fill="white"/>
</g>
</svg>
