<svg width="17" height="16" viewBox="0 0 17 16" fill="none" xmlns="http://www.w3.org/2000/svg">
<g clip-path="url(#clip0_2_3507)">
<path fill-rule="evenodd" clip-rule="evenodd" d="M8.73633 0.000244141C10.3186 0.000244141 11.8653 0.469436 13.1809 1.34849C14.4965 2.22754 15.5219 3.47697 16.1274 4.93878C16.7329 6.40059 16.8913 8.00912 16.5826 9.56097C16.2739 11.1128 15.512 12.5383 14.3932 13.6571C13.2744 14.7759 11.8489 15.5378 10.2971 15.8465C8.7452 16.1552 7.13667 15.9968 5.67486 15.3913C4.21305 14.7858 2.96362 13.7604 2.08457 12.4448C1.20552 11.1292 0.736328 9.58249 0.736328 8.00024C0.736328 5.87851 1.57918 3.84368 3.07947 2.34339C4.57976 0.8431 6.6146 0.000244141 8.73633 0.000244141Z" fill="#1E9ADA"/>
<path d="M6.94982 4.46827C4.96557 7.51167 3.74675 11.738 3.27138 13.1736C3.00403 10.4635 4.41549 6.77481 5.449 4.59426C4.97363 4.61623 2.43929 4.79495 1.03516 6.24597C1.03516 6.24597 1.79326 3.91673 6.17048 3.2099L6.18513 3.17986C9.61088 -1.82801 12.1818 1.16338 12.1818 1.16338C10.6209 0.902626 9.26149 1.68417 8.10199 2.95646C8.66673 2.93449 12.3232 2.88981 13.3758 5.78378C13.3758 5.78378 11.2575 4.26611 6.94763 4.46534L6.94982 4.46827ZM9.42483 7.95775C9.10979 7.95731 8.8017 8.05033 8.53955 8.22504C8.2774 8.39975 8.07295 8.64829 7.95209 8.93922C7.83123 9.23015 7.79938 9.5504 7.86058 9.85944C7.92177 10.1685 8.07326 10.4524 8.29587 10.6753C8.51848 10.8982 8.80221 11.0501 9.11116 11.1117C9.42012 11.1734 9.7404 11.142 10.0315 11.0215C10.3226 10.901 10.5714 10.6969 10.7465 10.435C10.9216 10.1731 11.015 9.86516 11.015 9.55013C11.0155 9.34106 10.9747 9.13396 10.895 8.94069C10.8153 8.74741 10.6982 8.57178 10.5505 8.42385C10.4027 8.27591 10.2273 8.15859 10.0341 8.07861C9.84094 7.99862 9.63389 7.95755 9.42483 7.95775Z" fill="#FEFEFE"/>
</g>
<defs>
<clipPath id="clip0_2_3507">
<rect width="16" height="16" fill="white" transform="translate(0.736328 0.000244141)"/>
</clipPath>
</defs>
</svg>
