<svg width="17" height="16" viewBox="0 0 17 16" fill="none" xmlns="http://www.w3.org/2000/svg">
<g clip-path="url(#clip0_2_3512)">
<path d="M8.05859 16.0002C12.4769 16.0002 16.0586 12.4185 16.0586 8.00024C16.0586 3.58197 12.4769 0.000244141 8.05859 0.000244141C3.64032 0.000244141 0.0585938 3.58197 0.0585938 8.00024C0.0585938 12.4185 3.64032 16.0002 8.05859 16.0002Z" fill="#7F27FF"/>
<path d="M7.74659 7.00022H4.06859V10.6112C4.06459 10.9807 4.21259 11.3362 4.47859 11.5972C4.74459 11.8582 5.10709 12.0037 5.48359 12.0002H7.74709L7.74659 7.00022ZM7.83159 5.11072H8.22759C8.61959 4.43572 8.97859 3.97672 9.31609 3.72872C9.73209 3.42222 10.1581 3.41972 10.4921 3.74772C10.8041 4.05372 10.8626 4.43772 10.6571 4.80772C10.5991 4.91072 10.5221 5.01172 10.4256 5.11072H11.8796C12.2191 5.11072 12.5586 5.38972 12.5586 5.77722C12.5586 6.11072 12.2741 6.44422 11.8796 6.44422H8.31259V5.55522H7.74659V6.44422H4.23759C3.89859 6.44422 3.55859 6.16522 3.55859 5.77722C3.55859 5.44422 3.84309 5.11072 4.23759 5.11072H5.70759C5.61561 5.02501 5.53374 4.92906 5.46359 4.82472C5.22009 4.45272 5.24959 4.05972 5.56709 3.74772C5.90109 3.41972 6.32709 3.42272 6.74359 3.72872C7.08059 3.97672 7.43959 4.43622 7.83209 5.11072H7.83159ZM7.17409 5.11072C6.88409 4.64922 6.62509 4.33572 6.40409 4.17322C6.19959 4.02322 6.08759 4.02222 5.96709 4.14022C5.84359 4.26172 5.83609 4.36572 5.93959 4.52372C6.05759 4.70422 6.30609 4.90772 6.66409 5.11072H7.17409ZM8.88509 5.11072H9.49509C9.83659 4.91472 10.0621 4.71672 10.1601 4.54072C10.2451 4.38872 10.2271 4.27322 10.0921 4.14072C9.97159 4.02222 9.85959 4.02272 9.65559 4.17322C9.43409 4.33572 9.17459 4.64922 8.88559 5.11072H8.88509ZM8.31259 6.99972H11.9911V10.6112C11.9927 10.7947 11.9572 10.9766 11.8867 11.1461C11.8163 11.3155 11.7123 11.469 11.5811 11.5972C11.3128 11.8595 10.9513 12.0044 10.5761 12.0002H8.31259V6.99972Z" fill="white"/>
</g>
<defs>
<clipPath id="clip0_2_3512">
<rect width="16" height="16" fill="white" transform="translate(0.0585938 0.000244141)"/>
</clipPath>
</defs>
</svg>
