<svg width="17" height="16" viewBox="0 0 17 16" fill="none" xmlns="http://www.w3.org/2000/svg">
<g clip-path="url(#clip0_2_3513)">
<path d="M8.05859 16.0002C12.4769 16.0002 16.0586 12.4185 16.0586 8.00024C16.0586 3.58197 12.4769 0.000244141 8.05859 0.000244141C3.64032 0.000244141 0.0585938 3.58197 0.0585938 8.00024C0.0585938 12.4185 3.64032 16.0002 8.05859 16.0002Z" fill="#008DDE"/>
<path d="M12.0723 8.66314C12.1211 8.66496 12.1698 8.6569 12.2155 8.63946C12.2611 8.62202 12.3028 8.59556 12.338 8.56165C12.3732 8.52774 12.4011 8.48708 12.4203 8.44211C12.4394 8.39713 12.4492 8.34876 12.4492 8.29989C12.4492 8.25102 12.4394 8.20265 12.4203 8.15768C12.4011 8.1127 12.3732 8.07205 12.338 8.03814C12.3028 8.00423 12.2611 7.97776 12.2155 7.96032C12.1698 7.94289 12.1211 7.93483 12.0723 7.93664H11.2423V7.11564H12.9778C13.0266 7.11746 13.0753 7.1094 13.121 7.09196C13.1666 7.07452 13.2083 7.04806 13.2435 7.01415C13.2787 6.98024 13.3066 6.93958 13.3258 6.89461C13.3449 6.84963 13.3547 6.80126 13.3547 6.75239C13.3547 6.70352 13.3449 6.65515 13.3258 6.61018C13.3066 6.5652 13.2787 6.52455 13.2435 6.49064C13.2083 6.45673 13.1666 6.43026 13.121 6.41282C13.0753 6.39539 13.0266 6.38733 12.9778 6.38914H11.2353C11.2 6.00016 11.037 5.63378 10.7716 5.34722C10.5062 5.06066 10.1534 4.87005 9.76826 4.80514V3.93064C9.77007 3.88181 9.76202 3.83311 9.74458 3.78745C9.72714 3.7418 9.70068 3.70013 9.66677 3.66494C9.63286 3.62975 9.5922 3.60176 9.54722 3.58264C9.50225 3.56352 9.45388 3.55366 9.40501 3.55366C9.35614 3.55366 9.30777 3.56352 9.2628 3.58264C9.21782 3.60176 9.17716 3.62975 9.14325 3.66494C9.10934 3.70013 9.08288 3.7418 9.06544 3.78745C9.048 3.83311 9.03995 3.88181 9.04176 3.93064V4.78064H8.22076V2.87014C8.22257 2.82131 8.21452 2.77261 8.19708 2.72695C8.17964 2.6813 8.15318 2.63963 8.11927 2.60444C8.08536 2.56925 8.0447 2.54126 7.99972 2.52214C7.95475 2.50302 7.90638 2.49316 7.85751 2.49316C7.80864 2.49316 7.76027 2.50302 7.7153 2.52214C7.67032 2.54126 7.62966 2.56925 7.59575 2.60444C7.56184 2.63963 7.53538 2.6813 7.51794 2.72695C7.5005 2.77261 7.49245 2.82131 7.49426 2.87014V4.78014H6.67276V3.93014C6.66927 3.83614 6.62947 3.74714 6.56173 3.68187C6.49399 3.61659 6.40358 3.58012 6.30951 3.58012C6.21544 3.58012 6.12503 3.61659 6.05729 3.68187C5.98955 3.74714 5.94975 3.83614 5.94626 3.93014V4.80514C5.56111 4.87005 5.2083 5.06066 4.94291 5.34722C4.67751 5.63378 4.51448 6.00016 4.47926 6.38914H2.42776C2.37892 6.38733 2.33022 6.39539 2.28457 6.41282C2.23892 6.43026 2.19725 6.45673 2.16206 6.49064C2.12687 6.52455 2.09887 6.5652 2.07976 6.61018C2.06064 6.65515 2.05078 6.70352 2.05078 6.75239C2.05078 6.80126 2.06064 6.84963 2.07976 6.89461C2.09887 6.93958 2.12687 6.98024 2.16206 7.01415C2.19725 7.04806 2.23892 7.07452 2.28457 7.09196C2.33022 7.1094 2.37892 7.11746 2.42776 7.11564H4.47276V7.93664H3.64276C3.59392 7.93483 3.54522 7.94289 3.49957 7.96032C3.45392 7.97776 3.41225 8.00423 3.37706 8.03814C3.34187 8.07205 3.31387 8.1127 3.29476 8.15768C3.27564 8.20265 3.26578 8.25102 3.26578 8.29989C3.26578 8.34876 3.27564 8.39713 3.29476 8.44211C3.31387 8.48708 3.34187 8.52774 3.37706 8.56165C3.41225 8.59556 3.45392 8.62202 3.49957 8.63946C3.54522 8.6569 3.59392 8.66496 3.64276 8.66314H4.47276V9.48414H2.89126C2.84242 9.48233 2.79372 9.49038 2.74807 9.50782C2.70242 9.52526 2.66075 9.55173 2.62556 9.58564C2.59037 9.61955 2.56237 9.6602 2.54326 9.70518C2.52414 9.75015 2.51428 9.79852 2.51428 9.84739C2.51428 9.89626 2.52414 9.94463 2.54326 9.98961C2.56237 10.0346 2.59037 10.0752 2.62556 10.1091C2.66075 10.1431 2.70242 10.1695 2.74807 10.187C2.79372 10.2044 2.84242 10.2125 2.89126 10.2106H4.47926C4.51448 10.5996 4.67751 10.966 4.94291 11.2526C5.2083 11.5391 5.56111 11.7297 5.94626 11.7946V12.3596C5.94445 12.4085 5.9525 12.4572 5.96994 12.5028C5.98738 12.5485 6.01384 12.5902 6.04775 12.6253C6.08166 12.6605 6.12232 12.6885 6.1673 12.7076C6.21227 12.7268 6.26064 12.7366 6.30951 12.7366C6.35838 12.7366 6.40675 12.7268 6.45172 12.7076C6.4967 12.6885 6.53736 12.6605 6.57127 12.6253C6.60518 12.5902 6.63164 12.5485 6.64908 12.5028C6.66652 12.4572 6.67457 12.4085 6.67276 12.3596V11.8191H7.49376V13.4646C7.49725 13.5587 7.53705 13.6476 7.60479 13.7129C7.67253 13.7782 7.76294 13.8147 7.85701 13.8147C7.95108 13.8147 8.04149 13.7782 8.10923 13.7129C8.17697 13.6476 8.21677 13.5587 8.22026 13.4646V11.8191H9.04126V12.6691C9.03945 12.718 9.0475 12.7667 9.06494 12.8123C9.08238 12.858 9.10884 12.8997 9.14275 12.9348C9.17666 12.97 9.21732 12.998 9.2623 13.0171C9.30727 13.0363 9.35564 13.0461 9.40451 13.0461C9.45338 13.0461 9.50175 13.0363 9.54672 13.0171C9.5917 12.998 9.63236 12.97 9.66627 12.9348C9.70018 12.8997 9.72664 12.858 9.74408 12.8123C9.76152 12.7667 9.76957 12.718 9.76776 12.6691V11.7951C10.1529 11.7302 10.5057 11.5396 10.7711 11.2531C11.0365 10.9665 11.1995 10.6001 11.2348 10.2111H13.6403C13.6891 10.213 13.7378 10.2049 13.7835 10.1875C13.8291 10.17 13.8708 10.1436 13.906 10.1096C13.9412 10.0757 13.9691 10.0351 13.9883 9.99011C14.0074 9.94513 14.0172 9.89676 14.0172 9.84789C14.0172 9.79902 14.0074 9.75065 13.9883 9.70568C13.9691 9.6607 13.9412 9.62005 13.906 9.58614C13.8708 9.55223 13.8291 9.52576 13.7835 9.50832C13.7378 9.49088 13.6891 9.48283 13.6403 9.48464H11.2428V8.66364H12.0723V8.66314ZM10.6623 10.0541C10.662 10.3683 10.5371 10.6696 10.3149 10.8918C10.0927 11.1139 9.79146 11.2389 9.47726 11.2391H6.23726C5.92306 11.2389 5.6218 11.1139 5.39963 10.8918C5.17746 10.6696 5.05253 10.3683 5.05226 10.0541V6.54514C5.05253 6.23094 5.17746 5.92969 5.39963 5.70751C5.6218 5.48534 5.92306 5.36041 6.23726 5.36014H9.47726C9.79146 5.36041 10.0927 5.48534 10.3149 5.70751C10.5371 5.92969 10.662 6.23094 10.6623 6.54514V10.0536V10.0541Z" fill="white"/>
<path d="M7.0087 6.21745C6.86838 6.2152 6.72804 6.22004 6.5882 6.23195C6.3672 6.25695 6.2047 6.45695 6.1977 6.67395C6.1867 7.16595 6.1957 7.65895 6.1927 8.15095C6.1997 8.40195 6.1757 8.65595 6.2127 8.90445C6.2482 9.12645 6.4652 9.26945 6.6807 9.26895C7.3507 9.27345 8.0207 9.27045 8.6907 9.27095V9.54845H6.5332L6.2557 10.381H8.4027C8.6537 10.374 8.9072 10.398 9.1562 10.3615C9.3782 10.326 9.5207 10.109 9.5202 9.89346C9.5252 9.01695 9.5212 8.14045 9.5227 7.26345C9.5147 7.02845 9.5432 6.78895 9.4957 6.55695C9.4452 6.32045 9.1917 6.20395 8.9677 6.21845H7.4297C7.2897 6.22095 7.1487 6.21795 7.0082 6.21695L7.0087 6.21745ZM7.0252 7.05095H8.6902V8.43845H7.0252V7.05095Z" fill="white"/>
</g>
<defs>
<clipPath id="clip0_2_3513">
<rect width="16" height="16" fill="white" transform="translate(0.0585938 0.000244141)"/>
</clipPath>
</defs>
</svg>
