<svg width="17" height="16" viewBox="0 0 17 16" fill="none" xmlns="http://www.w3.org/2000/svg">
<g clip-path="url(#clip0_2_3517)">
<path d="M8.78125 16.0002C13.1995 16.0002 16.7812 12.4185 16.7812 8.00024C16.7812 3.58197 13.1995 0.000244141 8.78125 0.000244141C4.36297 0.000244141 0.78125 3.58197 0.78125 8.00024C0.78125 12.4185 4.36297 16.0002 8.78125 16.0002Z" fill="#001D57"/>
<path d="M11.0308 2.64429L11.6323 3.24629L10.4938 4.41629C10.7338 4.78129 10.8628 5.21179 10.8628 5.65579C10.8669 6.23998 10.6409 6.80232 10.2338 7.22129C9.93652 7.53529 9.54926 7.74945 9.12528 7.83429V8.85379C9.54717 8.94091 9.93288 9.15355 10.2318 9.46379C10.6401 9.88314 10.8668 10.4465 10.8628 11.0318C10.8667 11.6169 10.64 12.1801 10.2318 12.5993C10.0328 12.8054 9.79433 12.9693 9.53059 13.0811C9.26685 13.193 8.98326 13.2505 8.69678 13.2503C8.4102 13.2512 8.12642 13.1939 7.86259 13.082C7.59876 12.9701 7.36035 12.8059 7.16178 12.5993C6.75479 12.1793 6.52846 11.6166 6.53128 11.0318C6.53128 10.4418 6.75528 9.88229 7.16028 9.46579C7.4576 9.15197 7.84486 8.93799 8.26878 8.85329V7.83329C7.84689 7.74613 7.46119 7.5335 7.16228 7.22329C6.75498 6.80325 6.52846 6.24036 6.53128 5.65529C6.53128 5.06529 6.75528 4.50579 7.16228 4.08779C7.3612 3.88158 7.59966 3.7176 7.8634 3.60566C8.12715 3.49372 8.41076 3.43611 8.69728 3.43629C9.12728 3.43629 9.54078 3.56729 9.89478 3.81079L11.0313 2.64429H11.0308ZM8.69728 9.67279C8.52369 9.6714 8.35168 9.70575 8.19194 9.7737C8.0322 9.84166 7.88816 9.94176 7.76878 10.0678C7.51855 10.3261 7.37945 10.6722 7.38128 11.0318C7.38128 11.3943 7.51878 11.7328 7.76878 11.9953C7.88906 12.1201 8.03327 12.2195 8.1928 12.2873C8.35233 12.3552 8.52391 12.3902 8.69728 12.3903C8.87078 12.3916 9.0427 12.3572 9.20234 12.2893C9.36199 12.2213 9.50595 12.1212 9.62528 11.9953C9.87538 11.7371 10.0145 11.3912 10.0128 11.0318C10.0128 10.6693 9.87528 10.3308 9.62378 10.0663C9.50455 9.94071 9.36078 9.84098 9.2014 9.77329C9.04202 9.7056 8.87043 9.67139 8.69728 9.67279ZM9.62378 6.62779C9.87478 6.36925 10.0144 6.02262 10.0128 5.66229C10.0151 5.48397 9.98199 5.30698 9.91548 5.14152C9.84897 4.97606 9.75033 4.82541 9.62528 4.69829C9.50509 4.57345 9.36096 4.47413 9.20151 4.40626C9.04206 4.33839 8.87057 4.30337 8.69728 4.30329C8.52369 4.3019 8.35168 4.33625 8.19194 4.4042C8.0322 4.47216 7.88816 4.57226 7.76878 4.69829C7.51855 4.95661 7.37945 5.30265 7.38128 5.66229C7.38128 6.02479 7.51878 6.36329 7.76878 6.62579C7.88906 6.75064 8.03327 6.84997 8.1928 6.91784C8.35233 6.9857 8.52391 7.02072 8.69728 7.02079C9.05278 7.02079 9.38078 6.88279 9.62378 6.62779Z" fill="white"/>
</g>
<defs>
<clipPath id="clip0_2_3517">
<rect width="16" height="16" fill="white" transform="translate(0.78125 0.000244141)"/>
</clipPath>
</defs>
</svg>
