<svg width="16" height="16" viewBox="0 0 16 16" fill="none" xmlns="http://www.w3.org/2000/svg">
<g clip-path="url(#clip0_2_3519)">
<path d="M8 16.0002C12.4183 16.0002 16 12.4185 16 8.00024C16 3.58197 12.4183 0.000244141 8 0.000244141C3.58172 0.000244141 0 3.58197 0 8.00024C0 12.4185 3.58172 16.0002 8 16.0002Z" fill="black"/>
<path d="M7.98344 15.1458C11.9298 15.1458 15.129 11.9467 15.129 8.00029C15.129 4.05391 11.9298 0.854736 7.98344 0.854736C4.03706 0.854736 0.837891 4.05391 0.837891 8.00029C0.837891 11.9467 4.03706 15.1458 7.98344 15.1458Z" fill="#FEF102"/>
<path d="M11.3668 5.31958C11.1992 4.93424 11.0401 4.18032 10.6045 4.01278C10.0432 3.79498 9.69139 5.21068 9.60763 5.57089H9.52386C9.38145 4.95937 9.18878 4.08817 8.51862 3.8955C8.20867 5.20231 8.84532 6.61801 9.44009 7.7489C10.0767 7.44733 10.3867 6.49236 10.4453 5.8222H10.5291L11.1992 7.83267C11.7354 7.68189 11.928 7.14576 12.1207 6.6599C12.5396 5.62115 12.8914 4.33948 12.6233 3.22534C11.8191 3.45152 11.5762 4.60754 11.3668 5.31958ZM3.3249 8.00021C4.04532 7.65676 4.38878 6.56775 4.49768 5.8222H4.58145C4.66522 6.18241 4.8914 7.11226 5.34375 7.17089C5.91338 7.24629 6.21496 5.97299 6.25684 5.57089H6.34061C6.5249 6.19917 6.71757 7.02011 7.34585 7.33006C7.5804 6.34995 7.30396 5.31121 6.94375 4.39812C6.8516 4.16356 6.66731 3.52691 6.34061 3.52691C5.81286 3.52691 5.51129 4.92587 5.41914 5.31958H5.33537L4.66522 3.30911C3.48407 3.87037 2.84742 6.86932 3.3249 8.00021ZM2.06836 9.00545C2.93956 12.8253 6.97726 14.9866 10.6129 13.3699C11.9364 12.7835 12.9835 11.7363 13.5867 10.4295C13.7458 10.0945 14.0474 9.47456 13.8715 9.03058C13.6956 8.5866 11.9616 9.3154 11.5343 9.49969C11.4757 9.52482 11.4338 9.58346 11.417 9.65048C11.3919 9.83477 11.5176 10.0107 11.7019 10.0358C11.7102 10.0358 11.7186 10.0358 11.727 10.0358L12.4558 10.0945C11.1406 12.6411 7.58878 13.7636 5.08407 11.728C4.52281 11.2756 4.02019 10.7395 3.68511 10.0945C3.52595 9.78451 3.37517 9.39079 3.09873 9.17299C2.83066 8.97194 2.42857 8.90493 2.06836 9.00545Z" fill="black"/>
</g>
<defs>
<clipPath id="clip0_2_3519">
<rect width="16" height="16" fill="white" transform="translate(0 0.000244141)"/>
</clipPath>
</defs>
</svg>
