<svg width="16" height="16" viewBox="0 0 16 16" fill="none" xmlns="http://www.w3.org/2000/svg">
<g clip-path="url(#clip0_2_3521)">
<path d="M8 16.0002C12.4183 16.0002 16 12.4185 16 8.00024C16 3.58197 12.4183 0.000244141 8 0.000244141C3.58172 0.000244141 0 3.58197 0 8.00024C0 12.4185 3.58172 16.0002 8 16.0002Z" fill="#2AB0FD"/>
<path fill-rule="evenodd" clip-rule="evenodd" d="M12.7574 7.40204C12.8399 7.40104 12.8924 7.41204 12.9254 7.44204C12.9604 7.47404 12.9744 7.52604 12.9819 7.60754C13.2149 10.297 11.1809 12.728 8.48291 12.9775C5.70091 13.235 3.28591 11.2275 3.02191 8.43754C2.76491 5.72804 4.79941 3.27004 7.51491 3.02304C9.05291 2.88304 10.3809 3.36604 11.4989 4.43104C11.5104 4.44204 11.5079 4.48804 11.4949 4.50104C11.2439 4.75682 10.9905 5.01033 10.7349 5.26154C10.7204 5.27554 10.6684 5.27354 10.6524 5.25904C9.49891 4.20204 8.16241 3.88904 6.70091 4.42154C5.22291 4.96004 4.37741 6.07504 4.20991 7.64504C3.98491 9.76954 5.58841 11.642 7.72741 11.8035C9.66641 11.9495 11.4234 10.577 11.7449 8.66104C11.7479 8.64204 11.7049 8.59454 11.6829 8.59454C10.4854 8.59104 9.28791 8.59204 8.09091 8.58754C8.05991 8.58754 8.00241 8.53004 8.00141 8.49854C7.99513 8.16391 7.99513 7.82918 8.00141 7.49454C8.00191 7.46454 8.05541 7.41054 8.08491 7.41004C8.88291 7.40554 11.9979 7.41254 12.7569 7.40154L12.7574 7.40204Z" fill="white"/>
</g>
<defs>
<clipPath id="clip0_2_3521">
<rect width="16" height="16" fill="white" transform="translate(0 0.000244141)"/>
</clipPath>
</defs>
</svg>
