<svg width="17" height="16" viewBox="0 0 17 16" fill="none" xmlns="http://www.w3.org/2000/svg">
<g clip-path="url(#clip0_2_3527)">
<path d="M8.04297 16.0002C12.4612 16.0002 16.043 12.4185 16.043 8.00024C16.043 3.58197 12.4612 0.000244141 8.04297 0.000244141C3.62469 0.000244141 0.0429688 3.58197 0.0429688 8.00024C0.0429688 12.4185 3.62469 16.0002 8.04297 16.0002Z" fill="#1591CA"/>
<path d="M8.3294 7.63625C8.3294 7.63625 8.9929 6.16125 7.6919 4.73625C7.6919 4.73625 6.9519 3.78625 5.4219 3.86125L5.7274 3.74125C5.7784 3.72125 5.8319 3.70725 5.8859 3.70025L6.1869 3.66125L8.3039 3.33625C8.3039 3.33625 9.0524 3.18925 9.6199 3.35125C9.7814 3.39775 9.9284 3.48525 10.0449 3.60425C10.3579 3.92125 10.9864 4.75975 10.5749 6.08625C10.5749 6.08625 10.1664 7.56125 8.6359 7.91125C8.6359 7.91125 8.2529 8.01125 8.3294 7.63625ZM8.2349 8.45825C8.2349 8.45825 9.1914 9.76975 11.1059 9.40025C11.1059 9.40025 12.3169 9.26075 13.0314 7.93175L12.9804 8.25125C12.9719 8.30425 12.9569 8.35625 12.9354 8.40575L12.8164 8.67925L12.0224 10.6293C12.0224 10.6293 11.7699 11.3348 11.3384 11.7308C11.2145 11.8436 11.0637 11.9226 10.9004 11.9603C10.4629 12.0618 9.4064 12.1643 8.4514 11.1413C8.4514 11.1413 7.3649 10.0453 7.8379 8.57625C7.8379 8.57525 7.9449 8.20275 8.2349 8.45825ZM7.5424 7.98475C7.5424 7.98475 5.9074 8.15675 5.2949 9.97225C5.2949 9.97225 4.8229 11.0743 5.6519 12.3373L5.3934 12.1373C5.35043 12.104 5.3118 12.0656 5.2784 12.0228L5.0934 11.7868L3.7514 10.1503C3.7514 10.1503 3.2479 9.58675 3.1094 9.02525C3.0694 8.86425 3.0734 8.69525 3.1204 8.53625C3.2449 8.11275 3.6734 7.16125 5.0519 6.85025C5.0519 6.85025 6.5604 6.46175 7.6329 7.58825C7.6339 7.58825 7.9129 7.86325 7.5429 7.98475H7.5424Z" fill="white"/>
<path opacity="0.5" d="M8.59597 8.07964C8.59597 8.07964 10.226 7.86764 10.791 6.03714C10.791 6.03714 11.2345 4.92364 10.3725 3.68164L10.6365 3.87514C10.68 3.90764 10.72 3.94514 10.7545 3.98664L10.945 4.21764L12.33 5.82064C12.33 5.82064 12.847 6.37064 13.001 6.92964C13.0445 7.08964 13.0445 7.25764 13.001 7.41764C12.8875 7.84414 12.484 8.80664 11.1135 9.15164C11.1135 9.15164 9.61547 9.57664 8.51447 8.47864C8.51547 8.47864 8.22947 8.21064 8.59597 8.07964ZM7.77697 8.38164C7.77697 8.38164 7.07647 9.83964 8.34047 11.2961C8.34047 11.2961 9.05497 12.2636 10.588 12.2261L10.279 12.3386C10.2275 12.3572 10.1739 12.3695 10.1195 12.3751L9.81797 12.4071L7.69297 12.6801C7.69297 12.6801 6.94147 12.8086 6.37797 12.6326C6.21816 12.5822 6.07403 12.4914 5.95947 12.3691C5.65447 12.0441 5.04797 11.1911 5.49347 9.87564C5.49347 9.87564 5.93847 8.41064 7.47797 8.09864C7.47797 8.10014 7.86447 8.00864 7.77697 8.38164ZM7.83147 7.61314C7.83147 7.61314 6.85547 6.31514 4.94697 6.71314C4.94697 6.71314 3.73797 6.86914 3.04297 8.20814L3.08897 7.88764C3.09683 7.83439 3.11127 7.78233 3.13197 7.73264L3.24697 7.45764L4.01197 5.49564C4.01197 5.49564 4.25447 4.78664 4.67997 4.38464C4.80271 4.27026 4.95288 4.18949 5.11597 4.15014C5.55197 4.04164 6.60697 3.92514 7.57597 4.93464C7.57597 4.93464 8.67847 6.01514 8.22697 7.49064C8.22697 7.48964 8.12497 7.86464 7.83147 7.61314Z" fill="white"/>
</g>
<defs>
<clipPath id="clip0_2_3527">
<rect width="16" height="16" fill="white" transform="translate(0.0429688 0.000244141)"/>
</clipPath>
</defs>
</svg>
