<svg width="19" height="16" viewBox="0 0 19 16" fill="none" xmlns="http://www.w3.org/2000/svg">
<g clip-path="url(#clip0_2_3528)">
<path d="M13.2862 9.03267C13.2997 9.03383 13.3127 9.03824 13.3241 9.04551C13.3356 9.05279 13.3451 9.06272 13.3519 9.07445C13.3587 9.08619 13.3625 9.0994 13.3631 9.11294C13.3637 9.12648 13.361 9.13997 13.3552 9.15224L9.41838 15.9607C9.41103 15.9724 9.40087 15.9822 9.38883 15.9891C9.37678 15.996 9.36321 15.9999 9.34933 16.0002H6.94259C6.9286 16.0003 6.91485 15.9966 6.90275 15.9896C6.89064 15.9826 6.88061 15.9725 6.87368 15.9603C6.86675 15.9482 6.86316 15.9344 6.86328 15.9204C6.86341 15.9064 6.86724 15.8927 6.87438 15.8807L10.8112 9.07224C10.8181 9.06026 10.8281 9.0503 10.8401 9.04336C10.852 9.03641 10.8656 9.03273 10.8794 9.03267H13.2862ZM10.946 7.08151C10.9321 7.08112 10.9185 7.0773 10.9065 7.07039C10.8944 7.06349 10.8843 7.05371 10.8769 7.04193L6.87438 0.119823C6.86724 0.107794 6.86341 0.0940864 6.86328 0.0800963C6.86316 0.0661062 6.86675 0.0523334 6.87368 0.0401809C6.88061 0.0280283 6.89064 0.0179301 6.90275 0.0109148C6.91485 0.00389942 6.9286 0.000217596 6.94259 0.000244285H9.34933C9.36321 0.000636536 9.37678 0.00445543 9.38883 0.0113609C9.40087 0.0182664 9.41103 0.028044 9.41838 0.0398232L13.4209 6.96193C13.4281 6.97396 13.4319 6.98767 13.432 7.00166C13.4321 7.01565 13.4285 7.02942 13.4216 7.04157C13.4147 7.05372 13.4047 7.06382 13.3925 7.07084C13.3804 7.07785 13.3667 7.08153 13.3527 7.08151H10.946Z" fill="#E31337"/>
<path d="M11.4227 0.119879C11.4153 0.107478 11.4114 0.0932852 11.4115 0.0788391C11.4115 0.064393 11.4156 0.0502444 11.4231 0.0379262C11.4307 0.025608 11.4414 0.01559 11.4543 0.00895763C11.4671 0.00232523 11.4815 -0.000668647 11.4959 0.000300381H13.906C13.9199 0.000274619 13.9335 0.00392452 13.9455 0.0108777C13.9575 0.0178309 13.9674 0.0278384 13.9742 0.0398793L18.5629 7.96072C18.5699 7.97273 18.5736 7.98639 18.5736 8.0003C18.5736 8.01421 18.5699 8.02787 18.5629 8.03988L13.9742 15.9607C13.9674 15.9728 13.9575 15.9828 13.9455 15.9897C13.9335 15.9967 13.9199 16.0003 13.906 16.0003H11.4959C11.4819 16.0005 11.468 15.9969 11.4558 15.99C11.4436 15.983 11.4334 15.9729 11.4264 15.9607C11.4193 15.9486 11.4157 15.9347 11.4158 15.9207C11.4159 15.9066 11.4197 15.8928 11.4269 15.8807L15.9877 8.0003L11.4227 0.119879ZM9.46393 7.95988C9.47132 7.97268 9.47521 7.9872 9.47521 8.00198C9.47521 8.01677 9.47132 8.03129 9.46393 8.04409L4.85425 15.9607C4.84651 15.972 4.83615 15.9812 4.82404 15.9876C4.81193 15.994 4.79846 15.9973 4.78477 15.9973C4.77109 15.9973 4.75761 15.994 4.74551 15.9876C4.7334 15.9812 4.72303 15.972 4.7153 15.9607L0.0542508 8.04072C0.0468598 8.02792 0.0429688 8.0134 0.0429688 7.99862C0.0429688 7.98384 0.0468598 7.96931 0.0542508 7.95651L4.66393 0.0398793C4.67166 0.02859 4.68203 0.0193553 4.69414 0.0129745C4.70624 0.00659365 4.71972 0.00325893 4.7334 0.00325893C4.74709 0.00325893 4.76057 0.00659365 4.77267 0.0129745C4.78478 0.0193553 4.79515 0.02859 4.80288 0.0398793L9.46393 7.95988Z" fill="#E31337"/>
</g>
<defs>
<clipPath id="clip0_2_3528">
<rect width="18.5263" height="16" fill="white" transform="translate(0.0429688 0.000244141)"/>
</clipPath>
</defs>
</svg>
