<svg width="11" height="16" viewBox="0 0 11 16" fill="none" xmlns="http://www.w3.org/2000/svg">
<g clip-path="url(#clip0_2_3531)">
<path d="M7.05181 5.26353C7.05181 3.22281 6.06808 1.46465 5.31458 0.889067C5.31458 0.889067 5.26226 0.857672 5.26226 0.941393C5.19947 4.88678 3.20061 5.9647 2.0913 7.39843C-0.451745 10.7264 1.91339 14.3683 4.32039 15.038C5.6704 15.4148 4.00643 14.3683 3.79713 12.1706C3.54596 9.50194 7.05181 7.47169 7.05181 5.26353Z" fill="#282E5B"/>
<path d="M8.3695 6.61356C8.35903 6.6031 8.3381 6.6031 8.31717 6.61356C8.31717 6.61356 8.31717 6.61356 8.30671 6.62403C8.26485 7.11589 7.72066 8.18334 7.04042 9.15661C4.7276 12.4636 6.04622 14.0543 6.78925 14.9125C7.21832 15.4148 6.78925 14.9125 7.86717 14.3997C7.95089 14.3578 9.96021 13.2904 10.18 10.8729C10.3997 8.51823 8.90322 7.04264 8.3695 6.61356Z" fill="#059BDC"/>
</g>
<defs>
<clipPath id="clip0_2_3531">
<rect width="9.77778" height="16" fill="white" transform="translate(0.753906 0.000244141)"/>
</clipPath>
</defs>
</svg>
