<svg width="17" height="16" viewBox="0 0 17 16" fill="none" xmlns="http://www.w3.org/2000/svg">
<g clip-path="url(#clip0_2_3532)">
<path d="M8.53125 16.0002C12.9495 16.0002 16.5312 12.4185 16.5312 8.00024C16.5312 3.58197 12.9495 0.000244141 8.53125 0.000244141C4.11297 0.000244141 0.53125 3.58197 0.53125 8.00024C0.53125 12.4185 4.11297 16.0002 8.53125 16.0002Z" fill="#292929"/>
<path fill-rule="evenodd" clip-rule="evenodd" d="M8.03475 9.32877C8.03475 9.09877 8.03575 8.86927 8.03425 8.63977C8.03375 8.57577 8.05225 8.52677 8.11175 8.50077C8.16675 8.47677 8.22425 8.49377 8.27225 8.54977C8.41525 8.71677 8.55725 8.88477 8.69975 9.05277C8.74975 9.11127 8.80025 9.16927 8.84875 9.22977C8.86015 9.24404 8.86679 9.26153 8.86775 9.27977C8.86875 9.52227 8.86925 9.76477 8.86825 10.0068C8.86957 10.1135 8.83062 10.2167 8.75916 10.296C8.68771 10.3752 8.58901 10.4246 8.48275 10.4343C8.37657 10.4411 8.27175 10.4074 8.18938 10.3401C8.10701 10.2727 8.05319 10.1767 8.03875 10.0713C8.03425 10.0438 8.03475 10.0153 8.03475 9.98727V9.32877ZM8.03625 4.82377C8.03575 4.81377 8.03475 4.80427 8.03475 4.79427V3.42827C8.03525 3.21827 8.17925 3.04127 8.37425 3.00677C8.43439 2.99558 8.49626 2.9978 8.55544 3.01329C8.61462 3.02878 8.66965 3.05714 8.7166 3.09635C8.76355 3.13557 8.80127 3.18466 8.82705 3.24014C8.85283 3.29561 8.86605 3.35609 8.86575 3.41727C8.87075 3.88277 8.86775 4.34877 8.86875 4.81427L8.86625 4.83827C8.76925 4.67227 8.63525 4.58927 8.45225 4.58977C8.27125 4.58977 8.13625 4.66977 8.03625 4.82377ZM8.03475 11.1303C8.13675 11.2853 8.27275 11.3643 8.45525 11.3638C8.63725 11.3633 8.76975 11.2803 8.86875 11.1263V12.2833C8.86825 12.3968 8.87175 12.5113 8.86175 12.6233C8.85207 12.7301 8.80133 12.8291 8.7202 12.8993C8.63908 12.9695 8.53389 13.0055 8.42675 12.9998C8.32106 12.9927 8.22198 12.9458 8.14944 12.8687C8.07689 12.7915 8.03627 12.6897 8.03575 12.5838C8.03325 12.1373 8.03475 11.6908 8.03475 11.2438V11.1303ZM8.86875 6.71727V7.54777C8.86875 7.62677 8.84375 7.66977 8.78375 7.69377C8.75271 7.70655 8.71836 7.70888 8.68588 7.7004C8.65341 7.69192 8.62458 7.67309 8.60375 7.64677L8.24175 7.22277C8.17925 7.14977 8.11675 7.07727 8.05525 7.00277C8.04346 6.98863 8.03646 6.97113 8.03525 6.95277C8.03425 6.59577 8.03375 6.23827 8.03525 5.88127C8.03459 5.77583 8.07361 5.674 8.14457 5.596C8.21552 5.51801 8.31322 5.46955 8.41825 5.46027C8.61575 5.43827 8.81175 5.58527 8.85775 5.79227C8.86525 5.82677 8.86775 5.86277 8.86775 5.89827C8.86875 6.17127 8.86875 6.44427 8.86875 6.71727ZM9.73425 5.02877V3.91877C9.73525 3.71777 9.84975 3.55377 10.0278 3.49777C10.2977 3.41227 10.5677 3.61627 10.5693 3.91027C10.5708 4.18727 10.5693 4.46427 10.5693 4.74077V6.13827C10.5693 6.34477 10.4452 6.51177 10.2557 6.56327C10.0092 6.62977 9.75775 6.44827 9.73725 6.18877C9.73542 6.16331 9.73459 6.13779 9.73475 6.11227V5.02877H9.73425ZM7.21225 10.3803V11.6628C7.21412 11.763 7.18029 11.8606 7.11682 11.9382C7.05335 12.0158 6.96436 12.0683 6.86575 12.0863C6.62575 12.1323 6.38625 11.9373 6.37925 11.6878C6.37725 11.6163 6.37875 11.5448 6.37875 11.4733V9.09677C6.37875 8.89727 6.50675 8.72877 6.69275 8.68077C6.7544 8.66521 6.8188 8.66396 6.88101 8.67712C6.94322 8.69027 7.0016 8.71748 7.05169 8.75666C7.10177 8.79583 7.14223 8.84595 7.16997 8.90316C7.19771 8.96038 7.212 9.02318 7.21175 9.08677C7.21325 9.51777 7.21175 9.94927 7.21175 10.3803H7.21225ZM7.21225 5.65727V7.40677C7.21413 7.5038 7.18255 7.59851 7.12282 7.675C7.06309 7.75149 6.97884 7.80508 6.88425 7.82677C6.82365 7.83966 6.76095 7.83893 6.70067 7.82462C6.64039 7.81031 6.58405 7.78277 6.53572 7.74401C6.48738 7.70525 6.44827 7.65623 6.42121 7.6005C6.39415 7.54477 6.37982 7.48372 6.37925 7.42177C6.37675 7.16877 6.37875 6.91627 6.37825 6.66327V3.91027C6.37825 3.70427 6.51225 3.53227 6.70475 3.48877C6.76595 3.47533 6.82939 3.47585 6.89036 3.49027C6.95134 3.50469 7.00828 3.53265 7.05698 3.57208C7.10567 3.61151 7.14487 3.66139 7.17166 3.71803C7.19846 3.77467 7.21216 3.83661 7.21175 3.89927C7.21325 4.34877 7.21175 4.79777 7.21175 5.24727L7.21225 5.65727ZM9.73425 9.75027V7.85027C9.73425 7.66077 9.81525 7.52027 9.98425 7.44127C10.2552 7.31577 10.5592 7.51627 10.5693 7.82277V11.6468C10.5693 11.8558 10.4497 12.0218 10.2612 12.0758C10.0142 12.1468 9.75825 11.9658 9.73725 11.7053C9.73536 11.6786 9.73452 11.652 9.73475 11.6253V9.74927L9.73425 9.75027ZM12.2812 7.81727V10.7873C12.2837 10.8862 12.2515 10.9829 12.1903 11.0607C12.129 11.1385 12.0425 11.1924 11.9458 11.2133C11.6998 11.2668 11.4548 11.0703 11.4478 10.8138V4.85377C11.4478 4.66127 11.5442 4.50777 11.7072 4.43977C11.9822 4.32477 12.2808 4.53177 12.2808 4.83877V7.81677L12.2812 7.81727ZM5.61475 7.81277V10.7873C5.61475 10.9973 5.48475 11.1658 5.28875 11.2123C5.03875 11.2723 4.78825 11.0753 4.78125 10.8128V4.84427C4.78125 4.63977 4.90375 4.47377 5.09125 4.42177C5.15276 4.4056 5.21716 4.40372 5.27951 4.41626C5.34186 4.4288 5.40051 4.45545 5.45099 4.49414C5.50146 4.53284 5.54241 4.58257 5.57071 4.63953C5.59901 4.69649 5.6139 4.75917 5.61425 4.82277C5.61675 5.15027 5.61475 5.47827 5.61475 5.80627V7.81227V7.81277Z" fill="white"/>
</g>
<defs>
<clipPath id="clip0_2_3532">
<rect width="16" height="16" fill="white" transform="translate(0.53125 0.000244141)"/>
</clipPath>
</defs>
</svg>
