<svg width="22" height="16" viewBox="0 0 22 16" fill="none" xmlns="http://www.w3.org/2000/svg">
<g clip-path="url(#clip0_2_3534)">
<path d="M5.95424 2.50024H10.0776C9.58175 3.28149 9.27737 4.1442 9.29633 5.0791C10.5233 5.0916 11.7534 5.0916 12.9804 5.0791C12.9961 4.15045 12.7451 3.26264 12.2084 2.50024H16.36C16.0745 3.09629 15.588 3.64847 15.6351 4.34806C15.6162 7.47587 15.6413 10.6069 15.632 13.7347C16.0399 13.7347 16.451 13.7347 16.8621 13.7378C17.1633 13.1449 17.4301 12.5399 17.6433 11.912C18.8765 11.9433 20.1161 11.8775 21.343 12.0407C20.1286 13.0823 19.4947 14.5631 18.7039 15.912C15.5659 15.9183 12.4279 15.9026 9.28675 15.9214C9.13925 17.0602 9.84529 17.8445 10.6643 18.5002H5.36393C5.82518 17.8947 6.75404 17.5058 6.65685 16.6178C6.6881 13.5936 6.65685 10.5658 6.66622 7.53868H9.35581V9.40222H12.9237V7.26577C10.4416 7.26577 7.95834 7.26577 5.47404 7.26577C4.85598 8.345 4.23883 9.42316 3.62258 10.5002C4.23765 11.5795 4.8557 12.6576 5.47674 13.7347H6.39341V15.9118H3.59133C2.56831 14.1049 1.50768 12.3198 0.509766 10.5002V10.4971C1.51081 8.68066 2.57456 6.89556 3.59133 5.08847C4.63633 5.08847 5.68122 5.08847 6.72622 5.0791C6.73247 4.15358 6.47831 3.26889 5.95424 2.50024ZM9.35591 11.5983V13.7347H12.9238V11.5983H9.35591Z" fill="#56428E"/>
<path d="M15.9047 5.0885H18.6971C19.4628 6.31205 19.99 7.72393 21.0946 8.7031C21.1166 8.77529 21.1571 8.92268 21.1793 8.99477C19.9994 9.14852 18.8043 9.02924 17.6145 9.08852C17.4639 8.43601 17.1658 7.83674 16.8363 7.26268C16.601 7.26268 16.1365 7.2658 15.9043 7.2658L15.9047 5.0885Z" fill="#56428E"/>
</g>
<defs>
<clipPath id="clip0_2_3534">
<rect width="20.8333" height="16" fill="white" transform="translate(0.509766 0.000244141)"/>
</clipPath>
</defs>
</svg>
