<svg width="17" height="16" viewBox="0 0 17 16" fill="none" xmlns="http://www.w3.org/2000/svg">
<g clip-path="url(#clip0_2_3536)">
<path d="M8.34404 15.7818C12.6417 15.7818 16.1256 12.2979 16.1256 8.00029C16.1256 3.70266 12.6417 0.21875 8.34404 0.21875C4.04641 0.21875 0.5625 3.70266 0.5625 8.00029C0.5625 12.2979 4.04641 15.7818 8.34404 15.7818Z" fill="white"/>
<path d="M8.34375 2.67111e-05C9.926 2.67111e-05 11.4727 0.469219 12.7883 1.34827C14.1039 2.22732 15.1293 3.47675 15.7348 4.93856C16.3403 6.40037 16.4987 8.00891 16.19 9.56076C15.8814 11.1126 15.1194 12.5381 14.0006 13.6569C12.8818 14.7757 11.4563 15.5376 9.90447 15.8463C8.35262 16.155 6.74409 15.9966 5.28228 15.3911C3.82047 14.7856 2.57104 13.7602 1.69199 12.4446C0.812942 11.129 0.34375 9.58229 0.34375 8.00003L0.34375 7.91491C0.386827 3.55285 3.95196 -0.0112553 8.34375 2.67111e-05ZM8.51401 0.58054C4.2658 0.581566 0.946827 3.89747 0.929391 7.95388C0.91093 12.0503 4.24119 15.4206 8.34375 15.4062C10.3755 15.399 12.1304 14.68 13.5663 13.2472C15.2002 11.6175 15.9161 9.6185 15.7294 7.32926C15.5987 5.59961 14.8395 3.97759 13.595 2.76926C12.1479 1.33336 10.3879 0.607207 8.51196 0.58054H8.51401Z" fill="#333333"/>
<path d="M15.5308 7.21461C15.3777 5.58288 14.6509 4.05832 13.4795 2.91205C12.0631 1.49051 10.337 0.768458 8.32465 0.765381C6.43631 0.803623 4.63784 1.579 3.31365 2.92578C1.98946 4.27256 1.24462 6.08389 1.23832 7.97261C1.23203 9.86133 1.96478 11.6776 3.27996 13.0332C4.59514 14.3887 6.3884 15.1761 8.27645 15.2269C10.2806 15.2413 12.019 14.5397 13.4344 13.1223C15.06 11.4956 15.7616 9.50897 15.5308 7.21461ZM11.4662 2.37256C11.5098 2.37338 11.5522 2.38711 11.588 2.41201C11.6238 2.43691 11.6514 2.47187 11.6673 2.51247C11.6833 2.55306 11.6868 2.59747 11.6775 2.64008C11.6682 2.68269 11.6465 2.72158 11.6151 2.75183C11.5836 2.78209 11.544 2.80236 11.501 2.81007C11.4581 2.81778 11.4139 2.8126 11.3739 2.79516C11.3339 2.77773 11.3 2.74884 11.2765 2.71214C11.2529 2.67544 11.2408 2.63257 11.2416 2.58897C11.2429 2.53057 11.2673 2.47507 11.3093 2.43454C11.3514 2.39401 11.4078 2.37173 11.4662 2.37256ZM10.4764 1.91205C10.5364 1.91232 10.5938 1.93632 10.6361 1.9788C10.6783 2.02128 10.7021 2.07878 10.7021 2.13871C10.7013 2.16754 10.6948 2.19593 10.683 2.22225C10.6713 2.24858 10.6544 2.27233 10.6335 2.29214C10.6125 2.31195 10.5879 2.32744 10.5609 2.33772C10.534 2.348 10.5053 2.35287 10.4764 2.35205C10.4484 2.35245 10.4206 2.34734 10.3946 2.33699C10.3685 2.32665 10.3448 2.31127 10.3247 2.29175C10.3046 2.27222 10.2885 2.24893 10.2774 2.2232C10.2664 2.19747 10.2604 2.16981 10.26 2.14179V2.13153C10.2606 2.07401 10.2834 2.01895 10.3238 1.97799C10.3642 1.93702 10.4189 1.91338 10.4764 1.91205ZM9.4344 1.62897C9.49096 1.63433 9.54401 1.65878 9.58483 1.6983C9.62565 1.73782 9.65181 1.79005 9.65901 1.84641C9.65506 1.90753 9.6277 1.96477 9.58261 2.00622C9.53753 2.04768 9.4782 2.07015 9.41696 2.06897C9.35946 2.06684 9.30505 2.04242 9.26523 2.00088C9.22541 1.95934 9.20332 1.90394 9.20363 1.84641C9.20629 1.78728 9.23187 1.73151 9.27495 1.69092C9.31802 1.65033 9.37521 1.62811 9.4344 1.62897ZM8.34311 1.53871C8.38648 1.53851 8.42893 1.55116 8.46512 1.57507C8.5013 1.59897 8.52959 1.63306 8.54642 1.67303C8.56325 1.713 8.56786 1.75705 8.55967 1.79964C8.55148 1.84223 8.53086 1.88143 8.50041 1.91231C8.46996 1.94319 8.43105 1.96436 8.38858 1.97314C8.34611 1.98192 8.302 1.97793 8.2618 1.96166C8.2216 1.94539 8.18712 1.91758 8.16271 1.88173C8.1383 1.84589 8.12506 1.80362 8.12465 1.76025C8.12465 1.70203 8.14756 1.64614 8.18845 1.60468C8.22933 1.56322 8.28489 1.53952 8.34311 1.53871ZM7.26517 1.63C7.3216 1.63296 7.37494 1.65671 7.4149 1.69667C7.45486 1.73663 7.47861 1.78997 7.48158 1.84641C7.48158 1.87532 7.47587 1.90394 7.46477 1.93064C7.45368 1.95733 7.43742 1.98158 7.41693 2.00197C7.39644 2.02237 7.37212 2.03851 7.34537 2.04948C7.31862 2.06045 7.28997 2.06603 7.26106 2.06589H7.25286C7.2243 2.06563 7.19608 2.05974 7.1698 2.04856C7.14353 2.03738 7.11971 2.02114 7.09971 2.00076C7.07971 1.98038 7.06392 1.95626 7.05324 1.92977C7.04256 1.90329 7.0372 1.87496 7.03747 1.84641C7.04008 1.78852 7.06465 1.7338 7.1062 1.6934C7.14774 1.653 7.20312 1.62996 7.26106 1.62897L7.26517 1.63ZM6.21081 1.91205C6.26893 1.91286 6.32439 1.93659 6.36511 1.97808C6.40583 2.01956 6.42852 2.07545 6.42824 2.13359C6.42963 2.18965 6.40889 2.24401 6.3705 2.2849C6.33211 2.32578 6.27916 2.34991 6.22311 2.35205H6.21286C6.18373 2.35314 6.15467 2.34845 6.12736 2.33825C6.10006 2.32804 6.07505 2.31252 6.05378 2.29259C6.03251 2.27265 6.0154 2.2487 6.00345 2.22211C5.9915 2.19552 5.98493 2.16683 5.98414 2.13769C5.98364 2.13463 5.98364 2.13151 5.98414 2.12846C5.98703 2.07022 6.01215 2.01532 6.05432 1.97505C6.09649 1.93479 6.1525 1.91224 6.21081 1.91205ZM5.22004 2.37256C5.24893 2.37054 5.27793 2.37423 5.3054 2.38342C5.33286 2.39261 5.35825 2.40712 5.38011 2.42612C5.40197 2.44512 5.41987 2.46824 5.43279 2.49416C5.44571 2.52007 5.4534 2.54828 5.45542 2.57718C5.45744 2.60607 5.45375 2.63507 5.44456 2.66254C5.43537 2.69 5.42087 2.71539 5.40186 2.73725C5.38286 2.7591 5.35975 2.777 5.33383 2.78993C5.30791 2.80285 5.2797 2.81054 5.25081 2.81256H5.22004C5.16429 2.80875 5.11206 2.78392 5.07392 2.74308C5.03577 2.70224 5.01455 2.64844 5.01455 2.59256C5.01455 2.53668 5.03577 2.48288 5.07392 2.44204C5.11206 2.4012 5.16429 2.37637 5.22004 2.37256ZM4.33491 2.99512C4.39306 2.99645 4.44843 3.02028 4.48937 3.06159C4.5303 3.10291 4.55362 3.1585 4.5544 3.21666C4.55413 3.27479 4.53092 3.33046 4.48981 3.37157C4.44871 3.41267 4.39304 3.43588 4.33491 3.43615C4.30694 3.43725 4.27903 3.4328 4.25279 3.42307C4.22654 3.41334 4.20248 3.39852 4.18199 3.37945C4.16149 3.36039 4.14497 3.33746 4.13337 3.31199C4.12177 3.28651 4.11532 3.259 4.1144 3.23102C4.11383 3.22728 4.11383 3.22348 4.1144 3.21974C4.11245 3.16186 4.13346 3.10556 4.17284 3.0631C4.21223 3.02065 4.26679 2.99548 4.32465 2.99307L4.33491 2.99512ZM3.56978 3.76333C3.628 3.76547 3.68303 3.79046 3.72296 3.83288C3.76289 3.87531 3.7845 3.93175 3.78311 3.99C3.78204 4.04803 3.75801 4.10327 3.7163 4.14364C3.67459 4.18401 3.61859 4.2062 3.56055 4.20538C3.50247 4.20357 3.44727 4.17962 3.40627 4.13843C3.36528 4.09724 3.34158 4.04194 3.34004 3.98384C3.34242 3.9247 3.36753 3.86876 3.41014 3.82768C3.45275 3.7866 3.50957 3.76355 3.56876 3.76333H3.56978ZM2.94106 4.65769C2.99696 4.65657 3.05105 4.67744 3.09172 4.7158C3.13238 4.75416 3.15636 4.80695 3.1585 4.86282C3.15952 4.86581 3.15952 4.86905 3.1585 4.87205C3.15932 4.93036 3.13702 4.98662 3.09646 5.02852C3.0559 5.07043 3.0004 5.09456 2.94209 5.09564C2.8824 5.09458 2.82547 5.07032 2.78335 5.02801C2.74123 4.98571 2.71724 4.92866 2.71645 4.86897C2.71857 4.8111 2.74306 4.75632 2.78477 4.71615C2.82647 4.67597 2.88213 4.65355 2.94004 4.65359L2.94106 4.65769ZM2.48158 5.64128C2.54052 5.64209 2.59676 5.66614 2.63805 5.70821C2.67935 5.75027 2.70237 5.80695 2.70209 5.86589V5.87102C2.69694 5.92747 2.67045 5.97983 2.62802 6.01741C2.58559 6.055 2.53042 6.07498 2.47377 6.07328C2.41711 6.07158 2.36324 6.04832 2.32314 6.00826C2.28304 5.9682 2.25974 5.91434 2.25799 5.85769C2.26035 5.79981 2.28489 5.74506 2.32651 5.70478C2.36813 5.66449 2.42365 5.64176 2.48158 5.64128ZM2.1944 6.69051C2.25408 6.69077 2.31127 6.71446 2.35366 6.75647C2.39605 6.79847 2.42026 6.85545 2.42106 6.91512C2.41945 6.97316 2.39512 7.02825 2.35331 7.06853C2.31149 7.10881 2.25553 7.13107 2.19747 7.13051C2.16959 7.13064 2.14196 7.12529 2.11615 7.11474C2.09034 7.1042 2.06686 7.08867 2.04705 7.06905C2.02724 7.04943 2.01149 7.0261 2.00069 7.0004C1.9899 6.97469 1.98427 6.94711 1.98414 6.91923C1.98356 6.86195 2.00528 6.8067 2.04471 6.76516C2.08415 6.72362 2.1382 6.69906 2.19542 6.69666L2.1944 6.69051ZM1.88158 8.00025C1.88308 7.94213 1.90656 7.88673 1.94729 7.84524C1.98803 7.80375 2.04298 7.77924 2.10106 7.77666C2.12989 7.77639 2.15848 7.7818 2.18522 7.79258C2.21195 7.80336 2.2363 7.8193 2.25687 7.8395C2.27744 7.85969 2.29383 7.88373 2.30511 7.91026C2.31639 7.93679 2.32233 7.96527 2.3226 7.9941C2.32539 8.05134 2.30536 8.10735 2.26691 8.14985C2.22845 8.19234 2.17471 8.21785 2.11747 8.22077H2.09491C2.03826 8.21721 1.98499 8.19263 1.94552 8.15184C1.90606 8.11104 1.88325 8.05698 1.88158 8.00025ZM1.98414 9.0823C1.98413 9.02425 2.00691 8.96852 2.04757 8.92708C2.08823 8.88565 2.14353 8.86184 2.20158 8.86077C2.26117 8.86183 2.31799 8.88612 2.35994 8.92846C2.4019 8.97079 2.42567 9.02783 2.42619 9.08743C2.42539 9.11626 2.41893 9.14465 2.40715 9.17097C2.39538 9.1973 2.37853 9.22104 2.35758 9.24086C2.33662 9.26067 2.31197 9.27616 2.28503 9.28644C2.25808 9.29672 2.22938 9.30158 2.20055 9.30077C2.14468 9.30215 2.09055 9.28133 2.04999 9.24289C2.00943 9.20444 1.98575 9.1515 1.98414 9.09564V9.08333V9.0823ZM2.4867 10.352C2.42847 10.3532 2.37213 10.3313 2.3299 10.2912C2.28767 10.251 2.26294 10.1959 2.26106 10.1377C2.26158 10.078 2.28532 10.0208 2.32724 9.97834C2.36917 9.93584 2.42599 9.91133 2.48568 9.91C2.54295 9.91257 2.59712 9.93675 2.63728 9.97767C2.67743 10.0186 2.70059 10.0732 2.70209 10.1305C2.70182 10.1886 2.67861 10.2443 2.6375 10.2854C2.5964 10.3265 2.54073 10.3497 2.4826 10.35L2.4867 10.352ZM2.94517 11.3397C2.88715 11.339 2.83163 11.316 2.79003 11.2756C2.74843 11.2351 2.72393 11.1803 2.72158 11.1223C2.72157 11.0636 2.74474 11.0073 2.78604 10.9656C2.82733 10.924 2.88342 10.9003 2.94209 10.8997H2.94722C3.00311 10.8986 3.05721 10.9195 3.09787 10.9579C3.13853 10.9962 3.16251 11.049 3.16465 11.1049C3.16516 11.1086 3.16516 11.1124 3.16465 11.1161C3.16479 11.1448 3.15926 11.1732 3.1484 11.1997C3.13753 11.2262 3.12154 11.2503 3.10133 11.2706C3.08113 11.2909 3.05711 11.307 3.03066 11.318C3.00422 11.329 2.97586 11.3346 2.94722 11.3346H2.94106L2.94517 11.3397ZM2.94517 9.61666L2.95645 9.57666H5.29491C5.90209 9.57666 5.90209 9.57666 5.90209 8.96128C5.90209 8.44846 5.90209 7.93564 5.90209 7.42282C5.90209 7.25564 5.92465 7.17769 6.12465 7.18589C6.56465 7.20435 7.0067 7.1982 7.4467 7.18589C7.60055 7.18589 7.65183 7.23307 7.65183 7.38384C7.64773 8.24401 7.64773 9.10521 7.65183 9.96743C7.65183 10.1315 7.60055 10.2146 7.42722 10.1982C7.37675 10.1931 7.32589 10.1931 7.27542 10.1982C7.07747 10.2197 7.00978 10.1428 7.00978 9.94897C7.01901 9.32641 7.00978 8.70487 7.00978 8.0823C7.00978 7.91102 6.95645 7.83205 6.77286 7.83205C6.58927 7.83205 6.52876 7.88948 6.53183 8.07205C6.54004 8.69461 6.53183 9.31718 6.53901 9.93871C6.53901 10.1438 6.47645 10.2013 6.2785 10.1982C5.64876 10.1879 5.01696 10.2269 4.39132 10.1808C4.09594 10.1592 3.80978 9.99307 3.52363 9.88025C3.32978 9.80435 3.13696 9.70487 2.94106 9.61461L2.94517 9.61666ZM3.59235 12.2341C3.56284 12.2375 3.53295 12.2351 3.50438 12.2269C3.47582 12.2188 3.44915 12.2051 3.4259 12.1866C3.40265 12.1681 3.38327 12.1452 3.36889 12.1192C3.35451 12.0932 3.3454 12.0646 3.34209 12.0351C3.3411 12.0235 3.3411 12.0119 3.34209 12.0003C3.34566 11.9406 3.37143 11.8845 3.41434 11.8429C3.45724 11.8013 3.51416 11.7773 3.57388 11.7756C3.63374 11.7835 3.68893 11.8122 3.7298 11.8566C3.77067 11.901 3.79462 11.9584 3.79747 12.0187C3.78916 12.0711 3.76506 12.1196 3.72841 12.1579C3.69175 12.1962 3.64429 12.2225 3.59235 12.2331V12.2341ZM4.33081 12.9961C4.2745 12.9961 4.2205 12.9738 4.18068 12.934C4.14087 12.8942 4.1185 12.8401 4.1185 12.7838V12.7736C4.1189 12.7445 4.12503 12.7158 4.13653 12.689C4.14804 12.6623 4.1647 12.6381 4.18556 12.6178C4.20641 12.5975 4.23106 12.5816 4.2581 12.5708C4.28513 12.56 4.31402 12.5547 4.34311 12.5551C4.40127 12.557 4.4565 12.5811 4.49736 12.6225C4.53822 12.664 4.56158 12.7195 4.5626 12.7777C4.56247 12.8064 4.55668 12.8348 4.54558 12.8612C4.53448 12.8877 4.51827 12.9117 4.49789 12.9319C4.47751 12.9521 4.45335 12.968 4.42679 12.9789C4.40024 12.9897 4.3718 12.9953 4.34311 12.9951H4.33491L4.33081 12.9961ZM5.23132 13.6208C5.2033 13.6219 5.17534 13.6174 5.14903 13.6077C5.12273 13.598 5.0986 13.5832 5.07802 13.5641C5.05745 13.5451 5.04083 13.5222 5.02912 13.4967C5.01741 13.4712 5.01084 13.4437 5.00978 13.4156C5.00928 13.4129 5.00928 13.4101 5.00978 13.4074C5.00812 13.3487 5.02971 13.2918 5.06986 13.2489C5.11001 13.2061 5.16547 13.1809 5.22414 13.1787H5.23029C5.28844 13.18 5.34381 13.2039 5.38475 13.2452C5.42569 13.2865 5.449 13.3421 5.44978 13.4003C5.45019 13.429 5.4449 13.4575 5.43422 13.4842C5.42354 13.5108 5.40768 13.5351 5.38755 13.5556C5.36743 13.5761 5.34345 13.5924 5.31698 13.6036C5.29052 13.6148 5.2621 13.6206 5.23337 13.6208H5.23132ZM6.21799 14.0792C6.15998 14.0826 6.10299 14.063 6.05939 14.0245C6.0158 13.9861 5.98912 13.9321 5.98517 13.8741C5.98517 13.8741 5.98517 13.8659 5.98517 13.8618C5.98771 13.8038 6.01204 13.7488 6.05329 13.708C6.09455 13.6671 6.14969 13.6433 6.20773 13.6413C6.26595 13.6415 6.32173 13.6647 6.363 13.7058C6.40427 13.7469 6.4277 13.8025 6.42824 13.8608C6.42963 13.9167 6.40885 13.971 6.37043 14.0117C6.33201 14.0524 6.27907 14.0763 6.22311 14.0782L6.21799 14.0792ZM5.38311 10.7469C5.18824 10.669 5.00158 10.5705 4.81081 10.4813L4.8344 10.4187H7.83029C8.29388 10.4187 8.2344 10.4597 8.24055 10.0085C8.24055 8.67512 8.24055 7.33051 8.24055 5.99205C8.24055 5.77153 8.30106 5.70487 8.52158 5.71307C8.94824 5.72948 9.37491 5.72333 9.8026 5.71307C9.95645 5.71307 10.0252 5.75307 10.0252 5.9182C10.0252 7.57564 10.0252 9.23273 10.0252 10.8895C10.0252 11.0679 9.94927 11.1233 9.78516 11.0946C9.72953 11.0798 9.67243 11.0712 9.61491 11.069C9.34311 11.0782 9.34209 11.0803 9.34209 10.7951V6.69256C9.34209 6.57974 9.38517 6.4341 9.19747 6.40436C8.97799 6.36948 8.91235 6.42076 8.91235 6.65051V10.8187C8.91235 11.1018 8.91234 11.1028 8.62106 11.1028C7.89696 11.1028 7.17388 11.0926 6.44978 11.1028C6.03953 11.1192 5.73183 10.8844 5.38517 10.7469H5.38311ZM7.26517 14.3592C7.20712 14.3612 7.15067 14.34 7.10818 14.3004C7.0657 14.2608 7.04064 14.206 7.0385 14.1479C7.038 14.1452 7.038 14.1425 7.0385 14.1397C7.0379 14.0958 7.05034 14.0526 7.07424 14.0157C7.09815 13.9788 7.13245 13.9498 7.17282 13.9324C7.21319 13.9149 7.25782 13.9099 7.30108 13.9178C7.34433 13.9257 7.38428 13.9462 7.41587 13.9768C7.44746 14.0074 7.46928 14.0467 7.47857 14.0896C7.48787 14.1326 7.48423 14.1774 7.46811 14.2183C7.45199 14.2592 7.42411 14.2944 7.38799 14.3195C7.35187 14.3446 7.30913 14.3584 7.26517 14.3592ZM8.34311 14.4618C8.28345 14.4607 8.22664 14.436 8.18512 14.3932C8.1436 14.3503 8.12075 14.2927 8.12158 14.2331C8.12279 14.1893 8.13689 14.1468 8.16211 14.111C8.18734 14.0752 8.22257 14.0477 8.26339 14.0318C8.3042 14.0159 8.3488 14.0124 8.39159 14.0218C8.43437 14.0312 8.47345 14.0529 8.50392 14.0844C8.53439 14.1158 8.5549 14.1556 8.56289 14.1987C8.57087 14.2417 8.56597 14.2862 8.54881 14.3265C8.53164 14.3668 8.50297 14.4011 8.46638 14.4252C8.42979 14.4492 8.38691 14.462 8.34311 14.4618ZM9.40978 14.3592C9.35329 14.3553 9.30048 14.3298 9.26229 14.2879C9.2241 14.2461 9.20346 14.1912 9.20465 14.1346C9.20573 14.1054 9.21255 14.0767 9.22473 14.0501C9.23691 14.0235 9.25421 13.9995 9.27564 13.9796C9.29707 13.9597 9.32221 13.9442 9.34963 13.9341C9.37704 13.9239 9.40619 13.9192 9.43542 13.9203C9.46465 13.9213 9.49338 13.9282 9.51997 13.9403C9.54656 13.9525 9.57049 13.9698 9.59039 13.9912C9.6103 14.0127 9.62579 14.0378 9.63598 14.0652C9.64617 14.0926 9.65086 14.1218 9.64978 14.151C9.64608 14.2083 9.62006 14.2619 9.5773 14.3003C9.53454 14.3386 9.47845 14.3587 9.42106 14.3561L9.40978 14.3592ZM10.4754 14.0782C10.4196 14.0791 10.3657 14.0581 10.325 14.0198C10.2844 13.9815 10.2604 13.9288 10.258 13.8731V13.8628C10.2582 13.8048 10.2811 13.7493 10.3217 13.7079C10.3623 13.6665 10.4175 13.6426 10.4754 13.6413C10.535 13.6423 10.5918 13.6666 10.6338 13.709C10.6757 13.7513 10.6995 13.8083 10.7 13.8679C10.6974 13.9253 10.6724 13.9794 10.6305 14.0187C10.5885 14.058 10.5329 14.0793 10.4754 14.0782ZM11.4652 13.6187C11.4366 13.6194 11.4082 13.6144 11.3816 13.6041C11.3549 13.5938 11.3306 13.5784 11.3099 13.5587C11.2892 13.539 11.2726 13.5154 11.2611 13.4892C11.2496 13.4631 11.2433 13.435 11.2426 13.4064C11.2423 13.3467 11.2657 13.2894 11.3076 13.2469C11.3495 13.2044 11.4065 13.1803 11.4662 13.1797C11.5245 13.1808 11.58 13.2049 11.6206 13.2469C11.6611 13.2888 11.6834 13.345 11.6826 13.4033C11.684 13.4595 11.6633 13.514 11.6249 13.555C11.5866 13.5961 11.5336 13.6204 11.4775 13.6228H11.4682L11.4652 13.6187ZM11.6508 11.5028C11.6836 11.1767 11.6364 6.59307 11.6375 5.20333C11.6375 5.06897 11.6518 4.94384 11.4457 4.94692C11.2795 4.94692 11.2406 5.00743 11.2406 5.16435C11.2467 5.8823 11.2293 11.2854 11.2293 11.2854V11.9644C11.1523 11.9726 11.0898 11.9838 11.0241 11.9849C10.0847 11.9849 9.14414 12.0033 8.20568 11.9746C7.96978 11.9674 7.73491 11.8177 7.50517 11.7213C7.23843 11.6147 6.98284 11.4821 6.74209 11.3254C6.80363 11.3254 6.86517 11.3141 6.9267 11.3141L10.0734 11.3274C10.5554 11.3274 10.5482 11.3274 10.5482 10.8638V4.52436C10.5482 4.34692 10.5882 4.26487 10.7893 4.27102C11.2447 4.28538 11.7011 4.28025 12.1564 4.27102C12.3093 4.27102 12.3616 4.32333 12.3616 4.47615V11.6926C12.3616 11.9849 12.3616 11.9849 12.06 11.9859C11.5944 11.9859 11.6016 11.9777 11.6498 11.5049L11.6508 11.5028ZM12.3534 12.9941C12.2954 12.9944 12.2397 12.9718 12.1982 12.9313C12.1568 12.8908 12.1329 12.8356 12.1318 12.7777C12.1329 12.7181 12.1572 12.6613 12.1995 12.6193C12.2419 12.5774 12.2989 12.5536 12.3585 12.5531C12.3873 12.5537 12.4157 12.5601 12.4421 12.5717C12.4685 12.5834 12.4923 12.6001 12.5122 12.621C12.5321 12.6418 12.5477 12.6664 12.5581 12.6933C12.5685 12.7202 12.5735 12.7489 12.5729 12.7777C12.5745 12.8056 12.5705 12.8336 12.5609 12.86C12.5514 12.8863 12.5365 12.9104 12.5173 12.9308C12.4981 12.9511 12.4749 12.9674 12.4492 12.9784C12.4235 12.9895 12.3957 12.9952 12.3677 12.9951H12.3523L12.3534 12.9941ZM12.3605 3.43512C12.3031 3.4357 12.2477 3.41383 12.2061 3.37418C12.1646 3.33453 12.1401 3.28022 12.138 3.22282C12.1375 3.22045 12.1375 3.218 12.138 3.21564C12.1393 3.15764 12.1627 3.10234 12.2036 3.06112C12.2444 3.01991 12.2995 2.99592 12.3575 2.9941C12.3862 2.99383 12.4148 2.99925 12.4415 3.01004C12.4681 3.02083 12.4924 3.03679 12.5129 3.05699C12.5334 3.0772 12.5497 3.10125 12.5609 3.12777C12.572 3.15429 12.5779 3.18276 12.578 3.21153C12.5814 3.2677 12.5623 3.3229 12.525 3.36502C12.4877 3.40713 12.4352 3.43272 12.379 3.43615H12.3667L12.3605 3.43512ZM13.1195 12.2269C13.0638 12.2231 13.0115 12.1983 12.9734 12.1574C12.9353 12.1166 12.914 12.0628 12.914 12.0069C12.914 11.951 12.9353 11.8972 12.9734 11.8564C13.0115 11.8156 13.0638 11.7907 13.1195 11.7869C13.1497 11.7849 13.1799 11.789 13.2084 11.7991C13.2369 11.8093 13.263 11.8251 13.2851 11.8458C13.3072 11.8664 13.3248 11.8913 13.3368 11.9191C13.3489 11.9468 13.3551 11.9767 13.3551 12.0069C13.3551 12.0371 13.3489 12.067 13.3368 12.0948C13.3248 12.1225 13.3072 12.1474 13.2851 12.1681C13.263 12.1887 13.2369 12.2046 13.2084 12.2147C13.1799 12.2248 13.1497 12.229 13.1195 12.2269ZM13.1195 4.20846C13.0755 4.20846 13.0325 4.1954 12.9959 4.17095C12.9593 4.14649 12.9307 4.11173 12.9139 4.07107C12.8971 4.0304 12.8926 3.98565 12.9012 3.94247C12.9098 3.8993 12.931 3.85964 12.9621 3.82852C12.9933 3.79739 13.0329 3.77619 13.0761 3.76761C13.1193 3.75902 13.164 3.76343 13.2047 3.78027C13.2454 3.79712 13.2801 3.82564 13.3046 3.86224C13.329 3.89884 13.3421 3.94187 13.3421 3.98589C13.3413 4.04439 13.3175 4.10021 13.2758 4.14128C13.2342 4.18236 13.178 4.20539 13.1195 4.20538V4.20846ZM14.7021 6.91615C14.7035 6.97202 14.6827 7.02615 14.6442 7.06671C14.6058 7.10727 14.5528 7.13095 14.497 7.13256H14.4847C14.4264 7.13284 14.3704 7.11018 14.3288 7.06949C14.2871 7.0288 14.2632 6.97334 14.2621 6.91512C14.2628 6.88495 14.2694 6.85521 14.2815 6.82759C14.2937 6.79997 14.3112 6.77501 14.333 6.75416C14.3548 6.7333 14.3805 6.71694 14.4086 6.70602C14.4368 6.6951 14.4668 6.68983 14.497 6.69051C14.5536 6.69445 14.6066 6.72012 14.6448 6.76216C14.683 6.80419 14.7035 6.85936 14.7021 6.91615ZM13.7441 4.65974C13.8023 4.66 13.858 4.683 13.8994 4.72383C13.9408 4.76466 13.9646 4.82006 13.9657 4.8782C13.9643 4.93779 13.9398 4.9945 13.8973 5.03627C13.8547 5.07803 13.7976 5.10154 13.738 5.10179C13.6799 5.09965 13.6251 5.0748 13.5852 5.0326C13.5453 4.9904 13.5235 4.93422 13.5247 4.87615C13.5235 4.82016 13.5444 4.76595 13.5827 4.72512C13.621 4.68429 13.6738 4.66009 13.7298 4.65769H13.7452L13.7441 4.65974ZM13.7441 11.3397C13.6862 11.3397 13.6306 11.3167 13.5897 11.2758C13.5487 11.2348 13.5257 11.1792 13.5257 11.1213C13.5237 11.0649 13.5442 11.01 13.5827 10.9686C13.6211 10.9273 13.6744 10.9029 13.7308 10.9008H13.7421C13.7712 10.8999 13.8002 10.9049 13.8274 10.9154C13.8546 10.9258 13.8795 10.9416 13.9006 10.9617C13.9216 10.9818 13.9385 11.0059 13.9502 11.0326C13.9619 11.0593 13.9682 11.088 13.9688 11.1172V11.1223C13.9667 11.1799 13.9425 11.2345 13.9012 11.2748C13.86 11.3151 13.8049 11.338 13.7472 11.3387L13.7441 11.3397ZM14.2036 5.64128C14.2472 5.64128 14.2897 5.65424 14.3259 5.67849C14.362 5.70275 14.3902 5.73721 14.4067 5.7775C14.4232 5.81778 14.4274 5.86207 14.4186 5.90473C14.4099 5.94739 14.3887 5.98649 14.3577 6.01706C14.3267 6.04763 14.2873 6.06829 14.2445 6.0764C14.2018 6.08452 14.1575 6.07973 14.1175 6.06265C14.0774 6.04556 14.0434 6.01695 14.0196 5.98046C13.9959 5.94396 13.9835 5.90122 13.9841 5.85769C13.9862 5.80043 14.0101 5.74612 14.0509 5.70589C14.0917 5.66566 14.1463 5.64255 14.2036 5.64128ZM14.2108 10.35C14.1527 10.3514 14.0964 10.3299 14.054 10.2902C14.0116 10.2505 13.9865 10.1957 13.9841 10.1377C13.9791 10.0788 13.9977 10.0203 14.0358 9.97512C14.0738 9.92992 14.1283 9.90169 14.1872 9.89666C14.2461 9.89163 14.3046 9.9102 14.3498 9.94828C14.395 9.98637 14.4232 10.0408 14.4282 10.0997C14.4293 10.1093 14.4293 10.1189 14.4282 10.1285C14.4283 10.1865 14.4055 10.2422 14.3648 10.2837C14.3241 10.3251 14.2688 10.3489 14.2108 10.35ZM14.4826 9.29871C14.4247 9.29739 14.3696 9.27367 14.3289 9.23254C14.2881 9.19142 14.2649 9.13609 14.2641 9.0782C14.2665 9.01844 14.2923 8.962 14.3358 8.92097C14.3793 8.87994 14.4372 8.85759 14.497 8.85871C14.554 8.86267 14.6073 8.88862 14.6455 8.9311C14.6838 8.97358 14.7041 9.02926 14.7021 9.08641C14.7022 9.11424 14.6969 9.14182 14.6863 9.16758C14.6757 9.19333 14.6602 9.21674 14.6406 9.23647C14.6209 9.2562 14.5976 9.27185 14.5719 9.28253C14.5462 9.29322 14.5186 9.29871 14.4908 9.29871H14.4826ZM14.5852 8.21564C14.5572 8.21673 14.5293 8.21229 14.503 8.20256C14.4768 8.19283 14.4527 8.17801 14.4322 8.15894C14.4117 8.13988 14.3952 8.11695 14.3836 8.09147C14.372 8.066 14.3656 8.03848 14.3647 8.01051C14.3641 8.00642 14.3641 8.00229 14.3647 7.9982C14.362 7.9714 14.3646 7.94433 14.3723 7.91853C14.3801 7.89274 14.3929 7.86873 14.4099 7.84787C14.427 7.82701 14.448 7.80972 14.4717 7.79697C14.4954 7.78423 14.5214 7.77628 14.5482 7.77359H14.5626C14.5934 7.77135 14.6243 7.7752 14.6536 7.78492C14.6829 7.79464 14.71 7.81004 14.7333 7.83023C14.7566 7.85042 14.7758 7.87502 14.7896 7.90261C14.8034 7.9302 14.8117 7.96024 14.8139 7.99102V8.00025C14.8142 8.02853 14.8088 8.05657 14.7981 8.08276C14.7875 8.10895 14.7717 8.13275 14.7518 8.15279C14.7318 8.17284 14.7081 8.18871 14.682 8.1995C14.6558 8.21029 14.6278 8.21577 14.5995 8.21564H14.5862H14.5852Z" fill="#004B6A"/>
</g>
<defs>
<clipPath id="clip0_2_3536">
<rect width="16" height="16" fill="white" transform="translate(0.34375 0.000244141)"/>
</clipPath>
</defs>
</svg>
