<svg width="17" height="16" viewBox="0 0 17 16" fill="none" xmlns="http://www.w3.org/2000/svg">
<g clip-path="url(#clip0_2_3541)">
<path d="M8.41602 16.0002C12.8343 16.0002 16.416 12.4185 16.416 8.00024C16.416 3.58197 12.8343 0.000244141 8.41602 0.000244141C3.99774 0.000244141 0.416016 3.58197 0.416016 8.00024C0.416016 12.4185 3.99774 16.0002 8.41602 16.0002Z" fill="#4CB8D1"/>
<path fill-rule="evenodd" clip-rule="evenodd" d="M5.47729 4.14174L5.67629 3.78324C5.72311 3.69785 5.79196 3.62655 5.87567 3.57678C5.95938 3.52701 6.0549 3.50058 6.15229 3.50024H10.6298C10.8153 3.50024 10.9878 3.59624 11.0883 3.75424H13.1173V7.32424L13.3418 7.71924C13.3903 7.80494 13.4159 7.90175 13.4159 8.00024C13.4159 8.09874 13.3903 8.19555 13.3418 8.28124L13.1173 8.67624V10.2122L11.3988 11.7012L11.1028 12.2217C11.0556 12.3059 10.987 12.376 10.9039 12.4249C10.8208 12.4738 10.7262 12.4998 10.6298 12.5002H6.15229C6.0549 12.4999 5.95938 12.4735 5.87567 12.4237C5.79196 12.3739 5.72311 12.3026 5.67629 12.2172L5.66379 12.1952H3.66479V8.59524L3.48729 8.27574C3.44054 8.19127 3.41602 8.0963 3.41602 7.99974C3.41602 7.90319 3.44054 7.80822 3.48729 7.72374L3.66479 7.40424V5.78774L5.47729 4.14174ZM6.15229 4.05974L3.96329 8.00024L6.15229 11.9407H10.6298L12.8683 8.00024L10.6298 4.05974H6.15229ZM6.35479 4.41574H10.4293L12.4658 8.00024L10.4293 11.5852H6.35479L4.36329 8.00024L6.35479 4.41574ZM7.29629 5.94074L6.20179 7.97474L7.29679 10.0087H9.63479L10.7293 7.97474L9.63429 5.94074H7.29629Z" fill="white"/>
</g>
<defs>
<clipPath id="clip0_2_3541">
<rect width="16" height="16" fill="white" transform="translate(0.416016 0.000244141)"/>
</clipPath>
</defs>
</svg>
