<svg width="17" height="16" viewBox="0 0 17 16" fill="none" xmlns="http://www.w3.org/2000/svg">
<g clip-path="url(#clip0_2_3542)">
<path d="M8.41602 16.0002C12.8343 16.0002 16.416 12.4185 16.416 8.00024C16.416 3.58197 12.8343 0.000244141 8.41602 0.000244141C3.99774 0.000244141 0.416016 3.58197 0.416016 8.00024C0.416016 12.4185 3.99774 16.0002 8.41602 16.0002Z" fill="#57BEEA"/>
<path d="M3.92902 9.50474C3.73872 9.52693 3.54589 9.50853 3.36321 9.45077C3.18054 9.39302 3.01218 9.2972 2.86923 9.16965C2.72628 9.0421 2.61198 8.8857 2.53386 8.71077C2.45574 8.53583 2.41558 8.34633 2.41602 8.15474C2.41521 7.79718 2.55566 7.45376 2.80681 7.19924C3.05796 6.94472 3.39947 6.7997 3.75702 6.79574C4.23702 4.59074 6.19202 2.94024 8.53002 2.94024C8.96652 2.94024 9.39002 2.99774 9.79252 3.10524C9.91562 2.91923 10.0829 2.76661 10.2794 2.66103C10.4759 2.55546 10.6955 2.50021 10.9185 2.50024C11.2781 2.50117 11.6225 2.64486 11.8762 2.8997C12.1298 3.15455 12.2718 3.4997 12.271 3.85924C12.271 4.09374 12.212 4.31424 12.108 4.50624C12.9508 5.41524 13.4181 6.60966 13.416 7.84924C13.4172 8.49851 13.2894 9.14154 13.0402 9.74106C12.7909 10.3406 12.4251 10.8847 11.964 11.3417C12.127 11.5657 12.223 11.8422 12.223 12.1412C12.2234 12.3193 12.1887 12.4957 12.1209 12.6604C12.0532 12.8251 11.9536 12.9748 11.828 13.101C11.7023 13.2272 11.5531 13.3274 11.3887 13.3959C11.2243 13.4644 11.0481 13.4999 10.87 13.5002C10.5977 13.4999 10.3319 13.4175 10.1072 13.2637C9.88249 13.1099 9.70939 12.8919 9.61052 12.6382C9.25611 12.7183 8.89386 12.7586 8.53052 12.7582C6.41002 12.7582 4.60502 11.4012 3.92902 9.50474ZM4.17402 9.45224C4.82402 11.2362 6.52902 12.5097 8.53002 12.5097C8.87752 12.5097 9.21602 12.4712 9.54152 12.3987C9.5031 12.2025 9.50857 12.0002 9.55752 11.8063C9.60647 11.6124 9.69769 11.4318 9.82465 11.2773C9.95162 11.1228 10.1112 10.9983 10.2919 10.9127C10.4726 10.8271 10.6701 10.7826 10.87 10.7822C11.23 10.7822 11.558 10.9237 11.8 11.1542C12.2347 10.7207 12.5794 10.2056 12.8143 9.63838C13.0491 9.07118 13.1695 8.46314 13.1685 7.84924C13.1685 6.64424 12.7135 5.54624 11.966 4.71924C11.718 5.02424 11.341 5.21874 10.9185 5.21874C10.7404 5.21835 10.5641 5.18287 10.3997 5.11433C10.2353 5.04579 10.086 4.94553 9.96038 4.81928C9.83474 4.69304 9.7352 4.54327 9.66745 4.37855C9.59969 4.21382 9.56506 4.03736 9.56552 3.85924C9.56552 3.67224 9.60352 3.49374 9.67152 3.33124C9.29841 3.23661 8.91495 3.18891 8.53002 3.18924C6.32202 3.18924 4.47402 4.73974 4.00652 6.81674C4.31977 6.87362 4.60307 7.03878 4.80688 7.28336C5.0107 7.52794 5.12207 7.83637 5.12152 8.15474C5.12197 8.44371 5.03031 8.7253 4.85983 8.95862C4.68936 9.19194 4.44895 9.36485 4.17352 9.45224H4.17402ZM8.53002 9.21024C8.35175 9.20978 8.17532 9.17422 8.01079 9.10557C7.84627 9.03693 7.69688 8.93655 7.57115 8.81017C7.44542 8.68379 7.34581 8.53388 7.27801 8.369C7.21022 8.20413 7.17556 8.02751 7.17602 7.84924C7.17602 7.09774 7.78202 6.48874 8.53002 6.48874C9.27802 6.48874 9.88452 7.09774 9.88452 7.84924C9.88498 8.02756 9.85031 8.20421 9.78248 8.36912C9.71465 8.53403 9.615 8.68396 9.48922 8.81034C9.36343 8.93673 9.21398 9.0371 9.0494 9.10572C8.88482 9.17433 8.70833 9.20985 8.53002 9.21024Z" fill="white"/>
</g>
<defs>
<clipPath id="clip0_2_3542">
<rect width="16" height="16" fill="white" transform="translate(0.416016 0.000244141)"/>
</clipPath>
</defs>
</svg>
