<svg width="16" height="16" viewBox="0 0 16 16" fill="none" xmlns="http://www.w3.org/2000/svg">
<g clip-path="url(#clip0_2_3544)">
<path d="M8 16.0002C12.4183 16.0002 16 12.4185 16 8.00024C16 3.58197 12.4183 0.000244141 8 0.000244141C3.58172 0.000244141 0 3.58197 0 8.00024C0 12.4185 3.58172 16.0002 8 16.0002Z" fill="#102044"/>
<path d="M12.124 9.67525C12.349 9.76175 12.498 9.97575 12.5 10.2152C12.5001 10.3156 12.474 10.4142 12.4241 10.5013C12.3743 10.5884 12.3026 10.661 12.216 10.7117C12.1291 10.7628 12.0306 10.7905 11.9298 10.7923C11.8291 10.794 11.7296 10.7697 11.641 10.7217L8.62601 12.3667C8.63346 12.4463 8.6244 12.5265 8.59939 12.6023C8.57438 12.6781 8.53396 12.748 8.48068 12.8075C8.42739 12.867 8.36238 12.9148 8.28973 12.948C8.21708 12.9811 8.13836 12.9989 8.05851 13.0002C7.90476 13.004 7.75581 12.9465 7.64441 12.8405C7.53302 12.7344 7.46831 12.5885 7.46451 12.4347L5.99451 11.5932H5.96101V11.5757L4.41201 10.6902C4.31529 10.757 4.20051 10.7925 4.08301 10.7922C3.94313 10.793 3.8077 10.7431 3.70167 10.6519C3.59563 10.5607 3.52615 10.4342 3.50601 10.2957C3.48669 10.1574 3.5182 10.0168 3.5947 9.89989C3.6712 9.78303 3.7875 9.69788 3.92201 9.66025V6.35225C3.80884 6.32049 3.70802 6.25501 3.63299 6.16452C3.55796 6.07404 3.51227 5.96285 3.50201 5.84575C3.48201 5.60675 3.61251 5.38025 3.83101 5.27675C3.9376 5.22613 4.057 5.20893 4.17354 5.2274C4.29007 5.24587 4.3983 5.29915 4.48401 5.38025L7.46901 3.67025C7.45598 3.58732 7.46112 3.50254 7.48405 3.42179C7.50699 3.34103 7.54718 3.26622 7.60185 3.20251C7.65652 3.13881 7.72437 3.08773 7.80071 3.05281C7.87705 3.01789 7.96006 2.99995 8.04401 3.00025C8.1304 3.00011 8.21573 3.01927 8.29376 3.05632C8.3718 3.09338 8.44057 3.1474 8.49505 3.21444C8.54954 3.28148 8.58836 3.35985 8.60868 3.44381C8.629 3.52777 8.63031 3.61521 8.61251 3.69975L11.5265 5.36875C11.633 5.27275 11.7715 5.21975 11.916 5.22025C11.9948 5.1908 12.0791 5.17896 12.163 5.18556C12.2469 5.19215 12.3283 5.21702 12.4015 5.25842C12.4747 5.29982 12.538 5.35675 12.5869 5.4252C12.6358 5.49366 12.6691 5.57199 12.6845 5.6547C12.7 5.7374 12.6971 5.82248 12.6761 5.90395C12.6551 5.98542 12.6166 6.06132 12.5632 6.12632C12.5098 6.19131 12.4428 6.24383 12.3669 6.28018C12.291 6.31653 12.2081 6.33584 12.124 6.33675V9.67575V9.67525ZM10.065 8.37275V11.2142L11.401 10.4857C11.3594 10.4061 11.3368 10.3178 11.3352 10.2279C11.3335 10.138 11.3527 10.049 11.3914 9.9678C11.43 9.88662 11.487 9.81554 11.5578 9.76017C11.6287 9.7048 11.7114 9.66666 11.7995 9.64875V6.36375C11.6682 6.33778 11.5499 6.26718 11.4647 6.16393C11.3795 6.06067 11.3326 5.93112 11.332 5.79725C11.332 5.74425 11.3395 5.69125 11.354 5.63975L10.0875 4.91375V7.55575H10.0855L10.0805 7.72875L10.009 7.76225L9.55251 8.03525L9.98901 8.29525L10.0585 8.32825L10.0605 8.35925L10.063 8.37275H10.065ZM8.04501 4.15475C7.87901 4.15475 7.72101 4.08475 7.61051 3.96125L6.28551 4.72075V7.52675L6.82951 7.85075L7.51651 7.44675C7.50234 7.37243 7.5048 7.2959 7.52371 7.22264C7.54261 7.14939 7.57751 7.08123 7.62588 7.02306C7.67425 6.96489 7.7349 6.91815 7.80348 6.8862C7.87206 6.85424 7.94686 6.83787 8.02251 6.83825C8.09634 6.83808 8.16933 6.85386 8.23649 6.88452C8.30365 6.91517 8.36339 6.95998 8.41163 7.01586C8.45987 7.07174 8.49547 7.13739 8.51599 7.20831C8.5365 7.27923 8.54146 7.35374 8.53051 7.42675L9.24001 7.84875L9.76601 7.53375V4.72925L8.45901 3.98075C8.40504 4.03579 8.34062 4.0795 8.26953 4.10929C8.19843 4.13908 8.1221 4.15437 8.04501 4.15425V4.15475ZM8.38501 8.36575L8.92651 8.03975L8.38251 7.71525C8.28801 7.80707 8.16204 7.85938 8.03029 7.86151C7.89854 7.86365 7.77094 7.81545 7.67351 7.72675L7.13851 8.03725L7.67101 8.35475C7.76865 8.26451 7.89728 8.21532 8.03021 8.21737C8.16315 8.21941 8.2902 8.27255 8.38501 8.36575ZM4.62101 10.4392L5.96101 11.2072V8.46125L5.96351 8.37275L5.98601 8.35025L6.09801 8.28375L6.51401 8.03975L6.13801 7.81775L5.96351 7.72875V7.62225H5.96151V4.90475L4.64751 5.65775C4.72501 5.95775 4.54751 6.26475 4.24751 6.35025V9.66225C4.40601 9.70825 4.53751 9.81975 4.60901 9.96775C4.68051 10.1162 4.68501 10.2877 4.62101 10.4392ZM8.04501 11.8357C8.22751 11.8357 8.39901 11.9207 8.50801 12.0667L9.74301 11.3917V8.52375L9.24001 8.22375L8.53001 8.65025C8.53501 8.67525 8.53701 8.70025 8.53701 8.72525C8.53701 9.00775 8.30701 9.23625 8.02201 9.23625C7.94715 9.23629 7.87319 9.21993 7.80533 9.18832C7.73747 9.15671 7.67735 9.11062 7.62922 9.05328C7.58108 8.99595 7.54609 8.92877 7.52671 8.85646C7.50732 8.78415 7.50401 8.70847 7.51701 8.63475L6.82051 8.22175L6.28351 8.53475V11.3917L7.54601 12.1152C7.65101 11.9412 7.84051 11.8352 8.04501 11.8357Z" fill="white"/>
</g>
<defs>
<clipPath id="clip0_2_3544">
<rect width="16" height="16" fill="white" transform="translate(0 0.000244141)"/>
</clipPath>
</defs>
</svg>
