<svg width="15" height="16" viewBox="0 0 15 16" fill="none" xmlns="http://www.w3.org/2000/svg">
<g clip-path="url(#clip0_2_3547)">
<path d="M0.0163265 4.98794C0.231194 4.7687 0.512058 4.62602 0.815826 4.58178C1.11959 4.53754 1.42949 4.59419 1.69796 4.74304L7.4449 8.00834L1.68163 11.2736C1.41302 11.422 1.10325 11.4783 0.79962 11.4341C0.495986 11.3899 0.21516 11.2475 0 11.0287C0.0163265 11.0287 0.0163265 4.5961 0.0163265 4.98794Z" fill="url(#paint0_linear_2_3547)"/>
<path d="M13.698 3.32238C13.7745 3.6079 13.7534 3.91079 13.638 4.18294C13.5226 4.45509 13.3196 4.68087 13.0612 4.82442L7.4449 8.00809L1.68163 4.74279C1.41302 4.59448 1.10325 4.53814 0.79962 4.58236C0.495986 4.62658 0.21516 4.76893 0 4.98768C0.00381417 4.63635 0.101104 4.29238 0.281873 3.99109C0.462641 3.68981 0.720369 3.4421 1.02857 3.2734L6.31837 0.269318C6.62946 0.0927176 6.98105 -0.00012207 7.33878 -0.00012207C7.6965 -0.00012207 8.04809 0.0927176 8.35918 0.269318L13.698 3.32238Z" fill="url(#paint1_linear_2_3547)"/>
<path d="M1.68163 11.274L13.0612 4.82504C13.6 4.51483 13.7306 3.89443 13.5837 3.323C14.1878 3.68218 14.4327 4.33524 14.4327 5.02096V11.0128C14.4327 11.7312 14.1551 12.3842 13.5347 12.7434L8.3102 15.7312C8.00498 15.9076 7.65866 16.0005 7.30612 16.0005C6.95358 16.0005 6.60727 15.9076 6.30204 15.7312L1.01224 12.7434C0.710665 12.5685 0.459152 12.3189 0.281881 12.0187C0.10461 11.7185 0.00753957 11.3777 0 11.0291C0.21516 11.2479 0.495986 11.3902 0.79962 11.4344C1.10325 11.4787 1.41302 11.4223 1.68163 11.274Z" fill="url(#paint2_linear_2_3547)"/>
</g>
<defs>
<linearGradient id="paint0_linear_2_3547" x1="0.80653" y1="11.5545" x2="3.99836" y2="6.0263" gradientUnits="userSpaceOnUse">
<stop stop-color="#00DAD9"/>
<stop offset="1" stop-color="#095FA7"/>
</linearGradient>
<linearGradient id="paint1_linear_2_3547" x1="5.01224" y1="0.972991" x2="8.69224" y2="7.34687" gradientUnits="userSpaceOnUse">
<stop stop-color="#0BF7DF"/>
<stop offset="1" stop-color="#0095FF"/>
</linearGradient>
<linearGradient id="paint2_linear_2_3547" x1="15.4841" y1="5.78667" x2="2.34939" y2="14.9834" gradientUnits="userSpaceOnUse">
<stop stop-color="#00FCC6"/>
<stop offset="1" stop-color="#0095FF"/>
</linearGradient>
<clipPath id="clip0_2_3547">
<rect width="14.4327" height="16" fill="white" transform="translate(0 0.000244141)"/>
</clipPath>
</defs>
</svg>
