<svg width="17" height="16" viewBox="0 0 17 16" fill="none" xmlns="http://www.w3.org/2000/svg">
<g clip-path="url(#clip0_2_3551)">
<path d="M8.72852 16.0002C13.1468 16.0002 16.7285 12.4185 16.7285 8.00024C16.7285 3.58197 13.1468 0.000244141 8.72852 0.000244141C4.31024 0.000244141 0.728516 3.58197 0.728516 8.00024C0.728516 12.4185 4.31024 16.0002 8.72852 16.0002Z" fill="#00AEEF"/>
<path d="M8.60852 7.35318C8.72752 7.33268 8.83252 7.28818 8.92452 7.22068C9.01652 7.15318 9.10352 7.03918 9.18502 6.88318L10.9975 3.38968C11.0685 3.27268 11.1555 3.17968 11.2555 3.10668C11.3583 3.03561 11.4806 2.99838 11.6055 3.00018H12.755L10.498 7.10918C10.398 7.27818 10.2845 7.41568 10.158 7.52218C10.0316 7.62728 9.88755 7.70905 9.73252 7.76368C9.97452 7.82618 10.177 7.92768 10.3425 8.07018C10.5055 8.21018 10.661 8.40819 10.8055 8.66268L12.9785 13.0002H11.7135C11.458 13.0002 11.2525 12.8627 11.0975 12.5902L9.31652 8.91468C9.22452 8.75068 9.12452 8.63418 9.01652 8.56368C8.90902 8.49368 8.77202 8.45218 8.60902 8.44168V10.3067H7.61452V8.43368H6.88352V13.0002H5.47852V3.00018H6.88352V7.36918H7.61452V5.20818H8.60902V7.35318H8.60852Z" fill="white"/>
</g>
<defs>
<clipPath id="clip0_2_3551">
<rect width="16" height="16" fill="white" transform="translate(0.728516 0.000244141)"/>
</clipPath>
</defs>
</svg>
