<svg width="17" height="16" viewBox="0 0 17 16" fill="none" xmlns="http://www.w3.org/2000/svg">
<g clip-path="url(#clip0_2_3554)">
<path d="M8.72852 16.0002C13.1468 16.0002 16.7285 12.4185 16.7285 8.00024C16.7285 3.58197 13.1468 0.000244141 8.72852 0.000244141C4.31024 0.000244141 0.728516 3.58197 0.728516 8.00024C0.728516 12.4185 4.31024 16.0002 8.72852 16.0002Z" fill="#0093DD"/>
<path fill-rule="evenodd" clip-rule="evenodd" d="M7.47773 8.0001L10.0777 10.6501L11.7277 9.0001C12.0277 8.7001 12.4777 8.7001 12.7277 9.0001C13.0277 9.3001 13.0277 9.8001 12.7277 10.1001L10.5777 12.3001C10.2777 12.6001 9.82773 12.6001 9.52773 12.3001L6.42773 9.1001V11.0001C6.42773 11.4001 6.07773 11.7501 5.67773 11.7501C5.27773 11.7501 4.92773 11.4001 4.92773 11.0001V5.0001C4.92773 4.6001 5.27773 4.2501 5.67773 4.2501C6.07773 4.2501 6.42773 4.6001 6.42773 5.0001V6.9001L9.52773 3.7001C9.82773 3.4001 10.2777 3.4001 10.5777 3.7001L12.7277 5.9001C13.0277 6.2001 13.0277 6.7001 12.7277 7.0001C12.4277 7.3001 11.9777 7.3001 11.7277 7.0001L10.0777 5.3001L7.47773 8.0001ZM10.0777 7.2501C10.4777 7.2501 10.8277 7.6001 10.8277 8.0001C10.8277 8.4001 10.4777 8.7501 10.0777 8.7501C9.67773 8.7501 9.32773 8.4001 9.32773 8.0001C9.32773 7.6001 9.67773 7.2501 10.0777 7.2501Z" fill="white"/>
</g>
<defs>
<clipPath id="clip0_2_3554">
<rect width="16" height="16" fill="white" transform="translate(0.728516 0.000244141)"/>
</clipPath>
</defs>
</svg>
