<svg width="17" height="16" viewBox="0 0 17 16" fill="none" xmlns="http://www.w3.org/2000/svg">
<g clip-path="url(#clip0_2_3555)">
<path d="M16.7098 0.0184326H0.746094V15.9822H16.7098V0.0184326Z" fill="black" stroke="black" stroke-miterlimit="10"/>
<path d="M14.2825 4.62261C14.0938 4.47386 13.8689 4.27069 13.4589 4.21989C13.0743 4.1691 12.6825 4.4267 12.4176 4.59722C12.1528 4.76774 11.6521 5.26842 11.4453 5.4208C11.2385 5.57318 10.7088 5.71468 9.85616 6.22624C9.00355 6.7378 5.65842 8.88564 5.65842 8.88564L6.52917 8.89653L2.64708 10.8956H3.03529L2.47656 11.3201C2.47656 11.3201 2.96999 11.4507 3.38359 11.1895V11.3092C3.38359 11.3092 8.00582 9.48791 8.89833 9.95957L8.35411 10.1192C8.40128 10.1192 9.27928 10.1773 9.27928 10.1773C9.30059 10.3591 9.36171 10.5339 9.45828 10.6895C9.55485 10.845 9.6845 10.9773 9.83802 11.077C10.3677 11.4253 10.3786 11.6176 10.3786 11.6176C10.3786 11.6176 10.1029 11.7301 10.1029 11.8716C10.1029 11.8716 10.5092 11.7482 10.8865 11.7591C11.126 11.7682 11.3635 11.806 11.594 11.8716C11.594 11.8716 11.565 11.7192 11.1986 11.6176C10.8321 11.516 10.4693 11.1169 10.2915 10.8992C10.1826 10.7607 10.1117 10.5962 10.0856 10.4219C10.0595 10.2476 10.0792 10.0695 10.1428 9.90514C10.2698 9.57499 10.7124 9.39358 11.6267 8.92193C12.7042 8.3632 12.9509 7.94959 13.1033 7.62669C13.2557 7.30379 13.4806 6.66161 13.6076 6.36048C13.7673 5.97227 13.9632 5.76547 14.1264 5.64211C14.2897 5.51876 15.0153 5.24665 15.0153 5.24665C15.0153 5.24665 14.4602 4.76411 14.2825 4.62261Z" fill="white"/>
</g>
<defs>
<clipPath id="clip0_2_3555">
<rect width="16" height="16" fill="white" transform="translate(0.728516 0.000244141)"/>
</clipPath>
</defs>
</svg>
