<svg width="17" height="16" viewBox="0 0 17 16" fill="none" xmlns="http://www.w3.org/2000/svg">
<g clip-path="url(#clip0_2_3558)">
<path d="M9.80664 8.7326H11.4296L10.6253 6.47766L9.80664 8.7326Z" fill="#161F37"/>
<path d="M8.94532 0.000244141C7.36307 0.000244141 5.81635 0.469436 4.50075 1.34849C3.18516 2.22754 2.15978 3.47697 1.55428 4.93878C0.948779 6.40059 0.790352 8.00912 1.09903 9.56097C1.40772 11.1128 2.16964 12.5383 3.28846 13.6571C4.40728 14.7759 5.83275 15.5378 7.38459 15.8465C8.93644 16.1552 10.545 15.9968 12.0068 15.3913C13.4686 14.7858 14.718 13.7604 15.5971 12.4448C16.4761 11.1292 16.9453 9.58249 16.9453 8.00024C16.9423 5.87945 16.0984 3.84638 14.5988 2.34675C13.0992 0.847114 11.0661 0.00328363 8.94532 0.000244141V0.000244141ZM12.5216 11.792L11.9758 10.2552H9.2613L8.71551 11.792H3.83221L6.54675 4.22287H8.16973L6.00097 10.2552H7.62395L9.79271 4.22287H11.4301L14.159 11.792H12.5216Z" fill="#161F37"/>
</g>
<defs>
<clipPath id="clip0_2_3558">
<rect width="16" height="16" fill="white" transform="translate(0.945312 0.000244141)"/>
</clipPath>
</defs>
</svg>
