<svg width="17" height="16" viewBox="0 0 17 16" fill="none" xmlns="http://www.w3.org/2000/svg">
<g clip-path="url(#clip0_2_3562)">
<path d="M2.07583 15.1381L0.5625 10.7773L3.43488 7.45345L2.04633 3.49883L5.07072 0.000244141L9.61071 0.866949L11.0129 4.89644L15.1944 5.70416L16.7009 10.0717L13.6856 13.559L9.43601 12.7354L6.62943 16.0002L2.07583 15.1381Z" fill="white"/>
<path d="M8.73127 11.3603L8.1822 11.6621C8.26045 11.8282 8.32495 12.0005 8.37506 12.1771C8.42951 12.3314 8.42497 12.2701 8.23439 12.4857C8.20035 12.5243 8.19582 12.5356 8.15271 12.581L7.58095 13.2321C7.54238 13.2707 7.54238 13.3002 7.50608 13.3342L7.42894 13.4227C7.39756 13.4505 7.36939 13.4817 7.34499 13.5157L7.17483 13.7018C7.1495 13.7452 7.11732 13.7843 7.07954 13.8175L6.5282 14.4505C6.48963 14.4914 6.21964 14.8181 6.19241 14.8226L2.90257 14.1896C2.90746 14.1743 2.91542 14.1602 2.92595 14.1481C2.93648 14.136 2.94937 14.1262 2.96382 14.1193C2.98424 14.0966 2.98198 14.0739 3.01601 14.0353L3.05912 13.9945C3.06645 13.9863 3.07256 13.9772 3.07727 13.9673C3.09971 13.9399 3.12397 13.9142 3.14987 13.8901C3.17483 13.8629 3.18163 13.8425 3.20886 13.8152C3.2242 13.8071 3.23741 13.7954 3.24743 13.7812L4.06649 12.826C4.09374 12.8089 4.11573 12.7845 4.13002 12.7557C4.14934 12.7264 4.17397 12.701 4.20262 12.6808C4.248 12.6309 4.2185 12.6377 4.25707 12.5991L4.52253 12.2996C4.54174 12.2697 4.56547 12.2429 4.59287 12.2202L4.98765 11.7665C5.14874 11.5396 5.12151 11.7665 4.86513 10.9814C4.77437 10.7024 4.6632 10.4188 4.57698 10.1397C4.40228 9.57927 4.15951 9.00525 3.99389 8.45392L5.03076 8.65358C5.0997 8.57647 5.16409 8.49541 5.22361 8.41081C5.26964 8.37682 5.3057 8.3311 5.32805 8.27842C5.3504 8.22575 5.35821 8.16804 5.35067 8.11132L3.76246 7.79822C3.65583 7.95704 2.85492 8.83055 2.66887 9.07105L2.50325 9.26163L1.25537 10.7046C1.23153 10.7357 1.20577 10.7653 1.17823 10.7931C1.09882 10.8816 1.13059 10.9202 1.21907 11.1471L1.57301 12.1658C1.62747 12.3291 1.69553 12.5038 1.74998 12.6717C1.86343 13.0098 1.97687 13.3342 2.09712 13.6814L2.44879 14.6978L3.44709 14.8907C3.78288 14.9587 4.12775 15.0177 4.44539 15.0858L4.94454 15.1811C5.24176 15.2355 6.30585 15.4579 6.4556 15.4579C6.47166 15.4219 6.49571 15.3901 6.52593 15.3649L7.93263 13.7336C8.06876 13.5974 8.36371 13.2253 8.51346 13.0529C8.54976 13.0143 8.56337 12.9939 8.59513 12.9553L9.08975 12.379C9.07888 12.3373 9.06524 12.2964 9.04891 12.2565L8.76984 11.4897C8.75099 11.444 8.73581 11.397 8.72446 11.349" fill="#3AB54A"/>
<path d="M5.92165 2.36908C5.88081 2.41672 4.56033 3.1541 4.37655 3.27662C4.28126 3.33561 4.14967 3.36057 4.17009 3.46494L4.56941 5.09398C4.66924 5.51826 4.79629 5.95388 4.89612 6.37588C4.96279 6.59151 5.01509 6.81131 5.05267 7.03385C5.12781 7.24447 5.18623 7.46068 5.22738 7.68048L5.29544 7.71451H5.38393L7.75715 8.16828C7.81506 8.18379 7.87432 8.19367 7.93413 8.19778C7.99542 8.11204 8.06291 8.0309 8.13606 7.95501C8.20639 7.86426 8.27672 7.803 8.34025 7.70771C8.29941 7.55115 8.2563 7.40595 8.21093 7.25393C8.19304 7.21826 8.18488 7.1785 8.18727 7.13866C8.18966 7.09883 8.20252 7.06033 8.22454 7.02705L8.61932 6.57328C8.73957 6.43261 8.84621 6.34639 8.80764 6.21026C8.76907 6.07413 8.45823 4.84894 8.39244 4.70147C8.27549 4.79514 8.17103 4.90341 8.0816 5.02364C8.03396 5.0849 7.98177 5.13255 7.9364 5.19154C7.8911 5.25007 7.84019 5.30402 7.78438 5.35263L7.33061 3.59199C7.28523 3.40822 6.9449 1.98337 6.87684 1.84497L5.92165 2.36908Z" fill="white"/>
<path d="M11.5663 7.45085L11.8794 7.28295C12.1768 7.09769 12.4895 6.93829 12.8142 6.80649C13.0351 7.45602 13.2199 8.11727 13.3678 8.78721C13.1014 8.96029 12.8257 9.11859 12.5419 9.2614C12.4035 9.334 12.2719 9.41341 12.129 9.48828L11.7228 9.71517C11.6992 9.76496 11.666 9.80965 11.6253 9.84677L11.4528 10.0215C11.4393 10.0471 11.4234 10.0714 11.4052 10.0941L10.6361 10.9676C10.6131 10.9845 10.5931 11.0053 10.5771 11.0288C10.5069 11.1205 10.4312 11.2076 10.3502 11.2898L10.18 11.4758C10.1233 11.5734 10.0235 11.6414 9.95312 11.7413L13.2679 12.3743L13.395 12.22C13.4336 12.1678 13.4336 12.195 13.4676 12.1474C13.5307 12.0617 13.5989 11.9799 13.6718 11.9024L14.087 11.4236C14.1094 11.3982 14.1306 11.3717 14.1505 11.3442C14.2322 11.2421 14.2481 11.2467 14.3524 11.1014C14.3865 11.0538 14.3887 11.0788 14.4273 11.0266L14.5634 10.8655C14.6383 10.7929 14.7495 10.6386 14.7699 10.625L14.9787 10.3868C15.0104 10.3527 15.015 10.3368 15.0444 10.3051L15.3939 9.90802C15.4136 9.88053 15.4364 9.85541 15.4619 9.83315C15.3939 9.58131 15.024 8.55351 14.9129 8.24495C14.8221 7.9863 14.7291 7.71404 14.6292 7.44858L14.4024 6.73616C14.4037 6.71803 14.4037 6.69983 14.4024 6.68171L14.3683 6.63179L11.0762 5.99878L11.5663 7.45085Z" fill="#02833D"/>
<path d="M5.22767 7.67353C5.18617 7.45604 5.12776 7.24212 5.05297 7.03371C4.85523 7.01562 4.6594 6.98071 4.4676 6.92935L4.395 6.90439L4.64684 6.62532C4.66817 6.60082 4.68576 6.57329 4.69902 6.54364C4.71836 6.52431 4.73881 6.50612 4.76028 6.48919C4.80903 6.45416 4.84807 6.40732 4.87372 6.35306C4.88092 6.35162 4.8884 6.35291 4.89469 6.35669C4.90098 6.36046 4.90564 6.36645 4.90776 6.37348C4.8102 5.95147 4.68087 5.51585 4.58104 5.09157L4.17492 3.46253C4.18994 3.41587 4.2169 3.37396 4.25312 3.34092C4.28933 3.30789 4.33355 3.2849 4.38138 3.27421C4.56289 3.16304 5.88564 2.42566 5.92648 2.36667C5.86396 2.27991 5.82276 2.17964 5.80623 2.07399C5.70867 1.77677 5.57934 1.47274 5.49312 1.16644L8.78751 1.79492L9.21632 3.01783C9.34338 3.41942 9.49766 3.83462 9.63833 4.23394C9.7132 4.44041 9.779 4.64687 9.8516 4.85334C9.92421 5.05981 9.8811 4.9872 9.779 5.11653C9.76413 5.13553 9.74741 5.15301 9.72909 5.16871C9.71147 5.18716 9.69622 5.20774 9.68371 5.22997L9.59295 5.33207C9.55892 5.37518 9.52943 5.39787 9.49539 5.44324C9.46136 5.48862 9.43413 5.50904 9.39783 5.55442C9.3829 5.57337 9.36619 5.59085 9.34792 5.6066C9.31979 5.64729 9.28705 5.6846 9.25036 5.71778C9.23481 5.7325 9.22246 5.75027 9.21405 5.76996C9.16641 5.84256 9.18002 5.79265 9.11649 5.8834C9.05297 5.97416 9.08927 5.89702 9.01893 5.99458C9.0056 6.015 8.98775 6.03208 8.96675 6.04449L8.83742 6.21692C8.8235 6.21163 8.81105 6.20307 8.80112 6.19197C8.82835 6.33491 8.73306 6.41885 8.61281 6.55498L8.21803 7.00876C8.196 7.04204 8.18315 7.08054 8.18076 7.12037C8.17837 7.16021 8.18653 7.19997 8.20441 7.23564C8.24979 7.38993 8.2929 7.53513 8.33374 7.68941C8.37208 7.6542 8.40702 7.61546 8.4381 7.5737L8.86238 7.08817C9.08927 6.82725 9.51354 6.30995 9.71774 6.09894C9.73792 6.07877 9.75615 6.05674 9.77219 6.03315L10.4529 5.23451C10.6162 5.06208 10.5527 5.09838 10.3825 4.58561L9.79034 2.88397C9.74724 2.76372 9.71774 2.65708 9.67236 2.54137C9.55665 2.25323 9.44548 1.83349 9.31615 1.51131C9.21179 1.22997 9.27078 1.28442 9.11422 1.25266L5.44321 0.544775C5.37585 0.529555 5.30767 0.518193 5.23901 0.510742L4.07282 1.87206L4.03425 1.92197L2.63436 3.53286C2.55949 3.61908 2.63436 3.7053 2.71604 3.95033L3.51241 6.25096C3.5419 6.34398 3.58047 6.44381 3.61224 6.5391L3.93669 7.41715C4.14156 7.48649 4.35286 7.53513 4.56743 7.56236L5.22767 7.67353Z" fill="#3AB54A"/>
<path d="M8.4508 8.12067C8.49617 8.27268 8.53701 8.42243 8.57785 8.57444C8.60789 8.72605 8.65906 8.87268 8.72987 9.01006C8.98625 8.88301 9.2086 8.77183 9.4491 8.6357C9.88245 8.39066 10.4497 8.09344 10.8649 7.84614C11.0078 7.75992 11.4729 7.52623 11.5659 7.44909L11.0759 6.00609L14.3725 6.64137L14.402 6.69129C14.4094 6.70896 14.4155 6.72716 14.4202 6.74574L14.6607 7.44228C14.7537 7.71001 14.8467 7.98 14.9375 8.23865C15.0486 8.55629 15.4185 9.58408 15.4865 9.82685C15.461 9.84911 15.4382 9.87423 15.4185 9.90172L15.0827 10.2988C15.0532 10.3305 15.0486 10.3464 15.0169 10.3805L14.7991 10.6187C14.7786 10.6368 14.6675 10.7866 14.5926 10.8592L14.4565 11.0203C14.4179 11.0725 14.4156 11.0475 14.3816 11.0951C14.2772 11.2404 14.2613 11.2358 14.1797 11.3379C14.1576 11.3656 14.1341 11.3921 14.1093 11.4173L13.6919 11.9051C13.619 11.9827 13.5508 12.0645 13.4877 12.1502C13.4536 12.1978 13.4536 12.1706 13.4151 12.2228L13.288 12.3771L9.98001 11.744C10.0413 11.6442 10.1411 11.5761 10.2069 11.4786L10.3771 11.2925C10.4542 11.1927 10.5291 11.1246 10.6039 11.0316C10.62 11.008 10.64 10.9873 10.6629 10.9704L11.4275 10.0968C11.4457 10.0742 11.4617 10.0499 11.4752 10.0242L11.6431 9.8382C11.6863 9.80333 11.7198 9.75804 11.7406 9.7066L9.15188 11.1314C9.19952 11.3152 9.49447 12.0639 9.53985 12.2659L13.0362 12.9465C13.1246 12.9647 13.4695 13.0191 13.5308 13.0486C13.5716 12.9851 13.6465 12.9148 13.6941 12.8535L16.1899 9.9834L15.8314 9.00779C15.7248 8.74234 15.4275 7.85068 15.3322 7.56934L14.8263 6.12634L11.8314 5.54778C11.5001 5.47972 11.1507 5.42753 10.8354 5.35266C10.8176 5.38586 10.7963 5.41705 10.7718 5.44568L9.63741 6.74574C9.59203 6.80246 9.53985 6.85465 9.48993 6.91137L8.596 7.94143L8.43945 8.1184" fill="#3AB54A"/>
<path d="M8.18135 11.6622L7.56649 12.0048C7.50296 12.0433 7.43489 12.0819 7.36683 12.1182C7.2307 12.1908 7.0923 12.2725 6.95843 12.3451C6.82242 12.4295 6.67794 12.4995 6.52735 12.5538C6.38214 12.1749 5.83081 9.96507 5.76048 9.85163C5.66316 9.94393 5.57361 10.0441 5.49275 10.1511C5.4383 10.2101 5.40426 10.2464 5.35208 10.3077C5.33124 10.3363 5.30769 10.3629 5.28175 10.3871C5.25966 10.4058 5.23917 10.4262 5.22049 10.4483C5.10047 10.1511 5.00782 9.84352 4.94369 9.52945C4.89526 9.37225 4.85587 9.21242 4.82571 9.05072C4.82382 9.00921 4.83028 8.96774 4.8447 8.92877C4.85912 8.8898 4.88121 8.85412 4.90965 8.82383C4.95957 8.76484 4.9936 8.72173 5.04125 8.66047L4.00438 8.46082C4.17 9.01895 4.41277 9.59525 4.58747 10.1466C4.67369 10.4256 4.78487 10.7093 4.87562 10.9883C5.132 11.7734 5.15923 11.5555 4.99814 11.7734L3.25565 13.7972C3.2411 13.8064 3.22809 13.8179 3.21708 13.8312C3.1991 13.8574 3.17939 13.8825 3.15809 13.9061C3.13219 13.9301 3.10793 13.9559 3.08549 13.9832C3.08079 13.9931 3.07467 14.0023 3.06734 14.0104L3.01969 14.0513C2.98566 14.0899 2.99927 14.1012 2.96751 14.1352C2.94002 14.1514 2.91852 14.1761 2.90625 14.2056L6.1961 14.8386C6.31499 14.721 6.4271 14.5968 6.53189 14.4665L7.08322 13.8267C7.11969 13.7922 7.1517 13.7534 7.17851 13.711L7.34868 13.5249C7.37308 13.4909 7.40124 13.4596 7.43262 13.4319L7.50977 13.3434C7.54607 13.3094 7.54607 13.2799 7.58464 13.2413L8.15639 12.5901C8.1995 12.5448 8.20404 12.5334 8.23807 12.4948C8.42865 12.268 8.43319 12.3406 8.37874 12.1863C8.32864 12.0096 8.26413 11.8374 8.18589 11.6713" fill="#02833D"/>
<path d="M11.5658 7.45124C11.4728 7.52838 11.0077 7.76207 10.8648 7.84829C10.4496 8.0956 9.88234 8.39282 9.44899 8.63785C9.20849 8.77399 8.99521 8.88516 8.72976 9.01222C8.65896 8.87484 8.60779 8.7282 8.57774 8.5766C8.5369 8.42231 8.49606 8.27257 8.45069 8.12282L8.1875 8.43366L9.12454 11.1336L11.7133 9.70876L12.1194 9.48187C12.2624 9.407 12.394 9.32759 12.5324 9.25498C12.8161 9.11218 13.0918 8.95387 13.3582 8.78079C13.2131 8.11333 13.0313 7.45436 12.8137 6.80688C12.4918 6.94279 12.1821 7.10599 11.888 7.29469L11.5658 7.45124Z" fill="white"/>
<path d="M5.03422 8.66287C4.98657 8.72413 4.95254 8.76724 4.90263 8.82623C4.87418 8.85652 4.85209 8.8922 4.83767 8.93117C4.82326 8.97014 4.8168 9.01161 4.81868 9.05312C4.84892 9.21405 4.88832 9.37313 4.93666 9.52958C5.00012 9.84751 5.09278 10.1589 5.21346 10.4598C5.23214 10.4377 5.25263 10.4172 5.27472 10.3985C5.30066 10.3744 5.32422 10.3478 5.34505 10.3191C5.39724 10.2579 5.43127 10.2216 5.48572 10.1626C5.56659 10.0556 5.65613 9.9554 5.75345 9.8631C5.82378 9.97654 6.37512 12.1864 6.52032 12.5653C6.67092 12.511 6.8154 12.441 6.95141 12.3566C7.08527 12.2817 7.22367 12.2 7.3598 12.1297C7.42787 12.0934 7.49593 12.0548 7.55946 12.0162L8.18113 11.6736L8.73019 11.3719C8.70627 11.3201 8.68727 11.2662 8.67347 11.2108L7.76593 8.59254L5.67404 8.18414C5.57279 8.15833 5.46958 8.14087 5.36547 8.13196C5.37301 8.18868 5.3652 8.24638 5.34286 8.29906C5.32051 8.35174 5.28444 8.39745 5.23842 8.43145C5.1789 8.51604 5.1145 8.5971 5.04556 8.67422" fill="white"/>
<path d="M5.92063 2.36903L6.86901 1.84265C6.93935 1.98105 7.27968 3.4059 7.32278 3.58968L7.77656 5.35031C7.83236 5.3017 7.88328 5.24775 7.92857 5.18922C7.97395 5.13023 8.02613 5.08259 8.07378 5.02133C8.1632 4.9011 8.26766 4.79282 8.38461 4.69915C8.45041 4.83528 8.77032 6.03551 8.79981 6.20794C8.81262 6.21518 8.82477 6.22353 8.83612 6.2329L8.95637 6.06046C8.97746 6.04819 8.99535 6.03108 9.00855 6.01055C9.07888 5.91299 9.05846 5.96744 9.10611 5.89938C9.15376 5.83131 9.15602 5.85854 9.20367 5.78593C9.20868 5.76455 9.22167 5.74588 9.23997 5.73375C9.27612 5.70003 9.3088 5.66279 9.33753 5.62257C9.35985 5.61167 9.37755 5.59317 9.38745 5.57039C9.41695 5.53079 9.44958 5.49361 9.48501 5.45922C9.52131 5.41384 9.54854 5.39115 9.58257 5.34804L9.67333 5.24594C9.68584 5.22371 9.70109 5.20314 9.7187 5.18468C9.73702 5.16898 9.75374 5.1515 9.76862 5.1325C9.87072 5.00318 9.90929 5.0599 9.84122 4.86931C9.77316 4.67873 9.70282 4.45638 9.62795 4.24991C9.48728 3.85059 9.333 3.43539 9.20594 3.03381L8.7862 1.81543L5.48047 1.17334C5.57576 1.4751 5.70735 1.77913 5.79357 2.08088C5.80934 2.18675 5.85061 2.2872 5.91382 2.37357" fill="#02833D"/>
<path d="M5.05287 7.03369C5.01549 6.80961 4.96319 6.58828 4.89632 6.37118C4.89632 6.35303 4.87363 6.35303 4.87363 6.35303C4.85057 6.41007 4.81304 6.46012 4.76473 6.49823C4.73297 6.5368 4.73297 6.51412 4.70347 6.55269C4.69402 6.58424 4.67594 6.61253 4.65129 6.63437L4.40625 6.90663L4.47885 6.93159C4.67066 6.98295 4.86649 7.01786 5.06422 7.03595" fill="#128241"/>
</g>
<defs>
<clipPath id="clip0_2_3562">
<rect width="16.1384" height="16" fill="white" transform="translate(0.5625 0.000244141)"/>
</clipPath>
</defs>
</svg>
