<svg width="18" height="16" viewBox="0 0 18 16" fill="none" xmlns="http://www.w3.org/2000/svg">
<g clip-path="url(#clip0_2_3563)">
<path d="M9.4818 15.1344C13.4219 15.1344 16.6159 11.9403 16.6159 8.00023C16.6159 4.06015 13.4219 0.866089 9.4818 0.866089C5.54172 0.866089 2.34766 4.06015 2.34766 8.00023C2.34766 11.9403 5.54172 15.1344 9.4818 15.1344Z" fill="white"/>
<path d="M9.48047 0.000244141C7.89822 0.000244141 6.3515 0.469436 5.03591 1.34849C3.72032 2.22754 2.69494 3.47697 2.08944 4.93878C1.48393 6.40059 1.32551 8.00912 1.63419 9.56097C1.94287 11.1128 2.7048 12.5383 3.82362 13.6571C4.94244 14.7759 6.3679 15.5378 7.91975 15.8465C9.4716 16.1552 11.0801 15.9968 12.5419 15.3913C14.0037 14.7858 15.2532 13.7604 16.1322 12.4448C17.0113 11.1292 17.4805 9.58249 17.4805 8.00024C17.4835 6.95272 17.2802 5.91485 16.8822 4.9459C16.4841 3.97694 15.8991 3.09588 15.1606 2.35301C14.422 1.61014 13.5444 1.02001 12.5778 0.616325C11.6112 0.212637 10.5745 0.00329221 9.52696 0.000244141H9.48047ZM9.61607 8.27143L8.78314 11.0801H13.2383C13.2679 11.0791 13.2973 11.0839 13.3249 11.0942C13.3526 11.1046 13.3779 11.1203 13.3995 11.1404C13.4211 11.1606 13.4385 11.1848 13.4508 11.2117C13.463 11.2386 13.4698 11.2676 13.4708 11.2971V11.3707L13.0834 12.7073C13.0663 12.7705 13.0282 12.826 12.9754 12.8647C12.9226 12.9034 12.8582 12.923 12.7928 12.9203H5.97442L7.11728 9.02688L5.83883 9.41429L6.12938 8.52325L7.40783 8.13584L9.01558 2.67337C9.03328 2.61052 9.0715 2.55539 9.12416 2.51678C9.17681 2.47816 9.24087 2.45828 9.30614 2.46029H11.0301C11.0596 2.45926 11.089 2.46405 11.1167 2.4744C11.1444 2.48474 11.1697 2.50044 11.1913 2.52059C11.2129 2.54073 11.2303 2.56494 11.2425 2.59182C11.2547 2.6187 11.2616 2.64773 11.2626 2.67724V2.75085L9.90662 7.36102L11.1851 6.97361L10.9139 7.90339L9.61607 8.27143Z" fill="#345D9D"/>
</g>
<defs>
<clipPath id="clip0_2_3563">
<rect width="17" height="16" fill="white" transform="translate(0.701172 0.000244141)"/>
</clipPath>
</defs>
</svg>
