<svg width="19" height="16" viewBox="0 0 19 16" fill="none" xmlns="http://www.w3.org/2000/svg">
<g clip-path="url(#clip0_2_3565)">
<path d="M14.4624 16.0002L2.07315 7.30324C1.65065 7.00727 1.30571 6.61382 1.06756 6.15623C0.829418 5.69864 0.705078 5.19039 0.705078 4.67453C0.705078 4.15868 0.829418 3.65043 1.06756 3.19284C1.30571 2.73525 1.65065 2.3418 2.07315 2.04583L5.07414 -0.0507812L17.4634 8.64734C17.8857 8.94346 18.2304 9.33696 18.4684 9.79453C18.7064 10.2521 18.8307 10.7603 18.8307 11.276C18.8307 11.7918 18.7064 12.3 18.4684 12.7575C18.2304 13.2151 17.8857 13.6086 17.4634 13.9047L14.4624 16.0002ZM5.073 1.34772L2.73386 2.98421C2.46194 3.17448 2.23993 3.42753 2.08664 3.72188C1.93335 4.01624 1.85331 4.34322 1.85331 4.6751C1.85331 5.00698 1.93335 5.33396 2.08664 5.62832C2.23993 5.92267 2.46194 6.17572 2.73386 6.36599L14.4658 14.6017L16.805 12.9664C17.0767 12.7759 17.2985 12.5228 17.4516 12.2285C17.6047 11.9342 17.6847 11.6073 17.6847 11.2755C17.6847 10.9437 17.6047 10.6168 17.4516 10.3224C17.2985 10.0281 17.0767 9.77501 16.805 9.58458L5.073 1.34772Z" fill="#4BC0C8"/>
<path d="M5.06085 14.5939L2.72511 12.954C2.45342 12.7635 2.23161 12.5104 2.07848 12.2161C1.92535 11.9218 1.8454 11.5949 1.8454 11.2631C1.8454 10.9313 1.92535 10.6044 2.07848 10.3101C2.23161 10.0157 2.45342 9.76263 2.72511 9.57219L8.77129 5.34497L7.77398 4.64685L2.07119 8.63382C1.64869 8.92979 1.30376 9.32323 1.06561 9.78082C0.827465 10.2384 0.703125 10.7467 0.703125 11.2625C0.703125 11.7784 0.827465 12.2866 1.06561 12.7442C1.30376 13.2018 1.64869 13.5953 2.07119 13.8912L5.06425 15.9924L8.76676 13.4016L7.76945 12.7012L5.06085 14.5939Z" fill="#02819B"/>
<path d="M17.4675 2.05818L14.4733 -0.0429688L10.7674 2.55003L11.7647 3.25042L14.4722 1.36006L16.809 2.99995C17.0807 3.19039 17.3025 3.44349 17.4557 3.73782C17.6088 4.03216 17.6887 4.35906 17.6887 4.69085C17.6887 5.02263 17.6088 5.34953 17.4557 5.64387C17.3025 5.9382 17.0807 6.1913 16.809 6.38174L10.7617 10.6056L11.759 11.3059L17.463 7.31558C17.8855 7.01961 18.2304 6.62617 18.4685 6.16857C18.7067 5.71098 18.831 5.20273 18.831 4.68688C18.831 4.17103 18.7067 3.66278 18.4685 3.20518C18.2304 2.74759 17.8855 2.35415 17.463 2.05818H17.4675Z" fill="#02819B"/>
<path d="M7.49675 4.83531L2.78516 8.13196L3.44202 9.07075L8.15361 5.7741L7.49675 4.83531Z" fill="#02819B"/>
<path d="M16.2012 6.80005L13.9062 8.40708L14.5624 9.34546L16.9424 7.67836C16.6931 7.3905 16.4471 7.09584 16.2012 6.80005Z" fill="#02819B"/>
</g>
<defs>
<clipPath id="clip0_2_3565">
<rect width="18.1329" height="16" fill="white" transform="translate(0.701172 0.000244141)"/>
</clipPath>
</defs>
</svg>
