<svg width="17" height="16" viewBox="0 0 17 16" fill="none" xmlns="http://www.w3.org/2000/svg">
<g clip-path="url(#clip0_2_3568)">
<path d="M8.34375 16.0002C12.762 16.0002 16.3438 12.4185 16.3438 8.00024C16.3438 3.58197 12.762 0.000244141 8.34375 0.000244141C3.92547 0.000244141 0.34375 3.58197 0.34375 8.00024C0.34375 12.4185 3.92547 16.0002 8.34375 16.0002Z" fill="#F55749"/>
<path d="M8.25025 3.024C8.27867 3.0081 8.31069 2.99976 8.34325 2.99976C8.37581 2.99976 8.40783 3.0081 8.43625 3.024L12.5487 5.333C12.5768 5.34851 12.6003 5.37124 12.6166 5.39884C12.633 5.42644 12.6416 5.45792 12.6418 5.49C12.6418 5.555 12.6067 5.615 12.5492 5.647L8.97175 7.664C8.84558 7.52058 8.67371 7.42519 8.48525 7.394V6.2975C8.87275 6.233 9.16825 5.905 9.16825 5.5085C9.16825 5.066 8.80025 4.707 8.34575 4.707C7.89125 4.707 7.52325 5.066 7.52325 5.5085C7.52325 5.9025 7.81575 6.2295 8.20025 6.2965V7.3955C8.01437 7.42748 7.84501 7.52204 7.72025 7.6635L4.14325 5.655C4.11506 5.63962 4.09153 5.61695 4.07512 5.58935C4.05871 5.56176 4.05003 5.53025 4.04998 5.49815C4.04993 5.46604 4.05851 5.43451 4.07483 5.40686C4.09116 5.37921 4.11461 5.35647 4.14275 5.341L8.25075 3.0255L8.25025 3.024ZM12.5608 5.934C12.5891 5.91793 12.6211 5.90945 12.6537 5.90936C12.6863 5.90927 12.7183 5.91759 12.7467 5.9335C12.7749 5.94902 12.7983 5.97174 12.8148 5.99933C12.8312 6.02692 12.84 6.05839 12.8403 6.0905L12.8438 10.5735C12.8438 10.6385 12.8087 10.698 12.7507 10.7305L8.76825 12.9755C8.64475 13.0455 8.48975 12.958 8.48975 12.8185L8.48625 8.972C8.67925 8.94 8.85425 8.8415 8.97975 8.6945L9.97475 9.252C9.94732 9.35432 9.94103 9.46116 9.95625 9.566C10.0193 10.0045 10.4358 10.3095 10.8853 10.248C11.3352 10.186 11.6483 9.7805 11.5852 9.342C11.5222 8.9035 11.1053 8.5985 10.6558 8.6605C10.544 8.67544 10.4366 8.7132 10.3401 8.77144C10.2436 8.82967 10.1601 8.90713 10.0948 8.999L9.11975 8.4525C9.18975 8.267 9.18475 8.0625 9.10725 7.88L12.5612 5.933L12.5608 5.934ZM3.84775 6.09C3.84775 5.984 3.93675 5.9085 4.03375 5.9085C4.06625 5.9085 4.09875 5.917 4.12675 5.9335L7.58425 7.8825C7.50775 8.0645 7.50375 8.2675 7.57275 8.4525L6.59825 8.999C6.53292 8.90715 6.44942 8.82971 6.35291 8.77148C6.25641 8.71325 6.14896 8.67547 6.03725 8.6605C5.58725 8.5985 5.17175 8.904 5.10825 9.342C5.04475 9.78 5.35825 10.1855 5.80825 10.2475C6.25825 10.3095 6.67325 10.004 6.73725 9.566C6.75254 9.461 6.74624 9.35398 6.71875 9.2515L7.71325 8.694C7.83775 8.84 8.01075 8.938 8.20175 8.971L8.19875 12.8185C8.19875 12.958 8.04375 13.045 7.91975 12.975L3.93675 10.73C3.90866 10.7145 3.88523 10.6918 3.86888 10.6642C3.85253 10.6366 3.84385 10.6051 3.84375 10.573L3.84775 6.09Z" fill="white"/>
</g>
<defs>
<clipPath id="clip0_2_3568">
<rect width="16" height="16" fill="white" transform="translate(0.34375 0.000244141)"/>
</clipPath>
</defs>
</svg>
