<svg width="22" height="16" viewBox="0 0 22 16" fill="none" xmlns="http://www.w3.org/2000/svg">
<g clip-path="url(#clip0_2_3575)">
<path d="M8.51172 6.64321L10.8127 11.6604L14.2304 9.71779H14.2369V5.83032L8.51172 6.64321Z" fill="#2BBDF7"/>
<path d="M18.6524 2.91528L16.5196 2.12643L14.2383 1.94287V5.83033V14.0554L17.6603 16.0002L20.3896 10.5241L18.6589 5.25563L18.6524 2.91528Z" fill="#2891F9"/>
<path d="M18.4534 1.94287L17.6602 3.8877V15.9696L21.0822 14.0248V1.94287H18.4534Z" fill="#2BBDF7"/>
<path d="M17.6603 0.000244141L14.2383 1.94288L17.6603 3.88771L21.0823 1.94288L17.6603 0.000244141Z" fill="#2B6DEF"/>
<path d="M10.8132 7.77297L7.39114 3.99695L0.544922 1.94287V14.0248L3.96694 15.9696L4.94809 9.28294L7.39114 9.7178L10.8132 11.6604V7.77297Z" fill="#2891F9"/>
<path d="M3.96694 0.000244141L0.544922 1.94288L10.8132 7.77298L12.3646 6.89454L14.2374 5.83035L3.96694 0.000244141Z" fill="#2B6DEF"/>
<path d="M3.9668 7.77295V15.9696L7.391 14.0248V9.71777L3.9668 7.77295Z" fill="#2BBDF7"/>
</g>
<defs>
<clipPath id="clip0_2_3575">
<rect width="20.5365" height="16" fill="white" transform="translate(0.544922 0.000244141)"/>
</clipPath>
</defs>
</svg>
