<svg width="17" height="16" viewBox="0 0 17 16" fill="none" xmlns="http://www.w3.org/2000/svg">
<g clip-path="url(#clip0_2_3577)">
<path d="M8.08203 16.0002C12.5003 16.0002 16.082 12.4185 16.082 8.00024C16.082 3.58197 12.5003 0.000244141 8.08203 0.000244141C3.66375 0.000244141 0.0820312 3.58197 0.0820312 8.00024C0.0820312 12.4185 3.66375 16.0002 8.08203 16.0002Z" fill="#1E252C"/>
<path d="M7.19203 7.79449C6.99219 7.79449 6.80054 7.71511 6.65923 7.5738C6.51792 7.43249 6.43853 7.24083 6.43853 7.04099C6.43853 6.84115 6.51792 6.6495 6.65923 6.50819C6.80054 6.36688 6.99219 6.28749 7.19203 6.28749C7.39187 6.28749 7.58353 6.36688 7.72484 6.50819C7.86615 6.6495 7.94553 6.84115 7.94553 7.04099C7.94553 7.24083 7.86615 7.43249 7.72484 7.5738C7.58353 7.71511 7.39187 7.79449 7.19203 7.79449ZM9.04103 7.79449C8.84119 7.79449 8.64954 7.71511 8.50823 7.5738C8.36692 7.43249 8.28753 7.24083 8.28753 7.04099C8.28753 6.84115 8.36692 6.6495 8.50823 6.50819C8.64954 6.36688 8.84119 6.28749 9.04103 6.28749C9.24087 6.28749 9.43253 6.36688 9.57384 6.50819C9.71515 6.6495 9.79453 6.84115 9.79453 7.04099C9.79453 7.24083 9.71515 7.43249 9.57384 7.5738C9.43253 7.71511 9.24087 7.79449 9.04103 7.79449ZM7.19153 9.64399C6.99169 9.64399 6.80003 9.56461 6.65873 9.4233C6.51742 9.28199 6.43803 9.09033 6.43803 8.89049C6.43803 8.69065 6.51742 8.499 6.65873 8.35769C6.80003 8.21638 6.99169 8.13699 7.19153 8.13699C7.39137 8.13699 7.58303 8.21638 7.72434 8.35769C7.86564 8.499 7.94503 8.69065 7.94503 8.89049C7.94503 9.09033 7.86564 9.28199 7.72434 9.4233C7.58303 9.56461 7.39137 9.64399 7.19153 9.64399ZM9.04103 9.64399C8.84119 9.64399 8.64954 9.56461 8.50823 9.4233C8.36692 9.28199 8.28753 9.09033 8.28753 8.89049C8.28753 8.69065 8.36692 8.499 8.50823 8.35769C8.64954 8.21638 8.84119 8.13699 9.04103 8.13699C9.24087 8.13699 9.43253 8.21638 9.57384 8.35769C9.71515 8.499 9.79453 8.69065 9.79453 8.89049C9.79453 9.09033 9.71515 9.28199 9.57384 9.4233C9.43253 9.56461 9.24087 9.64399 9.04103 9.64399ZM10.89 7.58899C10.8181 7.58899 10.7468 7.57482 10.6803 7.54728C10.6138 7.51974 10.5534 7.47938 10.5025 7.42849C10.4517 7.3776 10.4113 7.31719 10.3837 7.2507C10.3562 7.18422 10.342 7.11296 10.342 7.04099C10.342 6.96903 10.3562 6.89777 10.3837 6.83128C10.4113 6.7648 10.4517 6.70439 10.5025 6.6535C10.5534 6.60261 10.6138 6.56225 10.6803 6.53471C10.7468 6.50717 10.8181 6.49299 10.89 6.49299C11.0354 6.49299 11.1748 6.55073 11.2775 6.6535C11.3803 6.75627 11.438 6.89566 11.438 7.04099C11.438 7.18633 11.3803 7.32572 11.2775 7.42849C11.1748 7.53126 11.0354 7.58899 10.89 7.58899ZM10.89 9.43849C10.7447 9.43849 10.6053 9.38076 10.5025 9.27799C10.3998 9.17522 10.342 9.03583 10.342 8.89049C10.342 8.74516 10.3998 8.60577 10.5025 8.503C10.6053 8.40023 10.7447 8.34249 10.89 8.34249C11.0354 8.34249 11.1748 8.40023 11.2775 8.503C11.3803 8.60577 11.438 8.74516 11.438 8.89049C11.438 9.03583 11.3803 9.17522 11.2775 9.27799C11.1748 9.38076 11.0354 9.43849 10.89 9.43849ZM5.27403 7.58899C5.12869 7.58899 4.98931 7.53126 4.88654 7.42849C4.78377 7.32572 4.72603 7.18633 4.72603 7.04099C4.72603 6.89566 4.78377 6.75627 4.88654 6.6535C4.98931 6.55073 5.12869 6.49299 5.27403 6.49299C5.41937 6.49299 5.55876 6.55073 5.66153 6.6535C5.7643 6.75627 5.82203 6.89566 5.82203 7.04099C5.82203 7.18633 5.7643 7.32572 5.66153 7.42849C5.55876 7.53126 5.41937 7.58899 5.27403 7.58899ZM5.27403 9.43849C5.12869 9.43849 4.98931 9.38076 4.88654 9.27799C4.78377 9.17522 4.72603 9.03583 4.72603 8.89049C4.72603 8.74516 4.78377 8.60577 4.88654 8.503C4.98931 8.40023 5.12869 8.34249 5.27403 8.34249C5.41937 8.34249 5.55876 8.40023 5.66153 8.503C5.7643 8.60577 5.82203 8.74516 5.82203 8.89049C5.82203 9.03583 5.7643 9.17522 5.66153 9.27799C5.55876 9.38076 5.41937 9.43849 5.27403 9.43849ZM7.19153 11.2875C7.11821 11.2897 7.04518 11.2772 6.97679 11.2507C6.9084 11.2241 6.84603 11.1841 6.79338 11.133C6.74073 11.082 6.69888 11.0208 6.67029 10.9533C6.64171 10.8857 6.62698 10.8131 6.62698 10.7397C6.62698 10.6664 6.64171 10.5938 6.67029 10.5262C6.69888 10.4587 6.74073 10.3975 6.79338 10.3464C6.84603 10.2954 6.9084 10.2554 6.97679 10.2288C7.04518 10.2023 7.11821 10.1898 7.19153 10.192C7.33394 10.1963 7.46907 10.2559 7.56828 10.3581C7.66749 10.4604 7.72298 10.5973 7.72298 10.7397C7.72298 10.8822 7.66749 11.0191 7.56828 11.1213C7.46907 11.2236 7.33394 11.2832 7.19153 11.2875ZM9.04103 11.2875C8.96771 11.2897 8.89468 11.2772 8.82629 11.2507C8.7579 11.2241 8.69553 11.1841 8.64288 11.133C8.59023 11.082 8.54838 11.0208 8.51979 10.9533C8.49121 10.8857 8.47648 10.8131 8.47648 10.7397C8.47648 10.6664 8.49121 10.5938 8.51979 10.5262C8.54838 10.4587 8.59023 10.3975 8.64288 10.3464C8.69553 10.2954 8.7579 10.2554 8.82629 10.2288C8.89468 10.2023 8.96771 10.1898 9.04103 10.192C9.18344 10.1963 9.31857 10.2559 9.41778 10.3581C9.51699 10.4604 9.57248 10.5973 9.57248 10.7397C9.57248 10.8822 9.51699 11.0191 9.41778 11.1213C9.31857 11.2236 9.18344 11.2832 9.04103 11.2875ZM7.19153 5.73999C7.11821 5.74221 7.04518 5.72968 6.97679 5.70315C6.9084 5.67662 6.84603 5.63663 6.79338 5.58555C6.74073 5.53446 6.69888 5.47333 6.67029 5.40577C6.64171 5.33821 6.62698 5.2656 6.62698 5.19224C6.62698 5.11889 6.64171 5.04628 6.67029 4.97872C6.69888 4.91116 6.74073 4.85002 6.79338 4.79894C6.84603 4.74786 6.9084 4.70787 6.97679 4.68134C7.04518 4.65481 7.11821 4.64228 7.19153 4.64449C7.33394 4.6488 7.46907 4.70839 7.56828 4.81065C7.66749 4.9129 7.72298 5.04977 7.72298 5.19224C7.72298 5.33472 7.66749 5.47159 7.56828 5.57384C7.46907 5.6761 7.33394 5.73569 7.19153 5.73999ZM9.04103 5.73999C8.96771 5.74221 8.89468 5.72968 8.82629 5.70315C8.7579 5.67662 8.69553 5.63663 8.64288 5.58555C8.59023 5.53446 8.54838 5.47333 8.51979 5.40577C8.49121 5.33821 8.47648 5.2656 8.47648 5.19224C8.47648 5.11889 8.49121 5.04628 8.51979 4.97872C8.54838 4.91116 8.59023 4.85002 8.64288 4.79894C8.69553 4.74786 8.7579 4.70787 8.82629 4.68134C8.89468 4.65481 8.96771 4.64228 9.04103 4.64449C9.18344 4.6488 9.31857 4.70839 9.41778 4.81065C9.51699 4.9129 9.57248 5.04977 9.57248 5.19224C9.57248 5.33472 9.51699 5.47159 9.41778 5.57384C9.31857 5.6761 9.18344 5.73569 9.04103 5.73999ZM7.19153 3.68499C7.14549 3.68675 7.09956 3.67921 7.0565 3.6628C7.01344 3.64639 6.97413 3.62147 6.94093 3.58951C6.90773 3.55756 6.88132 3.51923 6.86329 3.47683C6.84525 3.43443 6.83595 3.38882 6.83595 3.34274C6.83595 3.29667 6.84525 3.25106 6.86329 3.20866C6.88132 3.16626 6.90773 3.12793 6.94093 3.09598C6.97413 3.06402 7.01344 3.0391 7.0565 3.02269C7.09956 3.00628 7.14549 2.99873 7.19153 3.00049C7.28237 3.00049 7.36948 3.03658 7.43372 3.10081C7.49795 3.16504 7.53403 3.25216 7.53403 3.34299C7.53403 3.43383 7.49795 3.52095 7.43372 3.58518C7.36948 3.64941 7.28237 3.68549 7.19153 3.68549V3.68499ZM9.04103 3.68499C8.99499 3.68675 8.94906 3.67921 8.906 3.6628C8.86294 3.64639 8.82363 3.62147 8.79043 3.58951C8.75723 3.55756 8.73082 3.51923 8.71278 3.47683C8.69475 3.43443 8.68545 3.38882 8.68545 3.34274C8.68545 3.29667 8.69475 3.25106 8.71278 3.20866C8.73082 3.16626 8.75723 3.12793 8.79043 3.09598C8.82363 3.06402 8.86294 3.0391 8.906 3.02269C8.94906 3.00628 8.99499 2.99873 9.04103 3.00049C9.13187 3.00049 9.21898 3.03658 9.28322 3.10081C9.34745 3.16504 9.38353 3.25216 9.38353 3.34299C9.38353 3.43383 9.34745 3.52095 9.28322 3.58518C9.21898 3.64941 9.13187 3.68549 9.04103 3.68549V3.68499ZM12.7395 7.38399C12.6487 7.38399 12.5616 7.34791 12.4973 7.28368C12.4331 7.21945 12.397 7.13233 12.397 7.04149C12.397 6.95066 12.4331 6.86354 12.4973 6.79931C12.5616 6.73508 12.6487 6.69899 12.7395 6.69899C12.8304 6.69899 12.9175 6.73508 12.9817 6.79931C13.0459 6.86354 13.082 6.95066 13.082 7.04149C13.082 7.13233 13.0459 7.21945 12.9817 7.28368C12.9175 7.34791 12.8304 7.38399 12.7395 7.38399ZM12.7395 9.23349C12.6487 9.23349 12.5616 9.19741 12.4973 9.13318C12.4331 9.06895 12.397 8.98183 12.397 8.89099C12.397 8.80016 12.4331 8.71304 12.4973 8.64881C12.5616 8.58458 12.6487 8.54849 12.7395 8.54849C12.8304 8.54849 12.9175 8.58458 12.9817 8.64881C13.0459 8.71304 13.082 8.80016 13.082 8.89099C13.082 8.98183 13.0459 9.06895 12.9817 9.13318C12.9175 9.19741 12.8304 9.23349 12.7395 9.23349ZM3.42453 7.38399C3.33369 7.38399 3.24658 7.34791 3.18235 7.28368C3.11812 7.21945 3.08203 7.13233 3.08203 7.04149C3.08203 6.95066 3.11812 6.86354 3.18235 6.79931C3.24658 6.73508 3.33369 6.69899 3.42453 6.69899C3.51537 6.69899 3.60248 6.73508 3.66672 6.79931C3.73095 6.86354 3.76703 6.95066 3.76703 7.04149C3.76703 7.13233 3.73095 7.21945 3.66672 7.28368C3.60248 7.34791 3.51537 7.38399 3.42453 7.38399ZM3.42453 9.23349C3.33369 9.23349 3.24658 9.19741 3.18235 9.13318C3.11812 9.06895 3.08203 8.98183 3.08203 8.89099C3.08203 8.80016 3.11812 8.71304 3.18235 8.64881C3.24658 8.58458 3.33369 8.54849 3.42453 8.54849C3.51537 8.54849 3.60248 8.58458 3.66672 8.64881C3.73095 8.71304 3.76703 8.80016 3.76703 8.89099C3.76703 8.98183 3.73095 9.06895 3.66672 9.13318C3.60248 9.19741 3.51537 9.23349 3.42453 9.23349ZM7.19153 13C7.10069 13 7.01358 12.9639 6.94935 12.8997C6.88512 12.8354 6.84903 12.7483 6.84903 12.6575C6.84903 12.5667 6.88512 12.4795 6.94935 12.4153C7.01358 12.3511 7.10069 12.315 7.19153 12.315C7.28237 12.315 7.36948 12.3511 7.43372 12.4153C7.49795 12.4795 7.53403 12.5667 7.53403 12.6575C7.53403 12.7483 7.49795 12.8354 7.43372 12.8997C7.36948 12.9639 7.28237 13 7.19153 13ZM9.04103 13C8.95019 13 8.86308 12.9639 8.79885 12.8997C8.73462 12.8354 8.69853 12.7483 8.69853 12.6575C8.69853 12.5667 8.73462 12.4795 8.79885 12.4153C8.86308 12.3511 8.95019 12.315 9.04103 12.315C9.13187 12.315 9.21898 12.3511 9.28322 12.4153C9.34745 12.4795 9.38353 12.5667 9.38353 12.6575C9.38353 12.7483 9.34745 12.8354 9.28322 12.8997C9.21898 12.9639 9.13187 13 9.04103 13Z" fill="white"/>
</g>
<defs>
<clipPath id="clip0_2_3577">
<rect width="16" height="16" fill="white" transform="translate(0.0820312 0.000244141)"/>
</clipPath>
</defs>
</svg>
