<svg width="33" height="16" viewBox="0 0 33 16" fill="none" xmlns="http://www.w3.org/2000/svg">
<g clip-path="url(#clip0_2_3580)">
<path d="M5.23544 0.737188V4.41672C5.23551 4.51352 5.2165 4.60938 5.17949 4.69882C5.14248 4.78826 5.0882 4.86953 5.01975 4.93797C4.95131 5.00642 4.87004 5.0607 4.7806 5.09771C4.69116 5.13472 4.5953 5.15373 4.4985 5.15367H0.818975C0.722179 5.15373 0.626319 5.13472 0.536878 5.09771C0.447437 5.0607 0.36617 5.00642 0.297725 4.93797C0.22928 4.86953 0.175 4.78826 0.13799 4.69882C0.100979 4.60938 0.0819632 4.51352 0.0820314 4.41672V0.737188C0.0819632 0.640392 0.100979 0.544531 0.13799 0.45509C0.175 0.365649 0.22928 0.284382 0.297725 0.215937C0.36617 0.147492 0.447437 0.0932118 0.536878 0.0562011C0.626319 0.0191903 0.722179 0.000176085 0.818975 0.000244324H4.4985C4.5953 0.000176085 4.69116 0.0191903 4.7806 0.0562011C4.87004 0.0932118 4.95131 0.147492 5.01975 0.215937C5.0882 0.284382 5.14248 0.365649 5.17949 0.45509C5.2165 0.544531 5.23551 0.640392 5.23544 0.737188ZM10.3525 5.67264H6.673C6.57621 5.67257 6.48035 5.69159 6.3909 5.7286C6.30146 5.76561 6.2202 5.81989 6.15175 5.88833C6.08331 5.95678 6.02903 6.03805 5.99202 6.12749C5.95501 6.21693 5.93599 6.31279 5.93606 6.40959V15.2633C5.93599 15.3601 5.95501 15.456 5.99202 15.5454C6.02903 15.6348 6.08331 15.7161 6.15175 15.7845C6.2202 15.853 6.30146 15.9073 6.3909 15.9443C6.48035 15.9813 6.57621 16.0003 6.673 16.0002H10.3525C10.4493 16.0003 10.5452 15.9813 10.6346 15.9443C10.7241 15.9073 10.8053 15.853 10.8738 15.7845C10.9422 15.7161 10.9965 15.6348 11.0335 15.5454C11.0705 15.456 11.0895 15.3601 11.0895 15.2633V6.40959C11.0895 6.31279 11.0705 6.21693 11.0335 6.12749C10.9965 6.03805 10.9422 5.95678 10.8738 5.88833C10.8053 5.81989 10.7241 5.76561 10.6346 5.7286C10.5452 5.69159 10.4493 5.67257 10.3525 5.67264ZM21.3133 5.67264H18.5367C18.2771 5.67271 18.0199 5.62161 17.78 5.52227C17.5401 5.42292 17.3221 5.27728 17.1384 5.09366C16.9548 4.91003 16.8092 4.69203 16.7098 4.45211C16.6105 4.21218 16.5594 3.95503 16.5595 3.69535V0.737188C16.5595 0.640392 16.5405 0.544531 16.5035 0.45509C16.4665 0.365649 16.4122 0.284382 16.3438 0.215937C16.2753 0.147492 16.1941 0.0932118 16.1046 0.0562011C16.0152 0.0191903 15.9193 0.000176085 15.8225 0.000244324H12.143C12.0462 0.000176085 11.9503 0.0191903 11.8609 0.0562011C11.7715 0.0932118 11.6902 0.147492 11.6217 0.215937C11.5533 0.284382 11.499 0.365649 11.462 0.45509C11.425 0.544531 11.406 0.640392 11.406 0.737188V4.41672C11.406 4.51352 11.425 4.60938 11.462 4.69882C11.499 4.78826 11.5533 4.86953 11.6217 4.93797C11.6902 5.00642 11.7715 5.0607 11.8609 5.09771C11.9503 5.13472 12.0462 5.15373 12.143 5.15367H13.4923C13.5663 5.14332 13.6408 5.13812 13.7155 5.1381H14.9195C15.1792 5.13803 15.4363 5.18913 15.6763 5.28847C15.9162 5.38781 16.1342 5.53346 16.3178 5.71708C16.5014 5.9007 16.6471 6.1187 16.7464 6.35863C16.8458 6.59856 16.8969 6.85571 16.8968 7.11539V15.2581C16.8967 15.3549 16.9157 15.4508 16.9527 15.5402C16.9898 15.6296 17.044 15.7109 17.1125 15.7794C17.1809 15.8478 17.2622 15.9021 17.3516 15.9391C17.4411 15.9761 17.5369 15.9951 17.6337 15.9951H21.3133C21.4101 15.9951 21.5059 15.9761 21.5954 15.9391C21.6848 15.9021 21.7661 15.8478 21.8345 15.7794C21.903 15.7109 21.9572 15.6296 21.9942 15.5402C22.0313 15.4508 22.0503 15.3549 22.0502 15.2581V6.40959C22.0503 6.31279 22.0313 6.21693 21.9942 6.12749C21.9572 6.03805 21.903 5.95678 21.8345 5.88833C21.7661 5.81989 21.6848 5.76561 21.5954 5.7286C21.5059 5.69159 21.4101 5.67257 21.3133 5.67264ZM31.9678 5.67264H29.1913C28.9316 5.67271 28.6745 5.62161 28.4345 5.52227C28.1946 5.42292 27.9766 5.27728 27.793 5.09366C27.6094 4.91003 27.4637 4.69203 27.3644 4.45211C27.265 4.21218 27.2139 3.95503 27.214 3.69535V0.737188C27.2141 0.640392 27.1951 0.544531 27.158 0.45509C27.121 0.365649 27.0667 0.284382 26.9983 0.215937C26.9299 0.147492 26.8486 0.0932118 26.7592 0.0562011C26.6697 0.0191903 26.5738 0.000176085 26.4771 0.000244324H22.7923C22.6955 0.000176085 22.5997 0.0191903 22.5102 0.0562011C22.4208 0.0932118 22.3395 0.147492 22.2711 0.215937C22.2026 0.284382 22.1484 0.365649 22.1114 0.45509C22.0743 0.544531 22.0553 0.640392 22.0554 0.737188V4.41672C22.0553 4.51352 22.0743 4.60938 22.1114 4.69882C22.1484 4.78826 22.2026 4.86953 22.2711 4.93797C22.3395 5.00642 22.4208 5.0607 22.5102 5.09771C22.5997 5.13472 22.6955 5.15373 22.7923 5.15367H24.1417C24.2156 5.14332 24.2902 5.13812 24.3648 5.1381H25.5688C25.8285 5.13803 26.0857 5.18913 26.3256 5.28847C26.5655 5.38781 26.7835 5.53346 26.9672 5.71708C27.1508 5.9007 27.2964 6.1187 27.3958 6.35863C27.4951 6.59856 27.5462 6.85571 27.5461 7.11539V15.2581C27.5461 15.3549 27.5651 15.4508 27.6021 15.5402C27.6391 15.6296 27.6934 15.7109 27.7618 15.7794C27.8303 15.8478 27.9115 15.9021 28.001 15.9391C28.0904 15.9761 28.1863 15.9951 28.2831 15.9951H31.9626C32.0594 15.9951 32.1553 15.9761 32.2447 15.9391C32.3341 15.9021 32.4154 15.8478 32.4839 15.7794C32.5523 15.7109 32.6066 15.6296 32.6436 15.5402C32.6806 15.4508 32.6996 15.3549 32.6996 15.2581V6.40959C32.7009 6.31286 32.683 6.21684 32.6468 6.12714C32.6106 6.03745 32.5568 5.95589 32.4886 5.88725C32.4205 5.81861 32.3393 5.76427 32.2499 5.72741C32.1604 5.69056 32.0645 5.67194 31.9678 5.67264Z" fill="#231F20"/>
</g>
<defs>
<clipPath id="clip0_2_3580">
<rect width="32.6176" height="16" fill="white" transform="translate(0.0820312 0.000244141)"/>
</clipPath>
</defs>
</svg>
