<svg width="17" height="16" viewBox="0 0 17 16" fill="none" xmlns="http://www.w3.org/2000/svg">
<g clip-path="url(#clip0_2_3585)">
<path d="M8.48047 16.0002C12.8987 16.0002 16.4805 12.4185 16.4805 8.00024C16.4805 3.58197 12.8987 0.000244141 8.48047 0.000244141C4.06219 0.000244141 0.480469 3.58197 0.480469 8.00024C0.480469 12.4185 4.06219 16.0002 8.48047 16.0002Z" fill="#00316D"/>
<path d="M9.55838 9.94384C9.55188 9.93184 9.55088 9.92684 9.54838 9.92534C9.23838 9.77884 8.92838 9.63184 8.61738 9.48734C8.60088 9.47934 8.56738 9.48134 8.55688 9.49284C8.42188 9.63784 8.28988 9.78634 8.15588 9.93484C8.25288 10.0063 9.47738 10.0068 9.55838 9.94384ZM6.72138 6.36234L6.69038 6.29734C6.66438 6.31584 6.63038 6.32934 6.61338 6.35434C6.32695 6.7805 6.04228 7.20783 5.75938 7.63634C5.74188 7.66334 5.74288 7.70284 5.73438 7.73634C5.76938 7.72934 5.80838 7.73084 5.83688 7.71334C6.07977 7.56727 6.32046 7.41759 6.55888 7.26434C6.60079 7.2348 6.62963 7.19018 6.63938 7.13984C6.67138 6.88984 6.69338 6.63834 6.72138 6.36234ZM12.7199 9.98734H13.1329C13.2124 9.98734 13.2429 9.95734 13.1924 9.88084C12.9299 9.47984 12.6684 9.07834 12.4049 8.67884C12.3909 8.65684 12.3589 8.64734 12.3349 8.63234C12.3224 8.65734 12.3009 8.68234 12.2984 8.70884C12.2679 9.09984 12.2404 9.49084 12.2104 9.88184C12.2049 9.95634 12.2309 9.98984 12.3069 9.98834C12.4444 9.98534 12.5819 9.98734 12.7199 9.98734ZM3.85288 9.95734C3.91588 9.97234 3.94688 9.98634 3.97738 9.98684C4.42388 9.98784 4.87038 9.98684 5.31638 9.98784C5.40288 9.98784 5.42488 9.95734 5.38838 9.87384C5.24831 9.55617 5.1113 9.23716 4.97738 8.91684C4.93838 8.82334 4.90238 8.82784 4.84088 8.89384C4.60288 9.15084 4.36288 9.40534 4.12388 9.66084C4.04038 9.75084 3.95888 9.84084 3.85288 9.95734ZM10.4504 7.65084C10.4794 7.70734 10.4889 7.73184 10.5034 7.75284L11.1074 8.62984C11.3569 8.99234 11.6059 9.35484 11.8574 9.71584C11.8744 9.74084 11.9074 9.75434 11.9324 9.77284C11.9454 9.74284 11.9664 9.71434 11.9704 9.68334C11.9804 9.59834 11.9824 9.51334 11.9879 9.42834C12.0149 9.04084 12.0449 8.65384 12.0679 8.26684C12.0779 8.10184 12.0064 8.01684 11.8499 7.97784C11.4324 7.87334 11.0149 7.76834 10.5969 7.66484C10.5594 7.65584 10.5199 7.65734 10.4504 7.65084ZM10.3444 5.08334L10.3064 5.08984C10.3014 5.16634 10.2939 5.24334 10.2914 5.32084L10.2359 7.20634C10.2334 7.27534 10.2539 7.31134 10.3254 7.32834C10.7584 7.43334 11.1904 7.54384 11.6234 7.65034C11.6609 7.65934 11.7024 7.65084 11.7419 7.65034C11.7319 7.61184 11.7299 7.56834 11.7114 7.53434C11.2799 6.74934 10.8474 5.96434 10.4139 5.18034C10.3949 5.14584 10.3679 5.11534 10.3444 5.08334ZM8.40188 8.93684C8.41388 8.87034 8.42538 8.83034 8.42688 8.79034C8.43338 8.58084 8.43388 8.37134 8.44338 8.16184C8.45235 8.00222 8.40492 7.84453 8.30938 7.71634C7.91239 7.16551 7.51656 6.61384 7.12188 6.06134C7.10388 6.03634 7.09638 6.00384 7.08388 5.97484L7.03688 6.00284C7.02538 6.04484 7.00738 6.08634 7.00288 6.12884C6.96788 6.46884 6.93788 6.80884 6.90038 7.14784C6.89467 7.18351 6.89745 7.22003 6.90848 7.25443C6.91951 7.28883 6.93849 7.32014 6.96388 7.34584C7.41138 7.84434 7.85588 8.34584 8.30238 8.84584C8.32638 8.87284 8.35538 8.89484 8.40188 8.93684ZM8.69038 8.83234L8.72038 8.85234C8.74788 8.83084 8.78038 8.81384 8.80238 8.78734C9.18255 8.32577 9.56139 7.8631 9.93888 7.39934C9.96203 7.36995 9.97563 7.33419 9.97788 7.29684C9.99588 6.67934 10.0114 6.06184 10.0254 5.44434C10.0264 5.41034 10.0069 5.37584 9.99638 5.34184C9.96888 5.36834 9.93038 5.38984 9.91488 5.42184C9.56488 6.16284 9.23038 6.91134 8.86338 7.64284C8.66938 8.02984 8.70038 8.42934 8.69038 8.83284V8.83234ZM6.93888 9.98784C7.17938 9.98784 7.42038 9.99134 7.66088 9.98484C7.71577 9.98224 7.76792 9.96007 7.80788 9.92234C7.97538 9.74684 8.13238 9.56084 8.29938 9.38484C8.36188 9.31984 8.34788 9.27984 8.29488 9.22184C8.0127 8.9158 7.73303 8.60745 7.45588 8.29684C7.38888 8.22184 7.35038 8.22234 7.29038 8.30434C6.90988 8.82484 6.52538 9.34184 6.14288 9.86134C6.12388 9.88734 6.11688 9.92184 6.10388 9.95234C6.13738 9.96434 6.17088 9.98584 6.20488 9.98584C6.44988 9.98884 6.69388 9.98784 6.93888 9.98784ZM7.18788 8.00484C7.05488 7.85034 6.92438 7.70484 6.80088 7.55234C6.74888 7.48884 6.70888 7.48234 6.63888 7.52584C6.22088 7.78884 5.79838 8.04484 5.38138 8.30934C5.30588 8.35734 5.24638 8.43184 5.18238 8.49734C5.12288 8.55834 5.13088 8.62534 5.16338 8.70034C5.32588 9.07184 5.48438 9.44484 5.64488 9.81734C5.70588 9.95734 5.72888 9.95984 5.82238 9.83484C6.06988 9.50484 6.31638 9.17334 6.56288 8.84284L7.18788 8.00484ZM10.0854 7.61084C10.0529 7.66334 10.0374 7.69534 10.0154 7.72134C9.61938 8.20434 9.22288 8.68734 8.82388 9.16834C8.75888 9.24684 8.79238 9.27784 8.86588 9.31134C9.32438 9.52134 9.78088 9.73484 10.2404 9.94384C10.2992 9.97035 10.3628 9.98464 10.4274 9.98584C10.8054 9.98934 11.1839 9.98834 11.5624 9.98634C11.5974 9.98634 11.6329 9.97034 11.6684 9.96134C11.6559 9.92434 11.6504 9.88184 11.6284 9.85034C11.2796 9.34097 10.9297 8.8323 10.5789 8.32434C10.4239 8.09934 10.2679 7.87434 10.0854 7.61084ZM8.47688 10.4993C6.75588 10.4993 5.03488 10.4988 3.31388 10.5003C3.17988 10.5003 3.05888 10.4853 3.00088 10.3413C2.94588 10.2048 3.00988 10.1038 3.09938 10.0083C3.61338 9.45934 4.13438 8.91634 4.63438 8.35534C4.82538 8.14134 4.97288 7.88684 5.13438 7.64634C5.65188 6.87234 6.16538 6.09534 6.68538 5.32334C6.73638 5.24784 6.81438 5.17134 6.89638 5.14134C7.00938 5.09934 7.10588 5.16434 7.17788 5.26734C7.59638 5.86534 8.01788 6.46134 8.43838 7.05834C8.52488 7.18034 8.55588 7.17634 8.61988 7.03734L9.91688 4.21234C9.96788 4.10134 10.0354 4.00684 10.1669 4.00084C10.3044 3.99434 10.3879 4.07784 10.4524 4.19584C11.1034 5.37684 11.7394 6.56784 12.4159 7.73384C12.8249 8.43884 13.2984 9.10434 13.7429 9.78784C13.7979 9.87184 13.8534 9.95534 13.9074 10.0403C13.9724 10.1428 14.0109 10.2553 13.9499 10.3688C13.8899 10.4788 13.7789 10.4998 13.6624 10.4998C11.9339 10.4988 10.2054 10.4993 8.47688 10.4993Z" fill="white"/>
</g>
<defs>
<clipPath id="clip0_2_3585">
<rect width="16" height="16" fill="white" transform="translate(0.480469 0.000244141)"/>
</clipPath>
</defs>
</svg>
