<svg width="17" height="16" viewBox="0 0 17 16" fill="none" xmlns="http://www.w3.org/2000/svg">
<g clip-path="url(#clip0_2_3586)">
<path d="M8.48047 16.0002C12.8987 16.0002 16.4805 12.4185 16.4805 8.00024C16.4805 3.58197 12.8987 0.000244141 8.48047 0.000244141C4.06219 0.000244141 0.480469 3.58197 0.480469 8.00024C0.480469 12.4185 4.06219 16.0002 8.48047 16.0002Z" fill="#1EB5FA"/>
<path d="M13.683 3.57573L11.868 4.38073C11.815 4.40969 11.7709 4.45236 11.7401 4.50426C11.7093 4.55616 11.693 4.61538 11.693 4.67573V11.1657C11.6928 11.2267 11.7095 11.2866 11.7413 11.3387C11.7731 11.3908 11.8186 11.433 11.873 11.4607L13.688 12.2457C13.7138 12.2599 13.7429 12.267 13.7724 12.2664C13.8019 12.2658 13.8307 12.2575 13.8559 12.2423C13.8812 12.2272 13.9021 12.2057 13.9165 12.1799C13.9309 12.1542 13.9383 12.1252 13.938 12.0957V3.72573C13.937 3.69622 13.9286 3.66742 13.9136 3.64202C13.8985 3.61663 13.8772 3.59546 13.8518 3.58049C13.8263 3.56552 13.7975 3.55723 13.768 3.5564C13.7385 3.55556 13.7092 3.56222 13.683 3.57573ZM4.99048 4.37073L3.23048 3.57073C3.20461 3.5566 3.17551 3.54949 3.14605 3.55008C3.11658 3.55068 3.08779 3.55897 3.06252 3.57413C3.03725 3.58929 3.01638 3.6108 3.00199 3.63652C2.9876 3.66223 2.98018 3.69126 2.98048 3.72073V12.0907C2.9805 12.1211 2.98861 12.1509 3.00399 12.177C3.01936 12.2032 3.04144 12.2247 3.06793 12.2395C3.09443 12.2543 3.12439 12.2617 3.15472 12.2611C3.18505 12.2604 3.21465 12.2517 3.24048 12.2357L5.01048 11.3007C5.05936 11.2709 5.09976 11.2291 5.12778 11.1792C5.15581 11.1293 5.17051 11.073 5.17048 11.0157V4.66573C5.16857 4.60519 5.15098 4.54617 5.11943 4.49446C5.08787 4.44276 5.04344 4.40012 4.99048 4.37073ZM10.5105 6.58573L8.61548 5.50073C8.56458 5.47123 8.5068 5.45569 8.44798 5.45569C8.38915 5.45569 8.33137 5.47123 8.28048 5.50073L6.35048 6.57573C6.29885 6.60577 6.25598 6.64881 6.22616 6.70057C6.19633 6.75233 6.18058 6.81099 6.18048 6.87073V9.07073C6.18048 9.19223 6.24548 9.30473 6.35048 9.36573L8.28048 10.4757C8.38398 10.5357 8.51198 10.5357 8.61548 10.4757L10.5105 9.37573C10.5621 9.34569 10.605 9.30265 10.6348 9.25089C10.6646 9.19913 10.6804 9.14046 10.6805 9.08073V6.88073C10.681 6.82087 10.6655 6.76197 10.6356 6.7101C10.6057 6.65824 10.5625 6.6153 10.5105 6.58573Z" fill="white"/>
</g>
<defs>
<clipPath id="clip0_2_3586">
<rect width="16" height="16" fill="white" transform="translate(0.480469 0.000244141)"/>
</clipPath>
</defs>
</svg>
