<svg width="15" height="16" viewBox="0 0 15 16" fill="none" xmlns="http://www.w3.org/2000/svg">
<g clip-path="url(#clip0_2_3589)">
<path d="M4.72098 0.510931C5.30056 -0.0820303 6.30224 -0.171995 6.97603 0.311349C7.64349 0.750931 7.92077 1.66584 7.62962 2.40675C7.45987 2.8703 7.08147 3.2333 6.63387 3.43023C6.76907 4.1264 6.91262 4.82048 7.04851 5.51553C7.8559 5.45804 8.6729 5.84306 9.13701 6.50661C9.67248 7.24529 9.69959 8.288 9.23708 9.06933C10.1105 9.88633 10.9819 10.7051 11.8514 11.5256C12.2765 11.178 12.8739 11.0493 13.3949 11.2392C13.9942 11.4474 14.4254 12.0536 14.4179 12.6887C14.4238 13.2532 14.0879 13.7995 13.5866 14.0566C13.2762 14.2238 12.908 14.261 12.5641 14.1981C11.9914 14.0853 11.5086 13.6185 11.3783 13.0495C11.2868 12.6983 11.3504 12.3279 11.4898 11.9984C10.6153 11.1777 9.74349 10.3538 8.86586 9.53679C8.26495 10.1175 7.3575 10.3575 6.55325 10.1121C6.11471 11.3076 5.70433 12.5131 5.26579 13.709C5.42969 13.9613 5.56433 14.2434 5.57339 14.55C5.5883 15.0088 5.36691 15.4713 4.99004 15.7363C4.65053 15.9806 4.19813 16.0679 3.79576 15.9449C3.28105 15.8056 2.87548 15.3456 2.79778 14.8187C2.74293 14.5505 2.81429 14.2801 2.89624 14.0263C2.72112 13.9008 2.54711 13.7745 2.37199 13.6494C2.15854 13.7654 1.9244 13.8617 1.67687 13.8479C1.17304 13.8594 0.696174 13.5039 0.543282 13.027C0.389972 12.5927 0.525163 12.0796 0.863143 11.7688C1.1761 11.4681 1.65757 11.3647 2.06711 11.5048C2.52586 11.6523 2.8729 12.0982 2.88725 12.5821C2.90433 12.7981 2.83938 13.0079 2.76914 13.2093C2.93248 13.3208 3.0922 13.4376 3.25506 13.5499C3.46314 13.3902 3.70161 13.2619 3.96454 13.2247C4.23966 13.1693 4.51506 13.2476 4.77617 13.3279C5.18119 12.1746 5.59583 11.0249 6.00196 9.87149C5.31269 9.4464 4.84377 8.66333 4.87408 7.84424C4.8499 6.8632 5.5398 5.94292 6.463 5.63476C6.33262 4.9418 6.18516 4.25205 6.05367 3.55957C5.47569 3.57023 4.8961 3.31156 4.55025 2.84347C4.01645 2.16487 4.09415 1.1041 4.72112 0.51121L4.72098 0.510931ZM5.79206 0.729398C5.21778 0.806053 4.79464 1.42347 4.92795 1.9871C5.01896 2.45442 5.45485 2.83658 5.93659 2.83226C6.40349 2.86264 6.85785 2.53316 6.98614 2.08557C7.13143 1.63685 6.93081 1.10626 6.52307 0.868841C6.30809 0.730444 6.04224 0.694625 5.79234 0.729468L5.79206 0.729398ZM6.86698 6.55232C6.19952 6.71205 5.74447 7.43692 5.88607 8.10759C5.98879 8.73079 6.57952 9.22473 7.21241 9.21086C7.83081 9.22793 8.41311 8.75957 8.53764 8.1549C8.66488 7.61999 8.42377 7.0186 7.95701 6.72633C7.6398 6.51727 7.23311 6.45379 6.86698 6.55212V6.55232ZM12.6082 11.9097C12.2197 12.0385 11.9615 12.485 12.0733 12.8842C12.1611 13.2738 12.5619 13.5617 12.96 13.5133C13.3858 13.4766 13.7397 13.0673 13.6977 12.6383C13.687 12.1162 13.0962 11.7185 12.6082 11.9097ZM1.48551 12.0717C1.04649 12.2015 0.931993 12.8452 1.30029 13.1186C1.64035 13.4288 2.25353 13.184 2.29234 12.7268C2.36851 12.2994 1.88948 11.9029 1.48551 12.0718V12.0717ZM3.98969 13.9484C3.7938 14.0038 3.6283 14.1533 3.54795 14.3401C3.37067 14.7304 3.65116 15.2332 4.07854 15.278C4.47241 15.3482 4.87373 15.0062 4.85617 14.6052C4.87708 14.1671 4.40537 13.8164 3.98969 13.9484" fill="#6EA8F2"/>
</g>
<defs>
<clipPath id="clip0_2_3589">
<rect width="13.9376" height="16" fill="white" transform="translate(0.480469 0.000244141)"/>
</clipPath>
</defs>
</svg>
