<svg width="17" height="16" viewBox="0 0 17 16" fill="none" xmlns="http://www.w3.org/2000/svg">
<g clip-path="url(#clip0_2_3590)">
<path d="M8.41797 16.0002C12.8362 16.0002 16.418 12.4185 16.418 8.00024C16.418 3.58197 12.8362 0.000244141 8.41797 0.000244141C3.99969 0.000244141 0.417969 3.58197 0.417969 8.00024C0.417969 12.4185 3.99969 16.0002 8.41797 16.0002Z" fill="#DEC799"/>
<path d="M12.183 6.70724L11.4705 3.50024L10.072 5.70724C8.98476 5.44473 7.85068 5.44473 6.76347 5.70724L5.36897 3.50024L4.65397 6.70724C3.88647 7.32124 3.41797 8.12374 3.41797 9.00474C3.41797 10.9347 5.65597 12.4992 8.41647 12.4992C11.177 12.4992 13.415 10.9342 13.415 9.00474C13.4145 8.12374 12.95 7.32124 12.1825 6.70724H12.183ZM5.63897 8.17524H5.30597L6.11947 7.23724H6.71147L5.63897 8.17524ZM8.39097 10.4672L7.00797 8.03124L7.34947 7.83624L7.65797 8.37874H9.16847L9.49047 7.83374L9.82847 8.03474L8.39097 10.4672ZM11.1975 8.17524L10.1245 7.23724H10.7205L11.533 8.17524H11.1975ZM8.39747 9.68274L7.88097 8.77274H8.93497L8.39747 9.68274Z" fill="white"/>
</g>
<defs>
<clipPath id="clip0_2_3590">
<rect width="16" height="16" fill="white" transform="translate(0.417969 0.000244141)"/>
</clipPath>
</defs>
</svg>
