<svg width="19" height="16" viewBox="0 0 19 16" fill="none" xmlns="http://www.w3.org/2000/svg">
<g clip-path="url(#clip0_2_3592)">
<path d="M12.2434 11.4184L9.89333 13.2397V7.74246C9.89331 7.27711 10.0014 6.81813 10.2091 6.40171C10.4169 5.9853 10.7185 5.62285 11.0903 5.34296L13.4053 3.60106V9.04451C13.4055 9.5026 13.3009 9.95467 13.0995 10.3661C12.8981 10.7776 12.6053 11.1375 12.2434 11.4184ZM6.26311 11.4215C5.90088 11.1408 5.60768 10.781 5.40597 10.3695C5.20425 9.95805 5.09936 9.50589 5.09934 9.04764V3.60419L7.41437 5.34859C7.78574 5.62848 8.08704 5.99079 8.29453 6.40696C8.50202 6.82314 8.61003 7.28181 8.61005 7.74684V13.2429L6.26123 11.4215H6.26311ZM16.8372 14.2809L14.5847 15.999V4.26366C14.5847 3.77354 14.6976 3.29001 14.9146 2.85056C15.1316 2.41111 15.4469 2.02755 15.8361 1.72964L18.0892 0.000244141V11.7431C18.0891 12.2343 17.9757 12.7189 17.7576 13.1591C17.5396 13.5992 17.2229 13.9831 16.8322 14.2809H16.8372ZM1.67935 14.2809C1.28799 13.9837 0.970546 13.6002 0.751752 13.1602C0.532959 12.7203 0.418729 12.2357 0.417969 11.7443L0.417969 0.000244141L2.67794 1.73089C3.06712 2.0288 3.38244 2.41236 3.59946 2.85181C3.81647 3.29126 3.92934 3.77479 3.92931 4.26491V16.0002L1.67685 14.2821L1.67935 14.2809Z" fill="#0072FF"/>
</g>
<defs>
<clipPath id="clip0_2_3592">
<rect width="17.6712" height="16" fill="white" transform="translate(0.417969 0.000244141)"/>
</clipPath>
</defs>
</svg>
