<svg width="17" height="16" viewBox="0 0 17 16" fill="none" xmlns="http://www.w3.org/2000/svg">
<g clip-path="url(#clip0_2_3595)">
<path d="M16.8974 7.83948C16.899 7.89376 16.8996 7.94709 16.8996 8.00105C16.9016 9.28184 16.5946 10.5442 16.0046 11.681L11.6426 13.4413L11.6514 13.4214L16.8974 7.83948Z" fill="#0F6089"/>
<path d="M16.8973 7.83806L11.6523 13.422L16.5246 5.57471C16.7574 6.3072 16.883 7.06957 16.8973 7.83806Z" fill="#078FA4"/>
<path d="M16.5245 5.57482L11.6521 13.4222L11.6388 13.4433L11.0547 3.28809L15.9533 5.12101L16.5245 5.57482Z" fill="#00AAA6"/>
<path d="M16.5263 5.57463L15.9551 5.12085L16.4329 5.29914C16.4663 5.39034 16.4979 5.48248 16.5263 5.57463Z" fill="#00AAA6"/>
<path d="M16.4329 5.29957L11.7116 0.509033C12.7987 0.917725 13.784 1.55782 14.5992 2.38499C15.4144 3.21217 16.0401 4.20665 16.4329 5.29957ZM11.7116 0.509033L16.4329 5.29957L15.9551 5.12126L11.4648 1.55456L11.711 0.509033H11.7116Z" fill="#1EAAE2"/>
<path d="M11.6433 13.4418L16.0046 11.6802C15.4592 12.7322 14.6871 13.6501 13.744 14.3676C12.8008 15.0851 11.7102 15.5842 10.5508 15.8291L11.5976 13.5431L11.6433 13.4418Z" fill="#0C7392"/>
<path d="M15.9532 5.1209L11.0547 3.28801L11.4631 1.5542L15.9532 5.1209Z" fill="#1EAAE2"/>
<path d="M11.7106 0.508597L11.4641 1.55412L9.53906 0.0257568C10.2821 0.0833739 11.0131 0.245935 11.7106 0.508597Z" fill="#ABCF3A"/>
<path d="M11.6406 13.4425L11.6539 13.4213L11.6451 13.4412L11.6406 13.4425Z" fill="#CD1685"/>
<path d="M11.6443 13.4419L11.5976 13.5432L5.94141 9.417L6.01462 9.35199L11.0557 3.28809L11.6399 13.4432L11.6443 13.4419Z" fill="#8F9990"/>
<path d="M11.5979 13.5439L10.5511 15.8299C10.0087 15.9442 9.45585 16.0015 8.90154 16.001C8.68064 16.001 8.46446 15.9921 8.24987 15.9748L3.27344 11.6482L3.41829 11.6798L11.5979 13.5439Z" fill="#CD1685"/>
<path d="M11.5975 13.5427L3.41797 11.6799L5.94136 9.4165L11.5975 13.5427Z" fill="#EC1076"/>
<path d="M11.4643 1.55413L11.056 3.28796L9.53906 0.0257568L11.4643 1.55413Z" fill="#ABCF3A"/>
<path d="M9.53834 0.0260616L11.055 3.28823L5.48438 0.763576C6.55225 0.259173 7.71891 -0.00147597 8.89992 0.000499426C9.11483 0.000499426 9.32721 0.00933572 9.53834 0.0260616Z" fill="#E0E224"/>
<path d="M11.0555 3.28809L6.01433 9.35205L3.82227 6.64875L11.0555 3.28809Z" fill="#F9A516"/>
<path d="M11.0555 3.28828L3.82227 6.64892L5.48446 0.764893L11.0555 3.28828Z" fill="#FDCD11"/>
<path d="M8.27855 16.0001L8.22461 15.9716L8.24795 15.9738L8.27855 16.0001Z" fill="#CD1685"/>
<path d="M3.27233 11.6477L8.24774 15.9744L8.22438 15.9722L2.68945 13.0439L3.2373 11.6168L3.27233 11.6477ZM2.68945 13.0439L8.22438 15.9722C7.15205 15.8824 6.10895 15.5767 5.15778 15.0735C4.20661 14.5702 3.36701 13.8799 2.68945 13.0439Z" fill="#B9204A"/>
<path d="M3.8225 6.64856L6.01453 9.35186L5.94132 9.41687L2.0625 9.33514L3.8225 6.64856Z" fill="#F05B28"/>
<path d="M5.94132 9.4167L3.41792 11.68L2.0625 9.33496L5.94132 9.4167Z" fill="#F05B28"/>
<path d="M5.48527 0.764038L3.8231 6.64837L2.0631 9.33492L2.06972 9.27843L0.914062 7.5623C1.07469 4.55228 2.8997 1.98565 5.48527 0.764038Z" fill="#FDCD11"/>
<path d="M2.06222 9.33496L3.41766 11.6801L3.27281 11.6473L2.06222 9.33496ZM3.27281 11.6473L3.23778 11.6157L2.68992 13.0434C2.34588 12.6207 2.04599 12.1639 1.79492 11.6801L2.06222 9.33559L3.27281 11.6473Z" fill="#AB1F25"/>
<path d="M0.912109 7.56262L2.06935 9.27876L2.06272 9.33524L1.79542 11.6797L0.912109 7.56262Z" fill="#CB0010"/>
<path d="M0.91365 7.56262L1.79728 11.6797C1.20667 10.5433 0.898998 9.28108 0.900395 8.00033C0.900395 7.85359 0.903867 7.70811 0.91365 7.56262Z" fill="#CB0010"/>
<path d="M13.393 9.35209L13.7572 7.81774C13.9074 7.40221 13.9822 6.96319 13.9781 6.52135C13.9781 6.22809 13.8671 5.9457 13.6676 5.73082L13.6133 5.67244C13.2403 5.27039 12.5719 5.04128 12.0221 5.04128H11.8299C11.332 5.04097 10.8523 5.22915 10.4874 5.56798L10.0333 5.99118L9.95569 5.81319C9.91525 5.71946 9.85803 5.63391 9.78686 5.56073C9.60171 5.37293 9.38106 5.22385 9.13774 5.12215C8.89442 5.02046 8.6333 4.96819 8.36958 4.96838C7.97648 4.96832 7.59216 5.08461 7.26504 5.30258L6.81755 5.62605V5.59449C6.81746 5.44758 6.75904 5.30671 6.65513 5.20285C6.55121 5.09899 6.4103 5.04065 6.26339 5.04065H1.411L0.972656 6.64884L4.99096 6.72206L4.40051 9.89551C4.30015 10.3275 4.57376 10.7533 5.01558 10.8066C5.18666 10.8279 5.35975 10.7879 5.50417 10.6937C5.64858 10.5996 5.75499 10.4573 5.80453 10.2922L6.9037 6.89657C7.02236 6.50052 7.55696 6.24869 7.96721 6.30234C8.0874 6.318 8.2028 6.35939 8.30555 6.42367C8.4083 6.48795 8.496 6.57362 8.56266 6.67484C8.62932 6.77606 8.67339 6.89046 8.69186 7.01024C8.71033 7.13003 8.70277 7.25239 8.6697 7.36899L8.09092 9.89141C8.05304 10.0249 8.04664 10.1653 8.0722 10.3016C8.09777 10.4379 8.15461 10.5665 8.23826 10.6771C8.32191 10.7878 8.43009 10.8775 8.55429 10.9393C8.67849 11.0011 8.81532 11.0332 8.95404 11.0332C9.33684 11.0332 9.53155 10.7905 9.65621 10.4285L10.7592 7.14998C10.8873 6.77854 11.3417 6.55732 11.728 6.63085C11.8367 6.65162 11.9399 6.69499 12.0308 6.75816C12.1217 6.82132 12.1984 6.90286 12.2558 6.99752C12.3132 7.09217 12.3501 7.19783 12.3641 7.30764C12.3781 7.41746 12.3689 7.52899 12.3371 7.63502L11.752 9.78759C11.708 9.93158 11.6983 10.0839 11.7239 10.2323C11.7494 10.3807 11.8093 10.521 11.8989 10.6421C11.9885 10.7631 12.1052 10.8614 12.2397 10.9292C12.3741 10.997 12.5226 11.0322 12.6732 11.0322L16.4513 10.9593L16.8897 9.35209H13.393Z" fill="white"/>
</g>
<defs>
<clipPath id="clip0_2_3595">
<rect width="16" height="16" fill="white" transform="translate(0.900391 0.000244141)"/>
</clipPath>
</defs>
</svg>
