<svg width="17" height="16" viewBox="0 0 17 16" fill="none" xmlns="http://www.w3.org/2000/svg">
<g clip-path="url(#clip0_2_3597)">
<path d="M8.58203 16.0002C13.0003 16.0002 16.582 12.4185 16.582 8.00024C16.582 3.58197 13.0003 0.000244141 8.58203 0.000244141C4.16375 0.000244141 0.582031 3.58197 0.582031 8.00024C0.582031 12.4185 4.16375 16.0002 8.58203 16.0002Z" fill="#F80000"/>
<path d="M10.832 8.42124L7.48403 13.0002L7.60753 9.27974H6.83203L7.14903 6.01374L10.691 5.52574L9.52803 8.48824L10.832 8.42124ZM8.08303 11.6702V10.7952C8.08303 10.7302 8.02803 10.6772 7.96003 10.6772C7.89203 10.6772 7.83653 10.7297 7.83653 10.7947V11.6702C7.83653 11.7352 7.89153 11.7882 7.96003 11.7882C8.02853 11.7882 8.08303 11.7352 8.08303 11.6702ZM7.16703 9.02724H7.87203L7.83953 10.3737C7.83903 10.4092 7.85303 10.4437 7.87903 10.4687C7.90503 10.4937 7.94053 10.5087 7.97753 10.5087H7.98353C8.01875 10.5094 8.05284 10.4963 8.07853 10.4722C8.10422 10.4481 8.11947 10.4149 8.12103 10.3797L8.15353 8.79124H7.44853L7.68503 6.18174C7.68753 6.15174 7.67703 6.12174 7.65553 6.09924C7.63403 6.07674 7.60403 6.06424 7.57203 6.06424H7.55203C7.52432 6.06368 7.4974 6.07346 7.47651 6.09167C7.45562 6.10988 7.44226 6.13522 7.43903 6.16274L7.16703 9.02724ZM7.16703 5.72724L8.47103 4.65024C8.54103 3.57274 7.83603 3.40424 7.83603 3.40424L7.94203 3.00024C9.10503 3.33674 8.92903 4.61624 8.92903 4.61624L10.6205 5.32324L7.16703 5.72724Z" fill="white"/>
</g>
<defs>
<clipPath id="clip0_2_3597">
<rect width="16" height="16" fill="white" transform="translate(0.582031 0.000244141)"/>
</clipPath>
</defs>
</svg>
