<svg width="17" height="16" viewBox="0 0 17 16" fill="none" xmlns="http://www.w3.org/2000/svg">
<g clip-path="url(#clip0_2_3598)">
<path d="M8.58203 16.0002C13.0003 16.0002 16.582 12.4185 16.582 8.00024C16.582 3.58197 13.0003 0.000244141 8.58203 0.000244141C4.16375 0.000244141 0.582031 3.58197 0.582031 8.00024C0.582031 12.4185 4.16375 16.0002 8.58203 16.0002Z" fill="#186C9D"/>
<path d="M10.2125 11.7502L10.213 11.7492C10.2901 11.7508 10.3671 11.7424 10.442 11.7242C10.88 11.6217 11.2505 11.2392 11.3385 10.8262L13.082 4.27824L11.696 4.27124L10.553 8.55524L7.46303 4.25674L7.46103 4.25874L7.46253 4.25374L6.95203 4.25024V4.25074C6.87482 4.24955 6.79775 4.25778 6.72253 4.27524C6.28503 4.37824 5.91453 4.76074 5.82603 5.17324L4.08203 11.7227L5.46853 11.7287L6.61103 7.44474L9.70103 11.7437H9.70253L10.2125 11.7502ZM6.91603 6.30324L7.15753 5.39824L10.248 9.69774L10.0065 10.6027L6.91653 6.30274L6.91603 6.30324Z" fill="white"/>
</g>
<defs>
<clipPath id="clip0_2_3598">
<rect width="16" height="16" fill="white" transform="translate(0.582031 0.000244141)"/>
</clipPath>
</defs>
</svg>
