<svg width="17" height="16" viewBox="0 0 17 16" fill="none" xmlns="http://www.w3.org/2000/svg">
<g clip-path="url(#clip0_2_3603)">
<path d="M8.53335 15.5204L8.44647 15.4769C5.05824 13.4932 2.49535 10.2208 1.45281 6.3113C1.2863 5.69592 1.16322 5.06605 1.07634 4.42895C0.996706 3.79184 0.953267 3.1475 0.946028 2.50315C0.946028 2.39456 0.931548 2.40904 1.03291 2.35836C2.30711 1.63438 3.65372 1.10587 5.07996 0.772837C5.60847 0.64976 6.13697 0.555643 6.67272 0.490484C7.41118 0.403606 8.14964 0.367407 8.89534 0.381887C9.31525 0.389127 9.72792 0.418086 10.1406 0.461525C12.2184 0.685959 14.1659 1.30858 15.9904 2.3294C16.0193 2.34388 16.041 2.35836 16.07 2.37284C16.099 2.38732 16.1134 2.40904 16.1134 2.44524V2.55383C16.1062 2.9303 16.0917 3.29953 16.0628 3.67601C16.0193 4.21175 15.9469 4.74026 15.8456 5.26877C15.6284 6.40542 15.2881 7.49863 14.8175 8.5484C14.0718 10.2208 13.051 11.7122 11.7623 13.0154C10.8356 13.9565 9.80032 14.7674 8.65643 15.4407C8.61299 15.4697 8.57679 15.4914 8.53335 15.5204ZM1.64105 2.87239V2.95926C1.64105 3.48777 1.67725 4.02352 1.74241 4.54478C1.80033 5.02261 1.87996 5.4932 1.98856 5.96379C2.01028 6.04343 2.032 6.12306 2.0682 6.2027C2.71978 7.58551 4.22566 8.32397 5.71706 7.9837C6.85371 7.72306 7.78041 6.84705 8.09172 5.72487C8.1786 5.41356 8.20756 5.09501 8.22204 4.77646C8.22928 4.5665 8.251 4.35655 8.2872 4.14659C8.53335 2.87239 9.38041 1.82261 10.575 1.32306C10.6401 1.2941 10.7125 1.27238 10.7777 1.24343C10.7849 1.23619 10.7994 1.23619 10.7994 1.22171C10.6112 1.15655 9.48901 1.04071 8.8157 1.02623C7.36774 0.997272 5.94874 1.18551 4.56593 1.60542C3.53788 1.91673 2.56775 2.33664 1.64105 2.87239ZM12.3198 11.5457C12.356 11.524 12.3777 11.495 12.3922 11.4733C12.6818 11.1113 12.9569 10.7348 13.2103 10.3439C14.1152 8.93935 14.7524 7.42623 15.1071 5.79003C15.2302 5.23257 15.3098 4.6751 15.3605 4.11039C15.3967 3.72668 15.4112 3.34297 15.4112 2.95202C15.4112 2.92306 15.4112 2.90134 15.4039 2.87239L15.2953 2.80723C14.9985 2.64071 14.6944 2.48143 14.3904 2.33664C13.9415 2.12668 13.4926 1.93845 13.022 1.78641C12.4501 1.60542 11.8709 1.5837 11.2917 1.72849C9.6338 2.12668 8.56955 3.75564 8.8881 5.42804C9.06186 6.35474 9.5614 7.07872 10.3578 7.58551C10.4085 7.62171 10.4664 7.65067 10.5171 7.68687C11.1035 8.04162 11.5596 8.52668 11.8854 9.12759C12.2329 9.75745 12.3849 10.438 12.3415 11.1547C12.3487 11.2778 12.3343 11.4081 12.3198 11.5457ZM8.53335 14.7819C8.56231 14.7674 8.59851 14.7457 8.62747 14.724C9.53969 14.1882 10.3795 13.5511 11.1469 12.8271C11.1976 12.7837 11.2338 12.7258 11.2628 12.6679C11.3134 12.5737 11.3641 12.4724 11.4076 12.3783C11.7695 11.6253 11.8492 10.8434 11.6103 10.0326C11.1397 8.46877 9.6338 7.57103 8.12068 7.75926C7.68629 7.80994 7.2881 7.9475 6.91163 8.16469C6.19489 8.57012 5.42747 8.73664 4.60213 8.657C4.1967 8.6208 3.81299 8.51221 3.44376 8.35293C3.15417 8.22261 2.87906 8.06334 2.6329 7.86786C2.61842 7.85338 2.5967 7.84614 2.56051 7.82442C2.56775 7.86062 2.57499 7.88234 2.58223 7.89682C2.90802 8.72216 3.30621 9.50406 3.77679 10.2498C4.29082 11.0534 4.87725 11.7991 5.54331 12.4796C6.20937 13.1602 6.94059 13.7683 7.72973 14.2968C8.09172 14.5285 8.43199 14.7385 8.53335 14.7819Z" fill="black"/>
<path d="M1.64201 2.87236C2.56871 2.33661 3.53884 1.9167 4.55966 1.61263C5.94971 1.19996 7.36148 1.00448 8.80945 1.03344C9.48275 1.04792 10.6049 1.15652 10.7932 1.22892C10.8004 1.2434 10.7859 1.25064 10.7714 1.25064C10.7063 1.2796 10.6339 1.30132 10.5687 1.33028C9.37416 1.82982 8.5271 2.8796 8.28094 4.15381C8.24474 4.36376 8.22302 4.57372 8.21578 4.78367C8.20854 5.10222 8.17958 5.42077 8.08546 5.73209C7.76691 6.85426 6.84745 7.73028 5.7108 7.99091C4.21939 8.33118 2.7135 7.59272 2.06192 6.20991C2.02572 6.13028 1.99676 6.05064 1.98228 5.971C1.87368 5.50041 1.79404 5.02982 1.73612 4.552C1.67096 4.02349 1.63477 3.49498 1.63477 2.96648C1.64201 2.93028 1.64201 2.90856 1.64201 2.87236Z" fill="#F7A800"/>
<path d="M12.3191 11.5458C12.3336 11.4083 12.3481 11.2852 12.3553 11.1549C12.3915 10.4382 12.2395 9.75763 11.8992 9.12777C11.5734 8.52687 11.1173 8.04905 10.5309 7.68706C10.4802 7.65086 10.4223 7.62191 10.3716 7.58571C9.56801 7.07893 9.07572 6.36219 8.90196 5.42827C8.59066 3.74865 9.64765 2.12695 11.3055 1.72876C11.892 1.59121 12.4639 1.60569 13.0358 1.78668C13.5064 1.93147 13.9553 2.12695 14.4041 2.3369C14.7154 2.48169 15.0123 2.64097 15.3091 2.80748C15.3453 2.8292 15.3742 2.84368 15.4177 2.87264C15.4177 2.9016 15.4249 2.92332 15.4249 2.95228C15.4249 3.33598 15.4032 3.72693 15.3742 4.11063C15.3236 4.67533 15.2367 5.24003 15.1209 5.79025C14.7661 7.42643 14.1363 8.93954 13.2241 10.344C12.9707 10.735 12.6956 11.1115 12.406 11.4734C12.377 11.4952 12.3625 11.5241 12.3191 11.5458Z" fill="#67B2E8"/>
<path d="M8.53397 14.782C8.42537 14.7386 8.09234 14.5359 7.73759 14.2969C6.94845 13.7684 6.21723 13.1603 5.55117 12.4798C4.8851 11.7992 4.29144 11.0536 3.78465 10.2499C3.30682 9.50426 2.90863 8.72237 2.59008 7.89705C2.58284 7.87533 2.5756 7.86085 2.56836 7.82465C2.60456 7.84637 2.61904 7.85361 2.64076 7.86809C2.89415 8.06356 3.16202 8.23007 3.45162 8.35315C3.82085 8.51242 4.20456 8.62102 4.60999 8.65721C5.42809 8.73685 6.19551 8.57034 6.91949 8.16492C7.29596 7.95496 7.70139 7.81741 8.12854 7.75949C9.64166 7.57126 11.1475 8.46898 11.6181 10.0328C11.857 10.8364 11.7847 11.6183 11.4154 12.3784C11.3647 12.4798 11.3213 12.5739 11.2706 12.668C11.2417 12.7259 11.2055 12.7838 11.1548 12.8273C10.3874 13.5513 9.54755 14.1883 8.63533 14.7241C8.59913 14.7458 8.56293 14.7675 8.53397 14.782Z" fill="#00C4B3"/>
</g>
<defs>
<clipPath id="clip0_2_3603">
<rect width="16.0004" height="16" fill="white" transform="translate(0.945312 0.000244141)"/>
</clipPath>
</defs>
</svg>
