<svg width="17" height="16" viewBox="0 0 17 16" fill="none" xmlns="http://www.w3.org/2000/svg">
<g clip-path="url(#clip0_2_3609)">
<path d="M8.23633 16.0002C12.6546 16.0002 16.2363 12.4185 16.2363 8.00024C16.2363 3.58197 12.6546 0.000244141 8.23633 0.000244141C3.81805 0.000244141 0.236328 3.58197 0.236328 8.00024C0.236328 12.4185 3.81805 16.0002 8.23633 16.0002Z" fill="#4099CD"/>
<path fill-rule="evenodd" clip-rule="evenodd" d="M1.23828 11.8802C1.54078 10.9982 2.12378 10.0432 2.93578 9.10025C2.79131 8.90823 2.72082 8.67061 2.7372 8.43087C2.75359 8.19113 2.85575 7.96531 3.025 7.79472C3.19424 7.62414 3.41926 7.52021 3.65886 7.50194C3.89846 7.48367 4.13663 7.55229 4.32978 7.69525C4.97466 7.12737 5.66052 6.60779 6.38178 6.14075C9.84878 3.88925 13.5128 3.17075 15.2998 4.24175C15.8146 5.20734 16.1246 6.26883 16.2103 7.35975C15.6333 9.24875 13.7273 11.5057 11.0113 13.2697C9.13778 14.4862 7.20628 15.2557 5.54478 15.5362C3.71366 14.8797 2.1833 13.5805 1.23828 11.8802ZM3.11328 9.28275C1.94128 10.6367 1.47178 12.0297 2.03978 12.9047C2.89778 14.2262 5.79978 13.8647 8.52028 12.0982C11.2413 10.3312 12.7513 7.82725 11.8933 6.50575C11.0348 5.18425 8.13328 5.54575 5.41228 7.31225C5.11078 7.50825 4.82378 7.71325 4.55378 7.92475C4.69226 8.12149 4.75517 8.36157 4.73097 8.60094C4.70676 8.84031 4.59707 9.06293 4.422 9.22797C4.24694 9.39301 4.01824 9.4894 3.77786 9.49946C3.53748 9.50952 3.30152 9.43258 3.11328 9.28275Z" fill="white"/>
</g>
<defs>
<clipPath id="clip0_2_3609">
<rect width="16" height="16" fill="white" transform="translate(0.236328 0.000244141)"/>
</clipPath>
</defs>
</svg>
