<svg width="17" height="16" viewBox="0 0 17 16" fill="none" xmlns="http://www.w3.org/2000/svg">
<g clip-path="url(#clip0_2_3615)">
<path d="M8.57031 16.0002C12.9886 16.0002 16.5703 12.4185 16.5703 8.00024C16.5703 3.58197 12.9886 0.000244141 8.57031 0.000244141C4.15203 0.000244141 0.570312 3.58197 0.570312 8.00024C0.570312 12.4185 4.15203 16.0002 8.57031 16.0002Z" fill="#008FBB"/>
<path fill-rule="evenodd" clip-rule="evenodd" d="M13.6113 8.41675C13.3578 8.41675 13.1523 8.23025 13.1523 8.00025V7.58325H10.8463C10.5928 7.58325 10.3873 7.39675 10.3873 7.16675C10.3873 6.93675 10.5928 6.75025 10.8463 6.75025H13.6113C13.8648 6.75025 14.0703 6.93675 14.0703 7.16675V8.00025C14.0703 8.23025 13.8653 8.41675 13.6113 8.41675ZM11.3368 8.41675H12.2543C12.5078 8.41675 12.7133 8.60325 12.7133 8.83325C12.7133 9.06325 12.5083 9.25025 12.2543 9.25025H10.8463C10.7732 9.25044 10.701 9.23439 10.6348 9.20325L7.95881 7.58325H7.18781C6.93431 7.58325 6.72881 7.39675 6.72881 7.16675C6.72881 6.93675 6.93381 6.75025 7.18781 6.75025H8.10531C8.20431 6.75025 8.29581 6.77875 8.37081 6.82725L10.9868 8.41725H11.3368V8.41675ZM8.10531 8.41675C8.35881 8.41675 8.56431 8.60325 8.56431 8.83325C8.56431 9.06325 8.35881 9.25025 8.10531 9.25025H7.18781C7.1147 9.25042 7.04247 9.23437 6.97631 9.20325L4.30031 7.58325H3.52931C3.27581 7.58325 3.07031 7.39675 3.07031 7.16675C3.07031 6.93675 3.27531 6.75025 3.52931 6.75025H4.44681C4.54087 6.7499 4.63304 6.77663 4.71231 6.82725L7.32831 8.41725H8.10531V8.41675ZM3.52931 8.41675H4.44681C4.70031 8.41675 4.90581 8.60325 4.90581 8.83375C4.90581 9.06375 4.70031 9.25025 4.44681 9.25025H3.52931C3.27581 9.25025 3.07031 9.06375 3.07031 8.83375C3.07031 8.60375 3.27531 8.41675 3.52931 8.41675Z" fill="white"/>
</g>
<defs>
<clipPath id="clip0_2_3615">
<rect width="16" height="16" fill="white" transform="translate(0.570312 0.000244141)"/>
</clipPath>
</defs>
</svg>
