<svg width="17" height="16" viewBox="0 0 17 16" fill="none" xmlns="http://www.w3.org/2000/svg">
<g clip-path="url(#clip0_2_3619)">
<path d="M15.7202 9.6012L12.948 12.3719V12.1455C12.9488 12.0876 12.9379 12.0302 12.9159 11.9767C12.8939 11.9232 12.8612 11.8747 12.8199 11.8342L12.4911 11.5142L15.0586 8.94674C15.3086 8.69584 15.449 8.35606 15.449 8.00184C15.449 7.64762 15.3086 7.30784 15.0586 7.05695L9.3236 1.32037C9.07281 1.07013 8.73299 0.929586 8.3787 0.929586C8.02441 0.929586 7.6846 1.07013 7.43381 1.32037L1.70283 7.05455C1.45278 7.30544 1.31238 7.64522 1.31238 7.99944C1.31238 8.35366 1.45278 8.69344 1.70283 8.94434L7.43861 14.6801C7.68916 14.9305 8.02888 15.0712 8.3831 15.0712C8.73732 15.0712 9.07705 14.9305 9.3276 14.6801L11.4654 12.5423L11.5758 12.6223L11.563 13.7952L10.0061 15.3314C9.57827 15.7564 8.99973 15.9949 8.3967 15.9949C7.79368 15.9949 7.21513 15.7564 6.78734 15.3314L1.04997 9.6012C0.626474 9.17634 0.388672 8.60092 0.388672 8.00104C0.388672 7.40116 0.626474 6.82575 1.04997 6.40088L6.78254 0.663508C7.20709 0.239427 7.78263 0.0012207 8.3827 0.0012207C8.98278 0.0012207 9.55831 0.239427 9.98286 0.663508L15.7202 6.40088C16.1435 6.82585 16.3812 7.40123 16.3812 8.00104C16.3812 8.60086 16.1435 9.17624 15.7202 9.6012Z" fill="#1EB3DE"/>
<path d="M12.825 11.8342L12.4962 11.5141L9.4271 8.50422C9.54444 8.2606 9.57312 7.98368 9.5082 7.72118C9.44328 7.45869 9.28883 7.22706 9.07145 7.06622C8.85408 6.90539 8.58741 6.82541 8.31741 6.84009C8.0474 6.85477 7.79097 6.96318 7.59232 7.14663C7.39366 7.33008 7.26523 7.57709 7.22914 7.84507C7.19306 8.11306 7.25159 8.38524 7.39465 8.6147C7.53771 8.84417 7.75633 9.01654 8.01284 9.10211C8.26934 9.18768 8.54767 9.18109 8.79984 9.08348L10.4504 10.7028L11.9385 12.0686L12.0826 12.2014C12.1047 12.2215 12.1222 12.2463 12.1337 12.274C12.1452 12.3016 12.1504 12.3315 12.149 12.3614L12.1474 13.1943V14.9209L12.1234 15.2705C12.1156 15.3849 12.1533 15.4978 12.2282 15.5846C12.303 15.6715 12.4091 15.7253 12.5234 15.7345H12.5306C12.6455 15.7274 12.7535 15.677 12.8326 15.5934C12.9118 15.5098 12.9563 15.3992 12.957 15.2841V12.3886V12.155C12.9577 12.0954 12.9464 12.0363 12.9237 11.9811C12.901 11.926 12.8674 11.876 12.825 11.8342Z" fill="#1EB3DE"/>
<path d="M8.3514 8.64086C8.22641 8.63444 8.10603 8.59152 8.00518 8.51741C7.90432 8.44329 7.82741 8.34123 7.78396 8.22386C7.7405 8.10649 7.73241 7.97895 7.76069 7.85702C7.78897 7.7351 7.85237 7.62414 7.94306 7.53788C8.03374 7.45162 8.14773 7.39383 8.27091 7.37168C8.39409 7.34953 8.52107 7.36397 8.63613 7.41323C8.75118 7.4625 8.84928 7.54441 8.91826 7.64884C8.98725 7.75327 9.0241 7.87564 9.02427 8.00079C9.02435 8.03373 9.02194 8.06663 9.01707 8.0992C8.99364 8.24975 8.91728 8.38701 8.80172 8.48629C8.68615 8.58558 8.53896 8.64038 8.3866 8.64086H8.3514Z" fill="#1EB3DE"/>
</g>
<defs>
<clipPath id="clip0_2_3619">
<rect width="15.996" height="16" fill="white" transform="translate(0.386719 0.000244141)"/>
</clipPath>
</defs>
</svg>
