<svg width="17" height="16" viewBox="0 0 17 16" fill="none" xmlns="http://www.w3.org/2000/svg">
<g clip-path="url(#clip0_2_3620)">
<path d="M8.00525 7.28076C9.88829 7.28076 11.4148 5.75425 11.4148 3.87121C11.4148 1.98818 9.88829 0.46167 8.00525 0.46167C6.12221 0.46167 4.5957 1.98818 4.5957 3.87121C4.5957 5.75425 6.12221 7.28076 8.00525 7.28076Z" fill="#88BDF3"/>
<path d="M8.00525 15.5205C9.88829 15.5205 11.4148 13.994 11.4148 12.111C11.4148 10.2279 9.88829 8.70142 8.00525 8.70142C6.12221 8.70142 4.5957 10.2279 4.5957 12.111C4.5957 13.994 6.12221 15.5205 8.00525 15.5205Z" fill="#3075EE"/>
<path d="M12.1263 11.4006C14.0094 11.4006 15.5359 9.87413 15.5359 7.99109C15.5359 6.10805 14.0094 4.58154 12.1263 4.58154C10.2433 4.58154 8.7168 6.10805 8.7168 7.99109C8.7168 9.87413 10.2433 11.4006 12.1263 11.4006Z" fill="#5795F1"/>
<path d="M3.88611 11.4006C5.76915 11.4006 7.29565 9.87413 7.29565 7.99109C7.29565 6.10805 5.76915 4.58154 3.88611 4.58154C2.00307 4.58154 0.476562 6.10805 0.476562 7.99109C0.476562 9.87413 2.00307 11.4006 3.88611 11.4006Z" fill="#205FEC"/>
<path d="M7.20275 7.18847C6.59503 7.0407 6.03966 6.72862 5.59741 6.28637C5.15517 5.84412 4.84308 5.28875 4.69531 4.68103C5.30196 4.83105 5.85613 5.14388 6.29801 5.58577C6.7399 6.02765 7.05273 6.58182 7.20275 7.18847Z" fill="#134BEF"/>
<path d="M4.68945 11.3083C4.83722 10.7006 5.14931 10.1452 5.59155 9.703C6.0338 9.26075 6.58917 8.94867 7.19689 8.8009C7.04687 9.40755 6.73404 9.96171 6.29215 10.4036C5.85027 10.8455 5.2961 11.1583 4.68945 11.3083Z" fill="#0932E8"/>
<path d="M8.80859 8.79395C9.41632 8.94172 9.97168 9.2538 10.4139 9.69604C10.8562 10.1383 11.1683 10.6937 11.316 11.3014C10.7094 11.1514 10.1552 10.8385 9.71333 10.3966C9.27144 9.95476 8.95861 9.40059 8.80859 8.79395Z" fill="#164BEA"/>
<path d="M11.3238 4.67407C11.1761 5.28179 10.864 5.83716 10.4217 6.27941C9.97949 6.72166 9.42413 7.03374 8.81641 7.18151C8.96642 6.57486 9.27925 6.02069 9.72114 5.57881C10.163 5.13692 10.7172 4.82409 11.3238 4.67407Z" fill="#3170F1"/>
</g>
<defs>
<clipPath id="clip0_2_3620">
<rect width="16" height="16" fill="white" transform="translate(0.382812 0.000244141)"/>
</clipPath>
</defs>
</svg>
