<svg width="17" height="16" viewBox="0 0 17 16" fill="none" xmlns="http://www.w3.org/2000/svg">
<g clip-path="url(#clip0_2_3626)">
<path d="M4.63146 10.2344C4.62863 10.2712 4.61464 10.3063 4.59137 10.3349C4.56809 10.3636 4.53663 10.3845 4.50118 10.3948C4.46573 10.4051 4.42798 10.4043 4.39297 10.3926C4.35795 10.3809 4.32733 10.3589 4.3052 10.3293L1.69508 7.89834C1.66253 7.87733 1.63694 7.84713 1.62155 7.81157C1.60617 7.776 1.60169 7.73667 1.60868 7.69856C1.61567 7.66044 1.63381 7.62526 1.66081 7.59747C1.6878 7.56967 1.72244 7.55051 1.76034 7.54242L5.4145 6.0855C5.58415 6.01788 5.68619 6.10686 5.6411 6.28482L4.63146 10.2344Z" fill="#404A72"/>
<path d="M2.47142 12.5441C2.33261 12.6628 2.19261 12.6141 2.16058 12.4338L1.44873 8.48302C1.41551 8.30269 1.49856 8.2576 1.63262 8.38218L4.11223 10.6957C4.1438 10.7238 4.16893 10.7584 4.18587 10.7971C4.20281 10.8359 4.21118 10.8778 4.21039 10.92C4.2096 10.9623 4.19967 11.0039 4.1813 11.042C4.16292 11.08 4.13653 11.1137 4.10392 11.1406L2.47142 12.5441Z" fill="#556195"/>
<path d="M5.4621 5.2988C5.49059 5.3259 5.51141 5.36005 5.52245 5.39779C5.53348 5.43553 5.53435 5.47552 5.52496 5.5137C5.51556 5.55188 5.49624 5.5869 5.46895 5.61521C5.44166 5.64352 5.40737 5.66411 5.36956 5.6749L1.73794 7.12826C1.5671 7.19588 1.48049 7.11165 1.54456 6.93962L3.03707 2.92834C3.04333 2.89189 3.06066 2.85825 3.08669 2.83198C3.11272 2.8057 3.1462 2.78807 3.18259 2.78146C3.21898 2.77486 3.25652 2.7796 3.29013 2.79505C3.32373 2.8105 3.35177 2.83591 3.37045 2.86784L5.4621 5.2988Z" fill="#556195"/>
<path d="M1.65508 11.8727C1.6883 12.053 1.63254 12.0744 1.53644 11.9213L0.122232 9.74424C0.0736662 9.66051 0.0496867 9.56478 0.0530443 9.46804C0.0564019 9.3713 0.0869605 9.27747 0.141215 9.1973L0.770015 8.35376C0.880351 8.20665 0.99662 8.23512 1.02865 8.41427L1.65508 11.8727Z" fill="#556195"/>
<path d="M1.21252 6.69291C1.14846 6.86494 1.0488 6.86375 0.990662 6.69291L0.510164 5.24429C0.48421 5.14984 0.483595 5.05022 0.50838 4.95545C0.533164 4.86069 0.582475 4.77413 0.651348 4.70447L2.36809 3.14908C2.50334 3.03044 2.56266 3.06604 2.4986 3.23807L1.21252 6.69291Z" fill="#556195"/>
<path d="M0.758747 7.25068C0.785324 7.34848 0.790711 7.45083 0.774547 7.55088C0.758383 7.65093 0.721042 7.74638 0.66502 7.83084L0.172657 8.49404C0.0623206 8.64116 -0.0112371 8.61269 0.00655912 8.42998L0.241469 6.13663C0.259266 5.95393 0.323332 5.94681 0.38028 6.12121L0.758747 7.25068Z" fill="#556195"/>
<path d="M2.69665 2.08594C2.75834 2.15594 2.69665 2.31492 2.56021 2.44187L1.7843 3.13829C1.64786 3.25693 1.6265 3.24151 1.73565 3.09439L2.3775 2.22475C2.49615 2.07764 2.63614 2.01713 2.69665 2.08594Z" fill="#556195"/>
<path d="M7.56764 14.2918C7.55332 14.3265 7.52932 14.3563 7.49852 14.3778C7.46771 14.3992 7.43138 14.4113 7.39388 14.4127C7.35637 14.4141 7.31926 14.4046 7.28696 14.3855C7.25466 14.3664 7.22855 14.3384 7.21172 14.3048L5.19481 11.3673C5.16891 11.341 5.15163 11.3074 5.14528 11.2711C5.13894 11.2347 5.14382 11.1973 5.15929 11.1638C5.17475 11.1303 5.20006 11.1023 5.23185 11.0835C5.26363 11.0648 5.30038 11.0562 5.33718 11.0588L9.39354 10.64C9.57506 10.621 9.64862 10.7349 9.55608 10.8939L7.56764 14.2918Z" fill="#556195"/>
<path d="M6.72286 14.2942C6.82727 14.446 6.77032 14.5208 6.59592 14.4626L2.79939 13.1694C2.62617 13.1101 2.5977 12.9642 2.73651 12.8444L4.36071 11.442C4.3921 11.4137 4.42925 11.3925 4.4696 11.3799C4.50995 11.3673 4.55255 11.3636 4.59448 11.369C4.63641 11.3744 4.67667 11.3888 4.7125 11.4112C4.74833 11.4337 4.77888 11.4636 4.80206 11.499L6.72286 14.2942Z" fill="#556195"/>
<path d="M9.47564 9.95784C9.59428 10.0966 9.54326 10.2248 9.357 10.2438L5.24014 10.6685C5.20212 10.6765 5.16267 10.6741 5.12589 10.6616C5.08911 10.6491 5.05635 10.627 5.03102 10.5976C5.0057 10.5681 4.98873 10.5324 4.9819 10.4942C4.97507 10.456 4.97862 10.4166 4.99218 10.3802L6.02198 6.37249C6.06825 6.19571 6.20351 6.16368 6.32215 6.30249L9.47564 9.95784Z" fill="#6ECCE0"/>
<path d="M12.4331 13.3913C12.4622 13.4145 12.4834 13.446 12.4939 13.4817C12.5044 13.5173 12.5036 13.5553 12.4917 13.5905C12.4797 13.6257 12.4572 13.6564 12.4272 13.6783C12.3971 13.7002 12.3611 13.7122 12.3239 13.7129L8.13588 14.5932C7.95673 14.6312 7.88555 14.5327 7.97809 14.3737L9.95347 10.996C9.97004 10.9605 9.99561 10.9299 10.0276 10.9074C10.0597 10.8849 10.097 10.8711 10.136 10.8675C10.175 10.8639 10.2143 10.8706 10.2499 10.8869C10.2855 10.9032 10.3163 10.9285 10.3391 10.9604L12.4331 13.3913Z" fill="#556195"/>
<path d="M5.69825 15.6456C5.61089 15.687 5.51362 15.7031 5.41755 15.692C5.32147 15.6809 5.23045 15.643 5.15487 15.5827L3.20678 13.8659C3.07034 13.7473 3.1 13.6939 3.27322 13.7473L6.59518 14.8779C6.76958 14.9373 6.77908 15.0571 6.61772 15.1437L5.69825 15.6456Z" fill="#556195"/>
<path d="M10.2136 15.8091C10.1346 15.8669 10.0418 15.9027 9.94449 15.9131C9.84721 15.9236 9.74891 15.9081 9.6595 15.8685L8.30817 15.1791C8.14445 15.0949 8.1575 14.9964 8.33665 14.9585L11.9445 14.1992C12.1237 14.1612 12.1545 14.2253 12.0133 14.3415L10.2136 15.8091Z" fill="#556195"/>
<path d="M6.43504 15.898C6.25115 15.8897 6.23454 15.8114 6.39589 15.7248L7.12198 15.3309C7.21453 15.2871 7.31543 15.2639 7.41781 15.2626C7.52018 15.2614 7.62161 15.2823 7.71519 15.3238L8.77585 15.8636C8.93957 15.9467 8.92296 16.0072 8.74025 15.9989L6.43504 15.898Z" fill="#556195"/>
<path d="M13.1085 14.1744C13.169 14.2444 13.0872 14.3737 12.9258 14.4603L11.9695 14.9704C11.807 15.057 11.7904 15.0321 11.9328 14.9159L12.7395 14.2562C12.8819 14.14 13.048 14.1032 13.1085 14.1744Z" fill="#556195"/>
<path d="M10.6909 9.91515C10.52 9.98278 10.418 9.89379 10.4643 9.71583L11.4787 5.76744C11.4816 5.73058 11.4957 5.69549 11.519 5.6668C11.5424 5.63811 11.5738 5.61717 11.6093 5.60676C11.6448 5.59635 11.6826 5.59694 11.7178 5.60848C11.7529 5.62001 11.7837 5.64193 11.8061 5.67134L14.4162 8.10349C14.4493 8.12415 14.4754 8.15428 14.4912 8.18997C14.507 8.22566 14.5116 8.26526 14.5046 8.30364C14.4975 8.34201 14.4791 8.37738 14.4517 8.40516C14.4244 8.43294 14.3892 8.45184 14.351 8.45942L10.6909 9.91515Z" fill="#404A72"/>
<path d="M14.6588 7.51725C14.6908 7.69759 14.609 7.74386 14.4749 7.6181L11.9941 5.30459C11.9626 5.2764 11.9376 5.24173 11.9207 5.20295C11.9039 5.16418 11.8956 5.12222 11.8966 5.07995C11.8975 5.03769 11.9075 4.99612 11.926 4.95809C11.9444 4.92007 11.9709 4.8865 12.0036 4.85968L13.6326 3.45615C13.7714 3.33751 13.9126 3.38615 13.9446 3.56649L14.6588 7.51725Z" fill="#556195"/>
<path d="M13.0683 13.0733C13.0615 13.1096 13.0438 13.143 13.0176 13.169C12.9914 13.195 12.9579 13.2124 12.9215 13.2188C12.8852 13.2252 12.8477 13.2205 12.8142 13.2051C12.7806 13.1897 12.7526 13.1644 12.7337 13.1327L10.6409 10.7017C10.6115 10.6748 10.5898 10.6405 10.5781 10.6024C10.5665 10.5642 10.5652 10.5237 10.5745 10.4849C10.5839 10.4462 10.6034 10.4106 10.6312 10.382C10.6589 10.3533 10.6938 10.3326 10.7322 10.322L14.3674 8.86869C14.5371 8.80106 14.6249 8.88529 14.5608 9.05732L13.0683 13.0733Z" fill="#556195"/>
<path d="M15.9803 6.25632C16.0288 6.34003 16.0528 6.43566 16.0497 6.53233C16.0465 6.62901 16.0163 6.72287 15.9625 6.80326L15.3325 7.6468C15.2234 7.79391 15.1071 7.76544 15.0739 7.58629L14.4486 4.12789C14.4166 3.94755 14.4712 3.9262 14.5673 4.07925L15.9803 6.25632Z" fill="#556195"/>
<path d="M15.5965 10.7563C15.6225 10.8507 15.6231 10.9503 15.5983 11.0451C15.5735 11.1399 15.5242 11.2264 15.4553 11.2961L13.7386 12.8515C13.6021 12.9701 13.544 12.9345 13.6081 12.7637L14.8942 9.30766C14.957 9.13563 15.0567 9.13681 15.1148 9.30766L15.5965 10.7563Z" fill="#556195"/>
<path d="M15.8618 9.86408C15.8428 10.0468 15.7799 10.0527 15.7218 9.87951L15.3457 8.75004C15.3188 8.65188 15.3132 8.5491 15.3294 8.44861C15.3455 8.34812 15.383 8.25226 15.4394 8.16751L15.933 7.50668C16.0421 7.35956 16.1168 7.38803 16.0979 7.57074L15.8618 9.86408Z" fill="#556195"/>
<path d="M13.7196 13.7758C13.6092 13.9241 13.4704 13.9858 13.4087 13.9147C13.347 13.8435 13.4087 13.6857 13.5452 13.5587L14.3175 12.8587C14.4528 12.7401 14.4753 12.7555 14.3662 12.9026L13.7196 13.7758Z" fill="#556195"/>
<path d="M10.9122 4.63309C10.9381 4.65937 10.9554 4.69293 10.9617 4.72928C10.9681 4.76564 10.9632 4.80307 10.9477 4.83657C10.9323 4.87008 10.907 4.89808 10.8752 4.91684C10.8434 4.93559 10.8067 4.94422 10.7698 4.94156L6.71349 5.36036C6.53078 5.37934 6.45722 5.26545 6.54976 5.10765L8.53701 1.70857C8.55133 1.67388 8.57533 1.64404 8.60614 1.6226C8.63695 1.60116 8.67327 1.58903 8.71078 1.58766C8.74828 1.58628 8.7854 1.59572 8.81769 1.61484C8.84999 1.63397 8.87611 1.66197 8.89293 1.69552L10.9122 4.63309Z" fill="#404A72"/>
<path d="M11.7485 4.55858C11.7171 4.58689 11.68 4.60808 11.6396 4.62068C11.5993 4.63329 11.5567 4.63701 11.5147 4.6316C11.4728 4.62619 11.4326 4.61178 11.3967 4.58934C11.3609 4.56691 11.3303 4.53698 11.3072 4.50163L9.37568 1.70643C9.27246 1.55457 9.32941 1.47983 9.50263 1.53915L13.2992 2.82997C13.4724 2.88929 13.5008 3.03522 13.362 3.15505L11.7485 4.55858Z" fill="#556195"/>
<path d="M10.0763 9.62793C10.0312 9.80589 9.89592 9.83674 9.77609 9.69793L6.62853 6.04376C6.50989 5.90495 6.55972 5.77563 6.74717 5.75665L10.8628 5.33191C10.9009 5.32369 10.9406 5.32588 10.9775 5.33824C11.0145 5.3506 11.0474 5.37269 11.0729 5.40218C11.0984 5.43167 11.1155 5.46747 11.1224 5.50584C11.1292 5.5442 11.1257 5.58371 11.112 5.62021L10.0763 9.62793Z" fill="#556195"/>
<path d="M6.15014 5.0044C6.13384 5.04017 6.10838 5.071 6.07634 5.09376C6.0443 5.11652 6.00681 5.13041 5.96767 5.13403C5.92853 5.13764 5.88913 5.13085 5.85346 5.11433C5.81779 5.09782 5.78712 5.07217 5.76455 5.03999L3.67172 2.61021C3.64268 2.58716 3.62146 2.55573 3.61094 2.52018C3.60041 2.48464 3.6011 2.44672 3.6129 2.41158C3.6247 2.37644 3.64704 2.34579 3.67688 2.3238C3.70673 2.30181 3.74262 2.28955 3.77968 2.2887L7.96773 1.40719C8.14806 1.36922 8.21925 1.4677 8.12671 1.62668L6.15014 5.0044Z" fill="#556195"/>
<path d="M9.50164 1.11772C9.32843 1.0584 9.31893 0.939761 9.48029 0.851967L10.4081 0.356045C10.4954 0.314558 10.5927 0.298456 10.6888 0.309574C10.7848 0.320692 10.8759 0.358582 10.9514 0.418925L12.8948 2.13567C13.0324 2.25431 13.0028 2.3077 12.8295 2.25431L9.50164 1.11772Z" fill="#556195"/>
<path d="M4.16501 1.8011C3.98586 1.83907 3.95502 1.77974 4.09739 1.6611L5.89006 0.191134C5.96928 0.133421 6.06228 0.0975588 6.15974 0.0871467C6.25719 0.0767346 6.35568 0.0921388 6.4453 0.131813L7.80256 0.822307C7.96628 0.905356 7.95323 1.00383 7.77408 1.04179L4.16501 1.8011Z" fill="#556195"/>
<path d="M8.98305 0.669463C8.8905 0.713238 8.78959 0.736535 8.68722 0.737763C8.58485 0.738992 8.48341 0.718123 8.38984 0.676581L7.32207 0.136762C7.16783 0.0537133 7.18326 -0.00679389 7.36715 0.000324598L9.66998 0.107102C9.8515 0.118966 9.87048 0.19371 9.70913 0.280319L8.98305 0.669463Z" fill="#556195"/>
<path d="M3.36547 1.74443C3.2231 1.86307 3.05701 1.89748 2.9965 1.82748C2.93599 1.75748 3.01786 1.62698 3.17921 1.54155L4.13546 1.03021C4.29681 0.9436 4.31342 0.968515 4.17224 1.08478L3.36547 1.74443Z" fill="#556195"/>
<path d="M2.1396 13.3569C2.2096 13.2952 2.36858 13.3569 2.49553 13.4921L3.19551 14.2645C3.31415 14.4009 3.29873 14.4223 3.15161 14.3131L2.28079 13.6665C2.12892 13.5574 2.06723 13.4174 2.1396 13.3569Z" fill="#556195"/>
<path d="M14.2249 2.94486C14.2961 2.88316 14.4254 2.96621 14.5108 3.12756L15.0222 4.08382C15.1076 4.24636 15.0839 4.26178 14.9676 4.1206L14.3079 3.31383C14.1917 3.17146 14.1549 3.00536 14.2249 2.94486Z" fill="#556195"/>
<path d="M13.8281 2.33416C13.9752 2.44331 14.0381 2.5833 13.9669 2.64381C13.8957 2.70432 13.7379 2.64381 13.611 2.50856L12.911 1.7362C12.7923 1.59976 12.8078 1.57841 12.9549 1.68756L13.8281 2.33416Z" fill="#556195"/>
<path d="M1.79716 12.6867C1.91581 12.829 1.95021 12.9951 1.87903 13.0557C1.80784 13.1162 1.67971 13.0343 1.5931 12.8729L1.08294 11.9167C0.996334 11.7542 1.02125 11.7387 1.13752 11.8799L1.79716 12.6867Z" fill="#556195"/>
</g>
<defs>
<clipPath id="clip0_2_3626">
<rect width="16.0973" height="16" fill="white" transform="translate(0.00390625 0.000244141)"/>
</clipPath>
</defs>
</svg>
