<svg width="17" height="16" viewBox="0 0 17 16" fill="none" xmlns="http://www.w3.org/2000/svg">
<g clip-path="url(#clip0_2_3628)">
<path d="M8.10156 16.0002C12.5198 16.0002 16.1016 12.4185 16.1016 8.00024C16.1016 3.58197 12.5198 0.000244141 8.10156 0.000244141C3.68328 0.000244141 0.101562 3.58197 0.101562 8.00024C0.101562 12.4185 3.68328 16.0002 8.10156 16.0002Z" fill="#03E8B0"/>
<path d="M7.81381 3.08653C8.13581 2.94653 8.36581 3.24353 8.56481 3.44253C8.91981 3.74403 9.25781 4.06453 9.57781 4.40253C9.76131 4.60303 9.68681 4.96953 9.43731 5.08103C9.24531 5.18603 9.01081 5.10703 8.86381 4.96103C8.47731 4.59103 8.10781 4.20253 7.70681 3.84903C7.45781 3.64553 7.50881 3.20403 7.81381 3.08653ZM11.3308 4.11203C11.5493 3.99453 11.8993 4.09003 11.9598 4.35053C12.0523 4.58203 11.9038 4.81053 11.7408 4.96503C11.3833 5.31753 11.0358 5.68003 10.6883 6.04303C10.5618 6.19603 10.3383 6.23703 10.1593 6.15453C9.90081 6.04753 9.83081 5.65953 10.0258 5.46253C10.4643 5.01653 10.8513 4.51653 11.3308 4.11253V4.11203ZM4.34681 4.18403C4.57431 4.04653 4.85581 4.13753 5.02431 4.32403C5.40331 4.70653 5.79431 5.07603 6.17681 5.45253C6.43031 5.68653 6.25331 6.18253 5.89981 6.18453C5.60381 6.22953 5.44681 5.93703 5.24881 5.77703C4.90181 5.48953 4.58381 5.16953 4.26881 4.84703C4.09081 4.66353 4.14381 4.32653 4.34731 4.18403H4.34681ZM4.64081 6.44403C5.02231 6.29653 5.39481 6.77753 5.15681 7.10903C4.87531 7.47603 4.50881 7.77153 4.20181 8.11803C4.02031 8.30453 3.85181 8.59153 3.54931 8.55503C3.19581 8.54153 3.01831 8.05003 3.27531 7.81153C3.73981 7.36703 4.10831 6.80503 4.64131 6.44353L4.64081 6.44403ZM12.3788 7.50753C12.6413 7.33603 13.0373 7.53103 13.0458 7.84753C13.0843 8.14453 12.7893 8.30153 12.6268 8.50153C12.3408 8.84553 12.0268 9.16653 11.7028 9.47553C11.4658 9.69903 11.0238 9.54203 10.9813 9.21803C10.9258 8.88353 11.2398 8.67603 11.4378 8.46203C11.7658 8.15753 12.0428 7.79903 12.3788 7.50753ZM5.63631 9.86003C5.89131 9.70753 6.27781 9.88853 6.28381 10.198C6.33131 10.497 6.03581 10.6555 5.87431 10.855C5.58931 11.2 5.27131 11.5165 4.95031 11.829C4.74181 12.04 4.29681 11.9385 4.23781 11.636C4.13681 11.3435 4.38481 11.108 4.57381 10.9245C4.94031 10.5815 5.25881 10.1895 5.63631 9.86003ZM10.1673 9.84853C10.3083 9.80003 10.4873 9.79603 10.6063 9.89803C11.0478 10.3175 11.5178 10.707 11.9328 11.155C12.0608 11.285 12.0723 11.5025 11.9873 11.6585C11.8673 11.939 11.4563 11.946 11.2568 11.7475C10.8538 11.3675 10.4668 10.968 10.0618 10.5895C9.81681 10.3995 9.87431 9.95853 10.1668 9.84853H10.1673ZM6.76731 10.921C6.97731 10.8075 7.22431 10.915 7.37531 11.075C7.75365 11.4554 8.13939 11.8283 8.53231 12.1935C8.79231 12.4405 8.61631 12.942 8.24981 12.946C7.95381 12.981 7.79981 12.687 7.60131 12.526C7.2587 12.2368 6.93315 11.928 6.62631 11.601C6.43931 11.402 6.51531 11.031 6.76731 10.921ZM6.09231 3.46753C6.09231 3.58263 6.04659 3.69302 5.9652 3.77441C5.88381 3.8558 5.77342 3.90153 5.65831 3.90153C5.54321 3.90153 5.43282 3.8558 5.35143 3.77441C5.27004 3.69302 5.22431 3.58263 5.22431 3.46753C5.22813 3.35504 5.2755 3.24844 5.35643 3.17021C5.43736 3.09198 5.54551 3.04826 5.65806 3.04826C5.77062 3.04826 5.87877 3.09198 5.95969 3.17021C6.04062 3.24844 6.08799 3.35504 6.09181 3.46753H6.09231ZM7.35631 4.62153C7.35631 4.73657 7.31061 4.84689 7.22927 4.92824C7.14793 5.00958 7.0376 5.05528 6.92256 5.05528C6.80753 5.05528 6.6972 5.00958 6.61585 4.92824C6.53451 4.84689 6.48881 4.73657 6.48881 4.62153C6.48881 4.50649 6.53451 4.39617 6.61585 4.31482C6.6972 4.23348 6.80753 4.18778 6.92256 4.18778C7.0376 4.18778 7.14793 4.23348 7.22927 4.31482C7.31061 4.39617 7.35631 4.50649 7.35631 4.62153ZM3.96931 5.68153C3.97129 5.73973 3.96153 5.79773 3.94062 5.85208C3.91972 5.90643 3.88808 5.95602 3.84761 5.99789C3.80714 6.03976 3.75865 6.07306 3.70504 6.0958C3.65143 6.11854 3.5938 6.13026 3.53556 6.13026C3.47733 6.13026 3.41969 6.11854 3.36608 6.0958C3.31247 6.07306 3.26399 6.03976 3.22351 5.99789C3.18304 5.95602 3.15141 5.90643 3.1305 5.85208C3.10959 5.79773 3.09984 5.73973 3.10181 5.68153C3.10563 5.56904 3.153 5.46244 3.23393 5.38421C3.31486 5.30598 3.42301 5.26226 3.53556 5.26226C3.64812 5.26226 3.75627 5.30598 3.83719 5.38421C3.91812 5.46244 3.96549 5.56904 3.96931 5.68153ZM10.8553 3.43303C10.8553 3.54813 10.8096 3.65852 10.7282 3.73991C10.6468 3.8213 10.5364 3.86703 10.4213 3.86703C10.3062 3.86703 10.1958 3.8213 10.1144 3.73991C10.033 3.65852 9.98731 3.54813 9.98731 3.43303C9.98731 3.31786 10.0331 3.20741 10.1145 3.12597C10.1959 3.04453 10.3064 2.99878 10.4216 2.99878C10.5367 2.99878 10.6472 3.04453 10.7286 3.12597C10.8101 3.20741 10.8558 3.31786 10.8558 3.43303H10.8553ZM13.1018 5.57303C13.1018 5.68807 13.0561 5.79839 12.9748 5.87974C12.8934 5.96108 12.7831 6.00678 12.6681 6.00678C12.553 6.00678 12.4427 5.96108 12.3614 5.87974C12.28 5.79839 12.2343 5.68807 12.2343 5.57303C12.2343 5.45799 12.28 5.34767 12.3614 5.26632C12.4427 5.18498 12.553 5.13928 12.6681 5.13928C12.7831 5.13928 12.8934 5.18498 12.9748 5.26632C13.0561 5.34767 13.1018 5.45799 13.1018 5.57303ZM11.9163 6.81903C11.9163 6.93407 11.8706 7.04439 11.7893 7.12574C11.7079 7.20708 11.5976 7.25278 11.4826 7.25278C11.3675 7.25278 11.2572 7.20708 11.1759 7.12574C11.0945 7.04439 11.0488 6.93407 11.0488 6.81903C11.0488 6.70399 11.0945 6.59367 11.1759 6.51232C11.2572 6.43098 11.3675 6.38528 11.4826 6.38528C11.5976 6.38528 11.7079 6.43098 11.7893 6.51232C11.8706 6.59367 11.9163 6.70399 11.9163 6.81903ZM13.0998 10.322C13.0998 10.4371 13.0541 10.5474 12.9728 10.6287C12.8914 10.7101 12.7811 10.7558 12.6661 10.7558C12.551 10.7558 12.4407 10.7101 12.3594 10.6287C12.278 10.5474 12.2323 10.4371 12.2323 10.322C12.2323 10.207 12.278 10.0967 12.3594 10.0153C12.4407 9.93398 12.551 9.88828 12.6661 9.88828C12.7811 9.88828 12.8914 9.93398 12.9728 10.0153C13.0541 10.0967 13.0998 10.207 13.0998 10.322ZM9.71681 11.38C9.71879 11.4382 9.70903 11.4962 9.68812 11.5506C9.66722 11.6049 9.63558 11.6545 9.59511 11.6964C9.55464 11.7383 9.50615 11.7716 9.45254 11.7943C9.39893 11.817 9.3413 11.8288 9.28306 11.8288C9.22483 11.8288 9.16719 11.817 9.11358 11.7943C9.05997 11.7716 9.01149 11.7383 8.97101 11.6964C8.93054 11.6545 8.89891 11.6049 8.878 11.5506C8.85709 11.4962 8.84734 11.4382 8.84931 11.38C8.85313 11.2675 8.9005 11.1609 8.98143 11.0827C9.06236 11.0045 9.17051 10.9608 9.28306 10.9608C9.39562 10.9608 9.50377 11.0045 9.58469 11.0827C9.66562 11.1609 9.71299 11.2675 9.71681 11.38ZM10.9648 12.566C10.9668 12.6242 10.957 12.6822 10.9361 12.7366C10.9152 12.7909 10.8836 12.8405 10.8431 12.8824C10.8026 12.9243 10.7542 12.9576 10.7005 12.9803C10.6469 13.003 10.5893 13.0148 10.5311 13.0148C10.4728 13.0148 10.4152 13.003 10.3616 12.9803C10.308 12.9576 10.2595 12.9243 10.219 12.8824C10.1785 12.8405 10.1469 12.7909 10.126 12.7366C10.1051 12.6822 10.0953 12.6242 10.0973 12.566C10.1011 12.4535 10.1485 12.3469 10.2294 12.2687C10.3104 12.1905 10.4185 12.1468 10.5311 12.1468C10.6436 12.1468 10.7518 12.1905 10.8327 12.2687C10.9136 12.3469 10.961 12.4535 10.9648 12.566ZM6.21481 12.566C6.21481 12.6811 6.16909 12.7915 6.0877 12.8729C6.00631 12.9543 5.89592 13 5.78081 13C5.66571 13 5.55532 12.9543 5.47393 12.8729C5.39254 12.7915 5.34681 12.6811 5.34681 12.566C5.35063 12.4535 5.398 12.3469 5.47893 12.2687C5.55986 12.1905 5.66801 12.1468 5.78056 12.1468C5.89312 12.1468 6.00127 12.1905 6.08219 12.2687C6.16312 12.3469 6.21049 12.4535 6.21431 12.566H6.21481ZM5.15631 9.16903C5.15829 9.22723 5.14853 9.28523 5.12762 9.33958C5.10672 9.39393 5.07508 9.44352 5.03461 9.48539C4.99414 9.52726 4.94565 9.56056 4.89204 9.5833C4.83843 9.60604 4.7808 9.61776 4.72256 9.61776C4.66433 9.61776 4.60669 9.60604 4.55308 9.5833C4.49947 9.56056 4.45099 9.52726 4.41051 9.48539C4.37004 9.44352 4.33841 9.39393 4.3175 9.33958C4.29659 9.28523 4.28684 9.22723 4.28881 9.16903C4.29263 9.05654 4.34 8.94994 4.42093 8.87171C4.50186 8.79349 4.61001 8.74976 4.72256 8.74976C4.83512 8.74976 4.94327 8.79349 5.02419 8.87171C5.10512 8.94994 5.15249 9.05654 5.15631 9.16903ZM3.96931 10.4295C3.97129 10.4877 3.96153 10.5457 3.94062 10.6001C3.91972 10.6544 3.88808 10.704 3.84761 10.7459C3.80714 10.7878 3.75865 10.8211 3.70504 10.8438C3.65143 10.8665 3.5938 10.8783 3.53556 10.8783C3.47733 10.8783 3.41969 10.8665 3.36608 10.8438C3.31247 10.8211 3.26399 10.7878 3.22351 10.7459C3.18304 10.704 3.15141 10.6544 3.1305 10.6001C3.10959 10.5457 3.09984 10.4877 3.10181 10.4295C3.10563 10.317 3.153 10.2104 3.23393 10.1322C3.31486 10.054 3.42301 10.0103 3.53556 10.0103C3.64812 10.0103 3.75627 10.054 3.83719 10.1322C3.91812 10.2104 3.96549 10.317 3.96931 10.4295Z" fill="white"/>
</g>
<defs>
<clipPath id="clip0_2_3628">
<rect width="16" height="16" fill="white" transform="translate(0.101562 0.000244141)"/>
</clipPath>
</defs>
</svg>
