<svg width="17" height="16" viewBox="0 0 17 16" fill="none" xmlns="http://www.w3.org/2000/svg">
<g clip-path="url(#clip0_2_3630)">
<path d="M5.28289 3.44995V4.56578C5.28289 5.27409 4.71042 5.8417 4.00696 5.8417H1.53758C0.746802 5.83685 0.101562 6.48694 0.101562 7.27773V9.38324C0.101562 10.174 0.746802 10.8193 1.53758 10.8193H4.00696C4.71527 10.8193 5.28289 11.3966 5.28289 12.0952V14.5646C5.28289 15.3553 5.92812 16.0006 6.71891 16.0006H8.82443C9.61521 16.0006 10.2604 15.3553 10.2604 14.5646V12.0952C10.2604 11.3869 10.8329 10.8193 11.5364 10.8193H12.6522C8.59641 10.8193 5.28289 7.50574 5.28289 3.44995Z" fill="black"/>
<path d="M15.4421 9.38326V7.27774C15.4421 6.48696 14.7968 5.84172 14.006 5.84172H11.5367C10.8284 5.84172 10.2608 5.26925 10.2608 4.5658V2.09642C10.2608 1.30564 9.61552 0.6604 8.82474 0.6604H6.71922C5.92844 0.6604 5.2832 1.30564 5.2832 2.09642V3.44997C5.2832 7.50576 8.60157 10.8193 12.6525 10.8193H14.006C14.7968 10.8193 15.4421 10.174 15.4421 9.38326Z" fill="black"/>
<path d="M11.7586 3.98367C11.7586 3.98367 11.2783 -1.02786 16.7896 0.194704C16.6877 1.66954 16.8235 5.2984 11.7586 3.98367Z" fill="black"/>
</g>
<defs>
<clipPath id="clip0_2_3630">
<rect width="16.6889" height="16" fill="white" transform="translate(0.101562 0.000244141)"/>
</clipPath>
</defs>
</svg>
