<svg width="18" height="16" viewBox="0 0 18 16" fill="none" xmlns="http://www.w3.org/2000/svg">
<g clip-path="url(#clip0_2_3631)">
<path d="M5.50416 2.08334C5.82699 1.71574 6.12389 1.4047 6.40666 1.14078C1.63258 0.987613 3.02286 4.43975 1.45821 7.94372C-0.332659 11.9826 1.67029 13.5213 4.6535 14.002C4.2369 13.5056 3.89695 12.9496 3.64495 12.3526C1.71977 9.91839 2.49974 5.48128 5.50416 2.08334Z" fill="#EFE812"/>
<path d="M16.9908 6.38611C16.4271 7.86103 15.6114 9.22684 14.5802 10.4226C13.7536 11.4273 12.7633 12.2853 11.6512 12.9605C10.3596 13.7789 8.85851 14.2053 7.32956 14.1882C6.4369 14.1962 5.545 14.134 4.66211 14.002C5.1523 14.5876 5.76002 15.0636 6.44591 15.3994C10.7628 17.4871 11.0338 13.6108 15.6005 11.6433C18.1643 10.5381 18.1737 8.37963 16.9885 6.38611" fill="#EDE70A"/>
<path d="M11.6512 2.35673C12.2762 2.46612 12.8783 2.67959 13.4327 2.98825C14.8848 3.80473 16.1083 4.97319 16.9908 6.38619C17.7684 4.19473 17.4056 2.47455 15.7066 2.16351C13.8356 1.82183 12.3746 1.71108 10.9702 0.730814C9.2406 -0.470953 7.72308 -0.0797899 6.4082 1.14319L6.69333 1.15497C8.51719 1.26336 10.2609 1.62625 11.6418 2.35202" fill="#EDE70A"/>
<path d="M5.50286 2.08324C2.49844 5.48117 1.71847 9.91829 3.65308 12.3525C3.20555 11.2958 3.01024 10.1495 3.08264 9.00424C3.15503 7.85902 3.49314 6.74639 4.07017 5.75452C5.69844 3.03994 8.96678 1.86173 11.6507 2.35658C10.2604 1.62138 8.51671 1.26792 6.70227 1.15952L6.41715 1.14539C6.12495 1.41402 5.82805 1.71564 5.50286 2.08324Z" fill="#DEC21C"/>
<path d="M13.4338 2.98349C12.8792 2.67647 12.277 2.4646 11.6523 2.35669C13.4809 3.3181 14.6945 4.94874 14.6945 7.52665C14.6839 8.61485 14.3997 9.68291 13.8681 10.6325C13.3365 11.5821 12.5745 12.3826 11.6523 12.9605C12.765 12.286 13.7553 11.428 14.5814 10.4227C15.6125 9.22687 16.4282 7.86107 16.992 6.38615C16.1101 4.97142 14.8865 3.80129 13.4338 2.98349Z" fill="#E5CB22"/>
<path d="M11.651 2.35672C8.96703 1.86187 5.6987 3.04007 4.07042 5.74287C3.49097 6.73602 3.15152 7.85079 3.07911 8.99834C3.0067 10.1459 3.20333 11.2945 3.65334 12.3526C3.90444 12.9501 4.24446 13.5062 4.66188 14.0021C5.54477 14.134 6.43667 14.1963 7.32933 14.1882C8.85827 14.2054 10.3594 13.779 11.651 12.9605C12.5733 12.3828 13.3354 11.5823 13.867 10.6327C14.3986 9.68306 14.6827 8.61492 14.6931 7.52667C14.6931 4.94876 13.4795 3.31813 11.651 2.35672ZM11.3494 11.7352C10.3567 12.3728 9.15198 12.5914 7.99859 12.3433C6.84521 12.0951 5.837 11.4003 5.19442 10.4109C3.8607 8.35377 4.52049 5.6981 6.52108 4.28426C8.75967 2.69368 11.6298 3.32049 12.676 5.60856C13.6963 7.83772 13.4159 10.4133 11.3494 11.7352Z" fill="#CCA727"/>
</g>
<defs>
<clipPath id="clip0_2_3631">
<rect width="16.9614" height="16" fill="white" transform="translate(0.791016 0.000244141)"/>
</clipPath>
</defs>
</svg>
