<svg width="17" height="16" viewBox="0 0 17 16" fill="none" xmlns="http://www.w3.org/2000/svg">
<g clip-path="url(#clip0_2_3634)">
<path d="M8.75195 16.0002C13.1702 16.0002 16.752 12.4185 16.752 8.00024C16.752 3.58197 13.1702 0.000244141 8.75195 0.000244141C4.33367 0.000244141 0.751953 3.58197 0.751953 8.00024C0.751953 12.4185 4.33367 16.0002 8.75195 16.0002Z" fill="#348F8D"/>
<path d="M12.4079 3.52186C12.5274 3.64579 12.5941 3.81122 12.5941 3.98336C12.5941 4.15549 12.5274 4.32092 12.4079 4.44486L10.8429 6.04936C10.7932 6.10016 10.7354 6.1424 10.6719 6.17436C10.5571 6.23917 10.4239 6.26398 10.2934 6.24489C10.1629 6.22579 10.0424 6.16387 9.95093 6.06885L8.39193 4.47186L5.38943 7.55135L6.11443 8.29286C6.21847 8.40224 6.2762 8.5476 6.27554 8.69856C6.27489 8.84952 6.21591 8.99438 6.11093 9.10285C6.05969 9.15585 5.99837 9.19805 5.93057 9.22698C5.86278 9.25592 5.78988 9.27099 5.71617 9.27131C5.64246 9.27164 5.56942 9.25721 5.50137 9.22888C5.43332 9.20055 5.37163 9.15889 5.31993 9.10635L4.16693 7.92985C4.06111 7.8204 4.00195 7.6741 4.00195 7.52185C4.00195 7.36961 4.06111 7.22331 4.16693 7.11385L4.17493 7.10636C4.17739 7.10398 4.17973 7.10147 4.18193 7.09886L7.99393 3.18885H7.99443L7.99493 3.18835L8.00743 3.17535C8.10257 3.07648 8.23001 3.015 8.36661 3.00207C8.50321 2.98913 8.63992 3.0256 8.75193 3.10486C8.78793 3.12936 8.82193 3.15685 8.85193 3.18835L10.3439 4.71486L11.5074 3.52186C11.5659 3.46153 11.6359 3.41356 11.7133 3.3808C11.7907 3.34805 11.8739 3.33117 11.9579 3.33117C12.042 3.33117 12.1251 3.34805 12.2025 3.3808C12.2799 3.41356 12.3499 3.46153 12.4084 3.52186H12.4079ZM13.3369 8.07285C13.4431 8.18159 13.5026 8.32752 13.5027 8.4795C13.5028 8.63149 13.4435 8.77749 13.3374 8.88636L13.3294 8.89386C13.3268 8.89622 13.3243 8.89872 13.3219 8.90135L9.49493 12.8249C9.43676 12.8851 9.36611 12.932 9.28792 12.962C9.20973 12.9921 9.12591 13.0047 9.04233 12.999C8.95876 12.9932 8.87746 12.9692 8.80414 12.9287C8.73082 12.8881 8.66726 12.8321 8.61793 12.7644L7.15943 11.2724L6.00293 12.4614C5.84193 12.6274 5.60693 12.6929 5.38643 12.6324C5.16593 12.5719 4.99343 12.3959 4.93443 12.1699C4.87593 11.9444 4.93943 11.7034 5.10193 11.5389L6.66643 9.93486C6.75543 9.84186 6.86993 9.77885 6.99493 9.75385C7.19693 9.70885 7.40793 9.77185 7.55443 9.92185L9.11743 11.5209L12.1144 8.44886L11.3894 7.70736C11.2854 7.59797 11.2277 7.45261 11.2283 7.30165C11.229 7.15069 11.2879 7.00583 11.3929 6.89736C11.4442 6.84436 11.5055 6.80216 11.5733 6.77323C11.6411 6.74429 11.714 6.72922 11.7877 6.7289C11.8614 6.72857 11.9344 6.743 12.0025 6.77133C12.0705 6.79966 12.1322 6.84132 12.1839 6.89386L13.3204 8.05636L13.3214 8.05735L13.3229 8.05836L13.3369 8.07285Z" fill="white"/>
</g>
<defs>
<clipPath id="clip0_2_3634">
<rect width="16" height="16" fill="white" transform="translate(0.751953 0.000244141)"/>
</clipPath>
</defs>
</svg>
