<svg width="17" height="16" viewBox="0 0 17 16" fill="none" xmlns="http://www.w3.org/2000/svg">
<g clip-path="url(#clip0_2_3635)">
<path d="M8.75195 16.0002C13.1702 16.0002 16.752 12.4185 16.752 8.00024C16.752 3.58197 13.1702 0.000244141 8.75195 0.000244141C4.33367 0.000244141 0.751953 3.58197 0.751953 8.00024C0.751953 12.4185 4.33367 16.0002 8.75195 16.0002Z" fill="#3CB054"/>
<path fill-rule="evenodd" clip-rule="evenodd" d="M5.25195 3.75024C11.2985 3.97374 13.63 7.60324 12.4595 10.8417C12.128 11.7432 11.7755 12.2367 11.0345 12.7502C11.0645 12.6202 11.0955 12.4902 11.1195 12.3567C11.5575 9.83024 10.727 6.78974 6.66345 5.11024C9.89645 7.03424 11.201 10.4577 9.69345 12.6677C7.12695 13.0712 5.25195 10.8797 5.25195 8.35474V3.75024Z" fill="white"/>
</g>
<defs>
<clipPath id="clip0_2_3635">
<rect width="16" height="16" fill="white" transform="translate(0.751953 0.000244141)"/>
</clipPath>
</defs>
</svg>
