<svg width="17" height="16" viewBox="0 0 17 16" fill="none" xmlns="http://www.w3.org/2000/svg">
<g clip-path="url(#clip0_2_3636)">
<path fill-rule="evenodd" clip-rule="evenodd" d="M8.33951 0.390137V0.734169C8.45979 0.685543 8.57298 0.620979 8.67606 0.542209C8.56139 0.542209 8.44671 0.390137 8.33203 0.390137H8.33951Z" fill="black"/>
<path fill-rule="evenodd" clip-rule="evenodd" d="M8.7458 0.415259C8.62364 0.415259 8.4965 0.395315 8.37933 0.392822H8.34193C6.75596 0.478182 5.23632 1.05707 3.99552 2.04855C2.75472 3.04002 1.85481 4.39449 1.42164 5.92255C0.988462 7.4506 1.04368 9.07583 1.57958 10.571C2.11548 12.0661 3.10525 13.3564 4.41049 14.2613C4.1669 14.0407 3.97244 13.7713 3.83973 13.4707C3.70701 13.1701 3.63902 12.8449 3.64016 12.5162C3.64408 11.892 3.89381 11.2944 4.33524 10.8529C4.77667 10.4115 5.37426 10.1618 5.99852 10.1579L6.4697 10.1429V10.0407C6.46941 9.54692 6.62525 9.0657 6.91496 8.66585C7.20466 8.266 7.61338 7.968 8.08266 7.81445C8.31818 7.73604 8.56488 7.69646 8.81311 7.69728C9.26483 7.69684 9.70705 7.82697 10.0865 8.072C10.466 8.31703 10.7666 8.66652 10.9521 9.07839C11.756 8.52692 12.3713 7.74198 12.7148 6.82961C13.0583 5.91725 13.1134 4.92144 12.8728 3.97671C12.6322 3.03199 12.1075 2.18387 11.3694 1.54696C10.6313 0.910046 9.71556 0.515023 8.7458 0.415259Z" fill="#B4E1FF"/>
<path fill-rule="evenodd" clip-rule="evenodd" d="M8.99575 0.390137C13.1142 0.888734 14.3881 3.91273 14.3906 6.64255C14.3906 9.4347 12.0447 11.4715 9.99295 12.01C9.22796 12.1979 8.45195 12.3378 7.66948 12.4288L7.35786 12.4662C7.28361 12.4762 7.21026 12.4921 7.13848 12.5135C6.91831 12.5782 6.7155 12.6915 6.54505 12.8452C6.3746 12.9988 6.24087 13.1888 6.15375 13.401C6.07752 13.5852 6.03854 13.7826 6.03907 13.9819C6.03883 14.3001 6.13757 14.6104 6.3216 14.8699C6.50564 15.1295 6.76585 15.3253 7.06618 15.4303C7.17338 15.4553 7.28307 15.4752 7.39525 15.4976C7.84215 15.5768 8.2951 15.6168 8.74895 15.6173C10.7429 15.6107 12.6548 14.8224 14.0739 13.4217C15.493 12.021 16.3063 10.1197 16.3389 8.12595C16.3716 6.13224 15.621 4.20525 14.2485 2.75884C12.876 1.31243 10.9909 0.461976 8.99825 0.390137H8.99575Z" fill="#90D595"/>
<path fill-rule="evenodd" clip-rule="evenodd" d="M8.99571 0.390137C8.91344 0.390137 8.83367 0.390137 8.74641 0.390137C8.62426 0.390137 8.49711 0.390137 8.37994 0.390137C8.50459 0.390137 8.62924 0.402602 8.74641 0.415067C9.71829 0.512325 10.6367 0.906263 11.377 1.54341C12.1173 2.18056 12.6437 3.03007 12.8846 3.97662C13.1255 4.92318 13.0694 5.92094 12.7238 6.83449C12.3781 7.74804 11.7598 8.53312 10.9527 9.08319C10.7352 8.59006 10.3543 8.187 9.87422 7.94193C9.39417 7.69686 8.84432 7.62475 8.31732 7.73776C7.79032 7.85078 7.31838 8.142 6.98103 8.56236C6.64369 8.98271 6.46156 9.50651 6.46533 10.0455V10.1452L5.99166 10.1627C5.51665 10.1636 5.05303 10.3082 4.66163 10.5773C4.27023 10.8465 3.96933 11.2276 3.79841 11.6708C3.6275 12.114 3.59455 12.5985 3.70389 13.0608C3.81323 13.5231 4.05975 13.9415 4.41111 14.2611C4.56069 14.3658 4.71276 14.4606 4.86982 14.5553C5.55077 14.9613 6.29223 15.2558 7.06614 15.4278C6.76601 15.3233 6.50587 15.1279 6.32182 14.8688C6.13777 14.6097 6.03893 14.2997 6.03903 13.9819C6.03824 13.7818 6.07722 13.5835 6.1537 13.3986C6.24159 13.1867 6.37557 12.9972 6.54591 12.8437C6.71625 12.6901 6.91867 12.5765 7.13844 12.511C7.21057 12.4916 7.28384 12.4766 7.35782 12.4662L7.66944 12.4313C8.45175 12.338 9.22767 12.1973 9.99291 12.01C12.0446 11.469 14.393 9.4347 14.3905 6.64255C14.3905 3.90026 13.1141 0.878762 8.99571 0.390137Z" fill="white"/>
<path fill-rule="evenodd" clip-rule="evenodd" d="M11.2215 9.35809L10.9473 9.08386L11.2215 9.35809Z" fill="black"/>
<path fill-rule="evenodd" clip-rule="evenodd" d="M8.74913 0.000780312C8.61949 0.000780312 8.49983 0.000780312 8.36272 0.000780312H8.34776C6.68105 0.0846026 5.08231 0.68771 3.77551 1.72561C2.46871 2.76351 1.51933 4.18421 1.06036 5.78867C0.601394 7.39314 0.655836 9.10098 1.21606 10.673C1.77628 12.2449 2.81422 13.6023 4.18447 14.5548C4.33097 14.6856 4.49053 14.8008 4.66063 14.8989C4.70337 14.9212 4.74984 14.9356 4.79774 14.9413C5.47589 15.3285 6.20761 15.6133 6.96914 15.7864C7.09266 15.8295 7.22058 15.8588 7.35056 15.8736C7.81309 15.9557 8.28187 15.9974 8.75162 15.9983C9.81392 16.0169 10.8693 15.8237 11.8561 15.43C12.8429 15.0363 13.7414 14.4499 14.4992 13.7052C15.2569 12.9605 15.8588 12.0723 16.2695 11.0924C16.6803 10.1126 16.8918 9.06072 16.8916 7.99826C16.8914 6.93581 16.6796 5.88402 16.2686 4.90431C15.8575 3.92459 15.2554 3.03657 14.4974 2.29208C13.7394 1.54758 12.8407 0.961532 11.8538 0.568131C10.8668 0.17473 9.81142 -0.0181392 8.74913 0.000780312ZM5.75754 14.5823C5.3587 14.4026 4.97731 14.1865 4.61825 13.9366C4.33549 13.6621 4.14121 13.3094 4.06036 12.9237C3.9795 12.538 4.01575 12.137 4.16446 11.772C4.31316 11.4071 4.56754 11.0949 4.89493 10.8756C5.22232 10.6563 5.60779 10.5398 6.00186 10.5411C6.15642 10.5411 6.33342 10.5411 6.48051 10.5262C6.57885 10.5217 6.67171 10.4796 6.73991 10.4086C6.80811 10.3377 6.84644 10.2432 6.84698 10.1447V10.045C6.84667 9.5953 7.00069 9.15907 7.2833 8.80923C7.56591 8.45938 7.96 8.2171 8.39975 8.12284C8.8395 8.02859 9.29827 8.08808 9.69944 8.29137C10.1006 8.49466 10.4199 8.82944 10.6039 9.2398C10.6448 9.33116 10.7202 9.40263 10.8136 9.4386C10.907 9.47456 11.0109 9.47211 11.1025 9.43176C11.1217 9.42074 11.1401 9.40824 11.1574 9.39436C12.1988 8.68641 12.9431 7.61986 13.2485 6.39816C13.5538 5.17647 13.3986 3.88513 12.8127 2.77049C13.8298 4.08928 13.9994 5.7172 13.9994 6.63712C13.9994 9.17996 11.8803 11.1095 9.88593 11.6231C9.03219 11.8274 8.16616 11.9765 7.29322 12.0693C6.8368 12.1346 6.41911 12.362 6.11653 12.7099C5.81396 13.0578 5.6467 13.5029 5.64536 13.964C5.64925 14.1685 5.68457 14.3711 5.75006 14.5648L5.75754 14.5823ZM1.51946 8.00078C1.51797 6.13242 2.23984 4.33603 3.53374 2.98822C4.82763 1.64041 6.59308 0.845847 8.45994 0.771114C9.34192 0.808722 10.1919 1.1124 10.898 1.64222C11.6041 2.17203 12.1333 2.90316 12.416 3.73945C12.6988 4.57574 12.7217 5.47801 12.482 6.3276C12.2422 7.1772 11.7508 7.93431 11.0726 8.49938C10.7582 8.03615 10.3087 7.68102 9.78523 7.4823C9.26181 7.28359 8.68989 7.25093 8.14725 7.38876C7.60461 7.5266 7.1176 7.82825 6.75247 8.25267C6.38734 8.6771 6.16181 9.20369 6.10656 9.76083H5.9869C5.2596 9.76083 4.56209 10.0497 4.04781 10.564C3.53353 11.0783 3.24461 11.7758 3.24461 12.5031C3.24461 12.5704 3.24461 12.6352 3.25957 12.7026C2.13298 11.3952 1.51365 9.72657 1.51448 8.00078H1.51946ZM8.74913 15.2304C8.21386 15.2287 7.68043 15.1677 7.1586 15.0485C6.92086 14.9584 6.7197 14.792 6.5866 14.5754C6.45351 14.3588 6.396 14.1041 6.42307 13.8514C6.45015 13.5986 6.56028 13.3619 6.73623 13.1784C6.91218 12.9949 7.14401 12.8749 7.39544 12.8372C8.30292 12.7393 9.20312 12.5828 10.0904 12.3685C12.359 11.7727 14.7722 9.5589 14.7697 6.63462C14.8035 5.27557 14.449 3.93506 13.7476 2.77049C14.7939 3.76698 15.5176 5.05413 15.8254 6.46589C16.1331 7.87764 16.0108 9.34923 15.4742 10.6908C14.9375 12.0324 14.0112 13.1824 12.8148 13.9924C11.6183 14.8025 10.2065 15.2354 8.76159 15.2354L8.74913 15.2304Z" fill="#41474E"/>
</g>
<defs>
<clipPath id="clip0_2_3636">
<rect width="16" height="16" fill="white" transform="translate(0.751953 0.000244141)"/>
</clipPath>
</defs>
</svg>
