<svg width="17" height="16" viewBox="0 0 17 16" fill="none" xmlns="http://www.w3.org/2000/svg">
<g clip-path="url(#clip0_2_3641)">
<path d="M16.752 8.00024C16.752 12.4191 13.1708 16.0002 8.75195 16.0002C4.33307 16.0002 0.751953 12.4191 0.751953 8.00024C0.751953 3.58136 4.33307 0.000244141 8.75195 0.000244141C13.1708 0.000244141 16.752 3.58136 16.752 8.00024Z" fill="#393534"/>
<path d="M15.822 8.06884C15.822 11.9349 12.6873 15.0697 8.82116 15.0697C4.95507 15.0697 1.82031 11.9349 1.82031 8.06884C1.82031 4.20275 4.95507 1.06799 8.82116 1.06799C12.6873 1.06799 15.822 4.20275 15.822 8.06884Z" fill="#F2F2F2"/>
<path d="M11.4706 6.05288L6.44386 11.1928L6.33398 9.12241L9.3658 6.05288L10.6225 4.74816L11.4362 4.48035L12.0268 4.63485L12.5796 5.09494L11.9135 5.8606L11.4706 6.05288Z" fill="white"/>
<path d="M11.9279 6.19726L10.9219 7.23417H12.4463L12.618 7.05907C12.7382 6.93546 12.8343 6.78439 12.8996 6.62302C12.9648 6.45821 12.9957 6.2831 12.9957 6.10799C12.9957 5.75778 12.8652 5.42473 12.6317 5.17065L11.9382 5.89168C11.976 5.93289 11.9931 5.99126 11.9931 6.04619C11.9897 6.10113 11.9657 6.15606 11.9279 6.19726Z" fill="#E1DED9"/>
<path d="M7.79326 10.5613L6.97266 11.4128H8.49712L9.32459 10.5613H7.79326Z" fill="#E1DED9"/>
<path d="M8.20508 10.1279H9.72947L10.6393 9.18372H9.1149L8.20508 10.1279Z" fill="#E1DED9"/>
<path d="M12.0289 7.74231H10.5044L9.5293 8.74836H11.0538L12.0289 7.74231Z" fill="#E1DED9"/>
<path d="M12.5329 4.79678C12.375 4.63197 12.1861 4.5015 11.9801 4.41223C11.7741 4.32296 11.5509 4.27832 11.3278 4.27832C11.1046 4.27832 10.8814 4.32296 10.6754 4.41223C10.4694 4.5015 10.2806 4.63541 10.1226 4.80022L6.17412 8.87925C6.13636 8.92388 6.11232 8.98225 6.11576 9.04062V11.1419L5.02734 12.2784H5.62477L6.43164 11.4441H8.45052C8.47799 11.4441 8.50546 11.4407 8.53292 11.4269C8.55696 11.4166 8.58099 11.396 8.59816 11.3754L12.5226 7.31013L12.5295 7.30326C12.8488 6.97021 13.0273 6.52041 13.0239 6.05345C13.0273 5.81997 12.9827 5.58993 12.8969 5.37705C12.8179 5.15387 12.6909 4.96159 12.5329 4.79678ZM10.2394 5.27061L10.411 5.0955C10.6548 4.84485 10.9844 4.70408 11.3278 4.70408C11.6711 4.70408 12.0007 4.84485 12.2445 5.0955C12.2514 5.10237 12.2514 5.10923 12.2582 5.10923C12.4917 5.36331 12.6222 5.70323 12.6222 6.05689C12.6188 6.41054 12.4849 6.74703 12.2445 6.99767L12.0728 7.17278H10.5484L11.5475 6.13586C11.5853 6.09809 11.6093 6.04315 11.6093 5.98822C11.6093 5.93328 11.5922 5.87834 11.5544 5.83714C11.5475 5.83028 11.5475 5.83028 11.5475 5.82341C11.5097 5.78221 11.4548 5.7616 11.3999 5.7616C11.3449 5.7616 11.29 5.78564 11.2522 5.82341L10.2394 6.87407V5.27061ZM6.84709 11.008L7.66769 10.1565H9.19215L8.37155 11.008H6.84709ZM9.24022 8.52559L10.2153 7.5127H11.7398L10.7647 8.52559H9.24022ZM10.4316 8.86895L9.52176 9.81317H7.9973L8.90717 8.86895H10.4316ZM8.93121 6.62342L9.90631 5.61053V7.21399L8.93121 8.22688V6.62342ZM7.68829 7.91099L8.59816 6.96677V8.57023L7.68829 9.51445V7.91099ZM6.52777 9.11616L7.36211 8.25778V9.86124L6.52777 10.7196" fill="#393534"/>
</g>
<defs>
<clipPath id="clip0_2_3641">
<rect width="16" height="16" fill="white" transform="translate(0.751953 0.000244141)"/>
</clipPath>
</defs>
</svg>
