<svg width="27" height="16" viewBox="0 0 27 16" fill="none" xmlns="http://www.w3.org/2000/svg">
<g clip-path="url(#clip0_2_3644)">
<path d="M22.7542 2.54873L21.6895 1.77492L24.1796 0.518188L22.7542 2.54873Z" fill="#3F4B80"/>
<path d="M16.4238 0.000244141L19.5249 1.59443L19.8973 4.16606L16.4238 0.000244141Z" fill="#313A62"/>
<path d="M19.8973 4.16606L19.4027 6.3537L16.4238 0.000244141L19.8973 4.16606Z" fill="#3F4B80"/>
<path d="M19.4039 6.35354L14.6562 0.36081L16.4308 0.0117188L19.4039 6.35354Z" fill="#4B5897"/>
<path d="M19.403 6.35357L14.2539 4.34048L14.6554 0.36084L19.403 6.35357Z" fill="#5161A4"/>
<path d="M14.6549 0.36084L14.2534 4.34048L8.94727 5.0852L14.6549 0.36084Z" fill="#4B5897"/>
<path d="M19.4032 6.35354L13.7246 7.89536L14.2541 4.34045L19.4032 6.35354Z" fill="#4B5897"/>
<path d="M13.7246 7.89533L19.4032 6.35352L16.8432 7.54624L13.7246 7.89533Z" fill="#3F4B80"/>
<path d="M10.5879 8.43066L13.7239 7.89539L13.7763 8.96593L10.5879 8.43066Z" fill="#3F4B80"/>
<path d="M13.777 8.9659L13.7246 7.89536L16.8432 7.54626L13.777 8.9659Z" fill="#313A62"/>
<path d="M8.94727 5.08518L14.2535 4.34045L13.724 7.89536L8.94727 5.08518Z" fill="#3F4B80"/>
<path d="M8.94727 5.08545L13.724 7.89564L10.588 8.43091L8.94727 5.08545Z" fill="#4B5897"/>
<path d="M8.94727 5.08545L10.588 8.43091L9.00545 9.58873L8.94727 5.08545Z" fill="#313A62"/>
<path d="M6.25385 5.9873L6.88803 9.79821L5.14258 7.17421L6.25385 5.9873Z" fill="#5161A4"/>
<path d="M3.12891 7.19747L5.142 7.17419L5.15363 8.40183L3.12891 7.19747Z" fill="#313A62"/>
<path d="M3.29182 8.02914L3.12891 7.19714L5.15363 8.40151L3.29182 8.02914Z" fill="#3F4B80"/>
<path d="M3.29263 8.02914L2.14062 9.04733L3.12972 7.19714L3.29263 8.02914Z" fill="#4B5897"/>
<path d="M2.1405 9.04749L2.05905 9.66421L0.744141 9.44894L2.1405 9.04749Z" fill="#313A62"/>
<path d="M2.14005 9.04748L3.29205 8.0293L2.05859 9.66421L2.14005 9.04748Z" fill="#5161A4"/>
<path d="M5.14258 7.17419L6.88803 9.79819L5.15421 10.1415L5.14258 7.17419Z" fill="#3F4B80"/>
<path d="M5.65381 12.0963L4.39126 14.7087L4.20508 12.6956L5.65381 12.0963Z" fill="#3F4B80"/>
<path d="M4.20516 12.6953L4.39134 14.7084L3.66406 15.0575L4.20516 12.6953Z" fill="#1F243E"/>
<path d="M4.39308 14.7087L4.58508 15.692L3.08398 16.0004L4.39308 14.7087Z" fill="#3F4B80"/>
<path d="M3.6658 15.0578L4.39308 14.7087L3.08398 16.0004L3.6658 15.0578Z" fill="#313A62"/>
<path d="M5.15344 10.1414L6.88726 9.7981L4.20508 12.6955L5.15344 10.1414Z" fill="#313A62"/>
<path d="M6.88726 9.7981L8.06835 11.1421L4.20508 12.6955L6.88726 9.7981Z" fill="#4B5897"/>
<path d="M6.25391 5.98727L8.94772 5.08545L6.88809 9.79817L6.25391 5.98727Z" fill="#4B5897"/>
<path d="M6.88867 9.79817L8.94832 5.08545L9.0065 9.58872L6.88867 9.79817Z" fill="#3F4B80"/>
<path d="M8.06977 11.1422L6.88867 9.7982L9.0065 9.58875L8.06977 11.1422Z" fill="#313A62"/>
<path d="M16.8438 7.54651L19.3398 7.52905L17.7456 9.96105L16.8438 7.54651Z" fill="#4B5897"/>
<path d="M16.8438 7.54624L19.4038 6.35352L19.3398 7.52879L16.8438 7.54624Z" fill="#5161A4"/>
<path d="M16.3535 9.69901L16.8422 7.54626L17.7441 9.96082L16.3535 9.69901Z" fill="#3F4B80"/>
<path d="M15.7559 10.8277L16.3551 9.69897L17.7457 9.96079L15.7559 10.8277Z" fill="#4B5897"/>
<path d="M14.5449 11.6364L14.9231 9.78625L16.3544 9.69897L14.5449 11.6364Z" fill="#3F4B80"/>
<path d="M14.5449 11.6364L16.3544 9.69897L15.7551 10.8277L14.5449 11.6364Z" fill="#313A62"/>
<path d="M21.6895 1.77484L24.0633 0.11084L24.1796 0.518113L21.6895 1.77484Z" fill="#495692"/>
<path d="M24.0625 0.110628L26.0058 0.0117188L24.1789 0.517901L24.0625 0.110628Z" fill="#5D6CAC"/>
<path d="M22.8185 3.91001L21.7363 3.14783L25.396 3.15365L22.8185 3.91001Z" fill="#4F60A3"/>
<path d="M21.7363 3.14775L24.884 2.74048L25.396 3.15357L21.7363 3.14775Z" fill="#495692"/>
<path d="M24.8828 2.7407L26.3257 1.47815L25.3948 3.15379L24.8828 2.7407Z" fill="#3F4B80"/>
<path d="M25.3965 3.15379L26.3274 1.47815L26.6358 1.6236L25.3965 3.15379Z" fill="#4F60A3"/>
<path d="M26.3262 1.47813L26.5822 0.750854L26.6345 1.62358L26.3262 1.47813Z" fill="#313A62"/>
<path d="M19.8969 4.16602L20.246 7.22638L19.4023 6.35365L19.8969 4.16602Z" fill="#313A62"/>
<path d="M20.2475 7.22628L19.8984 4.16591L22.8192 3.90991L20.2475 7.22628Z" fill="#3F4B80"/>
<path d="M22.8185 3.91012L19.8978 4.16612L19.5254 1.59448L22.8185 3.91012Z" fill="#4B5897"/>
<path d="M22.7545 2.54883L23.2258 2.97356L21.7363 3.1481L22.7545 2.54883Z" fill="#313A62"/>
<path d="M19.5254 1.59448L22.7545 2.54866L21.7363 3.14794L19.5254 1.59448Z" fill="#3F4B80"/>
<path d="M19.5254 1.59448L21.6898 1.77485L22.7545 2.54866L19.5254 1.59448Z" fill="#313A62"/>
<path d="M22.6836 8.75064L22.8174 3.90991L23.981 4.85828L22.6836 8.75064Z" fill="#3F4B80"/>
<path d="M22.6839 8.75064L22.8177 3.90991L20.2461 7.22628L22.6839 8.75064Z" fill="#495692"/>
<path d="M23.982 4.85826L23.6096 3.64807L22.8184 3.90989L23.982 4.85826Z" fill="#313A62"/>
<path d="M24.1381 8.08167L22.6836 8.75076L23.981 4.8584L24.1381 8.08167Z" fill="#313A62"/>
</g>
<defs>
<clipPath id="clip0_2_3644">
<rect width="25.8909" height="16" fill="white" transform="translate(0.744141 0.000244141)"/>
</clipPath>
</defs>
</svg>
