<svg width="17" height="16" viewBox="0 0 17 16" fill="none" xmlns="http://www.w3.org/2000/svg">
<g clip-path="url(#clip0_2_3653)">
<path d="M8.02539 16.0002C12.4437 16.0002 16.0254 12.4185 16.0254 8.00024C16.0254 3.58197 12.4437 0.000244141 8.02539 0.000244141C3.60711 0.000244141 0.0253906 3.58197 0.0253906 8.00024C0.0253906 12.4185 3.60711 16.0002 8.02539 16.0002Z" fill="#181818"/>
<path d="M8.38944 7.04023L11.5703 3.85303L12.2167 4.50583L9.03585 7.68663L8.38944 7.04023ZM3.82617 11.597L7.01342 8.40983L7.65983 9.06263L4.47898 12.2434L3.82617 11.597ZM8.38944 9.06263L9.03585 8.40983L12.2231 11.597L11.5703 12.2434L8.38944 9.06263ZM3.82617 4.50583L4.47898 3.85303L7.65983 7.03383L7.01342 7.68663L3.82617 4.50583ZM7.37182 8.04503L8.02463 7.39223L8.67744 8.04503L8.02463 8.69783L7.37182 8.04503Z" fill="#F6D30C"/>
</g>
<defs>
<clipPath id="clip0_2_3653">
<rect width="16" height="16" fill="white" transform="translate(0.0253906 0.000244141)"/>
</clipPath>
</defs>
</svg>
