<svg width="17" height="16" viewBox="0 0 17 16" fill="none" xmlns="http://www.w3.org/2000/svg">
<g clip-path="url(#clip0_2_3654)">
<path d="M8.02539 16.0002C12.4437 16.0002 16.0254 12.4185 16.0254 8.00024C16.0254 3.58197 12.4437 0.000244141 8.02539 0.000244141C3.60711 0.000244141 0.0253906 3.58197 0.0253906 8.00024C0.0253906 12.4185 3.60711 16.0002 8.02539 16.0002Z" fill="#1347E8"/>
<path d="M8.02539 2.50024C4.98789 2.50024 2.52539 4.96274 2.52539 8.00024C2.52539 11.0377 4.98789 13.5002 8.02539 13.5002C11.0629 13.5002 13.5254 11.0377 13.5254 8.00024C13.5254 4.96274 11.0629 2.50024 8.02539 2.50024ZM13.2454 7.77524L12.8004 7.77974L12.7984 7.59324L13.2439 7.58924L13.2459 7.77524H13.2454ZM13.1314 6.81374L12.6899 6.87524L12.6644 6.69024L13.1054 6.62924L13.1314 6.81424V6.81374ZM12.7514 5.64274L12.8284 5.81274L12.4229 5.99674L12.3459 5.82724L12.7509 5.64274H12.7514ZM12.1954 4.79524L12.3184 4.93524L11.9834 5.22924L11.8609 5.08924L12.1954 4.79524ZM11.5429 4.09874L11.6839 4.22074L11.3934 4.55774L11.2519 4.43624L11.5429 4.09874ZM10.7654 3.46924L10.9214 3.57074L10.6789 3.94424L10.5229 3.84324L10.7654 3.46924ZM9.88039 3.03274L10.0609 3.08024L9.94789 3.51074L9.76739 3.46324L9.88089 3.03324L9.88039 3.03274ZM8.90789 2.79374L9.09339 2.80874L9.05639 3.25274L8.87089 3.23724L8.90789 2.79374ZM7.90089 2.67624H8.08689V3.12174H7.90089V2.67624ZM7.07389 2.79374L7.11089 3.23724L6.92489 3.25324L6.88789 2.80924L7.07389 2.79374ZM6.10089 3.03274L6.21389 3.46324L6.03389 3.51074L5.92039 3.08074L6.10039 3.03274H6.10089ZM5.21639 3.46924L5.45889 3.84324L5.30239 3.94424L5.05989 3.57074L5.21639 3.46924ZM4.43889 4.09924L4.72939 4.43624L4.58839 4.55774L4.29789 4.22074L4.43889 4.09874V4.09924ZM3.78689 4.79424L4.12189 5.08824L3.99839 5.22824L3.66389 4.93474L3.78689 4.79474V4.79424ZM3.23139 5.64224L3.63639 5.82674L3.55989 5.99674L3.15439 5.81174L3.23139 5.64224ZM2.87689 6.62874L3.31839 6.68974L3.29239 6.87474L2.85139 6.81324L2.87689 6.62824V6.62874ZM2.73889 7.58874L3.18389 7.59274L3.18239 7.77924L2.73739 7.77474L2.73889 7.58874ZM2.77989 8.63474L3.22289 8.58974L3.24139 8.77474L2.79839 8.81974L2.77989 8.63474ZM2.98139 9.58174L3.41539 9.48074L3.45789 9.66224L3.02389 9.76324L2.98139 9.58174ZM3.46689 10.7132L3.37489 10.5512L3.76139 10.3302L3.85389 10.4922L3.46689 10.7132ZM4.09789 11.5067L3.96239 11.3787L4.26889 11.0552L4.40389 11.1832L4.09789 11.5067ZM4.81039 12.1402L4.65889 12.0322L4.91739 11.6692L5.06889 11.7777L4.81039 12.1402ZM5.64239 12.6957L5.47739 12.6092L5.68439 12.2152L5.84939 12.3017L5.64239 12.6957ZM6.56289 13.0497L6.37889 13.0187L6.45239 12.5797L6.63639 12.6107L6.56289 13.0497ZM7.36739 13.2007L7.36389 12.7552L7.55039 12.7532L7.55389 13.1987L7.36739 13.2007ZM3.39539 8.00024C3.39539 5.44724 5.47239 3.37024 8.02539 3.37024C10.5784 3.37024 12.6554 5.44724 12.6554 8.00024C12.6554 10.5532 10.5784 12.6302 8.02539 12.6302C5.47239 12.6302 3.39539 10.5532 3.39539 8.00024ZM8.38839 13.2407L8.38239 13.2412L8.34189 12.7982L8.52739 12.7812L8.53339 12.7802L8.57389 13.2237L8.38839 13.2407ZM9.38089 13.0317L9.30339 12.5932L9.48689 12.5607L9.56439 12.9997L9.38089 13.0317ZM10.3279 12.7047L10.1754 12.2862L10.3504 12.2227L10.5029 12.6412L10.3279 12.7047ZM11.1684 12.1897L10.8934 11.8397L11.0394 11.7237L11.3149 12.0737L11.1684 12.1892V12.1897ZM11.8854 11.4912L11.5654 11.1822L11.6944 11.0477L12.0144 11.3577L11.8854 11.4912ZM12.4714 10.7387L12.1114 10.4762L12.2214 10.3257L12.5814 10.5877L12.4714 10.7387ZM12.9474 9.84374L12.5264 9.69674L12.5879 9.52074L13.0084 9.66774L12.9474 9.84324V9.84374ZM13.2099 8.82874L12.7649 8.80874L12.7734 8.62224L13.2184 8.64274L13.2099 8.82874ZM9.79339 10.3662H9.79289C9.86739 10.4462 9.86939 10.5682 9.79589 10.6412C9.72239 10.7137 9.60089 10.7102 9.52139 10.6342V10.6347L9.38239 10.4947L9.06639 10.1742C8.86133 10.272 8.63535 10.3179 8.40839 10.3077H7.53939C6.75239 10.3367 6.02539 9.94374 6.08439 8.66574C6.08639 8.61224 6.08089 7.92424 6.08089 7.86974L6.08239 7.35374C6.08089 6.07874 6.39239 5.50074 7.25139 5.29624C7.34889 5.27274 7.88039 5.26124 7.98189 5.26124H8.02739C8.12939 5.26124 8.59839 5.27274 8.69589 5.29624C9.55489 5.50074 9.86639 6.07874 9.86489 7.35374L9.86639 7.87024C9.86639 7.92474 9.86089 8.61224 9.86339 8.66624C9.89539 9.35624 9.69739 9.65624 9.38489 9.95324L9.65489 10.2257L9.79339 10.3662ZM8.46389 9.90224C8.56339 9.90224 8.66189 9.88824 8.75689 9.86024L8.57889 9.68024L8.43989 9.53924C8.36489 9.45924 8.36339 9.33774 8.43689 9.26524C8.51039 9.19224 8.63189 9.19574 8.71139 9.27124L8.84989 9.41124L9.09939 9.66424C9.11222 9.65259 9.12456 9.64041 9.13639 9.62774C9.36939 9.38374 9.48039 9.17974 9.45789 8.68474C9.45639 8.64974 9.45589 8.64924 9.45939 8.02824L9.46039 7.86974L9.45989 7.52074C9.45939 7.30774 9.45889 7.38274 9.45889 7.35324C9.45939 6.78824 9.39539 6.29724 9.25789 6.07574C9.17639 5.94374 9.03539 5.79574 8.60889 5.69274C8.41562 5.67689 8.22181 5.66838 8.02789 5.66724H7.98189C7.85339 5.66724 7.42339 5.68024 7.33939 5.69274C6.91239 5.79574 6.77139 5.94374 6.68989 6.07574C6.55239 6.29724 6.48839 6.78824 6.48939 7.35324C6.48939 7.38324 6.48889 7.30774 6.48839 7.52074C6.48825 7.68991 6.48825 7.85908 6.48839 8.02824C6.49189 8.64924 6.49189 8.65024 6.48989 8.68474C6.46739 9.17974 6.57889 9.38374 6.81189 9.62774C7.02839 9.85474 7.29689 9.90274 7.48389 9.90274L7.52439 9.90174L7.53189 9.90124H8.42339C8.43689 9.90224 8.45039 9.90224 8.46389 9.90224Z" fill="white"/>
</g>
<defs>
<clipPath id="clip0_2_3654">
<rect width="16" height="16" fill="white" transform="translate(0.0253906 0.000244141)"/>
</clipPath>
</defs>
</svg>
