<svg width="17" height="16" viewBox="0 0 17 16" fill="none" xmlns="http://www.w3.org/2000/svg">
<g clip-path="url(#clip0_2_3655)">
<path d="M8.02539 16.0002C12.4437 16.0002 16.0254 12.4185 16.0254 8.00024C16.0254 3.58197 12.4437 0.000244141 8.02539 0.000244141C3.60711 0.000244141 0.0253906 3.58197 0.0253906 8.00024C0.0253906 12.4185 3.60711 16.0002 8.02539 16.0002Z" fill="#610089"/>
<path fill-rule="evenodd" clip-rule="evenodd" d="M8.27044 2.50178C10.8354 2.63978 12.9114 4.41978 13.4209 6.93578C13.4879 7.26778 13.5059 7.61128 13.5244 7.95078C13.5409 8.25078 13.3454 8.45328 13.0749 8.45278C12.8099 8.45278 12.6364 8.26078 12.6299 7.96278C12.5814 5.76928 11.0999 3.96028 8.96095 3.50278C8.64095 3.43478 8.30695 3.43378 7.97995 3.39678C7.73095 3.36878 7.56595 3.17728 7.57295 2.93428C7.57995 2.69378 7.75994 2.51478 8.01094 2.50228C8.09745 2.49828 8.18395 2.50178 8.27044 2.50178ZM7.79144 13.5003C5.32995 13.4263 3.11595 11.5603 2.64895 9.14428C2.57795 8.77428 2.55095 8.39478 2.52645 8.01828C2.51145 7.78828 2.65795 7.62328 2.87145 7.56828C3.04845 7.52228 3.25445 7.59778 3.34445 7.76628C3.38945 7.85178 3.41095 7.95978 3.41295 8.05828C3.44945 10.1603 4.87095 11.9693 6.91094 12.4723C7.27894 12.5633 7.66694 12.5778 8.04694 12.6183C8.26394 12.6408 8.43794 12.7883 8.46694 12.9998C8.49444 13.1998 8.36844 13.4233 8.17694 13.4708C8.05344 13.5013 7.91994 13.4918 7.79144 13.5003ZM8.01745 5.99878C9.10595 5.99528 10.0199 6.88778 10.0274 7.96128C10.0299 8.33128 9.69095 8.56428 9.37745 8.40478C9.20745 8.31878 9.13445 8.17478 9.12745 7.98328C9.12221 7.72414 9.02573 7.47515 8.85497 7.28016C8.68421 7.08516 8.45013 6.95666 8.19394 6.91728C7.61795 6.81928 7.05794 7.21028 6.94594 7.78878C6.83145 8.37978 7.20145 8.95528 7.77744 9.07978C7.85644 9.09678 7.93745 9.10628 8.01745 9.11078C8.28545 9.12478 8.47345 9.30928 8.47145 9.56078C8.46945 9.81578 8.26795 10.0048 7.99495 10.0073C7.13695 10.0148 6.32794 9.38878 6.09395 8.53678C5.74445 7.26428 6.70045 6.00278 8.01745 5.99878ZM11.7949 7.87728C11.7849 7.96228 11.7884 8.06878 11.7574 8.16378C11.6924 8.36578 11.4774 8.48278 11.2674 8.44878C11.0489 8.41278 10.8934 8.23378 10.8909 7.98878C10.8874 7.61578 10.8269 7.25378 10.6739 6.91528C10.1674 5.79778 9.30095 5.19828 8.07195 5.14028C7.77145 5.12528 7.57195 4.94928 7.57395 4.68028C7.57645 4.41128 7.77745 4.23578 8.08245 4.23678C9.91745 4.24028 11.5209 5.66028 11.7534 7.48878C11.7694 7.61228 11.7799 7.73578 11.7949 7.87728ZM4.26444 8.10778C4.23895 7.90428 4.29095 7.70378 4.52345 7.59678C4.82945 7.45528 5.14995 7.67428 5.15594 8.03378C5.16194 8.37828 5.22095 8.70978 5.34494 9.03078C5.54668 9.56183 5.9022 10.0206 6.36606 10.3486C6.82991 10.6765 7.38102 10.8587 7.94895 10.8718C8.33695 10.8818 8.56245 11.1628 8.43894 11.4818C8.36995 11.6618 8.21795 11.7663 8.00994 11.7643C6.90895 11.7543 5.98045 11.3418 5.23795 10.5333C4.62635 9.87212 4.27978 9.00881 4.26444 8.10828V8.10778ZM10.0314 9.51778C10.0129 9.74128 9.93645 9.88278 9.76845 9.96128C9.60145 10.0393 9.43194 10.0273 9.29844 9.90378C9.05653 9.67954 8.82288 9.44655 8.59795 9.20528C8.44295 9.03928 8.45795 8.77778 8.60995 8.61428C8.76495 8.44778 9.04194 8.41328 9.21144 8.56878C9.46244 8.79778 9.69994 9.04278 9.93145 9.29228C9.99244 9.35828 10.0094 9.46478 10.0314 9.51728V9.51778Z" fill="white"/>
</g>
<defs>
<clipPath id="clip0_2_3655">
<rect width="16" height="16" fill="white" transform="translate(0.0253906 0.000244141)"/>
</clipPath>
</defs>
</svg>
