<svg width="18" height="16" viewBox="0 0 18 16" fill="none" xmlns="http://www.w3.org/2000/svg">
<g clip-path="url(#clip0_2_3656)">
<path d="M10.7639 15.5032H5.89397L1.9645 12.6237L0.466797 7.97278L1.96128 3.32184L5.89075 0.442383H10.7639L14.6934 3.32184L16.1879 7.97278L14.6934 12.6237L14.6386 12.6785L10.7639 15.5032ZM6.00348 15.1682H10.6544L14.4196 12.4015L15.8593 7.97278L14.4196 3.54408L10.6544 0.777353H6.00348L2.2415 3.54408L0.801768 7.97278L2.2415 12.4015L6.00348 15.1682Z" fill="black"/>
<path d="M16.7455 14.7268L14.4747 12.6783L12.2588 11.8473L8.32927 12.3466L4.34502 11.8473L2.12904 12.6783L2.01953 12.3466L4.28704 11.4608H4.34502L8.32927 12.0148L12.3167 11.4608L12.3715 11.5156L14.697 12.4013L16.9645 14.5046L16.7455 14.7268Z" fill="black"/>
<path d="M10.655 15.6675L8.3295 12.4563L5.89453 15.6675L4.12305 11.7381L4.4548 11.5706L6.00404 15.004L8.3295 11.8476L10.6002 15.004L12.1495 11.5706L14.2527 7.36414L14.7519 12.5111H14.4202L14.0304 8.58162L12.4812 11.7381L10.655 15.6675Z" fill="black"/>
<path d="M0.689453 7.8053H16.0787V8.13701H0.689453V7.8053Z" fill="black"/>
<path d="M14.2519 8.58146L12.3161 4.76155L10.6541 8.35922L8.32867 4.20757L5.94844 8.35922L4.28647 4.76155L2.35073 8.58146L1.90625 3.48932L2.24122 3.43457L2.57297 7.41874L4.28647 4.04331L5.94844 7.64098L8.32867 3.54408L10.5994 7.64098L12.3161 4.04331L14.0296 7.36399L14.3066 3.43457H14.6416L14.2519 8.58146Z" fill="black"/>
<path d="M12.1486 4.48455L10.5994 0.996379L8.32867 4.20756L6.0032 0.996379L4.45396 4.48455L4.17696 4.32028L5.89369 0.332886L8.32867 3.59882L10.6541 0.332886L12.4804 4.32028L12.1486 4.48455ZM14.4193 12.5109L14.0296 8.58146L12.3161 12.0149L10.5994 8.35922L8.32867 12.5109L5.94844 8.35922L4.28647 12.0149L2.57297 8.58146L2.24122 12.5109H1.90625L2.35073 7.36398L4.28647 11.2386L5.94844 7.64097L8.32867 11.7926L10.6541 7.64097L12.3161 11.2934L14.2519 7.36398L14.7511 12.5109H14.4193Z" fill="black"/>
<path d="M12.3167 4.59745L8.27446 4.04345L4.28702 4.59745L2.01953 3.59897L2.12904 3.26721L4.345 4.20772L8.27446 3.7117L12.3167 4.20772L14.4746 3.26721L14.6421 3.59897L12.3167 4.59745Z" fill="black"/>
<path d="M5.94866 15.9992C6.3151 15.9992 6.61215 15.7022 6.61215 15.3358C6.61215 14.9694 6.3151 14.6724 5.94866 14.6724C5.58221 14.6724 5.28516 14.9694 5.28516 15.3358C5.28516 15.7022 5.58221 15.9992 5.94866 15.9992Z" fill="black"/>
<path d="M10.5991 15.9992C10.9655 15.9992 11.2626 15.7022 11.2626 15.3358C11.2626 14.9694 10.9655 14.6724 10.5991 14.6724C10.2326 14.6724 9.93555 14.9694 9.93555 15.3358C9.93555 15.7022 10.2326 15.9992 10.5991 15.9992Z" fill="black"/>
<path d="M5.94866 1.3281C6.3151 1.3281 6.61215 1.03104 6.61215 0.664598C6.61215 0.298157 6.3151 0.00109863 5.94866 0.00109863C5.58221 0.00109863 5.28516 0.298157 5.28516 0.664598C5.28516 1.03104 5.58221 1.3281 5.94866 1.3281Z" fill="black"/>
<path d="M10.5991 1.3281C10.9655 1.3281 11.2626 1.03104 11.2626 0.664598C11.2626 0.298157 10.9655 0.00109863 10.5991 0.00109863C10.2326 0.00109863 9.93555 0.298157 9.93555 0.664598C9.93555 1.03104 10.2326 1.3281 10.5991 1.3281Z" fill="black"/>
<path d="M14.4741 4.09799C14.8405 4.09799 15.1376 3.80094 15.1376 3.4345C15.1376 3.06805 14.8405 2.771 14.4741 2.771C14.1076 2.771 13.8105 3.06805 13.8105 3.4345C13.8105 3.80094 14.1076 4.09799 14.4741 4.09799Z" fill="black"/>
<path d="M2.07366 4.09799C2.4401 4.09799 2.73716 3.80094 2.73716 3.4345C2.73716 3.06805 2.4401 2.771 2.07366 2.771C1.70722 2.771 1.41016 3.06805 1.41016 3.4345C1.41016 3.80094 1.70722 4.09799 2.07366 4.09799Z" fill="black"/>
<path d="M2.07366 13.2321C2.4401 13.2321 2.73716 12.935 2.73716 12.5686C2.73716 12.2022 2.4401 11.9052 2.07366 11.9052C1.70722 11.9052 1.41016 12.2022 1.41016 12.5686C1.41016 12.935 1.70722 13.2321 2.07366 13.2321Z" fill="black"/>
<path d="M0.688898 8.63628C1.05534 8.63628 1.3524 8.33923 1.3524 7.9728C1.3524 7.60638 1.05534 7.30933 0.688898 7.30933C0.322453 7.30933 0.0253906 7.60638 0.0253906 7.9728C0.0253906 8.33923 0.322453 8.63628 0.688898 8.63628Z" fill="black"/>
<path d="M16.0228 8.63628C16.3893 8.63628 16.6863 8.33923 16.6863 7.9728C16.6863 7.60638 16.3893 7.30933 16.0228 7.30933C15.6564 7.30933 15.3594 7.60638 15.3594 7.9728C15.3594 8.33923 15.6564 8.63628 16.0228 8.63628Z" fill="black"/>
<path d="M14.1421 8.63628C14.5086 8.63628 14.8057 8.33923 14.8057 7.9728C14.8057 7.60638 14.5086 7.30933 14.1421 7.30933C13.7756 7.30933 13.4785 7.60638 13.4785 7.9728C13.4785 8.33923 13.7756 8.63628 14.1421 8.63628Z" fill="black"/>
<path d="M2.46037 8.63628C2.82682 8.63628 3.12387 8.33923 3.12387 7.9728C3.12387 7.60638 2.82682 7.30933 2.46037 7.30933C2.09393 7.30933 1.79688 7.60638 1.79688 7.9728C1.79688 8.33923 2.09393 8.63628 2.46037 8.63628Z" fill="black"/>
<path d="M5.94866 8.63628C6.3151 8.63628 6.61215 8.33923 6.61215 7.9728C6.61215 7.60638 6.3151 7.30933 5.94866 7.30933C5.58221 7.30933 5.28516 7.60638 5.28516 7.9728C5.28516 8.33923 5.58221 8.63628 5.94866 8.63628Z" fill="black"/>
<path d="M10.5991 8.63628C10.9655 8.63628 11.2626 8.33923 11.2626 7.9728C11.2626 7.60638 10.9655 7.30933 10.5991 7.30933C10.2326 7.30933 9.93555 7.60638 9.93555 7.9728C9.93555 8.33923 10.2326 8.63628 10.5991 8.63628Z" fill="black"/>
<path d="M8.9845 3.98284C9.0432 3.62113 8.79757 3.28031 8.43587 3.2216C8.07417 3.1629 7.73336 3.40853 7.67466 3.77024C7.61595 4.13195 7.86158 4.47276 8.22328 4.53147C8.58498 4.59018 8.92579 4.34455 8.9845 3.98284Z" fill="black"/>
<path d="M4.28655 5.09334C4.65299 5.09334 4.95005 4.79629 4.95005 4.42985C4.95005 4.06341 4.65299 3.76636 4.28655 3.76636C3.92011 3.76636 3.62305 4.06341 3.62305 4.42985C3.62305 4.79629 3.92011 5.09334 4.28655 5.09334Z" fill="black"/>
<path d="M12.3159 5.09334C12.6823 5.09334 12.9794 4.79629 12.9794 4.42985C12.9794 4.06341 12.6823 3.76636 12.3159 3.76636C11.9494 3.76636 11.6523 4.06341 11.6523 4.42985C11.6523 4.79629 11.9494 5.09334 12.3159 5.09334Z" fill="black"/>
<path d="M8.32951 12.8426C8.69595 12.8426 8.99301 12.5455 8.99301 12.1791C8.99301 11.8127 8.69595 11.5156 8.32951 11.5156C7.96307 11.5156 7.66602 11.8127 7.66602 12.1791C7.66602 12.5455 7.96307 12.8426 8.32951 12.8426Z" fill="black"/>
<path d="M4.28655 12.2887C4.65299 12.2887 4.95005 11.9917 4.95005 11.6252C4.95005 11.2587 4.65299 10.9617 4.28655 10.9617C3.92011 10.9617 3.62305 11.2587 3.62305 11.6252C3.62305 11.9917 3.92011 12.2887 4.28655 12.2887Z" fill="black"/>
<path d="M12.3159 12.2887C12.6823 12.2887 12.9794 11.9917 12.9794 11.6252C12.9794 11.2587 12.6823 10.9617 12.3159 10.9617C11.9494 10.9617 11.6523 11.2587 11.6523 11.6252C11.6523 11.9917 11.9494 12.2887 12.3159 12.2887Z" fill="black"/>
<path d="M16.8545 15.503C17.3437 15.503 17.7402 15.1065 17.7402 14.6173C17.7402 14.1281 17.3437 13.7316 16.8545 13.7316C16.3653 13.7316 15.9688 14.1281 15.9688 14.6173C15.9688 15.1065 16.3653 15.503 16.8545 15.503Z" fill="black"/>
</g>
<defs>
<clipPath id="clip0_2_3656">
<rect width="17.7148" height="16" fill="white" transform="translate(0.0253906 0.000244141)"/>
</clipPath>
</defs>
</svg>
