<svg width="17" height="16" viewBox="0 0 17 16" fill="none" xmlns="http://www.w3.org/2000/svg">
<g clip-path="url(#clip0_2_3658)">
<path d="M8.59766 16.0002C13.0159 16.0002 16.5977 12.4185 16.5977 8.00024C16.5977 3.58197 13.0159 0.000244141 8.59766 0.000244141C4.17938 0.000244141 0.597656 3.58197 0.597656 8.00024C0.597656 12.4185 4.17938 16.0002 8.59766 16.0002Z" fill="#454545"/>
<path fill-rule="evenodd" clip-rule="evenodd" d="M6.34766 8.00024C6.34766 6.75974 7.35716 5.75024 8.59766 5.75024C9.83816 5.75024 10.8477 6.75974 10.8477 8.00024C10.8477 8.32674 10.7762 8.63624 10.6507 8.91674L9.16566 7.43174L8.02966 8.56824L9.51466 10.0532C9.22637 10.1831 8.91382 10.2502 8.59766 10.2502C8.00112 10.2496 7.42921 10.0123 7.0074 9.5905C6.58558 9.16869 6.34832 8.59678 6.34766 8.00024ZM12.2542 8.00024C12.2548 7.29402 12.0498 6.60289 11.6642 6.01124L13.0977 4.57724L12.0207 3.50024L10.5867 4.93424C10.0137 4.56174 9.33166 4.34374 8.59766 4.34374C7.86366 4.34374 7.18166 4.56174 6.60866 4.93374L5.17466 3.50024L4.09766 4.57724L5.53166 6.01124C5.15916 6.58424 4.94116 7.26624 4.94116 8.00024C4.94116 8.73424 5.15966 9.41624 5.53166 9.98924L4.09766 11.4232L5.17466 12.5002L6.60866 11.0662C7.18166 11.4387 7.86366 11.6567 8.59766 11.6567C9.33166 11.6567 10.0137 11.4387 10.5867 11.0662L12.0207 12.5002L13.0977 11.4232L11.6637 9.98924C12.0495 9.39767 12.2547 8.70652 12.2542 8.00024Z" fill="white"/>
</g>
<defs>
<clipPath id="clip0_2_3658">
<rect width="16" height="16" fill="white" transform="translate(0.597656 0.000244141)"/>
</clipPath>
</defs>
</svg>
