<svg width="15" height="16" viewBox="0 0 15 16" fill="none" xmlns="http://www.w3.org/2000/svg">
<g clip-path="url(#clip0_2_3657)">
<path d="M11.1348 6.00116V9.99933L14.5974 8.00391V3.99841L11.1348 6.00116Z" fill="#9290B0"/>
<path d="M14.5974 12.002L11.1348 9.99927V14.0048L14.5974 16.0002V12.002Z" fill="#A2EEE3"/>
<path d="M7.67283 3.99841V0.000244141L0.740234 3.99841L4.20287 6.00116L7.67283 3.99841Z" fill="#46DDC8"/>
<path d="M7.67283 12.002L4.20287 9.99927L0.740234 12.002L4.20287 14.0048L7.67283 16.0002V12.002Z" fill="#262261"/>
<path d="M0.740234 3.99841V8.00391V12.0021L4.20287 9.99933V6.00116L0.740234 3.99841Z" fill="#9290B0"/>
<path d="M11.1345 9.99927L7.67188 12.002V16.0002L11.1345 14.0048V9.99927Z" fill="#46DDC8"/>
<path d="M11.1345 6.00116L14.5971 3.99841L11.1345 2.003L7.67188 0.000244141V3.99841L11.1345 6.00116Z" fill="#262261"/>
</g>
<defs>
<clipPath id="clip0_2_3657">
<rect width="13.8579" height="16" fill="white" transform="translate(0.740234 0.000244141)"/>
</clipPath>
</defs>
</svg>
