<svg width="17" height="16" viewBox="0 0 17 16" fill="none" xmlns="http://www.w3.org/2000/svg">
<g clip-path="url(#clip0_2_3660)">
<path d="M8.59766 0.000244141C13.0137 0.000244141 16.5977 3.58424 16.5977 8.00024C16.5977 12.4162 13.0137 16.0002 8.59766 16.0002C4.18166 16.0002 0.597656 12.4162 0.597656 8.00024C0.597656 3.58424 4.18166 0.000244141 8.59766 0.000244141Z" fill="#071630"/>
<path opacity="0.9" d="M13.7502 11.5519C13.7502 11.7759 13.5582 11.9359 13.2702 11.9359C13.0142 11.9359 12.8222 11.7759 12.8222 11.5519V5.69593C12.8222 5.66393 12.8222 5.66393 12.7902 5.66393C12.7582 5.66393 12.7582 5.66393 12.7262 5.66393L9.04622 10.3679C8.88622 10.5279 8.59822 10.5919 8.40622 10.4639C8.34222 10.4319 8.31022 10.3999 8.27822 10.3679L4.59822 5.66393C4.56622 5.66393 4.56622 5.66393 4.53422 5.66393L4.50222 5.69593V11.5839C4.50222 11.8079 4.27822 11.9679 4.02222 11.9679C3.76622 11.9679 3.57422 11.8079 3.57422 11.5839V4.54393C3.57422 4.41593 3.67022 4.28793 3.76622 4.22393C3.99022 4.09593 4.24622 4.15993 4.40622 4.31993L8.47022 9.47193C8.56622 9.56793 8.69422 9.56793 8.79022 9.50393C8.79022 9.50393 8.82222 9.50393 8.82222 9.47193L12.8862 4.31993C12.9822 4.19193 13.1422 4.12793 13.3022 4.12793C13.5582 4.12793 13.7822 4.28793 13.7822 4.51193L13.7502 11.5519Z" fill="url(#paint0_linear_2_3660)"/>
<path d="M13.7495 11.5523C13.7495 11.7443 13.5575 11.9363 13.2695 11.9363C13.1095 11.9363 12.9495 11.8723 12.8535 11.7443L8.82147 6.59228C8.72547 6.49628 8.59747 6.49628 8.50147 6.56028C8.50147 6.56028 8.46947 6.59228 8.43747 6.65628L4.43747 11.7763C4.27747 11.9683 4.02147 12.0003 3.79747 11.8723C3.66947 11.8083 3.60547 11.6803 3.60547 11.5523V4.54428C3.60547 4.32028 3.79747 4.16028 4.05347 4.16028C4.30947 4.16028 4.53347 4.32028 4.53347 4.54428V10.4323C4.53347 10.4643 4.53347 10.4643 4.56547 10.4643C4.59747 10.4643 4.59747 10.4643 4.62947 10.4643L8.21347 5.88828C8.24547 5.82428 8.37347 5.69628 8.43747 5.66428C8.66147 5.53628 8.91747 5.56828 9.07747 5.76028L12.7255 10.4643C12.7255 10.4643 12.7575 10.4643 12.7895 10.4643C12.8215 10.4643 12.8215 10.4323 12.8215 10.4323V4.54428C12.8215 4.32028 13.0135 4.16028 13.2695 4.16028C13.5255 4.16028 13.7495 4.32028 13.7495 4.54428V11.5523Z" fill="url(#paint1_linear_2_3660)"/>
</g>
<defs>
<linearGradient id="paint0_linear_2_3660" x1="8.67822" y1="11.9424" x2="8.67822" y2="4.16297" gradientUnits="userSpaceOnUse">
<stop stop-color="#3F5CAA"/>
<stop offset="0.2" stop-color="#3F5FAC"/>
<stop offset="0.33" stop-color="#4168B2"/>
<stop offset="0.46" stop-color="#4378BD"/>
<stop offset="0.57" stop-color="#468ECC"/>
<stop offset="0.64" stop-color="#48A0D9"/>
<stop offset="0.8" stop-color="#3ABBEC"/>
<stop offset="0.9" stop-color="#35C6F4"/>
</linearGradient>
<linearGradient id="paint1_linear_2_3660" x1="8.67747" y1="11.9491" x2="8.67747" y2="4.16028" gradientUnits="userSpaceOnUse">
<stop stop-color="#4068B1"/>
<stop offset="0.13" stop-color="#3D7FC1"/>
<stop offset="0.39" stop-color="#39A5DD"/>
<stop offset="0.59" stop-color="#36BDEE"/>
<stop offset="0.72" stop-color="#35C6F4"/>
</linearGradient>
<clipPath id="clip0_2_3660">
<rect width="16" height="16" fill="white" transform="translate(0.597656 0.000244141)"/>
</clipPath>
</defs>
</svg>
