<svg width="15" height="16" viewBox="0 0 15 16" fill="none" xmlns="http://www.w3.org/2000/svg">
<g clip-path="url(#clip0_2_3661)">
<path d="M13.6415 3.09678L9.49009 0.503624C8.89826 0.164095 8.2258 -0.00952088 7.54358 0.00106724C6.86135 0.0116554 6.19461 0.206056 5.6136 0.563787L1.27693 3.27311C0.492394 3.75614 0.475753 4.73808 1.25677 5.22649L4.90318 7.4282C5.21909 7.62578 5.47689 8.21096 5.6584 8.53622L7.22761 11.2071C7.2657 11.2752 7.32122 11.332 7.38849 11.3715C7.45575 11.4111 7.53234 11.4321 7.61038 11.4323C7.68843 11.4325 7.76513 11.4119 7.8326 11.3727C7.90008 11.3335 7.95591 11.277 7.99436 11.2091L9.8389 8.08295C9.99296 7.81094 10.1909 7.55659 10.4572 7.39172L13.839 5.34733C14.7326 4.79248 14.5543 3.62026 13.6419 3.09678H13.6415ZM12.4415 4.7537L9.60728 6.5134C9.41228 6.63468 9.25085 6.803 9.13782 7.0029L7.89195 9.27949C7.86383 9.32953 7.82287 9.37116 7.77329 9.40008C7.72371 9.429 7.66731 9.44417 7.60991 9.44402C7.55251 9.44387 7.4962 9.4284 7.44677 9.39922C7.39734 9.37004 7.3566 9.3282 7.32873 9.27802L6.18949 7.16252C6.05605 6.92374 5.86454 6.72247 5.63267 6.57734L2.72383 4.75741C2.1505 4.39899 2.15345 3.56247 2.72947 3.20789L6.16274 1.09393C6.5893 0.831314 7.07879 0.688611 7.57964 0.68085C8.0805 0.673089 8.57418 0.800558 9.00867 1.04983L12.4076 3.14715C13.0774 3.53143 13.0976 4.34638 12.4415 4.7537Z" fill="#000300"/>
<path d="M0.597656 6.42171V11.8784C0.597594 11.9267 0.610226 11.9742 0.634285 12.0161C0.658345 12.058 0.69299 12.0928 0.734749 12.1171L7.24833 15.9167C7.43361 16.0243 7.66281 16.0256 7.84867 15.9436L14.4358 12.1424C14.5214 12.068 14.574 11.9767 14.574 11.8781V6.45928C14.574 6.32904 14.5222 6.20415 14.4301 6.11209C14.3379 6.02002 14.213 5.96833 14.0827 5.96838C13.9525 5.96843 13.8276 6.02022 13.7355 6.11236C13.6435 6.20449 13.5918 6.32942 13.5918 6.45967V11.325C13.5919 11.3732 13.5793 11.4206 13.5552 11.4625C13.5312 11.5043 13.4967 11.5391 13.455 11.5634L7.89961 14.8329C7.80813 14.8862 7.70413 14.9143 7.59823 14.9143C7.49233 14.9143 7.38832 14.8862 7.29684 14.8329L1.64141 11.5134C1.59966 11.4891 1.56502 11.4543 1.54094 11.4124C1.51687 11.3705 1.50419 11.3231 1.50418 11.2748V6.42171C1.50418 6.3015 1.45643 6.18621 1.37143 6.10121C1.28642 6.0162 1.17113 5.96845 1.05092 5.96845C0.930708 5.96845 0.815418 6.0162 0.730415 6.10121C0.645411 6.18621 0.597656 6.3015 0.597656 6.42171Z" fill="#000300"/>
</g>
<defs>
<clipPath id="clip0_2_3661">
<rect width="13.9764" height="16" fill="white" transform="translate(0.597656 0.000244141)"/>
</clipPath>
</defs>
</svg>
