<svg width="17" height="16" viewBox="0 0 17 16" fill="none" xmlns="http://www.w3.org/2000/svg">
<g clip-path="url(#clip0_2_3665)">
<path d="M6.9095 14.0481L5.89173 11.9333L4.06836 14.8056C4.22708 14.9042 4.38915 14.9972 4.55428 15.0846C4.76279 15.1949 4.97618 15.2957 5.19381 15.3867C5.88947 15.6763 6.62271 15.8657 7.37159 15.9491C7.52759 15.9664 7.68487 15.9792 7.84311 15.9879L6.9095 14.0481Z" fill="#7CC245"/>
<path d="M15.9778 5.86222C15.9269 5.68096 15.8695 5.50159 15.8056 5.32446L10.1806 10.2925L9.4043 10.9777L9.46814 11.6112L9.89454 15.8329C10.1726 15.7755 10.4475 15.7034 10.7179 15.6168C13.9381 14.5825 16.269 11.564 16.269 8.0003C16.269 7.2595 16.1661 6.54318 15.9778 5.86222Z" fill="#FCCB32"/>
<path d="M4.91797 12.2658L6.15908 14.8445L10.4693 11.038L9.68834 3.30371L4.91797 12.2658Z" fill="#EE3F26"/>
<path d="M5.46337 11.9834L9.57265 4.26373L9.60209 4.55733L10.0419 3.73093L10.0416 3.72693L2.30273 6.15348L5.36545 12.5168L5.55169 12.1667L5.46337 11.9834Z" fill="#CF3627"/>
<path d="M6.5332 14.2045L7.37272 15.9485C7.6676 15.9818 7.9668 16.0002 8.27048 16.0002C9.12488 16.0002 9.94728 15.8649 10.7196 15.6169L10.2458 10.9261L6.5332 14.2045Z" fill="#F05048"/>
<path d="M10.2441 10.9259L10.7179 15.6167C13.9379 14.5825 16.2688 11.5639 16.2688 8.00026C16.2688 7.25946 16.1659 6.54314 15.9776 5.86218L10.2441 10.9259Z" fill="#FCCB32"/>
<path d="M9.147 0.0490439C8.85584 0.0168291 8.56314 0.000538289 8.2702 0.000244141C5.41676 0.000244141 2.91388 1.49544 1.49772 3.74375C1.13816 4.3162 0.852784 4.932 0.648438 5.57638L2.7726 6.39221L9.5726 4.26022L9.57516 4.25942L10.3051 0.263603C9.92486 0.163656 9.53778 0.091941 9.147 0.0490439Z" fill="#2591D4"/>
<path d="M14.3213 2.77131C13.5427 1.87017 12.5732 1.15374 11.4831 0.674033C11.1015 0.506677 10.7074 0.36951 10.3044 0.263794L9.57451 4.25962L9.57227 4.26378L10.2451 10.9258L15.9784 5.86218C15.6622 4.72172 15.0961 3.66592 14.3213 2.77131Z" fill="#F47F22"/>
<path d="M5.46316 11.9834L2.77195 6.39225L0.647934 5.57642C0.396803 6.35983 0.269141 7.17756 0.269532 8.00025C0.269532 10.8428 1.75322 13.337 3.98715 14.7562C4.1718 14.8734 4.36107 14.9831 4.55452 15.085L5.92044 12.9337L5.46316 11.9834Z" fill="#4CAA4C"/>
<path d="M6.53246 14.2046L5.92061 12.9333L4.55469 15.0846C4.76319 15.1949 4.97658 15.2957 5.19421 15.3867C5.88987 15.6763 6.62311 15.8656 7.37198 15.9491L6.53246 14.2046Z" fill="#7CC245"/>
<path d="M14.321 2.77123C13.5424 1.87009 12.5729 1.15366 11.4828 0.67395L9.57403 4.25954L14.321 2.77123ZM9.57227 4.2637L10.2447 10.9258L15.9782 5.8621C15.6619 4.72172 15.0959 3.66595 14.3214 2.77123L9.57451 4.25954L9.57227 4.2637Z" fill="#F47F22"/>
<path d="M5.46289 11.9834L6.53201 14.2046L10.2447 10.9259L9.57217 4.26379L5.46289 11.9834Z" fill="#EE3F26"/>
<path d="M9.5711 4.26022L9.14582 0.0490439C8.8545 0.0168424 8.56164 0.000551661 8.26854 0.000244141C5.41512 0.000244141 2.91225 1.49544 1.49609 3.74375L2.77097 6.39221L9.5711 4.26022Z" fill="#1E85CA"/>
<path d="M9.57164 4.26025L2.77148 6.39226L5.46268 11.9835L9.57197 4.26377L9.57164 4.26025Z" fill="#CF3627"/>
<path d="M9.57432 4.2596L11.4831 0.673868C10.7407 0.347596 9.95267 0.136891 9.14648 0.0490723L9.57176 4.26024L9.57432 4.2596Z" fill="#35A9E1"/>
<path d="M6.5332 14.2045L7.37272 15.9485C7.6676 15.9818 7.9668 16.0002 8.27048 16.0002C9.12488 16.0002 9.94728 15.8649 10.7196 15.6169L10.2458 10.9261L6.5332 14.2045Z" fill="#F05048"/>
<path d="M10.2441 10.9259L10.7179 15.6167C13.9379 14.5825 16.2688 11.5639 16.2688 8.00026C16.2688 7.25946 16.1659 6.54314 15.9776 5.86218L10.2441 10.9259Z" fill="#FCCB32"/>
<path d="M5.19336 15.3867C5.889 15.6762 6.62222 15.8656 7.37107 15.9491L6.53157 14.2051L5.19336 15.3867Z" fill="#7CC245"/>
<path d="M1.49634 3.74377C0.84411 4.77741 0.439003 5.94752 0.3125 7.16316L2.77122 6.39228L1.49634 3.74377Z" fill="#0161AD"/>
<path d="M2.77193 6.39221L0.313211 7.16309C0.284263 7.4412 0.269684 7.72061 0.269531 8.00022C0.269531 10.8428 1.75321 13.337 3.98713 14.7562L5.46313 11.9834L2.77193 6.39221Z" fill="#4CAA4C"/>
<path d="M5.46233 11.9834L3.98633 14.7561C4.36978 15.0004 4.7735 15.2113 5.19305 15.3865L6.53129 14.2045L5.46233 11.9834Z" fill="#51B34B"/>
<path d="M9.74003 1.75928L9.54883 2.32024C11.2154 3.22296 12.8308 4.8284 13.7079 6.22728L14.2821 6.05432C13.3436 4.52504 11.5708 2.75032 9.74003 1.75928Z" fill="#444344"/>
<path d="M12.5197 0.459595C11.4469 0.459595 10.5134 1.04727 10.0181 1.91735C9.95294 2.03107 9.89563 2.1491 9.84656 2.27063C9.83424 2.30199 9.82432 2.33431 9.81344 2.36647C9.80352 2.39559 9.79216 2.42407 9.7832 2.45335C11.2838 3.32695 12.7147 4.73814 13.572 6.01894C13.5848 6.01398 13.5979 6.0103 13.6106 6.00518C13.7053 5.9657 13.7978 5.92094 13.8875 5.8711C13.9558 5.83366 14.0232 5.79478 14.0882 5.75254C14.8773 5.23894 15.4 4.35158 15.4 3.33991C15.4 1.74919 14.1107 0.459595 12.5197 0.459595Z" fill="#EE3F26"/>
<path d="M9.81344 2.36646C9.80352 2.39557 9.79216 2.42405 9.7832 2.45333C11.2839 3.32693 12.7148 4.73812 13.5721 6.01891C13.5849 6.01395 13.598 6.01026 13.6106 6.00515C13.7054 5.96567 13.7978 5.9209 13.8876 5.87107C12.9769 4.597 11.417 3.18789 9.81344 2.36646Z" fill="#C03225"/>
</g>
<defs>
<clipPath id="clip0_2_3665">
<rect width="16" height="16" fill="white" transform="translate(0.269531 0.000244141)"/>
</clipPath>
</defs>
</svg>
