<svg width="17" height="16" viewBox="0 0 17 16" fill="none" xmlns="http://www.w3.org/2000/svg">
<g clip-path="url(#clip0_2_3666)">
<path d="M8.26953 16.0002C12.6878 16.0002 16.2695 12.4185 16.2695 8.00024C16.2695 3.58197 12.6878 0.000244141 8.26953 0.000244141C3.85125 0.000244141 0.269531 3.58197 0.269531 8.00024C0.269531 12.4185 3.85125 16.0002 8.26953 16.0002Z" fill="url(#paint0_linear_2_3666)"/>
<path d="M4.76992 4.65024L5.61992 4.20024L5.71992 4.40024L8.81992 2.60024L8.61992 2.45024L8.36992 2.30024L8.26992 2.25024L3.16992 5.20024V5.30024L4.61992 4.50024L4.76992 4.65024ZM4.76992 6.55024L7.21992 5.10024L7.31992 5.30024L10.4699 3.50024L10.2199 3.35024L9.96992 3.25024L9.86992 3.20024L3.16992 7.05024V7.15024L4.61992 6.35024L4.76992 6.55024ZM4.76992 7.45024L8.01992 5.60024L8.11992 5.75024L11.2699 3.95024L11.0199 3.85024L10.7699 3.70024L10.6699 3.65024L3.16992 7.95024V8.10024L4.61992 7.25024L4.76992 7.45024ZM4.76992 8.35024L8.81992 6.05024L8.91992 6.20024L12.0699 4.45024L11.8199 4.30024L11.5699 4.15024L11.4699 4.10024L3.16992 8.90024V9.00024L4.61992 8.20024L4.76992 8.35024ZM4.76992 9.30024L9.61992 6.50024L9.71992 6.70024L12.8699 4.90024L12.6199 4.75024L12.4199 4.65024L12.2699 4.55024L3.16992 9.80024V9.95024L4.61992 9.10024L4.76992 9.30024ZM13.1699 5.10024L13.0699 5.00024L3.16992 10.7502V10.8502L4.61992 10.0502L4.76992 10.2502L9.61992 7.40024L9.71992 7.60024L13.3699 5.55024V5.20024L13.1699 5.10024ZM3.81992 11.4502L4.61992 10.9502L4.71992 11.1502L9.61992 8.35024L9.71992 8.55024L13.3699 6.45024V5.80024L3.66992 11.3502L3.81992 11.4502ZM9.61992 9.30024L9.71992 9.50024L13.3699 7.35024V6.70024L4.46992 11.8502L4.61992 11.9002L5.41992 11.4002L5.56992 11.6002L9.61992 9.30024ZM5.41992 12.3502L6.26992 11.9002L6.36992 12.1002L9.61992 10.2002L9.71992 10.4002L13.3699 8.30024V7.65024L5.26992 12.3002L5.41992 12.3502ZM6.21992 12.8002L7.06992 12.3502L7.16992 12.5502L9.61992 11.1502L9.71992 11.3502L13.3699 9.25024V8.55024L6.06992 12.7502L6.21992 12.8002ZM6.86992 13.2002L7.01992 13.3002L7.86992 12.8002L7.96992 13.0002L9.61992 12.0502L9.71992 12.2502L13.3699 10.1502V9.50024L6.86992 13.2002ZM7.81992 13.7502L8.61992 13.2502L8.76992 13.4502L9.61992 13.0002L9.71992 13.2002L13.3699 11.1002V10.4002L7.71992 13.7002L7.81992 13.7502ZM9.66992 3.05024L9.41992 2.90024L9.16992 2.80024L9.06992 2.70024L3.16992 6.10024V6.25024L4.61992 5.40024L4.76992 5.60024L6.41992 4.65024L6.51992 4.85024L9.66992 3.05024Z" fill="white"/>
</g>
<defs>
<linearGradient id="paint0_linear_2_3666" x1="0.269531" y1="8.00024" x2="16.2695" y2="8.00024" gradientUnits="userSpaceOnUse">
<stop stop-color="#001C3A"/>
<stop offset="0.6" stop-color="#001E3D"/>
<stop offset="0.7" stop-color="#001F3F"/>
<stop offset="1" stop-color="#002042"/>
</linearGradient>
<clipPath id="clip0_2_3666">
<rect width="16" height="16" fill="white" transform="translate(0.269531 0.000244141)"/>
</clipPath>
</defs>
</svg>
