<svg width="10" height="16" viewBox="0 0 10 16" fill="none" xmlns="http://www.w3.org/2000/svg">
<g clip-path="url(#clip0_2_3670)">
<path d="M2.2553 2.47178C2.93779 2.47178 3.49107 1.91851 3.49107 1.23601C3.49107 0.553516 2.93779 0.000244141 2.2553 0.000244141C1.5728 0.000244141 1.01953 0.553516 1.01953 1.23601C1.01953 1.91851 1.5728 2.47178 2.2553 2.47178Z" fill="#8352A1"/>
<path d="M7.79433 15.9372C8.47681 15.9372 9.03007 15.384 9.03007 14.7015C9.03007 14.019 8.47681 13.4657 7.79433 13.4657C7.11185 13.4657 6.55859 14.019 6.55859 14.7015C6.55859 15.384 7.11185 15.9372 7.79433 15.9372Z" fill="#3E99D3"/>
<path d="M7.28327 0.269647L1.4846 4.74978C1.00339 5.12157 0.914679 5.81308 1.28647 6.2943L1.34279 6.3672C1.71458 6.84842 2.40609 6.93712 2.8873 6.56533L8.68597 2.0852C9.16719 1.7134 9.2559 1.02189 8.88411 0.540672L8.82779 0.467779C8.45599 -0.0134424 7.76449 -0.102149 7.28327 0.269647Z" fill="#E53C54"/>
<path d="M7.28126 4.78703L1.48264 9.26712C1.00143 9.63891 0.912724 10.3304 1.28451 10.8116L1.34083 10.8845C1.71262 11.3657 2.40412 11.4544 2.88533 11.0826L8.68395 6.60256C9.16516 6.23077 9.25386 5.53927 8.88207 5.05806L8.82576 4.98516C8.45397 4.50395 7.76247 4.41524 7.28126 4.78703Z" fill="#F49352"/>
<path d="M7.19736 9.47453L1.39867 13.9545C0.91745 14.3263 0.828743 15.0178 1.20054 15.499L1.25686 15.5719C1.62865 16.0531 2.32016 16.1418 2.80138 15.77L8.60007 11.29C9.08129 10.9182 9.17 10.2268 8.7982 9.74555L8.74188 9.67266C8.37009 9.19145 7.67858 9.10275 7.19736 9.47453Z" fill="#3EBB90"/>
</g>
<defs>
<clipPath id="clip0_2_3670">
<rect width="8.14249" height="16" fill="white" transform="translate(0.970703 0.000244141)"/>
</clipPath>
</defs>
</svg>
