<svg width="17" height="16" viewBox="0 0 17 16" fill="none" xmlns="http://www.w3.org/2000/svg">
<g clip-path="url(#clip0_2_3671)">
<path d="M8.11328 16.0002C12.5316 16.0002 16.1133 12.4185 16.1133 8.00024C16.1133 3.58197 12.5316 0.000244141 8.11328 0.000244141C3.695 0.000244141 0.113281 3.58197 0.113281 8.00024C0.113281 12.4185 3.695 16.0002 8.11328 16.0002Z" fill="#FFD800"/>
<path fill-rule="evenodd" clip-rule="evenodd" d="M11.9548 6.44324C11.9833 6.41474 12.0398 6.41474 12.0953 6.41474C12.9388 6.41474 13.6133 7.12874 13.6133 7.98624C13.6133 8.78624 13.0233 9.41474 12.2643 9.55724H12.0953C11.8143 9.55724 11.5333 9.47174 11.2803 9.32874C11.1982 9.27092 11.0997 9.24096 10.9993 9.24324C10.8868 9.24324 10.7743 9.27174 10.6903 9.32874C10.4933 9.44324 10.4093 9.64324 10.4093 9.87174V10.1287C10.3796 10.4817 10.2293 10.8137 9.98344 11.0687C9.73762 11.3237 9.41141 11.4862 9.05978 11.5287H8.89128C8.61028 11.5287 8.32928 11.4432 8.07628 11.3002C7.96378 11.2432 7.87978 11.2147 7.76728 11.2147C7.65478 11.2147 7.54228 11.2432 7.45778 11.3002C7.26128 11.4147 7.17678 11.6147 7.17678 11.8432V12.1002C7.12078 12.8432 6.53028 13.4147 5.79978 13.5002H5.65928C4.81578 13.5002 4.14128 12.7857 4.14128 11.9287C4.16928 11.1287 4.73128 10.4717 5.49028 10.3857H5.65928C5.94028 10.3857 6.22128 10.4717 6.47428 10.6147C6.55639 10.6726 6.65488 10.7025 6.75528 10.7002C6.86778 10.7002 6.98028 10.6717 7.06428 10.6147C7.26128 10.5002 7.34528 10.3002 7.34528 10.0717C7.28928 9.24324 7.87978 8.50024 8.69478 8.41474H8.86328C9.14428 8.41474 9.42528 8.50024 9.67828 8.64324C9.79078 8.70024 9.87528 8.72874 9.98778 8.72874C10.0998 8.72874 10.2128 8.70024 10.2968 8.64324C10.4933 8.52874 10.5778 8.32874 10.5778 8.10024C10.5218 7.27174 11.1398 6.52874 11.9548 6.44324ZM8.72328 4.47174C8.77928 4.44324 8.80778 4.44324 8.89178 4.44324C9.73528 4.44324 10.4098 5.15724 10.4098 6.01474C10.3818 6.81474 9.81978 7.47174 9.06028 7.55724H8.89178C8.61078 7.55724 8.32978 7.47174 8.07678 7.32874C7.99467 7.27092 7.89618 7.24096 7.79578 7.24324C7.68328 7.24324 7.57078 7.27174 7.48678 7.32874C7.28978 7.44324 7.20528 7.64324 7.20528 7.87174V8.12874C7.14928 8.87124 6.55928 9.44274 5.82828 9.52874H5.68778C4.84478 9.52874 4.16978 8.81474 4.16978 7.95724C4.16978 7.18624 4.73228 6.55724 5.49078 6.44324H5.65978C5.94078 6.44324 6.22178 6.52874 6.47478 6.67174C6.55689 6.72956 6.65538 6.75953 6.75578 6.75724C6.86828 6.75724 6.98078 6.72874 7.06478 6.67174C7.26178 6.55724 7.34578 6.35724 7.34578 6.12874C7.28978 5.30024 7.90828 4.55724 8.72328 4.47174ZM5.63128 2.50024C6.46928 2.50024 7.14878 3.19124 7.14878 4.04324C7.14878 4.89524 6.46878 5.58574 5.63128 5.58574C4.79278 5.58574 4.11328 4.89524 4.11328 4.04324C4.11328 3.19124 4.79328 2.50024 5.63128 2.50024Z" fill="white"/>
</g>
<defs>
<clipPath id="clip0_2_3671">
<rect width="16" height="16" fill="white" transform="translate(0.113281 0.000244141)"/>
</clipPath>
</defs>
</svg>
