<svg width="15" height="16" viewBox="0 0 15 16" fill="none" xmlns="http://www.w3.org/2000/svg">
<g clip-path="url(#clip0_2_3672)">
<path d="M7.61169 9.71487C7.7124 10.4372 7.62674 11.2324 8.25646 11.8807C8.62457 12.2592 8.47987 12.8426 8.09324 13.1737C7.90357 13.3417 7.65973 13.4358 7.40635 13.4388C7.15296 13.4418 6.90698 13.3534 6.71341 13.1899C6.299 12.8426 6.13462 12.2453 6.51431 11.8529C7.13708 11.2024 7.08036 10.4187 7.15445 9.6431C7.17297 9.45325 7.27021 9.2009 6.9565 9.12335C6.67058 9.05273 6.45412 8.68925 6.08138 8.99949C5.47249 9.50534 4.70733 9.80979 4.45035 10.7023C4.29292 11.2452 3.65278 11.4177 3.14461 11.2139C2.91594 11.1307 2.7236 10.9701 2.60097 10.7599C2.47833 10.5498 2.43314 10.3033 2.47322 10.0633C2.57508 9.50766 3.08094 9.04116 3.63889 9.18354C4.47119 9.39538 5.09165 8.97981 5.77115 8.68231C5.91584 8.61864 6.20292 8.56655 6.10916 8.36976C5.95173 8.0468 6.23765 7.57567 5.81166 7.3812C5.14374 7.07675 4.53138 6.6172 3.69098 6.8545C3.1122 7.01656 2.60749 6.59404 2.49174 6.03378C2.43584 5.76594 2.48201 5.48687 2.62121 5.25131C2.7604 5.01575 2.98258 4.84068 3.24416 4.76045C3.78359 4.6088 4.40174 4.86926 4.53833 5.44226C4.75132 6.30118 5.535 6.51301 6.08832 6.98646C6.12652 7.01887 6.22144 7.04666 6.24228 7.02698C6.49463 6.78504 6.81181 6.63919 7.08731 6.43893C7.26673 6.30812 7.13014 6.00368 7.1093 5.77911C7.05953 5.20958 7.00975 4.66205 6.5583 4.19323C6.15199 3.77188 6.25848 3.16183 6.67405 2.7972C6.87093 2.62028 7.12736 2.52424 7.39201 2.52832C7.65667 2.5324 7.91002 2.63629 8.10134 2.81919C8.50302 3.19425 8.58058 3.79156 8.18006 4.22333C7.82237 4.6088 7.70777 5.03363 7.65105 5.52329C7.54339 6.41115 7.63831 6.59867 8.44862 6.9691C8.52502 7.00498 8.591 7.03508 8.65698 6.98067C9.20451 6.52575 9.96967 6.32317 10.1954 5.50014C10.2592 5.23189 10.4267 4.99988 10.6613 4.85493C10.8958 4.70999 11.1783 4.66394 11.4467 4.72688C11.482 4.73499 11.5168 4.74504 11.5509 4.75697C12.0568 4.92366 12.3612 5.50708 12.235 6.06619C12.1822 6.32943 12.0272 6.56098 11.8039 6.71006C11.5806 6.85914 11.3073 6.91358 11.0439 6.86144C11.0115 6.8545 10.9791 6.8464 10.9478 6.83714C10.097 6.58015 9.49043 7.09412 8.85377 7.42634C8.53544 7.59072 8.72643 8.09426 8.60026 8.43343C8.52965 8.62443 8.85956 8.66495 9.02046 8.73903C9.69301 9.05736 10.3285 9.41621 11.1562 9.20206C11.6875 9.06315 12.1749 9.54933 12.2489 10.0853C12.2909 10.3261 12.245 10.574 12.1197 10.7839C11.9943 10.9937 11.7979 11.1517 11.566 11.229C11.0485 11.4119 10.442 11.2139 10.2857 10.6502C10.0287 9.72413 9.22766 9.42316 8.57711 8.94739C8.23099 8.70083 7.59201 9.19975 7.61169 9.71487Z" fill="#09CBCD"/>
<path d="M8.07879 0.000244141L13.9824 3.4012C12.9788 4.17562 12.7832 4.18951 11.783 3.61072C10.8176 3.05123 9.85296 2.49405 8.88909 1.93918C7.98502 1.41827 7.86232 1.13235 8.07879 0.000244141Z" fill="#09CBCD"/>
<path d="M0.763672 12.596C1.50799 11.9304 2.18402 11.8262 2.99895 12.383C3.88797 12.9896 4.85107 13.4781 5.78986 14.021C6.75991 14.5836 6.84789 14.7792 6.65689 16.0005L0.763672 12.596Z" fill="#09CBCD"/>
<path d="M0.783203 3.39657L6.66368 0.000244141C6.88246 1.14509 6.77018 1.4067 5.85338 1.93571C4.90417 2.48671 3.91907 2.98563 3.01269 3.6003C2.20818 4.14783 1.52868 4.07491 0.783203 3.39657Z" fill="#09CBCD"/>
<path d="M13.9665 12.5628L8.10112 15.9904C7.8615 14.8965 7.99462 14.5851 8.89174 14.0653C9.85831 13.5062 10.8596 12.9946 11.7857 12.373C12.5647 11.8451 13.228 11.8972 13.9665 12.5628Z" fill="#09CBCD"/>
<path d="M0.113281 4.57397C1.07523 4.84948 1.45144 5.41553 1.38661 6.38674C1.3079 7.47833 1.36925 8.58613 1.36809 9.67772C1.36809 10.7334 1.20835 10.9511 0.116754 11.3284L0.113281 4.57397Z" fill="#08CBCD"/>
<path d="M14.6281 11.3444C13.489 10.8814 13.3906 10.7436 13.3906 9.6011V5.9038C13.3903 5.60372 13.4951 5.31301 13.6869 5.08226C13.8788 4.85151 14.1454 4.69532 14.4405 4.64089C14.7716 4.5749 14.6721 4.82494 14.6721 4.96154C14.6813 5.92348 14.6721 6.88543 14.6721 7.84737V11.1986C14.6625 11.2486 14.6478 11.2975 14.6281 11.3444Z" fill="#08CBCD"/>
</g>
<defs>
<clipPath id="clip0_2_3672">
<rect width="14.5727" height="16" fill="white" transform="translate(0.113281 0.000244141)"/>
</clipPath>
</defs>
</svg>
