<svg width="17" height="16" viewBox="0 0 17 16" fill="none" xmlns="http://www.w3.org/2000/svg">
<g clip-path="url(#clip0_2_3679)">
<path d="M15.9592 9.93554C15.5755 11.4679 14.7461 12.8521 13.5759 13.9132C12.4058 14.9743 10.9473 15.6648 9.38487 15.8973C7.82243 16.1299 6.22611 15.8941 4.79765 15.2197C3.36918 14.5453 2.17267 13.4626 1.35931 12.1085C0.545944 10.7543 0.152236 9.18942 0.227931 7.61158C0.303626 6.03374 0.845328 4.51375 1.78459 3.24367C2.72384 1.97358 4.0185 1.01042 5.50497 0.475879C6.99143 -0.058662 8.60299 -0.140589 10.136 0.240451C11.1572 0.490689 12.1188 0.940677 12.9652 1.56445C13.8116 2.18823 14.5261 2.97344 15.0675 3.87478C15.6089 4.77612 15.9664 5.77575 16.1195 6.81599C16.2725 7.85622 16.2181 8.91646 15.9592 9.93554Z" fill="#EC672F"/>
<path d="M5.02607 7.36454H7.89123V9.6257C7.67212 9.69759 7.48106 9.83636 7.34493 10.0225C7.20881 10.2086 7.13446 10.4328 7.13235 10.6634C7.13235 10.9509 7.24657 11.2266 7.44988 11.4299C7.65319 11.6332 7.92894 11.7475 8.21646 11.7475C8.50399 11.7475 8.77974 11.6332 8.98305 11.4299C9.18636 11.2266 9.30058 10.9509 9.30058 10.6634C9.29934 10.4347 9.22716 10.2121 9.09401 10.0262C8.96085 9.84036 8.77328 9.70041 8.55719 9.6257V7.36454H11.3914C11.4364 7.36414 11.4795 7.34606 11.5114 7.3142C11.5433 7.28234 11.5613 7.23924 11.5617 7.19418V6.82248C11.5613 6.77743 11.5433 6.73433 11.5114 6.70247C11.4795 6.67061 11.4364 6.65253 11.3914 6.65212H8.47975V2.70284H11.3914C11.4364 2.70244 11.4795 2.68436 11.5114 2.6525C11.5433 2.62064 11.5613 2.57754 11.5617 2.53248V2.16853C11.5613 2.12347 11.5433 2.08038 11.5114 2.04851C11.4795 2.01665 11.4364 1.99857 11.3914 1.99817H5.02607C4.98237 2.00053 4.94122 2.01947 4.911 2.05113C4.88078 2.08278 4.86378 2.12477 4.86345 2.16853V2.54023C4.86385 2.58528 4.88193 2.62838 4.91379 2.66024C4.94565 2.69211 4.98875 2.71018 5.03381 2.71059H7.85251V6.65987H5.02607C4.98101 6.66027 4.93791 6.67835 4.90605 6.71021C4.87419 6.74207 4.85611 6.78517 4.8557 6.83023V7.20192C4.85447 7.22428 4.85809 7.24663 4.86633 7.26744C4.87456 7.28826 4.88721 7.30704 4.90341 7.3225C4.9196 7.33795 4.93895 7.34972 4.96012 7.35697C4.9813 7.36423 5.0038 7.36682 5.02607 7.36454ZM8.73529 10.6866C8.73529 10.7877 8.70532 10.8865 8.64916 10.9705C8.593 11.0546 8.51318 11.1201 8.41979 11.1588C8.3264 11.1974 8.22364 11.2076 8.1245 11.1878C8.02536 11.1681 7.93429 11.1194 7.86282 11.048C7.79134 10.9765 7.74266 10.8854 7.72294 10.7863C7.70322 10.6871 7.71335 10.5844 7.75203 10.491C7.79071 10.3976 7.85622 10.3178 7.94026 10.2616C8.02431 10.2055 8.12312 10.1755 8.22421 10.1755C8.2915 10.1749 8.35823 10.1877 8.42052 10.2131C8.48281 10.2386 8.5394 10.2762 8.58698 10.3238C8.63456 10.3714 8.67218 10.428 8.69765 10.4903C8.72311 10.5526 8.73591 10.6193 8.73529 10.6866Z" fill="white"/>
<path d="M10.7091 8.26295L10.6936 8.24746C10.6727 8.22775 10.645 8.21678 10.6162 8.21678C10.5874 8.21678 10.5597 8.22775 10.5387 8.24746L10.26 8.52623C10.2464 8.53782 10.2353 8.55201 10.2273 8.56798C10.2193 8.58394 10.2146 8.60135 10.2135 8.61916C10.2112 8.64099 10.2167 8.66293 10.229 8.68111C10.229 8.68521 10.2306 8.68915 10.2335 8.69206C10.2364 8.69496 10.2404 8.69659 10.2445 8.69659L10.26 8.71208C10.7214 9.23417 10.9798 9.90479 10.9879 10.6015C10.9879 11.3368 10.6958 12.0419 10.1759 12.5618C9.65601 13.0817 8.95088 13.3738 8.21564 13.3738C7.4804 13.3738 6.77527 13.0817 6.25537 12.5618C5.73548 12.0419 5.4434 11.3368 5.4434 10.6015C5.4434 9.88912 5.73766 9.26963 6.17131 8.71208L6.1868 8.69659C6.1868 8.69249 6.18843 8.68855 6.19133 8.68564C6.19424 8.68274 6.19818 8.68111 6.20228 8.68111C6.21777 8.66562 6.21777 8.65013 6.21777 8.61916C6.21828 8.60104 6.21431 8.58307 6.20621 8.56686C6.1981 8.55065 6.18611 8.53669 6.17131 8.52623L5.89254 8.24746C5.87175 8.2274 5.84399 8.21619 5.8151 8.21619C5.78621 8.21619 5.75845 8.2274 5.73766 8.24746L5.72217 8.26295C5.40205 8.56461 5.14851 8.92985 4.97781 9.33524C4.80712 9.74064 4.72305 10.1772 4.73098 10.617C4.72934 11.5431 5.09545 12.432 5.74886 13.0883C6.40227 13.7447 7.28952 14.1147 8.21564 14.1172C9.14176 14.1147 10.029 13.7447 10.6824 13.0883C11.3358 12.432 11.7019 11.5431 11.7003 10.617C11.7082 10.1772 11.6242 9.74064 11.4535 9.33524C11.2828 8.92985 11.0292 8.56461 10.7091 8.26295Z" fill="white"/>
</g>
<defs>
<clipPath id="clip0_2_3679">
<rect width="15.9892" height="16" fill="white" transform="translate(0.216797 0.000244141)"/>
</clipPath>
</defs>
</svg>
