<svg width="17" height="16" viewBox="0 0 17 16" fill="none" xmlns="http://www.w3.org/2000/svg">
<g clip-path="url(#clip0_2_3680)">
<path d="M10.6074 7.9993V10.3991H8.20567C7.73104 10.3991 7.26707 10.2583 6.87243 9.99463C6.4778 9.73094 6.17021 9.35615 5.98858 8.91765C5.80695 8.47915 5.75943 7.99664 5.85202 7.53113C5.94462 7.06562 6.17317 6.63802 6.50878 6.30241C6.8444 5.9668 7.27199 5.73824 7.7375 5.64564C8.20301 5.55305 8.68552 5.60057 9.12402 5.7822C9.56251 5.96384 9.9373 6.27142 10.201 6.66606C10.4647 7.0607 10.6054 7.52467 10.6054 7.9993H10.6074ZM8.23735 3.99969C7.71211 3.98409 7.18895 4.07209 6.69773 4.25868C6.2065 4.44526 5.75684 4.72678 5.37441 5.08714C4.99198 5.44751 4.68428 5.87967 4.46887 6.35896C4.25345 6.83824 4.13455 7.35526 4.11895 7.8805C4.10335 8.40574 4.19136 8.9289 4.37794 9.42013C4.56453 9.91135 4.84604 10.361 5.2064 10.7434C5.56677 11.1259 5.99893 11.4336 6.47821 11.649C6.9575 11.8644 7.47451 11.9833 7.99975 11.9989H12.2053V8.04682C12.2053 5.84109 10.4431 4.01553 8.23735 3.99969Z" fill="#20EE82"/>
<path d="M13.8629 2.34358C12.5593 1.03989 10.8453 0.226521 9.01105 0.0410721C7.17676 -0.144377 5.33472 0.309476 3.79655 1.32585C3.88656 1.42537 3.96372 1.5358 4.02623 1.65453C5.48797 0.695069 7.23549 0.268152 8.97497 0.445561C10.7145 0.622971 12.3398 1.39389 13.5778 2.6287C16.5398 5.58682 16.5398 10.4061 13.5778 13.3682C10.6157 16.3303 5.79635 16.3303 2.83427 13.3682C1.60007 12.1298 0.829891 10.5042 0.653204 8.76473C0.476518 7.02526 0.9041 5.278 1.86407 3.8167C1.74524 3.75433 1.6348 3.67716 1.53539 3.58702C-0.901996 7.26982 0.109785 12.2345 3.79259 14.6719C7.47539 17.1092 12.44 16.0975 14.8774 12.4147C15.8954 10.8764 16.3505 9.03357 16.1657 7.19824C15.9808 5.36291 15.1673 3.64788 13.8629 2.34358Z" fill="#7F8C8D"/>
<path d="M2.04742 1.83657C2.15902 1.72444 2.30137 1.64793 2.45645 1.6167C2.61154 1.58546 2.77241 1.60092 2.91871 1.66111C3.06502 1.7213 3.19019 1.82352 3.2784 1.95485C3.36661 2.08618 3.4139 2.24071 3.41429 2.39892C3.41468 2.55712 3.36814 2.71188 3.28058 2.84364C3.19301 2.9754 3.06834 3.07823 2.92234 3.13914C2.77633 3.20005 2.61554 3.21629 2.4603 3.18582C2.30506 3.15535 2.16234 3.07953 2.05019 2.96795L2.04742 2.96518C1.89822 2.81527 1.81445 2.61238 1.81445 2.40087C1.81445 2.18937 1.89822 1.98648 2.04742 1.83657Z" fill="#20EE82"/>
</g>
<defs>
<clipPath id="clip0_2_3680">
<rect width="15.9996" height="16" fill="white" transform="translate(0.207031 0.000244141)"/>
</clipPath>
</defs>
</svg>
