<svg width="17" height="16" viewBox="0 0 17 16" fill="none" xmlns="http://www.w3.org/2000/svg">
<g clip-path="url(#clip0_2_3682)">
<path d="M8.20479 15.8692C12.5506 15.8692 16.0736 12.3462 16.0736 8.00032C16.0736 3.65447 12.5506 0.13147 8.20479 0.13147C3.85894 0.13147 0.335938 3.65447 0.335938 8.00032C0.335938 12.3462 3.85894 15.8692 8.20479 15.8692Z" fill="white" stroke="#FFCE45" stroke-width="10.3" stroke-miterlimit="10"/>
<path d="M8.20553 1.84143L14.2333 7.8692L8.20553 13.897L2.17773 7.8692L8.20553 1.84143Z" fill="#FFCE45"/>
<path d="M8.20466 9.83646L2.17188 7.86925L8.20466 1.84155L14.2374 7.86925L8.20466 9.83646Z" fill="#FEBE44"/>
<path d="M4.27148 7.47583H7.02558L8.20591 6.16436L9.51739 7.47583H12.2715L8.20591 3.08252L4.27148 7.47583Z" fill="white"/>
<path opacity="0.42" d="M8.20508 13.8969V1.84155L14.2328 7.86925L8.20508 13.8969Z" fill="#D9A547"/>
</g>
<defs>
<clipPath id="clip0_2_3682">
<rect width="16" height="16" fill="white" transform="translate(0.205078 0.000244141)"/>
</clipPath>
</defs>
</svg>
