<svg width="17" height="16" viewBox="0 0 17 16" fill="none" xmlns="http://www.w3.org/2000/svg">
<g clip-path="url(#clip0_2_3683)">
<path d="M8.20508 16.0002C12.6234 16.0002 16.2051 12.4185 16.2051 8.00024C16.2051 3.58197 12.6234 0.000244141 8.20508 0.000244141C3.7868 0.000244141 0.205078 3.58197 0.205078 8.00024C0.205078 12.4185 3.7868 16.0002 8.20508 16.0002Z" fill="#B30D23"/>
<path d="M8.66158 10.6172L8.19558 11.4852L7.72958 10.6172C4.91458 10.3987 2.70508 8.29974 2.70508 8.29974C2.70508 8.29474 4.85208 6.26074 7.60958 5.99274L7.97458 5.36774L8.19558 5.00024L8.57058 5.62524L8.78158 5.99274C11.5386 6.25574 13.6861 8.29974 13.6861 8.29974C13.6861 8.29974 11.4761 10.3987 8.66108 10.6172H8.66158ZM3.17108 8.29974C3.16608 8.29974 5.29408 9.75374 7.43158 10.0612L6.38958 8.11124L6.67258 7.62024L6.93258 8.10624L6.92758 8.11124L7.94108 10.1062C8.02258 10.1112 8.10408 10.1112 8.18608 10.1112C8.26758 10.1112 8.34458 10.1112 8.42608 10.1062L9.17058 8.62224L9.71358 7.61024L9.99658 8.10124L8.95458 10.0562C11.0921 9.75374 13.2196 8.33474 13.2196 8.29474C13.2196 8.25974 11.1931 6.90574 9.10808 6.55824L9.42508 7.10924L9.16108 7.63974L8.47408 6.48874C8.38135 6.48294 8.28848 6.4796 8.19558 6.47874C8.10408 6.47874 8.00808 6.48374 7.91208 6.48874L7.21058 7.63974L6.95158 7.13374L7.28258 6.56324C5.19808 6.91574 3.17108 8.29974 3.17108 8.29974Z" fill="white"/>
</g>
<defs>
<clipPath id="clip0_2_3683">
<rect width="16" height="16" fill="white" transform="translate(0.205078 0.000244141)"/>
</clipPath>
</defs>
</svg>
