<svg width="17" height="16" viewBox="0 0 17 16" fill="none" xmlns="http://www.w3.org/2000/svg">
<g clip-path="url(#clip0_2_3685)">
<path d="M8.20508 16.0002C12.6234 16.0002 16.2051 12.4185 16.2051 8.00024C16.2051 3.58197 12.6234 0.000244141 8.20508 0.000244141C3.7868 0.000244141 0.205078 3.58197 0.205078 8.00024C0.205078 12.4185 3.7868 16.0002 8.20508 16.0002Z" fill="#1C1C1C"/>
<path d="M8.06247 6.71662C8.21547 6.77912 8.36847 6.74762 8.49097 6.71662C8.58297 7.02862 8.73597 7.30912 8.88847 7.43362C8.79697 8.21362 8.52147 8.49412 8.21547 8.49412C7.78747 8.49412 7.57297 7.58962 7.57297 7.43412C7.66497 7.37162 7.94047 7.18412 8.06297 6.71662H8.06247ZM7.60347 9.46112C7.78747 9.30512 7.90947 9.05562 8.06247 8.65012C8.18497 8.71262 8.36847 8.68112 8.49097 8.65012C8.58297 9.08662 8.67447 9.36762 8.88847 9.49212C8.82747 9.99112 8.52147 10.3341 8.24597 10.3341C7.84847 10.3341 7.66497 9.71062 7.60347 9.46112ZM5.15597 10.4276C5.27847 10.2716 5.27847 10.0226 5.21747 9.55462C5.30897 9.58562 5.40097 9.58562 5.46247 9.55462C5.64547 9.99112 5.79847 10.2716 6.04347 10.4276C6.07397 10.6461 6.04347 10.8956 5.95147 10.9266C5.61497 11.0826 5.30897 10.6771 5.15647 10.4276H5.15597ZM3.87097 9.58562C3.93247 9.58562 3.96297 9.58562 4.02397 9.61712C4.23847 10.1781 4.60547 10.4901 4.60547 10.4901C4.72797 10.7396 4.78897 10.9891 4.69697 10.9891C4.42197 11.0201 4.20747 10.8331 3.99347 10.4276C4.02397 10.3341 3.99347 10.2716 3.87097 9.58562ZM3.04497 9.58562C3.35097 10.8956 3.93247 10.8331 3.90197 10.7706C3.77947 10.5526 3.65697 10.4591 3.53447 10.3656C3.25947 10.0846 3.04497 9.49212 3.04497 9.58562ZM6.77747 10.4276C6.99197 10.2716 7.02247 9.92862 7.05297 9.49262C7.17547 9.52312 7.32797 9.52312 7.41997 9.49262C7.48147 9.77262 7.57297 10.1781 7.84847 10.3656C7.81797 10.7086 7.72597 10.8956 7.51197 10.9266C7.35897 10.9891 6.93047 10.9891 6.77747 10.4276ZM4.14647 9.46112C4.26897 9.30512 4.29947 9.05562 4.32997 8.71262C4.42197 8.74362 4.54447 8.74362 4.60497 8.71262C4.69697 9.11762 4.84997 9.36762 5.03397 9.49262C5.09497 10.1471 5.03397 10.3656 4.91147 10.3656C4.63647 10.3656 4.26897 9.77262 4.14647 9.46062V9.46112ZM3.19797 9.46112C3.19797 9.39862 3.22847 8.99312 3.25947 8.71262H3.38147C3.53447 9.30512 3.74897 9.49262 3.74897 9.49262C3.90197 10.2096 3.90197 10.3966 3.77897 10.3341C3.50397 10.2406 3.28997 9.71062 3.19797 9.46112ZM5.64547 9.46112C5.79847 9.33612 5.89047 9.11812 5.95147 8.71262C6.10447 8.77462 6.25747 8.74362 6.34947 8.71262C6.44097 9.11762 6.59447 9.36762 6.80847 9.49262C6.80847 9.83512 6.77747 10.3966 6.34947 10.3026C5.98197 10.2096 5.67647 9.58562 5.64547 9.46112ZM5.37047 9.36762C5.00297 9.36762 4.78897 8.77462 4.78897 8.58762C4.97247 8.40062 5.06397 8.05762 5.15597 7.46512C5.21747 7.49612 5.30897 7.49612 5.40097 7.46512C5.43147 8.12012 5.61497 8.40062 5.76797 8.55662C5.70697 9.08662 5.55397 9.36762 5.37047 9.36762ZM3.47347 8.58762C3.53447 8.46262 3.53447 8.43162 3.71847 7.46512H3.87097C3.87097 8.12012 4.05447 8.43162 4.14647 8.55662C4.11597 8.89962 4.17697 9.36762 3.90147 9.36762C3.77947 9.36762 3.62647 9.21162 3.47347 8.58762ZM2.86147 7.49612C2.95347 7.52762 2.89197 8.33812 3.01447 8.61912C3.01447 8.61912 3.01447 9.39862 2.95347 9.33612C2.49447 8.77462 2.80047 7.46512 2.86147 7.49612ZM6.53297 8.58762C6.74697 8.43162 6.86947 8.08862 7.05297 7.46512C7.17547 7.49612 7.32797 7.49612 7.41997 7.46512C7.48147 7.93262 7.60347 8.27612 7.84847 8.52512C7.78747 9.02412 7.54247 9.36762 7.23647 9.36762C6.74697 9.36762 6.56347 8.68112 6.53297 8.58762ZM4.02397 7.37162C4.26897 7.27812 4.42197 6.74762 4.45247 6.68512C4.48614 6.7153 4.52976 6.73199 4.57497 6.73199C4.62019 6.73199 4.66381 6.7153 4.69747 6.68512C4.69747 7.09062 4.81947 7.27812 4.91147 7.34012C4.81947 7.87012 4.69697 8.49412 4.42147 8.49412C4.17697 8.49412 4.05447 7.93262 4.02397 7.37162ZM3.25897 8.52512C3.04497 8.52512 2.98397 7.71462 3.04497 7.37162C3.04497 7.37162 3.22847 7.09062 3.35097 6.68512C3.38147 6.68512 3.44297 6.71662 3.47347 6.68512C3.44297 7.09062 3.50397 7.27812 3.56497 7.37162C3.56497 7.37162 3.41247 8.52512 3.25947 8.52512H3.25897ZM5.58447 7.37162C5.70697 7.30912 5.95147 6.96612 6.07397 6.65412C6.19647 6.71662 6.31897 6.71662 6.47147 6.68512C6.53297 7.02862 6.62447 7.24662 6.83897 7.37162C6.74697 7.93262 6.56347 8.49412 6.16597 8.49412C5.79847 8.49412 5.61497 7.74562 5.58447 7.37162ZM5.85947 6.52962C5.67647 7.02862 5.49247 7.30912 5.24797 7.30912C4.94197 7.30912 4.91147 6.65412 4.91147 6.59162C5.15647 6.40462 5.33947 6.03062 5.49247 5.71862H5.70697C5.64547 6.18612 5.76797 6.40462 5.85997 6.52962H5.85947ZM4.36047 5.74962C4.20747 6.18612 4.26897 6.40462 4.33047 6.56062C4.08547 7.18412 3.96297 7.34062 3.77947 7.34062C3.59597 7.30912 3.59597 6.93462 3.65697 6.62312C3.84047 6.49812 4.23847 5.78112 4.23847 5.74962H4.36047ZM3.47347 5.78112C3.56497 5.74962 3.22847 6.21762 3.25947 6.43612C3.28947 6.74762 2.92247 7.27812 2.89197 7.24662C2.76997 7.21562 3.01447 6.09262 3.47347 5.78112ZM7.81797 6.52962C7.72597 6.87262 7.60347 7.30912 7.08347 7.30912C6.80847 7.27812 6.65547 6.90412 6.59397 6.59162C6.89997 6.37362 7.05297 5.99912 7.14497 5.71862C7.23647 5.74962 7.38997 5.74962 7.48147 5.71862C7.54247 6.18612 7.69547 6.40462 7.81797 6.52962ZM3.65697 5.68712C3.71797 5.65612 4.11597 5.12612 4.32997 5.12612C4.45247 5.15712 4.11597 5.46912 4.14647 5.62512C4.05447 5.78112 3.62647 6.56012 3.47347 6.56012C3.35097 6.56012 3.35097 6.15512 3.65697 5.68712ZM11.1835 9.55462C11.1525 10.0221 11.1525 10.2716 11.2445 10.4276C11.122 10.6776 10.7855 11.0516 10.4495 10.9266C10.3265 10.8956 10.3265 10.6461 10.357 10.4276C10.6325 10.2716 10.816 9.96012 10.9385 9.55462C10.9995 9.58562 11.0915 9.58562 11.1835 9.55462ZM12.407 9.55462C12.4375 9.58562 12.499 9.58562 12.56 9.52312C12.4375 10.2096 12.407 10.2716 12.4375 10.3656C12.2235 10.7706 12.0095 10.9266 11.734 10.9266C11.6115 10.9266 11.673 10.7086 11.826 10.4276C11.826 10.4276 12.193 10.1161 12.407 9.55462ZM12.897 10.3656C12.774 10.4901 12.652 10.5526 12.56 10.7706C12.5295 10.8331 13.111 10.8956 13.4165 9.58562C13.3555 9.49212 13.1715 10.0846 12.8965 10.3656H12.897ZM9.37797 9.55462C9.37797 9.92862 9.46997 10.2716 9.65347 10.4901C9.50047 11.0201 9.07247 11.0201 8.91947 10.9891C8.70497 10.9266 8.64397 10.7396 8.58297 10.4276C8.82747 10.2096 8.94997 9.83512 9.01097 9.55462C9.13347 9.58562 9.25597 9.58562 9.37797 9.55462ZM12.1315 8.68112C12.1315 9.05562 12.1625 9.30512 12.3155 9.42962C12.193 9.74162 11.7955 10.3346 11.5505 10.3346C11.428 10.3346 11.367 10.1161 11.428 9.46112C11.6115 9.33612 11.7645 9.02412 11.8565 8.68112C11.8985 8.70468 11.9458 8.71706 11.994 8.71706C12.0421 8.71706 12.0895 8.70468 12.1315 8.68112ZM13.233 8.74362C13.233 8.99362 13.233 9.39862 13.2945 9.49212C13.172 9.74212 12.958 10.2721 12.713 10.3656C12.56 10.3966 12.5905 10.2096 12.7435 9.52312C12.7435 9.52312 12.958 9.30512 13.111 8.74362H13.233ZM10.51 8.68112C10.5715 9.11812 10.6325 9.33612 10.816 9.42962C10.786 9.58562 10.449 10.2096 10.1125 10.2716C9.68397 10.3656 9.65347 9.77262 9.65347 9.46112C9.86747 9.33612 10.0205 9.05562 10.1125 8.68112C10.2045 8.71262 10.3575 8.74362 10.51 8.68112ZM11.673 8.58762C11.642 8.77462 11.3975 9.36762 11.0915 9.36762C10.908 9.36762 10.755 9.05562 10.694 8.55662C10.847 8.43162 11.0305 8.12012 11.061 7.46512C11.1397 7.49635 11.2273 7.49635 11.306 7.46512C11.428 8.02662 11.52 8.40062 11.673 8.58762ZM12.7435 7.46512C12.8965 8.43162 12.927 8.46312 12.9885 8.58762C12.8355 9.18012 12.6825 9.36762 12.56 9.36762C12.285 9.36762 12.346 8.86862 12.315 8.55662C12.4375 8.43162 12.5905 8.12012 12.5905 7.46512C12.652 7.49612 12.6825 7.46512 12.7435 7.46512ZM13.386 8.58762C13.539 8.33812 13.478 7.52762 13.539 7.46512C13.631 7.43362 13.906 8.80612 13.4475 9.30512C13.386 9.36762 13.386 8.58762 13.386 8.58762ZM9.46997 7.46512C9.56197 8.08862 9.71497 8.43162 9.98997 8.58762C9.95947 8.68112 9.71497 9.36762 9.28647 9.36762C8.94997 9.39862 8.76647 8.99312 8.67447 8.52512C8.88847 8.27612 9.04147 7.93262 9.10297 7.46512C9.16397 7.49612 9.31697 7.49612 9.46997 7.46512ZM12.0095 6.68512C12.0095 6.74762 12.193 7.27812 12.407 7.43362C12.407 7.96362 12.254 8.55662 12.0095 8.55662C11.734 8.55662 11.6115 7.96412 11.5195 7.40262C11.6115 7.30912 11.734 7.09062 11.734 6.71662C11.7788 6.73448 11.8274 6.74095 11.8754 6.73546C11.9234 6.72996 11.9693 6.71266 12.009 6.68512H12.0095ZM13.386 7.37162C13.4165 7.71462 13.3555 8.52512 13.2025 8.49412C13.0495 8.49412 12.8965 7.34012 12.8965 7.34012C12.958 7.24662 13.019 7.02862 12.9885 6.68512C13.0053 6.70026 13.0271 6.70864 13.0497 6.70864C13.0723 6.70864 13.0942 6.70026 13.111 6.68512C13.233 7.09062 13.386 7.37162 13.386 7.37162ZM10.388 6.68512C10.51 6.96612 10.7245 7.30912 10.908 7.40262C10.8775 7.77712 10.663 8.52512 10.3265 8.52512C9.86747 8.55662 9.74547 7.99512 9.65347 7.40262C9.83697 7.27762 9.95947 7.02862 9.98997 6.71662C10.1125 6.74762 10.265 6.74762 10.388 6.68512ZM11.153 7.27812C10.9385 7.30912 10.755 7.02812 10.541 6.52962C10.663 6.40462 10.755 6.15512 10.694 5.71862C10.7855 5.74962 10.847 5.74962 10.908 5.71862C11.0915 6.06162 11.275 6.40462 11.489 6.56062C11.489 6.65412 11.459 7.27812 11.1525 7.27812H11.153ZM12.1315 6.52962C12.1625 6.40462 12.2235 6.18612 12.04 5.71862H12.1625C12.1625 5.74962 12.5905 6.49862 12.7435 6.59162C12.805 6.93462 12.805 7.27812 12.621 7.30912C12.4685 7.30912 12.346 7.15312 12.1315 6.52912V6.52962ZM13.1715 6.43562C13.2025 6.21762 12.8965 5.74962 12.927 5.78062C13.417 6.09262 13.6005 7.21562 13.5085 7.24662C13.478 7.27812 13.1415 6.71662 13.172 6.43562H13.1715ZM9.28647 7.27812C8.82747 7.30912 8.70497 6.87262 8.61347 6.52962C8.76647 6.43562 8.91947 6.15512 8.94997 5.71862C9.04147 5.74962 9.19497 5.74962 9.28647 5.71862C9.37797 5.99912 9.53147 6.37362 9.77597 6.56062C9.74547 6.93462 9.59247 7.24662 9.28597 7.27812H9.28647ZM12.1315 5.12612C12.2845 5.12612 12.7435 5.65612 12.774 5.68712C13.111 6.18612 13.111 6.56062 12.9885 6.56062C12.805 6.56062 12.407 5.78062 12.3155 5.62512C12.3455 5.46912 12.0095 5.12612 12.1315 5.12612ZM5.33947 5.21962C5.27847 5.40662 5.24797 5.59362 5.33947 5.68712C5.15597 6.06162 4.84997 6.59212 4.57447 6.56062C4.26897 6.49812 4.51347 5.78062 4.54447 5.71862C4.72797 5.62512 5.15597 5.03262 5.30947 5.03262C5.40097 5.06362 5.33947 5.21962 5.33947 5.21962ZM6.77747 5.18862C6.77747 5.37562 6.80847 5.59362 6.96097 5.68712C6.83897 6.06162 6.59397 6.56062 6.19597 6.52962C5.92097 6.49812 5.85997 6.03062 5.92097 5.68712C6.19597 5.59362 6.44097 5.00112 6.62447 5.00112C6.77747 5.00112 6.77747 5.15712 6.77747 5.18862ZM11.1225 5.68712C11.1835 5.59362 11.1835 5.40712 11.1225 5.21962C11.1225 5.18862 11.061 5.03262 11.1525 5.03262C11.3055 5.03262 11.734 5.62512 11.9175 5.71862C11.948 5.78112 12.1925 6.49862 11.887 6.56062C11.581 6.59162 11.3055 6.03062 11.122 5.68712H11.1225ZM9.50047 5.68712C9.62297 5.59362 9.65347 5.37562 9.68397 5.18862C9.68397 5.15712 9.68397 5.00112 9.83697 5.00112C9.98997 4.97012 10.296 5.59362 10.541 5.68712C10.6325 6.09262 10.571 6.49812 10.2655 6.52962C9.83697 6.59162 9.62297 6.03062 9.50047 5.68712ZM8.21547 5.00112C8.52147 5.00112 8.52147 5.59362 8.76647 5.71862C8.76647 5.87462 8.67447 6.56062 8.18497 6.56062C7.75647 6.56062 7.66497 5.99912 7.63447 5.71862C8.00147 5.56262 7.87947 5.00112 8.21547 5.00112Z" fill="white"/>
</g>
<defs>
<clipPath id="clip0_2_3685">
<rect width="16" height="16" fill="white" transform="translate(0.205078 0.000244141)"/>
</clipPath>
</defs>
</svg>
