<svg width="17" height="16" viewBox="0 0 17 16" fill="none" xmlns="http://www.w3.org/2000/svg">
<g clip-path="url(#clip0_2_3691)">
<path d="M8.48242 16.0002C12.9007 16.0002 16.4824 12.4185 16.4824 8.00024C16.4824 3.58197 12.9007 0.000244141 8.48242 0.000244141C4.06414 0.000244141 0.482422 3.58197 0.482422 8.00024C0.482422 12.4185 4.06414 16.0002 8.48242 16.0002Z" fill="#00B098"/>
<path d="M3.48242 6.19574V6.01774H7.69092V6.19574H3.48242ZM3.48242 5.67824V5.50024H7.69092V5.67824H3.48242ZM5.25742 10.9982V6.55174H5.42642V10.9982H5.25742ZM5.74742 10.9982V6.55174H5.91592V10.9982H5.74742ZM13.3634 10.6342L11.4644 8.62774L11.5834 8.50224L13.4824 10.5082L13.3634 10.6342ZM8.74192 5.50024L10.6409 7.50674L10.5219 7.63224L8.62292 5.62624L8.74192 5.50024ZM13.0169 11.0002L11.1179 8.99374L11.2369 8.86774L13.1359 10.8742L13.0169 11.0002ZM8.39592 5.86624L10.2949 7.87224L10.1754 7.99824L8.27642 5.99224L8.39592 5.86624ZM11.1064 8.25024L11.2259 8.12424L13.3634 5.86624L13.4824 5.99224L11.3449 8.25024L11.2259 8.37624L10.9989 8.61624L10.8794 8.74224L8.74242 11.0002L8.62342 10.8742L10.7609 8.61624L10.8799 8.49024L11.1064 8.25024ZM10.8794 7.75824L13.0174 5.50024L13.1364 5.62624L10.9989 7.88424L10.8799 8.01024L10.6529 8.25024L10.5334 8.37624L8.39642 10.6342L8.27692 10.5082L10.4144 8.25024L10.5334 8.12424L10.7609 7.88424L10.8794 7.75824Z" fill="white"/>
</g>
<defs>
<clipPath id="clip0_2_3691">
<rect width="16" height="16" fill="white" transform="translate(0.482422 0.000244141)"/>
</clipPath>
</defs>
</svg>
