<svg width="17" height="16" viewBox="0 0 17 16" fill="none" xmlns="http://www.w3.org/2000/svg">
<g clip-path="url(#clip0_2_3692)">
<path d="M8.48242 16.0002C12.9007 16.0002 16.4824 12.4185 16.4824 8.00024C16.4824 3.58197 12.9007 0.000244141 8.48242 0.000244141C4.06414 0.000244141 0.482422 3.58197 0.482422 8.00024C0.482422 12.4185 4.06414 16.0002 8.48242 16.0002Z" fill="#FF3B81"/>
<path d="M4.71192 11.0707V11.1412H3.97342V9.80774L3.95042 9.88174L3.24492 9.66874L3.64342 8.38374L3.59442 8.45574L2.98242 8.04924L3.74742 6.93224L3.67442 6.99024L3.20942 6.42524L4.30992 5.54724L4.16992 5.60074L3.90492 4.92174L5.21942 4.42474L5.06542 4.43474L5.01442 3.70974L6.39042 3.61474L6.26592 3.58674L6.43192 2.87824L7.74692 3.17724L7.66392 3.13024L8.03242 2.50024L9.17892 3.15224L9.13392 3.10524L9.67392 2.60924L10.5669 3.55224L10.5479 3.51424L11.2114 3.19524L11.7844 4.35224L11.7794 4.31974L12.5079 4.20574L12.7229 5.54224L12.7379 5.44724L13.4674 5.56074L13.2494 6.91674L13.3029 6.80774L13.9664 7.12674L13.3524 8.36724L13.4424 8.27224L13.9819 8.76874L13.0274 9.77674L13.1429 9.71124L13.5119 10.3412L12.3124 11.0232L12.4329 10.9957L12.5994 11.7042L11.2734 12.0057L11.3759 12.0127L11.3244 12.7382L9.99742 12.6467L10.0649 12.6722L9.79992 13.3512L8.52992 12.8712L8.61042 12.9352L8.14592 13.5002L7.09742 12.6637L7.14942 12.7392L6.53742 13.1462L5.78742 12.0512L5.80992 12.1232L5.10392 12.3362L4.71192 11.0707ZM4.71192 10.2067L5.17292 10.0677L5.53092 11.2227L5.92992 10.9577L6.61092 11.9527L6.91542 11.5827L7.85942 12.3357L8.02842 11.9022L9.16642 12.3322L9.19942 11.8627L10.4174 11.9467L10.3074 11.4792L11.5014 11.2077L11.2539 10.7857L12.3194 10.1797L11.9544 9.84474L12.7959 8.95574L12.3469 8.73974L12.8884 7.64674L12.3974 7.56974L12.5904 6.36974L12.1204 6.44274L11.9279 5.24274L11.5049 5.44574L10.9674 4.36074L10.6224 4.67724L9.79142 3.79874L9.55342 4.20474L8.50092 3.60624L8.39192 4.07024L7.20792 3.80074L7.24242 4.28524L6.02692 4.36874L6.20642 4.83024L5.06142 5.26324L5.36992 5.63774L4.40892 6.40424L4.81442 6.67374L4.12242 7.68524L4.58892 7.82624L4.22742 8.99174H4.71242L4.71192 10.2067ZM8.33692 8.84424C8.33692 8.66024 8.27192 8.51974 8.14242 8.42224C8.01242 8.32274 7.77992 8.21874 7.44292 8.11074C7.10592 8.00074 6.83942 7.89224 6.64292 7.78574C6.10792 7.49574 5.83992 7.10574 5.83992 6.61424C5.83992 6.35874 5.91092 6.13124 6.05342 5.93224C6.19842 5.73074 6.40442 5.57374 6.67192 5.46124C6.94192 5.34874 7.24442 5.29274 7.57892 5.29274C7.91592 5.29274 8.21592 5.35424 8.47892 5.47774C8.74242 5.59874 8.94642 5.77074 9.09142 5.99374C9.23901 6.21942 9.31564 6.48412 9.31142 6.75374H8.33992C8.33992 6.53724 8.27192 6.36924 8.13592 6.25024C7.99992 6.12924 7.80892 6.06874 7.56292 6.06874C7.32542 6.06874 7.14042 6.11924 7.00892 6.22124C6.94618 6.26612 6.89537 6.32567 6.86095 6.39469C6.82652 6.46372 6.80952 6.54013 6.81142 6.61724C6.81142 6.77074 6.88792 6.89974 7.04142 7.00374C7.19642 7.10724 7.42442 7.20474 7.72442 7.29574C8.27742 7.46224 8.67992 7.66924 8.93242 7.91574C9.18542 8.16274 9.31142 8.47024 9.31142 8.83774C9.31142 9.24724 9.15692 9.56824 8.84842 9.80224C8.53942 10.0337 8.12392 10.1497 7.60142 10.1497C7.26083 10.1543 6.92313 10.0868 6.61042 9.95174C6.31292 9.81724 6.08492 9.63424 5.92742 9.40274C5.77192 9.17124 5.69392 8.90274 5.69392 8.59774H6.66892C6.66892 9.11924 6.97992 9.38024 7.60142 9.38024C7.83242 9.38024 8.01292 9.33374 8.14242 9.24024C8.20516 9.19557 8.25579 9.13597 8.28975 9.06684C8.3237 8.99771 8.33992 8.92121 8.33692 8.84424ZM11.3019 5.94524L10.3654 9.37124L9.59392 9.31724L10.1774 5.78524L11.3019 5.94524ZM10.4849 9.72824L10.2414 10.9387L9.21542 10.6392L9.45092 9.47824L10.4849 9.72824Z" fill="white"/>
</g>
<defs>
<clipPath id="clip0_2_3692">
<rect width="16" height="16" fill="white" transform="translate(0.482422 0.000244141)"/>
</clipPath>
</defs>
</svg>
