<svg width="16" height="16" viewBox="0 0 16 16" fill="none" xmlns="http://www.w3.org/2000/svg">
<g clip-path="url(#clip0_2_3695)">
<path d="M2.29853 1.80133C1.60432 2.38276 0.887844 3.09923 0.59649 3.97322C0.260588 5.00332 0.73039 6.05576 1.17894 6.97314C1.62647 7.91274 2.11861 8.83134 2.5438 9.79327C2.87976 10.5544 3.34956 11.4495 3.238 12.3011C3.14878 12.906 2.94671 13.4875 2.83515 14.0924C2.74586 14.4956 3.12644 14.0924 3.26034 13.9808C4.04377 13.3088 4.89421 12.5478 5.20784 11.5176C5.36401 11.0032 5.27479 10.532 5.09628 10.04C4.91777 9.57015 4.7157 9.12262 4.51383 8.65161C4.08864 7.71074 3.64111 6.77108 3.19237 5.8302C3.01385 5.49424 2.83394 5.136 2.67789 4.7777C2.52172 4.39713 2.43121 3.99428 2.40907 3.56909C2.38679 3.23313 2.38679 2.9195 2.4314 2.58341C2.45368 2.33674 2.52063 2.11362 2.54297 1.86694C2.56652 1.73426 2.45496 1.68843 2.29872 1.80121L2.29853 1.80133ZM12.5517 1.80133C11.8575 2.38378 11.141 3.10064 10.8497 3.97322C10.5137 5.00332 10.9836 6.05576 11.4321 6.97314C11.8796 7.91402 12.373 8.83134 12.7982 9.79455C13.1342 10.5557 13.604 11.4507 13.4924 12.3023C13.4032 12.9072 13.2011 13.4887 13.0892 14.0936C13 14.4968 13.3805 14.0936 13.5144 13.982C14.2979 13.31 15.1482 12.549 15.4619 11.5188C15.6181 11.0044 15.5288 10.5332 15.3503 10.0412C15.1718 9.57143 14.9697 9.1239 14.7678 8.65283C14.3426 7.71195 13.8951 6.77229 13.4463 5.83142C13.2678 5.49545 13.0879 5.13722 12.9319 4.77898C12.7757 4.39841 12.6861 3.99552 12.6631 3.57031C12.6408 3.23435 12.6408 2.92072 12.6854 2.58463C12.7077 2.33789 12.7747 2.11477 12.797 1.86777C12.8205 1.73387 12.709 1.68805 12.5515 1.80082L12.5517 1.80133Z" fill="#165098"/>
<path d="M7.26746 0.098705C6.48404 0.748613 5.6336 1.53172 5.16259 2.44904C4.82663 3.09862 4.78202 3.77055 4.96053 4.4412C5.18486 5.24696 5.49727 6.05272 5.83324 6.83614C6.48276 8.3361 7.3332 9.74684 7.96045 11.2691C8.18446 11.8059 8.43024 12.4108 8.47486 13.0158C8.51966 13.7546 8.27279 14.5381 8.07201 15.2323C8.0272 15.4343 7.8935 15.7021 7.91583 15.9043C7.93811 16.0605 8.0274 15.9935 8.11784 15.9267C8.50391 15.6296 8.87038 15.3078 9.21495 14.9634C10.1323 14.0907 11.1847 12.9255 11.0955 11.5606C11.0507 11.0003 10.7819 10.4635 10.5587 9.94909C10.3121 9.3454 10.0443 8.76397 9.77525 8.18134C9.28311 7.08429 8.76742 6.00951 8.23068 4.93474C8.05217 4.55417 7.82744 4.19593 7.69393 3.81535C7.49186 3.30088 7.40258 2.76285 7.3803 2.22611C7.35797 1.82326 7.3803 1.39807 7.42511 0.995161C7.44738 0.726339 7.53667 0.480687 7.53667 0.211674C7.60362 -0.0350017 7.46972 -0.0571475 7.26785 0.098897L7.26746 0.098705Z" fill="#5C9DD5"/>
</g>
<defs>
<clipPath id="clip0_2_3695">
<rect width="15.0604" height="16" fill="white" transform="translate(0.482422 0.000244141)"/>
</clipPath>
</defs>
</svg>
