<svg width="16" height="16" viewBox="0 0 16 16" fill="none" xmlns="http://www.w3.org/2000/svg">
<g clip-path="url(#clip0_2_3700)">
<path d="M6.48987 15.8493L13.1529 6.5555H8.79714L9.96157 0.215881C11.9638 0.73854 13.6856 2.01671 14.7654 3.78197C15.8452 5.54723 16.199 7.66223 15.7525 9.6828C15.306 11.7034 14.0938 13.4723 12.3707 14.6181C10.6476 15.764 8.54745 16.1975 6.51143 15.8277L6.48987 15.8493ZM6.0586 15.7631C4.16287 15.2908 2.50545 14.1413 1.39897 12.5312C0.292485 10.921 -0.18657 8.96169 0.0521594 7.02267C0.290889 5.08366 1.2309 3.29902 2.69489 2.00538C4.15888 0.711734 6.04564 -0.001485 7.9993 0.000247289C8.50603 0.00377992 9.01134 0.0543109 9.50873 0.151191L2.88879 9.44499H7.22302L6.0586 15.7631Z" fill="#6B38DF"/>
</g>
<defs>
<clipPath id="clip0_2_3700">
<rect width="16" height="16" fill="white" transform="translate(0 0.000244141)"/>
</clipPath>
</defs>
</svg>
