<svg width="17" height="16" viewBox="0 0 17 16" fill="none" xmlns="http://www.w3.org/2000/svg">
<g clip-path="url(#clip0_2_3705)">
<path d="M8.91393 16C13.3321 16 16.9138 12.4183 16.9138 8.00011C16.9138 3.58191 13.3321 0.000244141 8.91393 0.000244141C4.49572 0.000244141 0.914062 3.58191 0.914062 8.00011C0.914062 12.4183 4.49572 16 8.91393 16Z" fill="url(#paint0_linear_2_3705)"/>
<path fill-rule="evenodd" clip-rule="evenodd" d="M8.62311 2.88641C8.15861 2.93995 7.72674 3.15188 7.4002 3.48654C7.15503 3.72928 6.9228 3.9785 6.67439 4.22368C6.55005 4.35125 6.42436 4.47532 6.29867 4.60128C6.17298 4.72724 6.03434 4.86102 5.9038 4.99318C5.77325 5.12534 5.66483 5.24132 5.54399 5.36405C5.35519 5.55285 5.16639 5.74165 4.97758 5.93234C4.83274 6.08204 4.69114 6.23658 4.54792 6.38601C4.4635 6.47528 4.3726 6.55809 4.29304 6.65195C3.96467 7.05257 3.78521 7.55456 3.78516 8.07256C3.78516 8.10303 3.78516 8.13432 3.78704 8.16453C3.79376 8.46197 3.87183 8.75344 4.01469 9.01441C4.09601 9.17212 4.19019 9.32287 4.29627 9.46511C4.3664 9.56383 4.41738 9.56221 4.50962 9.48588C4.52724 9.47122 4.54374 9.45526 4.55898 9.43814C4.64988 9.34239 4.73888 9.24691 4.8314 9.15143C4.96194 9.01441 5.09572 8.87766 5.22626 8.73903C5.35681 8.60039 5.49841 8.44773 5.63543 8.30451C5.7007 8.23439 5.77029 8.16965 5.8361 8.10061C5.97608 7.95253 6.1131 7.79987 6.25309 7.65341C6.39307 7.50696 6.53494 7.36994 6.67196 7.22672C6.80898 7.0835 6.97755 6.90818 7.13183 6.74905C7.28611 6.58992 7.41692 6.45613 7.56014 6.30968C7.74652 6.11683 7.92804 5.9194 8.11253 5.72682C8.22716 5.60895 8.34503 5.49594 8.45966 5.37969C8.61879 5.22056 8.76687 5.06142 8.92303 4.90229C9.0792 4.74315 9.19518 4.63635 9.32896 4.49933C9.62799 4.19724 9.92657 3.89336 10.2247 3.58768C10.2439 3.56871 10.262 3.54853 10.2786 3.52726C10.352 3.43475 10.3582 3.41425 10.2676 3.34898C10.1292 3.23996 9.98104 3.14398 9.82497 3.06227C9.54913 2.93327 9.24832 2.86642 8.9438 2.86646H8.9287C8.82698 2.86648 8.72537 2.87287 8.62445 2.88561L8.62284 2.88399L8.62311 2.88641ZM11.258 4.84619H11.2388C11.1082 4.84623 10.9791 4.87475 10.8606 4.92977C10.7421 4.98478 10.637 5.06496 10.5527 5.16472C10.5376 5.18144 10.5216 5.19737 10.5049 5.21246L10.0178 5.69013C9.85869 5.84954 9.68661 6.02297 9.51938 6.19019C9.38102 6.32856 9.24238 6.46396 9.10563 6.60259C8.96889 6.74123 8.82216 6.89551 8.67408 7.04034C8.52601 7.18518 8.36849 7.33703 8.21556 7.48619L7.67262 8.03372L6.66333 9.04327C6.21739 9.491 5.77209 9.93784 5.32741 10.3838C5.24164 10.4682 5.24002 10.4793 5.32741 10.5699C5.54076 10.7857 5.75734 10.9998 5.96422 11.2172C6.09221 11.3529 6.26113 11.4429 6.44512 11.4734C6.61871 11.5084 6.79805 11.5023 6.96892 11.4559C7.09693 11.4242 7.21509 11.3613 7.31281 11.2728L7.84146 10.7622C7.96553 10.643 8.09149 10.5251 8.21394 10.404C8.45912 10.1613 8.70105 9.91689 8.94623 9.67576C9.14528 9.47995 9.34919 9.28575 9.55121 9.08993L10.3801 8.28213C10.6379 8.02886 10.8974 7.77425 11.1585 7.52098C11.1759 7.49511 11.2 7.47451 11.2283 7.46141C11.2566 7.44832 11.2879 7.44323 11.3189 7.44671C11.3499 7.45019 11.3793 7.46209 11.404 7.48113C11.4287 7.50017 11.4477 7.52561 11.4589 7.5547C11.5916 7.74851 11.6626 7.97792 11.6626 8.21281C11.6625 8.25299 11.6605 8.29314 11.6564 8.3331C11.635 8.56991 11.5373 8.79337 11.378 8.96991C11.1868 9.17543 10.9831 9.36963 10.7846 9.56706C10.643 9.70705 10.4982 9.84406 10.3563 9.98567C10.1732 10.1672 9.99328 10.3519 9.81014 10.5335C9.78317 10.5637 9.75781 10.5955 9.72922 10.6241L9.54932 10.8105C9.41446 10.9453 9.27717 11.0764 9.14474 11.2115C9.01231 11.3467 8.86019 11.5047 8.71859 11.6523C8.70591 11.6666 8.69161 11.676 8.67894 11.6887C8.51953 11.8367 8.37308 11.9854 8.22176 12.1345C8.15029 12.2046 8.08178 12.2761 8.01165 12.3462C7.89082 12.469 7.76648 12.589 7.65023 12.7141C7.57875 12.7888 7.57875 12.835 7.66318 12.894C7.80178 13.0004 7.94933 13.0946 8.10417 13.1756C8.48933 13.3498 8.91617 13.4105 9.33462 13.3507C9.74997 13.3014 10.1396 13.1238 10.4494 12.8428C10.6848 12.6359 10.8952 12.4034 11.1148 12.1806C11.2739 12.0212 11.4333 11.851 11.6035 11.687L12.0636 11.2237C12.2039 11.0821 12.3423 10.9402 12.4841 10.8002C12.626 10.6602 12.8024 10.493 12.9615 10.3352C13.1207 10.1774 13.2801 10.017 13.4392 9.84811C13.5661 9.71891 13.6833 9.58053 13.7898 9.43409C13.9885 9.13396 14.1125 8.79069 14.1515 8.4329C14.1731 8.25518 14.1731 8.0755 14.1515 7.89778C14.1042 7.58155 13.9896 7.27914 13.8155 7.01095C13.6902 6.82118 13.5404 6.64886 13.3699 6.49848C12.9289 6.06073 12.4893 5.61974 12.058 5.17228C11.964 5.0676 11.849 4.98387 11.7205 4.92653C11.592 4.86919 11.4529 4.83952 11.3122 4.83944H11.3063L11.2585 4.84592L11.258 4.84619Z" fill="white"/>
</g>
<defs>
<linearGradient id="paint0_linear_2_3705" x1="2.00415" y1="3.3569" x2="14.8434" y2="12.1417" gradientUnits="userSpaceOnUse">
<stop stop-color="#FF3B3B"/>
<stop offset="1" stop-color="#FF9914"/>
</linearGradient>
<clipPath id="clip0_2_3705">
<rect width="16" height="16" fill="white" transform="translate(0.914062 0.000244141)"/>
</clipPath>
</defs>
</svg>
