<svg width="17" height="16" viewBox="0 0 17 16" fill="none" xmlns="http://www.w3.org/2000/svg">
<g clip-path="url(#clip0_2_3707)">
<path d="M8.26281 15.9985C12.6806 15.9985 16.2619 12.4172 16.2619 7.99938C16.2619 3.58158 12.6806 0.000244141 8.26281 0.000244141C3.84501 0.000244141 0.263672 3.58158 0.263672 7.99938C0.263672 12.4172 3.84501 15.9985 8.26281 15.9985Z" fill="url(#paint0_linear_2_3707)"/>
<path d="M5.62712 6.01058C5.56317 5.93121 5.46616 5.88711 5.36253 5.88711H3.22605C3.20841 5.88711 3.19298 5.8805 3.17975 5.86947C3.16872 5.85845 3.16211 5.84522 3.16211 5.82978V4.39003C3.16211 4.37459 3.16872 4.36137 3.17975 4.35034C3.19298 4.33711 3.20841 4.3305 3.22605 4.3327H5.4838C6.05265 4.3327 6.54433 4.56641 6.95884 5.03163L7.50784 5.7019L6.43849 7.00496L5.62712 6.01058ZM9.57377 5.02502C9.98607 4.56421 10.48 4.3327 11.0554 4.3327H13.3066C13.322 4.3305 13.3374 4.33711 13.3484 4.34593C13.3595 4.35696 13.3639 4.37239 13.3617 4.39003V5.82978C13.3617 5.84522 13.3573 5.85845 13.3484 5.86947C13.3374 5.8827 13.322 5.88931 13.3066 5.88711H11.1701C11.0686 5.88491 10.9716 5.93121 10.9055 6.01058L9.33124 7.92658L10.9121 9.85581C10.976 9.92857 11.0709 9.97267 11.1679 9.97046H13.3044C13.3198 9.96826 13.3374 9.97708 13.3462 9.9881C13.3551 10.0013 13.3617 10.019 13.3595 10.0344V11.4742C13.3595 11.4896 13.3551 11.5028 13.3462 11.5138C13.3352 11.5271 13.3198 11.5337 13.3044 11.5315H11.0554C10.48 11.5315 9.99048 11.2978 9.58038 10.8326L8.27071 9.23405L6.96104 10.8326C6.54874 11.2978 6.05485 11.5315 5.47939 11.5315H3.22605C3.21062 11.5337 3.19298 11.5249 3.18416 11.5138C3.17313 11.5006 3.16872 11.483 3.17093 11.4675V10.0278C3.17093 10.0124 3.17534 9.99912 3.18416 9.9881C3.19518 9.97487 3.21062 9.96826 3.22605 9.97046H5.36253C5.46396 9.97046 5.56097 9.92416 5.62712 9.84699L7.1727 7.95965L9.57377 5.02502Z" fill="#00D1FF"/>
</g>
<defs>
<linearGradient id="paint0_linear_2_3707" x1="8.26391" y1="0.000197839" x2="8.26391" y2="4.23348" gradientUnits="userSpaceOnUse">
<stop stop-color="#090220"/>
<stop offset="1" stop-color="#170659"/>
</linearGradient>
<clipPath id="clip0_2_3707">
<rect width="16" height="16" fill="white" transform="translate(0.263672 0.000244141)"/>
</clipPath>
</defs>
</svg>
