<svg width="18" height="16" viewBox="0 0 18 16" fill="none" xmlns="http://www.w3.org/2000/svg">
<g clip-path="url(#clip0_2_3708)">
<path fill-rule="evenodd" clip-rule="evenodd" d="M15.4614 6.06467C14.6308 5.27878 13.4579 4.62412 11.9359 4.20845H11.9271C8.3056 3.22316 7.01534 5.55369 9.94776 7.02284C13.2768 8.68845 13.7394 11.4163 11.8604 13.1223C11.3817 13.5563 9.82606 14.3685 8.39504 14.5635C6.12242 14.8788 3.60054 14.3957 1.55078 13.7447C2.66564 14.6106 3.93968 15.2493 5.30061 15.6243C8.49621 16.5041 12.356 15.856 14.9138 13.6325C17.4899 11.3899 17.7363 8.2112 15.4614 6.06467ZM11.9374 4.20918L11.9704 4.21871L11.9374 4.20918Z" fill="#008DD0"/>
<path fill-rule="evenodd" clip-rule="evenodd" d="M4.97498 0.806778C6.73877 0.0878657 8.66028 -0.155821 10.5477 0.100044C12.4351 0.355909 14.2224 1.10237 15.7311 2.26492C11.9043 1.04797 8.93521 1.15354 6.98736 1.93722L6.95876 1.94895C4.55345 2.93278 3.71991 4.94662 4.76678 6.76765C5.33054 7.74928 6.32463 8.48311 7.33265 8.98676C9.99821 10.3217 9.1786 12.3664 6.29237 11.9925C5.97204 11.9498 5.65507 11.8849 5.34374 11.7982C-0.323894 10.2506 -1.15303 5.4378 2.36733 2.37709C3.14446 1.71405 4.02546 1.18352 4.97498 0.806778Z" fill="#008DD0"/>
</g>
<defs>
<clipPath id="clip0_2_3708">
<rect width="16.7573" height="16" fill="white" transform="translate(0.263672 0.000244141)"/>
</clipPath>
</defs>
</svg>
