<svg width="17" height="16" viewBox="0 0 17 16" fill="none" xmlns="http://www.w3.org/2000/svg">
<g clip-path="url(#clip0_2_3710)">
<path d="M8.02148 16.0002C12.4398 16.0002 16.0215 12.4185 16.0215 8.00024C16.0215 3.58197 12.4398 0.000244141 8.02148 0.000244141C3.60321 0.000244141 0.0214844 3.58197 0.0214844 8.00024C0.0214844 12.4185 3.60321 16.0002 8.02148 16.0002Z" fill="#399B32"/>
<path d="M10.9665 3.73429C10.9125 3.95129 10.922 4.22929 10.982 4.25429C11.042 4.27979 11.193 4.13629 11.2815 3.97329C11.3665 3.82329 11.442 3.77879 11.5465 3.81729C11.685 3.87129 11.663 3.91929 11.379 4.16479C11.143 4.36929 11.0955 4.44279 11.159 4.50629C11.1965 4.54479 11.2245 4.53829 11.36 4.46479C11.53 4.37579 11.625 4.38179 11.625 4.48429C11.625 4.53179 11.562 4.57029 11.332 4.65929C11.168 4.72329 11.007 4.80629 10.9695 4.84779C10.894 4.93079 10.7615 5.19279 10.604 5.57879C10.4685 5.91379 10.339 6.15979 10.254 6.25529C10.1845 6.33179 9.95148 6.38029 9.45998 6.41829C9.22998 6.43729 9.20148 6.43429 9.18898 6.37979C9.15357 6.23121 9.1252 6.08105 9.10398 5.92979C9.10398 5.92029 9.22048 5.92329 9.36548 5.93329C9.62398 5.95229 9.88198 6.02229 10.002 6.10529C10.0935 6.16929 10.103 6.15979 10.144 5.98079C10.194 5.77679 10.3015 5.50879 10.465 5.17679C10.588 4.93079 10.5915 4.91179 10.5785 4.67879C10.563 4.42029 10.5185 4.30879 10.3645 4.13929C10.3075 4.07929 10.273 4.01179 10.2825 3.98629C10.2905 3.96669 10.2968 3.94645 10.3015 3.92579C10.3015 3.91929 10.3295 3.91279 10.3615 3.91279C10.399 3.91279 10.465 3.97029 10.525 4.05629C10.692 4.29279 10.7425 4.24779 10.7425 3.85529C10.7425 3.67679 10.755 3.60029 10.796 3.55529C10.859 3.48529 10.9095 3.48229 10.963 3.54579C10.9945 3.58429 10.9945 3.62579 10.9665 3.73429ZM8.46098 5.07129C8.48298 5.30779 8.52698 5.39029 8.66898 5.44129C8.72548 5.46379 8.80398 5.49629 8.84198 5.50879C8.93348 5.54679 8.95898 5.68379 9.05648 6.57779C9.16048 7.54779 9.18248 7.68529 9.28048 7.98529C9.42848 8.44129 9.41548 8.97129 9.24248 9.50429C9.15398 9.77879 9.05648 9.90329 8.85498 10.0118C8.45148 10.2253 8.03498 10.0693 7.71098 9.58379C7.46998 9.23379 7.38098 8.79879 7.46498 8.38079C7.51248 8.15729 7.53748 7.81929 7.51498 7.73579C7.50598 7.69479 7.40498 7.56729 7.29148 7.44579C6.93848 7.07879 6.56648 6.42129 6.63948 6.30329C6.66148 6.27129 6.67698 6.17229 6.67698 6.08629C6.67698 5.91079 6.62698 5.84029 6.40598 5.71629C6.26098 5.63329 6.25148 5.55029 6.37148 5.32029C6.43748 5.18629 6.47548 5.15779 6.80648 4.98829C7.14348 4.81629 7.29498 4.76829 7.79598 4.67879C8.00398 4.64029 8.15498 4.64379 8.26848 4.69179C8.40098 4.74929 8.43848 4.82229 8.46098 5.07179V5.07129ZM5.47948 6.26179C5.47948 6.42429 5.53298 6.58429 5.57098 6.54279C5.58698 6.52679 5.62098 6.43729 5.65298 6.34479C5.70298 6.18479 5.79498 6.08979 5.85798 6.13079C5.91148 6.16579 5.89248 6.35079 5.82298 6.46579C5.72848 6.62229 5.72848 6.91929 5.82648 7.11729C5.92398 7.30879 6.12548 7.51929 6.21398 7.51929C6.26748 7.51579 6.33048 7.43929 6.50398 7.14279L6.72398 6.76929L6.75898 6.99279C6.79398 7.24479 6.77798 7.32129 6.63598 7.56729C6.47848 7.84479 6.30198 8.06179 6.23598 8.06179C6.16048 8.06179 5.98998 7.89279 5.84498 7.67579C5.78848 7.58579 5.63098 7.41379 5.49848 7.28929L5.25598 7.06279L5.10798 7.08829C5.0174 7.10521 4.92561 7.11491 4.83348 7.11729C4.71998 7.12029 4.70748 7.11379 4.69848 7.03429C4.68848 6.96429 4.70448 6.94179 4.77048 6.92579C4.84234 6.91313 4.91576 6.91195 4.98798 6.92229C5.07598 6.93529 5.14248 6.92879 5.17698 6.90329C5.23048 6.86479 5.22748 6.85829 5.17398 6.79479C5.14248 6.75629 5.04798 6.70529 4.95948 6.67679C4.73948 6.60679 4.59698 6.51079 4.59698 6.43729C4.59698 6.34179 4.71698 6.31929 4.81448 6.39879C5.13948 6.66729 5.23048 6.70529 5.31598 6.61879C5.37598 6.55879 5.35998 6.44379 5.25898 6.24279C5.17098 6.06379 5.13898 5.89779 5.18648 5.85029C5.21798 5.81529 5.29998 5.82479 5.35648 5.86929C5.42298 5.92329 5.47948 6.09929 5.47948 6.26179ZM11.2435 9.13679C11.165 9.22029 10.938 9.48529 10.7395 9.72429C10.153 10.4328 10.0935 10.5093 10.1185 10.5353C10.1435 10.5603 10.6415 10.3403 10.755 10.2543C10.897 10.1423 11.155 9.86829 11.2025 9.77529C11.2245 9.73729 11.256 9.61929 11.2785 9.51679C11.316 9.32529 11.42 9.17879 11.5145 9.17879C11.5775 9.17879 11.606 9.25229 11.581 9.34779C11.538 9.45569 11.4853 9.55945 11.4235 9.65779C11.3445 9.78829 11.291 9.90629 11.297 9.91929C11.3285 9.96679 11.4455 9.94429 11.581 9.86479C11.6595 9.81979 11.773 9.70229 11.858 9.58079C12.025 9.34479 12.1385 9.24279 12.2395 9.24279C12.3245 9.24279 12.4255 9.35129 12.4035 9.41479C12.3935 9.44029 12.2485 9.56479 12.085 9.68979C11.8015 9.90329 11.713 10.0148 11.7635 10.0978C11.792 10.1458 12.0535 10.0818 12.331 9.95779C12.8035 9.74379 12.933 9.73079 13.0085 9.87429C13.0715 9.99279 12.917 10.0658 12.312 10.1998C12.145 10.2383 11.962 10.2988 11.9055 10.3338L11.8015 10.3978L11.874 10.4583C11.937 10.5098 12.003 10.5193 12.315 10.5193C12.5955 10.5193 12.7 10.5318 12.747 10.5668C12.807 10.6148 12.8035 10.6183 12.7155 10.6978C12.6585 10.7458 12.6055 10.7713 12.5735 10.7583C12.435 10.7008 11.9655 10.6148 11.795 10.6148C11.4895 10.6148 11.464 10.7268 11.7415 10.8348C11.8675 10.8863 11.915 10.9438 11.8895 11.0108C11.8615 11.0873 11.7855 11.0743 11.5115 10.9468C10.9565 10.6883 10.856 10.6753 10.1915 10.7618C9.87598 10.8033 9.78448 10.8068 9.74998 10.7743C9.68048 10.7168 9.69298 10.6628 9.79098 10.5768C9.86948 10.5098 10.478 9.37679 10.4495 9.35129C10.4335 9.33529 9.81948 9.55529 9.37448 9.74029C9.31798 9.76279 9.31798 9.75979 9.37448 9.67029C9.58298 9.32879 10.1845 8.94529 10.8845 8.70629C11.247 8.58179 11.269 8.57879 11.42 8.58179C11.521 8.58829 11.5495 8.60129 11.5555 8.65179C11.5655 8.73179 11.439 8.92979 11.2435 9.13679ZM4.01748 10.2643C4.13398 10.4303 4.40198 10.7113 4.44248 10.7113C4.48398 10.7113 4.44898 10.4333 4.37348 10.1428C4.30398 9.87779 4.29798 9.75029 4.35148 9.69629C4.39248 9.65479 4.53148 9.64529 4.58798 9.68329C4.60998 9.69629 4.63498 9.87829 4.65398 10.1528C4.68898 10.6538 4.71398 10.7463 4.83648 10.8258C4.91548 10.8803 4.92148 10.8803 4.95948 10.8293C4.97848 10.8003 5.00048 10.6823 5.00398 10.5643C5.01298 10.2483 5.08898 10.1078 5.22398 10.1528C5.32848 10.1843 5.33798 10.3153 5.25898 10.5643C5.16748 10.8543 5.15198 11.0653 5.19298 11.3493C5.25298 11.7358 5.39798 12.0803 5.46998 12.0068C5.48598 11.9943 5.49498 11.5633 5.49848 11.0528C5.50148 10.2548 5.50798 10.0953 5.55548 9.94529C5.64348 9.67029 5.66248 9.65779 6.00898 9.65779C6.57948 9.65779 7.63848 9.81129 7.77998 9.91279C7.93148 10.0218 7.89998 10.0603 7.60048 10.1558C6.94798 10.3568 6.62998 10.3953 6.23598 10.3188C6.10698 10.2928 5.98998 10.2773 5.97748 10.2838C5.96498 10.2898 5.97748 10.3633 6.00248 10.4463C6.08148 10.7048 6.05948 10.8643 5.87348 11.4323C5.77598 11.7228 5.68448 12.0613 5.67198 12.1823C5.65948 12.3038 5.62448 12.4248 5.60548 12.4503C5.52348 12.5493 5.43248 12.5048 5.28398 12.2973C5.09848 12.0423 4.80498 11.7613 4.63498 11.6718C4.56248 11.6333 4.32298 11.5633 4.10548 11.5118C3.71498 11.4228 3.58898 11.3618 3.63598 11.2858C3.65198 11.2568 3.72098 11.2538 3.87248 11.2663C4.14948 11.2953 4.17198 11.2568 3.98598 11.0813C3.78316 10.9012 3.55074 10.7576 3.29898 10.6568C3.06248 10.5613 3.02148 10.5293 3.02148 10.4528C3.02148 10.3918 3.10948 10.3278 3.19498 10.3278C3.22298 10.3278 3.34948 10.4143 3.47198 10.5228C3.73048 10.7428 3.90998 10.8483 4.00798 10.8328C4.18798 10.8068 3.97298 10.3888 3.63598 10.1078C3.51298 10.0058 3.39348 9.88129 3.36798 9.83329C3.32698 9.75329 3.32698 9.74429 3.38398 9.70279C3.43628 9.67237 3.49672 9.65892 3.55698 9.66429C3.65498 9.67429 3.67698 9.69329 3.79348 9.89729C3.86298 10.0218 3.96348 10.1873 4.01748 10.2643ZM8.53648 4.78429C8.69748 4.75929 8.73148 4.88979 8.73148 4.88679C8.81698 5.10679 8.76648 5.38179 8.76648 5.38179C8.65298 5.35929 8.56798 5.21879 8.56798 5.21879C8.50198 5.06229 8.53648 4.78479 8.53648 4.78479V4.78429ZM6.26448 5.69429C6.26448 5.69429 6.50698 5.82829 6.59848 5.97179C6.59848 5.97179 6.66148 6.12179 6.61398 6.23029C6.61398 6.23029 6.36198 6.11229 6.23598 5.91429C6.23598 5.91779 6.15398 5.81229 6.26448 5.69429Z" fill="white"/>
</g>
<defs>
<clipPath id="clip0_2_3710">
<rect width="16" height="16" fill="white" transform="translate(0.0214844 0.000244141)"/>
</clipPath>
</defs>
</svg>
