<svg width="20" height="16" viewBox="0 0 20 16" fill="none" xmlns="http://www.w3.org/2000/svg">
<g clip-path="url(#clip0_2_3713)">
<path d="M19.3098 15.6543V15.6447C19.3101 15.6405 19.3101 15.6362 19.3098 15.6319L9.88874 0.131216L9.87594 0.112013C9.85843 0.0849669 9.83575 0.0616436 9.80921 0.0433797C9.78266 0.0251159 9.75277 0.0122706 9.72126 0.00558045C9.68974 -0.00110975 9.65721 -0.00151336 9.62553 0.00439276C9.59386 0.0102989 9.56366 0.0223986 9.53667 0.0399982C9.5079 0.0579334 9.48289 0.0813074 9.46306 0.108812L9.45026 0.129616C8.81866 1.17302 8.1828 2.21377 7.54267 3.25184C7.47948 3.34274 7.44562 3.4508 7.44562 3.5615C7.44562 3.67221 7.47948 3.78026 7.54267 3.87116C8.38871 5.24744 9.23208 6.62425 10.0728 8.00159C10.1414 8.09992 10.1782 8.21694 10.1782 8.33686C10.1782 8.45677 10.1414 8.5738 10.0728 8.67212C8.6869 10.951 7.22261 13.3467 5.82393 15.6351C5.79323 15.6929 5.78659 15.7605 5.80548 15.8231C5.82436 15.8858 5.86723 15.9384 5.92475 15.9696C5.96016 15.9886 5.99977 15.9985 6.03997 15.9984H10.1032C10.1478 15.9987 10.1917 15.9868 10.2301 15.9639C10.2684 15.9411 10.2998 15.9082 10.3208 15.8688L10.4601 15.6351L12.3436 12.5401C12.359 12.5116 12.3799 12.4864 12.4052 12.466C12.4304 12.4457 12.4594 12.4305 12.4905 12.4214C12.5216 12.4123 12.5542 12.4095 12.5864 12.4131C12.6186 12.4167 12.6498 12.4267 12.6781 12.4425C12.7124 12.4605 12.7416 12.487 12.7629 12.5193L14.6289 15.5599L14.8017 15.8432C14.8231 15.8818 14.8544 15.914 14.8923 15.9365C14.9303 15.959 14.9736 15.971 15.0178 15.9712H15.1314C15.1506 15.9728 15.1698 15.9728 15.189 15.9712H19.081C19.1461 15.9712 19.2085 15.9454 19.2547 15.8996C19.3009 15.8537 19.327 15.7914 19.3274 15.7263C19.3252 15.7016 19.3192 15.6773 19.3098 15.6543Z" fill="black"/>
<path d="M8.47928 8.82514L8.6153 8.60109C8.67141 8.52057 8.70149 8.42478 8.70149 8.32664C8.70149 8.22849 8.67141 8.13271 8.6153 8.05218L7.77994 6.69831L6.81974 5.1508C6.80287 5.12311 6.78067 5.09904 6.75442 5.07999C6.72817 5.06095 6.6984 5.04731 6.66684 5.03986C6.63528 5.03242 6.60255 5.03132 6.57056 5.03663C6.53856 5.04194 6.50795 5.05355 6.48048 5.07079C6.44354 5.09282 6.41316 5.12431 6.39246 5.162L0.0503909 15.6361C0.0197601 15.6936 0.0131712 15.761 0.0320665 15.8233C0.0509618 15.8857 0.0938022 15.9381 0.151211 15.969C0.186699 15.9894 0.227064 16 0.268034 15.9994H3.99358C4.03776 15.9994 4.08112 15.9875 4.11913 15.9649C4.15714 15.9424 4.18839 15.9101 4.20962 15.8713L4.35205 15.6345C4.35848 15.6258 4.36436 15.6167 4.36965 15.6073L4.52969 15.3512C5.85635 13.1508 7.12701 11.0496 8.45687 8.86034C8.4651 8.84911 8.47258 8.83735 8.47928 8.82514Z" fill="black"/>
</g>
<defs>
<clipPath id="clip0_2_3713">
<rect width="19.3063" height="16" fill="white" transform="translate(0.0214844 0.000244141)"/>
</clipPath>
</defs>
</svg>
