<svg width="17" height="16" viewBox="0 0 17 16" fill="none" xmlns="http://www.w3.org/2000/svg">
<g clip-path="url(#clip0_2_3714)">
<path d="M8.32812 16.0002C12.7464 16.0002 16.3281 12.4185 16.3281 8.00024C16.3281 3.58197 12.7464 0.000244141 8.32812 0.000244141C3.90985 0.000244141 0.328125 3.58197 0.328125 8.00024C0.328125 12.4185 3.90985 16.0002 8.32812 16.0002Z" fill="#1B2D45"/>
<path d="M12.8565 7.35104V5.38699L8.32862 2.76709L5.9893 4.12088L7.84111 5.20462L7.38167 5.49922L5.51231 4.39795L3.80078 5.3905L3.8078 10.6268L6.15414 11.9701V9.84469L6.60306 10.1042V12.2261L8.35668 13.2397L12.86 10.6093V7.88064L11.0362 8.95034V8.43127L12.8565 7.35104ZM6.14011 6.73728L6.38912 6.6005L8.23392 7.6667L10.198 6.56893L10.4926 6.73728V7.03189L8.63375 8.11211V10.3217L8.32862 10.5286L8.09013 10.3602V8.24539L6.14011 7.10554V6.73728ZM7.13616 9.29756L5.20718 8.23487V10.3497L4.70565 10.0656L4.69513 5.93412L5.46672 5.47467L5.94019 5.76928L5.18614 6.22522L5.18965 7.6211L7.13265 8.76095V9.29756H7.13616ZM11.9481 9.51501V10.0867L8.31459 12.177L7.55001 11.7246V11.1809L8.32862 11.6193L9.5772 10.8969V8.64872L10.0472 8.3471L10.0612 10.6093L11.9481 9.51501ZM10.1875 5.47117L8.24795 6.59348L7.81656 6.32693L9.71047 5.20812L7.84813 4.1314L8.32862 3.85083L11.9341 5.94114V6.81093L11.429 7.10904V6.2147L10.1875 5.47117Z" fill="#719CD0"/>
</g>
<defs>
<clipPath id="clip0_2_3714">
<rect width="16" height="16" fill="white" transform="translate(0.328125 0.000244141)"/>
</clipPath>
</defs>
</svg>
