<svg width="19" height="16" viewBox="0 0 19 16" fill="none" xmlns="http://www.w3.org/2000/svg">
<g clip-path="url(#clip0_2_3715)">
<path fill-rule="evenodd" clip-rule="evenodd" d="M3.69745 0.0816195L0.343166 7.12582C0.329753 7.15135 0.325133 7.18058 0.330023 7.209C0.334913 7.23741 0.349039 7.26342 0.370212 7.28299L9.42485 15.9638C9.4509 15.9872 9.48473 16.0002 9.51981 16.0002C9.55488 16.0002 9.58872 15.9872 9.61477 15.9638L18.6748 7.28299C18.6958 7.26328 18.7097 7.23728 18.7146 7.20893C18.7195 7.18058 18.715 7.15141 18.7019 7.12582L15.3476 0.0816195C15.3387 0.057118 15.3223 0.0360544 15.3007 0.0214312C15.2791 0.00680798 15.2534 -0.000628449 15.2274 0.000181919H3.81645C3.79073 0.000885611 3.76576 0.00892556 3.74446 0.0233542C3.72316 0.0377828 3.70643 0.0579988 3.69625 0.0816195H3.69745Z" fill="url(#paint0_linear_2_3715)"/>
<path fill-rule="evenodd" clip-rule="evenodd" d="M10.6878 7.84625C10.6229 7.85166 10.287 7.87329 9.539 7.87329C8.94309 7.87329 8.52028 7.85706 8.36852 7.84625C6.06572 7.74347 4.34801 7.34229 4.34801 6.86538C4.34801 6.38848 6.06572 5.98219 8.36852 5.87941V7.44537C8.51877 7.45618 8.9485 7.48323 9.54441 7.48323C10.2596 7.48323 10.6172 7.45078 10.6824 7.44537V5.87941C12.9798 5.98219 14.6975 6.38337 14.6975 6.85997C14.6975 7.33658 12.9846 7.74347 10.6878 7.84625ZM10.6878 5.72225V4.31857H13.8958V2.17834H5.16089V4.31857H8.36852V5.72225C5.7622 5.84245 3.80078 6.35602 3.80078 6.97928C3.80078 7.60253 5.7622 8.1119 8.36852 8.23631V12.7286H10.6878V8.23631C13.2888 8.1161 15.2451 7.60223 15.2451 6.98469C15.2451 6.36714 13.2888 5.84125 10.6878 5.72255V5.72225Z" fill="white"/>
</g>
<defs>
<linearGradient id="paint0_linear_2_3715" x1="0.0371306" y1="7.71939" x2="17.8724" y2="7.71939" gradientUnits="userSpaceOnUse">
<stop stop-color="#D8B35D"/>
<stop offset="1" stop-color="#F5E7BF"/>
</linearGradient>
<clipPath id="clip0_2_3715">
<rect width="18.3881" height="16" fill="white" transform="translate(0.328125 0.000244141)"/>
</clipPath>
</defs>
</svg>
