<svg width="19" height="16" viewBox="0 0 19 16" fill="none" xmlns="http://www.w3.org/2000/svg">
<g clip-path="url(#clip0_2_3716)">
<path fill-rule="evenodd" clip-rule="evenodd" d="M4.04438 0.535386L0.887977 7.16541C0.875966 7.19007 0.872159 7.21793 0.877115 7.2449C0.88207 7.27188 0.895527 7.29657 0.915517 7.31535L9.4402 15.484C9.46441 15.5073 9.49666 15.5202 9.53021 15.5202C9.56376 15.5202 9.59601 15.5073 9.62023 15.484L18.1449 7.31586C18.1649 7.29708 18.1784 7.27239 18.1833 7.24541C18.1883 7.21844 18.1845 7.19058 18.1724 7.16592L15.016 0.535896C15.0059 0.513629 14.9895 0.494767 14.9689 0.481563C14.9482 0.468359 14.9243 0.461371 14.8998 0.461436H4.16168C4.13708 0.46113 4.11291 0.467949 4.0921 0.48107C4.07128 0.494192 4.05471 0.513056 4.04438 0.535386Z" fill="#50AF95"/>
<path fill-rule="evenodd" clip-rule="evenodd" d="M10.6256 7.84652C10.5644 7.85111 10.2482 7.86997 9.54289 7.86997C8.98189 7.86997 8.58358 7.85315 8.44384 7.84652C6.27583 7.75114 4.65759 7.37374 4.65759 6.92188C4.65759 6.47002 6.27583 6.09313 8.44384 5.99623V7.47064C8.58562 7.48084 8.99158 7.50481 9.55258 7.50481C10.2258 7.50481 10.5629 7.47676 10.6236 7.47115V5.99725C12.787 6.09364 14.4017 6.47104 14.4017 6.92188C14.4017 7.37272 12.7875 7.75012 10.6236 7.846L10.6256 7.84652ZM10.6256 5.84476V4.52538H13.6448V2.51343H5.42463V4.52538H8.44333V5.84425C5.98971 5.95696 4.14453 6.44299 4.14453 7.02541C4.14453 7.60783 5.98971 8.09336 8.44333 8.20658V12.4345H10.6251V8.20505C13.0731 8.09234 14.9152 7.60681 14.9152 7.0249C14.9152 6.44299 13.0747 5.95747 10.6251 5.84425L10.6256 5.84476Z" fill="white"/>
</g>
<defs>
<clipPath id="clip0_2_3716">
<rect width="17.8824" height="16" fill="white" transform="translate(0.714844 0.000244141)"/>
</clipPath>
</defs>
</svg>
