<svg width="28" height="16" viewBox="0 0 28 16" fill="none" xmlns="http://www.w3.org/2000/svg">
<g clip-path="url(#clip0_2_3719)">
<path d="M8.83398 16.0002C13.2523 16.0002 16.834 12.4185 16.834 8.00024C16.834 3.58197 13.2523 0.000244141 8.83398 0.000244141C4.41571 0.000244141 0.833984 3.58197 0.833984 8.00024C0.833984 12.4185 4.41571 16.0002 8.83398 16.0002Z" fill="url(#paint0_linear_2_3719)"/>
<path d="M7.9081 10.7065C8.2392 10.7065 8.50761 10.4381 8.50761 10.107C8.50761 9.77586 8.2392 9.50745 7.9081 9.50745C7.577 9.50745 7.30859 9.77586 7.30859 10.107C7.30859 10.4381 7.577 10.7065 7.9081 10.7065Z" fill="black"/>
<path d="M9.67763 10.7065C10.0087 10.7065 10.2771 10.4381 10.2771 10.107C10.2771 9.77586 10.0087 9.50745 9.67763 9.50745C9.34653 9.50745 9.07812 9.77586 9.07812 10.107C9.07812 10.4381 9.34653 10.7065 9.67763 10.7065Z" fill="black"/>
<path d="M11.4491 10.7065C11.7802 10.7065 12.0486 10.4381 12.0486 10.107C12.0486 9.77586 11.7802 9.50745 11.4491 9.50745C11.118 9.50745 10.8496 9.77586 10.8496 10.107C10.8496 10.4381 11.118 10.7065 11.4491 10.7065Z" fill="black"/>
<path d="M13.2206 10.7065C13.5517 10.7065 13.8201 10.4381 13.8201 10.107C13.8201 9.77586 13.5517 9.50745 13.2206 9.50745C12.8895 9.50745 12.6211 9.77586 12.6211 10.107C12.6211 10.4381 12.8895 10.7065 13.2206 10.7065Z" fill="black"/>
<path d="M14.9921 10.7065C15.3232 10.7065 15.5916 10.4381 15.5916 10.107C15.5916 9.77586 15.3232 9.50745 14.9921 9.50745C14.661 9.50745 14.3926 9.77586 14.3926 10.107C14.3926 10.4381 14.661 10.7065 14.9921 10.7065Z" fill="black"/>
<path d="M16.7616 10.7065C17.0927 10.7065 17.3611 10.4381 17.3611 10.107C17.3611 9.77586 17.0927 9.50745 16.7616 9.50745C16.4305 9.50745 16.1621 9.77586 16.1621 10.107C16.1621 10.4381 16.4305 10.7065 16.7616 10.7065Z" fill="black"/>
<path d="M18.5331 10.7065C18.8642 10.7065 19.1326 10.4381 19.1326 10.107C19.1326 9.77586 18.8642 9.50745 18.5331 9.50745C18.202 9.50745 17.9336 9.77586 17.9336 10.107C17.9336 10.4381 18.202 10.7065 18.5331 10.7065Z" fill="black"/>
<path d="M20.3026 10.7065C20.6337 10.7065 20.9021 10.4381 20.9021 10.107C20.9021 9.77586 20.6337 9.50745 20.3026 9.50745C19.9715 9.50745 19.7031 9.77586 19.7031 10.107C19.7031 10.4381 19.9715 10.7065 20.3026 10.7065Z" fill="black"/>
<path d="M22.0741 10.7065C22.4052 10.7065 22.6736 10.4381 22.6736 10.107C22.6736 9.77586 22.4052 9.50745 22.0741 9.50745C21.743 9.50745 21.4746 9.77586 21.4746 10.107C21.4746 10.4381 21.743 10.7065 22.0741 10.7065Z" fill="black"/>
<path d="M23.0593 12.3147C23.2872 12.3147 23.472 12.1299 23.472 11.9019C23.472 11.6739 23.2872 11.4891 23.0593 11.4891C22.8313 11.4891 22.6465 11.6739 22.6465 11.9019C22.6465 12.1299 22.8313 12.3147 23.0593 12.3147Z" fill="black"/>
<path d="M21.2292 12.3147C21.4572 12.3147 21.642 12.1299 21.642 11.9019C21.642 11.6739 21.4572 11.4891 21.2292 11.4891C21.0012 11.4891 20.8164 11.6739 20.8164 11.9019C20.8164 12.1299 21.0012 12.3147 21.2292 12.3147Z" fill="black"/>
<path d="M19.4011 12.3147C19.629 12.3147 19.8138 12.1299 19.8138 11.9019C19.8138 11.6739 19.629 11.4891 19.4011 11.4891C19.1731 11.4891 18.9883 11.6739 18.9883 11.9019C18.9883 12.1299 19.1731 12.3147 19.4011 12.3147Z" fill="black"/>
<path d="M17.571 12.3147C17.799 12.3147 17.9838 12.1299 17.9838 11.9019C17.9838 11.6739 17.799 11.4891 17.571 11.4891C17.343 11.4891 17.1582 11.6739 17.1582 11.9019C17.1582 12.1299 17.343 12.3147 17.571 12.3147Z" fill="black"/>
<path d="M15.7409 12.3147C15.9689 12.3147 16.1537 12.1299 16.1537 11.9019C16.1537 11.6739 15.9689 11.4891 15.7409 11.4891C15.5129 11.4891 15.3281 11.6739 15.3281 11.9019C15.3281 12.1299 15.5129 12.3147 15.7409 12.3147Z" fill="black"/>
<path d="M13.9108 12.3147C14.1388 12.3147 14.3236 12.1299 14.3236 11.9019C14.3236 11.6739 14.1388 11.4891 13.9108 11.4891C13.6829 11.4891 13.498 11.6739 13.498 11.9019C13.498 12.1299 13.6829 12.3147 13.9108 12.3147Z" fill="black"/>
<path d="M12.0807 12.3147C12.3087 12.3147 12.4935 12.1299 12.4935 11.9019C12.4935 11.6739 12.3087 11.4891 12.0807 11.4891C11.8528 11.4891 11.668 11.6739 11.668 11.9019C11.668 12.1299 11.8528 12.3147 12.0807 12.3147Z" fill="black"/>
<path d="M10.2507 12.3147C10.4786 12.3147 10.6634 12.1299 10.6634 11.9019C10.6634 11.6739 10.4786 11.4891 10.2507 11.4891C10.0227 11.4891 9.83789 11.6739 9.83789 11.9019C9.83789 12.1299 10.0227 12.3147 10.2507 12.3147Z" fill="black"/>
<path d="M8.42059 12.3147C8.64856 12.3147 8.83336 12.1299 8.83336 11.9019C8.83336 11.6739 8.64856 11.4891 8.42059 11.4891C8.19262 11.4891 8.00781 11.6739 8.00781 11.9019C8.00781 12.1299 8.19262 12.3147 8.42059 12.3147Z" fill="black"/>
<path d="M24.0313 13.564C24.2525 13.564 24.4318 13.3847 24.4318 13.1636C24.4318 12.9424 24.2525 12.7631 24.0313 12.7631C23.8102 12.7631 23.6309 12.9424 23.6309 13.1636C23.6309 13.3847 23.8102 13.564 24.0313 13.564Z" fill="black"/>
<path d="M22.1759 13.564C22.3971 13.564 22.5764 13.3847 22.5764 13.1636C22.5764 12.9424 22.3971 12.7631 22.1759 12.7631C21.9547 12.7631 21.7754 12.9424 21.7754 13.1636C21.7754 13.3847 21.9547 13.564 22.1759 13.564Z" fill="black"/>
<path d="M20.3185 13.564C20.5396 13.564 20.719 13.3847 20.719 13.1636C20.719 12.9424 20.5396 12.7631 20.3185 12.7631C20.0973 12.7631 19.918 12.9424 19.918 13.1636C19.918 13.3847 20.0973 13.564 20.3185 13.564Z" fill="black"/>
<path d="M18.4649 13.564C18.6861 13.564 18.8654 13.3847 18.8654 13.1636C18.8654 12.9424 18.6861 12.7631 18.4649 12.7631C18.2438 12.7631 18.0645 12.9424 18.0645 13.1636C18.0645 13.3847 18.2438 13.564 18.4649 13.564Z" fill="black"/>
<path d="M16.6075 13.564C16.8287 13.564 17.008 13.3847 17.008 13.1636C17.008 12.9424 16.8287 12.7631 16.6075 12.7631C16.3863 12.7631 16.207 12.9424 16.207 13.1636C16.207 13.3847 16.3863 13.564 16.6075 13.564Z" fill="black"/>
<path d="M14.7521 13.564C14.9732 13.564 15.1526 13.3847 15.1526 13.1636C15.1526 12.9424 14.9732 12.7631 14.7521 12.7631C14.5309 12.7631 14.3516 12.9424 14.3516 13.1636C14.3516 13.3847 14.5309 13.564 14.7521 13.564Z" fill="black"/>
<path d="M12.8966 13.564C13.1178 13.564 13.2971 13.3847 13.2971 13.1636C13.2971 12.9424 13.1178 12.7631 12.8966 12.7631C12.6754 12.7631 12.4961 12.9424 12.4961 13.1636C12.4961 13.3847 12.6754 13.564 12.8966 13.564Z" fill="black"/>
<path d="M11.0411 13.564C11.2623 13.564 11.4416 13.3847 11.4416 13.1636C11.4416 12.9424 11.2623 12.7631 11.0411 12.7631C10.8199 12.7631 10.6406 12.9424 10.6406 13.1636C10.6406 13.3847 10.8199 13.564 11.0411 13.564Z" fill="black"/>
<path d="M9.18369 13.564C9.40488 13.564 9.58419 13.3847 9.58419 13.1636C9.58419 12.9424 9.40488 12.7631 9.18369 12.7631C8.96251 12.7631 8.7832 12.9424 8.7832 13.1636C8.7832 13.3847 8.96251 13.564 9.18369 13.564Z" fill="black"/>
<path d="M25.3254 14.7423C25.4944 14.7423 25.6313 14.6053 25.6313 14.4364C25.6313 14.2674 25.4944 14.1305 25.3254 14.1305C25.1565 14.1305 25.0195 14.2674 25.0195 14.4364C25.0195 14.6053 25.1565 14.7423 25.3254 14.7423Z" fill="black"/>
<path d="M23.4446 14.7423C23.6135 14.7423 23.7505 14.6053 23.7505 14.4364C23.7505 14.2674 23.6135 14.1305 23.4446 14.1305C23.2756 14.1305 23.1387 14.2674 23.1387 14.4364C23.1387 14.6053 23.2756 14.7423 23.4446 14.7423Z" fill="black"/>
<path d="M21.5637 14.7423C21.7327 14.7423 21.8696 14.6053 21.8696 14.4364C21.8696 14.2674 21.7327 14.1305 21.5637 14.1305C21.3948 14.1305 21.2578 14.2674 21.2578 14.4364C21.2578 14.6053 21.3948 14.7423 21.5637 14.7423Z" fill="black"/>
<path d="M19.6848 14.7423C19.8537 14.7423 19.9907 14.6053 19.9907 14.4364C19.9907 14.2674 19.8537 14.1305 19.6848 14.1305C19.5159 14.1305 19.3789 14.2674 19.3789 14.4364C19.3789 14.6053 19.5159 14.7423 19.6848 14.7423Z" fill="black"/>
<path d="M17.8039 14.7423C17.9729 14.7423 18.1098 14.6053 18.1098 14.4364C18.1098 14.2674 17.9729 14.1305 17.8039 14.1305C17.635 14.1305 17.498 14.2674 17.498 14.4364C17.498 14.6053 17.635 14.7423 17.8039 14.7423Z" fill="black"/>
<path d="M15.9231 14.7423C16.092 14.7423 16.229 14.6053 16.229 14.4364C16.229 14.2674 16.092 14.1305 15.9231 14.1305C15.7541 14.1305 15.6172 14.2674 15.6172 14.4364C15.6172 14.6053 15.7541 14.7423 15.9231 14.7423Z" fill="black"/>
<path d="M14.0422 14.7423C14.2112 14.7423 14.3481 14.6053 14.3481 14.4364C14.3481 14.2674 14.2112 14.1305 14.0422 14.1305C13.8733 14.1305 13.7363 14.2674 13.7363 14.4364C13.7363 14.6053 13.8733 14.7423 14.0422 14.7423Z" fill="black"/>
<path d="M12.1614 14.7423C12.3303 14.7423 12.4673 14.6053 12.4673 14.4364C12.4673 14.2674 12.3303 14.1305 12.1614 14.1305C11.9924 14.1305 11.8555 14.2674 11.8555 14.4364C11.8555 14.6053 11.9924 14.7423 12.1614 14.7423Z" fill="black"/>
<path d="M10.2805 14.7423C10.4494 14.7423 10.5864 14.6053 10.5864 14.4364C10.5864 14.2674 10.4494 14.1305 10.2805 14.1305C10.1116 14.1305 9.97461 14.2674 9.97461 14.4364C9.97461 14.6053 10.1116 14.7423 10.2805 14.7423Z" fill="black"/>
<path d="M26.8323 15.8049C26.9619 15.8049 27.0669 15.6998 27.0669 15.5702C27.0669 15.4406 26.9619 15.3356 26.8323 15.3356C26.7027 15.3356 26.5977 15.4406 26.5977 15.5702C26.5977 15.6998 26.7027 15.8049 26.8323 15.8049Z" fill="black"/>
<path d="M24.9358 15.8049C25.0654 15.8049 25.1705 15.6998 25.1705 15.5702C25.1705 15.4406 25.0654 15.3356 24.9358 15.3356C24.8062 15.3356 24.7012 15.4406 24.7012 15.5702C24.7012 15.6998 24.8062 15.8049 24.9358 15.8049Z" fill="black"/>
<path d="M23.0393 15.8049C23.1689 15.8049 23.274 15.6998 23.274 15.5702C23.274 15.4406 23.1689 15.3356 23.0393 15.3356C22.9097 15.3356 22.8047 15.4406 22.8047 15.5702C22.8047 15.6998 22.9097 15.8049 23.0393 15.8049Z" fill="black"/>
<path d="M21.1428 15.8049C21.2724 15.8049 21.3775 15.6998 21.3775 15.5702C21.3775 15.4406 21.2724 15.3356 21.1428 15.3356C21.0133 15.3356 20.9082 15.4406 20.9082 15.5702C20.9082 15.6998 21.0133 15.8049 21.1428 15.8049Z" fill="black"/>
<path d="M19.2483 15.8049C19.3779 15.8049 19.483 15.6998 19.483 15.5702C19.483 15.4406 19.3779 15.3356 19.2483 15.3356C19.1187 15.3356 19.0137 15.4406 19.0137 15.5702C19.0137 15.6998 19.1187 15.8049 19.2483 15.8049Z" fill="black"/>
<path d="M17.3518 15.8049C17.4814 15.8049 17.5865 15.6998 17.5865 15.5702C17.5865 15.4406 17.4814 15.3356 17.3518 15.3356C17.2222 15.3356 17.1172 15.4406 17.1172 15.5702C17.1172 15.6998 17.2222 15.8049 17.3518 15.8049Z" fill="black"/>
<path d="M15.4553 15.8049C15.5849 15.8049 15.69 15.6998 15.69 15.5702C15.69 15.4406 15.5849 15.3356 15.4553 15.3356C15.3258 15.3356 15.2207 15.4406 15.2207 15.5702C15.2207 15.6998 15.3258 15.8049 15.4553 15.8049Z" fill="black"/>
<path d="M13.5608 15.8049C13.6904 15.8049 13.7955 15.6998 13.7955 15.5702C13.7955 15.4406 13.6904 15.3356 13.5608 15.3356C13.4312 15.3356 13.3262 15.4406 13.3262 15.5702C13.3262 15.6998 13.4312 15.8049 13.5608 15.8049Z" fill="black"/>
<path d="M11.6624 15.8049C11.792 15.8049 11.897 15.6998 11.897 15.5702C11.897 15.4406 11.792 15.3356 11.6624 15.3356C11.5328 15.3356 11.4277 15.4406 11.4277 15.5702C11.4277 15.6998 11.5328 15.8049 11.6624 15.8049Z" fill="black"/>
<path d="M7.04559 8.82567C7.27356 8.82567 7.45837 8.64087 7.45837 8.4129C7.45837 8.18493 7.27356 8.00012 7.04559 8.00012C6.81762 8.00012 6.63281 8.18493 6.63281 8.4129C6.63281 8.64087 6.81762 8.82567 7.04559 8.82567Z" fill="black"/>
<path d="M8.87371 8.82567C9.10168 8.82567 9.28649 8.64087 9.28649 8.4129C9.28649 8.18493 9.10168 8.00012 8.87371 8.00012C8.64574 8.00012 8.46094 8.18493 8.46094 8.4129C8.46094 8.64087 8.64574 8.82567 8.87371 8.82567Z" fill="black"/>
<path d="M10.7057 8.82567C10.9337 8.82567 11.1185 8.64087 11.1185 8.4129C11.1185 8.18493 10.9337 8.00012 10.7057 8.00012C10.4778 8.00012 10.293 8.18493 10.293 8.4129C10.293 8.64087 10.4778 8.82567 10.7057 8.82567Z" fill="black"/>
<path d="M12.5339 8.82567C12.7618 8.82567 12.9466 8.64087 12.9466 8.4129C12.9466 8.18493 12.7618 8.00012 12.5339 8.00012C12.3059 8.00012 12.1211 8.18493 12.1211 8.4129C12.1211 8.64087 12.3059 8.82567 12.5339 8.82567Z" fill="black"/>
<path d="M14.364 8.82567C14.5919 8.82567 14.7767 8.64087 14.7767 8.4129C14.7767 8.18493 14.5919 8.00012 14.364 8.00012C14.136 8.00012 13.9512 8.18493 13.9512 8.4129C13.9512 8.64087 14.136 8.82567 14.364 8.82567Z" fill="black"/>
<path d="M16.196 8.82567C16.4239 8.82567 16.6087 8.64087 16.6087 8.4129C16.6087 8.18493 16.4239 8.00012 16.196 8.00012C15.968 8.00012 15.7832 8.18493 15.7832 8.4129C15.7832 8.64087 15.968 8.82567 16.196 8.82567Z" fill="black"/>
<path d="M18.0241 8.82567C18.2521 8.82567 18.4369 8.64087 18.4369 8.4129C18.4369 8.18493 18.2521 8.00012 18.0241 8.00012C17.7961 8.00012 17.6113 8.18493 17.6113 8.4129C17.6113 8.64087 17.7961 8.82567 18.0241 8.82567Z" fill="black"/>
<path d="M19.8542 8.82567C20.0822 8.82567 20.267 8.64087 20.267 8.4129C20.267 8.18493 20.0822 8.00012 19.8542 8.00012C19.6262 8.00012 19.4414 8.18493 19.4414 8.4129C19.4414 8.64087 19.6262 8.82567 19.8542 8.82567Z" fill="black"/>
<path d="M21.6843 8.82567C21.9122 8.82567 22.097 8.64087 22.097 8.4129C22.097 8.18493 21.9122 8.00012 21.6843 8.00012C21.4563 8.00012 21.2715 8.18493 21.2715 8.4129C21.2715 8.64087 21.4563 8.82567 21.6843 8.82567Z" fill="black"/>
<path d="M6.07432 7.55172C6.29551 7.55172 6.47481 7.37241 6.47481 7.15122C6.47481 6.93004 6.29551 6.75073 6.07432 6.75073C5.85313 6.75073 5.67383 6.93004 5.67383 7.15122C5.67383 7.37241 5.85313 7.55172 6.07432 7.55172Z" fill="black"/>
<path d="M7.92979 7.55172C8.15097 7.55172 8.33028 7.37241 8.33028 7.15122C8.33028 6.93004 8.15097 6.75073 7.92979 6.75073C7.7086 6.75073 7.5293 6.93004 7.5293 7.15122C7.5293 7.37241 7.7086 7.55172 7.92979 7.55172Z" fill="black"/>
<path d="M9.78526 7.55172C10.0064 7.55172 10.1857 7.37241 10.1857 7.15122C10.1857 6.93004 10.0064 6.75073 9.78526 6.75073C9.56407 6.75073 9.38477 6.93004 9.38477 7.15122C9.38477 7.37241 9.56407 7.55172 9.78526 7.55172Z" fill="black"/>
<path d="M11.6407 7.55172C11.8619 7.55172 12.0412 7.37241 12.0412 7.15122C12.0412 6.93004 11.8619 6.75073 11.6407 6.75073C11.4195 6.75073 11.2402 6.93004 11.2402 7.15122C11.2402 7.37241 11.4195 7.55172 11.6407 7.55172Z" fill="black"/>
<path d="M13.4981 7.55172C13.7193 7.55172 13.8986 7.37241 13.8986 7.15122C13.8986 6.93004 13.7193 6.75073 13.4981 6.75073C13.277 6.75073 13.0977 6.93004 13.0977 7.15122C13.0977 7.37241 13.277 7.55172 13.4981 7.55172Z" fill="black"/>
<path d="M15.3517 7.55172C15.5729 7.55172 15.7522 7.37241 15.7522 7.15122C15.7522 6.93004 15.5729 6.75073 15.3517 6.75073C15.1305 6.75073 14.9512 6.93004 14.9512 7.15122C14.9512 7.37241 15.1305 7.55172 15.3517 7.55172Z" fill="black"/>
<path d="M17.2091 7.55172C17.4303 7.55172 17.6096 7.37241 17.6096 7.15122C17.6096 6.93004 17.4303 6.75073 17.2091 6.75073C16.9879 6.75073 16.8086 6.93004 16.8086 7.15122C16.8086 7.37241 16.9879 7.55172 17.2091 7.55172Z" fill="black"/>
<path d="M19.0646 7.55172C19.2857 7.55172 19.465 7.37241 19.465 7.15122C19.465 6.93004 19.2857 6.75073 19.0646 6.75073C18.8434 6.75073 18.6641 6.93004 18.6641 7.15122C18.6641 7.37241 18.8434 7.55172 19.0646 7.55172Z" fill="black"/>
<path d="M20.92 7.55172C21.1412 7.55172 21.3205 7.37241 21.3205 7.15122C21.3205 6.93004 21.1412 6.75073 20.92 6.75073C20.6988 6.75073 20.5195 6.93004 20.5195 7.15122C20.5195 7.37241 20.6988 7.55172 20.92 7.55172Z" fill="black"/>
<path d="M4.78051 6.18467C4.94945 6.18467 5.0864 6.04771 5.0864 5.87877C5.0864 5.70983 4.94945 5.57288 4.78051 5.57288C4.61156 5.57288 4.47461 5.70983 4.47461 5.87877C4.47461 6.04771 4.61156 6.18467 4.78051 6.18467Z" fill="black"/>
<path d="M6.66137 6.18467C6.83031 6.18467 6.96726 6.04771 6.96726 5.87877C6.96726 5.70983 6.83031 5.57288 6.66137 5.57288C6.49242 5.57288 6.35547 5.70983 6.35547 5.87877C6.35547 6.04771 6.49242 6.18467 6.66137 6.18467Z" fill="black"/>
<path d="M8.54223 6.18467C8.71117 6.18467 8.84813 6.04771 8.84813 5.87877C8.84813 5.70983 8.71117 5.57288 8.54223 5.57288C8.37328 5.57288 8.23633 5.70983 8.23633 5.87877C8.23633 6.04771 8.37328 6.18467 8.54223 6.18467Z" fill="black"/>
<path d="M10.4211 6.18467C10.5901 6.18467 10.727 6.04771 10.727 5.87877C10.727 5.70983 10.5901 5.57288 10.4211 5.57288C10.2522 5.57288 10.1152 5.70983 10.1152 5.87877C10.1152 6.04771 10.2522 6.18467 10.4211 6.18467Z" fill="black"/>
<path d="M12.302 6.18467C12.4709 6.18467 12.6079 6.04771 12.6079 5.87877C12.6079 5.70983 12.4709 5.57288 12.302 5.57288C12.133 5.57288 11.9961 5.70983 11.9961 5.87877C11.9961 6.04771 12.133 6.18467 12.302 6.18467Z" fill="black"/>
<path d="M14.1829 6.18467C14.3518 6.18467 14.4887 6.04771 14.4887 5.87877C14.4887 5.70983 14.3518 5.57288 14.1829 5.57288C14.0139 5.57288 13.877 5.70983 13.877 5.87877C13.877 6.04771 14.0139 6.18467 14.1829 6.18467Z" fill="black"/>
<path d="M16.0637 6.18467C16.2327 6.18467 16.3696 6.04771 16.3696 5.87877C16.3696 5.70983 16.2327 5.57288 16.0637 5.57288C15.8948 5.57288 15.7578 5.70983 15.7578 5.87877C15.7578 6.04771 15.8948 6.18467 16.0637 6.18467Z" fill="black"/>
<path d="M17.9426 6.18467C18.1116 6.18467 18.2485 6.04771 18.2485 5.87877C18.2485 5.70983 18.1116 5.57288 17.9426 5.57288C17.7737 5.57288 17.6367 5.70983 17.6367 5.87877C17.6367 6.04771 17.7737 6.18467 17.9426 6.18467Z" fill="black"/>
<path d="M19.8235 6.18467C19.9924 6.18467 20.1294 6.04771 20.1294 5.87877C20.1294 5.70983 19.9924 5.57288 19.8235 5.57288C19.6545 5.57288 19.5176 5.70983 19.5176 5.87877C19.5176 6.04771 19.6545 6.18467 19.8235 6.18467Z" fill="black"/>
<path d="M3.27371 4.97942C3.4033 4.97942 3.50835 4.87437 3.50835 4.74478C3.50835 4.61519 3.4033 4.51013 3.27371 4.51013C3.14412 4.51013 3.03906 4.61519 3.03906 4.74478C3.03906 4.87437 3.14412 4.97942 3.27371 4.97942Z" fill="black"/>
<path d="M5.17019 4.97942C5.29978 4.97942 5.40483 4.87437 5.40483 4.74478C5.40483 4.61519 5.29978 4.51013 5.17019 4.51013C5.0406 4.51013 4.93555 4.61519 4.93555 4.74478C4.93555 4.87437 5.0406 4.97942 5.17019 4.97942Z" fill="black"/>
<path d="M7.06472 4.97942C7.19431 4.97942 7.29937 4.87437 7.29937 4.74478C7.29937 4.61519 7.19431 4.51013 7.06472 4.51013C6.93513 4.51013 6.83008 4.61519 6.83008 4.74478C6.83008 4.87437 6.93513 4.97942 7.06472 4.97942Z" fill="black"/>
<path d="M8.96121 4.97942C9.0908 4.97942 9.19585 4.87437 9.19585 4.74478C9.19585 4.61519 9.0908 4.51013 8.96121 4.51013C8.83162 4.51013 8.72656 4.61519 8.72656 4.74478C8.72656 4.87437 8.83162 4.97942 8.96121 4.97942Z" fill="black"/>
<path d="M10.8577 4.97942C10.9873 4.97942 11.0923 4.87437 11.0923 4.74478C11.0923 4.61519 10.9873 4.51013 10.8577 4.51013C10.7281 4.51013 10.623 4.61519 10.623 4.74478C10.623 4.87437 10.7281 4.97942 10.8577 4.97942Z" fill="black"/>
<path d="M12.7542 4.97942C12.8838 4.97942 12.9888 4.87437 12.9888 4.74478C12.9888 4.61519 12.8838 4.51013 12.7542 4.51013C12.6246 4.51013 12.5195 4.61519 12.5195 4.74478C12.5195 4.87437 12.6246 4.97942 12.7542 4.97942Z" fill="black"/>
<path d="M14.6507 4.97942C14.7803 4.97942 14.8853 4.87437 14.8853 4.74478C14.8853 4.61519 14.7803 4.51013 14.6507 4.51013C14.5211 4.51013 14.416 4.61519 14.416 4.74478C14.416 4.87437 14.5211 4.97942 14.6507 4.97942Z" fill="black"/>
<path d="M16.5452 4.97942C16.6748 4.97942 16.7798 4.87437 16.7798 4.74478C16.7798 4.61519 16.6748 4.51013 16.5452 4.51013C16.4156 4.51013 16.3105 4.61519 16.3105 4.74478C16.3105 4.87437 16.4156 4.97942 16.5452 4.97942Z" fill="black"/>
<path d="M18.4417 4.97942C18.5713 4.97942 18.6763 4.87437 18.6763 4.74478C18.6763 4.61519 18.5713 4.51013 18.4417 4.51013C18.3121 4.51013 18.207 4.61519 18.207 4.74478C18.207 4.87437 18.3121 4.97942 18.4417 4.97942Z" fill="black"/>
</g>
<defs>
<linearGradient id="paint0_linear_2_3719" x1="-2.93997" y1="8.00024" x2="13.1055" y2="8.00024" gradientUnits="userSpaceOnUse">
<stop stop-color="#3B007F"/>
<stop offset="1" stop-color="#AA003D"/>
</linearGradient>
<clipPath id="clip0_2_3719">
<rect width="26.2322" height="16" fill="white" transform="translate(0.833984 0.000244141)"/>
</clipPath>
</defs>
</svg>
