<svg width="19" height="16" viewBox="0 0 19 16" fill="none" xmlns="http://www.w3.org/2000/svg">
<g clip-path="url(#clip0_2_3721)">
<path d="M0.216359 2.80181C0.167923 1.35825 1.28692 0.148267 2.71735 0.0984731C3.11974 0.084728 3.51976 0.165341 3.88541 0.333864C4.25107 0.502386 4.57221 0.754142 4.82316 1.06899C4.21568 1.31751 2.43217 2.25951 1.56712 5.0072C1.17019 4.78813 0.836999 4.46968 0.600204 4.08306C0.363409 3.69645 0.231139 3.25494 0.216359 2.80181ZM2.05872 4.92255H6.94255C6.73947 3.6459 6.04162 2.50065 5.00015 1.73487C4.88834 1.65248 4.79238 1.58866 4.71814 1.54248C3.54145 2.4066 2.62263 3.5752 2.06053 4.92255H2.05872ZM12.1079 4.92255H16.846C16.3019 3.61888 15.4236 2.48172 14.2998 1.62577C14.2291 1.67104 14.1409 1.72989 14.0408 1.80367C13.0184 2.55491 12.3261 3.6725 12.1089 4.92255H12.1079ZM5.93808 8.83089C6.68076 7.88266 7.05811 6.6992 7.0014 5.49609H1.84596C1.42683 6.77845 1.33671 8.14558 1.58387 9.47187C3.47647 9.44335 4.22247 8.2044 4.22247 8.2044L4.72584 8.78834C3.89202 9.85664 2.62591 10.1296 1.74864 10.1776C1.809 10.3958 1.87946 10.61 1.96004 10.8204C3.92416 10.7516 5.169 9.8159 5.93899 8.83089H5.93808ZM7.68538 6.62549C7.46267 7.89794 6.98827 8.84356 6.40116 9.54927C6.7307 9.96301 7.66863 10.8557 9.62914 10.8226C9.62914 10.8226 11.1682 10.9616 12.6349 9.61627C12.05 8.91192 11.5783 7.9672 11.352 6.6943C11.352 6.6943 10.7237 2.92765 13.5452 1.11652C12.4683 0.47393 11.2547 0.0950039 10.0035 0.0106555V3.04353H9.08865V0.000244141C7.82267 0.0554879 6.58822 0.412445 5.48813 1.04138C8.3164 2.85205 7.68538 6.62549 7.68538 6.62549ZM16.5998 0.140119C16.1531 0.0645145 15.6944 0.106151 15.2686 0.260956C14.8429 0.415761 14.4646 0.678432 14.1708 1.02327C16.4717 2.28486 17.1366 4.2001 17.3802 4.9986C17.7387 4.81535 18.0493 4.55076 18.2872 4.22597C18.5251 3.90119 18.6838 3.52524 18.7504 3.12818C18.9871 1.71676 18.0243 0.378675 16.5998 0.140119ZM14.3573 8.64349L14.9005 8.06498C14.9005 8.06498 15.5745 9.21837 17.3521 9.29895C17.4224 8.86825 17.4577 8.43257 17.4576 7.99617C17.4583 7.14692 17.3236 6.30298 17.0588 5.49609H12.0423C11.9677 6.72201 12.3447 7.9328 13.102 8.8997C13.8507 9.85799 15.0485 10.7701 16.9216 10.8801C17.0328 10.5925 17.1272 10.2987 17.2041 10.0001C16.3359 9.93766 15.1544 9.64931 14.3573 8.64349ZM9.0633 12.4264V11.8552C8.02669 11.7547 6.89049 11.2952 5.74796 10.2056C4.50267 11.2509 3.0229 11.5125 2.29275 11.5768C3.23875 13.4637 4.88989 14.9021 6.88868 15.5806C7.40409 15.3575 7.86552 15.0262 8.24171 14.6092C8.77521 14.0077 9.0678 13.2304 9.0633 12.4264ZM8.16521 15.897C9.07472 16.0438 10.0026 16.034 10.9088 15.8681C10.3289 15.244 9.86323 14.5228 9.53317 13.7374C9.20815 14.5323 8.74503 15.2635 8.16521 15.897ZM10.0094 11.8534V12.4418C10.0044 13.2138 10.2846 13.9604 10.7961 14.5386C11.1783 14.9647 11.649 15.3019 12.1754 15.5268C14.0862 14.8332 15.6629 13.4409 16.5875 11.6306C15.8361 11.5455 14.5238 11.2649 13.3845 10.3514C12.9101 10.7502 11.6408 11.6895 10.0094 11.8534Z" fill="url(#paint0_linear_2_3721)"/>
</g>
<defs>
<linearGradient id="paint0_linear_2_3721" x1="4.14733" y1="1.68417" x2="18.4534" y2="13.5237" gradientUnits="userSpaceOnUse">
<stop stop-color="#EA3570"/>
<stop offset="0.88" stop-color="#138FC9"/>
</linearGradient>
<clipPath id="clip0_2_3721">
<rect width="18.5698" height="16" fill="white" transform="translate(0.216797 0.000244141)"/>
</clipPath>
</defs>
</svg>
