<svg width="17" height="16" viewBox="0 0 17 16" fill="none" xmlns="http://www.w3.org/2000/svg">
<g clip-path="url(#clip0_2_3725)">
<path d="M8.78711 16.0002C13.2054 16.0002 16.7871 12.4185 16.7871 8.00024C16.7871 3.58197 13.2054 0.000244141 8.78711 0.000244141C4.36883 0.000244141 0.787109 3.58197 0.787109 8.00024C0.787109 12.4185 4.36883 16.0002 8.78711 16.0002Z" fill="#3058A6"/>
<path d="M8.78541 13.6146C5.68641 13.6146 3.17391 11.1021 3.17391 8.00306C3.17391 4.90406 5.68641 2.39156 8.78541 2.39156C11.8844 2.39156 14.3969 4.90406 14.3969 8.00306C14.3969 11.1021 11.8844 13.6146 8.78541 13.6146ZM8.78541 2.03406C5.49391 2.03406 2.81641 4.71156 2.81641 8.00306C2.81641 11.2946 5.49391 13.9721 8.78541 13.9721C12.0769 13.9721 14.7544 11.2946 14.7544 8.00306C14.7544 4.71156 12.0769 2.03406 8.78541 2.03406Z" fill="white"/>
<path fill-rule="evenodd" clip-rule="evenodd" d="M10.8877 10.1384L10.5762 11.4879L10.5012 11.8144H10.1662L8.4437 11.8134H8.4367C7.7462 11.8019 7.2042 11.6184 6.8487 11.2944C7.1557 11.8359 7.8077 12.1494 8.7177 12.1644H8.7247L10.4467 12.1654H10.7817L10.8572 11.8389L11.1687 10.4894L10.9257 9.97393L10.8877 10.1384ZM10.3462 4.35293L10.1002 3.84143L10.0652 4.00143L9.8317 5.06493H10.1897L10.3462 4.35293ZM11.5897 5.58343L11.2797 6.89593L11.2027 7.21993H9.3362L8.8622 9.38393C8.8522 9.44593 8.8462 9.50893 8.8462 9.54393C8.8462 9.57443 8.8497 9.59393 8.8527 9.60343C8.88833 9.61678 8.92617 9.62323 8.9642 9.62243H9.1682L9.6172 7.57143H11.4837L11.5602 7.24693L11.8702 5.93443L11.6292 5.41643L11.5892 5.58343H11.5897ZM6.9587 7.21993H5.6582L6.1062 7.57143H6.8822L6.9587 7.21993Z" fill="white"/>
<path fill-rule="evenodd" clip-rule="evenodd" d="M9.00422 10.0436H8.95672C8.59472 10.0341 8.42372 9.84563 8.42372 9.54363C8.42372 9.47163 8.43572 9.37613 8.44772 9.30463L8.99672 6.79863H10.8687L11.1787 5.48613H9.30672L9.65272 3.91113H8.12572L7.77922 5.48613H6.12222L5.82422 6.79863H7.48122L6.83622 9.74613C6.80122 9.88913 6.78872 10.0561 6.78872 10.1396C6.78872 10.9806 7.45222 11.3756 8.44272 11.3921L10.1647 11.3926L10.4762 10.0436H9.00422Z" fill="white"/>
</g>
<defs>
<clipPath id="clip0_2_3725">
<rect width="16" height="16" fill="white" transform="translate(0.787109 0.000244141)"/>
</clipPath>
</defs>
</svg>
