<svg width="17" height="16" viewBox="0 0 17 16" fill="none" xmlns="http://www.w3.org/2000/svg">
<g clip-path="url(#clip0_2_3727)">
<path d="M11.9382 0.000244141H5.42633C2.79836 0.000244141 0.667969 2.13064 0.667969 4.75861V11.2419C0.667969 13.8699 2.79836 16.0002 5.42633 16.0002H11.9382C14.5661 16.0002 16.6965 13.8699 16.6965 11.2419V4.75861C16.6965 2.13064 14.5661 0.000244141 11.9382 0.000244141Z" fill="black"/>
<path d="M11.9382 0.000244141H5.42633C2.79836 0.000244141 0.667969 2.13064 0.667969 4.75861V11.2419C0.667969 13.8699 2.79836 16.0002 5.42633 16.0002H11.9382C14.5661 16.0002 16.6965 13.8699 16.6965 11.2419V4.75861C16.6965 2.13064 14.5661 0.000244141 11.9382 0.000244141Z" fill="#2CC981"/>
<path fill-rule="evenodd" clip-rule="evenodd" d="M11.548 2.48193L14.127 5.149H8.89278L11.548 2.48193ZM6.07583 7.92074L3.31836 5.17279L5.99256 2.50573L14.1436 10.6758L11.4433 13.3381L8.7762 10.6758L6.09011 13.3572L3.38498 10.6568L6.07583 7.92074Z" fill="white"/>
</g>
<defs>
<clipPath id="clip0_2_3727">
<rect width="16.0286" height="16" fill="white" transform="translate(0.667969 0.000244141)"/>
</clipPath>
</defs>
</svg>
