<svg width="17" height="16" viewBox="0 0 17 16" fill="none" xmlns="http://www.w3.org/2000/svg">
<g clip-path="url(#clip0_2_3728)">
<path d="M8.69727 16.0002C13.1155 16.0002 16.6973 12.4185 16.6973 8.00024C16.6973 3.58197 13.1155 0.000244141 8.69727 0.000244141C4.27899 0.000244141 0.697266 3.58197 0.697266 8.00024C0.697266 12.4185 4.27899 16.0002 8.69727 16.0002Z" fill="#374851"/>
<path fill-rule="evenodd" clip-rule="evenodd" d="M9.54727 7.70024V11.4992C9.64927 11.4742 9.74927 11.4457 9.84727 11.4127V12.8677C9.19143 13.0221 8.51123 13.0426 7.84727 12.9282V7.70024H6.09727V6.30024H11.2973V7.70024H9.54727ZM10.2473 12.7552V11.2502C10.9844 10.8986 11.58 10.3068 11.9364 9.57197C12.2928 8.83714 12.3887 8.00297 12.2085 7.20642C12.0282 6.40987 11.5825 5.69828 10.9444 5.18849C10.3064 4.6787 9.51396 4.40101 8.69727 4.40101C7.88057 4.40101 7.08815 4.6787 6.45011 5.18849C5.81206 5.69828 5.36631 6.40987 5.18605 7.20642C5.00579 8.00297 5.10173 8.83714 5.45811 9.57197C5.8145 10.3068 6.41015 10.8986 7.14727 11.2502V12.7552C5.14477 12.1027 3.69727 10.2202 3.69727 8.00024C3.69727 5.23874 5.93577 3.00024 8.69727 3.00024C11.4588 3.00024 13.6973 5.23874 13.6973 8.00024C13.6973 10.2202 12.2498 12.1027 10.2473 12.7552Z" fill="white"/>
</g>
<defs>
<clipPath id="clip0_2_3728">
<rect width="16" height="16" fill="white" transform="translate(0.697266 0.000244141)"/>
</clipPath>
</defs>
</svg>
