<svg width="17" height="16" viewBox="0 0 17 16" fill="none" xmlns="http://www.w3.org/2000/svg">
<g clip-path="url(#clip0_2_3729)">
<path d="M8.69727 16.0002C13.1155 16.0002 16.6973 12.4185 16.6973 8.00024C16.6973 3.58197 13.1155 0.000244141 8.69727 0.000244141C4.27899 0.000244141 0.697266 3.58197 0.697266 8.00024C0.697266 12.4185 4.27899 16.0002 8.69727 16.0002Z" fill="#FF439B"/>
<path fill-rule="evenodd" clip-rule="evenodd" d="M9.81027 6.90224L12.6268 11.7502H4.81977L5.75527 10.1987L9.96127 10.1997L8.89527 8.45974L9.81027 6.90224ZM6.93527 8.03024L9.79877 3.27024L13.6973 9.83374H11.8253L9.76527 6.25374L8.76477 8.03074L6.93527 8.03024ZM9.37777 9.83974L3.69727 9.81274L7.60077 3.25024L8.53077 4.82324L6.37927 8.28224H8.46277L9.37777 9.83974Z" fill="white"/>
</g>
<defs>
<clipPath id="clip0_2_3729">
<rect width="16" height="16" fill="white" transform="translate(0.697266 0.000244141)"/>
</clipPath>
</defs>
</svg>
