<svg width="17" height="16" viewBox="0 0 17 16" fill="none" xmlns="http://www.w3.org/2000/svg">
<g clip-path="url(#clip0_2_3732)">
<path d="M8.69727 16.0002C13.1155 16.0002 16.6973 12.4185 16.6973 8.00024C16.6973 3.58197 13.1155 0.000244141 8.69727 0.000244141C4.27899 0.000244141 0.697266 3.58197 0.697266 8.00024C0.697266 12.4185 4.27899 16.0002 8.69727 16.0002Z" fill="#00843D"/>
<path d="M8.69934 2.80018C8.89634 2.80018 9.08984 2.85168 9.26034 2.95018L12.8403 5.01718C13.011 5.11576 13.1527 5.25754 13.2512 5.42825C13.3496 5.59896 13.4014 5.7926 13.4013 5.98968V10.2067C13.4013 10.6077 13.1878 10.9782 12.8403 11.1787L9.25984 13.2462C9.0892 13.3447 8.89563 13.3966 8.69859 13.3966C8.50155 13.3966 8.30798 13.3447 8.13734 13.2462L4.55634 11.1787C4.38571 11.0802 4.24399 10.9385 4.14543 10.7679C4.04687 10.5973 3.99494 10.4037 3.99484 10.2067V5.98968C3.99484 5.58868 4.20884 5.21818 4.55634 5.01718L8.13634 2.95018C8.30734 2.85168 8.50134 2.79968 8.69784 2.79968H8.69884L8.69934 2.80018ZM8.69834 2.01968C8.36447 2.01987 8.03652 2.10781 7.74734 2.27468L4.16634 4.34118C3.8774 4.50858 3.63745 4.74889 3.47048 5.03809C3.3035 5.32729 3.21536 5.65524 3.21484 5.98918V10.2062C3.21536 10.5401 3.3035 10.8681 3.47048 11.1573C3.63745 11.4465 3.8774 11.6868 4.16634 11.8542L7.74634 13.9212C8.33534 14.2612 9.06084 14.2612 9.64934 13.9212L13.2298 11.8542C13.5188 11.6868 13.7587 11.4465 13.9257 11.1573C14.0927 10.8681 14.1808 10.5401 14.1813 10.2062V5.98918C14.1808 5.65524 14.0927 5.32729 13.9257 5.03809C13.7587 4.74889 13.5188 4.50858 13.2298 4.34118L9.64984 2.27368C9.36037 2.10664 9.03205 2.0187 8.69784 2.01868L8.69834 2.01968Z" fill="white"/>
<path d="M8.25978 8.75992C8.21864 8.75998 8.17822 8.7492 8.14258 8.72866C8.10694 8.70812 8.07735 8.67854 8.05678 8.64292L7.62628 7.89642C7.60574 7.86085 7.59493 7.8205 7.59493 7.77942C7.59493 7.73834 7.60574 7.69799 7.62628 7.66242L8.05678 6.91592C8.07735 6.8803 8.10694 6.85072 8.14258 6.83018C8.17822 6.80964 8.21864 6.79886 8.25978 6.79892H9.13878C9.17981 6.79905 9.22009 6.80991 9.25562 6.83044C9.29114 6.85097 9.32068 6.88044 9.34128 6.91592L9.77228 7.66242C9.79282 7.69799 9.80363 7.73834 9.80363 7.77942C9.80363 7.8205 9.79282 7.86085 9.77228 7.89642L9.34128 8.64292C9.32075 8.67847 9.29124 8.708 9.25569 8.72853C9.22015 8.74907 9.17983 8.75989 9.13878 8.75992H8.25978ZM7.08528 7.58442C7.12639 7.58438 7.16678 7.57355 7.2024 7.55302C7.23802 7.53249 7.26763 7.50298 7.28828 7.46742L7.71878 6.72092C7.73932 6.68535 7.75013 6.645 7.75013 6.60392C7.75013 6.56284 7.73932 6.52249 7.71878 6.48692L7.18178 5.55642L6.13328 6.12842C6.09569 6.14902 6.06448 6.17954 6.04306 6.21666C6.02163 6.25378 6.01081 6.29607 6.01178 6.33892C6.02028 6.75792 6.06928 7.17492 6.15728 7.58442H7.08528ZM10.3128 7.58442C10.2717 7.58439 10.2314 7.57357 10.1959 7.55303C10.1603 7.5325 10.1308 7.50297 10.1103 7.46742L9.67928 6.72092C9.65874 6.68535 9.64793 6.645 9.64793 6.60392C9.64793 6.56284 9.65874 6.52249 9.67928 6.48692L10.2163 5.55642L11.2643 6.12842C11.3019 6.14891 11.3331 6.17932 11.3547 6.21635C11.3762 6.25338 11.3871 6.2956 11.3863 6.33842C11.3777 6.75742 11.3292 7.17465 11.2413 7.58442H10.3128ZM8.81128 4.78892C8.77692 4.77019 8.73841 4.76038 8.69928 4.76038C8.66015 4.76038 8.62164 4.77019 8.58728 4.78892L7.52428 5.36892L8.05728 6.29192C8.0778 6.32747 8.10732 6.357 8.14286 6.37753C8.17841 6.39807 8.21873 6.40889 8.25978 6.40892H9.13878C9.17984 6.40894 9.22018 6.39814 9.25573 6.3776C9.29129 6.35706 9.32079 6.3275 9.34128 6.29192L9.87428 5.36942L8.81128 4.78942V4.78892ZM6.25428 7.97442C6.45482 8.68783 6.77522 9.36194 7.20178 9.96792L7.71928 9.07192C7.73982 9.03635 7.75063 8.996 7.75063 8.95492C7.75063 8.91384 7.73982 8.87349 7.71928 8.83792L7.28828 8.09142C7.26775 8.05587 7.23824 8.02634 7.20269 8.00581C7.16715 7.98527 7.12683 7.97445 7.08578 7.97442H6.25428ZM11.1433 7.97442C10.9429 8.6878 10.6227 9.36191 10.1963 9.96792L9.67878 9.07192C9.65824 9.03635 9.64743 8.996 9.64743 8.95492C9.64743 8.91384 9.65824 8.87349 9.67878 8.83792L10.1103 8.09142C10.1308 8.05587 10.1603 8.02634 10.1959 8.00581C10.2314 7.98527 10.2717 7.97445 10.3128 7.97442H11.1438H11.1433ZM8.25978 9.14992C8.21864 9.14986 8.17822 9.16064 8.14258 9.18118C8.10694 9.20172 8.07735 9.2313 8.05678 9.26692L7.45678 10.3069C7.77991 10.7084 8.14892 11.0707 8.55628 11.3864C8.59735 11.418 8.64771 11.4351 8.69953 11.4351C8.75134 11.4351 8.8017 11.418 8.84278 11.3864C9.24999 11.0705 9.61883 10.7081 9.94178 10.3064L9.34178 9.26692C9.32125 9.23137 9.29174 9.20184 9.25619 9.18131C9.22065 9.16077 9.18033 9.14995 9.13928 9.14992H8.25928H8.25978Z" fill="white"/>
</g>
<defs>
<clipPath id="clip0_2_3732">
<rect width="16" height="16" fill="white" transform="translate(0.697266 0.000244141)"/>
</clipPath>
</defs>
</svg>
