<svg width="17" height="16" viewBox="0 0 17 16" fill="none" xmlns="http://www.w3.org/2000/svg">
<g clip-path="url(#clip0_2_3737)">
<path d="M8.81445 16.0002C13.2327 16.0002 16.8145 12.4185 16.8145 8.00024C16.8145 3.58197 13.2327 0.000244141 8.81445 0.000244141C4.39617 0.000244141 0.814453 3.58197 0.814453 8.00024C0.814453 12.4185 4.39617 16.0002 8.81445 16.0002Z" fill="#30367A"/>
<path d="M7.99095 11.1492V4.51424H6.06445V3.00024H11.5645V4.51424H9.63795V11.1492H7.99095ZM7.54745 13.0002C6.55295 13.0002 6.08245 12.5222 6.08245 11.5112V4.94824H7.52945V11.4442C7.52945 11.6042 7.58195 11.6572 7.73895 11.6572H9.90845C10.0655 11.6572 10.1185 11.6037 10.1185 11.4442V4.94824H11.5645V11.5112C11.5645 12.5222 11.0935 13.0002 10.0995 13.0002H7.54745Z" fill="white"/>
</g>
<defs>
<clipPath id="clip0_2_3737">
<rect width="16" height="16" fill="white" transform="translate(0.814453 0.000244141)"/>
</clipPath>
</defs>
</svg>
