<svg width="21" height="16" viewBox="0 0 21 16" fill="none" xmlns="http://www.w3.org/2000/svg">
<g clip-path="url(#clip0_2_3738)">
<path fill-rule="evenodd" clip-rule="evenodd" d="M0.993017 0.000155169H6.70181C6.73227 -0.000431688 6.76238 0.00679397 6.78926 0.0211434C6.8149 0.0353735 6.83655 0.0558226 6.85222 0.0806099L13.8028 11.1939C13.8213 11.2219 13.8312 11.2547 13.8312 11.2883C13.8312 11.3219 13.8213 11.3547 13.8028 11.3828L10.9589 15.9197C10.9432 15.9445 10.9216 15.9649 10.8959 15.9792C10.8697 15.9936 10.8402 16.0011 10.8102 16.0011C10.7803 16.0011 10.7508 15.9936 10.7245 15.9792C10.6989 15.9649 10.6772 15.9445 10.6616 15.9197L0.842601 0.269504C0.825652 0.243366 0.815991 0.213175 0.814617 0.182053C0.813245 0.150395 0.8205 0.118959 0.835605 0.091104C0.85128 0.0633004 0.874264 0.0403162 0.902068 0.0246414C0.929575 0.0083164 0.961032 -0.000152792 0.993017 0.000155169ZM12.9598 0.000155169H20.6065C20.6385 -0.000152792 20.6699 0.0083164 20.6974 0.0246414C20.7214 0.041735 20.7406 0.0645946 20.7534 0.091104C20.7683 0.11902 20.7756 0.150411 20.7744 0.182053C20.7751 0.212534 20.7679 0.242681 20.7534 0.269504L16.9335 6.37007C16.9179 6.39486 16.8962 6.41531 16.8706 6.42954C16.8443 6.44393 16.8148 6.45147 16.7849 6.45147C16.7549 6.45147 16.7255 6.44393 16.6992 6.42954C16.6735 6.41531 16.6519 6.39486 16.6362 6.37007L12.8129 0.269504C12.7959 0.243366 12.7863 0.213175 12.7849 0.182053C12.7835 0.150395 12.7908 0.118959 12.8059 0.091104C12.8215 0.0633004 12.8445 0.0403162 12.8723 0.0246414C12.8988 0.00892184 12.929 0.000475018 12.9598 0.000155169Z" fill="#FF8836"/>
</g>
<defs>
<clipPath id="clip0_2_3738">
<rect width="19.9703" height="16" fill="white" transform="translate(0.814453 0.000244141)"/>
</clipPath>
</defs>
</svg>
