<svg width="17" height="16" viewBox="0 0 17 16" fill="none" xmlns="http://www.w3.org/2000/svg">
<g clip-path="url(#clip0_2_3743)">
<path d="M8.63867 16.0002C13.0569 16.0002 16.6387 12.4185 16.6387 8.00024C16.6387 3.58197 13.0569 0.000244141 8.63867 0.000244141C4.22039 0.000244141 0.638672 3.58197 0.638672 8.00024C0.638672 12.4185 4.22039 16.0002 8.63867 16.0002Z" fill="#FF9933"/>
<path d="M3.63867 4.00024C4.19067 4.00124 4.74317 4.00124 5.29467 4.00024L6.34017 9.59024C6.35667 9.67274 6.37667 9.75424 6.39817 9.83524C6.48017 9.51024 6.53167 9.17824 6.60017 8.85024L7.55217 4.00024L9.15417 4.00074C8.56667 6.61674 7.97917 9.23324 7.39067 11.8492H5.40217C4.81367 9.23474 4.22617 6.62024 3.63867 4.00524V4.00024ZM9.79567 6.46624C10.1442 6.02824 10.7012 5.82974 11.2382 5.79474C11.7682 5.75774 12.3392 5.80574 12.7882 6.12174C13.1857 6.39974 13.4037 6.86974 13.5072 7.33724C13.6327 7.92324 13.6392 8.52524 13.6387 9.12224H10.7037C10.7062 9.56374 10.6787 10.0192 10.8262 10.4422C10.8977 10.6502 11.0312 10.8572 11.2432 10.9327C11.4692 11.0062 11.7412 10.9582 11.9062 10.7762C12.1262 10.5272 12.1722 10.1782 12.2202 9.85874H13.5522C13.5222 10.3887 13.4242 10.9487 13.0772 11.3652C12.7292 11.7982 12.1682 11.9752 11.6372 11.9967C11.0602 12.0187 10.4337 11.9402 9.97367 11.5517C9.54617 11.1952 9.35967 10.6302 9.28567 10.0887C9.21167 9.46524 9.20767 8.83424 9.24217 8.20774C9.28867 7.59674 9.39917 6.94974 9.79517 6.46574L9.79567 6.46624ZM10.9327 7.08874C10.7057 7.41574 10.6997 7.83674 10.7037 8.22224H12.2197C12.1962 7.85574 12.1987 7.46874 12.0337 7.13324C11.8287 6.71924 11.1807 6.71774 10.9337 7.08924H10.9327V7.08874Z" fill="white"/>
</g>
<defs>
<clipPath id="clip0_2_3743">
<rect width="16" height="16" fill="white" transform="translate(0.638672 0.000244141)"/>
</clipPath>
</defs>
</svg>
