<svg width="17" height="16" viewBox="0 0 17 16" fill="none" xmlns="http://www.w3.org/2000/svg">
<g clip-path="url(#clip0_2_3741)">
<path d="M8.63867 16.0002C13.0569 16.0002 16.6387 12.4185 16.6387 8.00024C16.6387 3.58197 13.0569 0.000244141 8.63867 0.000244141C4.22039 0.000244141 0.638672 3.58197 0.638672 8.00024C0.638672 12.4185 4.22039 16.0002 8.63867 16.0002Z" fill="#418BCA"/>
<path d="M10.7712 4.00024H13.1387L8.63867 13.0002L4.13867 4.00024H6.49067L8.65417 8.55674L10.7712 4.00024ZM8.63867 6.47974C8.24467 6.47974 7.92517 6.15174 7.92517 5.74724C7.92517 5.34274 8.24467 5.01424 8.63867 5.01424C9.03267 5.01424 9.35217 5.34274 9.35217 5.74724C9.35217 6.15174 9.03217 6.47974 8.63867 6.47974ZM11.8712 8.49974C12.2652 8.49974 12.5847 8.82824 12.5842 9.23274C12.5842 9.63774 12.2652 9.96524 11.8712 9.96524C11.4772 9.96524 11.1577 9.63724 11.1577 9.23274C11.1577 8.82824 11.4772 8.50024 11.8712 8.50024V8.49974Z" fill="white"/>
</g>
<defs>
<clipPath id="clip0_2_3741">
<rect width="16" height="16" fill="white" transform="translate(0.638672 0.000244141)"/>
</clipPath>
</defs>
</svg>
