<svg width="17" height="16" viewBox="0 0 17 16" fill="none" xmlns="http://www.w3.org/2000/svg">
<g clip-path="url(#clip0_2_3742)">
<path d="M8.63867 16.0002C13.0569 16.0002 16.6387 12.4185 16.6387 8.00024C16.6387 3.58197 13.0569 0.000244141 8.63867 0.000244141C4.22039 0.000244141 0.638672 3.58197 0.638672 8.00024C0.638672 12.4185 4.22039 16.0002 8.63867 16.0002Z" fill="#37E8A3"/>
<path d="M6.70667 7.98324L8.44767 9.72974L13.0127 5.13424L13.6387 5.76924L8.44767 11.0002L6.08017 8.61874L6.70667 7.98324ZM7.76167 7.82824L10.5707 5.00024L11.1972 5.63524L8.38867 8.46524L7.76167 7.82824ZM6.62367 10.2432L6.00567 10.8662L3.63867 8.48524L4.26417 7.85024L6.62367 10.2432Z" fill="white"/>
</g>
<defs>
<clipPath id="clip0_2_3742">
<rect width="16" height="16" fill="white" transform="translate(0.638672 0.000244141)"/>
</clipPath>
</defs>
</svg>
