<svg width="17" height="16" viewBox="0 0 17 16" fill="none" xmlns="http://www.w3.org/2000/svg">
<g clip-path="url(#clip0_2_3745)">
<path d="M8.48438 16.0002C12.9027 16.0002 16.4844 12.4185 16.4844 8.00024C16.4844 3.58197 12.9027 0.000244141 8.48438 0.000244141C4.0661 0.000244141 0.484375 3.58197 0.484375 8.00024C0.484375 12.4185 4.0661 16.0002 8.48438 16.0002Z" fill="#2A5284"/>
<path d="M10.6211 2.52893H12.1326L9.29159 6.32093H11.8411L5.75109 13.4709L7.72109 8.41893H5.49609L7.73959 2.52893H10.6211Z" fill="white" fill-opacity="0.704"/>
<path d="M10.6211 2.52893H10.7121L8.15859 6.88543H10.4936L5.75109 13.4704L7.72109 8.41893H5.49609L7.73959 2.52893H10.6211Z" fill="white"/>
</g>
<defs>
<clipPath id="clip0_2_3745">
<rect width="16" height="16" fill="white" transform="translate(0.484375 0.000244141)"/>
</clipPath>
</defs>
</svg>
