<svg width="17" height="16" viewBox="0 0 17 16" fill="none" xmlns="http://www.w3.org/2000/svg">
<g clip-path="url(#clip0_2_3755)">
<path d="M16.1002 7.67903H16.0818L15.4972 4.85597C15.553 4.83541 15.5997 4.79594 15.6293 4.74445C15.6589 4.69295 15.6695 4.6327 15.6593 4.57418C15.649 4.51567 15.6185 4.46262 15.5732 4.42428C15.5278 4.38593 15.4704 4.36473 15.411 4.36437C15.366 4.36439 15.3218 4.37679 15.2833 4.4002L12.9832 1.68016C13.0313 1.63435 13.0591 1.57133 13.0607 1.50497C13.0623 1.43861 13.0374 1.37434 12.9916 1.3263C12.9458 1.27826 12.8828 1.25039 12.8164 1.24881C12.7501 1.24724 12.6858 1.27209 12.6378 1.3179C12.6175 1.3371 12.6006 1.35963 12.5879 1.38453L10.2744 0.336381C10.2835 0.310654 10.2882 0.283595 10.2884 0.256314C10.2882 0.192688 10.2641 0.131464 10.2208 0.0847847C10.1776 0.0381051 10.1184 0.00937973 10.055 0.00430588C9.99154 -0.000767978 9.92853 0.0181803 9.87842 0.0573927C9.82832 0.096605 9.79478 0.153217 9.78446 0.216H8.37741C8.32861 0.175079 8.26696 0.152651 8.20327 0.152651C8.13959 0.152651 8.07794 0.175079 8.02914 0.216H6.61929C6.61514 0.182237 6.60423 0.149655 6.5872 0.120204C6.57018 0.0907525 6.54739 0.0650353 6.52021 0.0445892C6.49302 0.0241431 6.46199 0.0093878 6.42897 0.00120515C6.39595 -0.00697749 6.36162 -0.00841954 6.32803 -0.00303482C6.29445 0.0023499 6.26229 0.0144509 6.23348 0.0325449C6.20467 0.0506389 6.17981 0.0743546 6.16038 0.102275C6.14094 0.130195 6.12734 0.161746 6.12038 0.195043C6.11341 0.22834 6.11323 0.262699 6.11985 0.296067C6.12162 0.309797 6.12481 0.323307 6.12936 0.336381L3.81974 1.38453C3.78937 1.3255 3.73679 1.28096 3.67358 1.26069C3.61037 1.24043 3.5417 1.2461 3.48267 1.27647C3.42364 1.30684 3.37909 1.35941 3.35883 1.42262C3.33856 1.48583 3.34424 1.55451 3.37461 1.61353C3.38757 1.63825 3.40439 1.66074 3.42444 1.68016L1.11425 4.39236C1.07578 4.36895 1.03162 4.35656 0.986588 4.35653C0.927185 4.35689 0.869794 4.3781 0.824422 4.41644C0.779051 4.45478 0.748576 4.50783 0.738314 4.56635C0.728051 4.62486 0.738651 4.68511 0.768265 4.73661C0.797879 4.78811 0.844629 4.82757 0.900362 4.84813L0.326454 7.68071H0.307977C0.225134 7.68417 0.146833 7.71952 0.0894393 7.77936C0.0320455 7.8392 0 7.9189 0 8.00182C0 8.08473 0.0320455 8.16444 0.0894393 8.22428C0.146833 8.28412 0.225134 8.31947 0.307977 8.32293H0.326454L0.903722 11.1494C0.847988 11.1699 0.801239 11.2094 0.771624 11.2609C0.74201 11.3124 0.73141 11.3726 0.741673 11.4311C0.751936 11.4896 0.78241 11.5427 0.827782 11.581C0.873154 11.6194 0.930545 11.6406 0.989948 11.641C1.03491 11.6404 1.07893 11.628 1.11761 11.6051L3.425 14.3235C3.39867 14.3486 3.37814 14.3791 3.36483 14.413C3.35153 14.4469 3.34576 14.4832 3.34794 14.5195C3.35011 14.5559 3.36018 14.5913 3.37744 14.6233C3.3947 14.6553 3.41874 14.6832 3.44787 14.705C3.47701 14.7268 3.51054 14.742 3.54614 14.7495C3.58174 14.757 3.61855 14.7566 3.654 14.7484C3.68946 14.7403 3.7227 14.7245 3.75142 14.7021C3.78014 14.6798 3.80364 14.6515 3.8203 14.6191L6.13216 15.6678C6.12331 15.6936 6.11858 15.7206 6.11817 15.7479C6.11837 15.8115 6.14249 15.8727 6.18572 15.9194C6.22896 15.9661 6.28816 15.9948 6.35158 15.9999C6.415 16.005 6.47802 15.986 6.52812 15.9468C6.57823 15.9076 6.61177 15.851 6.62209 15.7882H8.02914C8.07803 15.8289 8.13965 15.8512 8.20327 15.8512C8.2669 15.8512 8.32851 15.8289 8.37741 15.7882H9.78446C9.79478 15.851 9.82832 15.9076 9.87842 15.9468C9.92853 15.986 9.99154 16.005 10.055 15.9999C10.1184 15.9948 10.1776 15.9661 10.2208 15.9194C10.2641 15.8727 10.2882 15.8115 10.2884 15.7479C10.2882 15.7206 10.2835 15.6935 10.2744 15.6678L12.5885 14.6169C12.6051 14.6492 12.6286 14.6775 12.6574 14.6999C12.6861 14.7222 12.7193 14.738 12.7548 14.7462C12.7902 14.7544 12.827 14.7547 12.8626 14.7472C12.8982 14.7397 12.9318 14.7245 12.9609 14.7027C12.99 14.681 13.0141 14.6531 13.0313 14.621C13.0486 14.589 13.0587 14.5536 13.0608 14.5173C13.063 14.481 13.0573 14.4446 13.044 14.4108C13.0306 14.3769 13.0101 14.3464 12.9838 14.3212L15.2856 11.6163C15.3243 11.6392 15.3683 11.6516 15.4132 11.6521C15.4726 11.6518 15.53 11.6306 15.5754 11.5922C15.6208 11.5539 15.6512 11.5008 15.6615 11.4423C15.6718 11.3838 15.6612 11.3236 15.6316 11.2721C15.6019 11.2206 15.5552 11.1811 15.4995 11.1605L16.0835 8.31957H16.1019C16.1848 8.31611 16.2631 8.28076 16.3205 8.22092C16.3779 8.16108 16.4099 8.08138 16.4099 7.99846C16.4099 7.91554 16.3779 7.83584 16.3205 7.776C16.2631 7.71616 16.1848 7.68081 16.1019 7.67735L16.1002 7.67903ZM15.3908 4.87165L15.6495 6.95283L14.8259 5.22495C14.8782 5.18582 14.9166 5.13087 14.9352 5.06824C14.9539 5.00561 14.9519 4.93864 14.9295 4.87725L15.1954 4.75407C15.2166 4.7875 15.2453 4.81553 15.2792 4.83594C15.3132 4.85635 15.3514 4.86858 15.3908 4.87165ZM14.2632 10.2765L14.2072 8.19695C14.2471 8.1939 14.2851 8.17884 14.3163 8.15375C14.3475 8.12867 14.3704 8.09473 14.3819 8.05641H14.7973C14.7973 8.06649 14.8018 8.07657 14.8046 8.08721C14.8074 8.09784 14.8113 8.11016 14.8153 8.12136V8.12808C14.8312 8.16821 14.8552 8.20463 14.8859 8.23507C14.9165 8.26551 14.9531 8.28932 14.9933 8.30501L14.7772 9.78317L14.3852 10.4982L14.2632 10.2765ZM2.0157 10.4971L1.62377 9.78205L1.40988 8.30333C1.46181 8.28306 1.50742 8.24937 1.54205 8.20569C1.57668 8.16201 1.59908 8.10991 1.60697 8.05473H2.03082C2.03655 8.06738 2.04329 8.07955 2.05098 8.09113C2.06567 8.11868 2.08667 8.14238 2.11226 8.16029C2.13785 8.17819 2.16731 8.18979 2.19823 8.19415L2.14224 10.2753L2.0157 10.4971ZM2.03194 10.6695V10.6656V10.6695ZM2.14392 5.72383L2.19991 7.80501C2.16892 7.80915 2.13936 7.82066 2.11374 7.83859C2.08812 7.85652 2.06717 7.88033 2.05266 7.90803C2.04474 7.91946 2.03799 7.93166 2.0325 7.94443H1.61089C1.60317 7.88919 1.58083 7.83702 1.54618 7.79331C1.51152 7.7496 1.46582 7.71595 1.4138 7.69583L1.62993 6.21543L2.02186 5.50043L2.14392 5.72383ZM14.3897 5.50378L14.7817 6.21879L14.9978 7.69695C14.9574 7.71247 14.9208 7.73621 14.8901 7.76667C14.8595 7.79714 14.8355 7.83365 14.8197 7.87388V7.8806C14.8155 7.89177 14.812 7.90317 14.8091 7.91475C14.8061 7.92487 14.8036 7.93515 14.8018 7.94555H14.3897C14.3784 7.90711 14.3556 7.87304 14.3244 7.84793C14.2932 7.82281 14.255 7.80783 14.215 7.80501L14.271 5.72551L14.3897 5.50378ZM14.3735 5.33133H14.3763V5.33525L14.3735 5.33133ZM14.4295 5.4338L14.5235 5.26974C14.5593 5.28364 14.5972 5.29104 14.6355 5.29158H14.645L14.752 6.01946L14.4295 5.4338ZM15.5818 7.95339H15.4312C15.4235 7.90697 15.4057 7.86283 15.379 7.82411C15.3522 7.78539 15.3173 7.75306 15.2766 7.72942C15.2703 7.72555 15.2637 7.722 15.257 7.71879C15.25 7.7148 15.2427 7.71124 15.2352 7.70815C15.1956 7.69015 15.1527 7.6808 15.1092 7.68071H15.0918L14.9138 6.46627L15.6546 7.81901C15.6151 7.85369 15.5885 7.90063 15.579 7.95227L15.5818 7.95339ZM15.6551 8.18575L14.916 9.53849L15.0941 8.32405H15.1114C15.1549 8.3237 15.1978 8.31435 15.2374 8.29661C15.2447 8.29661 15.252 8.28933 15.2587 8.28597C15.2654 8.28276 15.272 8.27921 15.2783 8.27534C15.3189 8.25158 15.3537 8.21921 15.3804 8.18052C15.4071 8.14182 15.425 8.09773 15.4328 8.05137H15.5835C15.5921 8.1025 15.617 8.14945 15.6546 8.18519L15.6551 8.18575ZM14.2693 5.51498L14.2733 5.36717C14.2859 5.36607 14.2985 5.36382 14.3108 5.36045L14.3337 5.40244L14.2693 5.51498ZM14.3253 4.97915V4.98363C14.3046 4.9758 14.2826 4.97181 14.2604 4.97187C14.2445 4.97187 14.2286 4.97413 14.2134 4.97859V4.96851L14.1529 4.83525L14.336 4.89964C14.3274 4.92518 14.3221 4.95171 14.3203 4.97859L14.3253 4.97915ZM14.2055 5.36045L14.1982 5.6404L13.3768 7.06929L12.5639 6.1544C12.5923 6.11943 12.6079 6.07575 12.6081 6.03066C12.6081 6.01168 12.6053 5.9928 12.5997 5.97467L14.0874 5.27254C14.113 5.31407 14.1528 5.3449 14.1994 5.35933L14.2055 5.36045ZM11.5123 12.2003L11.621 12.1622L11.5235 12.4422C11.5137 12.4404 11.5038 12.4395 11.4939 12.4394C11.4809 12.4393 11.4679 12.4406 11.4552 12.4433C11.4813 12.4093 11.4998 12.3701 11.5094 12.3284C11.5191 12.2867 11.5197 12.2434 11.5112 12.2014L11.5123 12.2003ZM11.4787 12.1062C11.4527 12.0578 11.414 12.0174 11.3668 11.9892L12.145 10.0519L12.2268 10.0374C12.2437 10.0857 12.2783 10.1257 12.3237 10.1494L11.6585 12.0385L11.4787 12.1062ZM11.2934 12.6398L10.8455 12.7221L11.0319 12.5172C11.0733 12.5446 11.1206 12.5615 11.17 12.5667C11.2193 12.5719 11.2691 12.5651 11.3153 12.5469C11.3019 12.5727 11.2944 12.6012 11.2934 12.6303L11.2901 12.6382L11.2934 12.6398ZM8.39868 13.2412L10.6154 12.833L9.32757 14.2546L8.36397 13.3588C8.38644 13.3257 8.39853 13.2867 8.39868 13.2468C8.39674 13.2447 8.39504 13.2425 8.39364 13.2401L8.39868 13.2412ZM8.38636 13.1762C8.37539 13.144 8.35607 13.1152 8.33037 13.0928L8.8119 12.3056H10.8998C10.9087 12.3579 10.9308 12.4071 10.9642 12.4483L10.6943 12.749L8.38636 13.1762ZM8.05042 13.3565L7.08681 14.2524L5.79902 12.8308L8.0157 13.2389V13.2423C8.01372 13.2815 8.02325 13.3204 8.04314 13.3543L8.05042 13.3565ZM8.02858 13.1762L5.72567 12.7513L5.45299 12.4506C5.48634 12.4093 5.50851 12.3601 5.51738 12.3078H7.60529L8.07953 13.0917C8.05392 13.1139 8.03461 13.1425 8.02354 13.1745L8.02858 13.1762ZM5.11705 12.6298C5.11603 12.6007 5.10858 12.5722 5.09521 12.5463C5.14134 12.5645 5.19118 12.5713 5.2405 12.5661C5.28982 12.561 5.33716 12.544 5.37853 12.5166L5.56498 12.7216L5.11705 12.6393V12.6298ZM4.95747 12.4422C4.93498 12.4371 4.91165 12.4371 4.88916 12.4422L4.79174 12.1622L4.90036 12.2003C4.89678 12.2188 4.89491 12.2375 4.89476 12.2563C4.89353 12.3222 4.91312 12.3869 4.95075 12.4411L4.95747 12.4422ZM4.9334 12.1062L4.74919 12.0418L4.08737 10.1471C4.13273 10.1235 4.16737 10.0834 4.18424 10.0351L4.26598 10.0497L5.04426 11.987C4.99574 12.0153 4.95586 12.0564 4.92892 12.1057L4.9334 12.1062ZM4.8998 3.80166L4.79118 3.83973L4.8886 3.55978C4.89849 3.56033 4.90839 3.56033 4.91828 3.55978C4.93123 3.55931 4.94413 3.558 4.95691 3.55586C4.90793 3.62665 4.88606 3.71271 4.89532 3.7983L4.8998 3.80166ZM4.9334 3.89573C4.95977 3.94391 4.9984 3.98428 5.04538 4.01275L4.2671 5.95003L4.18536 5.96459C4.16885 5.91609 4.13411 5.87593 4.08849 5.85261L4.75255 3.95788L4.9334 3.89573ZM5.12097 3.35989L5.56889 3.27759L5.38244 3.48251C5.3412 3.45489 5.29383 3.43776 5.24446 3.43259C5.19509 3.42741 5.14521 3.43437 5.09913 3.45284C5.11236 3.42693 5.11981 3.39847 5.12097 3.36941L5.12433 3.36157L5.12097 3.35989ZM8.01514 2.76079L5.79846 3.16896L7.08625 1.74735L8.04986 2.64321C8.02723 2.67617 8.01512 2.71521 8.01514 2.75519C8.01514 2.75519 8.01066 2.75911 8.01066 2.76023L8.01514 2.76079ZM8.02746 2.82574C8.03874 2.85785 8.05801 2.88656 8.08345 2.90916L7.60137 3.69584H5.51346C5.50481 3.64345 5.48262 3.59423 5.44907 3.55306L5.72175 3.25239L8.02746 2.82574ZM8.36341 2.64545L9.32701 1.74959L10.6148 3.1712L8.39868 2.76303V2.75967C8.39881 2.71846 8.38587 2.67828 8.36173 2.64489L8.36341 2.64545ZM8.38524 2.82574L10.6882 3.25071L10.9608 3.55138C10.927 3.59302 10.9048 3.64286 10.8964 3.69584H8.80854L8.32701 2.9086C8.35219 2.88644 8.37143 2.85834 8.383 2.82686L8.38524 2.82574ZM11.2968 3.37221C11.2979 3.40127 11.3054 3.42973 11.3186 3.45564C11.2725 3.43717 11.2227 3.43021 11.1733 3.43539C11.1239 3.44056 11.0765 3.45769 11.0353 3.48531L10.8488 3.28038L11.2968 3.36269V3.37221ZM11.4564 3.55978C11.4691 3.56192 11.482 3.56322 11.495 3.5637C11.5049 3.56428 11.5148 3.56428 11.5247 3.5637L11.6221 3.84365L11.5135 3.80558C11.522 3.7636 11.5214 3.72028 11.5118 3.67855C11.5021 3.63682 11.4836 3.59765 11.4575 3.5637L11.4564 3.55978ZM11.4804 3.89573L11.6646 3.96011L12.3265 5.85485C12.2808 5.87817 12.2461 5.91833 12.2296 5.96683L12.1478 5.95227L11.3662 4.01499C11.4135 3.98543 11.4521 3.9439 11.4782 3.89461L11.4804 3.89573ZM13.0179 7.69359C12.9618 7.67276 12.9004 7.67022 12.8427 7.68631L12.5331 6.91644L12.4681 6.22159C12.4879 6.21609 12.5068 6.20759 12.5241 6.19639L13.3433 7.12752L13.0179 7.69359ZM13.416 7.20983L14.0207 7.89516L14.0017 7.94051H13.2262C13.2135 7.863 13.1719 7.79318 13.1098 7.7451L13.416 7.20983ZM12.663 7.81061C12.6477 7.80578 12.6319 7.80314 12.6159 7.80277L12.5672 7.27982L12.7469 7.72774C12.7132 7.74919 12.6841 7.77717 12.6613 7.81005L12.663 7.81061ZM12.7464 8.27366L12.5667 8.72158L12.6154 8.19863C12.6313 8.19775 12.6471 8.19512 12.6624 8.19079C12.6844 8.22333 12.7123 8.25144 12.7447 8.27366H12.7464ZM12.486 7.07489L12.556 7.81061C12.5254 7.81922 12.4973 7.83521 12.4743 7.85717C12.4512 7.87913 12.4339 7.9064 12.4239 7.93659H11.0375C11.0307 7.91633 11.0205 7.89739 11.0073 7.8806L12.1988 6.36269L12.486 7.07489ZM7.98435 7.76638C7.93797 7.8117 7.90702 7.87047 7.89588 7.93435L5.73575 7.93715C5.71785 7.90015 5.68889 7.86962 5.65288 7.8498L6.44291 5.77478C6.48433 5.78579 6.52821 5.78283 6.56778 5.76638L7.98435 7.76638ZM6.65232 5.69471C6.67131 5.6686 6.68362 5.63822 6.68816 5.60625H9.72175C9.72629 5.63822 9.73859 5.6686 9.75758 5.69471L8.33261 7.70479C8.29258 7.68635 8.24903 7.6768 8.20495 7.67679H8.20103C8.15696 7.6768 8.11341 7.68635 8.07337 7.70479L6.65232 5.69471ZM5.73463 8.06593H7.89476C7.90601 8.12978 7.93694 8.18851 7.98323 8.2339L6.56666 10.2367C6.52722 10.2197 6.48315 10.2167 6.4418 10.2283L5.65176 8.15663C5.6881 8.1357 5.71706 8.10401 5.73463 8.06593ZM8.07393 8.29549C8.11413 8.31342 8.15758 8.32295 8.20159 8.32349H8.20551C8.24953 8.32295 8.29297 8.31342 8.33317 8.29549L9.75478 10.3028C9.73561 10.3288 9.72328 10.3592 9.71895 10.3912H6.68648C6.68214 10.3592 6.66982 10.3288 6.65064 10.3028L8.07393 8.29549ZM8.42388 8.2339C8.47017 8.18851 8.5011 8.12978 8.51234 8.06593H10.663C10.6787 8.10947 10.7089 8.14626 10.7486 8.17007L9.96475 10.2289C9.92324 10.217 9.87889 10.22 9.83933 10.2373L8.42388 8.2339ZM10.6635 7.93379L8.51066 7.93099C8.49953 7.86711 8.46858 7.80834 8.4222 7.76302L9.83821 5.75966C9.87881 5.77683 9.92405 5.77959 9.96643 5.7675L10.7503 7.82629C10.7093 7.85044 10.6785 7.88863 10.6635 7.93379ZM9.9166 5.38004C9.89244 5.38001 9.8685 5.38457 9.84605 5.39348L8.87013 3.79774H10.8942C10.9052 3.86132 10.9355 3.91996 10.981 3.96571L9.97315 5.38788C9.95499 5.38249 9.93609 5.38004 9.91716 5.3806L9.9166 5.38004ZM9.79398 5.42372C9.75481 5.45416 9.72877 5.49843 9.72119 5.54746H6.68648C6.6789 5.49843 6.65286 5.45416 6.61369 5.42372L7.61089 3.79998H8.79622L9.79398 5.42372ZM6.5633 5.39404C6.52275 5.37764 6.47768 5.37625 6.4362 5.39012L5.43116 3.96795C5.47683 3.92234 5.50716 3.86363 5.51794 3.79998H7.54202L6.5633 5.39404ZM6.38916 5.74847L5.59913 7.82517C5.58555 7.82199 5.57164 7.82049 5.5577 7.82069C5.52132 7.82067 5.48566 7.83075 5.45467 7.8498L4.23799 6.29606L4.35837 5.99594L6.30406 5.64096C6.31834 5.68534 6.34764 5.72336 6.38692 5.74847H6.38916ZM5.55546 8.17959C5.57012 8.17936 5.58473 8.17786 5.59913 8.17511L6.38972 10.2518C6.34993 10.2764 6.32016 10.3143 6.30574 10.3588L4.36005 10.0038L4.23967 9.70366L5.45355 8.14992C5.48434 8.16856 5.51948 8.17879 5.55546 8.17959ZM6.43396 10.6107C6.47552 10.624 6.52039 10.6226 6.56106 10.6068L7.53698 12.2014H5.5129C5.50238 12.1377 5.47201 12.0789 5.42612 12.0334L6.43396 10.6107ZM6.61369 10.5766C6.65264 10.5459 6.67863 10.5018 6.68648 10.4528H9.72119C9.72903 10.5018 9.75502 10.5459 9.79398 10.5766L8.79678 12.2003H7.61033L6.61369 10.5766ZM9.84661 10.6068C9.88727 10.6226 9.93215 10.624 9.97371 10.6107L10.9815 12.0329C10.9358 12.0785 10.9055 12.1372 10.8948 12.2009H8.87069L9.84661 10.6068ZM10.0224 10.2524L10.8063 8.19303C10.8335 8.19972 10.8619 8.20043 10.8895 8.19512C10.917 8.1898 10.9431 8.17858 10.9659 8.16223L12.173 9.70422L12.0521 10.0038L10.1047 10.3588C10.0903 10.3141 10.0603 10.2762 10.0202 10.2518L10.0224 10.2524ZM10.8516 7.80221C10.8364 7.80214 10.8211 7.80402 10.8063 7.80781L10.0224 5.74847C10.0621 5.72376 10.0918 5.68591 10.1064 5.64152L12.0521 5.9965L12.1725 6.29662L10.9636 7.83917C10.9302 7.81509 10.89 7.80216 10.8488 7.80221H10.8516ZM12.2721 6.17064L12.2469 6.20255L12.173 6.0189L12.215 6.02674V6.03178C12.2151 6.08338 12.2352 6.13293 12.271 6.17008L12.2721 6.17064ZM12.2721 6.2675L12.3197 6.20647C12.3461 6.22019 12.3751 6.22802 12.4048 6.22943L12.4502 6.71151L12.2721 6.2675ZM12.0241 5.9254L10.1165 5.57993C10.1163 5.53074 10.0978 5.48339 10.0644 5.44723L11.0678 4.0273C11.1305 4.05805 11.2017 4.06654 11.2699 4.05138L12.0241 5.9254ZM8.73463 3.69584H7.6764L8.13944 2.94164C8.16032 2.95057 8.1828 2.95518 8.20551 2.95518C8.22822 2.95518 8.2507 2.95057 8.27158 2.94164L8.73463 3.69584ZM5.14 4.05138C5.20814 4.06682 5.27952 4.05832 5.34213 4.0273L6.34549 5.44723C6.31214 5.48339 6.29356 5.53074 6.29342 5.57993L4.38412 5.9254L5.14 4.05138ZM4.19376 6.02618L4.23575 6.01834L4.16184 6.20199L4.13664 6.17008C4.17293 6.13279 4.19305 6.08269 4.19264 6.03066C4.19322 6.02923 4.1936 6.02772 4.19376 6.02618ZM4.08737 6.20535L4.13552 6.26638L3.95691 6.70927L4.00227 6.22719C4.03188 6.22618 4.06093 6.21873 4.08737 6.20535ZM4.20943 6.36101L5.40708 7.88508C5.39417 7.8993 5.38342 7.91533 5.37517 7.93267H3.97203C3.96274 7.90493 3.94736 7.87961 3.92702 7.85859C3.90667 7.83756 3.88187 7.82136 3.85445 7.81117L3.92388 7.07097L4.20943 6.36101ZM3.87349 6.91532L3.56386 7.68519C3.50613 7.6691 3.4448 7.67164 3.3886 7.69247L3.0633 7.1264L3.88244 6.19527C3.89977 6.20637 3.91864 6.21486 3.93844 6.22047L3.87349 6.91532ZM3.79062 7.80221H3.78278C3.76846 7.80176 3.75414 7.80327 3.74023 7.80669C3.71861 7.77553 3.69148 7.74858 3.66016 7.72718L3.83989 7.27926L3.79062 7.80221ZM3.83933 8.72046L3.6596 8.27254C3.69086 8.25088 3.71814 8.22398 3.74023 8.19303C3.75423 8.1959 3.76848 8.1974 3.78278 8.19751H3.79062L3.83933 8.72046ZM3.29566 7.74286C3.23354 7.79094 3.19192 7.86076 3.1792 7.93827H2.4138C2.40876 7.92067 2.40122 7.90389 2.3914 7.88844L2.99219 7.20535L3.29566 7.74286ZM2.34661 7.84588C2.3228 7.82617 2.29455 7.81252 2.2643 7.80613L2.21503 5.85149L2.95859 7.15272L2.34661 7.84588ZM2.2643 8.19415C2.29438 8.18726 2.32252 8.17367 2.34661 8.1544L2.95859 8.847L2.21503 10.1488L2.2643 8.19415ZM2.38972 8.10792C2.39933 8.09236 2.40686 8.07561 2.41212 8.05809L3.17864 8.06145C3.19163 8.13887 3.23319 8.2086 3.2951 8.25686L2.99051 8.79101L2.38972 8.10792ZM3.38916 8.30725C3.44546 8.32753 3.50663 8.33007 3.56442 8.31453L3.87517 9.08496L3.94012 9.77981C3.92015 9.78494 3.90121 9.79346 3.88412 9.80501L3.06554 8.87388L3.38916 8.30725ZM3.9222 8.92315L3.85277 8.18295C3.8801 8.17259 3.9048 8.15633 3.92512 8.13533C3.94545 8.11433 3.96089 8.0891 3.97035 8.06145H5.37517C5.38372 8.07862 5.39445 8.09461 5.40708 8.10904L4.21167 9.63927L3.9222 8.92315ZM4.13608 9.82796L4.16128 9.79605L4.23519 9.9797L4.19319 9.97186V9.96682C4.19294 9.91575 4.17286 9.86677 4.1372 9.8302L4.13608 9.82796ZM4.13608 9.7311L4.08737 9.79213C4.0611 9.77815 4.032 9.7703 4.00227 9.76917L3.95691 9.28709L4.13608 9.7311ZM4.38412 10.0704L6.2923 10.4147C6.29265 10.4639 6.3112 10.5112 6.34437 10.5474L5.33989 11.9724C5.27736 11.9411 5.20589 11.9326 5.13776 11.9483L4.38412 10.0704ZM7.67416 12.3022H8.73463L8.27158 13.0564C8.25075 13.0473 8.22826 13.0426 8.20551 13.0426C8.18277 13.0426 8.16027 13.0473 8.13944 13.0564L7.67416 12.3022ZM11.2688 11.9467C11.2007 11.9309 11.1292 11.9395 11.0667 11.9707L10.0633 10.5508C10.0965 10.5145 10.115 10.4673 10.1154 10.4181L12.023 10.0726L11.2688 11.9467ZM12.2128 9.97186L12.1708 9.9797L12.2453 9.79885L12.2705 9.83076C12.2524 9.84918 12.2382 9.87097 12.2286 9.89489C12.219 9.91882 12.2142 9.9444 12.2145 9.97018C12.2143 9.97242 12.2143 9.97466 12.2145 9.9769L12.2128 9.97186ZM12.3186 9.79213L12.271 9.7311L12.4496 9.28709L12.4043 9.76917C12.3739 9.77046 12.3443 9.77911 12.3181 9.79437L12.3186 9.79213ZM12.1966 9.63648L11.0056 8.11912C11.0186 8.10218 11.0288 8.08328 11.0359 8.06313H12.4205C12.4307 8.09323 12.4481 8.12041 12.4711 8.14234C12.4941 8.16428 12.5221 8.18032 12.5527 8.18911L12.486 8.92427L12.1966 9.63648ZM12.5325 9.08216L12.8421 8.31229C12.8999 8.32783 12.9611 8.32529 13.0174 8.30501L13.3427 8.87108L12.5235 9.80221C12.5065 9.79056 12.4876 9.78203 12.4676 9.77701L12.5325 9.08216ZM13.1103 8.25462C13.1722 8.20636 13.2138 8.13663 13.2268 8.05921L14.0011 8.05585L14.0202 8.1012L13.416 8.79101L13.1103 8.25462ZM14.0622 8.14544C14.0846 8.16488 14.1109 8.1792 14.1394 8.18743L14.1887 10.1471L13.4457 8.847L14.0622 8.14544ZM14.1394 7.80949C14.1108 7.81725 14.0843 7.83163 14.0622 7.85148L13.4463 7.15216L14.1898 5.85093L14.1394 7.80949ZM14.1098 5.03626L13.3897 4.56594L14.0157 4.78598L14.0191 4.7927L14.1215 5.0245C14.1182 5.02954 14.1137 5.0329 14.1103 5.03738L14.1098 5.03626ZM14.0723 5.09561C14.0572 5.13296 14.0543 5.17409 14.0639 5.21319L12.5767 5.92092C12.5567 5.88854 12.5275 5.86294 12.4927 5.84746C12.4579 5.83198 12.4193 5.82733 12.3819 5.83413L11.7385 3.98643L13.1193 4.46963L14.0723 5.09561ZM11.6966 3.86381L11.5846 3.53514C11.6036 3.52469 11.6209 3.51148 11.6361 3.49595L12.7783 4.24791L11.6966 3.86381ZM11.5465 3.1712C11.5209 3.16289 11.4939 3.16024 11.4672 3.16343C11.4405 3.16662 11.4148 3.17558 11.392 3.18968L9.94907 1.40917C9.96576 1.39034 9.97903 1.36874 9.98827 1.34534L12.4519 1.68576C12.4542 1.73691 12.4739 1.78572 12.5079 1.82406L12.4222 1.945L11.5465 3.1712ZM12.4642 1.61129L10.0006 1.26751C10.0006 1.2246 9.98786 1.18266 9.96392 1.14705C9.93998 1.11144 9.90596 1.08378 9.86621 1.06762L9.89812 0.934924L9.91044 0.89629L12.0941 1.40637L12.467 1.60626L12.4642 1.61129ZM9.8886 1.45452L11.3365 3.23503C11.3213 3.25273 11.3093 3.27302 11.3013 3.29494L10.7665 3.1964L9.38916 1.68464L9.6512 1.43996C9.68436 1.4663 9.72465 1.48208 9.76687 1.48528C9.80909 1.48847 9.8513 1.47893 9.88804 1.45788L9.8886 1.45452ZM9.79846 1.05418H9.78614C9.75359 1.05444 9.72153 1.06214 9.69241 1.0767C9.6633 1.09126 9.6379 1.11228 9.61817 1.13817L8.62265 0.597299L9.83821 0.881733L9.79846 1.05418ZM9.34493 1.63257L9.04762 1.30558H9.57449C9.57924 1.3353 9.59011 1.36371 9.60641 1.38901L9.34493 1.63257ZM9.27774 1.69584L8.31581 2.59785C8.28408 2.57232 8.24457 2.55839 8.20383 2.55839C8.1631 2.55839 8.12359 2.57232 8.09185 2.59785L7.12824 1.69528L7.48099 1.30334H8.92556L9.27774 1.69584ZM7.0605 1.63257L6.79958 1.39013C6.81588 1.36483 6.82675 1.33642 6.83149 1.3067H7.35725L7.0605 1.63257ZM6.61873 1.48531C6.6667 1.48488 6.71318 1.46854 6.75087 1.43884L7.0129 1.68352L5.63552 3.19528L5.10193 3.29382C5.09408 3.27179 5.08211 3.25146 5.06666 3.23391L6.51514 1.4562C6.54689 1.47444 6.58269 1.48445 6.61929 1.48531H6.61873ZM6.56609 0.881733L7.78278 0.597299L6.78782 1.13649C6.76809 1.1106 6.74269 1.08958 6.71357 1.07502C6.68446 1.06046 6.6524 1.05276 6.61985 1.05251H6.60697L6.56609 0.881733ZM6.40204 1.26919L3.93844 1.61297V1.60514L4.31134 1.40525L6.49499 0.89629L6.5045 0.936604L6.53642 1.0693C6.4966 1.08562 6.46257 1.11349 6.43872 1.14931C6.41487 1.18513 6.40229 1.22727 6.4026 1.27031L6.40204 1.26919ZM3.95299 1.68856L6.4166 1.34814C6.42605 1.37143 6.4393 1.393 6.45579 1.41197L5.0129 3.19192C4.99003 3.17782 4.96435 3.16886 4.93767 3.16567C4.91099 3.16248 4.88393 3.16513 4.85837 3.17344L3.98771 1.94724L3.90204 1.8263C3.93462 1.78772 3.95282 1.73905 3.95355 1.68856H3.95299ZM4.70887 3.86773L3.62545 4.25071L4.77158 3.49987C4.78673 3.5154 4.80409 3.52861 4.82309 3.53906L4.70887 3.86773ZM4.66688 3.98755L4.02354 5.83525C3.98611 5.82853 3.94752 5.83321 3.91277 5.84869C3.87803 5.86416 3.84874 5.88971 3.82869 5.92204L2.34157 5.21431C2.34505 5.19963 2.34693 5.18461 2.34717 5.16952C2.34707 5.1446 2.34232 5.11991 2.33317 5.09673L3.28502 4.47243L4.66688 3.98755ZM2.29566 5.03962L2.2839 5.02786L2.38636 4.79606L2.38972 4.78934L3.0157 4.5693L2.29566 5.03962ZM2.31582 5.27702L3.80742 5.97691C3.80182 5.99504 3.79899 6.01392 3.79902 6.0329C3.79917 6.07799 3.81479 6.12167 3.84325 6.15664L3.0325 7.07265L2.21111 5.64376L2.20383 5.36381C2.25084 5.34892 2.29071 5.31722 2.31582 5.27478V5.27702ZM2.19488 4.96963V4.97971C2.17959 4.97525 2.16376 4.97299 2.14784 4.97299C2.12566 4.97293 2.10365 4.97691 2.08289 4.98475V4.98083C2.08277 4.95302 2.07901 4.92535 2.07169 4.89852L2.25479 4.83413L2.19488 4.96963ZM2.13888 5.51666L2.07449 5.40468L2.09745 5.36269C2.10973 5.36606 2.12228 5.36831 2.13496 5.36941L2.13888 5.51666ZM1.29902 7.67791C1.22313 7.67825 1.14995 7.70614 1.0931 7.75641C1.03624 7.80667 0.999586 7.87588 0.989948 7.95115H0.828694C0.820556 7.89841 0.794684 7.85002 0.755345 7.81397L1.49611 6.46123L1.31806 7.67567C1.3121 7.67637 1.30609 7.67637 1.30014 7.67567L1.29902 7.67791ZM1.49443 9.54017L0.754785 8.18519C0.793912 8.14897 0.819742 8.10066 0.828134 8.04801H0.989388C0.998663 8.12383 1.0353 8.19366 1.09241 8.24438C1.14953 8.29511 1.22319 8.32323 1.29958 8.32349H1.31694L1.49443 9.54017ZM1.6568 6.02226L1.76374 5.29438H1.77326C1.8116 5.2939 1.84953 5.2865 1.88524 5.27254L1.97931 5.4366L1.6568 6.02226ZM1.52298 6.26358L0.691516 7.77534C0.684237 7.77198 0.676958 7.76974 0.669119 7.76694L0.72511 7.23502L1.66576 5.27534L1.52298 6.26358ZM0.692635 8.2255L1.5241 9.73726L1.66968 10.7272L0.72903 8.7675L0.673039 8.23558C0.678545 8.2316 0.684574 8.2284 0.690956 8.22606L0.692635 8.2255ZM1.65736 9.97914L1.97987 10.5654L1.8858 10.7294C1.85025 10.7149 1.81221 10.7075 1.77382 10.7076H1.7643L1.65736 9.97914ZM2.14 10.4831L2.13608 10.6309C2.12334 10.6314 2.11072 10.6337 2.09857 10.6376L2.07561 10.5956L2.14 10.4831ZM2.08401 11.0206V11.0167C2.10491 11.0239 2.12683 11.0279 2.14896 11.0284C2.16491 11.0278 2.18071 11.0252 2.19599 11.0206V11.0307L2.25646 11.1639L2.07169 11.0995C2.07913 11.0738 2.08327 11.0473 2.08401 11.0206ZM2.20383 10.6387L2.21111 10.3588L3.0325 8.92987L3.84101 9.84476C3.82132 9.86945 3.80797 9.89858 3.80212 9.92962C3.79626 9.96065 3.79808 9.99264 3.80742 10.0228L2.3175 10.7266C2.29217 10.6851 2.25223 10.6545 2.20551 10.641L2.20383 10.6387ZM2.29566 10.9646L3.0157 11.4349L2.39084 11.2149L2.38748 11.2081L2.28502 10.9747C2.28894 10.9707 2.29566 10.9646 2.29566 10.9646ZM2.33261 10.9052C2.34166 10.882 2.34641 10.8574 2.34661 10.8324C2.34644 10.8173 2.34456 10.8023 2.34101 10.7876L3.82925 10.0788C3.84946 10.111 3.87878 10.1364 3.91348 10.1518C3.94817 10.1673 3.98668 10.1721 4.0241 10.1656L4.66744 12.0133L3.28726 11.529L2.33261 10.9052ZM4.70831 12.137L4.82029 12.4657C4.80104 12.4758 4.78363 12.489 4.76878 12.5049L3.62601 11.7485L4.70831 12.137ZM4.86005 12.8308C4.88565 12.8388 4.91266 12.8413 4.9393 12.8381C4.96593 12.8349 4.99159 12.8261 5.01458 12.8123L6.45747 14.5928C6.44075 14.6116 6.42748 14.6332 6.41828 14.6566L3.95467 14.3162C3.95287 14.2649 3.93305 14.216 3.89868 14.1779L3.98547 14.0542L4.86005 12.8308ZM3.94236 14.3856L6.40596 14.7294C6.40607 14.7723 6.4189 14.8142 6.44282 14.8497C6.46674 14.8853 6.50068 14.913 6.54034 14.9293L6.50842 15.062L6.49891 15.1023L4.31526 14.5922L3.94236 14.3901V14.3856ZM6.51794 14.543L5.06778 12.7664C5.083 12.7487 5.09494 12.7284 5.10305 12.7065L5.63776 12.805L7.01514 14.3168L6.75311 14.5581C6.72005 14.5315 6.67974 14.5156 6.63746 14.5124C6.59519 14.5092 6.55293 14.5189 6.51626 14.5402L6.51794 14.543ZM6.61033 14.9467H6.62265C6.65515 14.9462 6.68713 14.9383 6.7162 14.9238C6.74528 14.9093 6.77071 14.8884 6.79062 14.8627L7.78278 15.4019L6.56554 15.118L6.61033 14.9467ZM7.06386 14.3683L7.36117 14.6953H6.83093C6.82638 14.6655 6.8155 14.637 6.79902 14.6118L7.06386 14.3683ZM7.13104 14.305L8.09353 13.4024C8.12539 13.4277 8.16486 13.4414 8.20551 13.4414C8.24617 13.4414 8.28563 13.4277 8.3175 13.4024L9.27998 14.305L8.92724 14.6969H7.48267L7.13104 14.305ZM9.34829 14.3683L9.60865 14.613C9.59216 14.6382 9.58128 14.6666 9.57673 14.6964H9.04818L9.34829 14.3683ZM9.7895 14.515C9.74143 14.5149 9.69479 14.5313 9.65736 14.5614L9.39532 14.3168L10.7727 12.805L11.3074 12.7065C11.3157 12.7283 11.3277 12.7485 11.3427 12.7664L9.89532 14.5452C9.86261 14.5253 9.82501 14.5148 9.7867 14.515H9.7895ZM9.84213 15.1185L8.62265 15.403L9.61593 14.8638C9.63583 14.8895 9.66126 14.9104 9.69034 14.9249C9.71942 14.9395 9.7514 14.9473 9.7839 14.9478H9.79846L9.84213 15.1185ZM10.0062 14.7311L12.4698 14.3873V14.3951L12.0941 14.595L9.91044 15.1051L9.90092 15.0648L9.86901 14.9321C9.90889 14.9158 9.94299 14.888 9.96694 14.8521C9.99088 14.8163 10.0036 14.7742 10.0034 14.7311H10.0062ZM12.4558 14.3117L9.99219 14.6521C9.9832 14.6286 9.96991 14.607 9.95299 14.5883L11.3959 12.8078C11.4189 12.8216 11.4445 12.8304 11.4712 12.8336C11.4978 12.8368 11.5248 12.8343 11.5504 12.8263L12.4233 14.0542L12.509 14.1751C12.475 14.2127 12.4552 14.2611 12.453 14.3117H12.4558ZM11.6999 12.1326L12.7811 11.7485L11.635 12.4987C11.6201 12.4829 11.6027 12.4696 11.5835 12.4595L11.6999 12.1326ZM11.7419 12.0127L12.3852 10.165C12.4227 10.1716 12.4612 10.1668 12.4959 10.1514C12.5306 10.1359 12.5599 10.1105 12.5801 10.0782L14.0689 10.7865C14.0593 10.8256 14.0623 10.8668 14.0773 10.9041L13.1254 11.5284L11.7419 12.0127ZM14.1098 10.9646L14.1215 10.9763L14.0191 11.2081L14.0157 11.2149L13.3897 11.4349L14.1098 10.9646ZM14.0896 10.7272L12.6019 10.0228C12.6113 9.99222 12.6129 9.9598 12.6066 9.92844C12.6004 9.89708 12.5864 9.86775 12.5661 9.84308L13.374 8.92707L14.1954 10.3588L14.2027 10.6387C14.1559 10.6529 14.1159 10.6841 14.0907 10.7261L14.0896 10.7272ZM14.2111 11.0346V11.0206C14.2265 11.0245 14.2423 11.0267 14.2581 11.0273C14.2803 11.0268 14.3022 11.0228 14.3231 11.0155V11.0195C14.3237 11.0465 14.3276 11.0734 14.3348 11.0995L14.1518 11.1639L14.2111 11.0346ZM14.2671 10.4875L14.3315 10.5995L14.3085 10.6415C14.2964 10.6376 14.2838 10.6353 14.271 10.6348L14.2671 10.4875ZM14.7497 9.98362L14.6428 10.7115H14.6333C14.5949 10.7115 14.5569 10.7189 14.5213 10.7333L14.4272 10.5693L14.7497 9.98362ZM14.883 9.74174L15.7145 8.22998C15.7217 8.23334 15.729 8.23558 15.7369 8.23838L15.6809 8.7703L14.7402 10.73L14.883 9.74174ZM15.7156 7.7731L14.8841 6.26134L14.738 5.27198L15.6786 7.23166L15.7346 7.76358C15.7297 7.76909 15.7229 7.7725 15.7156 7.7731ZM15.1893 4.45507L15.1949 4.46011L15.2044 4.47131C15.1831 4.50035 15.1685 4.5337 15.1615 4.56901C15.1545 4.60433 15.1554 4.64074 15.1641 4.67568L14.8903 4.79606C14.8616 4.75507 14.8235 4.72161 14.7792 4.69851C14.7348 4.67541 14.6855 4.66335 14.6355 4.66336C14.6072 4.66332 14.579 4.66785 14.5521 4.6768L13.3102 2.39349L14.9446 4.11633L15.1893 4.45507ZM14.0062 3.01611L13.1747 2.14265L13.0235 1.86269L14.0062 3.01611ZM12.878 1.77367L12.9463 1.90413L12.8556 1.80894C12.8639 1.79778 12.8714 1.78598 12.878 1.77367ZM13.0773 2.14713L14.453 4.72271C14.4204 4.74628 14.3926 4.77594 14.3712 4.81006L14.2117 4.75407L14.0997 4.71375L12.8119 1.86269L13.0773 2.14713ZM12.6747 1.90413C12.6966 1.90369 12.7183 1.90011 12.7391 1.89349L13.9636 4.66728H13.9558L13.051 4.34757L11.6708 3.44612C11.6872 3.40985 11.6922 3.36948 11.6852 3.3303C11.6782 3.29112 11.6595 3.25498 11.6316 3.22663L12.5835 1.88285C12.612 1.8963 12.6431 1.90355 12.6747 1.90413ZM12.5364 1.51219C12.524 1.5219 12.5127 1.53298 12.5028 1.54523L12.3684 1.473L12.5364 1.51219ZM12.3589 1.38397L12.084 1.31958L11.4513 0.978597L12.3589 1.38397ZM10.0045 0.504354C10.0442 0.510709 10.0848 0.50673 10.1224 0.492803C10.1601 0.478875 10.1935 0.45547 10.2195 0.424847L10.4995 0.550266L11.8057 1.25183L9.92948 0.812304L10.0045 0.504354ZM9.79062 0.320703C9.80519 0.372195 9.83555 0.417821 9.87741 0.451162L9.89308 0.46516H9.89756C9.90808 0.471676 9.91892 0.477656 9.93004 0.483077L9.85837 0.794387L8.74695 0.535709L8.48099 0.46516V0.456761L9.79062 0.320703ZM9.05098 0.296067L8.46867 0.346459C8.46313 0.32932 8.45581 0.312806 8.44683 0.297187L9.05098 0.296067ZM8.44123 0.583861L9.58289 1.19976C9.57895 1.21026 9.57614 1.22114 9.57449 1.23224H8.98323L8.41884 0.616336C8.42696 0.606961 8.43445 0.597046 8.44123 0.58666V0.583861ZM8.05322 0.672327C8.09786 0.701408 8.14999 0.716891 8.20327 0.716891C8.25655 0.716891 8.30869 0.701408 8.35333 0.672327L8.86117 1.23224H7.54538L8.05322 0.672327ZM7.98771 0.616336L7.42332 1.23224H6.83093C6.82933 1.22095 6.82651 1.20988 6.82253 1.1992L7.96419 0.583301C7.97097 0.593369 7.97826 0.603087 7.98603 0.612416L7.98771 0.616336ZM7.96027 0.299427C7.9513 0.315046 7.94398 0.331559 7.93844 0.348699L7.35613 0.298307L7.96027 0.299427ZM6.50954 0.4674H6.51402L6.5297 0.453402C6.57156 0.420061 6.60191 0.374435 6.61649 0.322943L7.925 0.458441V0.46684L7.65904 0.537388L6.54762 0.795507L6.47595 0.484197C6.4867 0.478962 6.49716 0.473168 6.5073 0.46684L6.50954 0.4674ZM6.1876 0.425966C6.21369 0.456388 6.24718 0.47958 6.28484 0.493308C6.32249 0.507037 6.36305 0.510841 6.4026 0.504354L6.47651 0.812304L4.60025 1.25071L5.90652 0.550266L6.1876 0.425966ZM4.95579 0.976357L4.32365 1.31678L4.04874 1.38117L4.95579 0.976357ZM4.03866 1.46908L3.90428 1.54131C3.89437 1.52906 3.8831 1.51798 3.87069 1.50827L4.03866 1.46908ZM3.73239 1.90413C3.76429 1.90373 3.79576 1.89668 3.82477 1.88341L4.77662 3.22719C4.74869 3.25554 4.73 3.29168 4.72301 3.33086C4.71601 3.37004 4.72104 3.41041 4.73743 3.44668L3.35501 4.34645L2.45019 4.66616H2.44236L3.66744 1.89405C3.68828 1.90067 3.70997 1.90425 3.73183 1.90469L3.73239 1.90413ZM3.53026 1.77311C3.53619 1.78577 3.54312 1.79794 3.55098 1.8095L3.46027 1.90413L3.53026 1.77311ZM3.59577 1.86493L2.30798 4.71599L2.19599 4.75631L2.03642 4.8123C2.01506 4.77818 1.9873 4.74852 1.95467 4.72495L3.33037 2.14937L3.59577 1.86493ZM3.38076 1.86493L3.22959 2.14489L2.39812 3.01779L3.38076 1.86493ZM1.19711 4.45171L1.20271 4.44668L1.45859 4.11689L3.09297 2.39349L1.85165 4.67848C1.82475 4.66953 1.79657 4.665 1.76822 4.66504C1.71793 4.66476 1.66832 4.67668 1.62366 4.6998C1.57899 4.72291 1.5406 4.75652 1.51178 4.79774L1.23183 4.66784C1.23617 4.64948 1.23861 4.63071 1.23911 4.61185C1.23912 4.55915 1.22246 4.50781 1.19152 4.46515L1.19711 4.45171ZM1.00786 4.86157C1.04738 4.85844 1.08562 4.84613 1.11955 4.82562C1.15347 4.80511 1.18214 4.77697 1.20327 4.74343L1.47987 4.87613C1.45747 4.93752 1.45546 5.00449 1.47411 5.06712C1.49277 5.12975 1.53111 5.1847 1.58345 5.22383L0.757025 6.95283L1.00786 4.86157ZM0.822535 5.57713L0.654561 7.17175L0.419959 7.66391L0.822535 5.57713ZM0.623206 7.44723L0.591292 7.74902C0.567866 7.74882 0.544578 7.75261 0.522423 7.76022C0.51146 7.74959 0.499665 7.73985 0.487148 7.7311L0.623206 7.44723ZM0.522423 8.23446C0.54471 8.24154 0.567912 8.24531 0.591292 8.24566L0.623206 8.54745L0.486588 8.2647C0.498821 8.25618 0.510595 8.24702 0.521863 8.23726L0.522423 8.23446ZM0.417719 8.33133L0.652322 8.82349L0.820295 10.4181L0.417719 8.33133ZM1.00786 11.1309L0.756465 9.04633L1.58009 10.7742C1.52775 10.8133 1.48941 10.8683 1.47075 10.9309C1.4521 10.9935 1.45411 11.0605 1.47651 11.1219L1.20271 11.2485C1.18168 11.2151 1.15307 11.1873 1.1192 11.1671C1.08534 11.147 1.04718 11.1351 1.00786 11.1326V11.1309ZM1.20943 11.5469L1.20383 11.5418L1.19432 11.5306C1.22512 11.4879 1.24177 11.4366 1.24191 11.384C1.24149 11.3651 1.23905 11.3463 1.23463 11.328L1.51458 11.2037C1.5434 11.2445 1.58156 11.2778 1.62587 11.3009C1.67019 11.324 1.71938 11.3361 1.76934 11.3364C1.79765 11.3359 1.82574 11.3313 1.85277 11.3229L3.09409 13.6079L1.45971 11.8868L1.20943 11.5469ZM2.40036 12.9825L3.23183 13.856L3.383 14.1359L2.40036 12.9825ZM3.52746 14.2277L3.45747 14.0962L3.54818 14.1913C3.53997 14.2023 3.53302 14.2141 3.52746 14.2266V14.2277ZM3.32813 13.8543L1.95243 11.2787C1.98481 11.2548 2.01252 11.2252 2.03418 11.1913L2.19376 11.2473L2.30574 11.2876L3.59353 14.1387L3.32813 13.8543ZM3.73015 14.0967C3.70824 14.0966 3.68647 14.1002 3.66576 14.1074L2.44292 11.3336H2.45075L3.35557 11.6533L4.73575 12.5547C4.71936 12.591 4.71433 12.6314 4.72133 12.6705C4.72832 12.7097 4.74701 12.7459 4.77494 12.7742L3.82309 14.118C3.7947 14.1039 3.76353 14.0962 3.73183 14.0956L3.73015 14.0967ZM3.86845 14.492C3.88059 14.482 3.89184 14.471 3.90204 14.459L4.03642 14.5312L3.86845 14.492ZM4.04594 14.6202L4.32085 14.6846L4.95355 15.0256L4.04594 14.6202ZM6.40036 15.497C6.3607 15.4905 6.32002 15.4943 6.28231 15.5083C6.24461 15.5222 6.21119 15.5458 6.18536 15.5766L5.9054 15.4511L4.60081 14.7496L6.47707 15.1891L6.40036 15.497ZM6.61425 15.6807C6.59996 15.6291 6.56955 15.5834 6.52746 15.5502L6.51178 15.5362H6.5073C6.49711 15.5292 6.48623 15.5232 6.47483 15.5183L6.5465 15.207L7.65792 15.4674L7.92388 15.5379V15.5463L6.61425 15.6807ZM7.35389 15.7053L7.9362 15.6549C7.94185 15.672 7.94916 15.6885 7.95803 15.7042L7.35389 15.7053ZM7.96139 15.4159L6.81973 14.8C6.82358 14.7892 6.82639 14.7782 6.82813 14.7669H7.41884L7.98603 15.3879C7.97768 15.3966 7.97 15.406 7.96307 15.4159H7.96139ZM8.34941 15.3263C8.30484 15.297 8.25268 15.2814 8.19935 15.2814C8.14603 15.2814 8.09386 15.297 8.0493 15.3263L7.54146 14.7664H8.85725L8.34941 15.3263ZM8.41492 15.3856L8.97931 14.7658H9.57449C9.57623 14.7771 9.57905 14.7881 9.58289 14.7988L8.44123 15.4147C8.43534 15.4053 8.42879 15.3964 8.42164 15.3879L8.41492 15.3856ZM8.44235 15.7025C8.45123 15.6869 8.45854 15.6704 8.46419 15.6533L9.0465 15.7037L8.44235 15.7025ZM9.89308 15.5346H9.8886L9.87293 15.5486C9.83084 15.5817 9.80043 15.6274 9.78614 15.679L8.47763 15.5435V15.5351L8.74359 15.4646L9.85445 15.2042L9.92612 15.5155C9.91543 15.5207 9.90514 15.5267 9.89532 15.5334L9.89308 15.5346ZM10.215 15.576C10.1892 15.5452 10.1558 15.5217 10.1181 15.5077C10.0804 15.4938 10.0397 15.4899 10 15.4965L9.92612 15.1885L11.8024 14.749L10.4983 15.4495L10.215 15.576ZM11.4468 15.0256L12.0795 14.6846L12.3544 14.6202L11.4468 15.0256ZM12.364 14.5306L12.4983 14.4584C12.5086 14.4704 12.5198 14.4814 12.5319 14.4914L12.364 14.5306ZM12.6702 14.0962C12.6383 14.096 12.6067 14.1031 12.5779 14.1169L11.626 12.7731C11.6539 12.7447 11.6726 12.7086 11.6796 12.6694C11.6866 12.6302 11.6816 12.5899 11.6652 12.5536L13.0459 11.6521L13.953 11.3341H13.9608L12.738 14.1062C12.7172 14.0994 12.6955 14.0958 12.6736 14.0956L12.6702 14.0962ZM12.8724 14.2272C12.8667 14.2144 12.8597 14.2022 12.8516 14.1908L12.9424 14.0956L12.8724 14.2272ZM12.8035 14.1359L14.0913 11.2848L14.2033 11.2445L14.3628 11.1885C14.3845 11.2224 14.4122 11.252 14.4446 11.2759L13.0689 13.8515L12.8035 14.1359ZM13.0185 14.1359L13.1697 13.856L14.0011 12.9825L13.0185 14.1359ZM15.1898 11.5558L15.1842 11.5609L14.9384 11.884L13.3102 13.6062L14.5515 11.3212C14.5786 11.3296 14.6067 11.3342 14.635 11.3347C14.6849 11.3345 14.7341 11.3223 14.7784 11.2992C14.8227 11.2761 14.8609 11.2428 14.8897 11.202L15.1641 11.3392C15.1555 11.3741 15.1546 11.4105 15.1616 11.4458C15.1685 11.4811 15.1832 11.5145 15.2044 11.5435L15.1898 11.5558ZM15.3864 11.146C15.3468 11.1489 15.3084 11.1611 15.2745 11.1816C15.2405 11.2021 15.2119 11.2304 15.191 11.2641L14.9244 11.1247C14.9468 11.0633 14.9488 10.9963 14.9302 10.9337C14.9115 10.8711 14.8732 10.8161 14.8209 10.777L15.6445 9.04857L15.3864 11.146ZM15.579 10.4231L15.7469 8.82853L15.9815 8.33637L15.579 10.4231ZM15.8108 8.24958C15.8342 8.24923 15.8574 8.24545 15.8796 8.23838C15.8909 8.24869 15.9027 8.25841 15.9149 8.2675L15.7789 8.55193L15.8108 8.24958ZM15.7789 7.45059L15.9149 7.73502C15.9024 7.74377 15.8906 7.75351 15.8796 7.76414C15.8575 7.75653 15.8342 7.75274 15.8108 7.75294L15.7789 7.45059ZM15.7492 7.17343L15.5812 5.57881L15.986 7.66559L15.7492 7.17343Z" fill="#0432A9"/>
</g>
<defs>
<clipPath id="clip0_2_3755">
<rect width="16.4082" height="16" fill="white" transform="translate(0 0.000244141)"/>
</clipPath>
</defs>
</svg>
