<svg width="17" height="16" viewBox="0 0 17 16" fill="none" xmlns="http://www.w3.org/2000/svg">
<g clip-path="url(#clip0_2_3756)">
<path d="M8.4082 16.0002C12.8265 16.0002 16.4082 12.4185 16.4082 8.00024C16.4082 3.58197 12.8265 0.000244141 8.4082 0.000244141C3.98992 0.000244141 0.408203 3.58197 0.408203 8.00024C0.408203 12.4185 3.98992 16.0002 8.4082 16.0002Z" fill="#FFE600"/>
<path fill-rule="evenodd" clip-rule="evenodd" d="M2.4043 2.713C2.79989 2.26416 3.24431 1.86083 3.7293 1.5105L5.9553 9.4695L6.9418 5.2505H8.8118L9.7978 9.4695L10.9663 5.2505H12.8408L12.8583 5.3255L14.8953 12.6825C14.5261 13.1933 14.0982 13.659 13.6203 14.07L11.9018 7.865L10.9218 11.404L10.9043 11.479H8.8113L7.8768 8.013L6.9418 11.479H4.8488L4.8313 11.404L2.4043 2.713Z" fill="white"/>
</g>
<defs>
<clipPath id="clip0_2_3756">
<rect width="16" height="16" fill="white" transform="translate(0.408203 0.000244141)"/>
</clipPath>
</defs>
</svg>
