<svg width="17" height="16" viewBox="0 0 17 16" fill="none" xmlns="http://www.w3.org/2000/svg">
<g clip-path="url(#clip0_2_3758)">
<path d="M13.4549 3.35827L13.0156 3.79759C14.0639 4.94397 14.6452 6.44114 14.6452 7.99455C14.6452 9.54796 14.0639 11.0451 13.0156 12.1915L13.4549 12.6308C14.6208 11.3663 15.268 9.70936 15.268 7.98943C15.268 6.2695 14.6208 4.61256 13.4549 3.34802V3.35827Z" fill="#5A5564"/>
<path d="M4.21519 3.39617C5.36157 2.34788 6.85875 1.76655 8.41216 1.76655C9.96557 1.76655 11.4627 2.34788 12.6091 3.39617L13.0484 2.95685C11.7839 1.79104 10.127 1.1438 8.40703 1.1438C6.6871 1.1438 5.03016 1.79104 3.76562 2.95685L4.21519 3.39617Z" fill="#5A5564"/>
<path d="M3.8051 12.1955C2.75806 11.0494 2.17749 9.55317 2.17749 8.00078C2.17749 6.4484 2.75806 4.95214 3.8051 3.80602L3.36578 3.3667C2.19998 4.63123 1.55273 6.28818 1.55273 8.00811C1.55273 9.72803 2.19998 11.385 3.36578 12.6495L3.8051 12.1955Z" fill="#5A5564"/>
<path d="M12.6028 12.6016C11.4564 13.6498 9.95922 14.2312 8.40581 14.2312C6.8524 14.2312 5.35523 13.6498 4.20885 12.6016L3.76953 13.0409C5.03407 14.2067 6.69101 14.8539 8.41094 14.8539C10.1309 14.8539 11.7878 14.2067 13.0523 13.0409L12.6028 12.6016Z" fill="#5A5564"/>
<path d="M11.1819 6.53437C11.094 5.61766 10.3032 5.31013 9.30306 5.21641V3.9541H8.52986V5.19298C8.32631 5.19298 8.11837 5.19298 7.91189 5.19298V3.9541H7.14454V5.2252H5.57617V6.05258C5.57617 6.05258 6.14729 6.04233 6.1385 6.05258C6.24148 6.04125 6.34483 6.07034 6.42678 6.13372C6.50873 6.19709 6.56288 6.28981 6.57782 6.39232V9.87173C6.57562 9.90788 6.56619 9.94323 6.55009 9.97568C6.534 10.0081 6.51156 10.037 6.4841 10.0606C6.45716 10.0847 6.42563 10.1031 6.3914 10.1147C6.35718 10.1262 6.32096 10.1308 6.28494 10.128C6.29519 10.1368 5.72261 10.128 5.72261 10.128L5.57617 11.052H7.1299V12.3436H7.9031V11.0711H8.52108V12.3378H9.29574V11.0608C10.602 10.9817 11.5128 10.6596 11.6271 9.4368C11.7193 8.45273 11.2566 8.01341 10.517 7.83622C10.9666 7.61509 11.2449 7.20506 11.1819 6.53437ZM10.0982 9.28451C10.0982 10.2452 8.45225 10.1353 7.92799 10.1353V8.43076C8.45225 8.43223 10.0982 8.28139 10.0982 9.28451ZM9.73945 6.88289C9.73945 7.76153 8.36585 7.65463 7.92946 7.65463V6.1053C8.36585 6.1053 9.73945 5.96765 9.73945 6.88289Z" fill="#F09242"/>
<path d="M8.40674 16.0002C6.82462 16 5.2781 15.5306 3.96273 14.6514C2.64736 13.7722 1.62221 12.5228 1.01689 11.061C0.411571 9.59929 0.253267 7.99088 0.561996 6.43917C0.870724 4.88745 1.63262 3.46213 2.75135 2.34339C3.87008 1.22466 5.29541 0.462765 6.84713 0.154037C8.39884 -0.154692 10.0072 0.00361173 11.469 0.608931C12.9307 1.21425 14.1802 2.2394 15.0594 3.55477C15.9385 4.87014 16.4079 6.41666 16.4082 7.99878C16.4084 9.0496 16.2016 10.0902 15.7995 11.061C15.3975 12.0319 14.8081 12.9141 14.0651 13.6571C13.322 14.4001 12.4399 14.9895 11.469 15.3916C10.4981 15.7936 9.45756 16.0004 8.40674 16.0002ZM8.40674 0.624081C6.94912 0.625239 5.52455 1.0585 4.31311 1.86909C3.10166 2.67969 2.15771 3.83123 1.60057 5.17818C1.04343 6.52513 0.898108 8.00701 1.18297 9.43653C1.46784 10.866 2.1701 12.179 3.201 13.2095C4.2319 14.24 5.54517 14.9418 6.9748 15.2261C8.40443 15.5103 9.88625 15.3644 11.233 14.8068C12.5797 14.2491 13.7309 13.3047 14.541 12.0929C15.3511 10.8811 15.7838 9.45641 15.7844 7.99878C15.7848 7.02997 15.5942 6.07058 15.2235 5.17547C14.8529 4.28037 14.3094 3.46711 13.6242 2.78219C12.939 2.09727 12.1255 1.55413 11.2303 1.18382C10.335 0.813516 9.37556 0.623311 8.40674 0.624081Z" fill="#282138"/>
</g>
<defs>
<clipPath id="clip0_2_3758">
<rect width="16" height="16" fill="white" transform="translate(0.408203 0.000244141)"/>
</clipPath>
</defs>
</svg>
