<svg width="16" height="16" viewBox="0 0 16 16" fill="none" xmlns="http://www.w3.org/2000/svg">
<g clip-path="url(#clip0_2_3759)">
<path d="M8.0613 16.0003C9.42949 16.0003 10.5386 14.8912 10.5386 13.523C10.5386 12.1548 9.42949 11.0457 8.0613 11.0457C6.69312 11.0457 5.58398 12.1548 5.58398 13.523C5.58398 14.8912 6.69312 16.0003 8.0613 16.0003Z" fill="#22B24C"/>
<path d="M13.2678 13.0969C14.4966 13.0969 15.4927 12.1008 15.4927 10.8721C15.4927 9.64332 14.4966 8.64722 13.2678 8.64722C12.0391 8.64722 11.043 9.64332 11.043 10.8721C11.043 12.1008 12.0391 13.0969 13.2678 13.0969Z" fill="#CECCCC"/>
<path d="M2.06501 7.00611C2.98004 7.00611 3.72181 6.26434 3.72181 5.34931C3.72181 4.43428 2.98004 3.6925 2.06501 3.6925C1.14998 3.6925 0.408203 4.43428 0.408203 5.34931C0.408203 6.26434 1.14998 7.00611 2.06501 7.00611Z" fill="#CECCCC"/>
<path d="M10.6482 2.74581C11.4063 2.74581 12.021 2.13119 12.021 1.37303C12.021 0.614859 11.4063 0.000244141 10.6482 0.000244141C9.89001 0.000244141 9.27539 0.614859 9.27539 1.37303C9.27539 2.13119 9.89001 2.74581 10.6482 2.74581Z" fill="#22B24C"/>
<path d="M14.2212 3.63012C13.9686 3.61975 13.7169 3.66529 13.4839 3.76349C13.251 3.86168 13.0426 4.01011 12.8737 4.19817L12.8705 4.20448L12.7916 4.29915C12.7618 4.33642 12.7302 4.37223 12.6969 4.40645C12.3656 4.76306 11.564 5.40053 10.4815 4.8672C10.3188 4.78712 10.1706 4.68046 10.0429 4.55162C9.78376 4.28943 9.47513 4.08133 9.13491 3.93939C8.79469 3.79745 8.42967 3.72451 8.06103 3.72479L7.92218 3.72795C7.79009 3.73406 7.6581 3.71368 7.53401 3.66799C6.91232 3.44393 6.73559 2.92637 6.70088 2.5319C6.68372 2.30982 6.71605 2.08671 6.79555 1.87864C6.88981 1.62057 6.90445 1.34015 6.8376 1.07366C6.77075 0.807171 6.62547 0.566872 6.42056 0.38385C6.21565 0.200827 5.96053 0.0835013 5.68821 0.0470492C5.4159 0.0105971 5.1389 0.056696 4.89307 0.179383C4.64724 0.302069 4.44388 0.495699 4.30929 0.735223C4.1747 0.974748 4.11508 1.24915 4.13814 1.52292C4.16121 1.7967 4.26589 2.05726 4.43865 2.27089C4.61141 2.48453 4.8443 2.64141 5.10719 2.72124C6.5494 3.30823 6.07603 4.41907 5.87721 4.77884C5.48404 5.27184 5.27035 5.88396 5.27129 6.51454C5.27041 6.63902 5.27779 6.76342 5.29338 6.88692C5.29304 6.89007 5.29304 6.89325 5.29338 6.89639C5.33756 7.37292 5.28391 8.66681 3.5135 8.71099C3.40799 8.71202 3.30254 8.70569 3.19792 8.69205C3.11512 8.68311 3.03188 8.67889 2.94861 8.67943C2.52434 8.67909 2.10936 8.80361 1.75536 9.03746C1.40137 9.27131 1.12401 9.60416 0.957846 9.99453C0.791684 10.3849 0.744067 10.8155 0.820926 11.2328C0.897785 11.65 1.09572 12.0354 1.39008 12.341C1.68443 12.6465 2.06218 12.8587 2.47627 12.951C2.89036 13.0434 3.32247 13.0119 3.71877 12.8604C4.11507 12.7089 4.45802 12.4442 4.70491 12.0991C4.9518 11.7541 5.0917 11.344 5.10719 10.9201H5.11034V10.8096C5.11981 10.3962 5.28707 8.9319 7.11429 9.14649C7.11429 9.14649 7.72967 9.31059 8.06103 9.31059C8.6144 9.31127 9.15549 9.14756 9.61565 8.84022C10.0758 8.53288 10.4343 8.09577 10.6457 7.58436C10.8224 7.18042 11.747 6.16424 13.3407 6.86483C13.394 6.89401 13.4488 6.92034 13.5048 6.94373C13.7372 7.03737 13.9872 7.07911 14.2374 7.06605C14.4875 7.05299 14.7318 6.98543 14.9532 6.86811C15.1745 6.75078 15.3676 6.58652 15.5188 6.38681C15.67 6.1871 15.7758 5.95676 15.8288 5.7119C15.8817 5.46705 15.8805 5.21358 15.8253 4.96923C15.77 4.72488 15.6621 4.49555 15.509 4.29727C15.3559 4.09899 15.1613 3.93655 14.9388 3.82132C14.7164 3.70608 14.4715 3.64083 14.2212 3.63012Z" fill="#343433"/>
</g>
<defs>
<clipPath id="clip0_2_3759">
<rect width="15.4635" height="16" fill="white" transform="translate(0.408203 0.000244141)"/>
</clipPath>
</defs>
</svg>
