<svg width="17" height="16" viewBox="0 0 17 16" fill="none" xmlns="http://www.w3.org/2000/svg">
<g clip-path="url(#clip0_2_3761)">
<path d="M8.56055 16.0002C12.9788 16.0002 16.5605 12.4185 16.5605 8.00024C16.5605 3.58197 12.9788 0.000244141 8.56055 0.000244141C4.14227 0.000244141 0.560547 3.58197 0.560547 8.00024C0.560547 12.4185 4.14227 16.0002 8.56055 16.0002Z" fill="#4FA784"/>
<path fill-rule="evenodd" clip-rule="evenodd" d="M13.3473 6.4232L9.29231 5.2612L7.90531 7.6237L6.29431 5.7552L7.02431 5.6612L7.77681 6.5452L8.61181 5.0657L4.93681 4.0122C4.88743 3.99757 4.83508 3.99621 4.78501 4.00825C4.73494 4.0203 4.68894 4.04532 4.65162 4.08081C4.61431 4.1163 4.58701 4.161 4.57247 4.2104C4.55793 4.2598 4.55667 4.31216 4.56881 4.3622L6.19681 10.9002L7.94531 7.9562L9.55631 9.8247L8.82631 9.9187L8.07431 9.0347L6.41931 11.7932L6.66431 12.7782C6.67705 12.8282 6.70267 12.8739 6.7386 12.9109C6.77454 12.9478 6.81953 12.9747 6.8691 12.9889C6.91868 13.0031 6.97109 13.004 7.02114 12.9916C7.07118 12.9792 7.11709 12.9539 7.15431 12.9182L13.4693 6.9132C13.5066 6.87788 13.5338 6.83329 13.5482 6.78399C13.5626 6.73469 13.5637 6.68244 13.5513 6.6326C13.5389 6.58276 13.5134 6.53711 13.4776 6.50032C13.4418 6.46353 13.3968 6.43692 13.3473 6.4232Z" fill="white"/>
</g>
<defs>
<clipPath id="clip0_2_3761">
<rect width="16" height="16" fill="white" transform="translate(0.560547 0.000244141)"/>
</clipPath>
</defs>
</svg>
