<svg width="17" height="16" viewBox="0 0 17 16" fill="none" xmlns="http://www.w3.org/2000/svg">
<g clip-path="url(#clip0_2_3763)">
<path d="M8.38477 16.0002C12.803 16.0002 16.3848 12.4185 16.3848 8.00024C16.3848 3.58197 12.803 0.000244141 8.38477 0.000244141C3.96649 0.000244141 0.384766 3.58197 0.384766 8.00024C0.384766 12.4185 3.96649 16.0002 8.38477 16.0002Z" fill="#21A5DE"/>
<path d="M11.1298 8.28774C11.2998 8.46974 11.4028 8.71224 11.4028 8.97824C11.4028 9.54274 10.9388 10.0002 10.3668 10.0002C9.79527 10.0002 9.33177 9.54274 9.33177 8.97824C9.33177 8.71224 9.43477 8.46974 9.60377 8.28774C9.54924 8.32956 9.48419 8.35543 9.41584 8.36249C9.3475 8.36954 9.27853 8.3575 9.21662 8.32771C9.1547 8.29792 9.10226 8.25154 9.06512 8.19373C9.02799 8.13592 9.00761 8.06894 9.00627 8.00024C9.00613 7.91851 9.03381 7.83916 9.08477 7.77524C8.90027 7.94224 8.65477 8.04424 8.38477 8.04424C8.11477 8.04424 7.86927 7.94224 7.68477 7.77524C7.73572 7.83916 7.7634 7.91851 7.76327 8.00024C7.76327 8.20174 7.59827 8.36524 7.39327 8.36524C7.31094 8.36533 7.23092 8.33807 7.16577 8.28774C7.33477 8.46974 7.43827 8.71224 7.43827 8.97824C7.43827 9.54274 6.97427 10.0002 6.40277 10.0002C5.83077 10.0002 5.36677 9.54274 5.36677 8.97824C5.36677 8.71224 5.47027 8.46974 5.63927 8.28774C5.58474 8.32956 5.51969 8.35543 5.45134 8.36249C5.383 8.36954 5.31403 8.3575 5.25212 8.32771C5.1902 8.29792 5.13776 8.25154 5.10062 8.19373C5.06349 8.13592 5.04311 8.06894 5.04177 8.00024C5.04163 7.91851 5.06931 7.83916 5.12027 7.77524C4.93577 7.94224 4.69027 8.04424 4.42027 8.04424C3.84827 8.04424 3.38477 7.58674 3.38477 7.02224C3.38477 6.45774 3.84827 6.00024 4.42027 6.00024C4.99227 6.00024 5.45577 6.45774 5.45577 7.02224C5.45588 7.27866 5.35846 7.52551 5.18327 7.71274C5.23779 7.67079 5.30289 7.6448 5.37131 7.63766C5.43974 7.63053 5.5088 7.64254 5.5708 7.67235C5.6328 7.70215 5.68531 7.74859 5.72247 7.80649C5.75963 7.86438 5.77998 7.93146 5.78127 8.00024C5.7814 8.08198 5.75372 8.16133 5.70277 8.22524C5.88677 8.05824 6.13277 7.95624 6.40277 7.95624C6.67277 7.95624 6.91777 8.05824 7.10277 8.22524C7.05164 8.1614 7.02377 8.08204 7.02377 8.00024C6.9735 7.96157 6.93398 7.91066 6.90896 7.85238C6.88394 7.7941 6.87426 7.73039 6.88083 7.66731C6.88741 7.60423 6.91002 7.54388 6.94653 7.49202C6.98303 7.44015 7.0322 7.39849 7.08936 7.37101C7.14652 7.34353 7.20976 7.33114 7.27307 7.33502C7.33637 7.33891 7.39763 7.35893 7.451 7.39319C7.50438 7.42745 7.54809 7.4748 7.57798 7.53074C7.60787 7.58667 7.62295 7.64933 7.62177 7.71274C7.44666 7.52546 7.34926 7.27864 7.34927 7.02224C7.34927 6.45774 7.81277 6.00024 8.38477 6.00024C8.95677 6.00024 9.42027 6.45774 9.42027 7.02224C9.42037 7.27866 9.32296 7.52551 9.14777 7.71274C9.20229 7.67079 9.26739 7.6448 9.33581 7.63766C9.40424 7.63053 9.4733 7.64254 9.5353 7.67235C9.5973 7.70215 9.64981 7.74859 9.68697 7.80649C9.72413 7.86438 9.74448 7.93146 9.74577 8.00024C9.7459 8.08198 9.71822 8.16133 9.66727 8.22524C9.85127 8.05824 10.0973 7.95624 10.3673 7.95624C10.6373 7.95624 10.8823 8.05824 11.0673 8.22524C11.0161 8.1614 10.9883 8.08204 10.9883 8.00024C10.938 7.96157 10.8985 7.91066 10.8735 7.85238C10.8484 7.7941 10.8388 7.73039 10.8453 7.66731C10.8519 7.60423 10.8745 7.54388 10.911 7.49202C10.9475 7.44015 10.9967 7.39849 11.0539 7.37101C11.111 7.34353 11.1743 7.33114 11.2376 7.33502C11.3009 7.33891 11.3621 7.35893 11.4155 7.39319C11.4689 7.42745 11.5126 7.4748 11.5425 7.53074C11.5724 7.58667 11.5874 7.64933 11.5863 7.71274C11.4112 7.52546 11.3138 7.27864 11.3138 7.02224C11.3138 6.45774 11.7773 6.00024 12.3493 6.00024C12.9213 6.00024 13.3848 6.45774 13.3848 7.02224C13.3848 7.58674 12.9213 8.04424 12.3493 8.04424C12.0793 8.04424 11.8338 7.94224 11.6493 7.77524C11.7002 7.83916 11.7279 7.91851 11.7278 8.00024C11.7278 8.20174 11.5628 8.36524 11.3578 8.36524C11.2754 8.36533 11.1954 8.33807 11.1303 8.28774H11.1298Z" fill="white"/>
</g>
<defs>
<clipPath id="clip0_2_3763">
<rect width="16" height="16" fill="white" transform="translate(0.384766 0.000244141)"/>
</clipPath>
</defs>
</svg>
