<svg width="17" height="16" viewBox="0 0 17 16" fill="none" xmlns="http://www.w3.org/2000/svg">
<g clip-path="url(#clip0_2_3764)">
<path d="M8.38477 16.0002C3.97325 16.0002 0.384766 12.4118 0.384766 8.00024C0.384766 3.58872 3.97325 0.000244141 8.38477 0.000244141C12.7963 0.000244141 16.3848 3.58872 16.3848 8.00024C16.3848 12.4118 12.7963 16.0002 8.38477 16.0002ZM8.38477 1.2956C4.68621 1.2956 1.68013 4.30168 1.68013 8.00024C1.68013 11.6988 4.68621 14.7049 8.38477 14.7049C12.0833 14.7049 15.0894 11.6988 15.0894 8.00024C15.0894 4.30168 12.0833 1.2956 8.38477 1.2956Z" fill="#E6201A"/>
<path d="M12.1224 5.31871C11.8376 4.65823 11.2156 4.24351 10.4968 4.24351L6.26004 4.20447H6.24724C5.54772 4.20447 4.93204 4.59935 4.65364 5.24063C4.36244 5.89471 4.48532 6.63327 4.97748 7.15807L5.56052 7.78655L6.4418 6.83423L5.9298 6.27743C5.72884 6.05727 5.80692 5.83071 5.83892 5.75903C5.87156 5.68159 5.98804 5.49343 6.24724 5.49343H6.25364L10.4898 5.53247C10.781 5.53247 10.9045 5.75903 10.9365 5.83071C10.9756 5.91519 11.0402 6.13535 10.8591 6.32927L8.76052 8.60959C8.64404 8.73247 8.50132 8.75231 8.43028 8.75231C8.29396 8.75231 8.16468 8.69407 8.0738 8.59039L7.71732 8.20831L6.83604 9.16063L7.12084 9.46527C7.45748 9.82815 7.93684 10.0419 8.42964 10.0419C8.9154 10.0419 9.38836 9.83455 9.7122 9.47807L11.8108 7.19775C12.2844 6.69151 12.4008 5.96639 12.1224 5.31871Z" fill="#E6201A"/>
<path d="M11.8766 8.72602L11.2808 8.07833L10.2638 9.17979L10.7758 9.7366C10.9121 9.88572 10.8731 10.0476 10.8341 10.1315C10.8085 10.1897 10.7112 10.3709 10.4776 10.3709L6.24141 10.4099C6.02765 10.4099 5.94317 10.2672 5.91757 10.2025C5.88493 10.1379 5.83309 9.96316 5.98861 9.7942L8.12621 7.48183C8.20365 7.39735 8.30093 7.35255 8.41101 7.35255C8.46925 7.35255 8.57933 7.36535 8.67021 7.46263L9.11053 7.942L10.1275 6.84054L9.77101 6.45205C9.42093 6.07637 8.92877 5.8562 8.41741 5.8562C7.89261 5.8562 7.39405 6.07637 7.03757 6.46485L4.89997 8.77722C4.38157 9.33403 4.25229 10.1116 4.55693 10.8048C4.85517 11.4787 5.50285 11.8998 6.24141 11.8998L10.491 11.8608C11.2424 11.8544 11.9029 11.4205 12.2011 10.7209C12.5051 10.0342 12.3822 9.27003 11.8766 8.72602Z" fill="#E6201A"/>
</g>
<defs>
<clipPath id="clip0_2_3764">
<rect width="16" height="16" fill="white" transform="translate(0.384766 0.000244141)"/>
</clipPath>
</defs>
</svg>
