<svg width="17" height="16" viewBox="0 0 17 16" fill="none" xmlns="http://www.w3.org/2000/svg">
<g clip-path="url(#clip0_2_3767)">
<path d="M8.44336 16.0002C12.8616 16.0002 16.4434 12.4185 16.4434 8.00024C16.4434 3.58197 12.8616 0.000244141 8.44336 0.000244141C4.02508 0.000244141 0.443359 3.58197 0.443359 8.00024C0.443359 12.4185 4.02508 16.0002 8.44336 16.0002Z" fill="#23B852"/>
<path d="M9.80588 9.57426H11.5009V11.0563H6.40838L12.7299 4.73026C12.8301 4.62881 12.8987 4.50035 12.9271 4.36059C12.9555 4.22082 12.9426 4.0758 12.8899 3.94326C12.834 3.81153 12.7404 3.69922 12.621 3.62042C12.5015 3.54161 12.3615 3.49982 12.2184 3.50026H4.66838C4.57291 3.4996 4.47825 3.51793 4.38992 3.55419C4.30159 3.59045 4.22136 3.64392 4.15389 3.71148C4.08642 3.77904 4.03307 3.85935 3.99693 3.94772C3.96079 4.0361 3.94259 4.13078 3.94338 4.22626V9.57426L7.08088 6.43426H5.38588V4.94426H10.4699L4.15688 11.2703C4.05664 11.3717 3.98812 11.5002 3.9597 11.6399C3.93129 11.7797 3.94421 11.9247 3.99688 12.0573C4.11138 12.3248 4.37088 12.5003 4.66838 12.5003H12.2184C12.3137 12.5003 12.408 12.4815 12.4961 12.445C12.5841 12.4085 12.6641 12.355 12.7314 12.2876C12.7987 12.2201 12.8521 12.1401 12.8885 12.052C12.9249 11.9639 12.9435 11.8696 12.9434 11.7743V6.43426L9.80588 9.57426Z" fill="white"/>
</g>
<defs>
<clipPath id="clip0_2_3767">
<rect width="16" height="16" fill="white" transform="translate(0.443359 0.000244141)"/>
</clipPath>
</defs>
</svg>
