<svg width="17" height="16" viewBox="0 0 17 16" fill="none" xmlns="http://www.w3.org/2000/svg">
<g clip-path="url(#clip0_2_3768)">
<path d="M8.44336 16.0002C12.8616 16.0002 16.4434 12.4185 16.4434 8.00024C16.4434 3.58197 12.8616 0.000244141 8.44336 0.000244141C4.02508 0.000244141 0.443359 3.58197 0.443359 8.00024C0.443359 12.4185 4.02508 16.0002 8.44336 16.0002Z" fill="#183C87"/>
<path fill-rule="evenodd" clip-rule="evenodd" d="M2.94336 7.80774L5.19086 6.53874L7.43786 7.80774V10.2312L5.19086 11.5002L2.94336 10.2312V7.80774ZM9.44836 7.80774L11.6959 6.53874L13.9434 7.80774V10.2312L11.6959 11.5002L9.44886 10.2312V7.80774H9.44836ZM9.21236 9.91274L8.42386 10.3462L7.67436 9.93474V7.61524L5.62436 6.45724V5.61524L8.42386 4.00024L11.2229 5.61524V6.48024L9.21236 7.61524V9.91324V9.91274Z" fill="white"/>
</g>
<defs>
<clipPath id="clip0_2_3768">
<rect width="16" height="16" fill="white" transform="translate(0.443359 0.000244141)"/>
</clipPath>
</defs>
</svg>
