<svg width="24" height="24" viewBox="0 0 24 24" fill="none" xmlns="http://www.w3.org/2000/svg">
<path d="M12.0025 7.07644C9.27834 7.07644 7.08099 9.27378 7.08099 11.998C7.08099 14.7222 9.27834 16.9195 12.0025 16.9195C14.7267 16.9195 16.9241 14.7222 16.9241 11.998C16.9241 9.27378 14.7267 7.07644 12.0025 7.07644ZM12.0025 15.1976C10.2421 15.1976 8.80289 13.7627 8.80289 11.998C8.80289 10.2332 10.2378 8.79833 12.0025 8.79833C13.7673 8.79833 15.2022 10.2332 15.2022 11.998C15.2022 13.7627 13.763 15.1976 12.0025 15.1976ZM18.2733 6.87512C18.2733 7.51333 17.7593 8.02305 17.1254 8.02305C16.4872 8.02305 15.9775 7.50905 15.9775 6.87512C15.9775 6.24119 16.4915 5.72719 17.1254 5.72719C17.7593 5.72719 18.2733 6.24119 18.2733 6.87512ZM21.5329 8.04018C21.4601 6.50247 21.1089 5.14037 19.9824 4.01814C18.8601 2.89591 17.498 2.54468 15.9603 2.46758C14.3755 2.37763 9.62529 2.37763 8.04046 2.46758C6.50703 2.54039 5.14493 2.89163 4.01842 4.01386C2.8919 5.13609 2.54495 6.49819 2.46785 8.0359C2.3779 9.62073 2.3779 14.3709 2.46785 15.9558C2.54067 17.4935 2.8919 18.8556 4.01842 19.9778C5.14493 21.1 6.50274 21.4513 8.04046 21.5284C9.62529 21.6183 14.3755 21.6183 15.9603 21.5284C17.498 21.4556 18.8601 21.1043 19.9824 19.9778C21.1046 18.8556 21.4558 17.4935 21.5329 15.9558C21.6229 14.3709 21.6229 9.62501 21.5329 8.04018ZM19.4855 17.6562C19.1514 18.4958 18.5046 19.1426 17.6608 19.4809C16.3972 19.9821 13.3989 19.8664 12.0025 19.8664C10.6062 19.8664 7.60356 19.9778 6.34426 19.4809C5.50473 19.1468 4.85795 18.5001 4.51957 17.6562C4.01842 16.3927 4.13407 13.3943 4.13407 11.998C4.13407 10.6016 4.0227 7.599 4.51957 6.3397C4.85366 5.50017 5.50045 4.85339 6.34426 4.51501C7.60784 4.01386 10.6062 4.12951 12.0025 4.12951C13.3989 4.12951 16.4015 4.01814 17.6608 4.51501C18.5003 4.84911 19.1471 5.49589 19.4855 6.3397C19.9866 7.60328 19.871 10.6016 19.871 11.998C19.871 13.3943 19.9866 16.3969 19.4855 17.6562Z" fill="#121212"/>
</svg>
