<svg width="24" height="24" viewBox="0 0 24 24" fill="none" xmlns="http://www.w3.org/2000/svg">
<path d="M21.6002 12.144C21.5522 10.992 20.5922 10.08 19.4162 10.104C18.8882 10.128 18.4082 10.344 18.0482 10.68C16.4162 9.55201 14.4722 8.95201 12.4802 8.90401L13.4162 4.41601L16.5122 5.04001C16.6082 5.83201 17.3042 6.40801 18.0962 6.31201C18.8882 6.21601 19.4642 5.52002 19.3682 4.72802C19.2722 3.93602 18.5762 3.36001 17.7842 3.45601C17.3282 3.50401 16.9202 3.76801 16.7042 4.15201L13.1762 3.45601C12.9362 3.40801 12.6962 3.55202 12.6482 3.79201L11.5922 8.80801C9.57616 8.83201 7.63216 9.45601 5.95216 10.584C5.11216 9.79201 3.76816 9.81601 2.97616 10.68C2.18416 11.52 2.20816 12.864 3.07216 13.656C3.24016 13.8 3.43216 13.944 3.64816 14.04C3.62416 14.256 3.62416 14.472 3.64816 14.664C3.64816 17.904 7.41616 20.544 12.0722 20.544C16.7282 20.544 20.4962 17.928 20.4962 14.664C20.5202 14.448 20.5202 14.232 20.4962 14.04C21.1682 13.704 21.6242 12.96 21.6002 12.144ZM7.12816 13.608C7.12816 12.816 7.77616 12.168 8.56816 12.168C9.36016 12.168 10.0082 12.816 10.0082 13.608C10.0082 14.4 9.36016 15.048 8.56816 15.048C7.77616 15.048 7.12816 14.4 7.12816 13.608ZM15.5282 17.592C14.4962 18.36 13.2482 18.768 11.9762 18.696C10.7042 18.744 9.43216 18.36 8.42416 17.592C8.28016 17.424 8.30416 17.184 8.47216 17.04C8.61616 16.92 8.80816 16.92 8.97616 17.04C9.84016 17.664 10.8962 18 11.9762 17.952C13.0562 18 14.1122 17.712 15.0002 17.064C15.1682 16.92 15.4082 16.92 15.5762 17.064C15.7202 17.232 15.7202 17.472 15.5762 17.64V17.592H15.5282ZM15.2882 15.12C14.4962 15.12 13.8482 14.472 13.8482 13.68C13.8482 12.888 14.4962 12.24 15.2882 12.24C16.0802 12.24 16.7282 12.888 16.7282 13.68C16.7522 14.472 16.1522 15.144 15.3362 15.168C15.3122 15.168 15.2882 15.168 15.2642 15.168L15.2882 15.12Z" fill="black"/>
</svg>
