<svg width="24" height="24" viewBox="0 0 24 24" fill="none" xmlns="http://www.w3.org/2000/svg">
<g clip-path="url(#clip0_55_6049)">
<path d="M21.2797 10.8781C21.621 10.437 21.8919 10.083 22.092 9.81587C23.5331 7.89988 24.1578 6.67594 23.9663 6.14232L23.8912 6.01735C23.8413 5.94228 23.7119 5.87335 23.5038 5.81095C23.2955 5.7486 23.029 5.73864 22.7042 5.7798L19.1055 5.80518C19.0222 5.79689 18.9388 5.79882 18.8555 5.81095C18.7722 5.82362 18.7182 5.83633 18.693 5.84846C18.6679 5.86118 18.6472 5.87137 18.6307 5.87966L18.5807 5.91717C18.5391 5.94201 18.4933 5.98588 18.4434 6.04855C18.3934 6.11117 18.3514 6.18375 18.3184 6.26734C17.9268 7.27524 17.4812 8.21254 16.9813 9.07893C16.673 9.59546 16.3897 10.0435 16.1318 10.4221C15.8735 10.8015 15.6569 11.0804 15.4819 11.2592C15.307 11.4383 15.1486 11.5823 15.0071 11.6902C14.8653 11.7989 14.7571 11.8444 14.6824 11.8279C14.6073 11.8113 14.5364 11.7948 14.4699 11.7777C14.3532 11.7029 14.2594 11.6011 14.1888 11.4717C14.1179 11.3429 14.0702 11.1803 14.045 10.9844C14.0202 10.7888 14.0053 10.62 14.0014 10.4781C13.997 10.3366 13.9992 10.1368 14.0078 9.87827C14.0161 9.61998 14.0202 9.44537 14.0202 9.35349C14.0202 9.03727 14.0265 8.6935 14.039 8.32268C14.0514 7.95214 14.0619 7.65828 14.0702 7.44165C14.0785 7.22533 14.0826 6.99604 14.0826 6.75434C14.0826 6.51318 14.0679 6.32333 14.0386 6.18569C14.0094 6.04855 13.9655 5.91528 13.9076 5.78589C13.8491 5.65703 13.7638 5.55686 13.6512 5.48626C13.5387 5.41534 13.3993 5.35934 13.2327 5.31737C12.7909 5.21719 12.2286 5.16368 11.5458 5.15489C9.99621 5.13888 9.00071 5.23874 8.55924 5.45506C8.38431 5.54694 8.22593 5.67164 8.08441 5.83002C7.93433 6.01352 7.91363 6.11365 8.02206 6.12965C8.522 6.20472 8.87578 6.38406 9.08407 6.66715L9.15913 6.81696C9.21733 6.92566 9.27558 7.11718 9.33406 7.39197C9.39231 7.6668 9.42982 7.97085 9.44663 8.30415C9.48829 8.91225 9.48829 9.43266 9.44663 9.86614C9.40498 10.2996 9.36553 10.6368 9.32802 10.8779C9.29046 11.1196 9.2342 11.3152 9.1594 11.4651C9.08434 11.6154 9.03443 11.707 9.00932 11.7404C8.9842 11.7735 8.96351 11.7944 8.94696 11.8028C8.83854 11.8442 8.72623 11.8651 8.60955 11.8651C8.49283 11.8651 8.35127 11.8066 8.18464 11.6899C8.01796 11.5738 7.84497 11.4132 7.66617 11.209C7.48682 11.0051 7.28512 10.7195 7.05996 10.3528C6.83508 9.9867 6.60164 9.55321 6.36021 9.05355L6.16044 8.69098C6.03547 8.45812 5.86465 8.11845 5.64806 7.67284C5.43148 7.22723 5.23969 6.79627 5.07333 6.37937C5.00656 6.20472 4.90665 6.07145 4.77343 5.97957L4.71108 5.94206C4.66942 5.90892 4.60265 5.87335 4.51104 5.83606C4.41916 5.79855 4.32371 5.7715 4.22354 5.75469L0.799704 5.77953C0.44985 5.77953 0.212572 5.85901 0.0875987 6.01735L0.0376453 6.09214C0.0123982 6.13407 0 6.20084 0 6.29218C0 6.38406 0.0251119 6.49637 0.0750652 6.62937C0.575004 7.80422 1.11858 8.93714 1.70572 10.0281C2.29316 11.1196 2.80334 11.9987 3.23651 12.665C3.66968 13.3319 4.11114 13.9604 4.56117 14.552C5.0112 15.1435 5.30889 15.5223 5.45456 15.6887C5.60023 15.8557 5.71474 15.9807 5.7981 16.0637L6.11045 16.3639C6.31021 16.5637 6.60407 16.8031 6.99148 17.0824C7.37885 17.3616 7.80764 17.6364 8.27864 17.9068C8.74909 18.1778 9.29704 18.3982 9.92169 18.5693C10.5464 18.7403 11.1545 18.809 11.746 18.7754H13.183C13.4747 18.7505 13.6953 18.6592 13.8452 18.5005L13.8951 18.4382C13.9282 18.3885 13.9597 18.3113 13.9889 18.2072C14.0179 18.1032 14.0329 17.9884 14.0329 17.8637C14.0243 17.5056 14.0516 17.1822 14.114 16.8953C14.1763 16.6078 14.2472 16.3915 14.3265 16.2452C14.4056 16.0998 14.495 15.9768 14.5951 15.8766C14.6951 15.7764 14.7657 15.7165 14.8076 15.6956C14.8493 15.6752 14.8827 15.6605 14.9076 15.6517C15.1073 15.5852 15.3426 15.6498 15.6136 15.8454C15.8843 16.0416 16.1384 16.2827 16.3759 16.5702C16.6132 16.8577 16.8985 17.1802 17.2318 17.5387C17.5649 17.8968 17.8565 18.1633 18.1065 18.3382L18.3564 18.4886C18.523 18.5882 18.7394 18.6798 19.0062 18.7635C19.2727 18.8465 19.5062 18.8675 19.7059 18.8258L22.9049 18.7756C23.2214 18.7756 23.4672 18.7238 23.6422 18.6194C23.8171 18.516 23.9212 18.4006 23.9545 18.2759C23.9876 18.151 23.9898 18.01 23.9609 17.8513C23.9317 17.6932 23.9024 17.5828 23.8735 17.5205C23.8442 17.4581 23.8171 17.4057 23.792 17.3643C23.3754 16.6146 22.5799 15.6939 21.4053 14.6026L21.3802 14.5778L21.3678 14.5651L21.3554 14.553H21.3429C20.8095 14.0447 20.4723 13.7031 20.3308 13.5279C20.0726 13.1952 20.0141 12.8578 20.1559 12.5162C20.2552 12.2572 20.6299 11.7114 21.2797 10.8781Z" fill="black"/>
</g>
<defs>
<clipPath id="clip0_55_6049">
<rect width="24" height="24" fill="white"/>
</clipPath>
</defs>
</svg>
