<svg width="20" height="20" viewBox="0 0 20 20" fill="none" xmlns="http://www.w3.org/2000/svg">
<path d="M15.8197 1.59961H4.17969C3.35969 1.59961 2.67969 2.27961 2.67969 3.09961V16.8996C2.67969 17.7196 3.35969 18.3996 4.17969 18.3996H15.7997C16.6197 18.3996 17.2997 17.7196 17.2997 16.8996V3.09961C17.3197 2.27961 16.6397 1.59961 15.8197 1.59961ZM7.73969 16.2396H5.33969V13.8396H7.73969V16.2396ZM7.73969 12.5996H5.33969V10.1996H7.73969V12.5996ZM11.1197 16.2396H8.71969V13.8396H11.1197V16.2396ZM11.1197 12.5996H8.71969V10.1996H11.1197V12.5996ZM14.5797 16.2396H12.1797V10.1996H14.5797V16.2396ZM15.4797 7.23961H4.51969V3.37961H15.4797V7.23961Z" fill="#636770"/>
</svg>
