<svg width="16" height="16" viewBox="0 0 16 16" fill="none" xmlns="http://www.w3.org/2000/svg">
<path d="M8.00003 9.40698C7.74138 9.40698 7.53125 9.61711 7.53125 9.87576C7.53125 10.1344 7.74138 10.3445 8.00003 10.3445C8.25869 10.3445 8.46881 10.1344 8.46881 9.87576C8.46881 9.61711 8.25869 9.40698 8.00003 9.40698Z" fill="white"/>
<path d="M10.8132 6.59418H4.97516C3.28028 6.59418 1.90625 7.96815 1.90625 9.66308C1.90625 12.5583 3.8275 15.2488 6.65812 15.8568C10.6008 16.7037 14.0946 13.6742 14.0946 9.87565C14.0946 8.06336 12.6255 6.59418 10.8132 6.59418ZM8.46922 11.1957V13.6572C8.46922 13.9163 8.25953 14.126 8.00044 14.126C7.74131 14.126 7.53166 13.9163 7.53166 13.6572V11.1957C6.98719 11.0015 6.59409 10.486 6.59409 9.87568C6.59409 9.10018 7.22494 8.46933 8.00044 8.46933C8.77594 8.46933 9.40678 9.10018 9.40678 9.87568C9.40678 10.486 9.01369 11.0015 8.46922 11.1957Z" fill="white"/>
<path d="M8.00031 0C5.66578 0 3.78125 1.8845 3.78125 4.21906V5.85872C4.16081 5.73913 4.55666 5.65669 4.97519 5.65669H5.65641V4.21906C5.65641 2.92522 6.70647 1.87516 8.00031 1.87516C9.29416 1.87516 10.3442 2.92522 10.3442 4.21906V5.65666H10.813C11.3085 5.65666 11.7773 5.75822 12.2193 5.91584V4.21906C12.2194 1.88675 10.3303 0 8.00031 0Z" fill="white"/>
</svg>
