<svg width="16" height="16" viewBox="0 0 16 16" fill="none" xmlns="http://www.w3.org/2000/svg">
<path d="M1.99967 6.66658C2.17649 6.66658 2.34605 6.59635 2.47108 6.47132C2.5961 6.3463 2.66634 6.17673 2.66634 5.99992V3.33325C2.66634 3.15644 2.73658 2.98687 2.8616 2.86185C2.98663 2.73682 3.1562 2.66659 3.33301 2.66659H5.99967C6.17649 2.66659 6.34605 2.59635 6.47108 2.47132C6.5961 2.3463 6.66634 2.17673 6.66634 1.99992C6.66634 1.82311 6.5961 1.65354 6.47108 1.52851C6.34605 1.40349 6.17649 1.33325 5.99967 1.33325H3.33301C2.80257 1.33325 2.29387 1.54397 1.91879 1.91904C1.54372 2.29411 1.33301 2.80282 1.33301 3.33325V5.99992C1.33301 6.17673 1.40325 6.3463 1.52827 6.47132C1.65329 6.59635 1.82286 6.66658 1.99967 6.66658Z" fill="white"/>
<path d="M12.6663 1.33325H9.99967C9.82286 1.33325 9.65329 1.40349 9.52827 1.52851C9.40325 1.65354 9.33301 1.82311 9.33301 1.99992C9.33301 2.17673 9.40325 2.3463 9.52827 2.47132C9.65329 2.59635 9.82286 2.66659 9.99967 2.66659H12.6663C12.8431 2.66659 13.0127 2.73682 13.1377 2.86185C13.2628 2.98687 13.333 3.15644 13.333 3.33325V5.99992C13.333 6.17673 13.4032 6.3463 13.5283 6.47132C13.6533 6.59635 13.8229 6.66658 13.9997 6.66658C14.1765 6.66658 14.346 6.59635 14.4711 6.47132C14.5961 6.3463 14.6663 6.17673 14.6663 5.99992V3.33325C14.6663 2.80282 14.4556 2.29411 14.0805 1.91904C13.7055 1.54397 13.1968 1.33325 12.6663 1.33325Z" fill="white"/>
<path d="M13.9997 9.33325C13.8229 9.33325 13.6533 9.40349 13.5283 9.52851C13.4032 9.65354 13.333 9.82311 13.333 9.99992V12.6666C13.333 12.8434 13.2628 13.013 13.1377 13.138C13.0127 13.263 12.8431 13.3332 12.6663 13.3332H9.99967C9.82286 13.3332 9.65329 13.4035 9.52827 13.5285C9.40325 13.6535 9.33301 13.8231 9.33301 13.9999C9.33301 14.1767 9.40325 14.3463 9.52827 14.4713C9.65329 14.5963 9.82286 14.6666 9.99967 14.6666H12.6663C13.1968 14.6666 13.7055 14.4559 14.0805 14.0808C14.4556 13.7057 14.6663 13.197 14.6663 12.6666V9.99992C14.6663 9.82311 14.5961 9.65354 14.4711 9.52851C14.346 9.40349 14.1765 9.33325 13.9997 9.33325Z" fill="white"/>
<path d="M5.99967 13.3332H3.33301C3.1562 13.3332 2.98663 13.263 2.8616 13.138C2.73658 13.013 2.66634 12.8434 2.66634 12.6666V9.99992C2.66634 9.82311 2.5961 9.65354 2.47108 9.52851C2.34605 9.40349 2.17649 9.33325 1.99967 9.33325C1.82286 9.33325 1.65329 9.40349 1.52827 9.52851C1.40325 9.65354 1.33301 9.82311 1.33301 9.99992V12.6666C1.33301 13.197 1.54372 13.7057 1.91879 14.0808C2.29387 14.4559 2.80257 14.6666 3.33301 14.6666H5.99967C6.17649 14.6666 6.34605 14.5963 6.47108 14.4713C6.5961 14.3463 6.66634 14.1767 6.66634 13.9999C6.66634 13.8231 6.5961 13.6535 6.47108 13.5285C6.34605 13.4035 6.17649 13.3332 5.99967 13.3332Z" fill="white"/>
<path d="M10.6667 4H5.33333C4.59695 4 4 4.59695 4 5.33333V10.6667C4 11.403 4.59695 12 5.33333 12H10.6667C11.403 12 12 11.403 12 10.6667V5.33333C12 4.59695 11.403 4 10.6667 4Z" fill="white"/>
</svg>
