<svg width="8" height="6" viewBox="0 0 8 6" fill="none" xmlns="http://www.w3.org/2000/svg">
<path d="M3.72268 5.52235C3.75326 5.56676 3.79418 5.60308 3.84191 5.62817C3.88965 5.65325 3.94276 5.66636 3.99668 5.66636C4.05061 5.66636 4.10372 5.65325 4.15145 5.62817C4.19919 5.60308 4.2401 5.56676 4.27068 5.52235L7.27068 1.18902C7.30541 1.13903 7.32577 1.08049 7.32956 1.01975C7.33335 0.959009 7.32042 0.89839 7.29218 0.84448C7.26394 0.790571 7.22146 0.745432 7.16936 0.713968C7.11727 0.682505 7.05754 0.66592 6.99668 0.666016H0.996683C0.935964 0.666267 0.876462 0.683065 0.824577 0.714604C0.772691 0.746142 0.730384 0.791229 0.702206 0.845014C0.674028 0.898799 0.661045 0.959248 0.664653 1.01986C0.668261 1.08047 0.688323 1.13895 0.722683 1.18902L3.72268 5.52235Z" fill="#A0A0A0"/>
</svg>
