<svg width="8" height="6" viewBox="0 0 8 6" fill="none" xmlns="http://www.w3.org/2000/svg">
<path d="M0.999052 5.33288H6.99905C7.0598 5.33269 7.11934 5.31593 7.17127 5.28442C7.22321 5.25291 7.26556 5.20782 7.29378 5.15403C7.322 5.10023 7.33501 5.03976 7.33142 4.97912C7.32782 4.91848 7.30776 4.85996 7.27338 4.80988L4.27338 0.476547C4.14905 0.29688 3.84972 0.29688 3.72505 0.476547L0.725052 4.80988C0.690327 4.85986 0.669963 4.9184 0.666174 4.97914C0.662384 5.03989 0.675313 5.10051 0.703557 5.15442C0.7318 5.20832 0.774277 5.25346 0.826373 5.28493C0.878469 5.31639 0.938192 5.33297 0.999052 5.33288Z" fill="#A0A0A0"/>
</svg>
