<svg width="18" height="12" viewBox="0 0 18 12" fill="none" xmlns="http://www.w3.org/2000/svg">
<path d="M17.706 5.71647C15.877 2.3352 12.6694 0.289062 9.11985 0.289062C5.57033 0.289062 2.3573 2.3352 0.544546 5.71647L0.392578 5.97156L0.533691 6.23207C2.36273 9.61335 5.57033 11.6595 9.11985 11.6595C12.6694 11.6595 15.8824 9.64049 17.706 6.23207L17.8471 5.97156L17.706 5.71647ZM9.11985 10.5469C6.06422 10.5469 3.25825 8.84266 1.63003 5.97156C3.25825 3.10046 6.06422 1.39625 9.11985 1.39625C12.1755 1.39625 14.9489 3.10589 16.6042 5.97156C14.9489 8.84266 12.1701 10.5469 9.11985 10.5469Z" fill="#181818"/>
<path d="M9.32193 2.27451C8.58236 2.27991 7.86098 2.50436 7.24889 2.9195C6.6368 3.33465 6.16147 3.92187 5.88293 4.60701C5.60439 5.29214 5.53514 6.04446 5.68391 6.76893C5.83269 7.4934 6.19282 8.15754 6.71883 8.67746C7.24483 9.19737 7.91312 9.54975 8.63927 9.69008C9.36543 9.83041 10.1169 9.7524 10.7987 9.4659C11.4806 9.1794 12.0622 8.69726 12.4702 8.08038C12.8782 7.4635 13.0942 6.73955 13.091 5.99997C13.0889 5.50766 12.9896 5.02061 12.7989 4.56674C12.6082 4.11287 12.3298 3.70109 11.9797 3.35501C11.6295 3.00892 11.2145 2.73534 10.7585 2.54992C10.3024 2.36451 9.81423 2.27092 9.32193 2.27451ZM9.32193 8.66724C8.79953 8.66186 8.29036 8.50223 7.85838 8.20841C7.4264 7.91459 7.09086 7.49968 6.89392 7.01579C6.69698 6.5319 6.64741 6.0006 6.75143 5.48863C6.85546 4.97666 7.10844 4.50684 7.47861 4.13818C7.84878 3.76951 8.31963 3.51845 8.83202 3.41651C9.34442 3.31458 9.87551 3.36632 10.3586 3.56523C10.8417 3.76415 11.2552 4.10137 11.5473 4.53455C11.8393 4.96773 11.9969 5.47754 12.0001 5.99997C12.0016 6.35157 11.9332 6.69996 11.799 7.02494C11.6648 7.34992 11.4674 7.64502 11.2183 7.89313C10.9691 8.14124 10.6732 8.33743 10.3477 8.47031C10.0222 8.60319 9.67352 8.67013 9.32193 8.66724Z" fill="#181818"/>
</svg>
