<svg width="12" height="12" viewBox="0 0 12 12" fill="none" xmlns="http://www.w3.org/2000/svg">
<g clip-path="url(#clip0_55_24619)">
<path d="M5.99977 7.84719C7.02007 7.84719 7.84719 7.02007 7.84719 5.99977C7.84719 4.97946 7.02007 4.15234 5.99977 4.15234C4.97946 4.15234 4.15234 4.97946 4.15234 5.99977C4.15234 7.02007 4.97946 7.84719 5.99977 7.84719Z" fill="#A0A0A0"/>
<path d="M11.816 5.48894C10.3959 3.77292 8.24631 2.12109 6.00005 2.12109C3.75334 2.12109 1.60323 3.77407 0.184108 5.48894C-0.0613693 5.78545 -0.0613693 6.2159 0.184108 6.51241C0.540893 6.94356 1.28887 7.77582 2.28787 8.50301C4.80381 10.3345 7.19074 10.3386 9.71222 8.50301C10.7112 7.77582 11.4592 6.94356 11.816 6.51241C12.0607 6.21648 12.062 5.78642 11.816 5.48894ZM6.00005 3.41429C7.42626 3.41429 8.58645 4.57447 8.58645 6.00068C8.58645 7.42689 7.42626 8.58707 6.00005 8.58707C4.57383 8.58707 3.41364 7.42689 3.41364 6.00068C3.41364 4.57447 4.57383 3.41429 6.00005 3.41429Z" fill="#A0A0A0"/>
</g>
<defs>
<clipPath id="clip0_55_24619">
<rect width="12" height="12" fill="white"/>
</clipPath>
</defs>
</svg>
