<svg width="62" height="58" viewBox="0 0 62 58" fill="none" xmlns="http://www.w3.org/2000/svg">
<path d="M60.7988 49.7487C61.1862 50.1423 61.1811 50.7755 60.7875 51.1629L54.3731 57.476C53.9795 57.8634 53.3463 57.8583 52.9589 57.4647C52.5715 57.0711 52.5765 56.4379 52.9702 56.0505L58.6719 50.4389L53.0602 44.7372C52.6728 44.3436 52.6779 43.7104 53.0715 43.323C53.4651 42.9356 54.0983 42.9407 54.4857 43.3343L60.7988 49.7487ZM2.58009 0.267599C4.38097 16.2896 10.5861 28.4873 20.3621 36.7206C30.1467 44.9613 43.6138 49.319 60.094 49.4502L60.0781 51.4501C43.2616 51.3162 29.3028 46.8654 19.0737 38.2504C8.83591 29.628 2.43954 16.9228 0.592607 0.490993L2.58009 0.267599Z" fill="#273BEF"/>
</svg>
