<svg width="12" height="12" viewBox="0 0 12 12" fill="none" xmlns="http://www.w3.org/2000/svg">
<g clip-path="url(#clip0_77_12215)">
<path d="M11.0004 2H9.00037V1.5C9.00037 1.10218 8.84233 0.720644 8.56103 0.43934C8.27972 0.158035 7.89819 0 7.50037 0L4.50037 0C4.10254 0 3.72101 0.158035 3.43971 0.43934C3.1584 0.720644 3.00037 1.10218 3.00037 1.5V2H1.00037C0.867758 2 0.740581 2.05268 0.646813 2.14645C0.553045 2.24022 0.500366 2.36739 0.500366 2.5C0.500366 2.63261 0.553045 2.75979 0.646813 2.85355C0.740581 2.94732 0.867758 3 1.00037 3H1.52737L1.95037 10.5835C1.97173 10.9667 2.13915 11.3271 2.41817 11.5906C2.69719 11.8541 3.06659 12.0006 3.45037 12H8.55437C8.93814 12.0006 9.30754 11.8541 9.58656 11.5906C9.86559 11.3271 10.033 10.9667 10.0544 10.5835L10.4734 3H11.0004C11.133 3 11.2602 2.94732 11.3539 2.85355C11.4477 2.75979 11.5004 2.63261 11.5004 2.5C11.5004 2.36739 11.4477 2.24022 11.3539 2.14645C11.2602 2.05268 11.133 2 11.0004 2ZM4.00037 1.5C4.00037 1.36739 4.05304 1.24021 4.14681 1.14645C4.24058 1.05268 4.36776 1 4.50037 1H7.50037C7.63297 1 7.76015 1.05268 7.85392 1.14645C7.94769 1.24021 8.00037 1.36739 8.00037 1.5V2H4.00037V1.5ZM4.50037 8.5C4.50037 8.63261 4.44769 8.75979 4.35392 8.85355C4.26015 8.94732 4.13297 9 4.00037 9C3.86776 9 3.74058 8.94732 3.64681 8.85355C3.55304 8.75979 3.50037 8.63261 3.50037 8.5V5.5C3.50037 5.36739 3.55304 5.24022 3.64681 5.14645C3.74058 5.05268 3.86776 5 4.00037 5C4.13297 5 4.26015 5.05268 4.35392 5.14645C4.44769 5.24022 4.50037 5.36739 4.50037 5.5V8.5ZM6.50037 8.5C6.50037 8.63261 6.44769 8.75979 6.35392 8.85355C6.26015 8.94732 6.13297 9 6.00037 9C5.86776 9 5.74058 8.94732 5.64681 8.85355C5.55304 8.75979 5.50037 8.63261 5.50037 8.5V5.5C5.50037 5.36739 5.55304 5.24022 5.64681 5.14645C5.74058 5.05268 5.86776 5 6.00037 5C6.13297 5 6.26015 5.05268 6.35392 5.14645C6.44769 5.24022 6.50037 5.36739 6.50037 5.5V8.5ZM8.50037 8.5C8.50037 8.63261 8.44769 8.75979 8.35392 8.85355C8.26015 8.94732 8.13297 9 8.00037 9C7.86776 9 7.74058 8.94732 7.64681 8.85355C7.55304 8.75979 7.50037 8.63261 7.50037 8.5V5.5C7.50037 5.36739 7.55304 5.24022 7.64681 5.14645C7.74058 5.05268 7.86776 5 8.00037 5C8.13297 5 8.26015 5.05268 8.35392 5.14645C8.44769 5.24022 8.50037 5.36739 8.50037 5.5V8.5Z" fill="#636770"/>
</g>
<defs>
<clipPath id="clip0_77_12215">
<rect width="12" height="12" fill="white"/>
</clipPath>
</defs>
</svg>
