<svg width="24" height="24" viewBox="0 0 24 24" fill="none" xmlns="http://www.w3.org/2000/svg">
<path fill-rule="evenodd" clip-rule="evenodd" d="M20.8689 14.3415C20.444 14.606 19.9438 14.6388 19.5635 14.4275C19.0805 14.1588 18.8149 13.5296 18.8149 12.6544V10.0361C18.8149 8.77171 18.3075 7.872 17.459 7.62907C16.0212 7.21639 14.9399 8.94966 14.5335 9.60058L11.9976 13.6513V8.70029C11.9691 7.56117 11.5936 6.87981 10.8806 6.67434C10.4089 6.53854 9.70303 6.59298 9.01739 7.62673L3.33614 16.6144C2.57556 15.1919 2.17907 13.6079 2.18112 12C2.18112 6.58595 6.58495 2.18166 11.9976 2.18166C17.4103 2.18166 21.8136 6.58595 21.8136 12C21.8136 12.0094 21.8159 12.0176 21.8165 12.0263C21.8165 12.0357 21.8147 12.0439 21.8153 12.0533C21.8664 13.1017 21.5218 13.9352 20.8689 14.3415ZM23.9947 12.0006V11.9731L23.9941 11.9461C23.9638 5.35259 18.5945 0 11.997 0C5.38239 0 0 5.38302 0 12C0 18.6164 5.38239 24 11.9976 24C15.0331 24 17.9302 22.8632 20.1541 20.7998C20.5961 20.39 20.6223 19.6999 20.2123 19.2585C20.1158 19.1537 19.9991 19.0689 19.8689 19.0091C19.7387 18.9493 19.5977 18.9157 19.4542 18.9102C19.3107 18.9048 19.1675 18.9276 19.033 18.9773C18.8985 19.0271 18.7755 19.1028 18.6711 19.2C16.8685 20.8817 14.4802 21.8188 11.9976 21.8183C9.09938 21.8183 6.49166 20.5545 4.69318 18.5502L9.81652 10.4453V14.1817C9.81652 15.9764 10.523 16.5565 11.1153 16.7262C11.7083 16.896 12.6144 16.7801 13.5656 15.2581L16.3836 10.7573C16.4739 10.6121 16.5571 10.4868 16.6332 10.3785V12.6544C16.6332 14.3321 17.3153 15.6738 18.5042 16.3346C19.576 16.9305 20.9235 16.8767 22.0215 16.1941C23.3524 15.3659 24.0695 13.8398 23.9947 12.0006Z" fill="#17181B"/>
</svg>
