<svg width="24" height="24" viewBox="0 0 24 24" fill="none" xmlns="http://www.w3.org/2000/svg">
<path d="M19.6268 8.68634C19.639 8.85689 19.639 9.02748 19.639 9.19803C19.639 14.4 15.6796 20.394 8.44305 20.394C6.21359 20.394 4.14254 19.7483 2.40039 18.6275C2.71715 18.664 3.02169 18.6762 3.35064 18.6762C5.19021 18.6762 6.88365 18.0549 8.23594 16.995C6.50598 16.9585 5.05623 15.8255 4.55672 14.2661C4.8004 14.3026 5.04404 14.327 5.2999 14.327C5.65319 14.327 6.00652 14.2782 6.33543 14.193C4.53239 13.8275 3.18006 12.2437 3.18006 10.331V10.2823C3.7039 10.5747 4.31309 10.7574 4.95873 10.7818C3.89882 10.0752 3.20443 8.86908 3.20443 7.5046C3.20443 6.77364 3.39932 6.10359 3.74046 5.51881C5.67753 7.90664 8.58923 9.466 11.8542 9.63659C11.7933 9.3442 11.7567 9.03967 11.7567 8.73509C11.7567 6.56653 13.511 4.80005 15.6918 4.80005C16.8247 4.80005 17.8481 5.27518 18.5669 6.04269C19.4562 5.87214 20.309 5.54319 21.0644 5.09244C20.7719 6.00617 20.1506 6.77368 19.3344 7.26096C20.1263 7.17572 20.8938 6.95638 21.6004 6.65184C21.0644 7.43151 20.3944 8.1259 19.6268 8.68634Z" fill="#121212"/>
</svg>
