<svg width="24" height="24" viewBox="0 0 24 24" fill="none" xmlns="http://www.w3.org/2000/svg">
<path d="M21.1992 6.91228C20.9784 6.08083 20.3278 5.42601 19.5017 5.20379C18.0044 4.79999 12.0004 4.79999 12.0004 4.79999C12.0004 4.79999 5.99641 4.79999 4.49908 5.20379C3.67301 5.42605 3.02241 6.08083 2.80159 6.91228C2.40039 8.41932 2.40039 11.5636 2.40039 11.5636C2.40039 11.5636 2.40039 14.7079 2.80159 16.215C3.02241 17.0464 3.67301 17.6739 4.49908 17.8962C5.99641 18.3 12.0004 18.3 12.0004 18.3C12.0004 18.3 18.0044 18.3 19.5017 17.8962C20.3278 17.6739 20.9784 17.0464 21.1992 16.215C21.6004 14.7079 21.6004 11.5636 21.6004 11.5636C21.6004 11.5636 21.6004 8.41932 21.1992 6.91228ZM10.0367 14.4184V8.70883L15.0549 11.5637L10.0367 14.4184Z" fill="#121212"/>
</svg>
