<svg width="18" height="16" viewBox="0 0 18 16" fill="none" xmlns="http://www.w3.org/2000/svg">
<g clip-path="url(#clip0_2_3367)">
<path d="M13.7085 11.4135C15.596 11.4135 17.1261 9.88339 17.1261 7.99592C17.1261 6.10846 15.596 4.57837 13.7085 4.57837C11.8211 4.57837 10.291 6.10846 10.291 7.99592C10.291 9.88339 11.8211 11.4135 13.7085 11.4135Z" fill="black"/>
<path d="M9.39005 3.2958C10.3001 3.2958 11.0379 2.55801 11.0379 1.6479C11.0379 0.737791 10.3001 0 9.39005 0C8.47996 0 7.74219 0.737791 7.74219 1.6479C7.74219 2.55801 8.47996 3.2958 9.39005 3.2958Z" fill="black"/>
<path d="M9.39005 15.9999C10.3001 15.9999 11.0379 15.2621 11.0379 14.352C11.0379 13.4419 10.3001 12.7041 9.39005 12.7041C8.47996 12.7041 7.74219 13.4419 7.74219 14.352C7.74219 15.2621 8.47996 15.9999 9.39005 15.9999Z" fill="black"/>
<path d="M8.63493 10.4637C8.73234 10.4962 8.83787 10.5124 8.9434 10.5124C9.51164 10.5124 9.97435 10.0497 9.97435 9.48149C9.97435 8.91325 9.51164 8.45054 8.9434 8.45054C8.5781 8.45054 8.26151 8.63725 8.07481 8.92137V8.92949C8.04234 8.97008 8.01798 9.01878 8.00175 9.06749C6.86527 11.0726 4.58419 9.73314 4.58419 9.73314C4.21078 9.51397 3.78054 9.38408 3.30971 9.38408C1.93782 9.38408 0.825694 10.4962 0.825694 11.8681C0.825694 13.24 1.93782 14.3521 3.30971 14.3521C4.2676 14.3521 5.10373 13.8083 5.50961 13.0127V13.0046C5.58267 12.8666 5.63949 12.7205 5.6882 12.5662C6.87339 9.84679 8.63493 10.4637 8.63493 10.4637ZM8.05045 6.81887C8.09916 6.90817 8.1641 6.99746 8.23716 7.07052C8.64305 7.47641 9.29246 7.47641 9.69023 7.07052C10.0961 6.66464 10.0961 6.01522 9.69023 5.61745C9.43046 5.35768 9.07329 5.26838 8.74858 5.34144H8.74046C8.69175 5.34956 8.63493 5.3658 8.58622 5.39015C6.36197 6.0071 5.69632 3.44189 5.69632 3.44189C5.59079 3.01977 5.37161 2.622 5.0469 2.29729C4.07278 1.32316 2.50606 1.32316 1.54005 2.28917C0.574046 3.25518 0.565928 4.83003 1.54005 5.79604C2.22194 6.47793 3.18795 6.68087 4.04842 6.40487H4.05654C4.20266 6.35616 4.34878 6.29122 4.4949 6.21816C7.2468 5.13038 8.05045 6.81887 8.05045 6.81887Z" fill="black"/>
</g>
<defs>
<clipPath id="clip0_2_3367">
<rect width="16.3199" height="16" fill="white" transform="translate(0.808594)"/>
</clipPath>
</defs>
</svg>
