<svg width="17" height="16" viewBox="0 0 17 16" fill="none" xmlns="http://www.w3.org/2000/svg">
<g clip-path="url(#clip0_2_3368)">
<path d="M11.8682 9.31966C13.3944 4.9617 12.9436 0.837746 10.8613 0.108557C8.77909 -0.620632 5.85391 2.32107 4.32777 6.67903C2.80163 11.037 3.25244 15.1609 5.33468 15.8901C7.41692 16.6193 10.3421 13.6776 11.8682 9.31966Z" fill="#5FBCD3"/>
<path d="M10.497 11.1919C14.1847 8.413 16.0978 4.73192 14.7701 2.96995C13.4423 1.20798 9.37652 2.03233 5.68884 4.81119C2.00117 7.59006 0.0880651 11.2711 1.41581 13.0331C2.74355 14.7951 6.80934 13.9707 10.497 11.1919Z" fill="#2C89A0"/>
<path d="M8.85306 11.7578C13.4477 11.2992 16.9948 9.14772 16.7756 6.9524C16.5565 4.75708 12.6542 3.3492 8.05955 3.8078C3.46492 4.26641 -0.0821324 6.41784 0.136989 8.61316C0.356111 10.8085 4.25843 12.2164 8.85306 11.7578Z" fill="#164450"/>
<path d="M9.0466 8.15765C9.11409 8.82695 9.59357 9.1602 10.485 9.15739C11.011 9.16298 11.5305 9.04142 11.9994 8.80305V9.81544C11.4679 10.0489 10.8253 10.1656 10.0716 10.1656C9.15768 10.1656 8.48275 9.8984 8.04686 9.36408H8.02156C7.54348 9.8984 6.92902 10.1656 6.17816 10.1656C5.61291 10.1656 5.1714 10.0418 4.85362 9.79435C4.53584 9.54688 4.37695 9.20379 4.37695 8.76508C4.37695 8.32919 4.54147 7.97907 4.87049 7.71473C5.19952 7.45038 5.66916 7.29852 6.2794 7.25915L7.58707 7.16635C7.58707 6.59547 7.27351 6.31003 6.64639 6.31003C6.05583 6.31003 5.4709 6.47033 4.89158 6.79092V5.73212C5.48932 5.48326 6.12971 5.35289 6.77716 5.34826C7.57301 5.34826 8.1242 5.54792 8.43073 5.94726H8.45182C8.90403 5.5471 9.46484 5.29018 10.0632 5.20905C10.755 5.09516 11.6282 5.1036 12.0458 5.50012C12.2812 5.72807 12.434 6.02784 12.4803 6.35221C12.5049 6.53786 12.4914 6.72659 12.4405 6.90682C12.3896 7.08705 12.3025 7.25499 12.1844 7.40034C12.0663 7.54568 11.9197 7.66538 11.7537 7.75208C11.5877 7.83879 11.4058 7.89067 11.219 7.90455L9.0466 8.15765ZM7.58285 8.19561V7.99313L6.78981 8.05219C6.1627 8.09719 5.84914 8.29404 5.84914 8.64275C5.85033 8.71581 5.86941 8.78747 5.90471 8.85144C5.94001 8.91542 5.99045 8.96977 6.05161 9.00975C6.18379 9.10817 6.35674 9.15879 6.57046 9.1616C6.86293 9.1616 7.10478 9.07161 7.29601 8.89163C7.48724 8.71165 7.58285 8.47965 7.58285 8.19561ZM9.19002 7.21275L9.17737 7.41523L9.97884 7.38992C10.606 7.37304 10.9294 7.19025 10.949 6.84154C10.953 6.76813 10.9385 6.69489 10.9068 6.62855C10.8751 6.56221 10.8273 6.5049 10.7677 6.46189C10.6411 6.36065 10.4724 6.30441 10.2615 6.29316C9.969 6.28191 9.72153 6.36206 9.51905 6.5336C9.31657 6.70515 9.20689 6.93153 9.19002 7.21275Z" fill="white"/>
</g>
<defs>
<clipPath id="clip0_2_3368">
<rect width="16.6581" height="16" fill="white" transform="translate(0.128906)"/>
</clipPath>
</defs>
</svg>
