<svg width="35" height="16" viewBox="0 0 35 16" fill="none" xmlns="http://www.w3.org/2000/svg">
<g clip-path="url(#clip0_2_3369)">
<path d="M8.13835 0H9.5375C11.723 0.214468 13.7452 1.31404 15.243 2.89702C18.3511 6.1583 20.0601 10.7608 24.0158 13.1881C26.8754 14.9447 30.8754 13.5081 32.2813 10.543C32.9962 10.5294 33.7145 10.5294 34.4294 10.5328C33.4456 13.5455 30.5792 15.7106 27.4439 16H26.2898C24.3596 15.84 22.4839 15.0979 21.0235 13.8145C18.9026 12.017 17.5409 9.55234 15.8932 7.3566C14.4771 5.41617 13.0303 3.23404 10.6847 2.35234C7.78771 1.26638 4.24728 2.96511 3.19196 5.85191C2.2626 8.22808 3.01835 11.1762 5.09494 12.6979C6.65069 13.903 8.8192 14.3523 10.6881 13.6511C12.7647 12.9021 14.3069 11.2 15.4881 9.39574C15.9545 10.063 16.4073 10.7404 16.8566 11.4213C15.0183 13.7362 12.4686 15.7243 9.43537 16H8.19282C4.36984 15.7345 1.04728 12.4868 0.785156 8.65021V7.39404C1.03367 3.56425 4.31196 0.279149 8.13835 0Z" fill="#DE3F6B"/>
<path d="M26.2114 0H27.3722C31.2293 0.251915 34.511 3.56425 34.8276 7.40085V9.36851C31.6446 9.39915 28.4582 9.37872 25.2752 9.38213C25.2786 8.80681 25.2786 8.23489 25.2752 7.65957C27.791 7.65277 30.3033 7.66979 32.8157 7.65277C32.6386 6.63489 32.4071 5.59319 31.8046 4.73191C30.334 2.48511 27.2259 1.56596 24.7408 2.53957C22.7595 3.27489 21.2684 4.88511 20.1178 6.60426C19.6752 5.96766 19.2361 5.32426 18.8105 4.67404C20.625 2.32511 23.1578 0.292766 26.2114 0Z" fill="#DE3F6B"/>
</g>
<defs>
<clipPath id="clip0_2_3369">
<rect width="34.0426" height="16" fill="white" transform="translate(0.785156)"/>
</clipPath>
</defs>
</svg>
