<svg width="17" height="16" viewBox="0 0 17 16" fill="none" xmlns="http://www.w3.org/2000/svg">
<g clip-path="url(#clip0_2_3373)">
<path d="M8.59329 16.0001C8.96558 16.0001 9.32952 15.8897 9.63907 15.6828C9.94862 15.476 10.1899 15.182 10.3324 14.8381C10.4748 14.4941 10.5121 14.1156 10.4395 13.7505C10.3668 13.3853 10.1876 13.0499 9.92431 12.7867C9.66106 12.5234 9.32566 12.3442 8.96052 12.2715C8.59538 12.1989 8.2169 12.2362 7.87294 12.3786C7.52899 12.5211 7.23501 12.7624 7.02817 13.0719C6.82134 13.3815 6.71094 13.7454 6.71094 14.1177C6.71094 14.6169 6.90926 15.0957 7.26227 15.4487C7.61528 15.8017 8.09406 16.0001 8.59329 16.0001Z" fill="#1C1C1C"/>
<path d="M10.6352 0H6.54107L0.828125 15.7647H4.28695L8.59283 3.89412L12.8893 15.7647H16.3575L10.6352 0Z" fill="#1C1C1C"/>
</g>
<defs>
<clipPath id="clip0_2_3373">
<rect width="15.5294" height="16" fill="white" transform="translate(0.828125)"/>
</clipPath>
</defs>
</svg>
