<svg width="17" height="16" viewBox="0 0 17 16" fill="none" xmlns="http://www.w3.org/2000/svg">
<g clip-path="url(#clip0_2_3378)">
<path d="M8.23828 16C12.6566 16 16.2383 12.4183 16.2383 8C16.2383 3.58172 12.6566 0 8.23828 0C3.82 0 0.238281 3.58172 0.238281 8C0.238281 12.4183 3.82 16 8.23828 16Z" fill="#3C5BE0"/>
<path d="M13.7383 8.0075V8.0115C13.7366 8.05141 13.7259 8.09041 13.7068 8.1255C13.6368 8.253 11.9613 11.25 8.23878 11.25C4.51628 11.25 2.83978 8.253 2.77028 8.1255C2.75102 8.09045 2.74007 8.05145 2.73828 8.0115V7.989L2.73878 7.9775C2.74169 7.94457 2.75086 7.9125 2.76578 7.883L2.76678 7.881L2.76978 7.875C2.83978 7.747 4.51578 4.75 8.23828 4.75C11.9608 4.75 13.6368 7.7475 13.7063 7.875L13.7093 7.881L13.7108 7.8835C13.7255 7.91288 13.7345 7.94477 13.7373 7.9775V8.0005L13.7383 8.0075ZM13.1833 8C12.9018 7.563 11.8438 6.1035 9.92578 5.5165C10.5433 5.94914 10.9777 6.59615 11.1443 7.3315C11.2758 7.3615 11.3703 7.4795 11.3728 7.6165C11.3753 7.7535 11.2853 7.8745 11.1543 7.9095C11.0233 7.9445 10.8868 7.8845 10.8218 7.7645C10.7903 7.70606 10.7791 7.63885 10.7899 7.57337C10.8006 7.50788 10.8328 7.4478 10.8813 7.4025C10.6343 6.291 9.72028 5.4325 8.59428 5.283C8.58579 5.28197 8.57742 5.28013 8.56928 5.2775C8.34861 5.26566 8.12746 5.26566 7.90678 5.2775C7.89864 5.28013 7.89027 5.28197 7.88178 5.283C7.443 5.34206 7.02562 5.50867 6.66678 5.768C6.6493 5.78042 6.62913 5.78854 6.60791 5.79168C6.5867 5.79482 6.56504 5.7929 6.54471 5.78607C6.52438 5.77924 6.50596 5.76771 6.49093 5.7524C6.47591 5.7371 6.46472 5.71845 6.45828 5.698C6.44954 5.67027 6.44971 5.6405 6.45876 5.61288C6.46782 5.58525 6.48532 5.56116 6.50878 5.544C6.52087 5.53523 6.53304 5.52656 6.54528 5.518C4.63028 6.1065 3.57428 7.563 3.29328 8C3.57178 8.4335 4.61328 9.87 6.49828 10.4675C5.87657 10.0136 5.45177 9.33927 5.31078 8.5825C5.18378 8.535 5.10578 8.406 5.12078 8.2695C5.13578 8.133 5.24078 8.0245 5.37478 8.007C5.50878 7.9895 5.63778 8.067 5.68678 8.1955C5.71045 8.25757 5.71288 8.32572 5.6937 8.38932C5.67452 8.45292 5.63481 8.50836 5.58078 8.547C5.79578 9.652 6.65478 10.5105 7.74678 10.712C8.07423 10.7389 8.40333 10.7389 8.73078 10.712C9.13819 10.6355 9.52238 10.4657 9.85328 10.216C9.87232 10.2012 9.89498 10.1918 9.91889 10.1887C9.94281 10.1856 9.96712 10.189 9.98928 10.1985C10.0115 10.2084 10.0308 10.2239 10.0451 10.2436C10.0595 10.2632 10.0684 10.2863 10.0711 10.3105C10.0737 10.3347 10.0699 10.3592 10.0602 10.3815C10.0504 10.4037 10.0349 10.4231 10.0153 10.4375L9.97178 10.47C11.8608 9.8735 12.9043 8.434 13.1833 8ZM10.6483 8.0085C10.6483 9.357 9.56728 10.4545 8.23828 10.4545C6.90928 10.4545 5.82828 9.357 5.82828 8.0085C5.82828 6.66 6.90928 5.563 8.23828 5.563C9.56728 5.563 10.6483 6.6595 10.6483 8.0085ZM10.3763 8.0085C10.3763 6.8125 9.41728 5.839 8.23828 5.839C7.05928 5.839 6.09978 6.812 6.09978 8.009C6.09978 9.206 7.05928 10.178 8.23828 10.178C9.41728 10.178 10.3763 9.205 10.3763 8.0085ZM9.02628 7.337C9.02628 7.599 8.89678 7.843 8.68128 7.987L8.89628 9.3005C8.90122 9.32378 8.9008 9.34788 8.89506 9.37097C8.88931 9.39406 8.87839 9.41555 8.86313 9.4338C8.84786 9.45206 8.82864 9.4666 8.80693 9.47634C8.78521 9.48607 8.76157 9.49075 8.73778 9.49H7.77778C7.75398 9.49073 7.73033 9.48605 7.7086 9.47631C7.68687 9.46658 7.66763 9.45205 7.65233 9.43381C7.63702 9.41557 7.62605 9.3941 7.62024 9.37101C7.61443 9.34792 7.61393 9.32381 7.61878 9.3005L7.83278 7.987C7.52678 7.7815 7.40678 7.3845 7.54628 7.04C7.68578 6.6955 8.04628 6.4995 8.40628 6.5715C8.76678 6.644 9.02628 6.9645 9.02628 7.337ZM11.1998 8.3585C11.13 8.98485 10.866 9.57368 10.4448 10.0425C10.4289 10.0607 10.4085 10.0743 10.3855 10.0819C10.3626 10.0894 10.3381 10.0908 10.3145 10.0857C10.2909 10.0806 10.2692 10.0692 10.2514 10.0528C10.2337 10.0364 10.2207 10.0156 10.2138 9.9925C10.2065 9.96918 10.2054 9.94436 10.2107 9.9205C10.2159 9.89665 10.2273 9.87458 10.2438 9.8565C10.6264 9.43053 10.8663 8.89557 10.9298 8.3265C10.9338 8.29055 10.9519 8.25764 10.9801 8.23497C11.0083 8.21231 11.0443 8.20171 11.0803 8.2055C11.1553 8.2145 11.2083 8.283 11.1998 8.3585ZM6.26478 5.9245C6.29105 5.94984 6.30629 5.98449 6.30723 6.02098C6.30817 6.05746 6.29471 6.09285 6.26978 6.1195C5.88624 6.53003 5.63789 7.04835 5.55828 7.6045C5.55296 7.64033 5.53367 7.6726 5.50462 7.69425C5.47558 7.71589 5.43914 7.72515 5.40328 7.72C5.36745 7.71421 5.33534 7.69454 5.31391 7.66525C5.29248 7.63596 5.28345 7.5994 5.28878 7.5635C5.37662 6.95165 5.6501 6.38149 6.07228 5.93C6.08451 5.91689 6.09923 5.90635 6.11557 5.899C6.13192 5.89164 6.14956 5.88761 6.16748 5.88714C6.1854 5.88668 6.20323 5.88979 6.21994 5.89629C6.23664 5.90278 6.25189 5.91255 6.26478 5.925V5.9245Z" fill="white"/>
</g>
<defs>
<clipPath id="clip0_2_3378">
<rect width="16" height="16" fill="white" transform="translate(0.238281)"/>
</clipPath>
</defs>
</svg>
