<svg width="17" height="16" viewBox="0 0 17 16" fill="none" xmlns="http://www.w3.org/2000/svg">
<g clip-path="url(#clip0_2_3380)">
<path d="M8.56559 15.9984C12.9834 15.9984 16.5648 12.417 16.5648 7.99918C16.5648 3.58135 12.9834 0 8.56559 0C4.14776 0 0.566406 3.58135 0.566406 7.99918C0.566406 12.417 4.14776 15.9984 8.56559 15.9984Z" fill="url(#paint0_linear_2_3380)"/>
<path d="M8.56528 15.1936C12.5396 15.1936 15.7614 11.9717 15.7614 7.99741C15.7614 4.02309 12.5396 0.80127 8.56528 0.80127C4.59096 0.80127 1.36914 4.02309 1.36914 7.99741C1.36914 11.9717 4.59096 15.1936 8.56528 15.1936Z" stroke="white" stroke-width="76.9783" stroke-miterlimit="10"/>
<path d="M7.52571 8.85669L8.58986 5.61826L9.67371 8.85669H7.52571ZM12.0368 10.9045L11.1566 8.48719H11.6821C11.7828 8.48633 11.879 8.44586 11.95 8.37455C12.021 8.30324 12.0611 8.20683 12.0615 8.1062C12.0615 8.05876 12.0521 8.01178 12.034 7.96794C12.0158 7.92411 11.9892 7.88428 11.9557 7.85073C11.9221 7.81719 11.8823 7.79057 11.8385 7.77242C11.7946 7.75426 11.7476 7.74492 11.7002 7.74492H10.8791L10.7477 7.36885H11.6821C11.7806 7.36888 11.8752 7.33045 11.9458 7.26173C12.0163 7.19301 12.0573 7.09945 12.0598 7.001C12.0601 6.95112 12.0504 6.90169 12.0314 6.85557C12.0124 6.80945 11.9845 6.76754 11.9492 6.73227C11.9139 6.697 11.872 6.66907 11.8259 6.65008C11.7798 6.63109 11.7304 6.62143 11.6805 6.62165H10.4669L9.81002 4.81522C9.71188 4.55713 9.54969 4.32825 9.3387 4.15013C9.13026 3.97871 8.86609 3.88987 8.59643 3.90051C8.32606 3.89192 8.06156 3.98048 7.85087 4.15013C7.63976 4.3285 7.47709 4.55726 7.37791 4.81522L6.68983 6.63807H5.48281C5.3864 6.63807 5.29392 6.67625 5.2256 6.74427C5.15727 6.81228 5.11867 6.90459 5.11824 7.001C5.11824 7.10117 5.15803 7.19724 5.22887 7.26808C5.2997 7.33891 5.39577 7.3787 5.49595 7.3787H6.4123L6.27107 7.74492H5.44996C5.35327 7.74492 5.26054 7.78333 5.19217 7.8517C5.1238 7.92007 5.08539 8.0128 5.08539 8.10949C5.08539 8.2085 5.12462 8.30349 5.19448 8.37366C5.26434 8.44383 5.35916 8.48347 5.45818 8.48391H5.98532L5.09032 10.9045C5.03531 11.041 5.00474 11.1861 5 11.3331C5.00933 11.5394 5.09891 11.7339 5.24962 11.8751C5.41546 12.0187 5.62799 12.0969 5.84738 12.0951C6.03166 12.1052 6.21382 12.0517 6.36331 11.9434C6.5128 11.8352 6.62054 11.6789 6.66848 11.5006L7.01499 10.4677H10.2025L10.549 11.5253C10.6033 11.6975 10.7135 11.8467 10.8623 11.9491C11.0111 12.0514 11.1898 12.1011 11.3701 12.0902C11.5081 12.093 11.6443 12.0583 11.7642 11.99C11.8683 11.9128 11.9606 11.821 12.0385 11.7174C12.1063 11.6009 12.141 11.468 12.1387 11.3331C12.1169 11.1898 12.0829 11.0486 12.0368 10.9111V10.9045Z" fill="#FEFEFE"/>
</g>
<defs>
<linearGradient id="paint0_linear_2_3380" x1="3.89844" y1="2.94447" x2="14.7518" y2="14.6994" gradientUnits="userSpaceOnUse">
<stop stop-color="#FC8F55"/>
<stop offset="0.44" stop-color="#FE7A6A"/>
<stop offset="1" stop-color="#FE687C"/>
</linearGradient>
<clipPath id="clip0_2_3380">
<rect width="16" height="16" fill="white" transform="translate(0.566406)"/>
</clipPath>
</defs>
</svg>
