<svg width="17" height="16" viewBox="0 0 17 16" fill="none" xmlns="http://www.w3.org/2000/svg">
<g clip-path="url(#clip0_2_3382)">
<path d="M8.56641 16C12.9847 16 16.5664 12.4183 16.5664 8C16.5664 3.58172 12.9847 0 8.56641 0C4.14813 0 0.566406 3.58172 0.566406 8C0.566406 12.4183 4.14813 16 8.56641 16Z" fill="#3EFFFF"/>
<path d="M3.81641 5.2435L8.56641 2.5L13.3164 5.2435V10.7565L8.56641 13.5L3.81641 10.7565V5.2435ZM4.27241 10.2285L6.17741 9.126L7.14391 7.4335L4.27241 5.772V10.2285ZM4.50091 10.624L8.35191 12.8485V10.72L6.33291 9.5635L4.50091 10.6235V10.624ZM12.8604 5.7875L10.0144 7.434L10.9804 9.125L12.8604 10.213V5.7875ZM12.6454 5.3835L8.80791 3.167V5.3215L9.78791 7.037L12.6454 5.3835ZM9.62191 7.661L9.03591 8L10.1984 8.6725L9.62191 7.661ZM9.39541 7.264L8.80791 6.234V7.604L9.39541 7.264ZM6.96341 8.6715L8.12341 8L7.53891 7.662L6.96391 8.6715H6.96341ZM6.79041 9.2995L8.35191 10.1935V8.396L6.79041 9.2995ZM4.50041 5.376L7.37041 7.036L8.35191 5.3185V3.1515L4.50041 5.376ZM12.6454 10.6165L10.8274 9.5645L8.80791 10.735V12.833L12.6454 10.6165ZM10.3714 9.3005L8.80791 8.396V10.207L10.3714 9.3V9.3005ZM7.76541 7.265L8.35191 7.604V6.2365L7.76541 7.265Z" fill="white"/>
</g>
<defs>
<clipPath id="clip0_2_3382">
<rect width="16" height="16" fill="white" transform="translate(0.566406)"/>
</clipPath>
</defs>
</svg>
