<svg width="17" height="16" viewBox="0 0 17 16" fill="none" xmlns="http://www.w3.org/2000/svg">
<g clip-path="url(#clip0_2_3385)">
<path d="M8.98242 16C13.4007 16 16.9824 12.4183 16.9824 8C16.9824 3.58172 13.4007 0 8.98242 0C4.56414 0 0.982422 3.58172 0.982422 8C0.982422 12.4183 4.56414 16 8.98242 16Z" fill="#FAA00D"/>
<path d="M13.9784 7.2355L9.24392 12.7405L9.03142 13L3.98592 7.291L4.00192 7.2845L3.98242 7.2815L5.94342 4.003L5.94442 4.004L5.94342 4H12.0704L12.0694 4.0035L13.9824 7.235L13.9784 7.2355ZM7.41042 7.465L6.32542 9.302L9.00142 12.358L11.6829 9.277L10.6219 7.4595L7.41042 7.465ZM6.02142 8.955L6.90142 7.4655L4.72042 7.469L6.02142 8.955ZM10.8829 7.032L13.3599 7.028L11.8049 4.424L9.36392 4.429L10.8829 7.032ZM13.2684 7.455L11.1319 7.4585L11.9884 8.926L13.2684 7.455ZM10.3729 7.033L9.02742 4.727L7.66242 7.037L10.3729 7.033ZM6.17342 4.436L4.62342 7.0425L7.15342 7.038L8.69342 4.431L6.17342 4.436Z" fill="white"/>
</g>
<defs>
<clipPath id="clip0_2_3385">
<rect width="16" height="16" fill="white" transform="translate(0.982422)"/>
</clipPath>
</defs>
</svg>
