<svg width="17" height="16" viewBox="0 0 17 16" fill="none" xmlns="http://www.w3.org/2000/svg">
<g clip-path="url(#clip0_2_3387)">
<path d="M8.98242 16C13.4007 16 16.9824 12.4183 16.9824 8C16.9824 3.58172 13.4007 0 8.98242 0C4.56414 0 0.982422 3.58172 0.982422 8C0.982422 12.4183 4.56414 16 8.98242 16Z" fill="#0E0E21"/>
<path d="M13.4496 9.86682L12.4996 8.25015C12.4663 8.18348 12.3829 8.16682 12.3329 8.21682L11.7163 8.61682C11.6663 8.65015 11.6496 8.73348 11.6829 8.78348L12.2329 9.70015C12.2496 9.73348 12.2329 9.76682 12.2163 9.78348L9.01627 11.8501C8.9996 11.8668 8.96627 11.8668 8.9496 11.8501L5.78294 9.78348C5.7496 9.76682 5.7496 9.73348 5.76627 9.70015L6.31627 8.78348C6.3496 8.73348 6.33294 8.65015 6.28294 8.61682L5.66627 8.21682C5.5996 8.18348 5.53294 8.20015 5.4996 8.25015L4.5496 9.86682C4.48294 9.98348 4.51627 10.1335 4.63294 10.2002L8.88294 12.9668C8.96627 13.0168 9.06627 13.0168 9.1496 12.9668L13.3996 10.2002C13.4829 10.1168 13.5163 9.96682 13.4496 9.86682Z" fill="white"/>
<path d="M6.13271 7.35L6.74937 7.75C6.81604 7.78333 6.88271 7.76666 6.91604 7.71666L8.91604 4.31667C8.93271 4.28333 8.99937 4.28333 9.01604 4.31667L11.016 7.71666C11.0494 7.78333 11.1327 7.8 11.1827 7.75L11.7994 7.35C11.8494 7.31667 11.866 7.23333 11.8327 7.18333L9.48271 3.11667C9.43271 3.03333 9.36604 3 9.26604 3H8.69937C8.61604 3 8.53271 3.05 8.48271 3.11667L6.09937 7.18333C6.06604 7.23333 6.08271 7.31667 6.13271 7.35Z" fill="#2AE7A8"/>
</g>
<defs>
<clipPath id="clip0_2_3387">
<rect width="16" height="16" fill="white" transform="translate(0.982422)"/>
</clipPath>
</defs>
</svg>
