<svg width="17" height="16" viewBox="0 0 17 16" fill="none" xmlns="http://www.w3.org/2000/svg">
<g clip-path="url(#clip0_2_3388)">
<path d="M16.6598 10.0133L8.64914 15.9363C8.54299 16.0142 8.38731 16.0212 8.28116 15.9434L0.143168 10.1902C-0.0125153 10.077 -0.0478979 9.85051 0.0794794 9.7019L8.08302 0.106148C8.19624 -0.0353826 8.40854 -0.0353826 8.52884 0.106148L16.7022 9.64529C16.7942 9.75851 16.7801 9.92835 16.6598 10.0133Z" fill="#FFF4FC"/>
<path d="M16.2271 9.81573L8.61274 15.4416L8.57028 9.70958L8.51367 0.708252L16.0502 9.60343L16.2271 9.81573Z" fill="url(#paint0_linear_2_3388)"/>
<path d="M0.453125 9.93603L8.2656 15.4416L8.08868 0.708252L0.453125 9.93603Z" fill="url(#paint1_linear_2_3388)"/>
<path d="M8.20191 9.72314L0.509737 9.87175L0.453125 9.93544L8.2656 15.441L8.20191 9.72314Z" fill="url(#paint2_linear_2_3388)"/>
<path d="M8.57031 9.70893L16.0502 9.60278L16.2271 9.81508L8.61277 15.4409L8.57031 9.70893Z" fill="url(#paint3_linear_2_3388)"/>
<path d="M14.217 11.2298C14.2807 11.1378 15.0732 9.97016 14.585 8.8733C14.2241 8.0595 13.3395 7.68444 13.205 7.62783C13.0281 7.54999 13.021 7.57122 12.1931 7.30231C11.6907 7.13248 11.4359 7.05463 11.2165 6.96972C10.8769 6.84234 10.2187 6.58758 9.46863 6.10638C9.22096 5.9507 8.90251 5.72425 8.54161 5.42704M8.56992 9.63756L16.0498 9.53141L8.56992 9.63756ZM8.20194 9.65171L0.509766 9.80032L8.20194 9.65171ZM8.16655 7.13955C6.51065 5.87286 5.81008 5.67471 5.54824 5.88701C4.82644 6.48851 7.50136 10.4018 6.43281 11.3855C6.12144 11.6685 5.47748 11.7322 4.23909 11.8525C3.85696 11.8879 3.53851 11.902 3.33329 11.902L8.16655 7.13955ZM11.0962 9.60218L8.55576 7.38015L11.0962 9.60218ZM6.87863 2.10107C6.8574 2.44782 6.87155 3.13425 7.22538 3.89143C7.50844 4.50001 7.89765 4.8963 8.14532 5.11567L6.87863 2.10107Z" stroke="#98C9C0" stroke-width="0.14153" stroke-miterlimit="10"/>
</g>
<defs>
<linearGradient id="paint0_linear_2_3388" x1="8.51247" y1="8.07525" x2="16.2288" y2="8.07525" gradientUnits="userSpaceOnUse">
<stop stop-color="#3B8270"/>
<stop offset="1" stop-color="#305C6E"/>
</linearGradient>
<linearGradient id="paint1_linear_2_3388" x1="0.456125" y1="8.07525" x2="8.26735" y2="8.07525" gradientUnits="userSpaceOnUse">
<stop stop-color="#4E7F98"/>
<stop offset="1" stop-color="#3BC0B5"/>
</linearGradient>
<linearGradient id="paint2_linear_2_3388" x1="0.456125" y1="12.5814" x2="8.26735" y2="12.5814" gradientUnits="userSpaceOnUse">
<stop stop-color="#30435C"/>
<stop offset="1" stop-color="#299AA9"/>
</linearGradient>
<linearGradient id="paint3_linear_2_3388" x1="8.57195" y1="12.5243" x2="16.2288" y2="12.5243" gradientUnits="userSpaceOnUse">
<stop stop-color="#2E2C29"/>
<stop offset="1" stop-color="#323232"/>
</linearGradient>
<clipPath id="clip0_2_3388">
<rect width="16.7643" height="16" fill="white"/>
</clipPath>
</defs>
</svg>
