<svg width="17" height="16" viewBox="0 0 17 16" fill="none" xmlns="http://www.w3.org/2000/svg">
<g clip-path="url(#clip0_2_3389)">
<path d="M8.76367 16C13.1819 16 16.7637 12.4183 16.7637 8C16.7637 3.58172 13.1819 0 8.76367 0C4.34539 0 0.763672 3.58172 0.763672 8C0.763672 12.4183 4.34539 16 8.76367 16Z" fill="#000D2B"/>
<path d="M8.72347 2.93994L6.46447 4.26344L8.72347 5.58744L11.025 4.26344L8.72347 2.93994ZM9.09497 10.0069V12.6544L12.1635 10.9039V8.25594L9.09497 10.0069ZM11.3965 5.09594V7.74394L9.09447 9.06794V6.41994L11.3965 5.09594ZM5.85547 7.74394L8.15747 9.06794V6.41994L5.85547 5.09594V7.74394ZM5.85547 11.3309L8.15747 12.6544V10.0069L5.85547 8.68344V11.3304V11.3309Z" fill="white"/>
</g>
<defs>
<clipPath id="clip0_2_3389">
<rect width="16" height="16" fill="white" transform="translate(0.763672)"/>
</clipPath>
</defs>
</svg>
