<svg width="12" height="16" viewBox="0 0 12 16" fill="none" xmlns="http://www.w3.org/2000/svg">
<g clip-path="url(#clip0_2_3390)">
<path d="M0.817005 6.4L1.56367 4.74667C1.56367 4.69333 1.56367 4.69333 1.61701 4.69333V4.74667L2.20367 5.6C2.20367 5.65333 2.20367 5.65333 2.15034 5.65333L0.870339 6.45333H0.817005C0.817005 6.45333 0.817005 6.45333 0.817005 6.4ZM3.75034 12.4267L3.21701 10.7733C3.21701 10.7733 3.21701 10.7733 3.21701 10.72H3.27034L3.80367 10.8267V12.4267V12.48C3.75034 12.48 3.75034 12.48 3.75034 12.4267ZM3.75034 10.6667L3.27034 10.6133C3.27034 10.6133 3.27034 10.56 3.21701 10.56L3.75034 9.38667C3.75034 9.33333 3.75034 9.33333 3.80367 9.33333V9.38667V10.6133V10.6667C3.80367 10.6667 3.80367 10.6667 3.75034 10.6667ZM0.817005 15.7333L2.25701 14.9867H2.31034L3.64367 15.8933V15.9467C3.64367 15.9467 3.64367 16 3.59034 16L0.870339 15.84C0.817005 15.84 0.817005 15.7867 0.817005 15.7867V15.7333ZM0.763672 15.3067V13.44C0.763672 13.44 0.763672 13.44 0.763672 13.3867H0.817005L2.09701 13.76C2.15034 13.76 2.15034 13.76 2.15034 13.8133L0.817005 15.36C0.763672 15.36 0.763672 15.36 0.763672 15.3067ZM0.763672 13.2267V13.0667L1.40367 11.6267C1.40367 11.5733 1.40367 11.5733 1.45701 11.5733V11.6267L2.15034 13.5467V13.6C2.15034 13.6 2.15034 13.6533 2.09701 13.6L0.817005 13.28C0.763672 13.2267 0.763672 13.2267 0.763672 13.2267ZM0.763672 12.5333V11.1467V11.0933H0.817005L1.29701 11.4133V11.4667L0.870339 12.5333C0.817005 12.5333 0.817005 12.5333 0.817005 12.5333C0.763672 12.5333 0.763672 12.5333 0.763672 12.5333ZM0.763672 10.88V10.6667C0.763672 10.6133 0.763672 10.6133 0.763672 10.6133L2.04367 9.6H2.09701V9.65333L1.40367 11.2533C1.40367 11.2533 1.40367 11.3067 1.35034 11.3067L0.763672 10.9333C0.763672 10.88 0.763672 10.88 0.763672 10.88ZM0.763672 10.3467V10.24L1.45701 8.53333H1.51034L2.20367 9.22667V9.28L0.817005 10.4C0.817005 10.4 0.817005 10.4 0.763672 10.4C0.763672 10.4 0.763672 10.4 0.763672 10.3467ZM0.763672 9.65333V7.36C0.763672 7.36 0.763672 7.30667 0.817005 7.30667C0.817005 7.30667 0.817005 7.30667 0.870339 7.36L1.35034 8.37333V8.42667L0.870339 9.65333C0.817005 9.70667 0.817005 9.70667 0.817005 9.70667C0.763672 9.70667 0.763672 9.65333 0.763672 9.65333ZM0.817005 6.88L2.47034 7.36L2.52367 7.41333C2.52367 7.41333 2.52367 7.41333 2.47034 7.46667L1.51034 8.26667C1.51034 8.26667 1.51034 8.26667 1.45701 8.26667V8.21333L0.763672 6.93333C0.763672 6.93333 0.763672 6.88 0.817005 6.88ZM0.763672 5.97333V4.53333H0.817005L1.45701 4.58667V4.64L0.870339 5.97333C0.817005 6.02667 0.817005 6.02667 0.817005 6.02667C0.763672 6.02667 0.763672 5.97333 0.763672 5.97333ZM0.763672 4.32V4.16C0.763672 4.16 0.763672 4.16 0.763672 4.10667L1.51034 3.2H1.56367V3.25333L1.51034 4.37333V4.42667L0.817005 4.37333C0.763672 4.37333 0.763672 4.37333 0.763672 4.32ZM0.763672 3.78667V2.88C0.763672 2.82667 0.763672 2.82667 0.763672 2.82667H0.817005L1.45701 2.93333C1.45701 2.98667 1.51034 2.98667 1.51034 2.98667C1.51034 2.98667 1.51034 3.04 1.45701 3.04L0.817005 3.84C0.763672 3.84 0.763672 3.84 0.763672 3.78667ZM0.763672 2.61333V2.29333L1.19034 1.81333L1.24367 1.76C1.24367 1.81333 1.29701 1.81333 1.29701 1.81333L1.56367 2.77333C1.56367 2.77333 1.56367 2.82667 1.51034 2.82667L0.817005 2.66667C0.763672 2.66667 0.763672 2.66667 0.763672 2.61333ZM0.763672 1.97333V0.906667C0.763672 0.906667 0.763672 0.906667 0.817005 0.853333C0.817005 0.853333 0.817005 0.906667 0.870339 0.906667L1.19034 1.54667V1.6L0.817005 1.97333V2.02667C0.763672 2.02667 0.763672 1.97333 0.763672 1.97333ZM0.763672 0.48V0H0.817005H3.00367C3.00367 0 3.05701 0 3.05701 0.0533333V0.106667L1.35034 1.44C1.35034 1.44 1.35034 1.44 1.29701 1.44L0.763672 0.48ZM3.32367 0.106667L3.59034 1.44V1.49333C3.59034 1.49333 3.59034 1.49333 3.53701 1.49333H1.61701C1.56367 1.49333 1.56367 1.49333 1.56367 1.49333C1.56367 1.44 1.56367 1.44 1.56367 1.44L3.21701 0.106667H3.27034H3.32367ZM3.48367 0H4.87034H4.92367V0.0533333L3.80367 1.33333C3.80367 1.38667 3.75034 1.38667 3.75034 1.38667L3.69701 1.33333L3.43034 0.0533333C3.43034 0 3.43034 0 3.48367 0ZM3.37701 1.70667L1.72367 2.77333C1.72367 2.82667 1.72367 2.82667 1.67034 2.77333L1.40367 1.70667V1.65333H3.32367H3.37701V1.70667ZM7.16367 0.266667L5.56367 1.17333H5.51034L5.24367 0.0533333V0H5.29701L7.11034 0.213333H7.16367V0.266667ZM8.81701 1.12L6.95034 1.44C6.95034 1.49333 6.95034 1.44 6.89701 1.44C6.89701 1.44 6.89701 1.44 6.89701 1.38667L7.43034 0.32C7.43034 0.266667 7.48367 0.266667 7.48367 0.266667C7.48367 0.266667 7.48367 0.266667 7.53701 0.266667L8.81701 1.01333V1.06667V1.12ZM9.88367 2.66667L8.76367 3.78667C8.71034 3.78667 8.71034 3.78667 8.71034 3.78667C8.65701 3.78667 8.65701 3.73333 8.65701 3.73333L9.13701 1.38667H9.19034L9.88367 2.61333V2.66667ZM10.097 4.37333L9.72367 5.6C9.72367 5.65333 9.67034 5.65333 9.67034 5.65333H9.61701L8.65701 4.16C8.60367 4.10667 8.60367 4.10667 8.65701 4.05333L9.88367 2.88C9.88367 2.82667 9.88367 2.82667 9.88367 2.82667C9.93701 2.82667 9.93701 2.88 9.93701 2.88L10.097 4.37333ZM8.55034 6.93333L8.17701 5.81333C8.17701 5.81333 8.17701 5.81333 8.17701 5.76H8.23034L9.45701 5.86667C9.51034 5.86667 9.51034 5.92 9.51034 5.92V5.97333L8.60367 6.93333C8.60367 6.93333 8.60367 6.98667 8.55034 6.93333ZM8.28367 6.88L6.68367 5.6C6.68367 5.6 6.68367 5.6 6.68367 5.54667H6.73701L8.01701 5.76L8.39034 6.82667C8.39034 6.82667 8.39034 6.88 8.33701 6.88C8.33701 6.88 8.33701 6.88 8.28367 6.88ZM8.17701 5.54667L8.55034 4.32H8.60367L9.51034 5.70667V5.76C9.51034 5.76 9.51034 5.76 9.45701 5.76L8.23034 5.65333C8.23034 5.6 8.17701 5.6 8.17701 5.6C8.17701 5.6 8.17701 5.6 8.17701 5.54667ZM8.01701 5.33333L7.37701 3.62667V3.57333H7.43034L8.44367 4.10667V4.16L8.12367 5.33333L8.07034 5.38667C8.07034 5.38667 8.01701 5.38667 8.01701 5.33333ZM8.44367 3.94667L7.32367 3.36C7.32367 3.30667 7.32367 3.30667 7.32367 3.30667L8.87034 1.49333H8.92367C8.92367 1.49333 8.97701 1.49333 8.97701 1.54667L8.49701 3.94667C8.44367 3.94667 8.44367 3.94667 8.44367 3.94667ZM6.73701 4.05333L6.57701 3.46667C6.63034 3.41333 6.63034 3.41333 6.63034 3.41333H7.00367C7.05701 3.41333 7.05701 3.41333 7.05701 3.46667V3.52L6.79034 4.05333V4.10667C6.73701 4.10667 6.73701 4.05333 6.73701 4.05333ZM7.21701 3.62667L7.96367 5.54667C7.91034 5.6 7.91034 5.6 7.91034 5.6L6.47034 5.38667L6.41701 5.33333C6.41701 5.33333 6.41701 5.33333 6.41701 5.28L6.79034 4.42667L7.16367 3.62667H7.21701ZM7.21701 3.14667L6.84367 1.65333C6.84367 1.6 6.84367 1.6 6.89701 1.6L8.81701 1.22667C8.81701 1.22667 8.87034 1.22667 8.87034 1.28V1.33333L7.27034 3.14667C7.21701 3.14667 7.21701 3.14667 7.21701 3.14667ZM7.05701 3.30667H6.63034H6.57701C6.57701 3.25333 6.57701 3.25333 6.57701 3.25333L6.73701 2.13333H6.79034H6.84367L7.11034 3.25333V3.30667H7.05701ZM5.88367 2.56L5.61701 1.44C5.61701 1.38667 5.61701 1.38667 5.67034 1.38667L6.57701 1.6V1.65333L5.93701 2.56C5.93701 2.61333 5.93701 2.61333 5.88367 2.61333V2.56ZM6.63034 1.97333L6.47034 3.14667C6.47034 3.14667 6.47034 3.2 6.41701 3.2C6.41701 3.2 6.41701 3.2 6.36367 3.2L5.99034 2.82667C5.93701 2.82667 5.93701 2.77333 5.99034 2.77333L6.52367 1.97333C6.57701 1.97333 6.57701 1.92 6.57701 1.97333H6.63034ZM6.68367 1.49333L5.77701 1.28C5.77701 1.22667 5.77701 1.22667 5.77701 1.22667L7.16367 0.373333C7.16367 0.373333 7.21701 0.373333 7.21701 0.426667V0.48L6.73701 1.49333H6.68367ZM5.13701 0.16L5.40367 1.22667C5.40367 1.22667 5.35034 1.22667 5.35034 1.28L4.01701 1.44C3.96367 1.44 3.96367 1.44 3.96367 1.44V1.38667L5.03034 0.106667H5.08367C5.08367 0.106667 5.08367 0.106667 5.13701 0.16ZM3.80367 2.50667L2.09701 2.77333C2.09701 2.77333 2.09701 2.77333 2.04367 2.77333C2.04367 2.72 2.04367 2.72 2.09701 2.72L3.59034 1.70667H3.64367C3.64367 1.70667 3.64367 1.76 3.69701 1.76L3.80367 2.45333V2.50667ZM3.91034 1.81333L4.76367 2.45333H4.81701C4.81701 2.50667 4.76367 2.50667 4.76367 2.50667H4.01701C3.96367 2.50667 3.96367 2.50667 3.96367 2.45333L3.80367 1.86667C3.80367 1.81333 3.85701 1.81333 3.85701 1.81333C3.85701 1.81333 3.85701 1.81333 3.91034 1.81333ZM3.85701 3.09333V5.54667H3.80367H3.75034L3.21701 4.26667H3.27034L3.75034 3.09333C3.75034 3.09333 3.80367 3.04 3.80367 3.09333H3.85701ZM5.24367 2.50667L5.45701 1.70667H5.51034L5.77701 2.66667C5.77701 2.66667 5.77701 2.66667 5.72367 2.66667V2.72L5.24367 2.56C5.24367 2.56 5.19034 2.50667 5.24367 2.50667ZM3.96367 1.6L5.35034 1.38667C5.40367 1.44 5.40367 1.44 5.40367 1.44L5.08367 2.4V2.45333C5.03034 2.45333 5.03034 2.45333 5.03034 2.45333L3.96367 1.70667C3.96367 1.65333 3.91034 1.65333 3.91034 1.65333C3.96367 1.6 3.96367 1.6 3.96367 1.6ZM6.36367 5.49333L7.96367 6.77333V6.82667C7.96367 6.88 7.96367 6.88 7.91034 6.88L5.67034 6.08C5.67034 6.02667 5.67034 6.02667 5.67034 6.02667L6.25701 5.49333H6.36367ZM5.45701 6.18667L5.77701 7.30667C5.77701 7.30667 5.77701 7.36 5.72367 7.36C5.72367 7.36 5.72367 7.36 5.67034 7.36L4.17701 6.24C4.17701 6.18667 4.17701 6.18667 4.17701 6.18667C4.17701 6.13333 4.23034 6.13333 4.23034 6.13333H5.40367C5.40367 6.13333 5.45701 6.13333 5.45701 6.18667ZM5.67034 6.18667L8.07034 7.04C8.12367 7.09333 8.12367 7.09333 8.12367 7.09333C8.12367 7.14667 8.12367 7.14667 8.07034 7.14667L5.99034 7.52C5.93701 7.52 5.93701 7.46667 5.93701 7.46667L5.61701 6.24C5.61701 6.18667 5.67034 6.18667 5.67034 6.18667ZM8.49701 7.25333L8.76367 8.42667C8.76367 8.42667 8.76367 8.48 8.71034 8.48L6.31034 7.68L6.25701 7.62667C6.25701 7.57333 6.31034 7.57333 6.31034 7.57333L8.44367 7.2L8.49701 7.25333ZM9.72367 7.78667L8.97701 8.42667C8.92367 8.42667 8.92367 8.42667 8.92367 8.42667C8.87034 8.42667 8.87034 8.42667 8.87034 8.37333L8.65701 7.36C8.65701 7.30667 8.65701 7.30667 8.65701 7.30667H8.71034L9.72367 7.68C9.77701 7.73333 9.77701 7.73333 9.77701 7.73333C9.77701 7.73333 9.77701 7.78667 9.72367 7.78667ZM10.737 8.90667L9.08367 8.58667C9.08367 8.53333 9.08367 8.53333 9.08367 8.53333V8.48L9.88367 7.84H9.93701L10.737 8.85333C10.7903 8.85333 10.7903 8.85333 10.7903 8.90667C10.737 8.90667 10.737 8.90667 10.737 8.90667ZM11.4303 10.72L10.6303 10.9867H10.577V10.9333L10.9503 9.44L11.0037 9.38667L11.057 9.44L11.4303 10.6667V10.72ZM11.1637 12.8533L10.257 12.7467C10.257 12.7467 10.257 12.6933 10.2037 12.6933C10.2037 12.6933 10.2037 12.6933 10.257 12.64L11.3237 11.1467H11.377C11.4303 11.1467 11.4303 11.1467 11.4303 11.2L11.217 12.8533C11.1637 12.8533 11.1637 12.8533 11.1637 12.8533ZM10.2037 14.24L10.1503 12.9067V12.8533H10.2037L11.1103 13.0133V13.0667L10.3103 14.24C10.257 14.24 10.257 14.2933 10.257 14.2933C10.2037 14.24 10.2037 14.24 10.2037 14.24ZM8.33701 15.4133L8.23034 13.92V13.8667H8.28367L9.93701 14.5067V14.56V14.6133L8.39034 15.4133H8.33701ZM6.73701 15.7867L5.35034 14.88C5.29701 14.88 5.29701 14.88 5.29701 14.8267H5.35034L7.85701 15.52V15.5733L6.79034 15.7867C6.79034 15.7867 6.79034 15.7867 6.73701 15.7867ZM4.07034 15.8933L4.71034 14.72V14.6667H4.76367L6.41701 15.7333C6.47034 15.7333 6.47034 15.7867 6.47034 15.7867C6.47034 15.84 6.41701 15.84 6.41701 15.84L4.12367 16C4.07034 16 4.07034 16 4.07034 15.9467C4.07034 15.9467 4.07034 15.9467 4.07034 15.8933ZM5.51034 7.46667L2.95034 7.30667C2.89701 7.30667 2.89701 7.30667 2.89701 7.30667C2.89701 7.25333 2.89701 7.25333 2.89701 7.25333L3.85701 6.18667H3.96367L5.56367 7.41333V7.46667H5.51034ZM2.73701 7.14667L2.41701 5.86667C2.41701 5.81333 2.41701 5.81333 2.41701 5.81333C2.41701 5.81333 2.47034 5.76 2.47034 5.81333L3.69701 6.08C3.75034 6.08 3.75034 6.13333 3.75034 6.13333C3.75034 6.13333 3.75034 6.13333 3.75034 6.18667L2.79034 7.14667C2.79034 7.2 2.79034 7.2 2.73701 7.2V7.14667ZM3.75034 8.74667L2.52367 9.17333C2.47034 9.17333 2.47034 9.17333 2.47034 9.12L2.73701 7.62667C2.73701 7.57333 2.73701 7.57333 2.73701 7.57333H2.79034L3.75034 8.69333V8.74667ZM2.95034 7.46667L5.56367 7.62667C5.56367 7.62667 5.61701 7.62667 5.61701 7.68C5.61701 7.68 5.61701 7.68 5.56367 7.68L3.96367 8.69333C3.91034 8.69333 3.91034 8.69333 3.91034 8.69333L2.89701 7.52V7.46667H2.95034ZM5.88367 7.73333L6.20367 8.64V8.69333C6.15034 8.69333 6.15034 8.74667 6.15034 8.74667H4.33701C4.28367 8.74667 4.28367 8.69333 4.28367 8.69333V8.64L5.83034 7.73333C5.83034 7.68 5.83034 7.68 5.88367 7.68V7.73333ZM6.09701 7.73333L8.28367 8.48C8.33701 8.48 8.33701 8.48 8.33701 8.53333C8.33701 8.53333 8.33701 8.53333 8.28367 8.53333L6.36367 8.69333L6.04367 7.78667C6.04367 7.73333 6.04367 7.73333 6.04367 7.73333C6.04367 7.73333 6.04367 7.73333 6.09701 7.73333ZM8.55034 8.74667L7.53701 9.54667H7.48367L6.57701 8.90667V8.85333H6.63034L8.49701 8.69333H8.55034V8.74667ZM7.75034 9.81333L9.83034 10.88V10.9333C9.83034 10.9333 9.83034 10.9333 9.77701 10.9333L8.12367 10.72C8.12367 10.72 8.07034 10.72 8.07034 10.6667L7.69701 9.86667C7.69701 9.86667 7.69701 9.86667 7.69701 9.81333H7.75034ZM8.17701 10.9867L9.72367 12.5333V12.5867H9.67034L7.91034 12.16C7.91034 12.16 7.85701 12.16 7.85701 12.1067L8.12367 10.9867C8.12367 10.9867 8.12367 10.9867 8.12367 10.9333C8.12367 10.9333 8.17701 10.9333 8.17701 10.9867ZM7.75034 12.3733L8.01701 13.5467C8.07034 13.5467 8.01701 13.5467 8.01701 13.6C8.01701 13.6 8.01701 13.6 7.96367 13.6L6.89701 12.96C6.89701 12.9067 6.89701 12.9067 6.89701 12.9067L7.69701 12.3733H7.75034ZM6.73701 13.0133L7.53701 13.4933C7.59034 13.4933 7.59034 13.5467 7.59034 13.5467C7.53701 13.5467 7.53701 13.6 7.53701 13.5467L5.88367 13.28C5.88367 13.2267 5.88367 13.2267 5.88367 13.2267L6.68367 13.0133H6.73701ZM5.19034 13.3867L4.71034 14.3467C4.65701 14.3467 4.65701 14.3467 4.65701 14.3467L4.07034 13.3333C4.07034 13.28 4.07034 13.28 4.07034 13.28C4.07034 13.2267 4.07034 13.2267 4.12367 13.2267L5.13701 13.3333H5.19034V13.3867ZM8.87034 8.74667L10.2037 10.8267V10.88C10.1503 10.88 10.1503 10.88 10.1503 10.88L7.69701 9.65333C7.69701 9.65333 7.69701 9.65333 7.64367 9.6H7.69701L8.81701 8.69333C8.81701 8.69333 8.87034 8.69333 8.87034 8.74667ZM9.08367 8.69333L10.897 9.06667V9.12L10.4703 10.88C10.4703 10.88 10.4703 10.88 10.417 10.88L9.03034 8.74667C9.03034 8.74667 9.03034 8.74667 9.03034 8.69333H9.08367ZM10.3637 11.2L10.0437 12.5333C10.0437 12.5867 10.0437 12.5867 9.99034 12.5867L8.33701 10.9333C8.33701 10.9333 8.33701 10.9333 8.33701 10.88H8.39034L10.3103 11.1467C10.3637 11.1467 10.3637 11.2 10.3637 11.2ZM11.2703 10.9867L10.3103 12.32C10.3103 12.32 10.3103 12.32 10.257 12.32C10.257 12.32 10.257 12.32 10.257 12.2667L10.5237 11.2C10.5237 11.2 10.5237 11.2 10.5237 11.1467L11.2703 10.9333C11.3237 10.9867 11.3237 10.9867 11.2703 10.9867ZM7.96367 12.32L9.77701 12.7467C9.83034 12.8 9.83034 12.8 9.83034 12.8C9.83034 12.8 9.83034 12.8533 9.77701 12.8533L8.28367 13.6533C8.23034 13.6533 8.23034 13.6533 8.23034 13.6533L8.17701 13.6L7.91034 12.3733V12.32H7.96367ZM9.99034 12.96L10.097 14.4V14.4533C10.0437 14.4533 10.0437 14.4533 10.0437 14.4533L8.44367 13.76C8.39034 13.76 8.39034 13.76 8.39034 13.76C8.39034 13.7067 8.39034 13.7067 8.44367 13.7067L9.93701 12.9067H9.99034V12.96ZM7.64367 13.8133L4.92367 14.4533C4.87034 14.4533 4.87034 14.4533 4.87034 14.4533V14.4L5.35034 13.3867C5.35034 13.3333 5.40367 13.3333 5.40367 13.3333L7.64367 13.7067V13.76V13.8133ZM0.870339 6.66667L2.20367 5.81333H2.25701V5.86667L2.57701 7.2V7.25333C2.57701 7.25333 2.57701 7.25333 2.52367 7.25333L0.870339 6.72H0.817005C0.817005 6.66667 0.817005 6.66667 0.870339 6.66667ZM2.25701 9.06667L1.56367 8.42667V8.37333L2.52367 7.57333H2.57701V7.62667L2.31034 9.06667C2.25701 9.06667 2.25701 9.06667 2.25701 9.06667ZM3.75034 8.96L3.16367 10.4L3.11034 10.4533C3.11034 10.4533 3.11034 10.4533 3.05701 10.4L2.47034 9.33333C2.47034 9.28 2.47034 9.28 2.52367 9.28L3.69701 8.90667H3.75034V8.96ZM2.41701 9.49333L3.00367 10.56V10.6133L1.56367 11.36C1.56367 11.36 1.56367 11.36 1.51034 11.36C1.51034 11.36 1.51034 11.36 1.51034 11.3067L2.31034 9.49333C2.31034 9.49333 2.36367 9.49333 2.36367 9.44L2.41701 9.49333ZM2.41701 13.5467L3.11034 10.9867H3.16367L3.80367 13.0667C3.80367 13.12 3.80367 13.12 3.75034 13.12L2.47034 13.6C2.47034 13.6 2.47034 13.6 2.41701 13.6V13.5467ZM3.59034 13.44L2.47034 14.6667C2.41701 14.6667 2.41701 14.6667 2.41701 14.6667C2.36367 14.6667 2.36367 14.6133 2.36367 14.6133V13.8133C2.36367 13.8133 2.36367 13.8133 2.41701 13.76L3.53701 13.3867C3.59034 13.3333 3.59034 13.3867 3.59034 13.3867C3.64367 13.3867 3.64367 13.44 3.59034 13.44ZM4.60367 14.6133L4.07034 15.6267C4.07034 15.6267 4.01701 15.68 4.01701 15.6267C3.96367 15.6267 3.96367 15.6267 3.96367 15.6267V13.5467C3.96367 13.5467 3.96367 13.4933 4.01701 13.4933V13.5467L4.60367 14.56V14.6133ZM3.75034 15.84L2.47034 14.9333C2.41701 14.9333 2.41701 14.88 2.41701 14.88L3.75034 13.44H3.80367V13.4933L3.85701 15.7867C3.85701 15.84 3.85701 15.84 3.80367 15.84C3.80367 15.84 3.80367 15.84 3.75034 15.84ZM2.25701 14.0267V14.8267C2.25701 14.88 2.25701 14.88 2.20367 14.88L0.923672 15.52C0.923672 15.5733 0.923672 15.52 0.870339 15.52V15.4667L2.15034 14.0267C2.15034 13.9733 2.20367 13.9733 2.20367 13.9733L2.25701 14.0267ZM8.12367 15.4667L5.08367 14.6133C5.08367 14.6133 5.08367 14.6133 5.08367 14.56L8.07034 13.8667H8.12367L8.17701 15.4133V15.4667C8.17701 15.4667 8.17701 15.4667 8.12367 15.4667ZM1.61701 11.52L2.95034 10.8267H3.00367V10.88L2.31034 13.3867V13.44C2.25701 13.44 2.25701 13.3867 2.25701 13.3867L1.61701 11.5733C1.56367 11.52 1.61701 11.52 1.61701 11.52ZM3.75034 2.72L3.16367 4.10667C3.11034 4.10667 3.11034 4.10667 3.11034 4.10667L1.88367 3.04V2.98667V2.93333L3.69701 2.66667H3.75034V2.72ZM1.99034 4.10667L1.72367 4.32C1.67034 4.32 1.67034 4.26667 1.67034 4.26667L1.72367 3.52C1.72367 3.46667 1.72367 3.46667 1.72367 3.46667C1.77701 3.46667 1.77701 3.46667 1.77701 3.52L1.99034 4.05333V4.10667ZM1.93701 3.25333L2.84367 4.10667V4.16C2.84367 4.16 2.84367 4.16 2.79034 4.16L2.15034 4.05333L1.88367 3.30667C1.83034 3.30667 1.88367 3.25333 1.88367 3.25333H1.93701ZM3.00367 4.37333L2.41701 5.38667H2.36367H2.31034L2.15034 4.26667V4.21333H2.20367L3.00367 4.32V4.37333C3.05701 4.37333 3.05701 4.37333 3.00367 4.37333ZM3.69701 5.97333L2.47034 5.65333C2.41701 5.6 2.41701 5.6 2.47034 5.6L3.11034 4.48H3.16367H3.21701L3.75034 5.92C3.75034 5.97333 3.75034 5.97333 3.69701 5.97333ZM2.09701 5.17333L1.67034 4.58667C1.67034 4.53333 1.67034 4.53333 1.72367 4.53333L1.99034 4.26667C2.04367 4.26667 2.04367 4.32 2.04367 4.32L2.15034 5.17333V5.22667C2.09701 5.22667 2.09701 5.22667 2.09701 5.17333Z" fill="url(#paint0_linear_2_3390)"/>
</g>
<defs>
<linearGradient id="paint0_linear_2_3390" x1="6.14516" y1="15.872" x2="5.87849" y2="-0.0746497" gradientUnits="userSpaceOnUse">
<stop stop-color="#11A1BC"/>
<stop offset="1" stop-color="#5FCEB4"/>
</linearGradient>
<clipPath id="clip0_2_3390">
<rect width="10.6667" height="16" fill="white" transform="translate(0.763672)"/>
</clipPath>
</defs>
</svg>
