<svg width="17" height="16" viewBox="0 0 17 16" fill="none" xmlns="http://www.w3.org/2000/svg">
<g clip-path="url(#clip0_2_3395)">
<path d="M8.41602 16C12.8343 16 16.416 12.4183 16.416 8C16.416 3.58172 12.8343 0 8.41602 0C3.99774 0 0.416016 3.58172 0.416016 8C0.416016 12.4183 3.99774 16 8.41602 16Z" fill="black"/>
<path d="M8.88652 12.2885C8.91252 12.3495 8.92652 12.416 8.92652 12.486C8.92652 12.77 8.69252 13 8.40402 13C8.11552 13 7.88152 12.77 7.88152 12.486C7.88152 12.418 7.89502 12.353 7.91952 12.2935L4.81452 10.53C4.76547 10.5799 4.70694 10.6195 4.64237 10.6465C4.5778 10.6734 4.50849 10.6872 4.43852 10.687C4.15002 10.687 3.91602 10.457 3.91602 10.173C3.91602 9.93301 4.08252 9.73201 4.30802 9.67501V6.16151C4.19659 6.13392 4.09755 6.06998 4.02655 5.97978C3.95555 5.88958 3.91666 5.77829 3.91602 5.66351C3.91602 5.37951 4.15002 5.14951 4.43852 5.14951C4.61152 5.14951 4.76502 5.23251 4.86052 5.36051L7.89652 3.63551C7.88643 3.5958 7.88139 3.55498 7.88152 3.51401C7.88152 3.23001 8.11602 3.00001 8.40402 3.00001C8.48202 2.9996 8.55911 3.0168 8.62954 3.05032C8.69997 3.08385 8.76193 3.13283 8.81081 3.19362C8.85968 3.25442 8.89421 3.32545 8.91182 3.40144C8.92943 3.47743 8.92967 3.55641 8.91252 3.63251L11.9665 5.36751C12.0615 5.23551 12.217 5.14951 12.3935 5.14951C12.682 5.14951 12.916 5.37951 12.916 5.66351C12.916 5.90351 12.7485 6.10551 12.5225 6.16201L12.5135 9.67201C12.744 9.72551 12.916 9.92951 12.916 10.173C12.916 10.457 12.682 10.687 12.3935 10.687C12.3206 10.6872 12.2484 10.6721 12.1816 10.6429C12.1148 10.6136 12.0548 10.5707 12.0055 10.517L8.88652 12.2885ZM8.74702 12.0985L11.8905 10.3125C11.8611 10.2104 11.8646 10.1016 11.9005 10.0015L8.86802 8.05151C8.80989 8.11297 8.73981 8.16188 8.66208 8.19525C8.58434 8.22861 8.50061 8.24571 8.41602 8.24551C8.32174 8.24574 8.22864 8.22447 8.14382 8.18332C8.059 8.14216 7.98468 8.08221 7.92652 8.00801L4.93802 10.0215C4.96934 10.1219 4.96864 10.2295 4.93602 10.3295L8.05702 12.102C8.15304 12.0179 8.27639 11.9717 8.40402 11.972C8.53552 11.972 8.65552 12.0195 8.74702 12.098V12.0985ZM8.80652 3.84201C8.73541 3.92593 8.63974 3.98539 8.53302 4.01201L8.52502 7.04001C8.66656 7.06399 8.79512 7.13708 8.88811 7.24645C8.98111 7.35581 9.03259 7.49445 9.03352 7.63801C9.03352 7.71351 9.01952 7.78651 8.99352 7.85301L12.0285 9.80501C12.096 9.74001 12.181 9.69351 12.276 9.67201L12.285 6.16651C12.1558 6.14017 12.0416 6.06542 11.9658 5.95759C11.8899 5.84975 11.8581 5.71699 11.877 5.58651L8.80652 3.84201ZM8.00402 3.84451L4.95352 5.57701C4.97518 5.70904 4.94475 5.84434 4.86865 5.95439C4.79254 6.06444 4.6767 6.14066 4.54552 6.16701V9.66951C4.65152 9.69151 4.74552 9.74451 4.81752 9.81951L7.82002 7.79701C7.79888 7.71678 7.79433 7.63309 7.80665 7.55105C7.81896 7.469 7.84789 7.39034 7.89165 7.31985C7.9354 7.24937 7.99308 7.18856 8.06115 7.14113C8.12921 7.0937 8.20624 7.06065 8.28752 7.04401L8.29552 4.01701C8.18192 3.9934 8.07938 3.93272 8.00402 3.84451Z" fill="white"/>
</g>
<defs>
<clipPath id="clip0_2_3395">
<rect width="16" height="16" fill="white" transform="translate(0.416016)"/>
</clipPath>
</defs>
</svg>
