<svg width="17" height="16" viewBox="0 0 17 16" fill="none" xmlns="http://www.w3.org/2000/svg">
<g clip-path="url(#clip0_2_3396)">
<path d="M5.05018 7.22213L7.97472 4.29758L10.9007 7.22339L12.6023 5.52174L7.97472 0.894287L3.34865 5.52036L5.05024 7.222L5.05018 7.22213ZM0.445312 8.4237L2.14702 6.72175L3.84861 8.42334L2.1469 10.125L0.445312 8.4237ZM5.05018 9.62545L7.97472 12.5498L10.9006 9.62407L12.6031 11.3248L12.6023 11.3257L7.97472 15.9531L3.34865 11.327L3.34624 11.3246L5.05036 9.62527L5.05018 9.62545ZM12.1008 8.42442L13.8025 6.72271L15.5041 8.4243L13.8025 10.126L12.1008 8.42442Z" fill="#F3BA2F"/>
<path d="M9.69962 8.42248H9.70034L7.97373 6.6958L6.6975 7.97162L6.55089 8.11829L6.2485 8.42073L6.24609 8.42308L6.2485 8.42555L7.97373 10.151L9.70047 8.42428L9.70131 8.42332L9.69974 8.42248" fill="#F3BA2F"/>
</g>
<defs>
<clipPath id="clip0_2_3396">
<rect width="16" height="16" fill="white" transform="translate(0.416016)"/>
</clipPath>
</defs>
</svg>
