<svg width="17" height="16" viewBox="0 0 17 16" fill="none" xmlns="http://www.w3.org/2000/svg">
<g clip-path="url(#clip0_2_3399)">
<path d="M15.2225 10.2595C14.2169 14.2932 10.1314 16.748 6.09731 15.7421C2.06487 14.7365 -0.389929 10.6508 0.61612 6.61747C1.62129 2.58338 5.70672 0.12839 9.7396 1.134C13.7734 2.1396 16.2281 6.22574 15.2224 10.2596L15.2225 10.2595H15.2225Z" fill="#F7931A"/>
<path d="M11.2515 7.3594C11.4013 6.3574 10.6385 5.81878 9.59533 5.45948L9.93374 4.10218L9.10751 3.8963L8.77808 5.21786C8.56087 5.16369 8.33781 5.11264 8.11611 5.06204L8.44792 3.73176L7.62221 3.52588L7.28362 4.88273C7.10387 4.84181 6.92733 4.80136 6.75605 4.75874L6.75701 4.75448L5.61762 4.46995L5.39783 5.35242C5.39783 5.35242 6.01082 5.49293 5.99791 5.50158C6.33248 5.58508 6.39299 5.80657 6.38294 5.98212L5.99746 7.5284C6.0205 7.53425 6.05039 7.54271 6.08336 7.55596C6.0558 7.54912 6.02646 7.54165 5.99603 7.53436L5.45572 9.70048C5.41483 9.80213 5.31105 9.95468 5.07713 9.89675C5.08541 9.90875 4.47661 9.74689 4.47661 9.74689L4.06641 10.6927L5.14161 10.9607C5.34163 11.0108 5.53765 11.0633 5.73068 11.1127L5.38878 12.4855L6.21405 12.6914L6.55264 11.3331C6.77809 11.3943 6.99689 11.4508 7.21108 11.504L6.87363 12.8559L7.6999 13.0618L8.04176 11.6915C9.45066 11.9581 10.51 11.8506 10.9559 10.5763C11.3152 9.55028 10.9381 8.95849 10.1968 8.57257C10.7367 8.44807 11.1433 8.09299 11.2518 7.35951L11.2515 7.35932L11.2515 7.3594ZM9.36373 10.0065C9.10839 11.0325 7.38093 10.4779 6.82086 10.3388L7.27457 8.51998C7.8346 8.6598 9.63059 8.93648 9.36377 10.0065H9.36373ZM9.61925 7.34453C9.38633 8.27778 7.94854 7.80365 7.48214 7.68739L7.89348 6.03784C8.35989 6.1541 9.8619 6.37109 9.61933 7.34453H9.61925Z" fill="white"/>
</g>
<defs>
<clipPath id="clip0_2_3399">
<rect width="16" height="16" fill="white" transform="translate(0.367188)"/>
</clipPath>
</defs>
</svg>
