<svg width="17" height="16" viewBox="0 0 17 16" fill="none" xmlns="http://www.w3.org/2000/svg">
<g clip-path="url(#clip0_2_3403)">
<path d="M8.05859 16C12.4769 16 16.0586 12.4183 16.0586 8C16.0586 3.58172 12.4769 0 8.05859 0C3.64032 0 0.0585938 3.58172 0.0585938 8C0.0585938 12.4183 3.64032 16 8.05859 16Z" fill="#F7931A"/>
<path d="M13.0475 9.87704L12.775 10.9685L12.0475 10.7875L12.3195 9.69554L11.228 9.42354L11.4095 8.69604L12.501 8.96804L12.7735 7.87654L13.501 8.05804L13.229 9.14954L14.3205 9.42154L14.139 10.1495L13.0475 9.87704ZM10.364 6.88004C10.2625 7.55504 9.8945 7.88304 9.408 8.00004C10.0735 8.35154 10.4105 8.89354 10.082 9.83854C9.674 11.012 8.719 11.116 7.451 10.8785L7.136 12.1395L6.393 11.9545L6.7035 10.7095C6.50561 10.6606 6.30826 10.6094 6.1115 10.556L5.7995 11.806L5.0575 11.621L5.3725 10.357C5.1985 10.3125 5.0225 10.2655 4.8425 10.2205L3.875 9.97904L4.249 9.10804C4.249 9.10804 4.7965 9.25354 4.789 9.24304C5 9.29454 5.094 9.15404 5.1315 9.06054L5.6285 7.06654L5.7075 7.08604C5.68226 7.07596 5.65637 7.06761 5.63 7.06104L5.985 5.63754C5.995 5.47604 5.9415 5.27304 5.64 5.19754C5.652 5.19004 5.1005 5.06354 5.1005 5.06354L5.303 4.25154L6.328 4.50754L6.327 4.51104C6.481 4.54954 6.64 4.58604 6.802 4.62254L7.1135 3.37354L7.8565 3.55854L7.551 4.78354C7.7505 4.82854 7.951 4.87454 8.146 4.92354L8.4495 3.70704L9.193 3.89204L8.8815 5.14154C9.8195 5.46654 10.504 5.95804 10.364 6.88004ZM8.6505 9.32254C8.896 8.33754 7.2795 8.09254 6.7755 7.96654L6.359 9.64004C6.863 9.76504 8.4165 10.2665 8.6515 9.32204L8.6505 9.32254ZM8.894 6.87454C9.117 5.97804 7.765 5.78604 7.3455 5.68154L6.967 7.20004C7.3865 7.30504 8.6795 7.73354 8.894 6.87454Z" fill="white"/>
</g>
<defs>
<clipPath id="clip0_2_3403">
<rect width="16" height="16" fill="white" transform="translate(0.0585938)"/>
</clipPath>
</defs>
</svg>
