<svg width="17" height="16" viewBox="0 0 17 16" fill="none" xmlns="http://www.w3.org/2000/svg">
<g clip-path="url(#clip0_2_3402)">
<path d="M7.63481 0H8.46841C9.33801 0.0576 10.2028 0.2312 11.0108 0.5576C13.0108 1.344 14.6612 2.9752 15.4668 4.9688C16.5756 7.6232 16.0996 10.8608 14.2484 13.0696C12.9956 14.6072 11.1532 15.6544 9.18681 15.9208C7.34121 16.184 5.40441 15.7864 3.82521 14.7888C2.60761 14.0304 1.59961 12.9392 0.946809 11.6608C0.109209 10.0552 -0.145191 8.1576 0.222809 6.3864C0.616409 4.4232 1.78841 2.632 3.42281 1.4776C4.64681 0.592 6.13081 0.0936 7.63481 0ZM7.13881 0.3624C4.70521 0.6416 2.46841 2.1744 1.30841 4.3296C0.523609 5.7624 0.210009 7.452 0.446809 9.0704C0.714809 11.0192 1.77481 12.8424 3.32681 14.0488C4.50841 14.9808 5.97001 15.5528 7.47081 15.6648C9.17081 15.8 10.9116 15.3464 12.3228 14.3888C14.0532 13.2432 15.2812 11.3696 15.634 9.324C15.8372 8.1184 15.7684 6.8624 15.3956 5.6968C14.8636 4.0016 13.7236 2.5032 12.2276 1.5432C10.7404 0.5672 8.90441 0.144 7.13881 0.3624Z" fill="black"/>
<path d="M7.33059 3.51286C8.72179 3.28006 10.2138 3.73606 11.2146 4.73446C12.1026 5.57286 12.621 6.79126 12.5954 8.01286C12.613 9.22806 12.0922 10.4369 11.2082 11.2681C10.2458 12.2249 8.83059 12.6817 7.48899 12.5049C6.22499 12.3529 5.04179 11.6345 4.32339 10.5825C3.52819 9.45606 3.30899 7.95686 3.72179 6.64406C4.20499 5.02806 5.66419 3.76486 7.33059 3.51286ZM7.60819 3.78966C7.60899 4.18726 7.60979 4.58486 7.60899 4.98246C7.80739 4.98246 8.00579 4.98246 8.20419 4.98326C8.20499 4.57526 8.20579 4.16726 8.20419 3.76006C8.00579 3.76646 7.80659 3.77606 7.60819 3.78966ZM9.03939 5.00166C9.56179 5.07206 10.1234 5.15206 10.5402 5.50486C11.1762 6.07606 11.0938 7.27526 10.3154 7.68966C10.7818 7.79846 11.2434 8.10966 11.3586 8.59926C11.5082 9.24166 11.389 10.0129 10.873 10.4657C10.3618 10.8865 9.66979 10.9417 9.03779 11.0017C9.04099 11.3737 9.03939 11.7457 9.03859 12.1185C10.369 11.7929 11.517 10.8025 12.005 9.52086C12.4682 8.33846 12.3586 6.94726 11.705 5.85846C11.1274 4.87606 10.145 4.15446 9.04179 3.87766C9.03859 4.25206 9.03859 4.62646 9.03939 5.00166ZM5.06899 4.98566C5.64499 5.01366 6.22179 5.00726 6.79859 5.00646C6.79859 4.65526 6.79939 4.30486 6.79699 3.95366C6.15139 4.16326 5.57619 4.53926 5.06899 4.98566ZM5.00019 5.03206C4.84739 5.22006 4.56419 5.57526 4.39619 5.88966C3.71859 7.04406 3.64179 8.52566 4.20739 9.74006C4.69539 10.8289 5.66339 11.6761 6.79699 12.0409C6.79859 11.6905 6.79779 11.3401 6.79779 10.9905C6.21939 10.9849 5.63939 11.0057 5.06179 10.9745C5.06819 10.6521 5.14419 10.3369 5.25379 10.0329C5.53699 10.0273 5.83219 10.0769 6.10579 9.98406C6.26579 9.84966 6.22019 9.62726 6.22899 9.44326C6.22019 8.39126 6.23299 7.33926 6.22339 6.28806C6.23379 6.11846 6.12739 5.93526 5.95139 5.90166C5.66099 5.84326 5.36179 5.86646 5.06819 5.86406C5.03379 5.62726 5.02979 5.38806 5.02659 5.14886C5.02659 5.14886 5.03059 5.07366 5.00499 5.02486L5.00019 5.03206ZM7.63299 5.93606V7.48646C8.15059 7.47686 8.72499 7.53446 9.17779 7.23366C9.55379 6.98726 9.52979 6.36406 9.14179 6.14246C8.68819 5.87446 8.13539 5.95046 7.63299 5.93606ZM7.63299 8.32086V10.0409C8.27219 9.98966 8.98899 10.0969 9.54499 9.71126C9.94259 9.44726 9.89459 8.79366 9.48499 8.56486C8.92819 8.23206 8.25139 8.33766 7.63299 8.32086ZM7.60979 11.0137C7.60979 11.4113 7.60899 11.8097 7.60819 12.2073C7.81539 12.2209 8.02179 12.2289 8.22899 12.2353C8.23059 11.8281 8.22979 11.4209 8.22979 11.0137H7.60979Z" fill="black"/>
<path d="M7.18499 0.777707C8.58659 0.627307 10.0378 0.840907 11.297 1.48731C12.917 2.28171 14.2122 3.70971 14.8506 5.39691C15.5018 7.08651 15.4874 9.01931 14.813 10.7009C13.7874 13.3513 11.0794 15.2569 8.22819 15.2609C6.55379 15.3217 4.86899 14.7585 3.55779 13.7169C2.15939 12.6297 1.19219 11.0049 0.893792 9.25851C0.588992 7.52891 0.930592 5.69131 1.85539 4.19611C2.98579 2.32091 5.01059 1.02491 7.18499 0.777707ZM6.94099 3.12491C5.80179 3.38171 4.76019 4.05451 4.06179 4.99131C3.29059 6.00571 2.93699 7.32491 3.09459 8.58811C3.24259 9.94011 3.98099 11.2153 5.07939 12.0161C6.10739 12.7889 7.44339 13.1281 8.71539 12.9537C10.2874 12.7617 11.733 11.7609 12.4666 10.3569C13.0162 9.35531 13.1666 8.16491 12.965 7.04731C12.7082 5.69211 11.8618 4.46091 10.6842 3.74251C9.58179 3.05611 8.20579 2.83611 6.94099 3.12491Z" fill="black"/>
</g>
<defs>
<clipPath id="clip0_2_3402">
<rect width="15.9992" height="16" fill="white" transform="translate(0.0585938)"/>
</clipPath>
</defs>
</svg>
