<svg width="17" height="16" viewBox="0 0 17 16" fill="none" xmlns="http://www.w3.org/2000/svg">
<g clip-path="url(#clip0_2_3398)">
<path d="M8.36719 16C12.7855 16 16.3672 12.4183 16.3672 8C16.3672 3.58172 12.7855 0 8.36719 0C3.94891 0 0.367188 3.58172 0.367188 8C0.367188 12.4183 3.94891 16 8.36719 16Z" fill="#00AAFF"/>
<path d="M8.34889 2.46997C5.30489 2.46997 2.83789 4.93697 2.83789 7.98097C2.83789 11.0245 5.30489 13.4925 8.34889 13.4925C11.3924 13.4925 13.8604 11.0245 13.8604 7.98097C13.8604 4.93697 11.3924 2.46997 8.34889 2.46997ZM8.36639 3.34297C8.80737 3.34283 9.24186 3.44919 9.63291 3.653C10.024 3.85682 10.36 4.15205 10.6125 4.5136C10.865 4.87515 11.0264 5.29233 11.083 5.72966C11.1397 6.16698 11.0899 6.61152 10.9379 7.02547C10.7011 6.98389 10.4584 6.99045 10.2242 7.04474C9.99005 7.09903 9.76921 7.19995 9.57489 7.34147C9.74487 7.17893 9.8801 6.98359 9.97241 6.76727C10.0647 6.55095 10.1122 6.31816 10.1119 6.08297C10.1118 5.61967 9.92776 5.17537 9.6003 4.84762C9.27284 4.51988 8.82869 4.3355 8.36539 4.33497C7.93299 4.33532 7.51606 4.49597 7.19523 4.78587C6.8744 5.07576 6.67243 5.47431 6.62839 5.90447C6.29993 5.84579 5.96397 5.84241 5.63439 5.89447C5.68189 5.20223 5.99035 4.55381 6.49746 4.08021C7.00456 3.6066 7.67252 3.34312 8.36639 3.34297ZM9.37389 8.48897L8.40489 7.90897C8.3733 7.88992 8.33706 7.87998 8.30018 7.88025C8.26329 7.88051 8.2272 7.89097 8.19589 7.91047L7.34589 8.43547C7.31265 8.45574 7.28605 8.48528 7.26935 8.52045C7.25266 8.55562 7.24659 8.5949 7.25189 8.63347C7.27424 8.79513 7.26241 8.95968 7.21716 9.11648C7.17191 9.27328 7.09424 9.41884 6.98919 9.54373C6.88414 9.66862 6.75404 9.77007 6.60731 9.84151C6.46058 9.91295 6.30049 9.9528 6.13739 9.95847C5.98169 9.96337 5.8266 9.93689 5.68134 9.88062C5.53608 9.82435 5.40362 9.73944 5.29185 9.63093C5.18008 9.52243 5.09127 9.39254 5.03072 9.24902C4.97017 9.10549 4.93911 8.95125 4.93939 8.79547C4.94114 8.49119 5.06157 8.19961 5.27504 7.98278C5.48852 7.76595 5.77818 7.64098 6.08239 7.63447C6.24945 7.63164 6.41516 7.66493 6.56816 7.73207C6.72116 7.79921 6.85786 7.89861 6.96889 8.02347C7.03089 8.09347 7.13389 8.10847 7.21489 8.06347L8.03389 7.60397C8.06499 7.58637 8.09088 7.56087 8.10897 7.53006C8.12705 7.49924 8.13669 7.4642 8.13689 7.42847V7.37847C8.13663 7.33622 8.12312 7.29512 8.09828 7.26095C8.07343 7.22677 8.0385 7.20125 7.99839 7.18797C7.73203 7.09913 7.5068 6.91693 7.36428 6.67499C7.22177 6.43306 7.1716 6.14774 7.22302 5.8717C7.27445 5.59566 7.42401 5.34755 7.64409 5.17317C7.86417 4.99879 8.1399 4.90992 8.42039 4.92297C8.70362 4.93758 8.97183 5.05488 9.17484 5.25292C9.37786 5.45097 9.50176 5.71619 9.52339 5.99897C9.5435 6.27 9.46789 6.53949 9.30974 6.7605C9.15158 6.98152 8.92091 7.14004 8.65789 7.20847C8.6142 7.21924 8.57535 7.24426 8.54747 7.27957C8.51958 7.31489 8.50425 7.35848 8.50389 7.40347V7.41197C8.50389 7.48197 8.54089 7.54647 8.59989 7.58347L9.46039 8.11247C9.50178 8.1382 9.55115 8.14792 9.59921 8.13982C9.64727 8.13172 9.69072 8.10635 9.72139 8.06847C9.83325 7.92889 9.97581 7.81702 10.138 7.74157C10.3002 7.66612 10.4776 7.62912 10.6564 7.63347C10.9647 7.64534 11.2557 7.7792 11.4653 8.0056C11.6749 8.232 11.786 8.53241 11.7741 8.84072C11.7623 9.14903 11.6284 9.44001 11.402 9.64962C11.1756 9.85924 10.8752 9.97034 10.5669 9.95847C10.4099 9.9499 10.2562 9.90965 10.1151 9.84014C9.97401 9.77063 9.84845 9.67329 9.74597 9.55399C9.64348 9.4347 9.56619 9.2959 9.51875 9.14595C9.4713 8.996 9.45468 8.83801 9.46989 8.68147C9.47389 8.64357 9.46698 8.60532 9.44997 8.57121C9.43297 8.53711 9.40657 8.50858 9.37389 8.48897ZM6.10039 11.5055C5.74432 11.5056 5.39171 11.4356 5.0627 11.2994C4.7337 11.1632 4.43476 10.9635 4.18295 10.7118C3.93115 10.46 3.73142 10.1611 3.59517 9.83212C3.45892 9.50314 3.38882 9.15054 3.38889 8.79447C3.38863 8.39434 3.47697 7.99911 3.64756 7.63716C3.81814 7.27521 4.06675 6.95552 4.37553 6.70104C4.68432 6.44656 5.04561 6.2636 5.43348 6.16529C5.82135 6.06699 6.22617 6.05578 6.61889 6.13247C6.63188 6.59086 6.82479 7.0257 7.15589 7.34297C6.84998 7.11944 6.48076 6.99928 6.10189 6.99997C5.63108 7.00783 5.18221 7.20037 4.85204 7.5361C4.52187 7.87183 4.33685 8.32385 4.33685 8.79472C4.33685 9.2656 4.52187 9.71761 4.85204 10.0533C5.18221 10.3891 5.63108 10.5816 6.10189 10.5895C6.46064 10.5894 6.81113 10.4817 7.10797 10.2802C7.40482 10.0788 7.63436 9.79285 7.76689 9.45947C7.85239 9.83247 8.01039 10.177 8.22339 10.481C7.96982 10.801 7.6471 11.0594 7.27943 11.2369C6.91176 11.4144 6.50867 11.5064 6.10039 11.506V11.5055ZM10.6284 11.5055C9.94118 11.5054 9.27961 11.2445 8.77739 10.7754C8.27518 10.3063 7.96977 9.66408 7.92289 8.97847C8.22811 9.02494 8.53875 9.02308 8.84339 8.97297C8.87574 9.29748 8.99589 9.60705 9.19093 9.86843C9.38597 10.1298 9.64853 10.3331 9.95041 10.4565C10.2523 10.5799 10.5821 10.6187 10.9044 10.5687C11.2266 10.5188 11.5292 10.382 11.7796 10.1731C12.03 9.96412 12.2187 9.6909 12.3255 9.38277C12.4324 9.07463 12.4532 8.74322 12.3858 8.42413C12.3185 8.10504 12.1654 7.81033 11.9432 7.57166C11.7209 7.33299 11.4379 7.15938 11.1244 7.06947C11.2285 6.77905 11.2855 6.47388 11.2934 6.16547C11.9333 6.32856 12.4918 6.71956 12.864 7.26511C13.2362 7.81066 13.3965 8.47327 13.3149 9.12862C13.2333 9.78396 12.9153 10.387 12.4207 10.8246C11.9261 11.2622 11.2888 11.5043 10.6284 11.5055Z" fill="white"/>
<path d="M8.36719 1.5C4.77769 1.5 1.86719 4.4105 1.86719 8C1.86719 11.5895 4.77769 14.5 8.36719 14.5C11.9567 14.5 14.8672 11.5895 14.8672 8C14.8672 4.4105 11.9567 1.5 8.36719 1.5ZM8.34819 14.011C5.01819 14.011 2.31919 11.312 2.31919 7.982C2.31919 4.652 5.01819 1.9535 8.34819 1.9535C11.6777 1.9535 14.3767 4.6525 14.3767 7.982C14.3767 11.312 11.6777 14.011 8.34819 14.011Z" fill="white"/>
</g>
<defs>
<clipPath id="clip0_2_3398">
<rect width="16" height="16" fill="white" transform="translate(0.367188)"/>
</clipPath>
</defs>
</svg>
