<svg width="20" height="16" viewBox="0 0 20 16" fill="none" xmlns="http://www.w3.org/2000/svg">
<g clip-path="url(#clip0_2_3401)">
<path d="M16.1936 1.53345L13.2713 0H6.06701L3.28943 1.56239L0.367188 5.41049L9.71258 16.0289L19.058 5.41049L16.1936 1.53345ZM18.1032 5.23689L14.4576 7.08861L13.2713 3.47197L15.9621 2.16998L18.1032 5.23689ZM6.29847 0.578662H13.0399L15.3256 1.76492L13.0109 2.86438H6.26954L4.24422 1.79385L6.29847 0.578662ZM3.49196 2.16998L5.86448 3.47197L5.02542 7.08861L1.17731 5.15009L3.49196 2.16998ZM1.92957 6.24955L4.90968 7.783L8.55525 14.0615L1.92957 6.24955ZM9.68364 14.8427L5.54621 7.66727L6.55887 3.47197H12.7216L13.8211 7.55154L9.68364 14.8427ZM10.7252 14.0325L14.4287 7.81193L17.5245 6.24955L10.7252 14.0325Z" fill="black"/>
<path d="M12.3452 8.33274C12.1877 7.93213 11.8893 7.60286 11.5061 7.40689C11.6229 7.36668 11.7298 7.30201 11.8196 7.21719C11.9094 7.13236 11.9801 7.02935 12.0269 6.91502C12.0848 6.74142 12.0848 6.59676 12.0558 6.42316C12.0558 6.42316 12.0269 6.16276 11.9401 5.9313C11.7665 5.55517 11.1878 5.20797 10.3777 5.12117V4.19531H9.6544V5.12117H9.10467V4.19531H8.35241V5.12117H7.16615V5.72877C7.29589 5.74403 7.42051 5.78838 7.53073 5.85852C7.64094 5.92866 7.7339 6.02276 7.80268 6.13383C7.91841 6.30743 7.91841 6.45209 7.94734 6.53889L8.00521 8.85354C8.00521 9.14287 7.88948 9.40327 7.65801 9.54793C7.36868 9.72153 7.07935 9.63473 7.02148 9.63473V10.3002H8.32347V11.2839H9.10467V10.4159H9.6544L9.68333 11.2839H10.4067V10.3291H11.101C11.3656 10.3317 11.6258 10.2616 11.8533 10.1266C12.403 9.75047 12.5766 8.94034 12.3452 8.33274ZM9.16253 6.04703H10.0884C10.4356 6.04703 10.7249 6.30743 10.7249 6.65463C10.7249 7.00182 10.4645 7.29115 10.1173 7.29115H9.16253V6.04703ZM10.3199 9.46113H9.2204V8.10128H10.3199C10.6671 8.13021 10.9564 8.41954 10.9853 8.73781C11.0143 9.11394 10.7249 9.4322 10.3199 9.46113Z" fill="#FCC339"/>
</g>
<defs>
<clipPath id="clip0_2_3401">
<rect width="18.6908" height="16" fill="white" transform="translate(0.367188)"/>
</clipPath>
</defs>
</svg>
