<svg width="17" height="16" viewBox="0 0 17 16" fill="none" xmlns="http://www.w3.org/2000/svg">
<g clip-path="url(#clip0_2_3411)">
<path d="M8.94531 16C13.3636 16 16.9453 12.4183 16.9453 8C16.9453 3.58172 13.3636 0 8.94531 0C4.52703 0 0.945312 3.58172 0.945312 8C0.945312 12.4183 4.52703 16 8.94531 16Z" fill="black"/>
<path d="M14.8168 6.76951C14.7377 6.38541 14.6208 6.01008 14.4678 5.64901C14.317 5.29337 14.1324 4.95298 13.9168 4.63251C13.7029 4.3159 13.4589 4.0207 13.1883 3.75101C12.9184 3.48033 12.623 3.23636 12.3063 3.02251C11.9853 2.8079 11.6452 2.62345 11.2903 2.47151C10.5562 2.16019 9.76707 1.99976 8.96975 1.99976C8.17244 1.99976 7.38328 2.16019 6.64925 2.47151C5.93948 2.77089 5.29481 3.20565 4.75125 3.75151C4.48062 4.02104 4.23666 4.31608 4.02275 4.63251C3.80812 4.95362 3.62366 5.2939 3.47175 5.64901C3.16044 6.38303 3 7.1722 3 7.96951C3 8.76683 3.16044 9.55599 3.47175 10.29C3.61875 10.645 3.80875 10.9815 4.02275 11.306C4.23665 11.6228 4.48061 11.9181 4.75125 12.188C5.0211 12.4587 5.31647 12.7027 5.63325 12.9165C5.95125 13.1305 6.29425 13.3145 6.64925 13.4675C7.38328 13.7788 8.17244 13.9393 8.96975 13.9393C9.76707 13.9393 10.5562 13.7788 11.2903 13.4675C11.6453 13.3205 11.9818 13.1305 12.3063 12.9165C12.623 12.7027 12.9184 12.4587 13.1883 12.188C13.4589 11.9182 13.7029 11.6228 13.9168 11.306C14.1308 10.988 14.3148 10.645 14.4678 10.29C14.9388 9.17915 15.0605 7.95123 14.8168 6.76951ZM8.97525 13.192C6.09175 13.192 3.75925 10.853 3.75925 7.97551C3.75925 5.09801 6.09825 2.75901 8.97525 2.75901C11.8528 2.75901 14.1918 5.09801 14.1918 7.97551C14.1918 10.853 11.8533 13.192 8.97525 13.192Z" fill="white"/>
<path d="M9.06753 12.7389H9.20853C9.23303 12.7389 9.25703 12.7389 9.28153 12.7324H9.28803C9.31253 12.7324 9.33053 12.7324 9.35503 12.7264H9.37353C9.39203 12.7264 9.41053 12.7264 9.42853 12.7204H9.44703C9.46553 12.7204 9.48403 12.7144 9.50853 12.7144H9.52053C9.54503 12.7144 9.56953 12.7079 9.59403 12.7079C9.61853 12.7079 9.63703 12.7019 9.66153 12.6959H9.67353C9.69203 12.6959 9.71053 12.6899 9.72853 12.6899H9.74103C9.76553 12.6834 9.78403 12.6834 9.80853 12.6774C9.85703 12.6714 9.90603 12.6589 9.94903 12.6469H9.96153C9.97953 12.6409 10.004 12.6409 10.0225 12.6344H10.0285C10.0775 12.6224 10.1205 12.6099 10.1695 12.5979C9.71094 12.6124 9.25235 12.5693 8.80453 12.4694C8.13053 12.3224 7.48803 12.0594 6.94303 11.6059C6.51338 11.2483 6.16856 10.7997 5.93353 10.2926C5.69849 9.78542 5.57912 9.23236 5.58403 8.6734C5.58844 7.83951 5.88516 7.03357 6.42253 6.3959C7.12053 5.5694 8.11253 5.1344 9.12853 5.1099H9.26953V4.2959H9.11053C8.80144 4.30156 8.49372 4.33841 8.19203 4.4059C7.88844 4.47455 7.59297 4.57511 7.31053 4.7059C7.02253 4.8409 6.75303 5.0059 6.50203 5.1959C6.24266 5.39306 6.00648 5.61901 5.79803 5.8694C5.60176 6.10114 5.43142 6.35364 5.29003 6.6224C5.15016 6.88149 5.03723 7.15425 4.95303 7.4364C4.87044 7.71418 4.81517 7.99937 4.78803 8.2879L4.76953 8.5569V8.7159C4.77553 9.0284 4.81253 9.3344 4.87953 9.6344C4.94703 9.9409 5.05103 10.2344 5.17953 10.5164C5.33303 10.8529 5.60853 11.3489 6.01853 11.7224C6.85568 12.3823 7.89103 12.7405 8.95703 12.7389H9.06753Z" fill="white"/>
<path d="M10.4017 11.9551C10.0997 11.9443 9.79894 11.9116 9.50172 11.8571C8.24072 11.6306 7.15672 10.8591 6.75922 9.69612C6.27522 8.28162 7.01622 6.75112 8.42422 6.28612C8.69254 6.1962 8.97373 6.15061 9.25672 6.15112C9.61822 6.15112 9.97922 6.22462 10.3102 6.35912L10.6527 5.63062C10.5497 5.58933 10.4457 5.55065 10.3407 5.51462C9.98993 5.40453 9.62437 5.34871 9.25672 5.34912C8.88837 5.34981 8.52253 5.40975 8.17322 5.52662C7.7274 5.67367 7.3168 5.91131 6.96722 6.22462C6.79862 6.37481 6.64491 6.54091 6.50822 6.72062C6.37309 6.89828 6.25617 7.08907 6.15922 7.29012C5.96179 7.69433 5.84528 8.13322 5.81622 8.58212C5.78572 9.04712 5.84672 9.51212 5.99972 9.95312C6.15561 10.4068 6.40615 10.8221 6.73472 11.1716C7.03472 11.4961 7.38372 11.7411 7.80572 11.9676C8.24672 12.2001 8.79172 12.3226 9.36072 12.4026C9.72822 12.4511 10.2182 12.4636 10.5057 12.4636C10.7567 12.3716 10.8607 12.3286 10.9957 12.2736C11.1122 12.2186 11.2282 12.1636 11.3447 12.0961C11.4612 12.0286 11.4797 12.0161 11.6752 11.8881C11.6926 11.8773 11.709 11.8649 11.7242 11.8511C11.0507 11.9676 10.8792 11.9611 10.4017 11.9551Z" fill="white"/>
<path d="M11.9079 11.043C11.7179 11.055 11.4484 11.073 11.1424 11.073C10.5974 11.073 9.92989 11.0245 9.36089 10.8345C8.47889 10.541 7.64639 9.78799 7.64639 8.85699C7.64619 8.63665 7.68945 8.41842 7.77368 8.21481C7.85791 8.0112 7.98147 7.82619 8.13728 7.67038C8.29309 7.51457 8.47809 7.39102 8.68171 7.30678C8.88532 7.22255 9.10354 7.1793 9.32389 7.17949C9.95439 7.17949 10.4994 7.52849 10.7874 8.03649L11.5159 7.67549C11.4017 7.46044 11.2549 7.2643 11.0809 7.09399C10.8503 6.86297 10.5764 6.6797 10.2748 6.55465C9.9733 6.4296 9.65007 6.36523 9.32364 6.36523C8.99721 6.36523 8.67398 6.4296 8.37246 6.55465C8.07093 6.6797 7.79701 6.86297 7.56639 7.09399C7.33545 7.32461 7.15224 7.59849 7.02723 7.89997C6.90223 8.20145 6.83789 8.52462 6.83789 8.85099C6.83952 9.19304 6.91276 9.53096 7.05289 9.84299C7.18089 10.1245 7.35889 10.388 7.58539 10.633C7.98339 11.061 8.52789 11.404 9.10989 11.6C9.66689 11.7835 10.4874 11.851 11.2834 11.796C11.5034 11.7775 11.6689 11.759 11.9504 11.698C12.222 11.4836 12.4686 11.2392 12.6854 10.9695C12.4954 10.988 12.1464 11.0245 11.9079 11.043Z" fill="white"/>
</g>
<defs>
<clipPath id="clip0_2_3411">
<rect width="16" height="16" fill="white" transform="translate(0.945312)"/>
</clipPath>
</defs>
</svg>
