<svg width="17" height="16" viewBox="0 0 17 16" fill="none" xmlns="http://www.w3.org/2000/svg">
<g clip-path="url(#clip0_2_3419)">
<path fill-rule="evenodd" clip-rule="evenodd" d="M8.10352 16C10.2252 16 12.2601 15.1571 13.7604 13.6569C15.2607 12.1566 16.1035 10.1217 16.1035 8C16.1035 5.87827 15.2607 3.84344 13.7604 2.34315C12.2601 0.842855 10.2252 0 8.10352 0V0.973333C9.9671 0.973333 11.7544 1.71364 13.0721 3.0314C14.3899 4.34915 15.1302 6.13641 15.1302 8C15.1302 9.86359 14.3899 11.6508 13.0721 12.9686C11.7544 14.2864 9.9671 15.0267 8.10352 15.0267V16Z" fill="#FFBC00"/>
<g opacity="0.3">
<g opacity="0.3">
<path opacity="0.3" fill-rule="evenodd" clip-rule="evenodd" d="M1.07685 8H0.103516C0.103516 10.1217 0.94637 12.1566 2.44666 13.6569C3.94695 15.1571 5.98178 16 8.10352 16V15.0267C6.24029 15.0255 4.45371 14.2848 3.13621 12.9673C1.81871 11.6498 1.07803 9.86323 1.07685 8Z" fill="#FFBC00"/>
</g>
</g>
<path fill-rule="evenodd" clip-rule="evenodd" d="M2.95771 8C2.95771 9.36498 3.49994 10.6741 4.46513 11.6392C5.43032 12.6044 6.73939 13.1467 8.10437 13.1467C9.46936 13.1467 10.7784 12.6044 11.7436 11.6392C12.7088 10.6741 13.251 9.36498 13.251 8H14.2244C14.2244 9.62312 13.5796 11.1798 12.4319 12.3275C11.2841 13.4752 9.7275 14.12 8.10437 14.12C6.48125 14.12 4.9246 13.4752 3.77688 12.3275C2.62916 11.1798 1.98438 9.62312 1.98438 8H2.95771Z" fill="#FFBC00"/>
<path opacity="0.3" fill-rule="evenodd" clip-rule="evenodd" d="M8.10438 2.85346V1.88013C6.48197 1.88248 4.92669 2.52802 3.77948 3.67523C2.63227 4.82244 1.98673 6.37772 1.98438 8.00013H2.95771C2.95889 6.63551 3.5015 5.32712 4.46643 4.36218C5.43136 3.39725 6.73976 2.85464 8.10438 2.85346Z" fill="#FFBC00"/>
<path fill-rule="evenodd" clip-rule="evenodd" d="M8.10382 4.72895C7.23627 4.72895 6.40425 5.07358 5.79079 5.68703C5.17734 6.30049 4.83271 7.13251 4.83271 8.00006C4.83271 8.86761 5.17734 9.69963 5.79079 10.3131C6.40425 10.9265 7.23627 11.2712 8.10382 11.2712V12.2445C6.97812 12.2445 5.89853 11.7973 5.10254 11.0013C4.30656 10.2053 3.85938 9.12576 3.85938 8.00006C3.85938 6.87436 4.30656 5.79477 5.10254 4.99878C5.89853 4.2028 6.97812 3.75562 8.10382 3.75562" fill="#FFBC00"/>
<path opacity="0.3" fill-rule="evenodd" clip-rule="evenodd" d="M8.10352 3.75562V4.72895C8.97071 4.73012 9.80204 5.07514 10.4152 5.68833C11.0284 6.30153 11.3735 7.13287 11.3746 8.00006H12.348C12.3456 6.87508 11.8977 5.79686 11.1022 5.00138C10.3067 4.2059 9.22849 3.75796 8.10352 3.75562Z" fill="#FFBC00"/>
<path fill-rule="evenodd" clip-rule="evenodd" d="M8.10352 5.6355C8.73061 5.6355 9.33201 5.88461 9.77543 6.32803C10.2189 6.77145 10.468 7.37285 10.468 7.99994C10.468 8.62703 10.2189 9.22844 9.77543 9.67186C9.33201 10.1153 8.73061 10.3644 8.10352 10.3644V9.39105C8.47246 9.39105 8.8263 9.24449 9.08718 8.98361C9.34806 8.72272 9.49463 8.36889 9.49463 7.99994C9.49463 7.631 9.34806 7.27716 9.08718 7.01628C8.8263 6.75539 8.47246 6.60883 8.10352 6.60883" fill="#FFBC00"/>
<path opacity="0.3" fill-rule="evenodd" clip-rule="evenodd" d="M8.10273 5.6355C7.476 5.63667 6.87527 5.88616 6.43211 6.32933C5.98894 6.77249 5.73946 7.37321 5.73828 7.99994H6.71161C6.71161 7.81726 6.7476 7.63636 6.81751 7.46759C6.88742 7.29881 6.98988 7.14545 7.11906 7.01628C7.24824 6.8871 7.40159 6.78463 7.57037 6.71472C7.73915 6.64481 7.92004 6.60883 8.10273 6.60883V5.6355Z" fill="#FFBC00"/>
<path fill-rule="evenodd" clip-rule="evenodd" d="M11.0864 11.009L10.3975 10.3201C10.1195 10.5951 9.79434 10.8179 9.4375 10.9778L9.84639 11.8667C10.3017 11.6555 10.7167 11.3668 11.0731 11.0134" fill="#FFBC00"/>
<path fill-rule="evenodd" clip-rule="evenodd" d="M4.7344 0.742188C3.87574 1.13667 3.09455 1.68154 2.42773 2.35108L3.0944 3.06219C3.68435 2.46301 4.37868 1.97652 5.14329 1.62663L4.7344 0.742188Z" fill="#FFBC00"/>
<path fill-rule="evenodd" clip-rule="evenodd" d="M13.6404 5.44453C13.3407 4.78246 12.9236 4.18014 12.4093 3.66675L11.707 4.35564C12.1464 4.78565 12.502 5.29352 12.7559 5.85341L13.6404 5.44453Z" fill="#FFBC00"/>
</g>
<defs>
<clipPath id="clip0_2_3419">
<rect width="16" height="16" fill="white" transform="translate(0.103516)"/>
</clipPath>
</defs>
</svg>
