<svg width="17" height="16" viewBox="0 0 17 16" fill="none" xmlns="http://www.w3.org/2000/svg">
<g clip-path="url(#clip0_2_3417)">
<path d="M8.10352 16C12.5218 16 16.1035 12.4183 16.1035 8C16.1035 3.58172 12.5218 0 8.10352 0C3.68524 0 0.103516 3.58172 0.103516 8C0.103516 12.4183 3.68524 16 8.10352 16Z" fill="#0F63D8"/>
<path d="M13.0455 10.3684C12.9974 10.4675 12.9445 10.5643 12.887 10.6584C12.8485 10.7274 12.8115 10.7964 12.771 10.8619C12.7525 10.8924 12.7375 10.9239 12.719 10.9534H12.713C12.3248 11.5702 11.8168 12.1029 11.2191 12.5199C10.6213 12.9369 9.946 13.2297 9.23307 13.381C8.52014 13.5324 7.78409 13.5391 7.0685 13.4009C6.35291 13.2627 5.67232 12.9823 5.06702 12.5764C5.04202 12.5594 5.02052 12.5409 4.99602 12.5244C4.9014 12.4632 4.80979 12.3974 4.72152 12.3274C4.58186 12.221 4.44832 12.1068 4.32152 11.9854C4.26088 11.9293 4.20169 11.8716 4.14402 11.8124C4.08202 11.7489 4.02802 11.6874 3.96502 11.6159C3.90168 11.5447 3.84 11.472 3.78002 11.3979C3.7331 11.338 3.68759 11.2769 3.64352 11.2149C3.58217 11.1307 3.52315 11.0448 3.46652 10.9574C3.43002 10.9004 3.39602 10.8424 3.36152 10.7834C3.30502 10.6893 3.25183 10.5932 3.20202 10.4954C3.17252 10.4374 3.14502 10.3784 3.11752 10.3194C3.0714 10.2199 3.02755 10.1194 2.98602 10.0179C2.96102 9.95489 2.93852 9.89089 2.91602 9.82689C2.88152 9.72689 2.84752 9.62239 2.81802 9.52439C2.79802 9.45339 2.78552 9.38589 2.76352 9.31289C2.7385 9.21522 2.71632 9.11685 2.69702 9.01789C2.68702 8.94289 2.67052 8.86389 2.66352 8.79289C2.64893 8.69487 2.63676 8.59651 2.62702 8.49789C2.62002 8.42039 2.61152 8.34289 2.61152 8.26489C2.60352 8.16689 2.60352 8.06839 2.60352 7.96989C2.60352 7.89489 2.60952 7.81989 2.60952 7.74439C2.61747 7.57041 2.63349 7.39689 2.65752 7.22439C2.70677 6.87272 2.78982 6.52662 2.90552 6.19089C2.94802 6.06789 2.99552 5.94589 3.04802 5.82439C3.05952 5.79689 3.07302 5.76339 3.08002 5.74089C3.08811 5.71611 3.1018 5.69353 3.12002 5.67489C3.17152 5.56389 3.22852 5.45389 3.28852 5.34489C3.31702 5.28389 3.35152 5.22389 3.38702 5.16489C3.41202 5.12189 3.42902 5.08139 3.46202 5.03439C3.49402 4.98689 3.53152 4.93789 3.56502 4.88889C3.60789 4.82161 3.65343 4.75605 3.70152 4.69239C3.76452 4.60739 3.83002 4.52489 3.89802 4.44439C4.01711 4.30358 4.1431 4.16875 4.27552 4.04039C4.32452 3.99439 4.37302 3.94789 4.42302 3.90389C4.55784 3.78822 4.69642 3.677 4.83852 3.57039C4.93252 3.50539 5.02852 3.43939 5.12552 3.37389C5.17721 3.33994 5.22973 3.30727 5.28302 3.27589C5.38152 3.21889 5.47952 3.16389 5.57802 3.11239C5.80038 2.99724 6.03062 2.89799 6.26702 2.81539C6.5135 2.72724 6.76619 2.65755 7.02302 2.60689C7.19118 2.57406 7.36067 2.54837 7.53102 2.52989C7.64202 2.51789 7.75402 2.50989 7.86702 2.50489C7.92802 2.49989 7.99002 2.49989 8.05202 2.49989C8.22976 2.49774 8.40749 2.50475 8.58452 2.52089C8.87251 2.54578 9.15797 2.59427 9.43802 2.66589C9.50952 2.68489 9.58152 2.70489 9.65302 2.72589C9.75802 2.75589 9.85652 2.78839 9.95502 2.82439C10.0285 2.85089 10.1025 2.87939 10.175 2.90989C10.23 2.93289 10.286 2.95039 10.341 2.97489V2.98289C11.0092 3.27545 11.6117 3.6992 12.113 4.22902C12.6143 4.75884 13.0041 5.38393 13.2593 6.06722C13.5144 6.75051 13.6298 7.47808 13.5985 8.20679C13.5672 8.9355 13.3898 9.6505 13.077 10.3094C13.067 10.3304 13.055 10.3479 13.0455 10.3684ZM6.01752 12.6184V12.6174C7.14026 13.1204 8.40754 13.1983 9.58343 12.8365C10.7593 12.4748 11.7637 11.698 12.4095 10.6509C12.4455 10.5909 12.4795 10.5289 12.5135 10.4679C12.5605 10.3779 12.6135 10.2909 12.659 10.1929C12.9613 9.57124 13.1326 8.89408 13.1623 8.20345C13.1919 7.51283 13.0792 6.82348 12.8313 6.17822C12.5834 5.53295 12.2054 4.94554 11.7209 4.45246C11.2365 3.95938 10.6558 3.57116 10.015 3.31189C9.95023 3.28428 9.8847 3.25844 9.81852 3.23439C9.66109 3.17852 9.50126 3.12964 9.33952 3.08789C9.07799 3.02106 8.81143 2.97574 8.54252 2.95239L8.37452 2.94039C8.26602 2.93539 8.15852 2.93289 8.05102 2.93289H7.88202C7.77752 2.93739 7.67402 2.94489 7.57052 2.95539C7.50802 2.96239 7.44602 2.97039 7.38452 2.97889C7.21806 3.00142 7.05297 3.03313 6.89002 3.07389C6.72584 3.11339 6.56393 3.1618 6.40502 3.21889C6.33452 3.24289 6.26652 3.26889 6.20102 3.29539C6.05508 3.35504 5.91163 3.4206 5.77102 3.49189C5.62828 3.56581 5.48881 3.64588 5.35302 3.73189C5.26145 3.78881 5.17253 3.84988 5.08652 3.91489C5.04152 3.94539 4.99652 3.97839 4.95252 4.01289C4.82134 4.11664 4.69519 4.2266 4.57452 4.34239C4.50102 4.41639 4.42902 4.49139 4.35802 4.56739C4.24627 4.68986 4.14032 4.8175 4.04052 4.94989C3.93679 5.08941 3.83968 5.23374 3.74952 5.38239C3.71702 5.43639 3.68752 5.49039 3.65702 5.54439C3.59702 5.64539 3.54802 5.74789 3.49902 5.85439C3.40601 6.05515 3.32618 6.26176 3.26002 6.47289C3.20486 6.635 3.16026 6.80051 3.12652 6.96839C3.10502 7.07339 3.08702 7.17989 3.07252 7.28589C3.06452 7.34689 3.05552 7.40889 3.05002 7.46989C3.04002 7.56839 3.02902 7.66639 3.02902 7.76489C3.02302 7.83189 3.02302 7.89989 3.02302 7.96739C3.02302 8.06089 3.03102 8.15389 3.03102 8.24739C3.03966 8.40974 3.05601 8.57159 3.08002 8.73239C3.09302 8.79989 3.10402 8.86389 3.11652 8.93639C3.13452 9.02889 3.15602 9.12139 3.17852 9.21389C3.19452 9.27639 3.21002 9.33939 3.22852 9.40339C3.25602 9.49839 3.28752 9.59189 3.32102 9.68539C3.34152 9.74239 3.36102 9.80039 3.38402 9.85739C3.42152 9.95189 3.46252 10.0434 3.50102 10.1404C3.52652 10.1944 3.55102 10.2489 3.57852 10.3019C3.62752 10.3914 3.67502 10.4799 3.72602 10.5669C3.75952 10.6214 3.79102 10.6744 3.82452 10.7274C3.87552 10.8079 3.93152 10.8864 3.98752 10.9654C4.02902 11.0224 4.05902 11.0694 4.11352 11.1344C4.16752 11.1994 4.22852 11.2699 4.28152 11.3309C4.33452 11.3919 4.39352 11.4579 4.44652 11.5129C4.49952 11.5679 4.54102 11.6069 4.60952 11.6719C4.72565 11.7841 4.84819 11.8894 4.97652 11.9874C5.29689 12.2388 5.64641 12.4507 6.01752 12.6184ZM8.09352 12.2059C7.26101 12.2065 6.44703 11.9602 5.75451 11.4981C5.06199 11.0361 4.52205 10.3791 4.20296 9.61015C3.88387 8.84122 3.79998 7.99494 3.96188 7.17833C4.12378 6.36172 4.52422 5.61147 5.11254 5.02245C5.70086 4.43343 6.45064 4.0321 7.26705 3.86923C8.08347 3.70636 8.92985 3.78925 9.69915 4.10742C10.4685 4.4256 11.1261 4.96476 11.589 5.65673C12.0519 6.3487 12.2991 7.16239 12.2995 7.99489C12.2987 9.11061 11.8555 10.1805 11.067 10.9699C10.2786 11.7593 9.20923 12.2038 8.09352 12.2059ZM8.09352 5.16689C7.53356 5.1662 6.98599 5.33164 6.52009 5.64227C6.0542 5.9529 5.69093 6.39476 5.47625 6.91193C5.26158 7.4291 5.20515 7.99833 5.31411 8.54758C5.42308 9.09683 5.69253 9.60142 6.08837 9.99747C6.48422 10.3935 6.98866 10.6632 7.53785 10.7725C8.08704 10.8818 8.6563 10.8256 9.17359 10.6112C9.69087 10.3968 10.1329 10.0338 10.4438 9.56806C10.7547 9.10233 10.9204 8.55484 10.92 7.99489C10.9192 7.24518 10.6213 6.52634 10.0915 5.99589C9.56169 5.46543 8.84323 5.16661 8.09352 5.16489V5.16689Z" fill="white"/>
</g>
<defs>
<clipPath id="clip0_2_3417">
<rect width="16" height="16" fill="white" transform="translate(0.103516)"/>
</clipPath>
</defs>
</svg>
