<svg width="17" height="16" viewBox="0 0 17 16" fill="none" xmlns="http://www.w3.org/2000/svg">
<g clip-path="url(#clip0_2_3418)">
<path fill-rule="evenodd" clip-rule="evenodd" d="M8.10352 0C12.5211 0 16.1035 3.5824 16.1035 8C16.1035 12.4176 12.5211 16 8.10352 16C3.68592 16 0.103516 12.4176 0.103516 8C0.103516 3.5824 3.68592 0 8.10352 0Z" fill="#211F6D"/>
<path fill-rule="evenodd" clip-rule="evenodd" d="M5.36805 4.14404H10.696C11.4032 4.14404 11.976 4.71684 11.976 5.42404V10.752C11.976 11.3712 11.4752 11.872 10.856 11.872H5.36805C4.74885 11.872 4.24805 11.3712 4.24805 10.752V5.26404C4.24805 4.64484 4.74885 4.14404 5.36805 4.14404Z" fill="white"/>
<path d="M6.28519 7.3729C5.79719 7.3729 5.40039 6.9761 5.40039 6.4865C5.40039 5.9969 5.79719 5.6001 6.28519 5.6001C6.77319 5.6001 7.16999 5.9969 7.16999 6.4865C7.16999 6.9761 6.77319 7.3729 6.28519 7.3729Z" fill="#211F6D"/>
<path d="M9.92386 7.3729C9.43586 7.3729 9.03906 6.9761 9.03906 6.4865C9.03906 5.9969 9.43586 5.6001 9.92386 5.6001C10.4119 5.6001 10.8087 5.9969 10.8087 6.4865C10.8087 6.9761 10.4119 7.3729 9.92386 7.3729Z" fill="#211F6D"/>
<path d="M6.28519 10.4C5.79719 10.4 5.40039 10.0032 5.40039 9.5136C5.40039 9.024 5.79719 8.6272 6.28519 8.6272C6.77319 8.6272 7.16999 9.024 7.16999 9.5136C7.16999 10.0032 6.77319 10.4 6.28519 10.4Z" fill="#211F6D"/>
<path d="M9.92386 10.4C9.43586 10.4 9.03906 10.0032 9.03906 9.5136C9.03906 9.024 9.43586 8.6272 9.92386 8.6272C10.4119 8.6272 10.8087 9.024 10.8087 9.5136C10.8087 10.0032 10.4119 10.4 9.92386 10.4Z" fill="#211F6D"/>
</g>
<defs>
<clipPath id="clip0_2_3418">
<rect width="16" height="16" fill="white" transform="translate(0.103516)"/>
</clipPath>
</defs>
</svg>
