<svg width="15" height="16" viewBox="0 0 15 16" fill="none" xmlns="http://www.w3.org/2000/svg">
<g clip-path="url(#clip0_2_3414)">
<path d="M0 12.0608L7.05167 16V9.14282L0 5.20361V12.0608Z" fill="#CCCCCC"/>
<path d="M0 5.20361L7.05167 9.14282L14.1033 5.20361L7.05167 1.2644L0 5.20361Z" fill="#F2F2F2"/>
<path d="M7.05078 9.14282V16L14.1025 12.0608V5.20361L7.05078 9.14282Z" fill="#E6E6E6"/>
<path d="M8.46129 8.36475L7.05096 9.14286L5.64062 8.36475H8.46129Z" fill="#686868"/>
<path d="M7.05078 10.5532L8.46112 8.36475L7.05078 9.14286V10.5532Z" fill="#383838"/>
<path d="M7.05096 10.5532L5.64062 8.36475L7.05096 9.14286V10.5532Z" fill="black"/>
<path d="M0 0V5.20365L5.59271 5.78723L0 0Z" fill="#F2F2F2"/>
<path d="M14.1035 0L9.24023 5.00912L14.1035 5.20365V0Z" fill="#F2F2F2"/>
<path d="M13.034 2.57739L11.7695 3.89046L13.034 4.61995V2.57739Z" fill="#383838"/>
<path d="M1.07031 2.6748L2.28612 3.93924L1.07031 4.62009V2.6748Z" fill="#383838"/>
</g>
<defs>
<clipPath id="clip0_2_3414">
<rect width="14.1033" height="16" fill="white"/>
</clipPath>
</defs>
</svg>
