<svg width="17" height="16" viewBox="0 0 17 16" fill="none" xmlns="http://www.w3.org/2000/svg">
<g clip-path="url(#clip0_2_3420)">
<path d="M8.10352 16C12.5218 16 16.1035 12.4183 16.1035 8C16.1035 3.58172 12.5218 0 8.10352 0C3.68524 0 0.103516 3.58172 0.103516 8C0.103516 12.4183 3.68524 16 8.10352 16Z" fill="#EF494D"/>
<path fill-rule="evenodd" clip-rule="evenodd" d="M3.10352 5.693C3.10352 5.5865 3.19002 5.5 3.29702 5.5H5.80902C6.96802 5.5 7.69302 6.098 7.69302 6.9425C7.69302 7.295 7.53202 7.6155 7.21002 7.904C7.66052 8.1605 7.88602 8.545 7.88602 9.0575C7.88602 10.26 6.72652 10.5 5.95352 10.5H3.29652C3.24533 10.5 3.19624 10.4797 3.16004 10.4435C3.12385 10.4073 3.10352 10.3582 3.10352 10.307V9.732C3.10352 9.625 3.19002 9.5385 3.29652 9.5385H5.95352C6.50102 9.5385 6.77502 9.362 6.77502 9.0095C6.77502 8.657 6.50102 8.4645 5.95352 8.4325H3.29652C3.24542 8.4325 3.1964 8.41224 3.16022 8.37615C3.12404 8.34006 3.10365 8.2911 3.10352 8.24V7.665C3.10352 7.558 3.19002 7.4715 3.29652 7.4715H5.95352C6.34002 7.4075 6.53352 7.2475 6.53352 6.991C6.53352 6.6385 6.34002 6.462 5.95352 6.462H3.29652C3.27113 6.462 3.24599 6.45699 3.22254 6.44726C3.19909 6.43753 3.1778 6.42327 3.15987 6.4053C3.14194 6.38732 3.12773 6.36599 3.11806 6.34251C3.10839 6.31904 3.10345 6.29389 3.10352 6.2685V5.6935V5.693ZM8.32102 5.693C8.32102 5.5865 8.40752 5.5 8.51402 5.5H11.0745C11.181 5.5 11.268 5.5865 11.268 5.693V10.307C11.268 10.3324 11.263 10.3575 11.2533 10.381C11.2435 10.4044 11.2293 10.4257 11.2113 10.4436C11.1933 10.4616 11.172 10.4758 11.1485 10.4855C11.1251 10.4951 11.0999 10.5001 11.0745 10.5H10.3495C10.2983 10.5 10.2492 10.4797 10.213 10.4435C10.1769 10.4073 10.1565 10.3582 10.1565 10.307V6.655C10.1566 6.62961 10.1516 6.60446 10.142 6.58099C10.1323 6.55751 10.1181 6.53618 10.1002 6.51821C10.0822 6.50023 10.0609 6.48597 10.0375 6.47624C10.014 6.46651 9.9889 6.4615 9.96352 6.4615H8.51352C8.46233 6.4615 8.41324 6.44117 8.37704 6.40497C8.34085 6.36878 8.32052 6.31969 8.32052 6.2685L8.32102 5.693ZM11.9435 5.5H12.91C13.0165 5.5 13.103 5.5865 13.103 5.693V6.268C13.1031 6.29339 13.0981 6.31854 13.0885 6.34201C13.0788 6.36549 13.0646 6.38682 13.0467 6.4048C13.0287 6.42277 13.0074 6.43703 12.984 6.44676C12.9605 6.45649 12.9354 6.4615 12.91 6.4615H11.9435C11.8923 6.4615 11.8432 6.44117 11.807 6.40497C11.7709 6.36878 11.7505 6.31969 11.7505 6.2685V5.6935C11.7505 5.5865 11.837 5.5 11.9435 5.5Z" fill="white"/>
</g>
<defs>
<clipPath id="clip0_2_3420">
<rect width="16" height="16" fill="white" transform="translate(0.103516)"/>
</clipPath>
</defs>
</svg>
