<svg width="17" height="16" viewBox="0 0 17 16" fill="none" xmlns="http://www.w3.org/2000/svg">
<g clip-path="url(#clip0_2_3421)">
<path d="M8.10352 16C12.5218 16 16.1035 12.4183 16.1035 8C16.1035 3.58172 12.5218 0 8.10352 0C3.68524 0 0.103516 3.58172 0.103516 8C0.103516 12.4183 3.68524 16 8.10352 16Z" fill="#272731"/>
<path d="M13.6035 8.015C13.6035 9.47 13.031 10.865 12.0105 11.894C11.5072 12.4025 10.908 12.8063 10.2477 13.082C9.58742 13.3576 8.87905 13.4997 8.16352 13.5V12.099C10.1375 12.105 11.826 10.6705 12.1555 8.708H10.2105C10.2875 8.48 10.327 8.241 10.3275 8C10.3244 7.75946 10.2849 7.52077 10.2105 7.292H12.1555C11.8215 5.332 10.1355 3.9 8.16352 3.901V2.5C11.1675 2.529 13.591 4.986 13.6035 8.015ZM9.97652 9.1945H11.5125C10.9445 10.847 9.27652 11.8445 7.56602 11.5545C5.85602 11.2635 4.60352 9.7705 4.60352 8.0215C4.60352 6.2725 5.85602 4.78 7.56602 4.4895C9.27652 4.1995 10.9445 5.197 11.5125 6.8495H9.97652C9.8036 6.58669 9.57988 6.3611 9.31852 6.186C9.07955 6.03228 8.81249 5.92747 8.53276 5.87762C8.25304 5.82776 7.9662 5.83387 7.68885 5.89557C7.4115 5.95727 7.14913 6.07334 6.91692 6.23708C6.68471 6.40082 6.48727 6.60897 6.33602 6.8495C5.69402 7.863 5.98852 9.2095 6.99402 9.857C7.23295 10.0107 7.49999 10.1156 7.77969 10.1655C8.0594 10.2154 8.34622 10.2093 8.62357 10.1477C8.90092 10.086 9.16329 9.96997 9.39552 9.80628C9.62775 9.64259 9.82522 9.43449 9.97652 9.194V9.1945Z" fill="white"/>
</g>
<defs>
<clipPath id="clip0_2_3421">
<rect width="16" height="16" fill="white" transform="translate(0.103516)"/>
</clipPath>
</defs>
</svg>
