<svg width="17" height="16" viewBox="0 0 17 16" fill="none" xmlns="http://www.w3.org/2000/svg">
<g clip-path="url(#clip0_2_3423)">
<path d="M8.58789 16C13.0062 16 16.5879 12.4183 16.5879 8C16.5879 3.58172 13.0062 0 8.58789 0C4.16961 0 0.587891 3.58172 0.587891 8C0.587891 12.4183 4.16961 16 8.58789 16Z" fill="#00A8D6"/>
<path fill-rule="evenodd" clip-rule="evenodd" d="M7.80389 9.475V8.5165H9.28089C10.2659 8.5165 10.7584 8.2705 10.7584 7.7785V5.1965C10.7584 4.705 10.2659 4.459 9.28089 4.459H6.91789V6.008H5.58789V3.5H9.13289C11.1029 3.5 12.0879 4.041 12.0879 5.123V7.8525C12.0879 8.9345 11.1029 9.4755 9.13289 9.4755H7.80389V9.475ZM10.7584 10.0655H12.0879V10.877C12.0879 11.959 11.1029 12.5 9.13289 12.5H5.58789V6.746H9.13289C9.34139 6.746 9.53789 6.752 9.72439 6.764V7.7245C9.57697 7.71068 9.42896 7.70401 9.28089 7.7045H6.91789V11.541H9.28139C10.2664 11.541 10.7589 11.295 10.7589 10.8035V10.065L10.7584 10.0655Z" fill="white"/>
</g>
<defs>
<clipPath id="clip0_2_3423">
<rect width="16" height="16" fill="white" transform="translate(0.587891)"/>
</clipPath>
</defs>
</svg>
