<svg width="17" height="16" viewBox="0 0 17 16" fill="none" xmlns="http://www.w3.org/2000/svg">
<g clip-path="url(#clip0_2_3425)">
<path d="M8.66211 16C13.0804 16 16.6621 12.4183 16.6621 8C16.6621 3.58172 13.0804 0 8.66211 0C4.24383 0 0.662109 3.58172 0.662109 8C0.662109 12.4183 4.24383 16 8.66211 16Z" fill="#FD7A3D"/>
<path d="M13.2597 9.7C13.6447 9.91 13.7732 10.393 13.5162 10.771C13.3027 11.149 12.8112 11.275 12.4262 11.065C12.3102 10.9981 12.2125 10.9038 12.1416 10.7903C12.0707 10.6767 12.0289 10.5475 12.0197 10.414H10.0522L9.11118 12.0095C9.11118 12.0305 9.08968 12.0515 9.06868 12.0725C9.28218 12.1985 9.43218 12.4505 9.43218 12.7235C9.43218 13.1435 9.06868 13.5 8.64068 13.5C8.21318 13.5 7.84968 13.164 7.84968 12.7235C7.84968 12.4505 7.99968 12.2195 8.21318 12.0725C8.21318 12.0515 8.19168 12.0305 8.17018 12.0095L7.22968 10.4145H5.26218C5.24068 10.687 5.09118 10.918 4.85568 11.0645C4.47068 11.2745 3.97918 11.149 3.76518 10.771C3.55118 10.393 3.67968 9.9105 4.06468 9.7005C4.32118 9.5535 4.59918 9.5535 4.83468 9.6795C4.85568 9.6585 4.85568 9.6165 4.87718 9.5955L5.83968 8L4.89868 6.405C4.87604 6.3819 4.86103 6.3524 4.85568 6.3205C4.62068 6.4255 4.32118 6.4465 4.08568 6.2995C3.99508 6.24952 3.91535 6.18199 3.85113 6.10086C3.78691 6.01973 3.7395 5.92662 3.71167 5.82696C3.68383 5.7273 3.67613 5.6231 3.68901 5.52043C3.70189 5.41776 3.73509 5.31869 3.78668 5.229C4.00018 4.851 4.49218 4.725 4.87718 4.935C5.13368 5.082 5.26218 5.334 5.28368 5.586H7.27218L8.21318 3.9905C8.21318 3.9695 8.23468 3.9485 8.25568 3.9275C8.14459 3.85901 8.05288 3.76323 7.98925 3.64928C7.92563 3.53534 7.89221 3.40701 7.89218 3.2765C7.89218 2.8565 8.25568 2.5 8.68368 2.5C9.11118 2.5 9.47468 2.836 9.47468 3.2765C9.47468 3.5495 9.32468 3.7805 9.11118 3.9275C9.11118 3.9485 9.13268 3.9695 9.15418 3.9905L10.0947 5.5855H12.0622C12.0837 5.313 12.2332 5.082 12.4687 4.9355C12.8537 4.7255 13.3452 4.851 13.5592 5.229C13.6108 5.31872 13.6439 5.41782 13.6568 5.52051C13.6696 5.6232 13.6619 5.72741 13.634 5.82707C13.6061 5.92673 13.5586 6.01984 13.4944 6.10096C13.4301 6.18207 13.3503 6.24956 13.2597 6.2995C13.0032 6.4465 12.7252 6.4465 12.4897 6.3205C12.4687 6.3415 12.4687 6.3835 12.4472 6.4045L11.5062 8L12.4472 9.595C12.4698 9.6181 12.4848 9.6476 12.4902 9.6795C12.7252 9.5745 13.0247 9.5535 13.2602 9.7005L13.2597 9.7ZM9.68868 7.475C9.68868 7.0345 9.32518 6.6775 8.87618 6.6775H7.84968C7.82461 6.67717 7.79971 6.68181 7.77644 6.69114C7.75316 6.70048 7.73196 6.71434 7.71407 6.73191C7.69617 6.74948 7.68193 6.77042 7.67217 6.79352C7.66241 6.81662 7.65731 6.84142 7.65718 6.8665V9.1335C7.65718 9.2385 7.74268 9.3225 7.84968 9.3225H8.87618C9.32518 9.3225 9.68868 8.9655 9.68868 8.525C9.68868 8.336 9.62468 8.147 9.49618 8.021C9.60318 7.853 9.68868 7.685 9.68868 7.475Z" fill="white"/>
</g>
<defs>
<clipPath id="clip0_2_3425">
<rect width="16" height="16" fill="white" transform="translate(0.662109)"/>
</clipPath>
</defs>
</svg>
