<svg width="17" height="16" viewBox="0 0 17 16" fill="none" xmlns="http://www.w3.org/2000/svg">
<g clip-path="url(#clip0_2_3428)">
<path d="M8.65234 16C13.0706 16 16.6523 12.4183 16.6523 8C16.6523 3.58172 13.0706 0 8.65234 0C4.23407 0 0.652344 3.58172 0.652344 8C0.652344 12.4183 4.23407 16 8.65234 16Z" fill="#2D2D2D"/>
<path d="M6.50534 9.648L2.65234 8.385H5.22984L5.48484 7.1635L7.77384 7.165L8.34484 4H10.6478C12.2068 4 12.8388 4.6275 12.6053 5.9225L12.5553 6.2C12.4188 6.9545 12.0743 7.456 11.4823 7.7455C12.0688 8.0455 12.2658 8.613 12.1183 9.4305L12.0043 10.0635C11.7763 11.3265 10.8473 12 9.33834 12H6.90084L7.53234 8.5035H6.76734L6.50534 9.648ZM9.03834 8.2745L8.56634 10.8895H9.53884C10.1158 10.8895 10.4363 10.6335 10.5453 10.0295L10.6678 9.353C10.8068 8.5815 10.5398 8.2745 9.78334 8.2745H9.03834ZM9.60984 5.11L9.19784 7.392H9.90384C10.5478 7.392 10.9243 7.117 11.0398 6.477L11.1183 6.044C11.2308 5.4205 10.9978 5.11 10.4073 5.11H9.70234H9.60984Z" fill="white"/>
</g>
<defs>
<clipPath id="clip0_2_3428">
<rect width="16" height="16" fill="white" transform="translate(0.652344)"/>
</clipPath>
</defs>
</svg>
