<svg width="17" height="16" viewBox="0 0 17 16" fill="none" xmlns="http://www.w3.org/2000/svg">
<g clip-path="url(#clip0_2_3429)">
<path d="M8.65184 15.999C13.0698 15.999 16.6513 12.4175 16.6513 7.9995C16.6513 3.5815 13.0698 0 8.65184 0C4.23384 0 0.652344 3.5815 0.652344 7.9995C0.652344 12.4175 4.23384 15.999 8.65184 15.999Z" fill="#F04086"/>
<path d="M12.3712 8.37694C12.0562 8.02894 11.6032 7.81294 11.0112 7.72894V7.71644C11.5297 7.63244 11.9372 7.41994 12.2142 7.07994C12.4953 6.74276 12.648 6.31694 12.6452 5.87794C12.6452 5.14744 12.4102 4.65094 11.9232 4.26044C11.4362 3.87044 10.7052 3.74194 9.71467 3.74194H5.97417V7.22344H3.82617V8.55694H9.68967C10.1512 8.55694 10.4977 8.58944 10.7267 8.77394C10.9557 8.95844 11.0727 9.19694 11.0727 9.54944C11.0727 9.90194 10.9572 10.2029 10.7267 10.3919C10.4967 10.5804 10.1497 10.7049 9.68967 10.7049H7.67767V9.66794H5.97417V12.0384H9.83767C10.8202 12.0384 11.5712 11.7819 12.0922 11.3834C12.6127 10.9849 12.8572 10.3964 12.8572 9.67394C12.8636 9.19594 12.6902 8.73298 12.3712 8.37694ZM9.47467 7.21994H7.67767V5.07194H9.47467C10.3987 5.07194 10.8597 5.43244 10.8597 6.14594C10.8597 6.85944 10.3987 7.21994 9.47467 7.21994Z" fill="white"/>
</g>
<defs>
<clipPath id="clip0_2_3429">
<rect width="16" height="16" fill="white" transform="translate(0.652344)"/>
</clipPath>
</defs>
</svg>
