<svg width="17" height="16" viewBox="0 0 17 16" fill="none" xmlns="http://www.w3.org/2000/svg">
<g clip-path="url(#clip0_2_3430)">
<g opacity="0.8">
<path opacity="0.8" d="M6.19298 2.46576L10.5467 6.81952L6.85362 0L3.76586 3.11536L6.19298 2.46576ZM11.1117 13.5342L6.75794 9.18048L10.4511 16L13.537 12.8846L11.1117 13.5342ZM3.1181 10.4594L5.90962 4.54144L1.63682 8.81608L0.652344 9.79872L3.7677 12.8846L3.1181 10.4594ZM14.1884 5.5388L9.83282 9.8944L16.6523 6.20128L13.537 3.11352L14.1884 5.5388Z" fill="#040000"/>
</g>
<g opacity="0.8">
<path opacity="0.8" d="M12.1082 5.25544L7.83535 0.98448L6.85271 0L10.5458 6.81952L12.1082 5.25544ZM5.19471 10.7427L10.4502 16L6.75703 9.18048L5.19471 10.7427ZM7.47095 6.1056L5.90871 4.54144L3.11719 10.4594L7.47095 6.1056ZM11.3942 11.4567L16.6514 6.20128L9.83192 9.8944L11.3942 11.4567Z" fill="#323333"/>
</g>
<g opacity="0.8">
<path opacity="0.8" d="M1.96434 1.31016L0.652344 6.20128L3.32426 4.766L1.96434 1.31016ZM15.3422 14.6898L16.6523 9.79872L13.9805 11.2322L15.3422 14.6898ZM1.96434 14.688L6.85362 16L5.42018 13.3263L1.96434 14.688ZM15.3422 1.31016L10.4511 0L11.8846 2.67192L15.3422 1.31016Z" fill="#555555"/>
</g>
<g opacity="0.8">
<path opacity="0.8" d="M3.76586 3.11536L6.85362 0L1.96434 1.31016L3.32426 4.766L3.76586 3.11536ZM13.537 12.8846L10.4511 16L15.3422 14.6898L13.9805 11.2322L13.537 12.8846ZM3.7677 12.8846L0.652344 9.79872L1.96434 14.688L5.42018 13.3263L3.7677 12.8846ZM13.537 3.11352L16.6523 6.20128L15.3422 1.31016L11.8846 2.67192L13.537 3.11352Z" fill="#323333"/>
</g>
<g opacity="0.8">
<path opacity="0.8" d="M3.32426 4.766L0.652344 6.20128L1.2725 6.81952L3.32426 4.766ZM13.9805 11.2322L16.6523 9.79872L16.0322 9.18048L13.9805 11.2322ZM6.85362 16L7.47186 15.3798L5.42018 13.3263L6.85362 16ZM10.4511 0L9.83282 0.62016L11.8846 2.67192L10.4511 0Z" fill="#040000"/>
</g>
</g>
<defs>
<clipPath id="clip0_2_3430">
<rect width="16" height="16" fill="white" transform="translate(0.652344)"/>
</clipPath>
</defs>
</svg>
