<svg width="17" height="16" viewBox="0 0 17 16" fill="none" xmlns="http://www.w3.org/2000/svg">
<g clip-path="url(#clip0_2_3434)">
<path d="M8.71094 16C13.1292 16 16.7109 12.4183 16.7109 8C16.7109 3.58172 13.1292 0 8.71094 0C4.29266 0 0.710938 3.58172 0.710938 8C0.710938 12.4183 4.29266 16 8.71094 16Z" fill="#1C98F7"/>
<path fill-rule="evenodd" clip-rule="evenodd" d="M8.85094 11.6625C9.20277 11.6381 9.55158 11.5811 9.89294 11.4925C10.3142 11.6211 10.7595 11.6501 11.1939 11.5775C11.2111 11.5747 11.2285 11.5734 11.2459 11.5735C11.4009 11.5735 11.6044 11.6635 11.9009 11.8535V11.541C11.901 11.4869 11.9154 11.4339 11.9428 11.3872C11.9701 11.3406 12.0093 11.302 12.0564 11.2755C12.1854 11.2025 12.3054 11.1185 12.4149 11.026C12.8469 10.66 13.0909 10.172 13.0909 9.655C13.0909 9.4815 13.0634 9.313 13.0114 9.152C13.1419 8.9085 13.2474 8.6525 13.3249 8.387C13.5755 8.7625 13.7098 9.20357 13.7109 9.655C13.7109 10.3575 13.3839 11.0125 12.8184 11.4915C12.724 11.5714 12.6247 11.6452 12.5209 11.7125V12.443C12.5209 12.6945 12.2309 12.839 12.0264 12.6895C11.8331 12.5449 11.6328 12.4098 11.4264 12.2845C11.3673 12.2491 11.3059 12.2179 11.2424 12.191C11.0724 12.2165 10.8984 12.2295 10.7229 12.2295C10.0169 12.2295 9.36494 12.018 8.85144 11.6625H8.85094ZM5.11794 10.2015C4.22594 9.445 3.71094 8.4145 3.71094 7.31C3.71094 5.0535 5.83994 3.25 8.43944 3.25C11.0394 3.25 13.1684 5.0535 13.1684 7.31C13.1684 9.567 11.0389 11.3705 8.43944 11.3705C8.14744 11.3705 7.85844 11.348 7.57544 11.303C7.45294 11.332 6.96344 11.623 6.25794 12.138C6.00244 12.325 5.63994 12.1445 5.63994 11.83V10.584C5.45724 10.4688 5.28281 10.341 5.11794 10.2015ZM7.59244 10.5345C7.61394 10.5345 7.63594 10.536 7.65744 10.5395C7.91244 10.5825 8.17444 10.6045 8.43944 10.6045C10.6354 10.6045 12.3929 9.1155 12.3929 7.31C12.3929 5.505 10.6354 4.016 8.43944 4.016C6.24444 4.016 4.48594 5.505 4.48594 7.31C4.48594 8.183 4.89644 9.005 5.62244 9.62C5.80494 9.774 6.00544 9.914 6.22044 10.036C6.34094 10.104 6.41544 10.231 6.41544 10.368V11.0865C6.97344 10.712 7.34044 10.5345 7.59244 10.5345ZM6.42394 8.0765C6.08144 8.0765 5.80394 7.8015 5.80394 7.4635C5.80394 7.125 6.08144 6.8505 6.42394 6.8505C6.76644 6.8505 7.04394 7.125 7.04394 7.4635C7.04394 7.802 6.76644 8.0765 6.42394 8.0765ZM8.43944 8.0765C8.09694 8.0765 7.81944 7.8015 7.81944 7.4635C7.81944 7.125 8.09694 6.8505 8.43944 6.8505C8.78194 6.8505 9.05944 7.125 9.05944 7.4635C9.05944 7.802 8.78194 8.0765 8.43944 8.0765ZM10.4549 8.0765C10.1124 8.0765 9.83494 7.8015 9.83494 7.4635C9.83494 7.125 10.1124 6.8505 10.4549 6.8505C10.7974 6.8505 11.0749 7.125 11.0749 7.4635C11.0749 7.802 10.7974 8.0765 10.4549 8.0765Z" fill="white"/>
</g>
<defs>
<clipPath id="clip0_2_3434">
<rect width="16" height="16" fill="white" transform="translate(0.710938)"/>
</clipPath>
</defs>
</svg>
