<svg width="17" height="16" viewBox="0 0 17 16" fill="none" xmlns="http://www.w3.org/2000/svg">
<g clip-path="url(#clip0_2_3435)">
<path d="M10.2048 8.37336C10.2048 8.26669 10.2048 8.21336 10.0982 8.16003C9.72485 7.89336 9.29818 7.62669 8.92485 7.36003C8.88538 7.33365 8.83898 7.31958 8.79151 7.31958C8.74405 7.31958 8.69765 7.33365 8.65818 7.36003L7.48485 8.21336C7.43586 8.23834 7.39489 8.27659 7.3666 8.32374C7.33831 8.37089 7.32384 8.42505 7.32485 8.48002C7.32235 8.595 7.28517 8.70654 7.21818 8.80002C7.19181 8.83949 7.17773 8.88589 7.17773 8.93336C7.17773 8.98082 7.19181 9.02722 7.21818 9.06669C7.64485 9.92003 8.01818 10.7734 8.44485 11.6267C8.60485 11.8934 8.71151 12.2134 8.87151 12.5334C8.92485 12.48 8.92485 12.4267 8.97818 12.3734C9.45818 11.3067 9.88485 10.24 10.3648 9.17336C10.4182 9.06669 10.4182 9.01336 10.3115 8.96002C10.2516 8.87616 10.2109 8.78007 10.1924 8.67864C10.174 8.57721 10.1782 8.47296 10.2048 8.37336Z" fill="#CD0124"/>
<path d="M8.39141 6.98672C7.32474 6.24005 6.25807 5.49338 5.24474 4.80005L5.19141 4.85338C5.24474 4.96005 5.24474 5.01338 5.29807 5.12005L6.41807 7.52005C6.52474 7.73338 6.57807 7.94672 6.89807 8.00005C6.99025 8.00835 7.08285 7.98983 7.16474 7.94672C7.48474 7.68005 7.85807 7.46672 8.17807 7.20005L8.39141 6.98672Z" fill="#CD0124"/>
<path d="M8.71094 0C7.12869 0 5.58197 0.469192 4.26638 1.34824C2.95079 2.22729 1.92541 3.47672 1.3199 4.93853C0.714404 6.40034 0.555977 8.00887 0.864659 9.56072C1.17334 11.1126 1.93527 12.538 3.05409 13.6569C4.17291 14.7757 5.59837 15.5376 7.15022 15.8463C8.70207 16.155 10.3106 15.9965 11.7724 15.391C13.2342 14.7855 14.4836 13.7602 15.3627 12.4446C16.2417 11.129 16.7109 9.58225 16.7109 8C16.7109 5.87827 15.8681 3.84344 14.3678 2.34315C12.8675 0.842855 10.8327 0 8.71094 0V0ZM13.0309 4.64C12.9243 4.64 12.8709 4.69333 12.8176 4.8C12.3909 5.86667 11.9109 6.93333 11.4843 8V8.21333C11.5269 8.3035 11.5495 8.40179 11.5507 8.5015C11.5518 8.60121 11.5315 8.7 11.491 8.79113C11.4505 8.88225 11.3908 8.96357 11.316 9.02953C11.2412 9.09549 11.1531 9.14454 11.0576 9.17333C11.0043 9.17333 10.9509 9.22667 10.8976 9.33333C10.4176 10.4 9.93761 11.52 9.51094 12.5867C9.48457 12.6261 9.4705 12.6725 9.4705 12.72C9.4705 12.7675 9.48457 12.8139 9.51094 12.8533C9.6106 12.9901 9.65497 13.1595 9.6352 13.3276C9.61543 13.4956 9.53296 13.6501 9.40427 13.76C9.29246 13.8704 9.14445 13.9367 8.9876 13.9465C8.83074 13.9563 8.67563 13.909 8.55094 13.8133C8.48434 13.7679 8.42737 13.7097 8.38327 13.6422C8.33918 13.5747 8.30883 13.4991 8.29397 13.4198C8.27911 13.3406 8.28003 13.2592 8.29667 13.1803C8.3133 13.1014 8.34534 13.0265 8.39094 12.96C8.41709 12.9107 8.43076 12.8558 8.43076 12.8C8.43076 12.7442 8.41709 12.6893 8.39094 12.64C7.85761 11.5733 7.37761 10.5067 6.84427 9.44C6.82 9.38579 6.78314 9.33816 6.73676 9.30105C6.69038 9.26395 6.63582 9.23845 6.57761 9.22667C6.46893 9.20859 6.36625 9.16448 6.27832 9.0981C6.19039 9.03173 6.11984 8.94506 6.07268 8.84549C6.02551 8.74593 6.00315 8.63643 6.00749 8.52635C6.01183 8.41627 6.04275 8.30887 6.09761 8.21333C6.12398 8.17387 6.13805 8.12747 6.13805 8.08C6.13805 8.03253 6.12398 7.98613 6.09761 7.94667C5.61761 6.88 5.13761 5.86667 4.60427 4.8C4.60427 4.74667 4.55094 4.69333 4.39094 4.69333C4.23409 4.67128 4.08979 4.59537 3.98276 4.47861C3.87573 4.36185 3.81263 4.21151 3.80427 4.05333C3.81413 3.90517 3.86398 3.76245 3.9485 3.64036C4.03302 3.51827 4.14906 3.42138 4.28427 3.36C4.42781 3.3044 4.58626 3.30061 4.73229 3.34929C4.87832 3.39796 5.0028 3.49606 5.08427 3.62667C5.13761 3.73333 5.19094 3.73333 5.35094 3.73333H12.1243C12.2309 3.73333 12.3376 3.73333 12.3909 3.57333C12.4637 3.44771 12.5787 3.35196 12.7154 3.30313C12.8521 3.2543 13.0017 3.25556 13.1376 3.30667C13.2701 3.35683 13.3856 3.44363 13.4706 3.55696C13.5555 3.67028 13.6065 3.80544 13.6176 3.94667C13.6196 4.11348 13.5614 4.27541 13.4536 4.40277C13.3458 4.53012 13.1958 4.61435 13.0309 4.64Z" fill="#CD0124"/>
<path d="M8.71156 6.61327C8.75103 6.63964 8.79743 6.65371 8.8449 6.65371C8.89236 6.65371 8.93876 6.63964 8.97823 6.61327C9.99156 5.8666 11.0049 5.17327 11.9649 4.4266C12.0182 4.37327 12.0716 4.37327 12.0716 4.31994V4.2666H5.35156C5.41259 4.28899 5.46742 4.32555 5.51156 4.37327L8.71156 6.61327Z" fill="#CD0124"/>
<path d="M9.24414 6.98674C9.67081 7.30674 10.0975 7.57341 10.5241 7.84007C10.6308 7.89341 10.7908 7.84007 10.9508 7.84007C11.0041 7.84007 11.0575 7.73341 11.0575 7.68007C11.4308 6.82674 11.8041 5.92007 12.1775 5.06674C12.1775 5.01341 12.2308 4.96007 12.2308 4.90674H12.1775C11.2708 5.54674 10.2575 6.24007 9.24414 6.98674Z" fill="#CD0124"/>
</g>
<defs>
<clipPath id="clip0_2_3435">
<rect width="16" height="16" fill="white" transform="translate(0.710938)"/>
</clipPath>
</defs>
</svg>
