<svg width="17" height="16" viewBox="0 0 17 16" fill="none" xmlns="http://www.w3.org/2000/svg">
<g clip-path="url(#clip0_2_3436)">
<path d="M8.71046 16.0001C7.12851 15.9998 5.58217 15.5304 4.26696 14.6513C2.95175 13.7722 1.92673 12.5229 1.32149 11.0613C0.716248 9.59972 0.557973 7.99148 0.866675 6.43994C1.17538 4.8884 1.93719 3.46323 3.0558 2.34462C4.17441 1.22601 5.59958 0.464196 7.15112 0.155494C8.70266 -0.153208 10.3109 0.00506593 11.7725 0.610305C13.2341 1.21554 14.4834 2.24057 15.3625 3.55578C16.2416 4.87099 16.7109 6.41733 16.7113 7.99929C16.7115 9.05003 16.5047 10.0905 16.1027 11.0613C15.7007 12.0321 15.1113 12.9142 14.3684 13.6572C13.6254 14.4002 12.7433 14.9895 11.7725 15.3915C10.8017 15.7935 9.7612 16.0003 8.71046 16.0001ZM8.71046 15.3757C10.169 15.3757 11.5948 14.9432 12.8075 14.1329C14.0202 13.3226 14.9655 12.171 15.5237 10.8235C16.0819 9.47601 16.2281 7.99327 15.9437 6.56275C15.6592 5.13223 14.957 3.81816 13.9258 2.78672C12.8946 1.75527 11.5807 1.05276 10.1502 0.76802C8.71974 0.48328 7.23697 0.629094 5.88938 1.18703C4.54178 1.74496 3.38989 2.68995 2.57934 3.90252C1.7688 5.11508 1.336 6.54076 1.33568 7.99929C1.33783 9.95395 2.1157 11.8278 3.49846 13.2094C4.88123 14.5909 6.7558 15.3672 8.71046 15.3676V15.3757Z" fill="black"/>
<path d="M8.72656 8.70287C9.10625 8.70287 9.41405 8.39507 9.41405 8.01537C9.41405 7.63568 9.10625 7.32788 8.72656 7.32788C8.34686 7.32788 8.03906 7.63568 8.03906 8.01537C8.03906 8.39507 8.34686 8.70287 8.72656 8.70287Z" fill="black"/>
</g>
<defs>
<clipPath id="clip0_2_3436">
<rect width="16" height="16" fill="white" transform="translate(0.710938)"/>
</clipPath>
</defs>
</svg>
