<svg width="16" height="16" viewBox="0 0 16 16" fill="none" xmlns="http://www.w3.org/2000/svg">
<path d="M8 16C12.4183 16 16 12.4183 16 8C16 3.58172 12.4183 0 8 0C3.58172 0 0 3.58172 0 8C0 12.4183 3.58172 16 8 16Z" fill="#2FD2E5"/>
<path d="M8.28549 2.00343C6.93447 1.9565 5.60838 2.3754 4.52949 3.18993C4.42489 3.26855 4.33907 3.36945 4.27827 3.48532C4.21747 3.60119 4.18319 3.72914 4.17793 3.85989C4.17266 3.99064 4.19654 4.12092 4.24783 4.2413C4.29912 4.36169 4.37654 4.46916 4.47449 4.55593C4.78549 4.84993 5.26449 4.87293 5.60249 4.61043C6.43013 3.96633 7.4691 3.65576 8.51445 3.73999C9.55981 3.82422 10.5357 4.29713 11.2495 5.06543C11.5445 5.37043 11.5535 5.85093 11.2705 6.16693C11.1994 6.24322 11.1139 6.30475 11.019 6.348C10.9241 6.39125 10.8216 6.41537 10.7173 6.419C10.6131 6.42262 10.5091 6.40567 10.4115 6.36911C10.3138 6.33255 10.2242 6.2771 10.148 6.20593L10.1095 6.16693C9.75353 5.77661 9.28786 5.50305 8.77362 5.38217C8.25938 5.26129 7.7206 5.29875 7.22803 5.48962C6.73546 5.6805 6.31212 6.01586 6.0136 6.45169C5.71508 6.88751 5.55534 7.40342 5.55534 7.93168C5.55534 8.45994 5.71508 8.97585 6.0136 9.41168C6.31212 9.84751 6.73546 10.1829 7.22803 10.3737C7.7206 10.5646 8.25938 10.6021 8.77362 10.4812C9.28786 10.3603 9.75353 10.0868 10.1095 9.69643C10.2235 9.56883 10.3764 9.48238 10.5446 9.45047C10.7127 9.41856 10.8866 9.44298 11.0395 9.51993C11.1482 9.57447 11.2429 9.65342 11.3161 9.7506C11.3892 9.84778 11.4389 9.96056 11.4613 10.0801C11.4837 10.1997 11.4781 10.3228 11.445 10.4399C11.4119 10.557 11.3522 10.6648 11.2705 10.7549C10.5596 11.5331 9.58248 12.0161 8.53249 12.1084C7.48251 12.2006 6.43616 11.8953 5.60049 11.2529C5.43513 11.127 5.2306 11.0634 5.02296 11.0735C4.81532 11.0835 4.61789 11.1666 4.46549 11.3079C4.36819 11.3971 4.29187 11.5067 4.242 11.6289C4.19213 11.7511 4.16996 11.8828 4.17708 12.0145C4.18421 12.1463 4.22045 12.2749 4.2832 12.391C4.34595 12.5071 4.43365 12.6078 4.53999 12.6859C5.28582 13.2391 6.1512 13.6092 7.06633 13.7664C7.98147 13.9237 8.92075 13.8637 9.80845 13.5913C10.6961 13.3189 11.5074 12.8417 12.1768 12.1982C12.8462 11.5547 13.355 10.7629 13.6623 9.88663C13.9695 9.01037 14.0665 8.07418 13.9454 7.15355C13.8244 6.23293 13.4887 5.35363 12.9654 4.58655C12.4422 3.81948 11.746 3.18611 10.933 2.73751C10.12 2.2889 9.21293 2.03762 8.28499 2.00393L8.28549 2.00343ZM8.17549 9.39743C7.98291 9.39671 7.79235 9.35806 7.6147 9.2837C7.43705 9.20933 7.27579 9.1007 7.14013 8.96402C7.00446 8.82733 6.89705 8.66526 6.82401 8.48706C6.75098 8.30886 6.71377 8.11802 6.71449 7.92543C6.71521 7.73285 6.75386 7.54229 6.82822 7.36465C6.90259 7.187 7.01122 7.02574 7.14791 6.89007C7.28459 6.75441 7.44666 6.64699 7.62487 6.57396C7.80307 6.50093 7.99391 6.46371 8.18649 6.46443C8.57543 6.46583 8.94789 6.62167 9.22192 6.89767C9.49596 7.17368 9.64913 7.54724 9.64774 7.93618C9.64635 8.32512 9.49051 8.69758 9.2145 8.97162C8.93849 9.24566 8.56493 9.39883 8.17599 9.39743H8.17549Z" fill="white"/>
</svg>
