<svg width="16" height="16" viewBox="0 0 16 16" fill="none" xmlns="http://www.w3.org/2000/svg">
<path d="M7.93566 15.9531C12.094 15.9531 15.4651 12.5821 15.4651 8.4237C15.4651 4.26532 12.094 0.894287 7.93566 0.894287C3.77728 0.894287 0.40625 4.26532 0.40625 8.4237C0.40625 12.5821 3.77728 15.9531 7.93566 15.9531Z" fill="#2E3148"/>
<path d="M7.93533 12.7923C10.3482 12.7923 12.3043 10.8363 12.3043 8.42337C12.3043 6.01048 10.3482 4.05444 7.93533 4.05444C5.52244 4.05444 3.56641 6.01048 3.56641 8.42337C3.56641 10.8363 5.52244 12.7923 7.93533 12.7923Z" fill="#1B1E36"/>
<path d="M7.95036 1.8551C7.13758 1.8551 6.47852 4.80302 6.47852 8.43948C6.47852 12.0759 7.13758 15.0239 7.95036 15.0239C8.76315 15.0239 9.42221 12.0759 9.42221 8.43948C9.42221 4.80302 8.76315 1.8551 7.95036 1.8551ZM8.05198 14.6523C7.95904 14.7762 7.86609 14.6832 7.86609 14.6832C7.49177 14.2495 7.30461 13.4438 7.30461 13.4438C6.64989 11.3369 6.80573 6.81301 6.80573 6.81301C7.11342 3.22154 7.67315 2.37313 7.86362 2.18477C7.88307 2.16555 7.90868 2.1538 7.93594 2.1516C7.9632 2.14939 7.99036 2.15687 8.01265 2.17272C8.28902 2.36855 8.52081 3.18751 8.52081 3.18751C9.20529 5.72829 9.14331 8.11415 9.14331 8.11415C9.20529 10.1902 8.80032 12.514 8.80032 12.514C8.48859 14.2801 8.05198 14.6523 8.05198 14.6523Z" fill="#6F7390"/>
<path d="M13.6615 5.16234C13.2568 4.4571 10.3721 5.35256 7.21631 7.16215C4.06052 8.97174 1.83447 11.0105 2.23883 11.7155C2.64319 12.4204 5.52822 11.5252 8.68401 9.71564C11.8398 7.90605 14.0658 5.86727 13.6615 5.16234ZM2.61217 11.6187C2.45724 11.5992 2.49224 11.4719 2.49224 11.4719C2.68228 10.9315 3.28704 10.3682 3.28704 10.3682C4.78949 8.7517 8.79128 6.63569 8.79128 6.63569C12.0593 5.11523 13.0744 5.17938 13.3319 5.25028C13.3583 5.25766 13.3813 5.27415 13.3967 5.29684C13.4122 5.31953 13.4191 5.34695 13.4162 5.37424C13.3853 5.71156 12.7887 6.31994 12.7887 6.31994C10.9267 8.17874 8.82628 9.31249 8.82628 9.31249C7.05639 10.3997 4.83913 11.2044 4.83913 11.2044C3.152 11.8124 2.61223 11.6187 2.61223 11.6187H2.61217Z" fill="#6F7390"/>
<path d="M13.647 11.7391C14.0548 11.0357 11.8344 8.98762 8.68972 7.16445C5.54505 5.34127 2.66071 4.43475 2.25329 5.13931C1.84586 5.84387 4.06593 7.89075 7.21241 9.71392C10.3589 11.5371 13.2396 12.4437 13.647 11.7391ZM2.5235 5.41108C2.46326 5.26827 2.59042 5.23388 2.59042 5.23388C3.15337 5.12756 3.94413 5.36982 3.94413 5.36982C6.09542 5.85971 9.93146 8.26258 9.93146 8.26258C12.8849 10.3293 13.3379 11.2396 13.4058 11.498C13.4127 11.5245 13.41 11.5526 13.3982 11.5773C13.3864 11.602 13.3663 11.6218 13.3413 11.6331C13.0334 11.7741 12.2085 11.564 12.2085 11.564C9.66619 10.8823 7.63297 9.63339 7.63297 9.63339C5.80611 8.64808 3.99967 7.13198 3.99967 7.13198C2.62704 5.97626 2.52392 5.41265 2.52392 5.41265L2.5235 5.41108Z" fill="#6F7390"/>
<path d="M7.93478 9.19806C8.3626 9.19806 8.70941 8.85124 8.70941 8.42343C8.70941 7.99562 8.3626 7.6488 7.93478 7.6488C7.50697 7.6488 7.16016 7.99562 7.16016 8.42343C7.16016 8.85124 7.50697 9.19806 7.93478 9.19806Z" fill="#B7B9C8"/>
<path d="M11.1113 5.91417C11.3595 5.91417 11.5606 5.70608 11.5606 5.44939C11.5606 5.19271 11.3595 4.98462 11.1113 4.98462C10.8632 4.98462 10.6621 5.19271 10.6621 5.44939C10.6621 5.70608 10.8632 5.91417 11.1113 5.91417Z" fill="#B7B9C8"/>
<path d="M3.73642 7.49376C3.98457 7.49376 4.18573 7.28567 4.18573 7.02898C4.18573 6.7723 3.98457 6.56421 3.73642 6.56421C3.48827 6.56421 3.28711 6.7723 3.28711 7.02898C3.28711 7.28567 3.48827 7.49376 3.73642 7.49376Z" fill="#B7B9C8"/>
<path d="M7.02159 13.1951C7.26974 13.1951 7.47091 12.987 7.47091 12.7303C7.47091 12.4736 7.26974 12.2655 7.02159 12.2655C6.77343 12.2655 6.57227 12.4736 6.57227 12.7303C6.57227 12.987 6.77343 13.1951 7.02159 13.1951Z" fill="#B7B9C8"/>
</svg>
