<svg width="26" height="16" viewBox="0 0 26 16" fill="none" xmlns="http://www.w3.org/2000/svg">
<g clip-path="url(#clip0_2_3445)">
<path d="M25.8065 8.94613L22.0505 12.7046H18.4818C18.2881 12.705 18.1024 12.7822 17.9655 12.9191C17.8285 13.0561 17.7514 13.2418 17.751 13.4355V15.5774C17.749 15.6902 17.7028 15.7978 17.6223 15.8769C17.5417 15.9559 17.4334 16.0002 17.3205 16.0001H14.5959C14.5393 16.0002 14.4833 15.989 14.4311 15.9674C14.3789 15.9458 14.3314 15.9141 14.2914 15.8741C14.2514 15.8341 14.2197 15.7867 14.1981 15.7344C14.1765 15.6822 14.1654 15.6262 14.1654 15.5697V10.3663L16.3959 8.13593C16.4771 8.05942 16.5849 8.01746 16.6965 8.0189C16.8081 8.02035 16.9148 8.06508 16.9941 8.14367L17.9786 9.1282H20.5592L22.2237 7.46483V5.28133L20.5185 3.56854H18.2243L9.10374 12.689H3.78839L0 8.90329V3.79487L3.79239 0.00258082H8.97626L11.2236 2.24982C11.3006 2.33011 11.3436 2.43704 11.3436 2.54828C11.3436 2.65951 11.3006 2.76644 11.2236 2.84673L9.31316 4.75075C9.23998 4.83515 9.1363 4.88707 9.02489 4.89513C8.91346 4.90318 8.8034 4.86671 8.71884 4.79371C8.70839 4.78455 8.69806 4.77423 8.68761 4.76507L7.49639 3.57796H5.27239L3.57523 5.27488V7.42586L5.2671 9.12046H7.62245L16.7444 0H22L25.8065 3.80648V8.94613Z" fill="#EC1550"/>
</g>
<defs>
<clipPath id="clip0_2_3445">
<rect width="25.8065" height="16" fill="white"/>
</clipPath>
</defs>
</svg>
