<svg width="17" height="16" viewBox="0 0 17 16" fill="none" xmlns="http://www.w3.org/2000/svg">
<g clip-path="url(#clip0_2_3446)">
<path d="M8.8067 15.3361C12.8583 15.3361 16.1427 12.0516 16.1427 8.00006C16.1427 3.9485 12.8583 0.664062 8.8067 0.664062C4.75514 0.664062 1.4707 3.9485 1.4707 8.00006C1.4707 12.0516 4.75514 15.3361 8.8067 15.3361Z" fill="white"/>
<path d="M8.12482 5.04325C7.84444 5.18086 7.59432 5.37301 7.38909 5.60846C7.18387 5.8439 7.02766 6.11791 6.92962 6.41445C6.61 7.2986 6.56758 8.25918 6.80802 9.16805C6.92374 9.6926 7.19011 10.1719 7.57442 10.5473C7.85193 10.8259 8.20242 11.0205 8.58562 11.1089L8.52002 4.90405C8.37122 4.96005 8.24162 4.98885 8.12482 5.04325Z" fill="black"/>
<path d="M8.80664 0C7.22439 0 5.67768 0.469192 4.36208 1.34824C3.04649 2.22729 2.02111 3.47672 1.41561 4.93853C0.810107 6.40034 0.65168 8.00887 0.960362 9.56072C1.26904 11.1126 2.03097 12.538 3.14979 13.6569C4.26861 14.7757 5.69407 15.5376 7.24592 15.8463C8.79777 16.155 10.4063 15.9965 11.8681 15.391C13.3299 14.7855 14.5793 13.7602 15.4584 12.4446C16.3375 11.129 16.8066 9.58225 16.8066 8C16.8066 5.87827 15.9638 3.84344 14.4635 2.34315C12.9632 0.842855 10.9284 0 8.80664 0V0ZM12.1506 10.36C12.1024 10.474 12.0335 10.5781 11.9474 10.6672C11.3995 11.2584 10.6653 11.6435 9.86744 11.7584L9.65784 11.7936C9.64184 11.7936 9.62584 11.808 9.63864 11.8016C9.52984 12.1872 9.45304 12.5632 9.31864 12.9216C9.07064 13.5616 8.65624 14.0736 7.98744 14.3296C7.69372 14.4527 7.36607 14.4685 7.06185 14.3743C6.75763 14.2801 6.49624 14.0819 6.32344 13.8144C6.2342 13.6687 6.17947 13.5045 6.16344 13.3344C6.15281 13.2134 6.18424 13.0924 6.25245 12.9918C6.32065 12.8912 6.42145 12.8173 6.53784 12.7824C6.64923 12.7447 6.76954 12.7423 6.88234 12.7756C6.99513 12.8088 7.09492 12.876 7.16808 12.9681C7.24124 13.0602 7.28421 13.1726 7.29111 13.29C7.29801 13.4073 7.26851 13.524 7.20664 13.624C7.16984 13.6832 7.12344 13.7376 7.08184 13.7936C7.40184 14.0336 7.77304 14.016 8.00504 13.7152C8.14437 13.5198 8.25233 13.3039 8.32504 13.0752C8.46094 12.6493 8.53792 12.2068 8.55384 11.76C8.51545 11.7378 8.47466 11.7201 8.43224 11.7072C7.04664 11.4304 6.14584 10.6032 5.69144 9.28C5.4863 8.72775 5.40852 8.1363 5.46393 7.54979C5.51934 6.96328 5.7065 6.39686 6.01144 5.8928C6.24422 5.49069 6.55969 5.14257 6.93701 4.87144C7.31433 4.60031 7.74489 4.41236 8.20024 4.32L8.46104 4.2624C8.47704 4.2624 8.48984 4.2432 8.51704 4.2256C8.54552 3.73229 8.67113 3.24946 8.88664 2.8048C9.01119 2.51877 9.19363 2.26164 9.42247 2.04961C9.6513 1.83757 9.92157 1.67523 10.2162 1.5728C10.491 1.47749 10.7893 1.47367 11.0665 1.56192C11.3436 1.65017 11.5847 1.82575 11.7538 2.0624C11.851 2.20722 11.9169 2.37069 11.9474 2.5424C11.9665 2.66223 11.9439 2.78499 11.8833 2.89013C11.8227 2.99527 11.7279 3.07642 11.6146 3.12C11.5041 3.16918 11.3807 3.18158 11.2626 3.15537C11.1445 3.12916 11.038 3.06572 10.9586 2.9744C10.8773 2.8846 10.8274 2.7708 10.8165 2.65016C10.8055 2.52952 10.8341 2.40859 10.8978 2.3056C10.9378 2.2384 10.9858 2.1776 11.029 2.1136C10.677 1.872 10.3314 1.9136 10.0802 2.2224C9.85602 2.53394 9.71254 2.89622 9.66264 3.2768C9.60344 3.5712 9.57624 3.872 9.52824 4.2064L9.89784 4.2704C10.4271 4.34697 10.933 4.53927 11.3794 4.8336C11.5185 4.91077 11.6302 5.02911 11.6993 5.17237C11.7683 5.31563 11.7913 5.47675 11.765 5.6336C11.7543 5.80083 11.7662 5.96873 11.8002 6.1328C11.8258 6.336 11.789 6.4432 11.6594 6.4928C11.587 6.51943 11.5071 6.51657 11.4368 6.48486C11.3665 6.45314 11.3114 6.39509 11.2834 6.3232C11.1602 6.1072 11.0578 5.88 10.9362 5.664C10.8195 5.45678 10.6587 5.27772 10.4652 5.13948C10.2717 5.00124 10.0501 4.9072 9.81624 4.864C9.71704 4.848 9.61784 4.8368 9.51704 4.8304L9.57944 11.1536C10.0239 11.0901 10.453 10.9452 10.845 10.7264C11.109 10.5664 11.3474 10.3632 11.5986 10.1808C11.6679 10.1121 11.75 10.0577 11.8402 10.0208C11.8857 10.0136 11.9322 10.0159 11.9768 10.0275C12.0214 10.039 12.0632 10.0596 12.0994 10.088C12.1323 10.1242 12.1545 10.1687 12.1635 10.2168C12.1726 10.2648 12.1681 10.3144 12.1506 10.36Z" fill="black"/>
</g>
<defs>
<clipPath id="clip0_2_3446">
<rect width="16" height="16" fill="white" transform="translate(0.806641)"/>
</clipPath>
</defs>
</svg>
