<svg width="17" height="16" viewBox="0 0 17 16" fill="none" xmlns="http://www.w3.org/2000/svg">
<g clip-path="url(#clip0_2_3450)">
<path d="M8.80664 16C13.2249 16 16.8066 12.4183 16.8066 8C16.8066 3.58172 13.2249 0 8.80664 0C4.38836 0 0.806641 3.58172 0.806641 8C0.806641 12.4183 4.38836 16 8.80664 16Z" fill="#4C6BAE"/>
<path opacity="0.5" fill-rule="evenodd" clip-rule="evenodd" d="M3.99814 8.50499L3.30664 8.57649C3.67664 7.54149 4.40814 6.71349 5.50214 6.09249C5.60564 6.95049 6.01214 7.65999 6.72214 8.22199L6.07214 8.28949C6.13547 8.8863 6.3922 9.44604 6.80319 9.8834C7.21419 10.3208 7.75691 10.6117 8.34864 10.712C7.9129 11.0398 7.39708 11.2444 6.85514 11.3045C7.19564 11.9045 7.59864 12.396 8.06364 12.778C7.00966 12.6137 6.03955 12.1056 5.30427 11.3328C4.56899 10.56 4.10979 9.56584 3.99814 8.50499ZM13.6151 7.49499L14.3066 7.42349C13.9366 8.45849 13.2051 9.28649 12.1111 9.90749C12.0076 9.04949 11.6011 8.33999 10.8911 7.77799L11.5411 7.71049C11.4772 7.10737 11.2157 6.54229 10.7974 6.10311C10.3791 5.66393 9.82743 5.37526 9.22814 5.28199C9.66239 4.95761 10.1754 4.75513 10.7141 4.69549C10.3706 4.09099 9.96464 3.59749 9.49514 3.21399C10.5602 3.36759 11.5437 3.87198 12.2899 4.64735C13.0361 5.42272 13.5025 6.42479 13.6151 7.49499Z" fill="white"/>
<path fill-rule="evenodd" clip-rule="evenodd" d="M9.26849 12.813L9.33998 13.5C8.30499 13.13 7.47698 12.3985 6.85598 11.3045C7.71348 11.201 8.42298 10.7945 8.98498 10.0845L9.05298 10.7395C9.6647 10.6845 10.2404 10.4264 10.6885 10.0064C11.1365 9.5863 11.4312 9.0284 11.5255 8.4215C11.8499 8.85575 12.0523 9.36877 12.112 9.9075C12.7165 9.564 13.21 9.158 13.5935 8.6885C13.4388 9.76111 12.9284 10.7507 12.1442 11.4986C11.3599 12.2465 10.3472 12.7094 9.26849 12.813ZM8.30248 3.1915L8.23098 2.5C9.26598 2.87 10.094 3.6015 10.715 4.6955C9.85699 4.799 9.14748 5.2055 8.58548 5.9155L8.51798 5.2655C7.91486 5.32948 7.34978 5.59095 6.9106 6.00924C6.47143 6.42753 6.18276 6.97921 6.08948 7.5785C5.76511 7.14425 5.56263 6.63123 5.50298 6.0925C4.89848 6.436 4.40498 6.842 4.02148 7.3115C4.17508 6.2464 4.67948 5.26294 5.45485 4.51673C6.23022 3.77052 7.23228 3.30418 8.30248 3.1915Z" fill="white"/>
</g>
<defs>
<clipPath id="clip0_2_3450">
<rect width="16" height="16" fill="white" transform="translate(0.806641)"/>
</clipPath>
</defs>
</svg>
