<svg width="17" height="16" viewBox="0 0 17 16" fill="none" xmlns="http://www.w3.org/2000/svg">
<g clip-path="url(#clip0_2_3449)">
<path d="M8.80664 16C13.2249 16 16.8066 12.4183 16.8066 8C16.8066 3.58172 13.2249 0 8.80664 0C4.38836 0 0.806641 3.58172 0.806641 8C0.806641 12.4183 4.38836 16 8.80664 16Z" fill="#103F68"/>
<path d="M8.79664 2.50916L13.5566 5.25066V10.7507L8.80214 13.5002L8.76364 13.4907L4.05664 10.7507V5.25066L8.76364 2.50916H8.79664ZM8.78114 3.07816L4.55664 5.53816V10.4632L8.78064 12.9227L9.29664 12.6242L13.0566 10.4617V5.53916L9.29664 3.36416L8.78114 3.07816ZM5.21114 8.38316L6.46164 7.44816L7.56714 8.15416V9.42416L8.40364 10.2302L8.40314 10.6082L7.59714 11.3632H6.91664L5.21164 8.38316H5.21114ZM9.16264 10.6092L9.16114 10.2292L9.99464 9.42416V8.15416L11.0881 7.43916L12.3361 8.38366L10.6396 11.3547H9.96764L9.16264 10.6092ZM7.97764 8.15416L7.57064 7.08866H9.98964L9.59064 8.15416L9.70864 9.34516L8.77514 9.34716L7.85264 9.34866L7.97764 8.15416ZM8.77514 6.79666L6.47614 6.79566L6.90364 4.88566H10.6356L11.0856 6.79816L8.77514 6.79666Z" fill="white"/>
</g>
<defs>
<clipPath id="clip0_2_3449">
<rect width="16" height="16" fill="white" transform="translate(0.806641)"/>
</clipPath>
</defs>
</svg>
