<svg width="17" height="16" viewBox="0 0 17 16" fill="none" xmlns="http://www.w3.org/2000/svg">
<g clip-path="url(#clip0_2_3454)">
<path d="M8.62891 16C13.0472 16 16.6289 12.4183 16.6289 8C16.6289 3.58172 13.0472 0 8.62891 0C4.21063 0 0.628906 3.58172 0.628906 8C0.628906 12.4183 4.21063 16 8.62891 16Z" fill="#74D269"/>
<path d="M13.1104 7.256H13.1204L13.1289 9.739L7.54041 13L6.04441 12.159V12.16L6.03491 12.154L4.62891 11.2525V4.742L6.16541 3.8355L6.16841 3.837L7.52491 3L13.0999 6.2815L13.1104 7.256ZM11.4729 8.812L10.3034 8.1425L6.39991 10.4395L7.54591 11.121L11.4729 8.812ZM10.0399 7.992L7.63191 6.613L7.62141 9.4535L10.0399 7.992ZM7.63291 6.309L11.5039 8.5745V7.222L7.63791 4.9645L7.63291 6.309ZM6.03891 11.785L6.05391 10.4285L6.04491 10.434V5.648L4.87141 4.948V11.088L6.03891 11.785ZM6.24691 10.2845L7.41941 9.5755V4.948L6.24691 5.6485V10.2845ZM7.68741 11.3L7.66391 12.718L12.8819 9.65L12.8969 8.24L7.68741 11.3ZM11.5839 7.008L12.7984 6.315L7.57091 3.2625L6.36791 3.9585L11.5839 7.008Z" fill="white"/>
</g>
<defs>
<clipPath id="clip0_2_3454">
<rect width="16" height="16" fill="white" transform="translate(0.628906)"/>
</clipPath>
</defs>
</svg>
