<svg width="17" height="16" viewBox="0 0 17 16" fill="none" xmlns="http://www.w3.org/2000/svg">
<g clip-path="url(#clip0_2_3455)">
<path d="M8.62891 16C13.0472 16 16.6289 12.4183 16.6289 8C16.6289 3.58172 13.0472 0 8.62891 0C4.21063 0 0.628906 3.58172 0.628906 8C0.628906 12.4183 4.21063 16 8.62891 16Z" fill="#2D9CDB"/>
<path d="M10.6559 2.803C10.8519 2.803 11.0099 2.863 11.1294 2.9825C11.2489 3.102 11.3084 3.2595 11.3084 3.456V9.293C11.3084 9.958 11.1509 10.5645 10.8349 11.1105C10.5337 11.6421 10.0963 12.0839 9.56786 12.3905C9.03886 12.6975 8.44586 12.851 7.78836 12.851C7.13136 12.851 6.52986 12.6975 5.98336 12.3905C5.45488 12.0839 5.01756 11.6421 4.71636 11.1105C4.40936 10.5645 4.25586 9.9585 4.25586 9.293C4.25586 8.6275 4.39636 8.0255 4.67836 7.488C4.96836 6.942 5.36086 6.515 5.85586 6.208C6.35936 5.901 6.91836 5.747 7.53236 5.747C8.00515 5.74353 8.47267 5.84643 8.90031 6.04809C9.32795 6.24976 9.70476 6.54501 10.0029 6.912V3.456C10.0029 3.2595 10.0629 3.102 10.1824 2.9825C10.3103 2.86256 10.4805 2.79805 10.6559 2.803ZM7.78836 11.699C8.21536 11.699 8.59936 11.597 8.94036 11.392C9.28747 11.1818 9.57078 10.881 9.75986 10.522C9.95586 10.1545 10.0544 9.745 10.0544 9.293C10.0544 8.841 9.95586 8.435 9.75936 8.077C9.5725 7.71966 9.28863 7.42227 8.94036 7.219C8.59936 7.006 8.21536 6.899 7.78836 6.899C7.36186 6.899 6.97336 7.006 6.62336 7.219C6.27896 7.42713 5.99626 7.7233 5.80436 8.077C5.60836 8.435 5.51036 8.8405 5.51036 9.293C5.51036 9.7455 5.60836 10.1545 5.80436 10.5215C5.99846 10.8771 6.28065 11.1768 6.62386 11.392C6.97386 11.597 7.36186 11.699 7.78886 11.699H7.78836Z" fill="white"/>
</g>
<defs>
<clipPath id="clip0_2_3455">
<rect width="16" height="16" fill="white" transform="translate(0.628906)"/>
</clipPath>
</defs>
</svg>
