<svg width="22" height="16" viewBox="0 0 22 16" fill="none" xmlns="http://www.w3.org/2000/svg">
<g clip-path="url(#clip0_2_3457)">
<path d="M9.75195 9.93208H14.8695C16.7709 9.93208 18.3284 8.39479 18.3284 6.47317C18.3284 4.55155 16.7911 3.03448 14.8898 3.03448H13.2513L9.75195 0.000349586H14.8695C18.4498 -0.019878 21.3626 2.87266 21.3626 6.45294C21.3828 9.10275 19.7646 11.4896 17.2968 12.4808L21.3423 15.9801H16.7305L9.75195 9.93208Z" fill="url(#paint0_linear_2_3457)"/>
<path d="M12.2599 6.06827H7.14237C5.24098 6.06827 3.68346 7.60556 3.68346 9.52718C3.68346 11.4488 5.22075 12.9861 7.14237 12.9861H8.7808L12.2599 16.0202H7.14237C3.56209 16.0202 0.649321 13.1277 0.629094 9.56764C0.608866 6.8976 2.22707 4.51075 4.69483 3.5196L0.649321 0H5.28143L12.2599 6.06827Z" fill="#4971FA"/>
<path d="M12.2599 6.06827H7.14237C5.24098 6.06827 3.68346 7.60556 3.68346 9.52718C3.68346 11.4488 5.22075 12.9861 7.14237 12.9861H8.7808L12.2599 16.0202H7.14237C3.56209 16.0202 0.649321 13.1277 0.629094 9.56764C0.608866 6.8976 2.22707 4.51075 4.69483 3.5196L0.649321 0H5.28143L12.2599 6.06827Z" fill="url(#paint1_linear_2_3457)"/>
</g>
<defs>
<linearGradient id="paint0_linear_2_3457" x1="9.76184" y1="7.99127" x2="21.3582" y2="7.99127" gradientUnits="userSpaceOnUse">
<stop stop-color="#62D0C9"/>
<stop offset="1" stop-color="#7DE2AC"/>
</linearGradient>
<linearGradient id="paint1_linear_2_3457" x1="0.665342" y1="8.00012" x2="12.2618" y2="8.00012" gradientUnits="userSpaceOnUse">
<stop stop-color="#3268FB"/>
<stop offset="1" stop-color="#4795FA"/>
</linearGradient>
<clipPath id="clip0_2_3457">
<rect width="20.7535" height="16" fill="white" transform="translate(0.628906)"/>
</clipPath>
</defs>
</svg>
