<svg width="17" height="16" viewBox="0 0 17 16" fill="none" xmlns="http://www.w3.org/2000/svg">
<g clip-path="url(#clip0_2_3458)">
<path d="M8.38281 16C12.8011 16 16.3828 12.4183 16.3828 8C16.3828 3.58172 12.8011 0 8.38281 0C3.96453 0 0.382812 3.58172 0.382812 8C0.382812 12.4183 3.96453 16 8.38281 16Z" fill="#5BC1D4"/>
<path fill-rule="evenodd" clip-rule="evenodd" d="M7.27531 8.46405L6.45031 9.32605C6.30181 9.48105 6.15631 9.63755 6.00731 9.79155C5.98231 9.81755 5.94681 9.83305 5.91631 9.85355C5.85131 9.84305 5.80131 9.80255 5.79281 9.74355C5.77901 9.65376 5.76667 9.56375 5.75581 9.47355C5.74081 9.35455 5.70431 9.32155 5.58381 9.30655C5.33531 9.27655 5.08731 9.24405 4.83881 9.21155L4.27181 9.13805C4.15881 9.12305 4.11781 9.04205 4.17681 8.94555C4.31281 8.72655 4.44981 8.50855 4.58631 8.29055L5.42131 6.95655C5.45431 6.90255 5.49131 6.86555 5.56231 6.86755C5.60731 6.86855 5.65431 6.85755 5.69881 6.84605C5.75181 6.83305 5.79331 6.84905 5.83031 6.88405C5.89581 6.94555 5.96231 7.00655 6.02731 7.06855L6.78131 7.78405C6.94381 7.93805 7.10781 8.09105 7.27031 8.24505C7.35431 8.32405 7.35431 8.38105 7.27531 8.46405ZM12.8203 9.62355C12.8673 9.66255 12.9183 9.69955 12.9283 9.76605C12.9408 9.85105 12.9068 9.91255 12.8348 9.95905C12.4098 10.2341 11.9848 10.5106 11.5598 10.7861L10.7383 11.3186C10.7124 11.335 10.6877 11.3532 10.6643 11.3731C10.6436 11.39 10.6272 11.4116 10.6163 11.4361C10.6055 11.4606 10.6005 11.4873 10.6018 11.5141C10.6058 11.6166 10.6118 11.7191 10.6133 11.8211C10.6148 11.9386 10.5283 12.0121 10.4103 11.9986C10.3678 11.9929 10.3292 11.9709 10.3028 11.9371C10.204 11.823 10.1053 11.7089 10.0068 11.5946C9.88331 11.4516 9.76031 11.3076 9.63631 11.1651C9.61077 11.1395 9.59141 11.1085 9.57971 11.0744C9.56801 11.0402 9.56428 11.0039 9.56881 10.9681L9.58581 10.3706C9.58781 10.3006 9.62931 10.2556 9.68531 10.2196L10.3643 9.78555C10.7443 9.54305 11.1253 9.30155 11.5043 9.05655C11.5843 9.00505 11.6588 8.98955 11.7468 9.03455C11.8118 9.06755 11.8853 9.07355 11.9558 9.05155C12.0613 9.01805 12.1423 9.04755 12.2238 9.11955C12.4188 9.29155 12.6213 9.45555 12.8208 9.62355H12.8203ZM9.17131 10.1196C9.20217 10.1497 9.22414 10.1878 9.23481 10.2296C9.25331 10.3231 9.21631 10.3866 9.12831 10.4291C8.83581 10.5701 8.54381 10.7126 8.24881 10.8491C8.19581 10.8731 8.12931 10.8761 8.06881 10.8791C7.82431 10.8901 7.57981 10.8966 7.33531 10.9066C7.19081 10.9121 7.04681 10.9211 6.91381 10.9281H6.81581C6.79365 10.9286 6.77159 10.9247 6.75098 10.9165C6.73036 10.9084 6.7116 10.8961 6.69581 10.8806C6.66481 10.8521 6.63281 10.8246 6.60231 10.7956C6.43031 10.6321 6.26131 10.4656 6.08581 10.3056C5.98781 10.2166 5.98631 10.0971 6.07981 10.0016C6.29031 9.78455 6.49831 9.56555 6.70731 9.34655C6.93281 9.11055 7.15831 8.87355 7.38331 8.63655C7.40038 8.61647 7.42139 8.60009 7.44503 8.58843C7.46867 8.57677 7.49445 8.57008 7.52078 8.56876C7.54711 8.56745 7.57343 8.57155 7.59812 8.5808C7.6228 8.59005 7.64533 8.60426 7.66431 8.62255L8.56431 9.51705C8.76631 9.71805 8.97031 9.91705 9.17131 10.1196ZM10.4103 6.09505C10.3138 5.94605 10.4228 5.74005 10.5833 5.71355C11.0123 5.64205 11.4398 5.56005 11.8683 5.48555C11.9628 5.46905 12.0378 5.51255 12.0898 5.59055C12.1798 5.72555 12.2683 5.86105 12.3573 5.99655C12.5453 6.28155 12.7338 6.56655 12.9198 6.85255C12.9448 6.89105 12.9573 6.93755 12.9758 6.98005L12.9648 6.98505C12.9617 7.05805 12.9347 7.128 12.8878 7.18405C12.6258 7.53605 12.3608 7.88655 12.0993 8.23905C12.0746 8.27033 12.0427 8.29512 12.0063 8.31127C11.9699 8.32742 11.9301 8.33444 11.8903 8.33174C11.8506 8.32903 11.8121 8.31667 11.7782 8.29572C11.7443 8.27478 11.716 8.24589 11.6958 8.21155C11.3133 7.57655 10.9268 6.94355 10.5418 6.31005C10.4983 6.23805 10.4558 6.16505 10.4103 6.09505ZM9.65781 7.86105L9.58281 8.52855C9.56181 8.71355 9.53931 8.89755 9.51831 9.08255L9.44431 9.73255C9.43931 9.77805 9.43881 9.82455 9.42931 9.86855C9.42431 9.89005 9.40831 9.91755 9.39031 9.92455C9.37231 9.93155 9.34031 9.92155 9.32431 9.90805C9.25331 9.84655 9.18581 9.78155 9.11781 9.71705C8.87281 9.48505 8.62931 9.25255 8.38431 9.02155C8.17131 8.82005 7.95781 8.62005 7.74381 8.42005C7.67281 8.35405 7.67231 8.33305 7.74081 8.26155L8.71981 7.23655L9.38831 6.53455L9.71631 6.18955C9.72581 6.17955 9.73381 6.16605 9.74531 6.16205C9.76881 6.15355 9.79781 6.14205 9.81831 6.14855C9.83531 6.15455 9.84331 6.18505 9.84831 6.19355L9.79831 6.63355L9.73381 7.19905L9.65781 7.86105ZM11.5608 8.37105C11.5928 8.42255 11.5978 8.47155 11.5628 8.52505C11.5247 8.58507 11.5084 8.65643 11.5168 8.72705C11.5228 8.79005 11.4968 8.82855 11.4433 8.86205C11.0248 9.12755 10.6083 9.39505 10.1913 9.66205C10.0603 9.74605 9.92931 9.82955 9.79781 9.91255C9.74581 9.94555 9.69231 9.94305 9.66381 9.90105C9.64781 9.87805 9.64581 9.84605 9.64131 9.83005L9.69631 9.42605L9.81881 8.53505L9.95381 7.56005L10.0853 6.60655L10.1353 6.25155C10.1363 6.24205 10.1368 6.23105 10.1418 6.22405C10.1548 6.20755 10.1693 6.18305 10.1858 6.18005C10.2038 6.17705 10.2318 6.19105 10.2433 6.20655C10.2738 6.24755 10.2983 6.29305 10.3253 6.33705L11.3028 7.94505C11.3888 8.08705 11.4738 8.22955 11.5608 8.37055V8.37105ZM9.53431 5.91905C9.54981 5.92905 9.57981 5.93955 9.59581 5.96105C9.62031 5.99405 9.59881 6.02505 9.57331 6.05155L9.23331 6.40905L8.24231 7.44605C8.03531 7.66355 7.82931 7.88205 7.62231 8.09905C7.54731 8.17705 7.48731 8.17705 7.40931 8.10305C7.16781 7.87405 6.92631 7.64405 6.68431 7.41555C6.44931 7.19355 6.21331 6.97205 5.97731 6.75055C5.94581 6.72055 5.92081 6.68805 5.92431 6.64205C5.92931 6.57955 5.96531 6.54405 6.03681 6.53205C6.16731 6.50855 6.29831 6.48555 6.42931 6.46305L7.68681 6.24305L9.17181 5.98255L9.53431 5.91905ZM6.16481 6.23505C6.39781 6.07555 6.63081 5.91705 6.86431 5.75855L9.11931 4.22255C9.19431 4.17155 9.24181 4.18205 9.27931 4.26305C9.43481 4.59605 9.58931 4.92955 9.74431 5.26305C9.76431 5.30605 9.78331 5.34955 9.80381 5.39305C9.82031 5.42805 9.80931 5.45655 9.78831 5.48805C9.76101 5.52666 9.73788 5.56806 9.71931 5.61155C9.70281 5.65305 9.67781 5.67555 9.63281 5.68355C9.30081 5.74255 8.96931 5.80355 8.63781 5.86255L7.46081 6.07405L6.17581 6.30505C6.15781 6.30805 6.13931 6.30505 6.12081 6.30505L6.10981 6.28455C6.12831 6.26805 6.14481 6.24905 6.16481 6.23505ZM3.81981 6.99805C3.67281 6.99505 3.58531 6.85205 3.65581 6.72055C3.71531 6.60955 3.78131 6.50255 3.84531 6.39405C4.02931 6.07955 4.21431 5.76605 4.39731 5.45155C4.42717 5.4002 4.47036 5.35787 4.52231 5.32905C5.01031 5.04855 5.49731 4.76655 5.98531 4.48555C6.01629 4.4666 6.05028 4.45307 6.08581 4.44555C6.11912 4.43898 6.15363 4.44229 6.18508 4.45508C6.21653 4.46788 6.24355 4.48959 6.26281 4.51755C6.28411 4.54488 6.29705 4.57778 6.30007 4.61229C6.30309 4.6468 6.29605 4.68145 6.27981 4.71205C6.20631 4.86905 6.12981 5.02455 6.05481 5.18055C5.91481 5.46655 5.77481 5.75205 5.63631 6.03855C5.6232 6.07022 5.60276 6.09833 5.57669 6.12058C5.55062 6.14282 5.51965 6.15858 5.48631 6.16655C5.42429 6.18134 5.36756 6.21298 5.32238 6.25798C5.27721 6.30298 5.24534 6.35959 5.23031 6.42155C5.22272 6.45215 5.20722 6.48022 5.18537 6.50295C5.16352 6.52567 5.13609 6.54226 5.10581 6.55105C4.70481 6.69205 4.30431 6.83605 3.90381 6.97855C3.87681 6.98855 3.84831 6.99155 3.82031 6.99855L3.81981 6.99805ZM5.89631 6.08505C5.8983 6.06419 5.90406 6.04386 5.91331 6.02505L6.43731 4.87655C6.54631 4.63755 6.65681 4.39905 6.76431 4.15955C6.78931 4.10455 6.82581 4.07705 6.88781 4.07455C7.05131 4.06955 7.21481 4.06105 7.37831 4.05455L8.34331 4.01805C8.45631 4.01305 8.56981 4.00555 8.68331 4.00005C8.76431 3.99655 8.81981 4.04555 8.82031 4.12505C8.82381 4.17355 8.79281 4.20505 8.75281 4.23255L8.44381 4.44305L6.59681 5.69955L6.00681 6.10155C5.99305 6.11196 5.97832 6.121 5.96281 6.12855C5.92781 6.14355 5.89431 6.12255 5.89631 6.08505ZM5.21481 6.91005C5.13331 7.04155 5.05081 7.17205 4.96881 7.30305C4.66231 7.79305 4.35581 8.28355 4.04881 8.77305C4.03615 8.79651 4.01919 8.81737 3.99881 8.83455C3.94581 8.87255 3.87531 8.84605 3.85031 8.77955C3.81031 8.67255 3.77231 8.56455 3.73381 8.45705L3.39931 7.51605C3.39131 7.49255 3.38581 7.46855 3.38281 7.45705C3.38331 7.39355 3.40431 7.36655 3.46381 7.34705C3.64181 7.28955 3.81981 7.23305 3.99781 7.17655L5.00531 6.85655L5.13781 6.81555C5.16931 6.80555 5.20081 6.79205 5.22681 6.82705C5.25031 6.85855 5.23081 6.88455 5.21481 6.91005ZM13.2738 8.21455L13.3748 8.79255C13.3778 8.81105 13.3798 8.83005 13.3828 8.85455C13.3778 8.87955 13.3723 8.90955 13.3643 8.93855L13.2318 9.41655C13.1938 9.55405 13.0848 9.58655 12.9748 9.49355C12.7493 9.30355 12.5228 9.11355 12.2963 8.92455C12.2448 8.88155 12.2233 8.83205 12.2353 8.76405C12.25 8.69635 12.2419 8.62569 12.2123 8.56305C12.1813 8.50155 12.1913 8.44705 12.2318 8.39305C12.4168 8.14505 12.6003 7.89605 12.7848 7.64805L12.8973 7.49605C12.9348 7.44455 12.9843 7.41955 13.0473 7.43355C13.1133 7.44855 13.1473 7.49355 13.1583 7.55805L13.2733 8.21455H13.2738ZM9.49181 4.24255L9.48181 4.22155C9.46831 4.19155 9.46281 4.15655 9.49331 4.13955C9.52008 4.12755 9.55032 4.12577 9.57831 4.13455C9.62231 4.14805 9.66181 4.17305 9.70331 4.19355L11.3843 5.03305L11.6828 5.18305C11.7163 5.19955 11.7428 5.21905 11.7358 5.26105C11.7288 5.30255 11.6973 5.31155 11.6608 5.31805C11.2568 5.39005 10.8533 5.46305 10.4498 5.53555L10.4103 5.54355C10.3988 5.53605 10.3768 5.52755 10.3628 5.51155C10.3269 5.46634 10.2816 5.4294 10.2301 5.40326C10.1786 5.37711 10.122 5.36238 10.0643 5.36005C10.0193 5.35805 9.99631 5.33155 9.97931 5.29405C9.90831 5.14005 9.83581 4.98705 9.76431 4.83355L9.49181 4.24255Z" fill="white"/>
</g>
<defs>
<clipPath id="clip0_2_3458">
<rect width="16" height="16" fill="white" transform="translate(0.382812)"/>
</clipPath>
</defs>
</svg>
