<svg width="17" height="16" viewBox="0 0 17 16" fill="none" xmlns="http://www.w3.org/2000/svg">
<g clip-path="url(#clip0_2_3460)">
<path d="M8.38281 16C12.8011 16 16.3828 12.4183 16.3828 8C16.3828 3.58172 12.8011 0 8.38281 0C3.96453 0 0.382812 3.58172 0.382812 8C0.382812 12.4183 3.96453 16 8.38281 16Z" fill="#136485"/>
<path fill-rule="evenodd" clip-rule="evenodd" d="M5.60083 15.503C4.55322 15.1138 3.59874 14.5095 2.79883 13.729L2.87233 13.6005C4.06633 11.714 5.13883 9.7615 5.94633 7.6755C6.80283 5.463 7.48833 3.192 8.14133 0.912C8.19983 0.7085 8.26933 0.5085 8.33333 0.307C8.40233 0.386 8.42733 0.4595 8.44833 0.534C8.85833 1.997 9.25483 3.464 9.68033 4.922C10.4553 7.5785 11.5453 10.0985 12.9888 12.4605C13.1573 12.7355 13.4438 13.1965 13.8488 13.8415C12.9867 14.6496 11.9561 15.2565 10.8313 15.6185C10.0023 13.0886 9.16867 10.5603 8.33033 8.0335L8.25333 8.0325C7.67033 9.671 6.78633 12.161 5.60083 15.503ZM8.42033 0.0245H8.35833L8.38283 0L8.42033 0.0245Z" fill="white"/>
</g>
<defs>
<clipPath id="clip0_2_3460">
<rect width="16" height="16" fill="white" transform="translate(0.382812)"/>
</clipPath>
</defs>
</svg>
