<svg width="17" height="16" viewBox="0 0 17 16" fill="none" xmlns="http://www.w3.org/2000/svg">
<g clip-path="url(#clip0_2_3462)">
<path d="M8.38222 15.3197C12.4248 15.3197 15.7019 12.0426 15.7019 8.00001C15.7019 3.95745 12.4248 0.680298 8.38222 0.680298C4.33965 0.680298 1.0625 3.95745 1.0625 8.00001C1.0625 12.0426 4.33965 15.3197 8.38222 15.3197Z" fill="#002352" stroke="#0066CC" stroke-width="1.36057" stroke-miterlimit="10"/>
<path d="M4.28035 6.09924H9.44917C9.44917 6.09924 11.2332 6.08256 9.9994 8.38352C9.9994 8.38352 9.09902 10.1843 6.86476 10.1509L8.06859 7.07631C8.08312 7.03986 8.08862 7.00043 8.08462 6.96139C8.08062 6.92235 8.06724 6.88486 8.04562 6.85211C8.024 6.81935 7.99479 6.79231 7.96047 6.77329C7.92614 6.75426 7.88773 6.74381 7.8485 6.74284L6.26451 6.71616L4.26367 11.5849C4.26367 11.5849 4.93062 11.6516 5.29744 11.6182L5.09735 12.1184H6.04108C6.06725 12.1186 6.09284 12.1107 6.11433 12.0958C6.13583 12.0809 6.15218 12.0596 6.16113 12.035L6.3312 11.5849L6.73137 11.5515L6.49794 12.1184H7.41832C7.45219 12.1187 7.48533 12.1086 7.51333 12.0895C7.54133 12.0704 7.56286 12.0433 7.57505 12.0117L7.83183 11.3514C7.83183 11.3514 10.633 10.8846 11.9002 8.61695C11.9002 8.61695 13.6009 5.98252 11.6001 5.0488C11.2101 4.87 10.7931 4.7573 10.3662 4.71533L10.5996 4.13842C10.6067 4.1213 10.6095 4.10271 10.6077 4.08427C10.606 4.06583 10.5997 4.0481 10.5895 4.03263C10.5793 4.01717 10.5655 4.00444 10.5492 3.99556C10.533 3.98668 10.5148 3.98192 10.4963 3.98169H9.63258L9.3658 4.68198H8.99898L9.20573 4.13842C9.21209 4.12102 9.21421 4.10235 9.21193 4.08396C9.20964 4.06558 9.20301 4.048 9.19258 4.03268C9.18215 4.01737 9.16823 4.00475 9.15196 3.99589C9.13569 3.98702 9.11754 3.98215 9.09902 3.98169H8.23199L7.96521 4.68198H5.27076C5.19834 4.68174 5.12722 4.70115 5.06497 4.73815C5.00272 4.77515 4.95167 4.82834 4.91728 4.89207L4.28035 6.09924Z" fill="white"/>
</g>
<defs>
<clipPath id="clip0_2_3462">
<rect width="16" height="16" fill="white" transform="translate(0.382812)"/>
</clipPath>
</defs>
</svg>
