<svg width="17" height="16" viewBox="0 0 17 16" fill="none" xmlns="http://www.w3.org/2000/svg">
<g clip-path="url(#clip0_2_3464)">
<path d="M8.38281 16C12.8011 16 16.3828 12.4183 16.3828 8C16.3828 3.58172 12.8011 0 8.38281 0C3.96453 0 0.382812 3.58172 0.382812 8C0.382812 12.4183 3.96453 16 8.38281 16Z" fill="#F4D029"/>
<path fill-rule="evenodd" clip-rule="evenodd" d="M6.63281 5.5V7H3.13281V5.5H6.63281ZM7.13281 5.5H8.13281V10.5H3.13281V7.5H7.13281V5.5ZM4.13281 8.5V9.5H7.13281V8.5H4.13281ZM13.6328 6.5H9.63281V9.5H12.6328V8.5H10.6328V7.5H13.6328V10.5H8.63281V5.5H13.6328V6.5Z" fill="white"/>
</g>
<defs>
<clipPath id="clip0_2_3464">
<rect width="16" height="16" fill="white" transform="translate(0.382812)"/>
</clipPath>
</defs>
</svg>
