<svg width="17" height="16" viewBox="0 0 17 16" fill="none" xmlns="http://www.w3.org/2000/svg">
<g clip-path="url(#clip0_2_3466)">
<path opacity="0.25" d="M7.03853 7.31198L5.13366 4.0164L3.19692 0.687978C3.08619 0.500148 2.93261 0.341163 2.74872 0.223999H2.7327C2.53632 0.337695 2.37555 0.503925 2.26847 0.703994L0.827914 3.19999C0.725729 3.37475 0.671875 3.57355 0.671875 3.776C0.671875 3.97844 0.725729 4.17724 0.827914 4.35201L2.5566 7.34393C2.68465 7.55189 2.7327 7.79189 2.7327 8.03189C2.73132 8.27218 2.67084 8.50844 2.5566 8.71985L0.84393 11.6796C0.741746 11.8543 0.687891 12.0531 0.687891 12.2556C0.687891 12.458 0.741746 12.6568 0.84393 12.8316L2.28449 15.3276C2.39652 15.5196 2.5566 15.6955 2.74872 15.8076H2.76514C2.95726 15.6955 3.10132 15.5355 3.21335 15.3436L5.13415 12.0157L7.03853 8.6879C7.15656 8.47782 7.21855 8.2409 7.21855 7.99994C7.21855 7.75897 7.15656 7.52205 7.03853 7.31198Z" fill="url(#paint0_linear_2_3466)"/>
<path opacity="0.25" d="M16.2262 7.21594L14.3054 3.90394L12.3367 0.496011C12.2458 0.341494 12.1263 0.205734 11.9846 0.0960154C11.9045 0.0320325 11.8244 0 11.7284 0C10.72 0 10.0317 0.0320325 9.5195 0.0320325C9.4395 0.0320325 9.39145 0.128048 9.40747 0.208047L9.90364 2.99241C9.90364 3.02445 9.90364 3.0564 9.88762 3.08843C9.69551 3.44046 9.71153 3.8724 9.91966 4.22443L11.6804 7.29627C11.8084 7.52025 11.8725 7.76025 11.8725 8.00025C11.8725 8.24024 11.8084 8.48024 11.6804 8.70422L9.90364 11.7761C9.69559 12.1281 9.69559 12.56 9.87161 12.9121C9.88803 12.9441 9.88803 12.976 9.88803 13.0081L9.39186 15.776C9.37544 15.856 9.42389 15.952 9.50389 15.952C9.96811 15.952 9.31178 16 11.7768 16C11.8248 16 11.8888 15.9836 11.9369 15.968C12.113 15.904 12.225 15.6959 12.321 15.52L14.2898 12.0961L16.1946 8.78406C16.4985 8.30382 16.4985 7.71195 16.2266 7.21594" fill="url(#paint1_linear_2_3466)"/>
<path d="M15.442 7.31201L11.6165 0.687965C11.3764 0.272032 10.9282 0 10.432 0H2.78087C2.52477 0 2.28469 0.0799998 2.06055 0.207967V0.223983C2.24444 0.341148 2.39802 0.500134 2.50875 0.687965L4.42955 4.01642C4.60565 3.93642 4.81369 3.88845 5.0058 3.88845H8.17504C8.67122 3.88845 9.11959 4.14446 9.3595 4.57641L10.9441 7.31201C11.1842 7.72803 11.1842 8.25599 10.9441 8.68803L9.3595 11.424C9.11942 11.8401 8.6552 12.112 8.17504 12.112H5.02174C4.82268 12.1114 4.62611 12.0677 4.44548 11.984L2.52477 15.312C2.41403 15.4998 2.26045 15.6588 2.07656 15.776V15.7924C2.28461 15.9204 2.54079 16.0004 2.79688 16.0004H10.4636C10.9598 16.0004 11.4082 15.7444 11.6481 15.3124L15.4738 8.68794C15.6981 8.25599 15.6981 7.74396 15.442 7.31201Z" fill="url(#paint2_linear_2_3466)"/>
<path d="M6.33462 7.31198L4.42983 4.0164L2.50903 0.687978C2.39829 0.500148 2.24471 0.341163 2.06082 0.223999H2.04514C1.84875 0.337695 1.68799 0.503925 1.58091 0.703994L0.156039 3.18397C0.0538544 3.35873 0 3.55753 0 3.75998C0 3.96242 0.0538544 4.16123 0.156039 4.33599L1.88473 7.32791C2.01277 7.53587 2.06082 7.77587 2.06082 8.01587C2.05944 8.25616 1.99897 8.49242 1.88473 8.70383L0.156039 11.6796C0.0538544 11.8543 0 12.0531 0 12.2556C0 12.458 0.0538544 12.6568 0.156039 12.8316L1.59668 15.3278C1.70871 15.5199 1.86879 15.6958 2.06091 15.8078H2.07733C2.26945 15.6958 2.41351 15.5358 2.52554 15.3438L4.44593 12.0163L6.35064 8.72034C6.59072 8.25595 6.59072 7.74392 6.33462 7.31198Z" fill="url(#paint3_linear_2_3466)"/>
</g>
<defs>
<linearGradient id="paint0_linear_2_3466" x1="0.686396" y1="8.01579" x2="7.21544" y2="8.01579" gradientUnits="userSpaceOnUse">
<stop stop-color="#00BA96"/>
<stop offset="0.52" stop-color="#00D9AF"/>
<stop offset="1" stop-color="#00D9AF"/>
</linearGradient>
<linearGradient id="paint1_linear_2_3466" x1="9.39983" y1="8" x2="16.438" y2="8" gradientUnits="userSpaceOnUse">
<stop stop-color="#008D85"/>
<stop offset="1" stop-color="#00FFE0"/>
</linearGradient>
<linearGradient id="paint2_linear_2_3466" x1="2.06055" y1="7.99998" x2="15.6383" y2="7.99998" gradientUnits="userSpaceOnUse">
<stop stop-color="#008D94"/>
<stop offset="1" stop-color="#00FFE0"/>
</linearGradient>
<linearGradient id="paint3_linear_2_3466" x1="-1.72259e-05" y1="8.01587" x2="6.52879" y2="8.01587" gradientUnits="userSpaceOnUse">
<stop stop-color="#00BA96"/>
<stop offset="0.52" stop-color="#00D9AF"/>
<stop offset="1" stop-color="#00FAAF"/>
</linearGradient>
<clipPath id="clip0_2_3466">
<rect width="16.4269" height="16" fill="white"/>
</clipPath>
</defs>
</svg>
