<svg width="14" height="16" viewBox="0 0 14 16" fill="none" xmlns="http://www.w3.org/2000/svg">
<g clip-path="url(#clip0_2_3469)">
<path d="M5.77185 4.86711C5.52122 4.85902 5.27867 4.9237 5.06038 5.05306C4.70464 5.27135 4.27614 5.60283 3.88807 6.08792C2.86937 7.36534 2.87746 8.81253 2.89363 9.24912C2.9098 9.58868 3.05532 11.4482 4.63188 12.7903C5.86078 13.8332 7.21904 13.9464 7.66371 13.9626C7.98711 13.9788 9.67685 14.0111 11.0998 12.7094C12.5793 11.3593 12.6521 9.5806 12.6602 9.27337C12.6763 9.01465 12.6844 8.67509 12.6198 8.27893C12.5632 7.92319 12.4661 7.62405 12.3772 7.38959C12.1347 7.26023 11.787 7.05003 11.4474 6.70238C11.0917 6.33856 10.8815 5.96665 10.7602 5.70793C10.736 5.60283 10.6955 5.4573 10.5985 5.30369C10.4368 5.04497 10.2266 4.91561 10.1134 4.85902C10.3236 4.82668 10.7845 4.79434 11.2857 5.02072C11.5525 5.14199 11.7466 5.30369 11.8759 5.42496C11.9002 5.36028 11.9406 5.22284 11.9164 5.06114C11.8921 4.8671 11.8032 4.72966 11.7547 4.67307C11.9164 4.75392 12.4823 5.05306 12.7653 5.7241C12.9512 6.17686 12.9351 6.5811 12.9108 6.77514C13.1048 7.07428 13.3474 7.51895 13.5172 8.09298C13.6789 8.62658 13.7193 9.10359 13.7193 9.45124C13.7355 9.8474 13.7921 11.998 12.1427 13.7443C10.1619 15.8383 7.42116 15.5392 7.13011 15.4987C7.29989 15.5958 7.51818 15.6928 7.7769 15.7655C8.42369 15.9434 8.98155 15.8464 9.29686 15.7655C8.60964 15.9596 7.30798 16.2102 5.83653 15.7575C2.44896 14.7064 1.49494 10.9227 1.43026 10.6721C1.48686 11.1006 1.57579 11.5614 1.69706 12.0465C1.88301 12.8307 2.12556 13.5179 2.36811 14.1081C1.98003 13.6877 1.4626 13.0167 1.05027 12.0869C0.565178 10.9955 0.451989 10.0253 0.427734 9.41081C0.435819 8.73977 0.540923 7.56746 1.15537 6.29813C2.02854 4.48711 3.41914 3.54927 4.02551 3.18545C3.977 3.18545 3.91232 3.16928 3.83956 3.13694C3.69403 3.07226 3.61318 2.96716 3.58084 2.91865C3.80722 2.88631 4.09019 2.82163 4.4055 2.70035C4.72081 2.57908 4.97144 2.43355 5.1574 2.31228C4.65613 2.11016 4.08211 1.85144 3.47574 1.49571C2.89363 1.15614 2.39236 0.800404 1.98812 0.477009L2.78044 0.905508L2.17407 0.37999C2.6915 0.72764 3.34638 1.09955 4.13061 1.42294C4.6723 1.64932 5.18165 1.81102 5.6344 1.93229C5.38377 1.79485 5.08463 1.60081 4.78549 1.33401C4.28423 0.897423 3.96083 0.428499 3.76679 0.0808489C3.977 0.266801 4.19529 0.444669 4.4055 0.630622L3.85573 0C4.30848 0.444669 4.94719 0.978272 5.78802 1.43911C6.26503 1.69783 6.71778 1.89186 7.11394 2.03739C7.46159 2.09399 7.80116 2.15058 8.14881 2.20718C8.25391 2.22335 8.43986 2.27185 8.61773 2.41738C8.69049 2.47398 8.74709 2.53866 8.78751 2.58717C8.83602 2.65184 8.9007 2.72461 8.97346 2.79737C9.09474 2.91865 9.20793 3.01566 9.32111 3.08843L10.9543 3.06417C11.0594 3.06417 11.1321 3.16119 11.1079 3.25821C11.027 3.58161 10.8572 4.04245 10.4449 4.40627C10.3479 4.4952 10.2428 4.56796 10.1458 4.62456C10.2105 4.53562 10.2994 4.40627 10.356 4.2284C10.3964 4.09904 10.4207 3.98585 10.4287 3.89692C10.3641 3.9616 10.2913 4.03436 10.1862 4.09904C10.0326 4.20414 9.87897 4.26074 9.77387 4.29308C9.83046 4.22031 9.88706 4.12329 9.94365 4.01819C10.0002 3.91309 10.0407 3.80798 10.073 3.71905C9.95982 3.72714 9.79812 3.7433 9.60409 3.82415C9.39388 3.905 9.24835 4.01819 9.15942 4.09904C9.15942 4.02628 9.17559 3.93734 9.20793 3.83224C9.23218 3.75947 9.26452 3.6948 9.28877 3.64629C9.24027 3.61395 9.19176 3.58969 9.13516 3.55735C8.93304 3.46842 8.74709 3.46842 8.62581 3.4765C8.50454 3.4765 8.18114 3.50076 7.86583 3.72713C7.75265 3.80798 7.66371 3.89692 7.59095 3.98585C7.43733 4.17989 7.44542 4.46286 7.6152 4.64881V4.6569C7.68797 4.72966 7.76882 4.78626 7.84158 4.8186C8.09221 4.93987 8.38327 4.91561 8.62581 4.78626C8.6339 4.77817 8.64198 4.77817 8.65007 4.77009C8.74709 4.71349 8.81985 4.64881 8.86836 4.59222C8.87645 4.64881 8.88453 4.762 8.84411 4.89944C8.81177 5.01263 8.75517 5.09348 8.71475 5.13391C8.81177 5.15008 8.92495 5.15816 9.05431 5.15816C9.28069 5.15008 9.45856 5.09348 9.57983 5.04497C9.49898 5.22284 9.32111 5.57049 8.94112 5.86155C8.65007 6.08792 8.35901 6.19303 8.18115 6.23345C8.24582 6.13643 8.31859 5.99899 8.3671 5.82112C8.38327 5.77261 8.39135 5.7241 8.39944 5.68368C8.42369 5.56241 8.37518 5.44113 8.27816 5.36028C8.16498 5.26326 8.0437 5.25518 8.00328 5.24709H7.33223C7.09777 5.24709 6.87139 5.27943 6.64502 5.34411C6.52374 5.37645 6.39438 5.40879 6.25694 5.43305C5.91738 5.49773 5.61015 5.53007 5.35143 5.53815C5.53739 5.50581 5.86078 5.42496 6.16801 5.18242C6.2812 5.09348 6.37013 4.99646 6.43481 4.91561L5.77185 4.86711Z" fill="#EFB13B"/>
</g>
<defs>
<clipPath id="clip0_2_3469">
<rect width="13.2835" height="16" fill="white" transform="translate(0.427734)"/>
</clipPath>
</defs>
</svg>
