<svg width="16" height="16" viewBox="0 0 16 16" fill="none" xmlns="http://www.w3.org/2000/svg">
<g clip-path="url(#clip0_2_3470)">
<path d="M11.1152 3.93573C11.1152 3.93573 11.3676 3.68335 11.4824 3.43097C11.4824 3.43097 11.207 3.10968 11.4824 2.7885C11.4824 2.7885 11.5512 2.37596 11.2528 2.14603C11.2528 2.14603 11.7806 1.73349 12.3772 2.44428C12.3772 2.44428 12.5607 2.30668 12.7214 2.53613C12.7214 2.53613 14.4881 2.99502 13.9146 6.18444L11.1152 3.93573Z" fill="#1797E5" stroke="#122A44" stroke-width="0.230603" stroke-miterlimit="10"/>
<path d="M12.0912 3.58017C12.0912 3.58017 12.2975 3.64896 12.4124 3.5343C12.4124 3.5343 12.8178 4.30672 12.5233 5.06774L11.6094 4.45208C11.6094 4.45208 12.0912 4.22252 12.0912 3.58017Z" fill="url(#paint0_linear_2_3470)" stroke="#122A44" stroke-width="0.0691773" stroke-linejoin="round"/>
<path d="M12.5781 3.41713C12.5781 3.41713 12.7844 3.4181 12.9001 3.25806C12.9001 3.25806 13.883 4.03545 13.4039 5.78838L12.7304 5.11582C12.7304 5.11582 13.1244 4.31464 12.5781 3.41713Z" fill="url(#paint1_linear_2_3470)" stroke="#122A44" stroke-width="0.0691773" stroke-linejoin="round"/>
<path d="M2.3002 5.35559C2.3002 5.35559 0.882399 5.88607 1.08891 6.64332C1.08891 6.64332 1.13259 6.89254 1.58117 6.82533C1.58117 6.82533 2.56957 5.4216 2.3002 5.35559Z" fill="#1797E5" stroke="#122A44" stroke-width="0.253662" stroke-miterlimit="10"/>
<path d="M1.77213 10.4984C1.77213 10.4984 1.17516 11.2086 1.7009 11.9831C1.71705 12.0071 1.7406 12.0251 1.76796 12.0345C1.79533 12.0438 1.825 12.044 1.85245 12.0349C2.02584 11.9769 2.40283 11.7801 2.7422 11.1176L1.77213 10.4984ZM2.71211 12.4111C2.66358 12.6584 2.60813 13.2192 3.02237 13.5426C3.03535 13.5528 3.05071 13.5595 3.067 13.5622C3.0833 13.5648 3.1 13.5633 3.11555 13.5578C3.22961 13.5171 3.51026 13.3739 3.75329 12.9056C3.75933 12.894 3.76302 12.8814 3.76413 12.8684C3.76524 12.8554 3.76375 12.8423 3.75975 12.8299C3.75575 12.8174 3.74933 12.8059 3.74084 12.796C3.73236 12.7861 3.72199 12.778 3.71034 12.7721L2.85225 12.3431C2.83879 12.3363 2.82395 12.3328 2.80889 12.3327C2.79382 12.3326 2.77894 12.336 2.76539 12.3425C2.75184 12.3491 2.73999 12.3587 2.73075 12.3706C2.72151 12.3825 2.71513 12.3964 2.71211 12.4111Z" fill="#1797E5" stroke="#122A44" stroke-width="0.266734" stroke-miterlimit="10"/>
<path d="M12.1257 3.61461C12.1257 3.61461 12.1086 4.19108 11.7617 4.35027L11.9492 4.36993C11.9492 4.36993 12.172 4.09644 12.172 3.63755L12.1257 3.61461ZM12.6306 3.45397C12.6306 3.45397 13.0666 4.1423 12.8142 4.83064L12.9518 4.89955C12.9518 4.89955 13.2501 4.21122 12.7223 3.4314L12.6306 3.45397Z" fill="#7DA4B7"/>
<path d="M1.59961 7.70345C1.59961 7.70345 0.457962 8.82119 0.980796 9.45541C0.980796 9.45541 1.12943 9.67466 1.5336 9.41707C1.53311 9.41707 1.88838 7.65018 1.59961 7.70345Z" fill="#1797E5" stroke="#122A44" stroke-width="0.266734" stroke-miterlimit="10"/>
<path d="M4.30859 14.3091C4.30859 14.3091 4.47021 14.8879 4.87013 15.0699C4.87013 15.0699 5.51916 15.2084 5.11802 14.0482L4.30859 14.3091Z" fill="#122A44"/>
<path d="M2.03012 5.72545C2.03012 5.72545 1.20407 6.06968 1.2958 6.68922C1.2958 6.68922 1.13528 6.66628 1.20407 6.39097C1.20407 6.39097 1.24994 6.00088 1.98426 5.63372L2.16784 5.54199L2.05306 5.72545H2.03012ZM1.45645 8.06589C1.45645 8.06589 0.653453 8.9378 1.11234 9.39669C1.11234 9.39669 1.08941 8.52478 1.59417 8.2036L1.45645 8.06589ZM1.89241 10.7046C1.89241 10.7046 1.57123 11.2782 1.86948 11.829C1.86948 11.829 2.00719 11.783 2.03012 11.7371C2.03012 11.7371 2.00719 11.8519 1.82385 11.9207C1.82385 11.9207 1.34203 11.4389 1.80092 10.6588L1.89241 10.7046ZM2.87911 12.7009C2.87911 12.7009 2.90204 13.2057 3.13148 13.3663C3.13148 13.3663 3.15442 13.3663 3.20028 13.3434C3.20028 13.3434 3.17735 13.4122 3.08562 13.4351C3.08562 13.4351 2.74139 13.1827 2.81019 12.7009H2.87911Z" fill="#5DC5F9"/>
<path d="M14.0303 10.1081C14.0303 10.1081 15.1546 8.02004 13.8698 6.25328L13.5026 5.56494C13.5026 5.56494 13.4567 5.45016 13.3419 5.47309C13.3419 5.47309 13.0208 4.92247 12.6307 4.83062C12.6307 4.83062 12.3323 4.37173 11.7813 4.3488C11.7813 4.3488 11.6436 3.70572 10.9094 3.82111C10.9094 3.82111 10.7488 3.17864 10.0834 3.45395C10.0834 3.45395 9.9687 3.10972 9.55568 3.2245C9.55568 3.2245 9.53274 2.60497 7.94944 3.08679C7.94944 3.08679 3.19977 2.42139 2.25881 5.28951C2.25881 5.28951 2.21598 5.39677 2.33732 5.42468C2.33859 5.42493 2.33977 5.42551 2.34075 5.42637C2.34173 5.42723 2.34246 5.42832 2.34288 5.42955C2.3433 5.43078 2.34339 5.4321 2.34313 5.43337C2.34288 5.43465 2.3423 5.43583 2.34144 5.43681C2.18305 5.61999 2.08948 5.85028 2.07523 6.09202C2.07523 6.09202 1.27211 6.64276 1.66269 7.53761C1.66269 7.53761 1.38738 8.18069 1.70856 8.61604C1.70856 8.61604 1.24967 9.21264 1.75454 9.7862C1.75454 9.7862 1.43325 10.4516 2.12158 10.8188C2.12158 10.8188 1.84627 11.5071 2.46581 11.7365C2.46581 11.7365 2.44288 12.5626 3.20001 12.7922C3.20001 12.7922 3.22294 13.251 3.70489 13.32C3.70489 13.32 3.47544 13.963 4.30137 14.1919C4.30137 14.1919 4.69146 14.9719 5.26514 14.5819C5.26514 14.5819 5.63218 15.0867 6.48116 14.9719C6.48116 14.9719 7.00897 15.4308 7.85795 15.2014C7.85795 15.2014 8.4315 15.4768 9.16583 15.0638C9.16583 15.0638 9.60178 15.2701 9.99188 14.9261C9.99188 14.9261 10.6573 14.949 10.8867 14.6966C10.8867 14.6966 11.2768 14.8344 11.598 14.6048C11.598 14.6048 12.3322 14.4443 12.5387 14.7654C12.5387 14.7654 12.8141 15.2932 12.2863 15.8668C12.2863 15.8668 13.5713 16.1422 13.6631 14.536C13.6631 14.536 13.7319 13.6641 12.6994 13.4346L14.0303 10.1081Z" fill="url(#paint2_linear_2_3470)" stroke="#122A44" stroke-width="0.230603" stroke-miterlimit="10"/>
<path d="M8.40827 14.6512C11.3736 14.6512 13.7775 12.2884 13.7775 9.37379C13.7775 6.45919 11.3736 4.09644 8.40827 4.09644C5.44294 4.09644 3.03906 6.45919 3.03906 9.37379C3.03906 12.2884 5.44294 14.6512 8.40827 14.6512Z" fill="url(#paint3_linear_2_3470)"/>
<path d="M9.46596 6.15002L9.83117 6.5747C9.83117 6.5747 10.1065 5.61105 9.46401 9.39696L9.09685 10.4754L4.51936 10.0507C4.51936 10.0507 3.89982 9.93593 3.97978 9.23898L9.46596 6.15002Z" fill="url(#paint4_linear_2_3470)" stroke="#122A44" stroke-width="0.161414" stroke-linejoin="round"/>
<path d="M4.30114 6.78093L4.53058 5.3584L9.48677 6.00087L9.28025 7.46939L8.91321 9.85569L3.95703 9.23615L4.30114 6.78093Z" fill="#C91111" stroke="#122A44" stroke-width="0.230603" stroke-miterlimit="10"/>
<path d="M4.2563 7.9054L4.1875 8.34135L5.70189 8.52481L7.99634 9.02969V8.77731L9.11359 8.99681L9.16662 8.52481L4.2563 7.9054Z" fill="#750606"/>
<path d="M8.65867 6.22987L5.31127 5.74854C5.14274 6.22987 4.6688 6.27622 4.6688 6.27622L4.30273 8.54083C4.83224 8.68521 4.85299 9.21327 4.85299 9.21327L8.22611 9.67216C8.39465 9.14253 8.84492 9.2362 8.84492 9.2362L9.18915 6.89576C8.56318 6.67906 8.65867 6.22987 8.65867 6.22987ZM8.77564 9.14435C8.77564 9.14435 8.31675 9.07555 8.1561 9.5803L4.94411 9.14435C4.94411 9.14435 4.92154 8.63911 4.41643 8.50188L4.71527 6.78098L4.78419 6.36844C4.78419 6.36844 5.24308 6.29964 5.40361 5.84075L8.57046 6.29964C8.57046 6.29964 8.47776 6.75841 9.07424 6.96468L8.77564 9.14435Z" fill="#3D0000"/>
<path d="M7.83404 7.33167L9.34843 7.58404L10.1285 8.70834L9.44015 9.09843L9.23364 8.63954L7.74219 8.36423L7.83404 7.33167Z" fill="url(#paint5_linear_2_3470)" stroke="#4F1A00" stroke-width="0.230603" stroke-miterlimit="10"/>
<path d="M4.06032 6.86133L5.7123 7.0676L5.55202 8.1004L4.0147 7.91682L3.96871 8.14627C3.96871 8.14627 3.94554 7.09077 4.06032 6.86133Z" fill="url(#paint6_linear_2_3470)" stroke="#4F1A00" stroke-width="0.161414" stroke-linejoin="round"/>
<path d="M5.58636 6.55151L5.33398 8.50186L7.76615 8.84609L8.04158 6.87281L5.58636 6.55151Z" fill="#F7AE2D" stroke="#4F1A00" stroke-width="0.230603" stroke-miterlimit="10"/>
<path opacity="0.63" d="M7.88171 7.21686L7.81291 7.67587L7.00979 8.54779L6.91794 8.21496L7.88171 7.21686ZM6.6885 6.80383L5.50402 8.06014L5.46289 8.40437L5.51834 8.41007L7.05566 6.84982L6.6885 6.80383ZM7.17044 6.87275L5.58714 8.433L5.77072 8.31834L7.23924 6.87275H7.17044Z" fill="white"/>
<path d="M6.57269 7.69887L6.32031 8.20362L6.90272 8.26016L6.80165 7.7218C6.80165 7.7218 6.98523 7.69887 7.00792 7.49235C7.00792 7.49235 7.05378 7.19399 6.75554 7.14813C6.75554 7.14813 6.50316 7.12519 6.43425 7.37757C6.43497 7.37721 6.38911 7.60702 6.57269 7.69887Z" fill="#4F1A00"/>
<path d="M6.80273 7.10229C6.80273 7.10229 7.10098 7.14816 7.10098 7.4464C7.10098 7.4464 7.12391 7.6989 6.9174 7.79063L6.96387 8.43286H7.0556L6.96387 7.83625C6.96387 7.83625 7.22025 7.69817 7.12961 7.36717C7.11144 7.29891 7.07257 7.23796 7.01835 7.19269C6.95691 7.14204 6.88192 7.1106 6.80273 7.10229Z" fill="#4F1A00"/>
<path d="M6.75586 7.12512C6.75586 7.12512 7.03178 7.17087 7.03178 7.46935C7.03178 7.46935 7.03178 7.65281 6.82551 7.74466L6.91724 8.45593H7.00909L6.8943 7.76759C6.8943 7.76759 7.04391 7.70899 7.07085 7.51437C7.07736 7.46931 7.0748 7.4234 7.0633 7.37935C7.05179 7.3353 7.03159 7.294 7.00387 7.25788C6.97616 7.22176 6.94149 7.19156 6.90192 7.16905C6.86234 7.14654 6.81866 7.13218 6.77345 7.12682L6.75586 7.12512Z" fill="white"/>
<path d="M8.68434 9.32785C8.68434 9.32785 8.41146 9.29666 8.23807 9.7712L8.77607 9.71794L8.68434 9.32785ZM8.799 6.02376C8.799 6.02376 8.61542 6.62037 9.25789 6.82688L9.37268 6.09256L8.799 6.02376ZM4.62301 5.47302L4.50822 6.16148C4.50822 6.16148 5.0819 6.13843 5.15069 5.54194L4.62301 5.47302ZM4.14118 8.61658L4.07227 9.14427L4.73767 9.23612C4.73767 9.23612 4.64594 8.73124 4.14118 8.61658Z" fill="#3D0000"/>
<path d="M8.17966 3.33911C8.17966 3.33911 8.66148 2.94914 9.3958 3.33911L9.35054 3.43096C9.35054 3.43096 9.80943 3.36216 10.1306 4.02756C10.1306 4.02756 10.2683 3.10966 10.796 4.02756C10.796 4.02756 11.4845 3.93571 11.5762 4.41753C11.5762 4.41753 11.4614 4.6471 11.5991 4.80763C11.5991 4.80763 11.5074 4.46352 11.7368 4.48645C11.7368 4.48645 12.1268 4.50939 12.4022 4.87655L12.494 4.94534C12.494 4.94534 12.7923 4.99121 13.1823 5.54195C13.3063 5.70391 13.4182 5.87476 13.5171 6.05313C13.5729 6.1552 13.6339 6.25434 13.6999 6.35016C13.9242 6.67583 14.4171 7.50661 14.2378 8.29529C14.2378 8.29529 14.169 9.53436 13.8937 9.87859C13.8937 9.87859 14.3062 9.1672 14.3755 8.29529C14.3755 8.29529 14.4673 7.171 13.756 6.27615L13.3659 5.54195L13.2283 5.47303C13.2283 5.47303 12.9299 4.99121 12.4931 4.87655V4.83056C12.4931 4.83056 12.2407 4.44059 11.69 4.41802L11.6671 4.32629C11.6671 4.32629 11.5065 3.77555 10.8177 3.9362C10.8177 3.9362 10.7489 3.29373 10.0835 3.56916C10.0835 3.56916 9.67099 3.33959 9.41813 3.38558C9.41813 3.38558 9.69344 2.90363 8.63794 3.04135C8.63794 3.04135 8.21484 3.11415 8.09375 3.16936L8.17966 3.33911Z" fill="#5DC5F9"/>
<path d="M2.83203 4.46997C2.83203 4.46997 4.48353 2.53588 6.45729 3.27032C7.95481 3.8275 7.85701 4.32594 7.85701 4.32594C7.85701 4.32594 6.84095 4.48513 6.36932 5.12906C6.36932 5.12906 5.44948 4.12453 4.27022 4.97448C4.27022 4.97472 4.24741 3.63081 2.83203 4.46997Z" fill="url(#paint7_linear_2_3470)"/>
<path d="M9.62541 14.8117C9.62541 14.8117 9.47435 15.0059 9.05659 14.7594C9.05659 14.7594 8.6847 15.0642 7.83571 14.8808C7.83571 14.8808 7.26204 15.2478 6.57383 14.6745C6.57383 14.6745 5.63299 14.8808 5.40355 14.1238C5.40355 14.1238 4.82999 14.6745 4.5542 13.8943C4.5542 13.8943 3.98053 13.9632 3.91112 13.2289C3.91112 13.2289 4.04872 12.9995 3.91112 12.8848C3.91112 12.8848 3.45211 13.3666 3.45211 12.5635C3.45211 12.5635 2.25902 12.1964 3.03957 11.6228C3.03957 11.6228 1.91516 11.6228 2.44296 10.728C2.44296 10.728 1.66278 10.3837 2.0758 9.69539C2.0758 9.69539 1.59398 9.46595 1.84636 8.68576L2.00701 8.61697C2.00701 8.61697 1.57105 8.11221 1.93809 7.63027L1.96114 7.53854C1.96114 7.53854 1.59398 6.52891 2.19059 6.43718L2.42003 6.41425C2.42003 6.41425 2.21376 5.8635 2.6263 5.49634C2.6263 5.49634 2.44272 4.6015 4.16362 3.68372H3.84317C3.84317 3.68372 2.65008 4.21152 2.35172 5.38168L2.44357 5.49634C2.44357 5.49634 2.24944 5.61307 2.18246 6.06104C2.17105 6.13712 2.13392 6.20967 2.07034 6.25336C1.8699 6.39095 1.45748 6.84329 1.77817 7.53817C1.77817 7.53817 1.50274 8.13478 1.82403 8.6166C1.82403 8.6166 1.34221 9.23614 1.89283 9.76383C1.89283 9.76383 1.48029 10.3834 2.25999 10.7735C2.25999 10.7735 1.91576 11.4618 2.58117 11.6683C2.58117 11.6683 2.48944 12.5177 3.29255 12.7009C3.29255 12.7009 3.26962 13.1598 3.77438 13.2286L3.82024 13.3433C3.82024 13.3433 3.56786 13.894 4.37098 14.1005C4.37098 14.1005 4.73802 14.9036 5.28876 14.4447C5.28876 14.4447 5.60994 14.9953 6.48185 14.8572L6.59664 14.926C6.59664 14.926 7.12432 15.3161 7.85852 15.0867C7.85852 15.0867 8.43208 15.362 9.1664 14.949C9.1664 14.949 9.55649 15.1552 9.9006 14.8572L9.62541 14.8117Z" fill="#5DC5F9"/>
<path d="M6.6191 11.5536C6.6191 11.5536 5.33416 11.2095 5.49481 10.0854C5.49481 10.0854 5.10472 9.55763 5.26537 9.02982C5.26537 9.02982 5.3571 8.66266 5.47164 8.68559C5.47164 8.68559 5.81574 8.2267 6.13704 8.27305C6.13704 8.27305 6.11411 8.5025 6.20584 8.54849C6.20584 8.54849 6.59593 7.97481 6.96309 8.02068C6.96309 8.02068 6.80244 8.45663 6.96309 8.66315C6.96309 8.66315 7.26133 8.15839 7.58263 8.15839C7.58263 8.15839 7.53664 8.45663 7.60556 8.59435C7.60556 8.59435 7.9726 8.47957 7.9726 9.64997C7.9726 9.64997 8.24803 9.7417 8.38514 9.99407L8.33927 11.279L6.6191 11.5536Z" fill="#1797E5" stroke="#122A44" stroke-width="0.207544" stroke-miterlimit="10"/>
<path d="M7.28801 8.81322C7.28801 8.81322 8.06456 10.567 7.05469 11.1176L8.13311 10.9566L8.17898 9.87818C8.17898 9.87818 8.03944 9.75575 7.86824 9.72518C7.86824 9.72518 7.9266 9.00627 7.69716 8.73083L7.28801 8.81322Z" fill="url(#paint8_linear_2_3470)"/>
<path d="M5.51773 8.77731C5.51773 8.77731 5.19644 9.39673 5.67838 10.0623C5.67838 10.0623 5.51773 11.0488 6.68789 11.3701L6.38965 11.3934C6.38965 11.3934 5.40295 10.9566 5.58653 10.0623C5.58653 10.0623 5.05884 9.48858 5.4948 8.73132L5.51773 8.77731ZM11.0732 14.5103L11.6211 14.3758C11.6211 14.3758 12.1719 14.2382 12.6078 14.4448C12.6078 14.4448 13.1585 14.7889 12.6766 15.7756H12.4928C12.4928 15.7756 12.7452 15.5003 12.7223 15.0643C12.7223 15.0643 12.7223 14.858 12.6305 14.6971C12.6305 14.6971 12.4699 14.3758 11.7357 14.4677L11.5521 14.5136C11.4672 14.5754 11.3688 14.616 11.265 14.632C11.1612 14.6479 11.055 14.6388 10.9555 14.6053L11.0732 14.5103Z" fill="#5DC5F9"/>
<path d="M9.76272 8.73128C9.76272 8.73128 8.9596 8.68541 8.79895 9.67211L8.31713 9.76384C8.31713 9.76384 8.06475 10.0851 8.27126 10.4522C8.27126 10.4522 8.17941 10.7505 8.2942 10.9341C8.2942 10.9341 6.41265 10.7964 5.99962 12.196C5.99962 12.196 5.74725 14.6512 9.51022 14.7888C9.51022 14.7888 11.7589 14.9036 13.434 12.8155L13.801 12.7009L14.3059 13.6875C14.3059 13.6875 14.4893 12.2879 15.5219 11.8519C15.5219 11.8519 14.3747 10.7276 14.9483 9.32812L13.801 10.0165C13.801 10.0165 13.5714 9.28214 13.3649 9.28214C13.3649 9.28214 13.342 9.12149 13.2043 9.07587C13.2043 9.07587 13.0667 8.80056 13.2273 8.34167C13.2273 8.34167 12.7683 8.11222 12.1489 8.82349C12.1489 8.82349 11.9195 8.73164 11.8505 8.98414L11.5752 8.89229C11.5752 8.89229 11.4835 8.57111 11.2539 8.59405C11.2539 8.59405 11.1622 8.5022 11.4146 7.72213C11.4146 7.72213 10.7492 7.63028 10.3132 8.34167C10.3132 8.34167 10.0608 8.24982 9.99204 8.50219C9.99204 8.50183 9.83139 8.52476 9.76272 8.73128Z" fill="#1797E5" stroke="#122A44" stroke-width="0.230603" stroke-linejoin="round"/>
<path d="M9.62531 10.2457L8.61568 10.0395L8.96367 9.9527C8.97579 9.9513 8.9872 9.94627 8.99642 9.93829C9.00564 9.9303 9.01224 9.91972 9.01536 9.90792C9.06086 9.73284 9.27963 9.0354 9.9011 8.91516L9.83231 8.84636C9.83231 8.84636 9.14397 8.82343 8.91453 9.78707L8.38672 9.90186V10.2917L9.48808 10.567L9.62531 10.2457Z" fill="url(#paint9_linear_2_3470)"/>
<path d="M8.04157 14.3758C8.04157 14.3758 7.1466 13.0221 8.17916 13.1139C8.17916 13.1139 8.40861 13.1139 9.28052 13.3663C9.28052 13.3663 9.55595 13.4122 9.23466 13.045C9.23466 13.045 8.77577 12.6549 8.43154 12.5402C8.43154 12.5402 8.1333 12.1731 8.82163 12.334L9.21173 12.4028C9.21173 12.4028 9.57889 12.4946 9.67062 12.0816C9.67062 12.0816 9.73941 11.669 9.16586 11.7144C9.16586 11.7144 9.09694 11.7144 9.00521 11.7832C9.00521 11.7832 9.32651 11.3243 9.87713 11.6227C9.95935 11.6582 10.0365 11.7045 10.1066 11.7603L10.3814 11.5077L10.6339 11.4618L10.4276 10.7964C10.4276 10.7964 10.1751 10.8652 10.3358 10.6128L10.9095 10.4982C10.9095 10.4982 11.2766 10.3834 11.4142 10.2457C11.4142 10.2457 12.0573 9.71798 12.8369 9.74091C12.8369 9.74091 13.2958 9.71798 13.3187 9.32837C13.3187 9.32837 13.5023 9.48902 13.6858 10.0167C13.6858 10.0167 13.7088 10.1315 13.8234 10.1315L14.5432 9.6931L14.6848 9.91236C14.6848 9.91236 14.4207 10.6587 15.1549 11.7601C15.1549 11.7601 14.4894 12.4944 14.2371 13.2515L13.9057 12.5061L13.2964 12.7238C13.2964 12.7238 11.8963 15.2937 8.04157 14.3758Z" fill="url(#paint10_radial_2_3470)"/>
<path d="M8.59306 4.0047C8.59306 4.0047 8.54719 3.29331 8.24895 3.66047C8.24895 3.66047 7.69821 2.78855 8.59306 1.59534C8.59306 1.59534 9.0056 1.38907 8.86837 0.998857C8.86837 0.998857 8.93728 0.769412 9.41911 0.654629C9.41911 0.654629 9.1438 0.0580229 8.34068 0.264536C8.34068 0.264536 8.13441 -0.0566389 7.72114 0.241603C7.72114 0.241603 3.84339 -0.584447 2.19141 3.95871C2.19141 3.95871 3.79752 3.40809 4.41706 3.70633C4.41706 3.70633 4.69237 3.82112 4.60064 4.30294C4.60064 4.30294 5.81666 3.63754 6.41327 4.50921C6.41327 4.50921 7.14747 3.72902 7.65234 3.9126C7.65234 3.9126 7.85861 4.00445 7.97352 4.3027" fill="#1797E5"/>
<path d="M8.59306 4.0047C8.59306 4.0047 8.54719 3.29331 8.24895 3.66047C8.24895 3.66047 7.69821 2.78855 8.59306 1.59534C8.59306 1.59534 9.0056 1.38907 8.86837 0.998857C8.86837 0.998857 8.93728 0.769412 9.41911 0.654629C9.41911 0.654629 9.1438 0.0580229 8.34068 0.264536C8.34068 0.264536 8.13441 -0.0566389 7.72114 0.241603C7.72114 0.241603 3.84339 -0.584447 2.19141 3.95871C2.19141 3.95871 3.79752 3.40809 4.41706 3.70633C4.41706 3.70633 4.69237 3.82112 4.60064 4.30294C4.60064 4.30294 5.81666 3.63754 6.41327 4.50921C6.41327 4.50921 7.14747 3.72902 7.65234 3.9126C7.65234 3.9126 7.85861 4.00445 7.97352 4.3027" stroke="#122A44" stroke-width="0.230603" stroke-miterlimit="10"/>
<path d="M8.84495 5.24366C8.84495 5.24366 7.9956 4.21122 7.03232 4.92249C7.03232 4.92249 6.40137 4.91096 6.12594 5.48463C6.12594 5.48463 6.08008 5.55343 6.08008 5.5993C6.08008 5.5993 6.44724 5.69115 6.44724 6.15004C6.44724 6.15004 6.53897 6.15004 6.76841 5.55343C6.76841 5.55343 7.13557 5.62235 7.18095 6.1271C7.18095 6.1271 7.2728 6.15004 7.47932 5.98939C7.47932 5.98939 7.54811 5.5993 7.66278 5.55343C7.66278 5.55343 7.96114 5.55343 8.02994 6.05831C8.02994 6.05831 8.0758 6.15004 8.48883 5.78288L9.10836 5.85179C9.10836 5.85179 9.22363 5.66821 8.84495 5.24366Z" fill="#1797E5" stroke="#122A44" stroke-width="0.0691773" stroke-miterlimit="10"/>
<path d="M9.62417 10.1081C9.62417 10.1081 9.55574 10.4522 9.46352 10.4752L8.43096 10.2228C8.43096 10.2228 8.40803 10.0392 8.49988 9.92455L8.93559 9.86231C8.94835 9.86057 8.96012 9.85452 8.96895 9.84516C8.97778 9.8358 8.98314 9.82369 8.98413 9.81086C8.99784 9.63153 9.09818 8.97122 9.83093 8.89199L9.78239 8.84613C9.78239 8.84613 9.07392 8.77733 8.91339 9.64924C8.91339 9.64924 8.89046 9.76391 8.79861 9.78684L8.38607 9.85576C8.38607 9.85576 8.22542 10.0852 8.3402 10.3376L9.46449 10.6358C9.46449 10.6358 9.67004 10.6817 9.62417 10.1081ZM10.542 10.3605C10.542 10.3605 10.3357 10.5668 10.3357 10.7506C10.3357 10.7506 11.7354 10.7046 12.4696 11.1406L10.2208 10.8423C10.2208 10.8423 10.0601 10.6817 10.542 10.3605ZM8.93584 11.9896C8.93584 11.9896 9.01592 11.7089 9.2888 11.7286C9.33446 11.7318 9.37718 11.7523 9.40832 11.7858C9.46195 11.8435 9.53256 11.9598 9.53256 12.1731C9.53244 12.1731 9.39473 11.6913 8.93584 11.9896ZM7.67383 11.5767C7.67383 11.5767 7.75403 11.2964 8.02691 11.3155C8.07258 11.3188 8.1153 11.3392 8.14643 11.3728C8.20006 11.4304 8.27068 11.5468 8.27068 11.7601C8.27043 11.7601 8.13272 11.2783 7.67383 11.5767Z" fill="#5DC5F9"/>
<path d="M10.5422 10.3378C10.5422 10.3378 10.1488 10.526 10.1595 10.7694C10.161 10.8016 10.1738 10.8322 10.1957 10.856C10.2176 10.8797 10.2471 10.8949 10.2791 10.8991L12.4696 11.1871M8.97038 12.001C8.97038 12.001 9.33754 11.6797 9.42939 12.1617L8.97038 12.001ZM7.74805 11.6118C7.74805 11.6118 8.05418 11.2842 8.18255 11.7164L7.74805 11.6118Z" stroke="#122A44" stroke-width="0.138355" stroke-miterlimit="10" stroke-linecap="round"/>
<path d="M10.493 10.9269C10.493 10.9269 10.3772 11.4236 10.9125 11.6653C11.1066 11.752 11.3219 11.7793 11.5314 11.7438C11.7882 11.7011 12.1322 11.5658 12.2334 11.1555L10.493 10.9269Z" fill="#F3F5F7" stroke="#122A44" stroke-width="0.138355" stroke-linejoin="round"/>
<path d="M9.67062 10.108C9.67062 10.108 9.70702 10.4072 9.63143 10.5821C9.61307 10.6226 9.58081 10.6552 9.5405 10.6739C9.50019 10.6927 9.45449 10.6964 9.41169 10.6844L8.25391 10.3741" stroke="#122A44" stroke-width="0.138355" stroke-linecap="round" stroke-linejoin="round"/>
<path d="M9.32754 10.6817C9.32754 10.6817 9.511 10.9571 9.28155 11.2095C9.28155 11.2095 8.82266 10.98 8.20312 10.98L8.29546 10.4064L9.32754 10.6817Z" fill="#F3F5F7" stroke="#122A44" stroke-width="0.138355" stroke-linecap="round" stroke-linejoin="round"/>
<path d="M9.55545 11.4389C9.55545 11.4389 9.30914 11.1871 8.99609 11.1062" stroke="#122A44" stroke-width="0.115295" stroke-linecap="round" stroke-linejoin="round"/>
<path d="M13.8325 6.18447C13.8325 6.18447 13.1232 5.92117 13.2153 6.97606C13.2153 6.97606 13.2956 6.00089 13.9483 6.36695L13.8325 6.18447Z" fill="#122A44"/>
<path d="M7.51309 0.562866C7.51309 0.562866 7.4557 0.872635 7.57049 1.05561C7.57049 1.05561 6.01024 1.58342 4.81703 3.64842C4.81703 3.64842 4.54172 2.82249 2.84375 3.4879C2.84375 3.48838 3.53208 0.620136 7.51309 0.562866Z" fill="url(#paint11_linear_2_3470)" stroke="#122A44" stroke-width="0.0691773" stroke-linejoin="round"/>
<path d="M7.61714 1.2168L7.82341 1.42307C7.82341 1.42307 6.60799 2.70825 6.3322 3.90146C6.3322 3.90146 5.85038 3.55723 5.07031 3.83254C5.07019 3.83254 5.87331 2.01992 7.61714 1.2168Z" fill="url(#paint12_linear_2_3470)" stroke="#122A44" stroke-width="0.0691773" stroke-linejoin="round"/>
<path d="M7.98409 1.60681C7.98409 1.60681 7.20391 2.61644 7.98409 3.83247C7.98409 3.83247 7.36455 3.28185 6.60742 3.92432C6.60779 3.92432 7.06631 2.27221 7.98409 1.60681Z" fill="url(#paint13_linear_2_3470)" stroke="#122A44" stroke-width="0.0691773" stroke-linejoin="round"/>
<path d="M11.5943 11.0716C11.5943 11.0716 11.3343 11.516 11.8101 11.661C11.8101 11.661 12.1627 11.4373 12.2014 11.1514L11.5943 11.0716ZM8.89311 10.5663C8.89311 10.5663 8.63758 10.8882 8.84458 11.0259L9.28054 11.1406C9.28054 11.1406 9.47043 10.8287 9.21489 10.6519L8.89311 10.5663Z" fill="#122A44"/>
<path d="M11.5757 11.5766C11.6391 11.5766 11.6905 11.5252 11.6905 11.4618C11.6905 11.3984 11.6391 11.347 11.5757 11.347C11.5123 11.347 11.4609 11.3984 11.4609 11.4618C11.4609 11.5252 11.5123 11.5766 11.5757 11.5766Z" fill="white"/>
<path d="M8.79838 10.9112C8.86177 10.9112 8.91316 10.8598 8.91316 10.7964C8.91316 10.733 8.86177 10.6816 8.79838 10.6816C8.73498 10.6816 8.68359 10.733 8.68359 10.7964C8.68359 10.8598 8.73498 10.9112 8.79838 10.9112Z" fill="white"/>
<path d="M11.7129 7.56113C11.7129 7.56113 11.7358 7.28583 11.9423 7.26289C11.9423 7.26289 12.2176 7.26289 12.2406 7.51527C12.2406 7.51527 12.1718 7.10273 12.47 7.03345" stroke="black" stroke-width="0.0461182" stroke-linecap="round" stroke-linejoin="round"/>
<path d="M14.4847 8.22087C14.4847 8.22087 14.1672 7.92833 13.7542 8.82317C13.7542 8.82317 14.2939 8.26127 14.4829 8.31272L14.4847 8.22087ZM14.4296 7.56456C14.4296 7.56456 14.0292 6.98749 13.7771 7.79061C13.7771 7.79061 13.9012 7.57342 14.0347 7.48339C14.0599 7.46635 14.09 7.45795 14.1205 7.45946C14.1509 7.46097 14.18 7.4723 14.2035 7.49176C14.2804 7.55656 14.3963 7.71332 14.4834 8.0908L14.4296 7.56456ZM13.317 5.43452C13.317 5.43452 12.7903 5.51946 12.9737 6.04678C12.9737 6.04678 12.9393 5.54033 13.5076 5.57551L13.317 5.43452ZM12.6902 4.84872C12.6902 4.84872 12.3404 4.87796 12.5743 5.42457C12.583 5.44499 12.5843 5.46781 12.578 5.48908C12.5716 5.51035 12.5581 5.52874 12.5396 5.54106C12.5206 5.55372 12.4978 5.55915 12.4751 5.55637C12.4525 5.55358 12.4316 5.54277 12.4163 5.52589C12.3663 5.4708 12.2707 5.3599 12.1804 5.29802C12.1705 5.29112 12.159 5.28674 12.147 5.28525C12.135 5.28377 12.1228 5.28522 12.1115 5.2895C12.1002 5.29377 12.0901 5.30074 12.082 5.30979C12.074 5.31884 12.0683 5.32971 12.0654 5.34146C12.0448 5.42931 12.0439 5.61835 12.125 6.02385C12.125 6.02385 11.8241 5.57236 11.9551 5.24852C12.0023 5.13155 12.1446 5.08095 12.2517 5.14781C12.2913 5.17374 12.3263 5.20614 12.3552 5.24366C12.3552 5.24366 12.1999 4.63723 12.6902 4.84872ZM11.9216 4.36471C11.9216 4.36471 11.3756 4.40451 11.5968 4.79885C11.6046 4.81246 11.6145 4.82474 11.6262 4.83525L11.7165 4.91776C11.7286 4.9326 11.7359 4.95084 11.7373 4.96997C11.7387 4.98911 11.7341 5.00821 11.7242 5.02465C11.7145 5.04099 11.6999 5.05393 11.6825 5.06172C11.6652 5.06951 11.6458 5.07178 11.6271 5.06821C11.5119 5.04589 11.2533 4.94554 11.099 5.18882C11.0874 5.20669 11.0798 5.22693 11.077 5.24806C11.0741 5.26919 11.076 5.29069 11.0825 5.311C11.1043 5.37778 11.1485 5.43504 11.2074 5.47323C11.2074 5.47323 10.8404 5.28965 11.1157 5.01434C11.1157 5.01434 11.2074 4.89968 11.4598 4.89968C11.4598 4.89968 11.1185 4.29967 11.7711 4.31278L11.9216 4.36471ZM9.11878 3.59156C9.11878 3.59156 9.64514 3.08705 10.0332 3.7078C10.0497 3.73444 10.063 3.76295 10.0728 3.79273L10.1283 3.95921C10.1283 3.95921 9.85298 3.93627 9.71575 4.18865L9.62402 4.09692C9.62402 4.09692 9.66989 4.37223 10.06 4.76233C10.06 4.76233 10.0829 4.57875 9.83054 4.30344C9.83054 4.30344 10.1058 3.8909 10.4042 4.16572C10.4042 4.16572 10.5418 4.23464 10.7942 4.64766C10.7942 4.64766 10.7254 4.25757 10.2894 3.98214C10.2894 3.98214 10.1517 3.38566 9.71575 3.27087C9.71575 3.27039 9.30273 3.17902 9.11878 3.59156ZM8.1771 0.138359C8.1771 0.138359 7.9951 0.28748 8.1555 0.792356C8.1555 0.792356 7.94923 0.47106 8.01791 0.126953L8.1771 0.138359ZM8.27029 0.952882C8.27029 0.952882 8.57666 1.27479 8.89383 1.1253L8.87611 1.27794C8.87611 1.27794 8.38495 1.27406 8.27029 0.952882Z" fill="#122A44"/>
<path d="M7.65113 0.585758C7.65113 0.585758 7.74286 0.33338 8.04122 0.173218L7.69699 0.19615C7.69699 0.19615 7.62832 0.287394 7.65113 0.585758ZM8.13307 1.25116C8.13307 1.25116 8.29372 1.57234 8.79847 1.2053L8.75261 1.52647C8.75261 1.52647 8.24785 1.61832 8.13307 1.25116Z" fill="#122A44"/>
<path d="M9.32731 0.631664C9.32731 0.631664 8.86829 0.76938 8.7995 1.06774C8.7995 1.06774 8.15703 0.861473 8.29474 0.31049C8.29523 0.310368 9.12031 0.103977 9.32731 0.631664Z" fill="url(#paint14_linear_2_3470)"/>
<path d="M11.3457 2.19191C11.3457 2.19191 11.6369 2.51721 11.552 2.81145C11.552 2.81145 12.1951 2.94917 12.332 2.49028C12.3323 2.49028 11.7823 1.83058 11.3457 2.19191Z" fill="url(#paint15_linear_2_3470)"/>
<path d="M13.1296 8.40179C13.1296 8.40179 12.9518 8.86092 13.1126 9.12143C13.1126 9.12143 12.4695 9.30501 12.1719 8.93785C12.1719 8.93785 12.6766 8.22658 13.1296 8.40179Z" fill="url(#paint16_linear_2_3470)"/>
<path d="M11.3 7.8364C11.3 7.8364 11.0706 8.27236 11.1623 8.68575C11.1623 8.68575 10.5867 8.85416 10.332 8.44829C10.332 8.44793 10.7952 7.62989 11.3 7.8364Z" fill="url(#paint17_linear_2_3470)"/>
<path d="M7.5569 8.18433C7.5569 8.18433 7.46262 8.45648 7.60543 8.70837C7.60543 8.70837 7.30209 8.92326 7.05469 8.70837C7.0542 8.70837 7.19192 8.29535 7.5569 8.18433Z" fill="url(#paint18_linear_2_3470)"/>
<path d="M6.86002 8.10962C6.86002 8.10962 6.7354 8.36916 6.84788 8.63561C6.84788 8.63561 6.5221 8.81458 6.30078 8.57288C6.30078 8.57288 6.48473 8.17805 6.86002 8.10962Z" fill="url(#paint19_linear_2_3470)"/>
<path d="M6.03409 6.4253C6.03409 6.4253 6.16464 6.18979 6.44663 6.12705C6.44663 6.12705 6.40561 5.70044 6.08044 5.66016C6.08092 5.66016 5.87247 6.07961 6.03409 6.4253Z" fill="url(#paint20_linear_2_3470)" stroke="#122A44" stroke-width="0.103772" stroke-linejoin="round"/>
<path d="M6.76188 6.33859C6.76188 6.33859 6.87606 6.1669 7.15853 6.10417C7.15853 6.10417 7.10114 5.63376 6.80289 5.58789C6.80241 5.58789 6.57345 6.00092 6.76188 6.33859Z" fill="url(#paint21_linear_2_3470)" stroke="#122A44" stroke-width="0.103772" stroke-linejoin="round"/>
<path d="M7.58764 6.33859C7.58764 6.33859 7.72681 6.08658 8.00928 6.02373C8.00928 6.02373 7.97676 5.62805 7.65158 5.58789C7.65146 5.58789 7.42602 5.99291 7.58764 6.33859Z" fill="url(#paint22_linear_2_3470)" stroke="#122A44" stroke-width="0.103772" stroke-linejoin="round"/>
<path d="M6.11483 8.34131C6.11483 8.34131 5.95649 8.55255 6.06909 8.81913C6.06909 8.81913 5.76575 8.9526 5.54492 8.70993C5.54492 8.71053 5.74767 8.31826 6.11483 8.34131Z" fill="url(#paint23_linear_2_3470)"/>
<path d="M8.32598 0.245483C8.32598 0.245483 8.2027 0.746477 8.84517 1.06777L8.7993 1.13657C8.7993 1.13657 8.11097 0.9303 8.24868 0.264654L8.32598 0.245483ZM12.5164 2.42139C12.5164 2.42139 12.5853 2.7422 12.1952 2.97274C12.1952 2.97274 12.5853 2.85795 12.6078 2.49091L12.5164 2.42139Z" fill="#122A44"/>
<path d="M5.70172 14.2381C5.70172 14.2381 2.37459 12.2649 3.20064 7.76758L2.30579 8.63901C2.30579 8.63901 2.14514 12.4489 5.70172 14.2381Z" fill="url(#paint24_radial_2_3470)"/>
<path d="M3.33789 6.94165C3.33789 6.94165 3.54416 7.23989 3.81971 6.94165C3.81971 6.94165 3.57886 7.33174 3.33789 6.94165Z" fill="#5DC5F9"/>
<path d="M12.6292 2.56921C12.6292 2.56921 12.7324 2.77415 12.6573 3.06378C12.6573 3.06378 12.7718 2.94438 12.8018 2.64675L12.6292 2.56921ZM11.4609 2.97265C11.4609 2.97265 11.6445 3.24796 12.0575 3.04145C12.0575 3.04145 11.645 3.1333 11.484 2.90374L11.4609 2.97265Z" fill="#122A44"/>
<path d="M11.4611 3.01799C11.4611 3.01799 11.5301 3.43053 11.966 3.38515C11.966 3.38515 11.7278 3.52736 11.4685 3.41039L11.4611 3.01799ZM12.3331 2.44432C12.3331 2.44432 12.1955 2.97213 11.5071 2.76561L11.4842 2.88028C11.4842 2.88028 12.2643 3.10972 12.4937 2.42139L12.3331 2.44432ZM7.35394 14.6053C7.35394 14.6053 8.03536 14.5867 8.05041 15.2615L7.78225 15.2209C7.78225 15.2209 7.95055 14.7665 7.35394 14.6053ZM6.27551 14.1234C6.27551 14.1234 6.7873 14.3738 6.57727 15.0403L6.41371 14.9804C6.41371 14.9804 6.59656 14.307 6.27551 14.1234ZM4.02693 12.6553C4.02693 12.6553 4.32517 13.2519 3.65977 13.4125L3.52217 13.2063C3.52217 13.2063 4.04986 13.3434 4.02693 12.6553ZM2.90263 11.5306C2.90263 11.5306 2.8797 11.829 2.44374 11.7601L2.46522 11.6311C2.46535 11.6301 2.46572 11.6292 2.46628 11.6284C2.46685 11.6275 2.4676 11.6269 2.46847 11.6264C2.46935 11.6259 2.47032 11.6257 2.47132 11.6256C2.47231 11.6256 2.4733 11.6258 2.4742 11.6262C2.51739 11.6468 2.7381 11.7367 2.90263 11.5306ZM2.39836 7.95124C2.39836 7.95124 2.2143 8.77729 1.75529 8.57078L1.66344 8.75424C1.66344 8.75424 2.39836 9.0526 2.39836 7.95124ZM1.64062 7.3317C1.64062 7.3317 1.96156 7.99711 2.26016 6.94161C2.26016 6.94161 2.30603 7.88232 1.66356 7.67593L1.64062 7.3317ZM2.19137 6.02383C2.19137 6.02383 2.14538 6.52859 2.74199 6.32207C2.74199 6.32207 2.2143 6.81955 1.97333 6.23799L2.19137 6.02383ZM2.37482 5.24365C2.37482 5.24365 2.53547 5.72547 3.24674 5.0142C3.24674 5.0142 2.55841 6.02383 3.20088 6.06982C3.20088 6.06982 2.62732 6.16167 2.8797 5.49614C2.8797 5.49614 2.61337 5.75253 2.31064 5.47515L2.37482 5.24365ZM2.9485 7.21692C2.9485 7.21692 3.20088 7.28584 3.31566 6.98748C3.31566 6.98748 3.45325 7.23985 3.70575 7.10226C3.70575 7.10226 3.79748 7.05639 3.86628 6.84988C3.86628 6.84988 3.70575 7.21692 3.45374 7.05615C3.45374 7.05615 3.31614 6.98723 3.31614 6.78072C3.31566 6.78096 3.24674 7.21692 2.9485 7.21692Z" fill="#122A44"/>
<path d="M7.90342 0.562916C7.90342 0.562916 8.06407 0.975456 8.2246 1.1594C8.2246 1.1594 7.81169 1.02181 7.90342 0.562916ZM2.58008 3.61462C2.58008 3.61462 3.42943 1.52656 5.05823 0.929955C5.05823 0.929955 6.32012 0.402268 7.582 0.448133C7.582 0.448133 5.44808 0.195755 4.16314 1.29748C4.16338 1.29712 3.03909 2.1461 2.58008 3.61462ZM8.2246 1.64134C8.2246 1.64134 7.51333 2.42141 8.087 3.72928C8.087 3.72928 7.26095 2.65085 8.2246 1.64134ZM11.83 3.19237C11.83 3.19237 12.3153 3.2329 12.6024 2.90214C12.6024 2.90214 12.415 3.43201 11.83 3.19237ZM13.0203 3.06388C13.0203 3.06388 13.7774 3.77515 13.6633 5.5191C13.6627 5.5191 14.0527 3.82113 13.0203 3.06388Z" fill="#5DC5F9"/>
<path d="M9.96871 9.05264C9.96871 9.05264 10.0146 9.21329 10.2211 9.32795C10.2211 9.32795 9.89979 8.75428 10.5881 8.73135L10.175 8.43286C10.175 8.43286 9.87698 8.70841 9.96871 9.05264Z" fill="url(#paint25_linear_2_3470)"/>
<path d="M3.06249 3.38525L2.87891 3.45404C2.87891 3.45404 3.22265 2.19191 4.48454 1.41185C4.48454 1.41185 5.60883 0.562501 7.49038 0.585798C7.47665 0.614526 7.46885 0.645722 7.46744 0.677527C7.46744 0.677527 4.02613 0.677527 3.06249 3.38525ZM5.12761 3.7751C5.12761 3.7751 5.95366 2.00833 7.60577 1.25132L7.65139 1.29707C7.65139 1.29707 6.3895 1.70961 5.21922 3.75216L5.12761 3.7751Z" fill="#7DA4B7"/>
<path d="M10.1761 8.43286C10.1705 8.46498 10.1717 8.49791 10.1796 8.52954C10.1875 8.56116 10.202 8.59077 10.2221 8.61644C10.2221 8.61644 9.94664 8.82271 10.0158 9.14413C10.0158 9.14437 9.76355 8.61668 10.1761 8.43286Z" fill="#5DC5F9"/>
<path d="M7.85727 1.75598C7.85727 1.75598 7.10002 2.37552 6.66406 3.84404L6.75591 3.77512C6.75591 3.77512 6.96279 2.85734 7.85727 1.75598Z" fill="#7DA4B7"/>
<path d="M10.2901 8.38721C10.2901 8.38721 10.5654 8.79975 11.2308 8.63958L11.3226 8.68545C11.3226 8.68545 10.6572 9.05261 10.1523 8.41014L10.2901 8.38721Z" fill="#122A44"/>
<path d="M10.1074 8.45593C10.1074 8.45593 10.268 8.86847 10.6352 8.91482C10.6352 8.91482 10.2909 8.93776 10.0156 8.52473L10.1074 8.45593Z" fill="#122A44"/>
<path d="M11.9913 8.93237C11.9913 8.93237 11.6658 9.44271 11.8035 9.62629C11.8035 9.62629 11.8264 9.74095 12.0098 9.78682C12.0098 9.78682 11.918 9.46564 12.1244 9.28206C12.2343 9.35193 12.3494 9.4133 12.4687 9.46564L12.5837 9.28218C12.5837 9.28218 12.3167 9.27102 11.9913 8.93249" fill="url(#paint26_linear_2_3470)"/>
<path d="M10.8183 8.96076C10.8183 8.96076 11.3232 8.98381 11.3232 8.63958L11.4149 8.75424C11.4149 8.75424 11.3687 9.02967 10.8183 8.96076ZM10.015 8.54785C10.015 8.54785 9.85432 8.7773 10.015 9.14434C10.015 9.14434 9.71661 8.86903 9.73954 8.70838L10.015 8.54785Z" fill="#122A44"/>
<path d="M10.9551 9.3279C10.9551 9.3279 11.4598 9.51148 11.5517 8.86901L11.414 8.68542C11.414 8.68542 11.414 9.28215 10.9551 9.3279ZM11.9418 9.02965C11.9418 9.02965 11.7123 9.35083 11.827 9.67212C11.827 9.67212 11.5746 9.53441 11.8041 8.96073L11.9418 9.02965ZM12.4007 9.90157C12.4007 9.90157 13.2692 10.3818 13.4085 9.29271L13.2955 9.14431C13.2955 9.14431 13.2955 10.1539 12.4007 9.90157Z" fill="#122A44"/>
<path d="M5.72332 8.84611C5.72332 8.84611 5.51705 9.74095 6.57266 10.2917C6.57266 10.2917 6.2055 9.51515 6.11377 8.83215L5.72332 8.84611Z" fill="url(#paint27_linear_2_3470)"/>
<path d="M6.49179 8.66246C6.49179 8.66246 6.31973 9.71807 7.21458 10.2686L7.16872 9.9474C7.16872 9.9474 6.87035 9.14428 6.91622 8.63904L6.49179 8.66246Z" fill="url(#paint28_linear_2_3470)"/>
<path d="M12.6527 9.48847C12.6527 9.48847 13.2204 9.58639 13.2922 9.20467L13.2494 9.12131C13.2494 9.12131 13.2034 9.46566 12.6527 9.48847ZM11.9415 8.91492C11.9415 8.91492 11.8955 9.12119 12.2856 9.37381C12.2856 9.37381 12.0332 9.35087 11.873 9.00677L11.9415 8.91492Z" fill="#122A44"/>
<path d="M12.1484 8.86963C12.1484 8.86963 12.4467 9.32852 13.1579 9.05321L13.2498 9.21386C13.2498 9.21386 12.4237 9.60383 11.9648 8.89256L12.1484 8.86963Z" fill="#122A44"/>
<path d="M12.0578 9.62628C12.0578 9.62628 12.3791 9.78681 13.0215 9.69508C13.0215 9.69472 12.402 10.1081 12.0578 9.62628ZM10.291 9.05261C10.291 9.05261 10.5893 9.19021 11.2317 9.09848C11.2316 9.09848 10.727 9.53443 10.291 9.05261Z" fill="#5DC5F9"/>
<path d="M5.44922 8.77726C5.44922 8.77726 5.67866 9.00671 6.13755 8.89192L6.20635 8.54782L6.04862 8.48157C6.04862 8.48157 5.97581 8.6393 5.99935 8.80019C5.99935 8.80019 5.72404 8.86899 5.51753 8.68541L5.44922 8.77726Z" fill="#122A44"/>
<path d="M5.45974 8.7887C5.45974 8.7887 5.48267 8.94934 5.73505 8.97228C5.73505 8.97228 5.51664 9.00673 5.40234 8.82316L5.45974 8.7887ZM5.86136 8.9838C5.86136 8.9838 6.0908 9.00673 6.13667 8.84609L6.1596 8.9838C6.11248 9.004 6.06174 9.01442 6.01048 9.01442C5.95921 9.01442 5.90848 9.004 5.86136 8.9838Z" fill="#122A44"/>
<path d="M6.27544 8.59368C6.27544 8.59368 6.13785 9.16723 6.2985 9.53439C6.2985 9.53439 6.00013 9.09844 6.16078 8.57075L6.27544 8.59368ZM6.32143 8.50183C6.32143 8.50183 6.55087 8.7081 6.91791 8.57075V8.63906C6.91791 8.63906 6.52794 8.84533 6.2985 8.57026L6.32143 8.50183Z" fill="#122A44"/>
<path d="M6.25094 8.5708C6.31966 8.67587 6.42674 8.7499 6.54931 8.77707C6.54931 8.77707 6.31986 8.77707 6.20508 8.63936L6.25094 8.5708ZM6.70983 8.77731C6.70983 8.77731 6.9161 8.73133 6.9161 8.61667L6.93916 8.73133C6.93916 8.73133 6.87048 8.80025 6.70983 8.77731Z" fill="#122A44"/>
<path d="M6.91707 8.70837C6.91707 8.70837 6.68763 9.12091 7.10065 9.74094C7.10065 9.74094 6.84827 9.0526 7.00892 8.70837H6.91707Z" fill="#122A44"/>
<path d="M7.03219 8.66248C7.03219 8.66248 7.35337 8.86875 7.6288 8.66248L7.72053 8.73127C7.72053 8.73127 7.39935 9.0067 6.98633 8.75421L7.03219 8.66248Z" fill="#122A44"/>
<path d="M6.96382 8.7542C6.96382 8.7542 7.03262 8.89192 7.33086 8.93778C7.33086 8.93778 7.10141 8.96072 6.94089 8.86899L6.96382 8.7542ZM7.44576 8.91485C7.44576 8.91485 7.62934 8.91485 7.72107 8.70858L7.78987 8.82336C7.69082 8.89617 7.5679 8.92885 7.44576 8.91485ZM7.53737 9.09843C7.53737 9.09843 7.76682 9.0755 7.83574 8.89216L7.8583 9.0067C7.8583 9.0067 7.76682 9.12136 7.53737 9.09843ZM7.67509 5.51904C7.67509 5.51904 7.67509 5.08308 8.36342 5.1065C8.36342 5.1065 7.49151 4.92292 7.58336 5.63419L7.67509 5.51904ZM8.04225 5.70274C8.04225 5.70274 8.13398 5.84046 8.08811 6.04697L8.18955 6.01615C8.18955 6.01615 8.17984 5.77142 8.04225 5.70274ZM6.81725 5.5683C6.81725 5.5683 6.94089 5.08296 7.74388 5.01416C7.74388 5.01416 6.78024 4.99123 6.73438 5.5649L6.81725 5.5683Z" fill="#122A44"/>
<path d="M8.54671 5.01416C8.54671 5.01416 9.12038 5.45012 9.09733 5.81728L8.47852 5.74848C8.47852 5.74848 8.79908 5.54197 8.54671 5.01416Z" fill="url(#paint29_linear_2_3470)"/>
<path d="M6.80273 12.9074C6.80273 12.9074 7.28456 12.1731 8.89079 13.0679C8.89128 13.0678 7.53742 11.8519 6.80273 12.9074Z" fill="#122A44"/>
<path d="M6.80273 13.0449C6.80273 13.0449 7.23869 12.3566 8.91397 13.1827C8.91397 13.1827 7.46862 12.0584 6.80273 13.0449Z" fill="#5DC5F9"/>
<path d="M9.48699 11.5307C9.48699 11.5307 7.60277 10.5306 6.49146 11.806C6.3839 11.9299 6.31099 12.08 6.28009 12.2411C6.24919 12.4022 6.26142 12.5686 6.31553 12.7235C6.51682 13.3034 7.08479 14.2093 8.68399 14.4682C8.68399 14.4682 11.3685 15.0419 13.2271 12.7244L13.5713 12.4031C13.5713 12.4031 11.7128 15.6379 7.78902 14.3989C7.78902 14.3989 6.01328 13.8752 6.09033 12.2384C6.09107 12.224 6.09323 12.2096 6.09676 12.1956C6.13716 12.0359 6.43116 11.1117 7.83525 11.0489C7.83525 11.0489 9.07421 10.9342 9.50968 11.4848L9.55627 11.5767C9.53558 11.558 9.51223 11.5425 9.48699 11.5307Z" fill="#5DC5F9"/>
<path d="M14.6848 9.91235C14.6848 9.91235 14.5221 10.7953 15.2575 11.7138L15.1779 11.9207C15.1779 11.9207 14.5813 12.242 14.26 13.3434L13.893 12.632C13.893 12.632 13.847 12.5632 13.7094 12.609L13.457 12.7009L13.48 12.609L13.7553 12.4944C13.7553 12.4944 13.9159 12.4485 13.9847 12.5861L14.2371 13.1139C14.2371 13.1139 14.3977 12.3337 15.109 11.829C15.109 11.829 14.4665 10.8193 14.5813 10.0622L14.6848 9.91235Z" fill="#5DC5F9"/>
<path d="M13.0664 13.0678C13.0664 13.0678 13.64 12.3795 13.6859 12.173C13.6859 12.173 13.5253 12.7466 13.2734 13.0678H13.0664Z" fill="#122A44"/>
<path d="M13.6855 10.7276C13.6855 10.7276 14.2362 10.4063 14.5349 9.69504L14.7184 9.64917C14.7184 9.64917 14.764 10.544 13.6855 10.7276Z" fill="#5DC5F9"/>
<path d="M14.6263 9.4884C14.6263 9.4884 14.4427 10.3145 13.6855 10.7275C13.6855 10.7275 14.4656 10.3833 14.8098 9.60307L14.6263 9.4884ZM13.9379 11.3701C13.9379 11.3701 14.5361 11.8398 15.3842 11.6967V11.9178C15.3842 11.9178 14.5345 11.9436 13.9379 11.3701Z" fill="#122A44"/>
<path opacity="0.63" d="M4.41599 7.88231L5.17312 7.07931H5.12726L4.37012 7.88231H4.41599ZM4.23241 7.85938L5.05846 7.05638L4.85195 7.03333L4.04883 7.83644L4.23241 7.85938Z" fill="white"/>
<path d="M4.71377 7.12523L5.4021 7.26295V7.19403L4.71377 7.12523ZM4.57617 7.7677L5.3333 7.8365L5.31037 7.90542L4.57617 7.7677ZM6.7101 6.94165L7.74254 7.1023L7.58201 8.41017L7.67374 8.36431L7.83439 7.05643L6.7101 6.94165ZM8.0409 7.51532L8.7063 7.65292L8.01785 7.60705L8.0409 7.51532ZM7.92612 8.18073L8.59152 8.31844L7.92612 8.24952V8.18073Z" fill="#4F1A00"/>
<path d="M8.20312 7.53821L9.28155 7.69886L9.7635 8.41012L9.32754 7.85938L9.25862 8.50185H9.21276L9.25862 7.76765L8.20312 7.53821Z" fill="white"/>
<path d="M9.07422 8.38721C9.07422 8.38721 9.37258 8.38721 9.44138 8.70838C9.44138 8.70838 9.44138 8.36427 9.07422 8.38721Z" fill="#4F1A00"/>
<path d="M5.83776 6.9187C5.83776 6.9187 5.74603 7.9054 5.6543 8.27244C5.6543 8.27244 5.72309 7.23988 5.83776 6.9187Z" fill="white"/>
<path d="M6.50455 6.84986L5.7473 6.78094C5.7473 6.78094 5.63252 7.8823 5.54103 8.34131C5.54103 8.34131 5.60983 7.12517 5.70168 6.68921L6.50455 6.84986ZM4.07227 7.8135L4.20998 7.03332L5.33427 7.17103L4.14118 6.96452L4.07227 7.8135Z" fill="white"/>
<path opacity="0.63" d="M7.72017 6.71214L7.51366 6.91865L7.33008 6.89572L7.53659 6.68921L7.72017 6.71214Z" fill="white"/>
</g>
<defs>
<linearGradient id="paint0_linear_2_3470" x1="12.665" y1="4.36666" x2="11.745" y2="4.06029" gradientUnits="userSpaceOnUse">
<stop offset="0.33" stop-color="#F3F5F7"/>
<stop offset="0.78" stop-color="#8099B9"/>
</linearGradient>
<linearGradient id="paint1_linear_2_3470" x1="13.4854" y1="4.54006" x2="12.4266" y2="4.4861" gradientUnits="userSpaceOnUse">
<stop offset="0.33" stop-color="#F3F5F7"/>
<stop offset="0.37" stop-color="#E4E9EF"/>
<stop offset="0.48" stop-color="#C0CCDC"/>
<stop offset="0.59" stop-color="#A4B6CC"/>
<stop offset="0.7" stop-color="#90A6C2"/>
<stop offset="0.81" stop-color="#849CBB"/>
<stop offset="0.91" stop-color="#8099B9"/>
</linearGradient>
<linearGradient id="paint2_linear_2_3470" x1="11.866" y1="11.3989" x2="14.0918" y2="12.6529" gradientUnits="userSpaceOnUse">
<stop offset="0.12" stop-color="#1797E5"/>
<stop offset="0.14" stop-color="#1693E1"/>
<stop offset="0.33" stop-color="#0A6FBA"/>
<stop offset="0.48" stop-color="#0358A2"/>
<stop offset="0.57" stop-color="#005099"/>
<stop offset="0.71" stop-color="#0663AD"/>
<stop offset="0.99" stop-color="#1694E2"/>
<stop offset="1" stop-color="#1797E5"/>
</linearGradient>
<linearGradient id="paint3_linear_2_3470" x1="4.90738" y1="6.1191" x2="12.7721" y2="13.4306" gradientUnits="userSpaceOnUse">
<stop offset="0.13" stop-color="#1797E5"/>
<stop offset="0.26" stop-color="#1693E1"/>
<stop offset="0.4" stop-color="#1287D4"/>
<stop offset="0.54" stop-color="#0B73BE"/>
<stop offset="0.69" stop-color="#0257A0"/>
<stop offset="0.72" stop-color="#005099"/>
</linearGradient>
<linearGradient id="paint4_linear_2_3470" x1="3907.11" y1="4191.46" x2="3178.98" y2="2107.89" gradientUnits="userSpaceOnUse">
<stop offset="0.33" stop-color="#F3F5F7"/>
<stop offset="0.78" stop-color="#8099B9"/>
</linearGradient>
<linearGradient id="paint5_linear_2_3470" x1="9.59061" y1="8.38413" x2="7.25927" y2="7.87512" gradientUnits="userSpaceOnUse">
<stop offset="0.17" stop-color="#F7AE2D"/>
<stop offset="0.86" stop-color="#B04211"/>
</linearGradient>
<linearGradient id="paint6_linear_2_3470" x1="472.426" y1="801.07" x2="721.015" y2="830.592" gradientUnits="userSpaceOnUse">
<stop offset="0.17" stop-color="#F7AE2D"/>
<stop offset="0.86" stop-color="#B04211"/>
</linearGradient>
<linearGradient id="paint7_linear_2_3470" x1="4.55451" y1="6.87908" x2="5.97304" y2="2.42377" gradientUnits="userSpaceOnUse">
<stop offset="0.26" stop-color="#1797E5"/>
<stop offset="0.4" stop-color="#1694E2"/>
<stop offset="0.51" stop-color="#138BD8"/>
<stop offset="0.61" stop-color="#0E7CC8"/>
<stop offset="0.7" stop-color="#0767B1"/>
<stop offset="0.77" stop-color="#005099"/>
</linearGradient>
<linearGradient id="paint8_linear_2_3470" x1="8.46448" y1="10.2517" x2="7.38775" y2="9.92805" gradientUnits="userSpaceOnUse">
<stop offset="0.26" stop-color="#1797E5"/>
<stop offset="0.77" stop-color="#005099"/>
</linearGradient>
<linearGradient id="paint9_linear_2_3470" x1="1162.59" y1="1374.4" x2="976.357" y2="1412.57" gradientUnits="userSpaceOnUse">
<stop offset="0.26" stop-color="#1797E5"/>
<stop offset="0.77" stop-color="#005099"/>
</linearGradient>
<radialGradient id="paint10_radial_2_3470" cx="0" cy="0" r="1" gradientUnits="userSpaceOnUse" gradientTransform="translate(6682.87 4325.43) rotate(6.68) scale(3021.12 1463.18)">
<stop offset="0.26" stop-color="#1797E5"/>
<stop offset="0.77" stop-color="#005099"/>
</radialGradient>
<linearGradient id="paint11_linear_2_3470" x1="871.523" y1="457.719" x2="2479.32" y2="708.48" gradientUnits="userSpaceOnUse">
<stop offset="0.33" stop-color="#F3F5F7"/>
<stop offset="0.78" stop-color="#8099B9"/>
</linearGradient>
<linearGradient id="paint12_linear_2_3470" x1="994.148" y1="567.439" x2="1618.91" y2="567.439" gradientUnits="userSpaceOnUse">
<stop offset="0.33" stop-color="#F3F5F7"/>
<stop offset="0.78" stop-color="#8099B9"/>
</linearGradient>
<linearGradient id="paint13_linear_2_3470" x1="675.628" y1="529.836" x2="831.825" y2="529.836" gradientUnits="userSpaceOnUse">
<stop offset="0.33" stop-color="#F3F5F7"/>
<stop offset="0.78" stop-color="#8099B9"/>
</linearGradient>
<linearGradient id="paint14_linear_2_3470" x1="737.336" y1="73.2384" x2="700.921" y2="-1.58013" gradientUnits="userSpaceOnUse">
<stop offset="0.33" stop-color="#F3F5F7"/>
<stop offset="0.78" stop-color="#8099B9"/>
</linearGradient>
<linearGradient id="paint15_linear_2_3470" x1="-596.659" y1="-240.031" x2="-651.881" y2="-202.105" gradientUnits="userSpaceOnUse">
<stop offset="0.33" stop-color="#F3F5F7"/>
<stop offset="0.78" stop-color="#8099B9"/>
</linearGradient>
<linearGradient id="paint16_linear_2_3470" x1="944.89" y1="24.693" x2="882.649" y2="-19.8114" gradientUnits="userSpaceOnUse">
<stop offset="0.33" stop-color="#F3F5F7"/>
<stop offset="0.78" stop-color="#8099B9"/>
</linearGradient>
<linearGradient id="paint17_linear_2_3470" x1="873.07" y1="66.9573" x2="797.433" y2="41.6066" gradientUnits="userSpaceOnUse">
<stop offset="0.33" stop-color="#F3F5F7"/>
<stop offset="0.78" stop-color="#8099B9"/>
</linearGradient>
<linearGradient id="paint18_linear_2_3470" x1="343.634" y1="-20.9105" x2="376.125" y2="-25.1249" gradientUnits="userSpaceOnUse">
<stop offset="0.33" stop-color="#F3F5F7"/>
<stop offset="0.78" stop-color="#8099B9"/>
</linearGradient>
<linearGradient id="paint19_linear_2_3470" x1="301.327" y1="2.87291" x2="333.19" y2="3.36392" gradientUnits="userSpaceOnUse">
<stop offset="0.33" stop-color="#F3F5F7"/>
<stop offset="0.78" stop-color="#8099B9"/>
</linearGradient>
<linearGradient id="paint20_linear_2_3470" x1="139.228" y1="239.061" x2="154.61" y2="272.988" gradientUnits="userSpaceOnUse">
<stop offset="0.33" stop-color="#F3F5F7"/>
<stop offset="0.78" stop-color="#8099B9"/>
</linearGradient>
<linearGradient id="paint21_linear_2_3470" x1="177.698" y1="239.666" x2="193.954" y2="274.913" gradientUnits="userSpaceOnUse">
<stop offset="0.33" stop-color="#F3F5F7"/>
<stop offset="0.78" stop-color="#8099B9"/>
</linearGradient>
<linearGradient id="paint22_linear_2_3470" x1="226.811" y1="249.233" x2="241.889" y2="281.141" gradientUnits="userSpaceOnUse">
<stop offset="0.33" stop-color="#F3F5F7"/>
<stop offset="0.78" stop-color="#8099B9"/>
</linearGradient>
<linearGradient id="paint23_linear_2_3470" x1="245.016" y1="-5.74221" x2="274.305" y2="-3.2514" gradientUnits="userSpaceOnUse">
<stop offset="0.33" stop-color="#F3F5F7"/>
<stop offset="0.78" stop-color="#8099B9"/>
</linearGradient>
<radialGradient id="paint24_radial_2_3470" cx="0" cy="0" r="1" gradientUnits="userSpaceOnUse" gradientTransform="translate(4.00315 11.0249) scale(4.56718 2.87732)">
<stop offset="0.17" stop-color="#3FC0E5"/>
<stop offset="0.62" stop-color="#20A1E6"/>
</radialGradient>
<linearGradient id="paint25_linear_2_3470" x1="528.475" y1="678.203" x2="490.351" y2="664.388" gradientUnits="userSpaceOnUse">
<stop offset="0.26" stop-color="#1797E5"/>
<stop offset="0.77" stop-color="#005099"/>
</linearGradient>
<linearGradient id="paint26_linear_2_3470" x1="810.194" y1="690.283" x2="753.33" y2="662.701" gradientUnits="userSpaceOnUse">
<stop offset="0.26" stop-color="#1797E5"/>
<stop offset="0.77" stop-color="#005099"/>
</linearGradient>
<linearGradient id="paint27_linear_2_3470" x1="470.907" y1="1203.86" x2="318.933" y2="1166.03" gradientUnits="userSpaceOnUse">
<stop offset="0.26" stop-color="#1797E5"/>
<stop offset="0.77" stop-color="#005099"/>
</linearGradient>
<linearGradient id="paint28_linear_2_3470" x1="442.473" y1="1319.68" x2="300.33" y2="1295.91" gradientUnits="userSpaceOnUse">
<stop offset="0.26" stop-color="#1797E5"/>
<stop offset="0.77" stop-color="#005099"/>
</linearGradient>
<linearGradient id="paint29_linear_2_3470" x1="395.813" y1="351.528" x2="452.987" y2="381.598" gradientUnits="userSpaceOnUse">
<stop offset="0.26" stop-color="#1797E5"/>
<stop offset="0.77" stop-color="#005099"/>
</linearGradient>
<clipPath id="clip0_2_3470">
<rect width="14.9255" height="16" fill="white" transform="translate(0.710938)"/>
</clipPath>
</defs>
</svg>
