<svg width="17" height="16" viewBox="0 0 17 16" fill="none" xmlns="http://www.w3.org/2000/svg">
<g clip-path="url(#clip0_2_3474)">
<path d="M8.51758 16C12.9359 16 16.5176 12.4183 16.5176 8C16.5176 3.58172 12.9359 0 8.51758 0C4.0993 0 0.517578 3.58172 0.517578 8C0.517578 12.4183 4.0993 16 8.51758 16Z" fill="#2B1544"/>
<path d="M13.012 6.25105V9.57905C13.012 9.72705 13.0195 9.87805 12.986 10.0235C12.9102 10.3602 12.7358 10.6666 12.485 10.9035C12.367 11.017 12.22 11.0905 12.0795 11.1735C11.126 11.7285 10.1755 12.285 9.22248 12.841C8.93148 12.9965 8.58748 13.023 8.26448 12.983C8.09579 12.9625 7.93273 12.9091 7.78448 12.826C6.78098 12.241 5.77748 11.6545 4.77448 11.07C4.52948 10.9335 4.34648 10.7085 4.21198 10.4665C4.10198 10.2565 4.02148 10.0255 4.02148 9.78505V6.19205C4.03998 5.84205 4.19498 5.51055 4.41548 5.24605C4.50484 5.13424 4.61295 5.03882 4.73498 4.96405C5.66748 4.42105 6.59998 3.87605 7.53198 3.33105C7.68548 3.24605 7.83098 3.14205 7.99698 3.08505C8.27768 2.99739 8.5757 2.98055 8.86448 3.03605C8.99298 3.07205 9.12398 3.11005 9.23948 3.17805C10.2545 3.77355 11.271 4.36455 12.2855 4.96055C12.556 5.12055 12.7545 5.38805 12.8835 5.67355C12.965 5.85355 13.012 6.05205 13.012 6.25105ZM8.48698 5.01305C8.27162 5.33234 8.02234 5.62739 7.74348 5.89305C7.59748 6.03155 7.45698 6.18105 7.37348 6.36655C7.30648 6.49755 7.26148 6.64655 7.28048 6.79655C7.30298 6.99855 7.44698 7.17655 7.63398 7.24855C7.82398 7.32455 8.03898 7.30755 8.22798 7.23355C8.262 7.21836 8.29963 7.21316 8.33648 7.21855C8.29948 7.45555 8.15548 7.65555 8.04148 7.86005L8.04648 7.89405C8.14948 8.00405 8.25798 8.10805 8.36048 8.21605C8.38648 8.24055 8.41048 8.27455 8.44648 8.28605C8.56598 8.19355 8.65948 8.07205 8.76948 7.97005C8.79398 7.94205 8.84448 7.91155 8.81798 7.86805C8.71148 7.66805 8.59348 7.46555 8.55998 7.23455C8.57998 7.18755 8.63648 7.22705 8.66998 7.23855C8.84748 7.32555 9.06198 7.33855 9.24748 7.26705C9.49998 7.17055 9.65698 6.87505 9.60048 6.60805C9.55748 6.36805 9.43048 6.14805 9.25848 5.98005C8.99348 5.70755 8.73899 5.41655 8.55798 5.07955C8.55158 5.06404 8.54194 5.05007 8.52969 5.0386C8.51744 5.02713 8.50288 5.01842 8.48698 5.01305ZM6.67048 8.26805C6.37048 8.43105 6.16998 8.75055 6.12048 9.09005C6.05198 9.56655 6.33048 10.0645 6.76198 10.2595C7.03498 10.377 7.35198 10.3745 7.62698 10.267C7.76898 10.21 7.89048 10.117 7.99498 10.0075C8.03448 9.96555 8.09198 9.92805 8.09198 9.86355C8.08698 9.79905 8.02898 9.76355 7.99148 9.71955C7.94248 9.67605 7.90348 9.61955 7.84748 9.58505C7.75748 9.54555 7.70348 9.64405 7.64548 9.69305C7.41798 9.92405 7.00848 9.92605 6.77548 9.70055C6.70041 9.62991 6.64389 9.54186 6.61092 9.44419C6.57796 9.34652 6.56957 9.24223 6.58648 9.14055C6.61448 8.94905 6.72848 8.76755 6.89848 8.67655C7.00848 8.62155 7.13198 8.59155 7.25348 8.59705C7.42498 8.60805 7.58198 8.69905 7.69798 8.82405C8.09398 9.21805 8.47498 9.62655 8.86948 10.022C9.07848 10.2285 9.36798 10.361 9.66298 10.3495C9.88798 10.3545 10.1045 10.2645 10.2875 10.1375C10.557 9.95005 10.721 9.62455 10.7375 9.29555C10.7735 8.77455 10.396 8.24905 9.88748 8.14855C9.56298 8.08255 9.19648 8.15055 8.94648 8.38155C8.76848 8.54355 8.60648 8.72555 8.43048 8.89205C8.24898 8.74255 8.10548 8.55355 7.92798 8.40055C7.85219 8.32865 7.76413 8.2709 7.66798 8.23005C7.64998 8.21855 7.64398 8.21305 7.61998 8.20355C7.46779 8.13888 7.3025 8.11102 7.13752 8.12223C6.97254 8.13344 6.81253 8.18339 6.67048 8.26805ZM9.18898 8.79405C9.31848 8.66505 9.50148 8.58955 9.68398 8.60455C9.88198 8.61005 10.074 8.71605 10.179 8.88655C10.343 9.13655 10.295 9.49605 10.084 9.70205C9.86698 9.91255 9.49498 9.93905 9.26148 9.74005C9.08798 9.59255 8.94248 9.41655 8.77648 9.26155C8.77448 9.25055 8.77248 9.22955 8.77048 9.22005C8.90898 9.07605 9.05048 8.93805 9.18898 8.79405Z" fill="white"/>
</g>
<defs>
<clipPath id="clip0_2_3474">
<rect width="16" height="16" fill="white" transform="translate(0.517578)"/>
</clipPath>
</defs>
</svg>
