<svg width="17" height="16" viewBox="0 0 17 16" fill="none" xmlns="http://www.w3.org/2000/svg">
<g clip-path="url(#clip0_2_3477)">
<path d="M8.29297 16C12.7112 16 16.293 12.4183 16.293 8C16.293 3.58172 12.7112 0 8.29297 0C3.87469 0 0.292969 3.58172 0.292969 8C0.292969 12.4183 3.87469 16 8.29297 16Z" fill="#242424"/>
<path d="M6.82302 11.9371L8.16452 10.5886L9.51152 11.9371L8.65202 12.7981C8.58806 12.8622 8.51208 12.9131 8.42843 12.9478C8.34477 12.9825 8.25509 13.0004 8.16452 13.0004C8.07395 13.0004 7.98427 12.9825 7.90061 12.9478C7.81696 12.9131 7.74098 12.8622 7.67702 12.7981L6.82302 11.9371ZM10.298 7.31607L8.95202 5.96757L10.2985 4.61907L11.6445 5.96757L10.298 7.31607ZM9.96352 11.4976L8.61702 10.1491L12.232 6.52807L13.091 7.38857C13.3605 7.65857 13.3605 8.09507 13.091 8.36507L9.96352 11.4976ZM6.26202 11.3586L4.91602 10.0101L8.52502 6.39507L9.87102 7.74357L6.26202 11.3586ZM4.35102 9.45857L3.49152 8.59757C3.36316 8.46717 3.29177 8.29119 3.29298 8.10823C3.2942 7.92526 3.36794 7.75025 3.49802 7.62157L4.35702 6.76057L5.70352 8.10957L4.35102 9.45857ZM9.73452 4.06457L6.11952 7.68357L4.77302 6.33507L7.90052 3.20207C7.96448 3.13794 8.04046 3.08706 8.12411 3.05234C8.20777 3.01763 8.29745 2.99976 8.38802 2.99976C8.47859 2.99976 8.56827 3.01763 8.65193 3.05234C8.73558 3.08706 8.81156 3.13794 8.87552 3.20207L9.73452 4.06457Z" fill="white"/>
</g>
<defs>
<clipPath id="clip0_2_3477">
<rect width="16" height="16" fill="white" transform="translate(0.292969)"/>
</clipPath>
</defs>
</svg>
