<svg width="24" height="16" viewBox="0 0 24 16" fill="none" xmlns="http://www.w3.org/2000/svg">
<g clip-path="url(#clip0_2_3478)">
<path d="M2.51323 11.6182L0.292969 16H5.46184L7.6821 11.6182H2.51323ZM5.46184 5.80323L3.24157 10.185H8.41044L10.6307 5.80323H5.46184ZM8.41044 0L6.19018 4.38179H11.3473L13.5676 0H8.41044Z" fill="#0175B0"/>
<path d="M7.66951 11.6065L5.4375 16H10.6064L12.8266 11.6065H7.66951ZM10.6064 5.80323L8.3861 10.185H13.555L15.7752 5.80323H10.6064ZM13.555 0L11.3347 4.37004H16.5036L18.7238 0H13.555Z" fill="#00A2D0"/>
<path d="M12.7339 11.6065L10.5137 16H15.6708L17.9028 11.6065H12.7339ZM15.6825 5.80323L13.4623 10.185H18.6311L20.8397 5.80323H15.6825ZM18.6194 0L16.3991 4.37004H21.568L23.7883 0H18.6194Z" fill="#00CCFF"/>
</g>
<defs>
<clipPath id="clip0_2_3478">
<rect width="23.4949" height="16" fill="white" transform="translate(0.292969)"/>
</clipPath>
</defs>
</svg>
