<svg width="21" height="16" viewBox="0 0 21 16" fill="none" xmlns="http://www.w3.org/2000/svg">
<g clip-path="url(#clip0_2_3479)">
<path d="M10.4023 8.34361L15.21 5.56784L10.4023 2.77551V8.34361Z" fill="#2A3D58"/>
<path d="M10.4036 8.34361L5.5957 5.56784L10.4036 2.77551V8.34361Z" fill="#0F2631"/>
<path d="M15.21 0L10.4023 2.77576L15.21 5.5681V0Z" fill="#0F2631"/>
<path d="M15.2109 0L20.0188 2.77576L15.2109 5.5681V0Z" fill="#2A3D58"/>
<path d="M5.5948 0L0.787109 2.77576L5.5948 5.5681V0Z" fill="#0F2631"/>
<path d="M5.5957 0L10.4036 2.77576L5.5957 5.5681V0Z" fill="#2A3D58"/>
<path d="M10.4023 16L15.21 13.2243L10.4023 10.4321V16Z" fill="#2A3D58"/>
<path d="M10.4036 16L5.5957 13.2243L10.4036 10.4321V16Z" fill="#0F2631"/>
<path d="M15.21 7.65662L10.4023 10.4324L15.21 13.2245V7.65662Z" fill="#0F2631"/>
<path d="M15.2109 7.65662L20.0188 10.4324L15.2109 13.2245V7.65662Z" fill="#2A3D58"/>
<path d="M5.5948 7.65662L0.787109 10.4324L5.5948 13.2245V7.65662Z" fill="#0F2631"/>
<path d="M5.5957 7.65662L10.4036 10.4324L5.5957 13.2245V7.65662Z" fill="#2A3D58"/>
</g>
<defs>
<clipPath id="clip0_2_3479">
<rect width="19.2311" height="16" fill="white" transform="translate(0.787109)"/>
</clipPath>
</defs>
</svg>
