<svg width="17" height="16" viewBox="0 0 17 16" fill="none" xmlns="http://www.w3.org/2000/svg">
<g clip-path="url(#clip0_2_3481)">
<path d="M11.0655 6.36683L12.3755 7.35828L13.2038 7.98423L12.2785 8.45465L10.4201 9.40333L11.0577 9.84268L11.9481 10.4609L10.9838 10.9585L5.07422 14.0066C6.05685 14.5473 7.16023 14.8309 8.2818 14.8309C11.9559 14.8309 14.9343 11.8527 14.9343 8.17841C14.9377 6.62056 14.3911 5.1115 13.3908 3.91724L11.0655 6.36683Z" fill="#091B26"/>
<path d="M5.22643 10.152L3.91649 9.15675L3.08814 8.5308L4.01345 8.06037L5.87184 7.11156L5.2342 6.66849L4.34389 6.05019L5.30811 5.55254L11.5327 2.34112C10.4784 1.6797 9.25833 1.33055 8.01379 1.33413C4.33972 1.33413 1.36133 4.31227 1.36133 7.98659C1.36133 9.69337 2.00673 11.2525 3.06425 12.4305L5.22643 10.152Z" fill="#091B26"/>
<path d="M2.55832 12.7641C1.38418 11.4772 0.668788 9.76647 0.668788 7.89248C0.668788 3.89959 3.91912 0.649257 7.91201 0.649257C9.3855 0.649257 10.8201 1.09637 12.0293 1.93994L12.6747 1.60558C11.3531 0.598721 9.70047 0 7.91201 0C3.56145 0 0.0195312 3.54192 0.0195312 7.89248C0.0195312 9.953 0.812689 11.8271 2.10735 13.2343L2.55832 12.7639V12.7641Z" fill="#091B26"/>
<path d="M13.6931 3.41861C14.7701 4.68219 15.4233 6.32289 15.4233 8.10743C15.4233 12.1003 12.1729 15.3507 8.18005 15.3507C6.82708 15.3507 5.50127 14.9735 4.35822 14.2581L3.69336 14.6003C5.01139 15.5139 6.57819 16.0001 8.18005 16.0001C12.5306 16.0001 16.0725 12.4582 16.0725 8.10763C16.0725 6.13629 15.3455 4.32857 14.1441 2.94446L13.6932 3.4188L13.6931 3.41861Z" fill="#091B26"/>
<path d="M4.35402 8.67246L6.24355 10.1032L1.97461 14.6016L10.462 10.2238L8.93009 9.16241L11.7566 7.71608L9.86708 6.28529L14.136 1.79089L5.64874 6.16867L7.18054 7.23031L4.35402 8.67246Z" fill="#23BEE2"/>
</g>
<defs>
<clipPath id="clip0_2_3481">
<rect width="16.0534" height="16" fill="white" transform="translate(0.0195312)"/>
</clipPath>
</defs>
</svg>
