<svg width="17" height="16" viewBox="0 0 17 16" fill="none" xmlns="http://www.w3.org/2000/svg">
<g clip-path="url(#clip0_2_3482)">
<path d="M8.07227 16C12.4905 16 16.0723 12.4183 16.0723 8C16.0723 3.58172 12.4905 0 8.07227 0C3.65399 0 0.0722656 3.58172 0.0722656 8C0.0722656 12.4183 3.65399 16 8.07227 16Z" fill="#396A28"/>
<path fill-rule="evenodd" clip-rule="evenodd" d="M9.10877 6.606L8.07227 5.57L7.02877 6.613L5.94677 5.531L8.07227 2.5L10.2123 5.5025L9.10877 6.606ZM6.66727 6.975L5.64227 8L6.67827 9.0365L5.60027 10.1145L2.57227 8L5.56727 5.875L6.66727 6.975ZM9.45927 9.0435L10.5023 8L9.47027 6.968L10.5833 5.855L13.5723 8L10.5503 10.1345L9.45927 9.0435ZM7.04027 9.3985L8.07227 10.43L9.09727 9.405L10.1883 10.4965L8.07227 13.5L5.97027 10.468L7.04027 9.3985ZM8.07227 6.2635L9.80827 8L8.07227 9.736L6.33627 8L8.07227 6.2635Z" fill="white"/>
</g>
<defs>
<clipPath id="clip0_2_3482">
<rect width="16" height="16" fill="white" transform="translate(0.0722656)"/>
</clipPath>
</defs>
</svg>
