<svg width="15" height="16" viewBox="0 0 15 16" fill="none" xmlns="http://www.w3.org/2000/svg">
<g clip-path="url(#clip0_2_3484)">
<path d="M7.08055 4.10876L10.3381 6.07356L7.08055 7.93596L3.67578 6.07356L7.08055 4.10876Z" fill="#EA259E"/>
<path d="M3.67578 6.14404L7.08052 8.00004L7.06132 11.7888L3.67578 9.99684V6.14404Z" fill="#014C99"/>
<path d="M7.08008 8.00008L10.3761 6.14404L10.4721 9.99693L7.12488 11.8594L7.08008 8.00008Z" fill="#08B0F9"/>
<path d="M13.8518 3.87206L13.8006 3.84006L10.5494 1.97763L7.14468 0.0256004L7.09988 0L7.06148 0.0192003C6.99754 0.0420412 6.93548 0.0698602 6.87588 0.102402L3.90634 1.83683L0.2328 3.98726C0.0792022 4.05766 0.0856021 4.21766 0.0856021 4.31367V4.38407L0.0792022 9.83695L0.0728023 11.8594C0.0664024 11.981 0.117602 12.0898 0.2072 12.1282L4.43113 14.5282L6.92708 15.949C6.97828 15.981 7.03588 16.0002 7.08708 16.0002C7.13088 16.0022 7.17395 15.9886 7.20868 15.9618L10.8182 13.8818L13.8902 12.1154C14.0054 12.0642 14.0758 11.949 14.0566 11.8402L14.0694 4.17926C14.0886 4.00006 13.9414 3.91686 13.8518 3.87206ZM7.07428 4.35847L10.0502 6.08649L7.08068 7.79532L6.0695 7.22571L4.07273 6.09289L7.07428 4.35847ZM10.4534 5.84969L7.22788 3.97446C7.18543 3.94322 7.13438 3.92584 7.08169 3.92469C7.029 3.92355 6.97724 3.93869 6.93348 3.96806L3.66954 5.86249L0.699991 4.17926L2.77356 2.96965L7.08068 0.454407L11.0422 2.72644L13.4614 4.11526L10.4534 5.84969ZM0.495195 4.53127L3.45194 6.20809L3.50954 9.89455C3.50314 10.0098 3.56074 10.1122 3.65034 10.157L5.61511 11.2834L6.87588 12.0066V15.4562L0.482395 11.821L0.495195 4.53127ZM3.86154 6.4385L6.88228 8.14732L6.87588 11.5394L3.91914 9.84335L3.86154 6.4385ZM7.28548 12.013L8.54626 11.2834L10.4918 10.1698L10.511 10.157C10.5494 10.1378 10.5942 10.1058 10.6262 10.061L10.6454 10.0354V10.0034L10.639 7.55851V6.21449L13.6598 4.46727V7.44331L13.6534 11.7826L9.60224 14.1122L7.27908 15.4498L7.28548 12.013ZM7.28548 11.5458V8.14732L10.2614 6.4321V9.83695L7.28548 11.5458Z" fill="#2F2F2F"/>
<path d="M6.99099 0.851146C6.90139 0.863946 6.82459 0.921546 6.78619 0.998346C6.74779 1.08795 6.75419 1.18395 6.79899 1.24795C6.85019 1.32475 6.93339 1.36955 7.02939 1.36955C7.04657 1.36836 7.06366 1.36622 7.08059 1.36315C7.18939 1.35035 7.27259 1.27355 7.29179 1.17755C7.3051 1.13559 7.30677 1.09081 7.29662 1.04798C7.28648 1.00515 7.2649 0.965877 7.23419 0.934346C7.2042 0.900782 7.16607 0.875499 7.12348 0.860928C7.08089 0.846358 7.03526 0.842989 6.99099 0.851146ZM7.16379 1.97115C7.06779 1.91995 6.95899 1.92635 6.88219 1.97755C6.81179 2.01595 6.76699 2.09275 6.75419 2.17595C6.74779 2.26555 6.78619 2.34235 6.83739 2.38715C6.86209 2.41065 6.89122 2.42898 6.92309 2.44107C6.95496 2.45316 6.98893 2.45876 7.02299 2.45755C7.06273 2.45688 7.10192 2.44817 7.13819 2.43195C7.24059 2.39355 7.29819 2.29755 7.29819 2.20155C7.30459 2.11195 7.24699 2.02235 7.16379 1.97115ZM7.17019 3.07195C7.08059 3.01435 6.97179 3.01435 6.88859 3.05915C6.81179 3.09755 6.76059 3.17435 6.75419 3.26395C6.74779 3.35355 6.78619 3.44955 6.85659 3.49435C6.90462 3.52985 6.96332 3.54791 7.02299 3.54555C7.06273 3.54488 7.10192 3.53617 7.13819 3.51995C7.18171 3.50255 7.21944 3.47325 7.24708 3.43541C7.27473 3.39757 7.29116 3.35271 7.2945 3.30597C7.29783 3.25922 7.28795 3.21249 7.26596 3.1711C7.24398 3.12971 7.21079 3.09535 7.17019 3.07195ZM2.82459 10.2463C2.72859 10.2719 2.65819 10.3487 2.63899 10.4447C2.61979 10.5471 2.65179 10.6431 2.72219 10.7007C2.76656 10.7391 2.82357 10.7596 2.88219 10.7583C2.90158 10.7585 2.92091 10.7563 2.93979 10.7519C3.02299 10.7327 3.09339 10.6751 3.11899 10.6047C3.16379 10.5151 3.15099 10.4063 3.07419 10.3231C3.0447 10.2873 3.00532 10.2609 2.96094 10.2472C2.91656 10.2336 2.86915 10.2333 2.82459 10.2463ZM11.0934 10.7647C11.1152 10.7636 11.1368 10.7593 11.1574 10.7519C11.2406 10.7327 11.311 10.6751 11.3302 10.6111C11.375 10.5151 11.3558 10.3999 11.2854 10.3167C11.2531 10.2809 11.2112 10.2552 11.1646 10.2427C11.118 10.2302 11.0689 10.2315 11.023 10.2463C10.9334 10.2719 10.863 10.3487 10.8438 10.4447C10.8246 10.5471 10.863 10.6431 10.9334 10.7007C10.9718 10.7455 11.0294 10.7647 11.0934 10.7647ZM1.89019 10.7967C1.79419 10.8287 1.73019 10.9183 1.72379 11.0207C1.71099 11.1295 1.76219 11.2319 1.84539 11.2767C1.88364 11.3012 1.92798 11.3145 1.97339 11.3151C2.01105 11.3143 2.04812 11.3056 2.08219 11.2895C2.16539 11.2511 2.22299 11.1743 2.22939 11.1039C2.24859 11.0079 2.21019 10.9055 2.13339 10.8415C2.10131 10.8117 2.06139 10.7917 2.01831 10.7838C1.97524 10.7758 1.9308 10.7803 1.89019 10.7967ZM12.0022 11.3087C12.0326 11.31 12.063 11.3056 12.0918 11.2959C12.1814 11.2639 12.2454 11.1871 12.2518 11.1103C12.2774 11.0143 12.2518 10.9183 12.175 10.8479C12.1416 10.816 12.0998 10.7942 12.0544 10.7851C12.0091 10.776 11.9621 10.7801 11.919 10.7967C11.8758 10.8146 11.8379 10.8432 11.8088 10.8798C11.7797 10.9163 11.7604 10.9597 11.7527 11.0058C11.745 11.0519 11.7492 11.0992 11.7648 11.1433C11.7805 11.1873 11.8071 11.2266 11.8422 11.2575C11.8883 11.2921 11.9446 11.3102 12.0022 11.3087ZM1.18619 11.3663C1.10939 11.3215 1.01339 11.3215 0.942994 11.3663C0.859794 11.4111 0.808594 11.4943 0.808594 11.5967C0.808594 11.6991 0.859794 11.7887 0.942994 11.8271C0.977785 11.8481 1.0176 11.8591 1.05819 11.8591C1.10781 11.8599 1.15664 11.8466 1.19899 11.8207C1.28219 11.7631 1.32699 11.6671 1.32059 11.5839C1.32059 11.4943 1.26939 11.4111 1.18619 11.3599V11.3663ZM12.7638 11.8015C12.8062 11.8389 12.8609 11.8594 12.9174 11.8591C12.9503 11.8591 12.983 11.8526 13.0134 11.8399C13.103 11.8015 13.167 11.7119 13.1734 11.6351C13.1926 11.5327 13.1478 11.4303 13.0582 11.3727C12.975 11.3151 12.8726 11.3151 12.7958 11.3663C12.7583 11.3894 12.727 11.4212 12.7047 11.4592C12.6823 11.4971 12.6697 11.54 12.6678 11.5839C12.6614 11.6735 12.6998 11.7567 12.7638 11.8015Z" fill="#2F2F2F"/>
</g>
<defs>
<clipPath id="clip0_2_3484">
<rect width="13.9968" height="16" fill="white" transform="translate(0.0722656)"/>
</clipPath>
</defs>
</svg>
