<svg width="17" height="16" viewBox="0 0 17 16" fill="none" xmlns="http://www.w3.org/2000/svg">
<g clip-path="url(#clip0_2_3485)">
<path d="M8.07401 16.0113C12.4954 16.0113 16.0797 12.427 16.0797 8.00565C16.0797 3.58425 12.4954 0 8.07401 0C3.65261 0 0.0683594 3.58425 0.0683594 8.00565C0.0683594 12.427 3.65261 16.0113 8.07401 16.0113Z" fill="#7866D5"/>
<path d="M11.3143 4.11017C11.5853 4.14404 11.8676 4.16663 12.1386 4.21179C12.6693 4.31341 12.8499 4.58441 12.7596 5.1264C12.737 5.32965 12.5789 5.48773 12.3757 5.5216C12.2515 5.54418 12.116 5.55548 11.9918 5.54418C10.2303 5.54418 8.48014 5.55548 6.71867 5.55548C6.45897 5.55548 6.18798 5.57806 5.92827 5.62322C5.05883 5.75872 4.72009 6.12005 4.65234 7.00078C4.61846 7.40727 4.61846 7.40727 5.03625 7.40727H12.037C12.1047 7.40727 12.1725 7.40727 12.2402 7.40727C12.3531 7.40727 12.4547 7.44115 12.5564 7.49761C12.8725 7.70085 12.7935 8.02831 12.7822 8.32188C12.7709 8.559 12.6241 8.6945 12.3757 8.73967C12.2741 8.76225 12.1724 8.76225 12.0595 8.76225C9.66575 8.76225 7.27196 8.76225 4.87817 8.76225C4.61846 8.76225 4.61846 8.76225 4.64105 9.02195C4.65234 9.25907 4.67492 9.49619 4.73138 9.73332C4.84429 10.1624 5.104 10.4334 5.54436 10.5576C6.0186 10.6931 6.51543 10.7157 7.00096 10.727C8.70597 10.727 10.4223 10.727 12.1386 10.727C12.3531 10.727 12.5564 10.7495 12.6919 10.9528C12.9064 11.2915 12.7935 11.7319 12.4547 11.9464C12.4096 11.9803 12.3644 12.0029 12.3079 12.0142C11.9353 12.1384 11.5514 12.161 11.1562 12.1723C9.54154 12.2061 7.93815 12.2061 6.33476 12.1723C5.83794 12.161 5.34112 12.1045 4.85558 12.0029C3.71515 11.7658 3.13928 11.1786 2.94733 10.0269C2.90216 9.76719 2.87958 9.49619 2.8457 9.2252V7.12499C2.86829 6.92174 2.89087 6.7072 2.91345 6.50396C3.06024 5.20544 3.6474 4.56183 4.92333 4.26825C5.37499 4.16663 5.84923 4.14404 6.30089 4.09888L11.3143 4.11017Z" fill="white"/>
<path d="M8.73997 12.398C7.92698 12.398 7.12529 12.3867 6.32359 12.3754C5.81548 12.3641 5.30736 12.3076 4.81054 12.1947C3.57977 11.935 2.94745 11.2801 2.7442 10.0606C2.71033 9.86869 2.68774 9.67674 2.67645 9.49607C2.66516 9.41703 2.65387 9.33799 2.64258 9.24766V9.22508V7.10228L2.66516 6.89904C2.67645 6.75225 2.69904 6.61675 2.71033 6.48125C2.86841 5.0924 3.52331 4.38104 4.88958 4.07617C5.25091 3.99713 5.60094 3.96326 5.95098 3.92938C6.06389 3.91809 6.17681 3.9068 6.28972 3.89551H6.3123H11.337H11.3483C11.4273 3.9068 11.5177 3.91809 11.5967 3.91809C11.7887 3.94067 11.9806 3.95197 12.1839 3.99713C12.8275 4.12134 13.0759 4.48266 12.963 5.13757C12.9291 5.41985 12.7033 5.65698 12.3984 5.70214C12.2629 5.72472 12.1274 5.73602 11.9806 5.73602C10.2304 5.74731 8.46897 5.7586 6.7188 5.7586C6.47038 5.7586 6.21068 5.78118 5.96227 5.82635C5.18316 5.95055 4.92345 6.23284 4.8557 7.02324C4.8557 7.09099 4.84441 7.15874 4.84441 7.2152C4.88958 7.2152 4.96862 7.2152 5.03637 7.2152H12.2403C12.3871 7.2152 12.5339 7.26036 12.6581 7.32811C13.042 7.57652 13.0081 7.94914 12.9856 8.22014C12.9856 8.25401 12.9743 8.29918 12.9743 8.33305C12.9517 8.64921 12.7597 8.86375 12.4097 8.9315C12.2855 8.95408 12.1726 8.95408 12.0597 8.95408H4.88958C4.87829 8.95408 4.8557 8.95408 4.84441 8.95408C4.84441 8.96537 4.84441 8.97667 4.84441 8.98796V8.99925C4.8557 9.23637 4.87829 9.4622 4.93474 9.68803C5.02508 10.0381 5.23961 10.2526 5.60094 10.3542C6.08647 10.4897 6.5833 10.5123 7.01237 10.5123C8.34477 10.5236 9.69974 10.5236 11.0208 10.5236H12.15C12.3194 10.5236 12.6694 10.5236 12.8726 10.851C13.0081 11.0656 13.042 11.314 12.9856 11.5511C12.9291 11.7882 12.7823 11.9915 12.5678 12.127C12.5113 12.1609 12.4436 12.1947 12.3758 12.2173C11.958 12.3528 11.529 12.3754 11.1676 12.3867C10.3659 12.3867 9.55295 12.398 8.73997 12.398ZM3.04907 9.21379C3.06036 9.29283 3.07165 9.37187 3.07165 9.45091C3.09424 9.63157 3.11682 9.81223 3.1394 9.9929C3.32007 11.0543 3.82818 11.5737 4.88958 11.7995C5.36382 11.9012 5.84935 11.9576 6.33489 11.9689C7.92698 12.0028 9.55295 12.0028 11.1563 11.9689C11.4838 11.9576 11.879 11.935 12.2403 11.8221C12.2742 11.8108 12.3081 11.7882 12.3419 11.7769C12.4549 11.6979 12.5452 11.585 12.5791 11.4495C12.6129 11.314 12.5904 11.1785 12.5113 11.0543C12.4436 10.9527 12.3532 10.9188 12.1387 10.9188H11.0096C9.69974 10.9188 8.33347 10.9188 7.00108 10.9075C6.54942 10.9075 6.01872 10.8849 5.48803 10.7268C4.97991 10.5913 4.66375 10.2639 4.53954 9.75578C4.48309 9.50736 4.44921 9.24766 4.44921 8.99925V8.98796C4.43792 8.82988 4.42663 8.71696 4.51696 8.61534C4.60729 8.51372 4.7315 8.51372 4.88958 8.51372H12.0709C12.1613 8.51372 12.2629 8.51371 12.3532 8.49113C12.5339 8.45726 12.5791 8.37822 12.5904 8.2653C12.5904 8.22014 12.6016 8.18626 12.6016 8.1411C12.6242 7.85881 12.6242 7.72331 12.4661 7.62169C12.4097 7.58782 12.3307 7.56523 12.2629 7.56523H5.03637C4.78796 7.56523 4.64117 7.56523 4.52825 7.45232C4.41534 7.3394 4.43792 7.18132 4.44921 6.9442C4.52825 5.97314 4.93474 5.53277 5.89452 5.38598C6.16551 5.34081 6.43651 5.31823 6.7188 5.30694C8.48026 5.30694 10.2304 5.29565 11.9919 5.29565C12.1161 5.29565 12.229 5.29565 12.3419 5.27307C12.4549 5.26177 12.5452 5.17144 12.5565 5.05853C12.6355 4.60687 12.5226 4.46008 12.0935 4.36975C11.9129 4.33587 11.7322 4.31329 11.5515 4.302C11.4725 4.29071 11.3822 4.27942 11.3031 4.27942H6.3123C6.19939 4.29071 6.08647 4.302 5.97356 4.31329C5.62352 4.34717 5.29607 4.36975 4.95733 4.44879C3.77172 4.74237 3.25232 5.31823 3.11682 6.53771C3.10553 6.67321 3.08295 6.8087 3.07165 6.95549L3.04907 7.14745V9.21379Z" fill="white"/>
</g>
<defs>
<clipPath id="clip0_2_3485">
<rect width="16" height="16" fill="white" transform="translate(0.0683594)"/>
</clipPath>
</defs>
</svg>
