<svg width="12" height="16" viewBox="0 0 12 16" fill="none" xmlns="http://www.w3.org/2000/svg">
<g clip-path="url(#clip0_2_3489)">
<path d="M0.75 8.71351C2.49053 9.63784 4.30672 10.6054 5.70948 11.354L10.6284 8.71351C8.84731 11.3594 7.36332 13.5622 5.70948 16C4.05269 13.5675 2.22298 10.8835 0.75 8.71351ZM0.939181 7.98368L5.71485 5.43534L10.4284 7.96504L5.71754 10.5162L0.939181 7.98368ZM5.70948 4.61889L0.75 7.22971L5.68784 0L10.6284 7.2459L5.70948 4.61889Z" fill="#3AB83A"/>
<path d="M5.70914 11.354L10.6281 8.71351C8.84701 11.3594 5.70914 16 5.70914 16V11.354ZM5.71452 5.43534L10.4281 7.96504L5.71721 10.5162L5.71452 5.43534ZM5.70914 4.61908L5.6875 0L10.6281 7.2459L5.70914 4.61908Z" fill="#0B8311"/>
<path d="M0.939453 7.98373L5.71538 8.37566L10.4289 7.96753L5.71781 10.5189L0.939453 7.98373Z" fill="#0B8311"/>
<path d="M5.71484 8.37566L10.4284 7.96753L5.71753 10.5189L5.71484 8.37566Z" fill="#146714"/>
</g>
<defs>
<clipPath id="clip0_2_3489">
<rect width="11" height="16" fill="white" transform="translate(0.548828)"/>
</clipPath>
</defs>
</svg>
