<svg width="17" height="16" viewBox="0 0 17 16" fill="none" xmlns="http://www.w3.org/2000/svg">
<g clip-path="url(#clip0_2_3491)">
<path d="M8.54883 16C12.9671 16 16.5488 12.4183 16.5488 8C16.5488 3.58172 12.9671 0 8.54883 0C4.13055 0 0.548828 3.58172 0.548828 8C0.548828 12.4183 4.13055 16 8.54883 16Z" fill="#4096D0"/>
<path d="M13.3148 5H10.0673L9.10433 7.415H6.06733V6.17151H9.10433L9.54883 5H4.94983C4.89289 4.99974 4.83818 5.02207 4.79768 5.06209C4.75719 5.10212 4.73422 5.15657 4.73383 5.2135V7.41451H3.99383L3.54883 8.5855H4.73383V10.784C4.73383 10.903 4.83183 11 4.95283 11H7.17833L7.62283 9.8295H6.06733V8.58501H8.58583L7.62283 11H9.10433L10.1413 8.58501H13.3313C13.4513 8.58501 13.5488 8.489 13.5488 8.3705V5.23051C13.5483 5.16893 13.5234 5.11008 13.4795 5.06686C13.4356 5.02365 13.3764 4.99961 13.3148 5ZM12.2898 7.23001C12.2898 7.33201 12.2063 7.415 12.1028 7.415H10.5858L11.1043 6.172H12.1018C12.1512 6.17147 12.1988 6.19054 12.2341 6.22504C12.2695 6.25953 12.2897 6.30663 12.2903 6.356L12.2898 7.23001Z" fill="white"/>
</g>
<defs>
<clipPath id="clip0_2_3491">
<rect width="16" height="16" fill="white" transform="translate(0.548828)"/>
</clipPath>
</defs>
</svg>
