<svg width="16" height="16" viewBox="0 0 16 16" fill="none" xmlns="http://www.w3.org/2000/svg">
<g clip-path="url(#clip0_2_3494)">
<path d="M8 16.0002C12.4183 16.0002 16 12.4185 16 8.00024C16 3.58197 12.4183 0.000244141 8 0.000244141C3.58172 0.000244141 0 3.58197 0 8.00024C0 12.4185 3.58172 16.0002 8 16.0002Z" fill="#25AAE3"/>
<path d="M13.5 8.00024C13.5 11.0377 11.0375 13.5002 8 13.5002C4.9625 13.5002 2.5 11.0377 2.5 8.00024C2.5 4.96224 4.9625 2.50024 8 2.50024C11.0375 2.50024 13.5 4.96274 13.5 8.00024ZM11.615 8.17324C11.6185 8.11074 11.615 8.17324 11.615 8.10974C11.615 6.30624 10.2825 4.70424 8.554 4.43474V3.38474L7.434 3.73374V4.43524C5.7065 4.70424 4.383 6.19524 4.383 7.99774C4.383 9.84274 5.768 11.3627 7.555 11.5802V12.6142L8.675 12.2652V11.5422C9.29292 11.4228 9.86895 11.144 10.3461 10.7336C10.8232 10.3232 11.185 9.79535 11.3955 9.20224H10.235C10.0182 9.60786 9.69526 9.94698 9.30075 10.1834C8.90624 10.4199 8.45494 10.5447 7.995 10.5447C7.35166 10.5443 6.73234 10.3004 6.26144 9.86204C5.79055 9.4237 5.50298 8.8234 5.4565 8.18174L11.6155 8.17324H11.615ZM5.625 7.06524C5.8122 6.58924 6.13841 6.18064 6.56114 5.89267C6.98386 5.6047 7.48351 5.45071 7.995 5.45074C8.50626 5.45118 9.00556 5.60545 9.42797 5.89348C9.85038 6.1815 10.1764 6.58996 10.3635 7.06574H5.6255L5.625 7.06524Z" fill="white"/>
</g>
<defs>
<clipPath id="clip0_2_3494">
<rect width="16" height="16" fill="white" transform="translate(0 0.000244141)"/>
</clipPath>
</defs>
</svg>
