<svg width="16" height="16" viewBox="0 0 16 16" fill="none" xmlns="http://www.w3.org/2000/svg">
<g clip-path="url(#clip0_2_3495)">
<path d="M8 16.0002C12.4183 16.0002 16 12.4185 16 8.00024C16 3.58197 12.4183 0.000244141 8 0.000244141C3.58172 0.000244141 0 3.58197 0 8.00024C0 12.4185 3.58172 16.0002 8 16.0002Z" fill="#FFAA5C"/>
<path fill-rule="evenodd" clip-rule="evenodd" d="M13 7.35874C12.998 7.37824 12.995 7.39724 12.995 7.41674C12.9925 8.02674 12.99 8.63724 12.989 9.24774L12.987 10.5012C12.987 10.5412 12.9835 10.5812 12.981 10.6312C12.959 10.6212 12.943 10.6147 12.928 10.6062L10.601 9.30874C10.5595 9.28574 10.556 9.26524 10.576 9.22424C10.9725 8.41024 10.974 7.59424 10.5835 6.77824C10.565 6.73924 10.5685 6.71974 10.6085 6.69774L12.9365 5.39124C12.956 5.38024 12.9785 5.37474 13 5.36674V7.35874ZM8.15 2.50024C8.189 2.52374 8.2275 2.54874 8.2675 2.57124L12.792 5.11374C12.809 5.12324 12.825 5.13374 12.8485 5.14774C12.8275 5.16124 12.8135 5.17124 12.798 5.17974L10.489 6.46924C10.4285 6.50274 10.429 6.50224 10.389 6.44524C9.877 5.72774 9.175 5.31774 8.283 5.21374C8.25646 5.21043 8.22974 5.20876 8.203 5.20874C8.156 5.20874 8.138 5.19074 8.138 5.14124C8.1375 4.63474 8.1345 4.12774 8.133 3.62124L8.1315 2.57174C8.1315 2.54774 8.137 2.52424 8.14 2.50024H8.15ZM7.84 13.5002C7.823 13.4877 7.8075 13.4737 7.79 13.4637L3.2315 10.9012C3.21 10.8892 3.1895 10.8762 3.16 10.8592C3.18 10.8457 3.193 10.8352 3.208 10.8267C3.973 10.3992 4.738 9.97224 5.503 9.54374C5.549 9.51774 5.5705 9.52774 5.599 9.56724C6.077 10.2302 6.73 10.6222 7.5495 10.7557C7.633 10.7692 7.7185 10.7757 7.803 10.7797C7.851 10.7817 7.87 10.7947 7.87 10.8447C7.8695 11.2932 7.8715 11.7417 7.873 12.1897L7.8755 13.4627C7.8755 13.4752 7.872 13.4877 7.87 13.5002H7.84ZM3 10.2252C3.0025 10.2102 3.0075 10.1947 3.008 10.1792L3.01 9.54774L3.0135 8.13424L3.02 5.90474L3.0225 5.42424C3.0225 5.41024 3.0245 5.39624 3.026 5.37374C3.048 5.38424 3.064 5.39074 3.079 5.39924C3.84 5.82424 4.6005 6.24924 5.3625 6.67324C5.407 6.69774 5.413 6.71674 5.391 6.76324C4.991 7.58374 4.993 8.40524 5.391 9.22674C5.4235 9.29274 5.4245 9.29224 5.3595 9.32874C4.5955 9.75874 3.8315 10.1877 3.067 10.6162C3.0475 10.6272 3.022 10.6282 3 10.6337V10.2257V10.2252ZM9.7365 9.76024C9.818 9.47374 9.8445 9.18524 9.8265 8.89224C9.8055 8.53324 9.7165 8.19224 9.5295 7.87924C9.3145 7.51824 9.0035 7.25674 8.6245 7.06674C8.5245 7.01624 8.5135 7.04174 8.573 6.91674C8.7075 6.63524 8.943 6.46024 9.233 6.34824C9.43494 6.2746 9.64719 6.2331 9.862 6.22524C9.8923 6.22652 9.92095 6.23941 9.942 6.26124C10.3023 6.63687 10.5362 7.11568 10.611 7.63074C10.8025 8.93424 9.953 10.1577 8.634 10.4817C7.1705 10.8417 5.686 9.94074 5.382 8.50974C5.098 7.17024 5.956 5.87474 7.236 5.53274C8.1975 5.27624 9.0505 5.48074 9.797 6.11774L9.8815 6.18974L9.871 6.20574C9.7975 6.19674 9.7245 6.18574 9.651 6.17874C9.1945 6.13574 8.7455 6.16574 8.31 6.31524C7.7755 6.49218 7.32759 6.86455 7.056 7.35774C7.016 7.42874 7.013 7.42924 6.936 7.40274C6.83728 7.36811 6.7483 7.31033 6.6765 7.23424C6.53422 7.08671 6.42676 6.90921 6.362 6.71474C6.3035 6.54474 6.2605 6.36974 6.2105 6.19724C6.2065 6.18374 6.2035 6.16974 6.1915 6.15524C6.1845 6.19524 6.1765 6.23424 6.1705 6.27424C6.1645 6.31424 6.1595 6.35424 6.1555 6.39424C6.108 6.84124 6.1335 7.28124 6.288 7.70774C6.48 8.23974 6.8415 8.62274 7.3695 8.85574C7.4385 8.88624 7.4385 8.88674 7.4015 8.94974C7.206 9.28174 6.8995 9.44874 6.521 9.50574C6.345 9.53224 6.169 9.52174 5.9895 9.50874C6.006 9.51524 6.022 9.52274 6.0385 9.52874C6.9035 9.82624 7.8535 9.69274 8.569 8.93574C8.74892 8.7431 8.90627 8.53056 9.038 8.30224C9.072 8.24324 9.0745 8.24274 9.1295 8.28274C9.364 8.45374 9.5035 8.68774 9.5995 8.95024C9.689 9.19174 9.7245 9.44274 9.733 9.69824C9.7335 9.71874 9.735 9.73924 9.7365 9.75974V9.76024ZM12.8705 10.8662L8.139 13.4907C8.1365 13.4632 8.133 13.4462 8.133 13.4297C8.133 12.5647 8.133 11.6997 8.132 10.8347C8.132 10.7962 8.1435 10.7822 8.185 10.7787C9.105 10.7027 9.8345 10.2997 10.37 9.56724C10.4165 9.50274 10.416 9.50224 10.485 9.54074L12.8065 10.8282C12.8245 10.8382 12.8425 10.8497 12.8705 10.8662ZM7.8695 2.51824C7.871 2.54624 7.8725 2.56324 7.8725 2.58024C7.8725 3.43374 7.8725 4.28724 7.8735 5.14024C7.8735 5.18024 7.8675 5.20024 7.8185 5.20374C6.8795 5.27174 6.137 5.67824 5.593 6.42524C5.55 6.48424 5.551 6.48474 5.488 6.44974L3.2275 5.19474C3.201 5.17974 3.1765 5.16174 3.151 5.14474C3.177 5.12674 3.201 5.10624 3.229 5.09074L7.784 2.56274C7.8095 2.54874 7.8355 2.53624 7.869 2.51824H7.8695Z" fill="white"/>
</g>
<defs>
<clipPath id="clip0_2_3495">
<rect width="16" height="16" fill="white" transform="translate(0 0.000244141)"/>
</clipPath>
</defs>
</svg>
