<svg width="16" height="16" viewBox="0 0 16 16" fill="none" xmlns="http://www.w3.org/2000/svg">
<g clip-path="url(#clip0_2_3496)">
<path d="M8 16.0002C12.4183 16.0002 16 12.4185 16 8.00024C16 3.58197 12.4183 0.000244141 8 0.000244141C3.58172 0.000244141 0 3.58197 0 8.00024C0 12.4185 3.58172 16.0002 8 16.0002Z" fill="#008200"/>
<path d="M7.395 11.5002H6.496L5.955 9.37524L7.2775 8.68424L7.708 9.91424L8.0285 8.29174L9.786 7.37324L9.689 7.86124L10.704 7.87074C11.096 7.86474 11.3995 7.73224 11.6155 7.47424C11.8315 7.21574 11.934 6.86924 11.923 6.43274C11.9213 6.37656 11.9154 6.32058 11.9055 6.26524L13.2705 5.55174C13.4595 5.89924 13.5315 6.30874 13.4875 6.77924C13.4145 7.46524 13.1175 8.01424 12.598 8.42574C12.0785 8.83774 11.416 9.04374 10.6115 9.04374L9.4585 9.03874L8.97 11.5002H7.395ZM7.6055 6.00524H8.4805L7.132 7.91774L3.802 9.65824L5.036 7.91324L3.85 4.50024H5.59L6.205 6.89474L6.731 6.00474H7.606H6.731L7.67 4.50024H8.7775L11.3405 4.50524C11.923 4.52124 12.4005 4.67574 12.7735 4.96874L11.3735 5.70074C11.3391 5.69436 11.3044 5.69002 11.2695 5.68774L10.1225 5.67774L9.9725 6.43274L8.214 7.35174L8.48 6.00474L7.6055 6.00524ZM2.893 10.9762L5.5565 9.58374L4.3825 11.5002H2.5L2.8835 10.9577L2.893 10.9762Z" fill="white"/>
</g>
<defs>
<clipPath id="clip0_2_3496">
<rect width="16" height="16" fill="white" transform="translate(0 0.000244141)"/>
</clipPath>
</defs>
</svg>
