<svg width="17" height="16" viewBox="0 0 17 16" fill="none" xmlns="http://www.w3.org/2000/svg">
<g clip-path="url(#clip0_2_3500)">
<path d="M0.748047 0.000244141V16.0002H16.492V0.000244141H0.748047ZM6.25205 1.85624H7.72405V3.39224H6.25205V1.85624ZM2.54005 1.85624H4.07605V3.39224H2.54005V1.85624ZM4.01205 5.56824V7.10424H2.47605V5.56824H4.01205ZM3.62805 14.0162H2.98805V13.4402H3.56405V14.0162H3.62805ZM4.07605 10.9442H2.54005V9.47224H4.07605V10.9442ZM7.34005 14.0162H6.76405V13.4402H7.34005V14.0162ZM7.34005 10.4322H6.76405V9.85624H7.34005V10.4322ZM7.78805 7.16824H6.25205V5.63224H7.78805V7.16824ZM11.052 14.0162H10.476V13.4402H11.052V14.0162ZM11.052 10.4322H10.476V9.85624H11.052V10.4322ZM11.052 6.65624H10.476V6.08024H11.052V6.65624ZM11.564 3.39224H10.028V1.85624H11.564V3.39224ZM14.828 14.0162H14.252V13.4402H14.828V14.0162ZM14.828 10.4322H14.252V9.85624H14.828V10.4322ZM14.828 6.65624H14.252V6.08024H14.828V6.65624ZM14.828 2.94424H14.252V2.36824H14.828V2.94424Z" fill="#202944"/>
</g>
<defs>
<clipPath id="clip0_2_3500">
<rect width="15.744" height="16" fill="white" transform="translate(0.748047 0.000244141)"/>
</clipPath>
</defs>
</svg>
