<svg width="17" height="16" viewBox="0 0 17 16" fill="none" xmlns="http://www.w3.org/2000/svg">
<g clip-path="url(#clip0_2_3502)">
<path d="M8.49219 16.0002C12.9105 16.0002 16.4922 12.4185 16.4922 8.00024C16.4922 3.58197 12.9105 0.000244141 8.49219 0.000244141C4.07391 0.000244141 0.492188 3.58197 0.492188 8.00024C0.492188 12.4185 4.07391 16.0002 8.49219 16.0002Z" fill="#2080A2"/>
<path fill-rule="evenodd" clip-rule="evenodd" d="M8.48219 10.1487C7.90969 10.8022 7.89569 11.6987 8.48869 12.2957C9.04919 11.7557 9.04969 10.7492 8.48219 10.1487ZM8.48269 4.05274C7.13019 5.61674 7.18119 7.46574 8.48169 9.00224C9.80569 7.43424 9.80919 5.59424 8.48269 4.05224V4.05274ZM9.43869 8.56524C10.5637 7.41524 11.9362 7.15224 13.4922 7.40124C12.9907 8.55124 12.2832 9.46974 11.0332 9.95024C11.3092 9.73374 11.5607 9.55674 11.7882 9.35374C12.1682 9.01524 12.4372 8.60524 12.5717 8.11274C12.6142 7.95724 12.5592 7.91324 12.4162 7.89024C11.8927 7.80624 11.4012 7.91624 10.9317 8.13024C10.1417 8.49024 9.49819 9.04474 8.89469 9.64724C8.88419 9.65824 8.87969 9.67424 8.86069 9.70874C10.0432 9.75374 10.9437 10.2257 11.4772 11.3162C10.7842 11.4702 10.1502 11.4377 9.56219 11.0597C10.0052 11.1957 10.4472 11.2947 10.9322 11.0647C10.8722 10.9647 10.8372 10.8477 10.7572 10.7822C10.5387 10.6037 10.3147 10.4232 10.0672 10.2872C9.68469 10.0782 9.25719 9.98024 8.78419 9.88324C9.42269 11.0017 9.26269 12.0172 8.48219 13.0002C8.11919 12.5427 7.86519 12.0642 7.79569 11.4992C7.72569 10.9322 7.88519 10.4172 8.15869 9.92424C7.55369 9.82724 6.24819 10.5277 6.04619 11.0677C6.51469 11.3047 6.97169 11.1967 7.44219 11.0217C7.10419 11.3697 6.12969 11.5122 5.49419 11.3027C6.02169 10.2277 6.91769 9.75424 8.12669 9.70924C8.03769 9.61924 7.97169 9.54974 7.90269 9.48324C7.39969 8.99824 6.86519 8.55324 6.23719 8.22924C5.72369 7.96424 5.18519 7.79824 4.59369 7.88674C4.52369 7.89724 4.45419 7.91424 4.35619 7.93424C4.53619 8.85924 5.15619 9.43274 5.92319 9.91624C5.11719 9.81874 3.75719 8.41024 3.49219 7.39924C5.04719 7.14724 6.42719 7.42324 7.54719 8.59874C6.62069 6.53524 7.11369 4.70874 8.48219 3.00024C9.83969 4.69524 10.3377 6.50874 9.43869 8.56524Z" fill="white"/>
</g>
<defs>
<clipPath id="clip0_2_3502">
<rect width="16" height="16" fill="white" transform="translate(0.492188 0.000244141)"/>
</clipPath>
</defs>
</svg>
