<svg width="19" height="16" viewBox="0 0 19 16" fill="none" xmlns="http://www.w3.org/2000/svg">
<g clip-path="url(#clip0_2_3504)">
<path d="M5.74904 0.895484C9.88884 0.894214 14.0289 0.894214 18.1692 0.895484C18.1705 2.23364 18.1705 3.57156 18.1692 4.90925C14.0293 4.91052 9.88924 4.91052 5.74904 4.90925C5.74771 3.5711 5.74771 2.23317 5.74904 0.895484Z" fill="#02A6C2"/>
<path d="M0.858711 6.41926C2.19431 6.41233 3.53015 6.41233 4.86621 6.41926C4.87314 7.75486 4.87314 9.09069 4.86621 10.4268C3.5302 10.4336 2.19437 10.4337 0.858711 10.4271C0.851784 9.09127 0.851784 7.75532 0.858711 6.41926Z" fill="#5FCADE"/>
<path d="M5.75272 6.41943C8.74076 6.41309 11.7286 6.41309 14.7162 6.41943C14.7226 7.75501 14.7226 9.09081 14.7162 10.4269C11.7282 10.4331 8.74041 10.4331 5.75272 10.4269C5.74649 9.09122 5.74649 7.75541 5.75272 6.41943Z" fill="#5FCADE"/>
<path d="M5.75597 11.9446C7.08931 11.9301 8.42242 11.9301 9.7553 11.9446C9.76915 13.2771 9.76935 14.6102 9.75591 15.944C8.42256 15.9572 7.08948 15.9569 5.75666 15.9433C5.74281 14.6109 5.74258 13.278 5.75597 11.9446Z" fill="#ABEBF4"/>
</g>
<defs>
<clipPath id="clip0_2_3504">
<rect width="17.8824" height="16" fill="white" transform="translate(0.853516 0.000244141)"/>
</clipPath>
</defs>
</svg>
