<svg width="17" height="16" viewBox="0 0 17 16" fill="none" xmlns="http://www.w3.org/2000/svg">
<g clip-path="url(#clip0_2_3505)">
<path d="M8.73633 16.0002C13.1546 16.0002 16.7363 12.4185 16.7363 8.00024C16.7363 3.58197 13.1546 0.000244141 8.73633 0.000244141C4.31805 0.000244141 0.736328 3.58197 0.736328 8.00024C0.736328 12.4185 4.31805 16.0002 8.73633 16.0002Z" fill="#00AFEC"/>
<path d="M10.8893 5.91402C10.9138 5.87452 10.9358 5.82202 10.9583 5.77702C11.4675 4.87534 11.7355 3.85754 11.7363 2.82202C11.0188 2.40802 10.2613 2.14702 9.43733 2.05652C9.74233 3.38752 10.1743 4.67652 10.7988 5.89102L10.8893 5.91402ZM6.77533 5.68652L6.75283 5.68152L6.57783 5.64152V5.63852H6.57533L6.73283 4.95202C6.84933 4.97702 6.96583 5.00452 7.08183 5.03302H7.08433C7.50896 4.07502 7.84 3.07822 8.07283 2.05652C6.99899 2.1751 5.97724 2.58197 5.11583 3.23402V3.23602C4.39305 3.78334 3.80353 4.48715 3.39144 5.2947C2.97935 6.10225 2.75539 6.9926 2.73633 7.89902V8.01902C3.37677 8.3871 4.07889 8.63549 4.80833 8.75202L4.81183 8.74852C5.57731 7.80331 6.23629 6.77661 6.77683 5.68702H6.77533V5.68652ZM10.5313 6.69902C10.6628 6.76902 10.7118 6.86902 10.7743 7.06502C10.8608 7.36102 10.8023 7.67252 10.7408 7.96502L11.4663 8.13352L11.6463 7.35202C12.3788 8.47952 13.1913 9.64402 14.1778 10.558C13.9988 10.9645 13.8878 11.1065 13.6243 11.4635C12.0093 10.9665 10.2893 10.703 8.59933 10.7195L8.74383 10.142L8.26183 10.0295C8.18683 10.0105 8.11033 9.97702 8.06533 9.91102C8.00883 9.83602 8.00883 9.73702 8.02783 9.64852L8.32933 8.33752C8.48533 8.37502 8.64833 8.39952 8.79433 8.46902C8.86264 8.49645 8.92354 8.53957 8.9721 8.5949C9.02066 8.65023 9.05551 8.71622 9.07383 8.78752C9.11333 8.98652 9.02883 9.17752 8.99483 9.36902L9.64383 9.51902L10.1848 7.17502L10.1298 7.15652L10.0873 7.14852C10.2373 6.99102 10.3683 6.85102 10.5038 6.68002L10.5318 6.69902H10.5313ZM4.82733 8.90252L4.84283 8.88102C4.96883 8.90902 5.06583 8.89852 5.19483 8.91202C5.65633 8.95302 6.10433 8.96202 6.56383 8.89702C6.59883 8.89202 6.63483 8.88852 6.67033 8.88702L6.56383 9.29602C6.54483 9.37702 6.50933 9.46102 6.43983 9.51202C6.40547 9.53481 6.36675 9.55022 6.32613 9.55727C6.28551 9.56433 6.24386 9.56288 6.20383 9.55302C6.03883 9.51952 5.87383 9.47452 5.70683 9.44252C5.65633 9.67102 5.60183 9.90002 5.54933 10.127L6.65733 10.3835C6.61233 10.59 6.60133 10.646 6.55433 10.8505C5.63199 10.977 4.72102 11.1758 3.82983 11.445C3.56733 11.0885 3.45483 11.0025 3.27883 10.5955C3.83983 10.0755 4.34483 9.49702 4.82733 8.90252ZM7.39983 10.5545L7.84433 10.6575L7.82933 10.7455L7.35483 10.7795L7.39983 10.5545ZM6.58033 8.76502C6.61482 8.76026 6.64953 8.75726 6.68433 8.75602V8.75402L7.25633 6.27902C7.27883 6.16652 7.32383 6.05402 7.28833 5.94152C7.27459 5.90118 7.25175 5.86455 7.22158 5.83446C7.1914 5.80437 7.15471 5.78164 7.11433 5.76802L7.09583 5.76202C7.00083 5.73652 7.07383 5.75452 6.97733 5.73202C6.96683 5.72952 6.91883 5.74552 6.90783 5.74352C6.37328 6.82039 5.7206 7.83446 4.96183 8.76702C5.08733 8.79352 5.06683 8.78602 5.19233 8.79902C5.65483 8.84152 6.12033 8.83002 6.57983 8.76552L6.58033 8.76502Z" fill="white"/>
<path d="M7.85198 5.2086V5.2106C7.93998 4.8391 8.02248 4.4661 8.11248 4.0951L8.85148 4.2651L8.59448 5.3811L9.03698 5.4841C9.08098 5.2986 9.12448 5.1126 9.16698 4.9266L9.23148 4.6476L9.29598 4.3686L10.0345 4.5371C10.0245 4.5871 10.0135 4.6371 10.0025 4.6871C9.93098 5.0106 9.85148 5.3311 9.77998 5.6556L10.6305 5.8536C10.006 4.6386 9.59248 3.3686 9.28798 2.0376C9.09698 2.0151 9.01648 2.0226 8.82298 2.0191H8.70498C8.49298 2.0191 8.41448 2.0136 8.20648 2.0376C7.97248 3.0591 7.69648 4.1306 7.27148 5.0886L7.85198 5.2086ZM8.83248 6.1631L8.85498 6.1681L8.85748 6.1631H8.83248Z" fill="white"/>
<path d="M8.83383 6.16266L8.49083 7.64966C8.70383 7.69666 8.92583 7.77466 9.14483 7.71316C9.21523 7.691 9.27909 7.65186 9.3308 7.59919C9.3825 7.54653 9.42046 7.48195 9.44133 7.41116C9.48233 7.27966 9.50283 7.14466 9.53883 7.01366L9.90083 7.10566C9.91683 7.10816 9.89833 7.11766 9.90883 7.10716L9.91783 7.10016C10.0678 6.93916 10.2378 6.76266 10.3728 6.59216C10.1514 6.4814 9.91537 6.40245 9.67183 6.35766L8.83383 6.16266ZM14.2188 5.57816C13.7013 4.42116 12.9638 3.55016 11.8673 2.91516C11.8663 3.95116 11.6173 4.87566 11.1083 5.77816C11.0774 5.83463 11.0492 5.89253 11.0238 5.95166C11.3668 6.02666 11.5808 6.07266 11.9238 6.14966V6.15316L11.7028 7.14666C12.4338 8.27366 13.2493 9.51466 14.2338 10.4297C14.5478 9.71366 14.7188 8.94316 14.7363 8.16116V7.87966C14.7172 7.08573 14.5413 6.3034 14.2188 5.57766V5.57816ZM2.73633 8.15016V8.23666C2.74783 9.03616 2.91883 9.69366 3.23883 10.4267C3.7697 9.93695 4.26292 9.40796 4.71433 8.84416C3.98683 8.72816 3.37383 8.52016 2.73633 8.15016ZM8.57883 10.8502L8.32733 11.9452H8.32583L7.58333 11.7752L7.78983 10.8767L7.31733 10.9102L7.14233 11.6717H7.14133L6.39833 11.5012C6.43633 11.3322 6.47333 11.1672 6.51483 11.0007C5.63033 11.1207 4.75733 11.3132 3.90483 11.5762C4.45235 12.3193 5.16373 12.9262 5.98377 13.3499C6.80381 13.7736 7.71045 14.0026 8.63333 14.0192H8.87883C9.79484 13.9955 10.6934 13.7632 11.506 13.3398C12.3187 12.9165 13.024 12.3133 13.5683 11.5762C11.9525 11.0786 10.2695 10.8337 8.57883 10.8502Z" fill="white"/>
</g>
<defs>
<clipPath id="clip0_2_3505">
<rect width="16" height="16" fill="white" transform="translate(0.736328 0.000244141)"/>
</clipPath>
</defs>
</svg>
