<svg width="17" height="16" viewBox="0 0 17 16" fill="none" xmlns="http://www.w3.org/2000/svg">
<g clip-path="url(#clip0_2_3506)">
<path d="M8.73633 16.0002C13.1546 16.0002 16.7363 12.4185 16.7363 8.00024C16.7363 3.58197 13.1546 0.000244141 8.73633 0.000244141C4.31805 0.000244141 0.736328 3.58197 0.736328 8.00024C0.736328 12.4185 4.31805 16.0002 8.73633 16.0002Z" fill="#ED1968"/>
<path d="M7.08675 13.4503C6.44794 13.2733 5.8523 12.9669 5.33675 12.5503C4.82876 12.1589 4.38943 11.6858 4.03675 11.1503C3.66068 10.5869 3.38965 9.96014 3.23675 9.30027C3.06171 8.50984 3.06171 7.69069 3.23675 6.90027C3.38593 6.23163 3.639 5.59052 3.98675 5.00027C4.49586 4.18348 5.22325 3.52536 6.08675 3.10027C6.38999 2.93706 6.7081 2.80312 7.03675 2.70027C7.53675 3.30027 8.03675 3.95027 8.53675 4.60027C8.58675 4.70027 8.68675 4.75027 8.73675 4.85027C8.23522 4.87129 7.74265 4.99019 7.28675 5.20027C6.88372 5.41097 6.52675 5.69994 6.23675 6.05027C5.95141 6.42747 5.73166 6.85005 5.58675 7.30027C5.45323 7.8446 5.47051 8.41502 5.63675 8.95027L7.78675 7.25027C8.28675 7.90027 8.78675 8.50027 9.28675 9.15027C8.58675 9.70027 7.83675 10.2503 7.13675 10.8503C7.83675 11.7503 8.58675 12.7003 9.28675 13.6503C8.54749 13.7377 7.79813 13.6695 7.08675 13.4503ZM11.8518 7.39327C11.8334 7.31142 11.8117 7.23035 11.7868 7.15027C11.7193 7.20327 10.2318 8.34027 9.63675 8.85027C9.13675 8.20027 8.63675 7.60027 8.13675 6.95027C8.83675 6.40027 9.58675 5.85027 10.2868 5.25027C9.58675 4.35027 8.88675 3.45027 8.13675 2.50027C8.13675 2.45027 8.08675 2.45027 8.08675 2.40027H8.78675C10.0693 2.41224 11.3074 2.87209 12.2868 3.70027C12.7641 4.09469 13.17 4.56825 13.4868 5.10027C13.8598 5.67298 14.0991 6.3224 14.1868 7.00027C14.3207 7.77958 14.3037 8.57736 14.1368 9.35027C13.9936 9.99789 13.7215 10.6101 13.3368 11.1503C13.0009 11.6689 12.578 12.1256 12.0868 12.5003C11.6083 12.916 11.0453 13.2231 10.4368 13.4003C9.98675 12.8503 9.58675 12.3503 9.18675 11.8003C9.03731 11.6292 8.90345 11.4451 8.78675 11.2503C9.25986 11.2519 9.72697 11.1444 10.1519 10.9363C10.5767 10.7282 10.948 10.425 11.2368 10.0503C11.5247 9.68186 11.7294 9.2554 11.8368 8.80027C11.9298 8.42077 11.9348 7.95177 11.8518 7.39327ZM9.49025 11.5798C9.83554 12.0514 10.194 12.5133 10.5653 12.9648C11.0401 12.793 11.4789 12.5345 11.8593 12.2023C12.3203 11.8498 12.7169 11.4201 13.0313 10.9323C13.3865 10.4338 13.6378 9.8689 13.7703 9.27127C13.9273 8.54527 13.9428 7.79577 13.8153 7.04827C13.7335 6.42141 13.5111 5.82113 13.1648 5.29227C12.8691 4.79604 12.4903 4.35442 12.0448 3.98677C11.1448 3.22541 10.0098 2.7977 8.83125 2.77577C9.29475 3.36577 9.76425 3.96727 10.5828 5.02027L10.8028 5.30227L10.5308 5.53477C10.1751 5.83725 9.81199 6.13084 9.44175 6.41527C9.40675 6.44277 8.98175 6.76927 8.66275 7.01627C8.79425 7.18377 8.94675 7.37477 9.17975 7.66627C9.40975 7.95377 9.56225 8.14527 9.69375 8.31277C9.92575 8.12127 10.1788 7.92027 10.4818 7.68527C10.5308 7.64727 11.3298 7.03227 11.5553 6.85527L11.9833 6.51877L12.1448 7.03877C12.3311 7.63801 12.3508 8.27668 12.2018 8.88627C12.0823 9.3934 11.8544 9.86863 11.5338 10.2793C11.0239 10.941 10.2915 11.3955 9.47225 11.5588L9.49025 11.5798Z" fill="white"/>
</g>
<defs>
<clipPath id="clip0_2_3506">
<rect width="16" height="16" fill="white" transform="translate(0.736328 0.000244141)"/>
</clipPath>
</defs>
</svg>
