<svg width="17" height="16" viewBox="0 0 17 16" fill="none" xmlns="http://www.w3.org/2000/svg">
<g clip-path="url(#clip0_2_3508)">
<path d="M8.73633 16.0002C13.1546 16.0002 16.7363 12.4185 16.7363 8.00024C16.7363 3.58197 13.1546 0.000244141 8.73633 0.000244141C4.31805 0.000244141 0.736328 3.58197 0.736328 8.00024C0.736328 12.4185 4.31805 16.0002 8.73633 16.0002Z" fill="#2D475B"/>
<path d="M7.17099 6.34302H12.7135V7.58702H7.17099V6.34302ZM12.7135 8.41502H12.7365V11.6865C12.7365 11.6865 8.41299 14.819 5.05499 11.4105C5.05499 11.4105 3.21499 9.54452 3.88199 6.82652C3.88199 6.82652 4.41099 3.44102 8.43599 3.02652C8.43599 3.02652 10.9195 2.68052 12.5295 4.52352L11.5635 5.46752C11.5635 5.46752 9.51649 3.34852 6.77999 5.00752C6.77999 5.00752 4.54899 6.25102 5.46899 9.38352C5.46899 9.38352 6.48099 12.1015 9.65449 11.5485C9.65449 11.5485 10.7355 11.3025 11.2875 10.8265V9.65902H7.17149V8.41502H12.7135Z" fill="white"/>
</g>
<defs>
<clipPath id="clip0_2_3508">
<rect width="16" height="16" fill="white" transform="translate(0.736328 0.000244141)"/>
</clipPath>
</defs>
</svg>
