<svg width="17" height="16" viewBox="0 0 17 16" fill="none" xmlns="http://www.w3.org/2000/svg">
<g clip-path="url(#clip0_2_3511)">
<path d="M8.05859 16.0002C12.4769 16.0002 16.0586 12.4185 16.0586 8.00024C16.0586 3.58197 12.4769 0.000244141 8.05859 0.000244141C3.64032 0.000244141 0.0585938 3.58197 0.0585938 8.00024C0.0585938 12.4185 3.64032 16.0002 8.05859 16.0002Z" fill="#16B9AD"/>
<path d="M13.0586 6.59674C13.0586 9.30074 10.8151 11.5002 8.05859 11.5002C5.30209 11.5002 3.05859 9.30024 3.05859 6.59774C3.05859 6.39874 3.07059 6.19924 3.09559 6.00124H3.99359C3.96359 6.19874 3.94859 6.39824 3.94859 6.59774C3.94859 8.82024 5.79259 10.6287 8.05909 10.6287C10.2221 10.6287 12.0001 8.98274 12.1591 6.90124H5.79859C5.93359 7.87324 6.70009 8.64524 7.68709 8.80474C8.67459 8.96374 9.65209 8.47274 10.0981 7.59474H11.0606C10.6231 8.85574 9.41559 9.70374 8.05759 9.70474C6.30959 9.70474 4.88709 8.31024 4.88709 6.59674C4.88709 6.39674 4.90709 6.19674 4.94559 6.00024H13.0216C13.0466 6.19824 13.0586 6.39724 13.0586 6.59674Z" fill="white"/>
</g>
<defs>
<clipPath id="clip0_2_3511">
<rect width="16" height="16" fill="white" transform="translate(0.0585938 0.000244141)"/>
</clipPath>
</defs>
</svg>
