<svg width="17" height="16" viewBox="0 0 17 16" fill="none" xmlns="http://www.w3.org/2000/svg">
<g clip-path="url(#clip0_2_3514)">
<path d="M8.05859 16.0002C12.4769 16.0002 16.0586 12.4185 16.0586 8.00024C16.0586 3.58197 12.4769 0.000244141 8.05859 0.000244141C3.64032 0.000244141 0.0585938 3.58197 0.0585938 8.00024C0.0585938 12.4185 3.64032 16.0002 8.05859 16.0002Z" fill="#FF0060"/>
<path d="M12.5936 6.02374H8.0196C7.66544 6.02319 7.3179 6.1197 7.01473 6.30278C6.71156 6.48587 6.46436 6.74853 6.29998 7.06223C6.1356 7.37593 6.06032 7.72868 6.08232 8.08216C6.10433 8.43563 6.22277 8.77632 6.4248 9.06721C6.62682 9.35811 6.90469 9.58808 7.22822 9.73215C7.55175 9.87622 7.90858 9.92887 8.25994 9.8844C8.6113 9.83993 8.94375 9.70002 9.22119 9.47989C9.49862 9.25975 9.71043 8.9678 9.8336 8.63574H8.0196C7.95241 8.63581 7.88587 8.62262 7.82378 8.59694C7.76169 8.57126 7.70528 8.53359 7.65777 8.48608C7.61026 8.43857 7.57258 8.38215 7.5469 8.32006C7.52122 8.25798 7.50803 8.19143 7.5081 8.12424V8.06224C7.50803 7.99505 7.52122 7.92851 7.5469 7.86642C7.57258 7.80434 7.61026 7.74792 7.65777 7.70041C7.70528 7.6529 7.76169 7.61523 7.82378 7.58955C7.88587 7.56386 7.95241 7.55068 8.0196 7.55074H11.0431C11.0651 7.69174 11.0756 7.83424 11.0741 7.97674C11.0711 8.58022 10.8895 9.16929 10.552 9.66963C10.2146 10.17 9.73654 10.5591 9.17815 10.788C8.61976 11.0169 8.00608 11.0753 7.41455 10.9557C6.82303 10.8362 6.28018 10.5441 5.8545 10.1163C5.42881 9.68853 5.13939 9.14425 5.02274 8.55215C4.90609 7.96005 4.96745 7.34666 5.19907 6.7894C5.4307 6.23214 5.8222 5.75597 6.32418 5.421C6.82616 5.08602 7.41612 4.90725 8.0196 4.90724L8.1131 4.89174C8.1326 4.90074 8.1531 4.90574 8.1751 4.90724H10.8881C12.3686 4.90724 12.9731 4.11674 12.9731 3.00024H8.0196C5.2836 3.00024 3.0636 5.21674 3.0586 7.95374C3.0546 10.6907 5.2676 12.9137 8.0046 12.9227C10.7416 12.9312 12.9681 10.7217 12.9811 7.98474V6.41874C12.9821 6.36723 12.9728 6.31603 12.9538 6.26815C12.9348 6.22027 12.9064 6.17666 12.8703 6.13988C12.8342 6.1031 12.7912 6.07388 12.7436 6.05394C12.6961 6.034 12.6451 6.02373 12.5936 6.02374Z" fill="white"/>
</g>
<defs>
<clipPath id="clip0_2_3514">
<rect width="16" height="16" fill="white" transform="translate(0.0585938 0.000244141)"/>
</clipPath>
</defs>
</svg>
