<svg width="41" height="16" viewBox="0 0 41 16" fill="none" xmlns="http://www.w3.org/2000/svg">
<g clip-path="url(#clip0_2_3515)">
<path d="M26.9082 4.00019L26.3196 4.58882C26.5616 4.96102 26.7141 5.38419 26.7651 5.82518C26.8162 6.26617 26.7644 6.71299 26.6139 7.13063C26.3533 7.85326 25.8172 8.44329 25.1228 8.7717C24.4283 9.10012 23.6321 9.14018 22.9082 8.88314C22.7007 8.80949 22.503 8.71065 22.3196 8.58883L20.4333 10.4751L18.7878 8.81625C18.4003 9.07447 17.9581 9.2391 17.4961 9.29714C17.0341 9.35518 16.5649 9.30505 16.1256 9.1507C15.7579 9.01976 15.4196 8.81744 15.1303 8.55538C14.8409 8.29331 14.6062 7.97665 14.4397 7.62361C14.2731 7.27056 14.1779 6.88808 14.1596 6.49813C14.1413 6.10819 14.2002 5.71847 14.333 5.35137C14.4146 5.11886 14.5271 4.89839 14.6674 4.69585L13.9584 3.98682L13.8246 4.21424C13.1074 5.38742 12.7154 6.73037 12.6889 8.10515C12.6624 9.47993 13.0024 10.837 13.6739 12.0369C14.3453 13.2369 15.3241 14.2364 16.5097 14.9329C17.6953 15.6295 19.0449 15.9978 20.4199 16.0002H20.4333C21.8071 16.0009 23.1563 15.6361 24.3425 14.9432C25.5287 14.2503 26.5092 13.2542 27.1832 12.0572C27.8573 10.8602 28.2008 9.50535 28.1783 8.13177C28.1558 6.75819 27.7683 5.41532 27.0554 4.241L26.9082 4.00019Z" fill="#00A6C4"/>
<path d="M15.5379 5.56531C15.3295 5.84319 15.2168 6.18117 15.2168 6.52852C15.2175 6.94697 15.384 7.34808 15.6799 7.64397C15.9758 7.93986 16.3769 8.10641 16.7954 8.10711C17.1452 8.1089 17.4851 7.99087 17.7586 7.77267L15.5379 5.56531Z" fill="#00A6C4"/>
<path d="M23.2832 7.63905C23.543 7.81693 23.8513 7.91037 24.1661 7.90661C24.5846 7.9059 24.9857 7.73936 25.2816 7.44347C25.5775 7.14757 25.744 6.74646 25.7448 6.32801C25.7465 6.01346 25.6533 5.70571 25.4772 5.44507L23.2832 7.63905Z" fill="#00A6C4"/>
<path d="M20.4591 9.29782L14.0645 2.87641L14.3186 2.60885C15.0936 1.78237 16.0304 1.12425 17.0707 0.67545C18.111 0.226652 19.2325 -0.00321484 20.3655 0.000158671H20.3788C21.5393 0.0018268 22.6865 0.246747 23.7464 0.719119C24.8064 1.19149 25.7556 1.88082 26.5327 2.74263L26.7735 3.01019L20.4591 9.29782ZM15.1079 2.87641L20.4591 8.24096L25.7434 2.98344C24.3258 1.55965 22.4014 0.756206 20.3922 0.749323H20.3788C18.4107 0.738441 16.5173 1.50253 15.1079 2.87641Z" fill="#00A6C4"/>
<path d="M13.4098 13.4316L12.6606 13.378C9.47665 13.1774 5.08869 12.3881 2.25257 9.83289C0.500065 8.26768 0.165617 6.78273 0.152239 6.71584L0.0585938 6.26099H11.6439L11.577 6.68908C11.5236 7.07923 11.4968 7.47256 11.4967 7.86634C11.4905 9.62277 12.0075 11.3413 12.9817 12.8028L13.4098 13.4316Z" fill="#00A6C4"/>
<path d="M27.4297 13.4316L27.8444 12.8028C28.8165 11.3503 29.3335 9.6409 29.3293 7.89309C29.3297 7.49041 29.3029 7.08816 29.2491 6.68908L29.1956 6.26099H40.7808L40.6872 6.71584C40.6738 6.78273 40.3394 8.26768 38.6002 9.83289C35.7641 12.3881 31.3628 13.1774 28.1788 13.378L27.4297 13.4316Z" fill="#00A6C4"/>
</g>
<defs>
<clipPath id="clip0_2_3515">
<rect width="40.7224" height="16" fill="white" transform="translate(0.0585938 0.000244141)"/>
</clipPath>
</defs>
</svg>
