<svg width="17" height="16" viewBox="0 0 17 16" fill="none" xmlns="http://www.w3.org/2000/svg">
<g clip-path="url(#clip0_2_3516)">
<path d="M8.78125 16.0002C13.1995 16.0002 16.7812 12.4185 16.7812 8.00024C16.7812 3.58197 13.1995 0.000244141 8.78125 0.000244141C4.36297 0.000244141 0.78125 3.58197 0.78125 8.00024C0.78125 12.4185 4.36297 16.0002 8.78125 16.0002Z" fill="#1666AE"/>
<path d="M5.60101 13.8094C5.71749 13.8574 5.85061 13.8017 5.89797 13.6852C5.94597 13.5687 5.89029 13.4356 5.77381 13.3883C5.65733 13.3403 5.52421 13.3959 5.47685 13.5124C5.44805 13.5828 5.45637 13.6628 5.49861 13.7255L4.93222 14.2919H3.84679C3.90503 14.3374 3.96327 14.3822 4.02279 14.4263H4.98342L5.60101 13.8094ZM2.15081 10.8724C2.26665 10.8238 2.32169 10.6907 2.27305 10.5748C2.22441 10.459 2.09129 10.4039 1.97545 10.4526C1.85961 10.5012 1.80458 10.6343 1.85321 10.7502C1.88265 10.8199 1.94473 10.8711 2.01961 10.8859L2.00937 11.4593L1.72266 11.7505C1.74442 11.7921 1.76682 11.8331 1.78986 11.8747L2.14057 11.5182L2.15081 10.8724ZM5.21446 2.04361C5.14406 2.14793 5.17222 2.28937 5.27654 2.35977C5.38085 2.43017 5.52229 2.40201 5.59269 2.29769C5.66309 2.19337 5.63493 2.05193 5.53061 1.98153C5.46725 1.93929 5.38725 1.93097 5.31685 1.95977L4.8535 1.51049L4.11559 1.50537C4.05543 1.54889 3.99527 1.59369 3.93639 1.63849L4.8023 1.64489L5.21446 2.04361ZM5.37253 3.11241C5.34309 3.11241 5.31366 3.11817 5.28614 3.12905L4.82278 2.67977L2.98152 2.67209V2.80649L4.77094 2.81417L5.18374 3.21225C5.11334 3.31657 5.1415 3.45801 5.24582 3.52841C5.35013 3.59881 5.49157 3.57065 5.56197 3.46633C5.63237 3.36201 5.60421 3.22057 5.49989 3.15017C5.46213 3.12585 5.41797 3.11241 5.37253 3.11241ZM5.25862 11.7492C5.13318 11.7492 5.03078 11.8516 5.03142 11.9771C5.03142 12.0219 5.04486 12.066 5.06982 12.1031L4.65702 12.5019L2.86696 12.5095V12.6439L4.70822 12.6363L5.17158 12.1876C5.28806 12.235 5.42117 12.1793 5.46853 12.0635C5.51589 11.947 5.46021 11.8139 5.34437 11.7665C5.3175 11.755 5.2887 11.7492 5.25862 11.7492ZM12.2064 5.40745L12.3017 5.31209L12.2051 5.21545L12.2057 5.40617L12.2064 5.40745ZM11.5222 4.53321L10.2557 4.52297C10.207 4.40713 10.0739 4.35209 9.95808 4.40073C9.84224 4.44937 9.7872 4.58249 9.83584 4.69833C9.88448 4.81417 10.0176 4.86921 10.1334 4.82057C10.2032 4.79113 10.2544 4.72905 10.2691 4.65481L11.4633 4.66505L12.0521 5.25385V5.06377L11.5222 4.53321ZM8.5405 5.04265C8.57058 5.04265 8.60002 5.03689 8.62754 5.02537L9.02753 5.42089H10.5494V5.28585H9.07937L8.73058 4.94089C8.80098 4.83593 8.77282 4.69385 8.66786 4.62345C8.5629 4.55305 8.42082 4.58121 8.35042 4.68617C8.28002 4.79113 8.30818 4.93321 8.41314 5.00361C8.45026 5.02921 8.49506 5.04265 8.5405 5.04265Z" fill="#7290C9"/>
<path d="M11.5027 1.71654L11.5129 3.12776L12.0511 3.67368V6.76812H12.206L12.2041 5.40618V5.2161L12.2015 3.62632L11.6447 3.06951L11.6345 1.72998C11.758 1.70566 11.838 1.58598 11.8137 1.4631C11.7894 1.33958 11.6697 1.25957 11.5468 1.28389C11.4233 1.30822 11.3433 1.4279 11.3676 1.55078C11.3817 1.62502 11.4329 1.6871 11.5027 1.71654ZM13.7977 4.69385C13.8681 4.58953 13.8399 4.44809 13.7356 4.37769C13.6313 4.30729 13.4898 4.33545 13.4194 4.43977C13.349 4.54409 13.3772 4.68553 13.4815 4.75593C13.5449 4.79817 13.6249 4.80649 13.6953 4.77769L14.3864 5.35114L16.3243 5.35882C16.3083 5.31402 16.2923 5.26858 16.2757 5.22442L14.4383 5.21738L13.7977 4.69385Z" fill="#7290C9"/>
<path d="M16.2145 5.75093L14.1185 5.74325L13.385 5.13781C13.4554 5.03349 13.4273 4.89205 13.3229 4.82165C13.2186 4.75125 13.0772 4.77941 13.0068 4.88373C12.9364 4.98805 12.9645 5.12949 13.0689 5.19989C13.1322 5.24213 13.2122 5.25045 13.2826 5.22165L14.0673 5.87765L16.21 5.88533C16.1985 5.84117 16.1997 5.79445 16.2145 5.75093ZM13.8657 3.52117C13.9354 3.41685 13.9079 3.27541 13.8036 3.20565C13.6993 3.13589 13.5578 3.16341 13.4881 3.26773C13.4183 3.37205 13.4458 3.51349 13.5501 3.58325C13.6129 3.62549 13.6929 3.63381 13.7633 3.60501L14.3905 4.17077L15.8036 4.18037C15.7793 4.13493 15.7537 4.09013 15.7281 4.04533L14.4423 4.03573L13.8657 3.52117ZM2.19784 4.54005C2.07432 4.56437 1.99368 4.68341 2.018 4.80693C2.04232 4.93045 2.16136 5.01109 2.28488 4.98677C2.4084 4.96245 2.48904 4.84341 2.46472 4.71989C2.45 4.64501 2.39944 4.58293 2.32904 4.55349L2.28488 3.70997L2.13512 3.55829C2.10952 3.59669 2.08456 3.63509 2.0596 3.67349L2.15432 3.76821L2.19784 4.54005ZM10.3546 13.1333C10.2286 13.1333 10.1268 13.2351 10.1268 13.3612C10.1268 13.4066 10.1402 13.4508 10.1652 13.4879L9.92967 13.7644H7.96359L7.48103 14.2988C7.36455 14.2508 7.23143 14.3065 7.18407 14.4229C7.13607 14.5394 7.19175 14.6725 7.30823 14.7199C7.42471 14.7673 7.55783 14.7122 7.60519 14.5957C7.63399 14.5253 7.62567 14.4453 7.58343 14.3826L8.01543 13.8988H9.98151L10.2676 13.5711C10.3841 13.6191 10.5172 13.5634 10.5646 13.4469C10.6126 13.3305 10.5569 13.1973 10.4404 13.15C10.4142 13.1391 10.3841 13.1333 10.3546 13.1333ZM9.96167 1.46933L10.3937 1.95317C10.3233 2.05749 10.3514 2.19893 10.4558 2.26933C10.5601 2.33973 10.7015 2.31157 10.7719 2.20725C10.8423 2.10293 10.8142 1.96149 10.7098 1.89109C10.6465 1.84885 10.5665 1.84053 10.4961 1.86933L10.0135 1.33493H8.04679L7.81127 1.05845C7.88167 0.954134 7.85351 0.812694 7.74919 0.742294C7.64487 0.671894 7.50343 0.700054 7.43303 0.804374C7.36263 0.908694 7.39079 1.05013 7.49511 1.12053C7.55847 1.16277 7.63847 1.17109 7.70887 1.14229L7.99495 1.46997L9.96167 1.46933ZM15.3773 9.04117C15.2884 9.13013 15.2884 9.27413 15.3773 9.36309C15.4093 9.39509 15.4497 9.41685 15.4945 9.42517L15.5028 10.2527L14.8365 10.8153L14.8109 11.5762C14.6951 11.6249 14.6401 11.758 14.6887 11.8738C14.7373 11.9897 14.8705 12.0447 14.9863 11.9961C15.1021 11.9474 15.1572 11.8143 15.1085 11.6985C15.0791 11.6287 15.017 11.5775 14.9428 11.5628L14.9684 10.8741L15.6346 10.3116L15.6263 9.41173C15.7421 9.36309 15.7972 9.22997 15.7485 9.11413C15.6999 8.99829 15.5668 8.94325 15.4509 8.99189C15.4234 9.00341 15.3985 9.02005 15.3773 9.04117ZM5.218 13.3746C5.33448 13.422 5.46696 13.3663 5.51432 13.2498C5.56168 13.1333 5.506 13.0009 5.38952 12.9535C5.27304 12.9061 5.14056 12.9618 5.0932 13.0783C5.0644 13.1487 5.07272 13.2287 5.11496 13.2914L4.54856 13.8578H3.3396C3.38824 13.9033 3.43752 13.9481 3.48744 13.9922H4.59976L5.218 13.3746Z" fill="#7290C9"/>
<path d="M8.61843 13.1897C8.64275 13.3132 8.76243 13.3932 8.88532 13.3689C9.00884 13.3445 9.08884 13.2249 9.06452 13.102C9.0402 12.9785 8.92052 12.8985 8.79764 12.9228C8.72339 12.9375 8.66067 12.9881 8.63187 13.0585H7.42802L6.86802 13.6185V12.1913L7.34162 11.7234L7.33266 10.2501C7.44914 10.2015 7.50354 10.0684 7.45554 9.9519C7.4069 9.83542 7.27378 9.78102 7.1573 9.82902C7.04082 9.87766 6.98642 10.0108 7.03442 10.1273C7.06386 10.1977 7.12594 10.2489 7.20082 10.2629L7.20978 11.6639L6.71634 12.1369L6.71442 13.7714L6.71378 13.7721L6.71442 13.7727L6.7125 15.1922H6.86738V13.8079L7.48627 13.189L8.61843 13.1897ZM6.86866 1.55638L6.8693 1.55702L6.87122 3.19158L7.36466 3.6639L7.3557 5.06486C7.23218 5.08918 7.15218 5.20886 7.1765 5.33238C7.20082 5.4559 7.3205 5.5359 7.44402 5.51158C7.56755 5.48726 7.64755 5.36758 7.62323 5.24406C7.60851 5.16982 7.55795 5.1071 7.48754 5.0783L7.4965 3.60502L7.0229 3.13718V1.70998L7.58291 2.26998H8.7874C8.83604 2.38582 8.96916 2.44086 9.085 2.39222C9.20084 2.34358 9.25588 2.21046 9.20724 2.09462C9.1586 1.97878 9.02548 1.92374 8.90964 1.97238C8.83988 2.00182 8.78868 2.0639 8.77395 2.13878H7.64179L7.0229 1.52054V0.194458C6.97106 0.205978 6.91922 0.218138 6.86802 0.230938L6.86994 1.5551L6.86866 1.55638ZM12.0514 13.2869C11.9996 13.1724 11.8645 13.1218 11.75 13.1743C11.6354 13.2261 11.5849 13.3612 11.6373 13.4757C11.6892 13.5903 11.8242 13.6409 11.9388 13.5884C12.0079 13.557 12.0565 13.493 12.0693 13.4181L13.357 13.4188L13.9958 14.0626C14.0297 14.0332 14.0636 14.0037 14.0969 13.9743L13.4114 13.2857L12.0514 13.2869ZM13.3353 14.1157C13.2438 14.03 13.0997 14.0345 13.0133 14.126C12.9276 14.2175 12.9321 14.3615 13.0236 14.4479C13.1151 14.5337 13.2591 14.5292 13.3455 14.4377C13.3762 14.405 13.3967 14.3634 13.4044 14.3186H13.6828C13.7385 14.2751 13.7935 14.2309 13.8486 14.1861L13.3871 14.1868C13.3743 14.1599 13.357 14.1362 13.3353 14.1157ZM9.80628 12.5189C9.89204 12.4274 9.88756 12.2834 9.79604 12.197C9.76276 12.1663 9.7218 12.1458 9.677 12.1381L9.67764 10.7884L9.54388 10.7858L9.5458 12.1554C9.43124 12.2079 9.38068 12.3429 9.43316 12.4569C9.48564 12.5714 9.62068 12.622 9.7346 12.5695C9.76148 12.558 9.7858 12.5401 9.80628 12.5189ZM2.80591 11.902C2.89167 11.8105 2.88719 11.6665 2.79567 11.5801C2.70415 11.4943 2.56015 11.4988 2.47374 11.5903C2.38798 11.6818 2.39246 11.8258 2.48398 11.9122C2.51662 11.9429 2.55823 11.9634 2.60303 11.9711L2.57871 13.0418C2.62095 13.0943 2.66447 13.1461 2.70863 13.1973L2.73423 11.9532C2.76111 11.941 2.78543 11.9237 2.80591 11.902ZM14.7222 3.03158C14.6306 2.94518 14.4866 2.9503 14.4002 3.04182C14.3138 3.13334 14.319 3.27734 14.4105 3.36374C14.502 3.45014 14.646 3.44502 14.7324 3.3535C14.7631 3.32022 14.7836 3.27926 14.7913 3.23446H15.2009C15.1676 3.1903 15.1343 3.14614 15.1004 3.10198L14.7734 3.10262C14.7612 3.07574 14.7439 3.05206 14.7222 3.03158ZM13.7698 2.21366C13.6783 2.1279 13.5343 2.13238 13.4486 2.2239C13.3628 2.31542 13.3673 2.45942 13.4588 2.54518C13.5503 2.63094 13.6943 2.62646 13.7801 2.53494C13.8108 2.5023 13.8313 2.4607 13.8383 2.41654L14.5046 2.41718C14.461 2.37238 14.4169 2.32822 14.3721 2.28406L13.8204 2.28534C13.8089 2.25846 13.7916 2.23414 13.7698 2.21366ZM5.61233 1.7727C5.61617 1.89814 5.72113 1.99734 5.84721 1.9935C5.97265 1.98966 6.07185 1.8847 6.06801 1.75862C6.06417 1.63318 5.95921 1.53398 5.83313 1.53782C5.78769 1.5391 5.74417 1.55382 5.70705 1.5807L5.05105 0.924058C5.01009 0.945818 4.96976 0.967578 4.9288 0.990618L5.62641 1.6863C5.61617 1.71382 5.61105 1.74326 5.61233 1.7727ZM2.64847 3.43606C2.56207 3.52758 2.56719 3.67158 2.65871 3.75798C2.75023 3.84438 2.89423 3.83926 2.98063 3.74774C3.06703 3.65622 3.06191 3.51222 2.97039 3.42582C2.93711 3.3951 2.89615 3.37462 2.85135 3.36694L2.85199 2.63862C2.80719 2.68854 2.76303 2.7391 2.71887 2.78966L2.72015 3.38422C2.69327 3.39702 2.66895 3.4143 2.64847 3.43606ZM13.1836 11.4533L11.8242 11.4553C11.7724 11.3407 11.6373 11.2901 11.5228 11.3426C11.4082 11.3945 11.3577 11.5295 11.4101 11.6441C11.462 11.7586 11.597 11.8092 11.7116 11.7567C11.7807 11.7253 11.8293 11.6613 11.8421 11.5865H13.1298L13.789 12.2508L12.4047 12.2514C12.3529 12.1369 12.2178 12.0863 12.1033 12.1388C11.9887 12.1906 11.9381 12.3257 11.9906 12.4402C12.0431 12.5548 12.1775 12.6053 12.2921 12.5529C12.3612 12.5215 12.4098 12.4575 12.4226 12.3826L15.4684 12.3833C15.4972 12.3391 15.526 12.2943 15.5542 12.2501L13.9791 12.2508L13.1836 11.4533ZM4.72784 5.37142C4.8136 5.46294 4.95824 5.46806 5.04977 5.38166C5.14129 5.2959 5.14641 5.15126 5.06001 5.05974C4.97424 4.96822 4.8296 4.9631 4.73808 5.0495C4.71632 5.06998 4.69904 5.0943 4.68624 5.12182L3.30191 5.12118L3.96112 4.45686L5.24881 4.45622C5.26929 4.58038 5.38641 4.66422 5.51057 4.64374C5.63473 4.62326 5.71857 4.50614 5.69809 4.38198C5.67761 4.25782 5.56049 4.17398 5.43633 4.19446C5.36145 4.20662 5.29809 4.25526 5.26609 4.32438L3.90672 4.32246L3.11311 5.1199H1.32622C1.30894 5.16406 1.29229 5.20886 1.27629 5.25302L4.6696 5.25238C4.676 5.29718 4.69648 5.33878 4.72784 5.37142ZM3.53423 11.9225C3.56495 11.8898 3.58543 11.8482 3.59311 11.8034L4.15632 11.8041C4.19408 11.9237 4.32144 11.9909 4.44176 11.9532C4.56144 11.9154 4.62864 11.7881 4.59088 11.6677C4.55312 11.5481 4.42576 11.4809 4.30544 11.5186C4.23312 11.541 4.17744 11.598 4.15568 11.6703L3.57583 11.6722C3.52399 11.5577 3.38895 11.5071 3.27439 11.5596C3.15983 11.6114 3.10927 11.7465 3.16175 11.861C3.21359 11.9756 3.34863 12.0261 3.46319 11.9737C3.48943 11.9615 3.51375 11.9442 3.53423 11.9225ZM4.54928 3.37398C4.4488 3.37398 4.35984 3.4399 4.33104 3.53654L3.75119 3.53846C3.69935 3.4239 3.56431 3.37334 3.44975 3.42582C3.33519 3.4783 3.28463 3.6127 3.33711 3.72726C3.38895 3.84182 3.52399 3.89238 3.63855 3.8399C3.70767 3.80854 3.75631 3.74454 3.76911 3.66966L4.33232 3.6703C4.37008 3.78998 4.49808 3.85718 4.61776 3.81942C4.73744 3.78166 4.80464 3.65366 4.76688 3.53398C4.7368 3.43798 4.64912 3.37398 4.54928 3.37398ZM11.741 9.08022C11.6245 9.03222 11.4914 9.0879 11.4441 9.20438C11.3961 9.32086 11.4517 9.45398 11.5682 9.50134C11.6847 9.54934 11.8178 9.49366 11.8652 9.37718C11.894 9.30678 11.8857 9.22678 11.8434 9.16406L12.4527 8.5695L16.2089 8.56182V8.42742L12.4009 8.4351L11.741 9.08022ZM11.6489 9.46934C11.5516 9.46934 11.4729 9.39062 11.4729 9.29334C11.4729 9.19606 11.5516 9.11734 11.6489 9.11734C11.7461 9.11734 11.8249 9.19606 11.8249 9.29334C11.8249 9.39062 11.7461 9.46934 11.6489 9.46934ZM3.78959 11.0591L5.16817 11.0693C5.21681 11.1852 5.34993 11.2402 5.46577 11.1916C5.58161 11.1429 5.63665 11.0098 5.58801 10.894C5.53937 10.7781 5.40625 10.7231 5.29041 10.7717C5.22065 10.8012 5.16945 10.8633 5.15473 10.9375L3.8888 10.9273L3.14255 10.0773H1.06445C1.07853 10.1305 1.09325 10.1829 1.10861 10.2354H3.09007L3.78959 11.0591ZM5.25969 10.8588C5.32817 10.7903 5.43953 10.7903 5.50865 10.8588C5.57713 10.9273 5.57713 11.0386 5.50865 11.1077C5.44017 11.1762 5.32881 11.1762 5.25969 11.1077C5.19121 11.0386 5.19057 10.9279 5.25969 10.8588Z" fill="#7290C9"/>
<path d="M11.3861 8.72906L11.9954 8.13448L13.7848 8.1268V7.99239L11.9436 8.00007L11.2831 8.64585C11.1666 8.59785 11.0335 8.65353 10.9861 8.77002C10.9381 8.8865 10.9938 9.01963 11.1103 9.06699C11.2268 9.11499 11.3599 9.05931 11.4073 8.94282C11.4367 8.87242 11.429 8.79242 11.3861 8.72906ZM11.2025 9.03499C11.1052 9.03499 11.0265 8.95626 11.0265 8.85898C11.0265 8.7617 11.1052 8.68297 11.2025 8.68297C11.2997 8.68297 11.3785 8.7617 11.3785 8.85898C11.3785 8.95626 11.2997 9.03499 11.2025 9.03499ZM6.72889 8.92618L7.07961 8.60041L8.85879 8.60361L9.48407 8.00071L9.43223 7.87655L8.80055 8.47689H7.01753L6.62649 8.84298C6.51001 8.79498 6.37689 8.85066 6.32889 8.96714C6.28089 9.08363 6.33657 9.21675 6.45305 9.26475C6.56953 9.31276 6.70265 9.25707 6.75065 9.14059C6.77945 9.06955 6.77177 8.9889 6.72889 8.92618ZM6.54521 9.23147C6.44793 9.23147 6.36921 9.15275 6.36921 9.05547C6.36921 8.95818 6.44793 8.87946 6.54521 8.87946C6.64249 8.87946 6.72057 8.95818 6.72121 9.05483C6.72121 9.15275 6.64249 9.23147 6.54521 9.23147ZM5.33626 6.00769C5.19034 5.94817 5.02394 6.01729 4.96442 6.16321C4.9049 6.30914 4.97402 6.47554 5.11994 6.53507C5.26586 6.59459 5.43226 6.52546 5.49178 6.37954C5.52762 6.29122 5.51802 6.19137 5.4649 6.11201L5.7177 5.92129L5.63962 5.7664L5.33626 6.00769ZM5.2345 6.46786C5.12762 6.46786 5.04122 6.38146 5.04122 6.27458C5.04122 6.16769 5.12762 6.08129 5.2345 6.08129C5.34138 6.08129 5.42778 6.16769 5.42778 6.27458C5.42778 6.38146 5.34138 6.46786 5.2345 6.46786C5.2345 6.4685 5.2345 6.4685 5.2345 6.46786ZM2.08445 9.16939H2.6022V9.01451H2.17788L1.42269 8.25864H1.76445V8.0724H0.791016C0.791656 8.13832 0.792936 8.2036 0.794856 8.26888H1.21469L2.08445 9.16939ZM2.41596 7.43109L2.43644 7.27621L1.48477 6.32386H0.966374C0.957414 6.36546 0.949094 6.40642 0.940774 6.44802H1.43229L2.41596 7.43109ZM16.2136 5.75104C16.172 5.87584 16.2392 6.01089 16.364 6.05249C16.4184 6.07041 16.4779 6.06849 16.5304 6.04673C16.492 5.89312 16.4491 5.74144 16.4018 5.59167C16.3147 5.60512 16.2418 5.66656 16.2136 5.75104ZM8.28408 9.20075H9.41239V9.3454H8.28408V9.20075Z" fill="#7290C9"/>
<path d="M10.2577 4.96777V6.15816H9.26758V11.0324H14.8253V4.96777H10.2577ZM13.5351 9.62501H10.5572V6.37512H13.5351V9.62501Z" fill="#FFFFFA"/>
<path d="M6.69019 9.85277V11.0323H5.14779C5.14779 11.0323 3.59003 11.0528 2.67867 9.65053C2.19483 8.90493 2.04763 7.98973 2.27355 7.12957C2.49563 6.28477 3.11323 5.28381 4.75419 4.96765H8.36635V6.09661H5.17915C5.17915 6.09661 3.49851 6.67389 3.52027 8.06781C3.52987 8.68093 3.87483 9.23645 4.40603 9.54301C4.64539 9.68061 4.90715 9.77469 5.17915 9.82205L6.69019 9.85277Z" fill="white"/>
<path d="M5.17969 7.43164V8.53884H7.18733V11.0329H8.36747V7.43164H5.17969Z" fill="white"/>
</g>
<defs>
<clipPath id="clip0_2_3516">
<rect width="16" height="16" fill="white" transform="translate(0.78125 0.000244141)"/>
</clipPath>
</defs>
</svg>
