<svg width="16" height="16" viewBox="0 0 16 16" fill="none" xmlns="http://www.w3.org/2000/svg">
<g clip-path="url(#clip0_2_3518)">
<path d="M8 16.0002C12.4183 16.0002 16 12.4185 16 8.00024C16 3.58197 12.4183 0.000244141 8 0.000244141C3.58172 0.000244141 0 3.58197 0 8.00024C0 12.4185 3.58172 16.0002 8 16.0002Z" fill="#5411B3"/>
<path fill-rule="evenodd" clip-rule="evenodd" d="M8.02651 2.50024C8.29151 2.65974 8.55451 2.82274 8.82151 2.97824C10.089 3.71324 11.3565 4.44724 12.6255 5.17924C12.709 5.22724 12.746 5.28074 12.746 5.38324C12.7435 7.12924 12.744 8.87524 12.75 10.6212C12.75 10.7352 12.698 10.7827 12.615 10.8307C11.1065 11.7037 9.59901 12.5782 8.09151 13.4527C8.06851 13.4662 8.04801 13.4842 8.02651 13.5002H7.97151C7.51651 13.2322 7.06151 12.9617 6.60501 12.6962C5.52801 12.0707 4.45001 11.4462 3.37101 10.8247C3.27951 10.7722 3.24951 10.7122 3.25001 10.6072C3.25501 8.87524 3.25601 7.14324 3.25251 5.41074C3.25251 5.28674 3.29501 5.22424 3.39701 5.16574C4.89151 4.30374 6.38351 3.43874 7.87601 2.57374C7.91051 2.55374 7.94001 2.52474 7.97151 2.50024H8.02651ZM9.42951 11.2402C9.63601 11.3817 9.83801 11.5302 10.046 11.6802C10.0575 11.6752 10.0745 11.6682 10.09 11.6597C10.765 11.2692 11.4415 10.8797 12.1145 10.4847C12.1545 10.4612 12.1895 10.3922 12.1895 10.3447C12.193 8.78174 12.1925 7.21924 12.188 5.65674C12.1857 5.62954 12.1776 5.60316 12.1641 5.57942C12.1506 5.55568 12.1322 5.53515 12.11 5.51924C11.445 5.12824 10.7765 4.74424 10.111 4.35474C10.042 4.31474 10.0035 4.32674 9.94501 4.37224C9.78351 4.49874 8.19551 5.46874 7.57351 5.84224C7.08751 6.13324 6.61251 6.44024 6.23651 6.87724C5.71801 7.47974 5.66951 8.31474 6.12301 8.96974C6.34751 9.29474 6.64701 9.54174 6.96801 9.76124C7.22401 9.93574 7.48801 10.0977 7.74801 10.2652C7.74101 10.2752 7.73701 10.2852 7.73001 10.2892C7.38701 10.4882 7.04501 10.6892 6.69801 10.8827C6.66451 10.9012 6.59501 10.8827 6.55701 10.8587C6.18836 10.6208 5.85018 10.3387 5.55001 10.0187C4.68501 9.11174 4.50901 7.62524 5.14001 6.54074C5.43065 6.04045 5.83486 5.61551 6.32001 5.30024C6.95001 4.88824 8.70501 3.84674 8.93751 3.70424C8.91751 3.67824 8.91201 3.66424 8.90151 3.65774C8.62551 3.49674 8.35151 3.33274 8.07151 3.17924C8.03051 3.15674 7.95601 3.16524 7.91151 3.18824C7.75751 3.26774 7.61001 3.35924 7.46051 3.44674C7.32851 3.52374 7.19701 3.60174 7.04551 3.69124L7.76451 4.14324C7.39701 4.36024 7.04951 4.56824 6.69801 4.76974C6.67001 4.78574 6.61001 4.77324 6.57951 4.75224C6.40543 4.6351 6.23565 4.51168 6.07051 4.38224C5.99801 4.32474 5.95001 4.31924 5.86901 4.36674C5.21511 4.74913 4.55944 5.12847 3.90201 5.50474C3.82951 5.54624 3.80601 5.59474 3.80601 5.67874C3.80851 7.22774 3.80801 8.77674 3.80551 10.3252C3.80551 10.4082 3.82701 10.4572 3.90151 10.5002C4.55451 10.8742 5.20551 11.2522 5.85501 11.6327C5.92701 11.6752 5.97501 11.6732 6.04751 11.6247C6.51351 11.3132 8.64551 9.97674 9.23801 9.60824C9.33851 9.54574 9.42301 9.45624 9.51401 9.37924L9.49901 9.34424H7.28601C7.51101 8.95324 7.72101 8.58424 7.93851 8.21974C7.95851 8.18674 8.03201 8.17274 8.08101 8.17274C9.08451 8.17024 10.0885 8.17124 11.092 8.17124C11.132 8.17124 11.172 8.17574 11.2205 8.17824C11.223 8.22574 11.234 8.26824 11.225 8.30524C11.159 8.57974 11.115 8.86324 11.015 9.12524C10.778 9.74824 10.3385 10.2272 9.80301 10.5962C9.21801 10.9987 7.35551 12.0962 7.03951 12.2847C7.05451 12.3112 7.05651 12.3222 7.06301 12.3262C7.25551 12.4397 7.46201 12.5347 7.63751 12.6707C7.89001 12.8657 8.11001 12.8647 8.36251 12.6707C8.54451 12.5312 8.75751 12.4327 8.97801 12.3032L8.24601 11.8457C8.26601 11.8282 8.27751 11.8142 8.29201 11.8057C8.62701 11.6112 8.96201 11.4157 9.30001 11.2257C9.33201 11.2082 9.39701 11.2177 9.42951 11.2402ZM10.8765 6.57174C11.049 6.87774 11.1775 7.27124 11.1965 7.57474C10.8575 7.57474 10.5305 7.57674 10.203 7.57224C10.173 7.57174 10.126 7.53724 10.1165 7.50824C9.95651 7.01424 9.61501 6.66324 9.21151 6.36824C8.92501 6.15874 8.62001 5.97424 8.32351 5.77824C8.29851 5.76224 8.27401 5.74474 8.23351 5.71674C8.30101 5.67624 8.35351 5.64374 8.40751 5.61224C8.68351 5.45224 8.95751 5.28874 9.23751 5.13474C9.28751 5.10674 9.37751 5.08974 9.41801 5.11624C10.003 5.50074 10.5255 5.94974 10.8765 6.57174Z" fill="white"/>
</g>
<defs>
<clipPath id="clip0_2_3518">
<rect width="16" height="16" fill="white" transform="translate(0 0.000244141)"/>
</clipPath>
</defs>
</svg>
