<svg width="16" height="16" viewBox="0 0 16 16" fill="none" xmlns="http://www.w3.org/2000/svg">
<g clip-path="url(#clip0_2_3520)">
<path d="M8 16.0002C12.4183 16.0002 16 12.4185 16 8.00024C16 3.58197 12.4183 0.000244141 8 0.000244141C3.58172 0.000244141 0 3.58197 0 8.00024C0 12.4185 3.58172 16.0002 8 16.0002Z" fill="#377E96"/>
<path fill-rule="evenodd" clip-rule="evenodd" d="M11.8125 15.0352L11.8545 15.0042C11.7385 14.7917 11.5505 14.6802 11.339 14.6297C11.037 14.5577 10.73 14.4912 10.422 14.4697C9.73752 14.4202 9.05102 14.4087 8.36602 14.3672C7.60302 14.3207 6.84102 14.2562 6.07752 14.2062C6.01102 14.2012 5.91552 14.2262 5.87752 14.2737C5.67752 14.5187 5.48402 14.7707 5.30402 15.0307C5.21602 15.1582 5.16152 15.3082 5.09302 15.4457L5.14552 15.4757C4.84455 15.3608 4.55085 15.2278 4.26602 15.0772C4.31802 15.0872 4.38602 15.0792 4.41152 15.0537C4.72452 14.7402 5.02752 14.4167 5.33202 14.0967C5.10452 13.9147 4.88202 13.7532 4.67952 13.5702C4.49052 13.3992 4.41152 13.1727 4.42802 12.9132C4.45302 12.5147 4.62752 12.1752 4.88402 11.8902C5.18752 11.5537 5.52802 11.2502 5.85302 10.9332C5.89302 10.8947 5.93452 10.8592 5.97152 10.8252C5.95902 10.8032 5.95752 10.7967 5.95402 10.7942L5.85902 10.7392C4.81502 10.1372 4.29452 9.22275 4.28102 8.02925C4.26902 7.00725 4.70402 6.17975 5.47352 5.52625C6.22352 4.88975 7.10702 4.66625 8.07652 4.68825C8.79402 4.70475 9.46452 4.86325 10.089 5.21975C10.124 5.23975 10.212 5.21625 10.244 5.18275C10.5395 4.87325 10.839 4.56675 11.116 4.24025C11.46 3.83525 11.751 3.39525 11.8715 2.86425C11.9655 2.45025 11.9255 2.06125 11.6255 1.73825C11.185 1.26375 10.427 1.32775 10.0405 1.86825C9.96452 1.97425 9.92052 2.10325 9.84602 2.21175C9.81852 2.25175 9.74852 2.26325 9.69752 2.28825C9.68552 2.24325 9.65752 2.19675 9.66402 2.15525C9.68102 2.04125 9.70302 1.92525 9.74052 1.81725C9.93052 1.27225 10.2835 0.900248 10.8755 0.817248C11.068 0.790247 11.268 0.812748 11.469 0.812748C11.459 0.799248 11.455 0.787748 11.447 0.784248C11.4098 0.764202 11.3719 0.745359 11.3335 0.727748C10.9562 0.55536 10.5664 0.411621 10.1675 0.297748C10.9167 0.508084 11.6309 0.827145 12.2875 1.24475C12.2915 1.28825 12.289 1.29975 12.294 1.30575C12.7355 1.85025 12.679 2.42775 12.401 3.01575C12.165 3.51325 11.821 3.93425 11.4495 4.33525C11.1095 4.70225 10.7675 5.06775 10.425 5.43525C10.439 5.44425 10.447 5.45425 10.455 5.45425C10.9785 5.45475 11.502 5.46225 12.025 5.45125C12.298 5.44625 12.5405 5.35575 12.709 5.11425C12.741 5.06775 12.828 5.05925 12.89 5.03325L12.925 5.08175C12.78 5.49975 12.637 5.91825 12.484 6.33275C12.471 6.36775 12.394 6.39625 12.345 6.39825C12.16 6.40625 11.975 6.40175 11.79 6.40175H11.125L11.2005 6.55175C11.5605 7.25675 11.656 8.00425 11.474 8.76675C11.2055 9.89175 10.4695 10.6187 9.39902 10.9967C8.52502 11.3057 7.62802 11.2947 6.73052 11.0802C6.65102 11.0612 6.52802 11.0452 6.48552 11.0877C6.29252 11.2807 6.08852 11.4752 5.94952 11.7062C5.66302 12.1822 5.82952 12.5132 6.37552 12.6282L6.39102 12.6302C6.92702 12.6717 7.46252 12.7227 7.99902 12.7522C8.75802 12.7937 9.51802 12.8102 10.2765 12.8557C10.736 12.8832 11.1895 12.9642 11.6035 13.1837C12.1365 13.4652 12.514 13.8802 12.6795 14.4867C12.7185 14.4592 12.7575 14.4317 12.7965 14.4032C12.485 14.6367 12.1565 14.8482 11.8115 15.0352H11.8125ZM9.38752 15.8802C8.90222 15.9651 8.41016 16.0053 7.91752 16.0002C8.40975 15.9954 8.90101 15.9553 9.38752 15.8802ZM16 8.02525V8.00025C16 7.31025 15.9125 6.64075 15.7485 6.00225C15.9119 6.66447 15.9963 7.34369 16 8.02575V8.02525ZM14.14 2.87275C13.6764 2.31797 13.14 1.82823 12.5455 1.41675C13.154 1.85675 13.687 2.34175 14.1405 2.87275H14.14ZM4.15302 15.0152C3.75837 14.7984 3.38271 14.5487 3.03002 14.2687C3.38652 14.5392 3.77552 14.7712 4.15302 15.0152ZM1.62903e-05 8.01575C0.0009972 7.58955 0.0339228 7.16402 0.0985163 6.74275C0.0320961 7.16364 -0.000840434 7.58914 1.62903e-05 8.01525V8.01575ZM1.45802 3.39425C1.77182 2.95771 2.12497 2.55084 2.51302 2.17875C2.12162 2.54747 1.76819 2.9545 1.45802 3.39375V3.39425ZM5.56652 0.377248C6.35507 0.134081 7.17485 0.00708114 8.00002 0.000247529C7.17425 -0.00051271 6.35335 0.126662 5.56652 0.377248ZM9.78302 8.32825L9.75302 8.32075C9.73552 8.07875 9.72602 7.83575 9.70002 7.59475C9.64102 7.03675 9.48252 6.50975 9.17502 6.03475C8.72002 5.33075 7.96002 5.04675 7.23102 5.32875C6.63252 5.55975 6.31502 6.03475 6.17202 6.64025C6.03602 7.21325 6.04702 7.79375 6.11602 8.37175C6.18252 8.92175 6.33952 9.44525 6.65602 9.91075C7.06302 10.5082 7.63052 10.7692 8.33602 10.6512C9.00602 10.5402 9.42702 10.1067 9.59852 9.46225C9.69702 9.09425 9.72402 8.70725 9.78352 8.32825H9.78302Z" fill="white"/>
</g>
<defs>
<clipPath id="clip0_2_3520">
<rect width="16" height="16" fill="white" transform="translate(0 0.000244141)"/>
</clipPath>
</defs>
</svg>
