<svg width="16" height="16" viewBox="0 0 16 16" fill="none" xmlns="http://www.w3.org/2000/svg">
<g clip-path="url(#clip0_2_3523)">
<path d="M8 16.0002C12.4183 16.0002 16 12.4185 16 8.00024C16 3.58197 12.4183 0.000244141 8 0.000244141C3.58172 0.000244141 0 3.58197 0 8.00024C0 12.4185 3.58172 16.0002 8 16.0002Z" fill="#B3B3B3"/>
<path d="M3.3732 3.49592C4.0284 2.81062 5.22517 2.78338 5.90259 3.44933C6.60988 4.1406 7.30964 4.83845 8.00187 5.54288C8.73915 4.84252 9.4284 4.09556 10.1685 3.39807C10.8728 2.76223 12.0682 2.83893 12.6951 3.55148C13.3363 4.22316 13.3259 5.39556 12.6592 6.04789C11.9743 6.74538 11.2807 7.43212 10.59 8.12352C11.2958 8.85112 12.0316 9.54969 12.7313 10.2862C13.3592 10.9748 13.299 12.1468 12.6191 12.7798C11.9492 13.4558 10.7492 13.4576 10.0807 12.7798C9.38539 12.0988 8.7051 11.3984 8.01442 10.7131C7.27714 11.4224 6.57427 12.1665 5.82804 12.8683C5.11478 13.5013 3.91155 13.406 3.29721 12.6805C2.67858 12.0103 2.69327 10.868 3.33915 10.2185C3.9456 9.59628 4.56281 8.98445 5.1818 8.37764C5.44094 8.63607 5.70044 8.89628 5.95958 9.1547C5.35277 9.78158 4.71442 10.3812 4.11657 11.0185C3.71334 11.4318 4.06854 12.2013 4.63485 12.1923C4.97786 12.2224 5.21478 11.9382 5.43807 11.7235C6.02983 11.1207 6.63091 10.5285 7.22266 9.92603C5.93234 8.6246 4.62123 7.34072 3.33736 6.0332C2.66746 5.35829 2.68861 4.15434 3.3732 3.49915V3.49592ZM4.1223 5.24897C4.80546 5.96151 5.51442 6.64682 6.2094 7.34897C6.54393 7.00918 6.88156 6.67155 7.2223 6.33606C6.54954 5.65829 5.87965 4.97406 5.19793 4.30703C4.98073 4.07262 4.60904 3.98445 4.32553 4.15363C3.93126 4.34467 3.80725 4.93069 4.12159 5.24933L4.1223 5.24897ZM10.8004 4.32495C9.51764 5.58445 8.26065 6.86976 6.98395 8.13642C7.32875 8.47012 7.67177 8.80524 8.00725 9.14789C8.26496 8.89377 8.52123 8.63678 8.7775 8.37979C9.03664 8.63822 9.29435 8.89843 9.55528 9.15542C9.30223 9.41384 9.04739 9.6694 8.78969 9.92495C9.4818 10.621 10.1607 11.3303 10.8757 12.0038C11.2384 12.3859 11.9427 12.154 12.0474 11.6508C12.1596 11.2945 11.904 10.9866 11.6624 10.7626C10.5251 9.63069 9.39005 8.4964 8.25743 7.35972C8.51669 7.10118 8.77487 6.84168 9.03198 6.58123C9.28969 6.83822 9.54739 7.0952 9.81119 7.34789C10.49 6.64467 11.209 5.98015 11.8775 5.26617C12.2148 4.93857 12.0797 4.31169 11.6499 4.13427C11.3607 3.98553 11.0083 4.09054 10.8001 4.32495H10.8004Z" fill="url(#paint0_linear_2_3523)"/>
</g>
<defs>
<linearGradient id="paint0_linear_2_3523" x1="8.00582" y1="13.2895" x2="8.00582" y2="2.96546" gradientUnits="userSpaceOnUse">
<stop stop-color="#2F75BB"/>
<stop offset="1" stop-color="#0A4185"/>
</linearGradient>
<clipPath id="clip0_2_3523">
<rect width="16" height="16" fill="white" transform="translate(0 0.000244141)"/>
</clipPath>
</defs>
</svg>
