<svg width="23" height="16" viewBox="0 0 23 16" fill="none" xmlns="http://www.w3.org/2000/svg">
<g clip-path="url(#clip0_2_3529)">
<path d="M1.15083 0.0178633C0.81491 0.044284 0.556365 0.0971254 0.570896 0.136756C0.704887 0.455692 1.53336 2.33345 1.54469 2.34477C1.55601 2.3561 1.7485 2.36931 1.97497 2.37874C2.97895 2.41649 3.77346 2.61275 4.63214 3.03737C5.24925 3.34121 5.70595 3.66769 6.18152 4.14138C6.88167 4.83964 7.33837 5.61528 7.60635 6.56454C7.63655 6.67399 7.66108 6.77213 7.66108 6.78723C7.66108 6.80798 7.50822 6.81176 6.8326 6.81176C6.3759 6.81176 5.98337 6.81931 5.95883 6.82874C5.92298 6.84195 5.82862 7.04577 5.43608 7.94596C5.17187 8.55175 4.95296 9.06129 4.94918 9.07828C4.93597 9.12735 5.0945 9.17075 5.49081 9.22925C5.57196 9.24246 6.05885 9.25567 6.63445 9.26322L7.63655 9.27455L7.57616 9.48214C6.90054 11.7732 4.80387 13.3754 2.2354 13.5679C2.09009 13.5773 1.89948 13.5868 1.81078 13.5868H1.65037L1.15593 14.7248C0.731308 15.6967 0.665256 15.8627 0.693564 15.8722C0.821893 15.9194 1.10875 15.9363 1.77304 15.9363C2.62227 15.9363 3.03557 15.8986 3.73572 15.7552C6.59482 15.1683 8.97079 13.349 10.0465 10.9183C10.2541 10.4503 10.4975 9.68029 10.5409 9.35758L10.5541 9.26511H12.6999L12.7074 9.30663C12.8622 10.0653 13.0301 10.5767 13.3208 11.1806C14.1945 12.9999 15.8326 14.4851 17.8614 15.3004C19.0933 15.7937 20.4129 16.0307 21.7395 15.9967C22.2944 15.9797 22.736 15.9175 22.7133 15.859C22.6945 15.8099 21.7546 13.6528 21.749 13.6472C21.7433 13.6415 21.5489 13.634 21.313 13.6245C20.6506 13.5981 20.1524 13.5207 19.59 13.3603C18.7238 13.1112 17.867 12.6602 17.2103 12.1091C16.3837 11.4127 15.7854 10.5465 15.4684 9.58593C15.4325 9.47648 15.3967 9.36136 15.391 9.32739L15.3778 9.267L16.1855 9.26134C16.629 9.25756 17.0065 9.24813 17.0216 9.24058C17.0461 9.22737 18.0123 7.03633 18.0123 6.99293C18.0123 6.96462 17.7689 6.89291 17.5481 6.85705C17.3858 6.83063 17.1801 6.82308 16.3592 6.81742L15.3646 6.80798L15.4023 6.67399C15.9534 4.72264 17.6443 3.17325 19.824 2.62408C20.3053 2.5033 20.7733 2.44102 21.381 2.41649C21.7433 2.40139 21.7886 2.39573 21.8113 2.36553C21.8263 2.34477 22.049 1.84467 22.3057 1.25397C22.6209 0.53118 22.7662 0.1745 22.753 0.165064C22.7114 0.142418 22.4472 0.0952382 22.2396 0.0744791C21.9377 0.0423968 21.0564 0.0480584 20.6676 0.0820279C18.4445 0.280183 16.4403 1.1766 14.9381 2.64106C14.0209 3.53559 13.3774 4.53958 12.9811 5.69831C12.8792 5.99083 12.7565 6.4513 12.7188 6.67399L12.6961 6.81176H10.5868L10.5792 6.76835C10.5736 6.74571 10.5528 6.63814 10.5302 6.52868C10.2188 4.98118 9.33936 3.47709 8.09759 2.36931C6.68408 1.10677 4.92144 0.31604 2.98141 0.0758001C2.39827 0.00465296 1.6466 -0.0198806 1.15083 0.0178633Z" fill="#007F88"/>
</g>
<defs>
<clipPath id="clip0_2_3529">
<rect width="22.1836" height="16" fill="white" transform="translate(0.570312 0.000244141)"/>
</clipPath>
</defs>
</svg>
