<svg width="17" height="16" viewBox="0 0 17 16" fill="none" xmlns="http://www.w3.org/2000/svg">
<g clip-path="url(#clip0_2_3530)">
<path d="M8.75391 16.0002C13.1722 16.0002 16.7539 12.4185 16.7539 8.00024C16.7539 3.58197 13.1722 0.000244141 8.75391 0.000244141C4.33563 0.000244141 0.753906 3.58197 0.753906 8.00024C0.753906 12.4185 4.33563 16.0002 8.75391 16.0002Z" fill="#CFA967"/>
<path d="M8.76391 8.47274V12.4692L11.7374 11.6682L12.4359 3.97324H8.76391V7.23924L8.91591 6.76574H9.31391L8.76391 8.47274ZM5.07191 12.2347L4.25391 3.25024H13.2539L12.4359 12.2347L8.74391 13.2502L5.07191 12.2347ZM7.65341 8.83824V8.46774L6.41891 7.97574L7.65391 7.48074V7.10974L5.89041 7.82624V8.12224L7.65341 8.83824ZM11.6199 8.12224L9.85641 8.83824V8.46774L11.0914 7.97424L9.85641 7.48074V7.10974L11.6199 7.82624V8.12224ZM8.76391 8.47224V7.23924L8.10541 9.29274H8.49941L8.76391 8.47224Z" fill="white"/>
</g>
<defs>
<clipPath id="clip0_2_3530">
<rect width="16" height="16" fill="white" transform="translate(0.753906 0.000244141)"/>
</clipPath>
</defs>
</svg>
