<svg width="17" height="16" viewBox="0 0 17 16" fill="none" xmlns="http://www.w3.org/2000/svg">
<g clip-path="url(#clip0_2_3533)">
<path d="M8.53334 15.3227C12.5763 15.3227 15.8538 12.0452 15.8538 8.00221C15.8538 3.95924 12.5763 0.681763 8.53334 0.681763C4.49037 0.681763 1.21289 3.95924 1.21289 8.00221C1.21289 12.0452 4.49037 15.3227 8.53334 15.3227Z" fill="white"/>
<path d="M8.9383 0.000573699C7.35428 -0.0846694 5.78068 0.303007 4.41755 1.11432C3.05441 1.92564 1.96329 3.12395 1.2829 4.55693C0.602501 5.98992 0.363555 7.59285 0.596435 9.16197C0.829314 10.7311 1.5235 12.1955 2.59075 13.3691C3.658 14.5428 5.05011 15.3725 6.59012 15.753C8.13013 16.1334 9.74849 16.0474 11.2395 15.5058C12.7305 14.9641 14.0267 13.9914 14.9635 12.7113C15.9003 11.4311 16.4353 9.90128 16.5004 8.31631C16.5821 6.21549 15.8352 4.16666 14.4208 2.61123C13.0063 1.0558 11.0374 0.118248 8.9383 0.000573699ZM8.49652 13.2278C5.92384 13.2278 3.94885 10.6291 4.59852 8.13441C4.81834 7.36569 5.16055 6.63739 5.612 5.97751C6.37411 4.82245 7.23489 3.7356 8.18468 2.72918C8.41856 2.46931 8.60047 2.46931 8.83435 2.70319C9.94998 3.85884 10.9268 5.14088 11.7449 6.52323C12.2126 7.38079 12.5764 8.26434 12.5504 9.25183C12.5072 10.3068 12.0642 11.3059 11.3113 12.0462C10.5584 12.7865 9.5521 13.2127 8.49652 13.2382V13.2278Z" fill="#168DFF"/>
</g>
<defs>
<clipPath id="clip0_2_3533">
<rect width="15.9792" height="16" fill="white" transform="translate(0.53125 0.000244141)"/>
</clipPath>
</defs>
</svg>
