<svg width="17" height="16" viewBox="0 0 17 16" fill="none" xmlns="http://www.w3.org/2000/svg">
<g clip-path="url(#clip0_2_3535)">
<path d="M14.9652 2.75886C15.727 2.75886 16.3446 2.14133 16.3446 1.37955C16.3446 0.617782 15.727 0.000244141 14.9652 0.000244141C14.2035 0.000244141 13.5859 0.617782 13.5859 1.37955C13.5859 2.14133 14.2035 2.75886 14.9652 2.75886Z" fill="#18A0B1"/>
<path d="M4.36086 10.3672C3.84138 9.48535 3.62958 8.45591 3.75873 7.44061C3.88788 6.4253 4.35067 5.48167 5.07438 4.75796C5.79809 4.03425 6.74172 3.57147 7.75702 3.44231C8.77233 3.31316 9.80177 3.52496 10.6836 4.04444L11.7871 2.94099L11.7319 2.89686C10.545 2.11454 9.12371 1.7678 7.70994 1.91568C6.29616 2.06357 4.97735 2.69692 3.97807 3.70791C2.9788 4.71889 2.36085 6.04499 2.22945 7.46039C2.09805 8.8758 2.46132 10.293 3.25741 11.4706L4.36086 10.3672Z" fill="#18A0B1"/>
<path d="M12.3266 5.69402C12.8461 6.57588 13.0579 7.60532 12.9287 8.62062C12.7996 9.63592 12.3368 10.5796 11.6131 11.3033C10.8894 12.027 9.94573 12.4898 8.93043 12.6189C7.91513 12.7481 6.88569 12.5363 6.00384 12.0168L4.90039 13.1202C6.08222 13.9226 7.50681 14.2878 8.9289 14.1531C10.351 14.0183 11.6816 13.392 12.6917 12.3819C13.7018 11.3718 14.3281 10.0412 14.4629 8.61909C14.5976 7.197 14.2324 5.77241 13.43 4.59058L12.3266 5.69402Z" fill="#18A0B1"/>
<path d="M1.72306 16.0002C2.48483 16.0002 3.10237 15.3827 3.10237 14.6209C3.10237 13.8591 2.48483 13.2416 1.72306 13.2416C0.961288 13.2416 0.34375 13.8591 0.34375 14.6209C0.34375 15.3827 0.961288 16.0002 1.72306 16.0002Z" fill="#18A0B1"/>
</g>
<defs>
<clipPath id="clip0_2_3535">
<rect width="16" height="16" fill="white" transform="translate(0.34375 0.000244141)"/>
</clipPath>
</defs>
</svg>
