<svg width="17" height="16" viewBox="0 0 17 16" fill="none" xmlns="http://www.w3.org/2000/svg">
<g clip-path="url(#clip0_2_3538)">
<path d="M8.41211 16.0002C12.8304 16.0002 16.4121 12.4185 16.4121 8.00024C16.4121 3.58197 12.8304 0.000244141 8.41211 0.000244141C3.99383 0.000244141 0.412109 3.58197 0.412109 8.00024C0.412109 12.4185 3.99383 16.0002 8.41211 16.0002Z" fill="#DF1A14"/>
<path d="M7.84198 5.76375C7.99548 5.71525 8.16998 5.80175 8.23348 5.95275C8.38698 6.30375 8.52448 6.66525 8.68348 7.01575C8.77848 7.22625 9.10198 7.25325 9.22848 7.05925C9.44048 6.70825 9.60998 6.33575 9.81648 5.97925C9.98598 5.75825 10.293 5.86625 10.526 5.84475C10.7695 5.82875 10.9495 6.13625 10.8115 6.34675C10.1445 7.59325 9.47248 8.83475 8.80548 10.0818C8.69398 10.3083 8.32898 10.3083 8.22848 10.0708C8.07998 9.70925 7.96348 9.33125 7.82048 8.96975C7.73548 8.73225 7.37048 8.69475 7.24898 8.92125C7.04248 9.29375 6.86248 9.68225 6.65598 10.0493C6.55548 10.2163 6.34348 10.1893 6.17948 10.1893C6.02048 10.1788 5.82998 10.2273 5.70848 10.0923C5.65526 10.0371 5.6217 9.96602 5.61302 9.8899C5.60434 9.81378 5.62103 9.73692 5.66048 9.67125C6.28548 8.48925 6.92048 7.30225 7.54548 6.10925C7.61948 5.97425 7.68298 5.80675 7.84198 5.76425V5.76375ZM5.66048 5.85575C5.84566 5.84495 6.03131 5.84495 6.21648 5.85575C6.42298 5.87725 6.55548 6.14175 6.45498 6.33075C5.83498 7.50175 5.21048 8.66725 4.59148 9.83325C4.51698 9.96325 4.45898 10.1358 4.29998 10.1783C4.11498 10.2058 3.92448 10.1898 3.73898 10.1898C3.51148 10.2003 3.32098 9.90325 3.45848 9.70375C4.10448 8.49475 4.74998 7.28025 5.39598 6.06625C5.44898 5.96375 5.53898 5.86125 5.66098 5.85575H5.66048ZM12.2305 5.86625C12.4315 5.80675 12.6435 5.85025 12.85 5.83375C13.0085 5.83925 13.21 5.80675 13.3265 5.94725C13.4695 6.09325 13.4265 6.36825 13.2465 6.46025C12.8815 6.69225 12.5215 6.94025 12.1515 7.16725C11.918 7.32875 11.574 7.05375 11.6745 6.78375C11.7645 6.56775 11.8915 6.36875 11.9925 6.15775C12.0505 6.04975 12.1035 5.90975 12.2305 5.86625ZM10.478 9.09375C10.584 9.02875 10.7165 9.05075 10.817 9.10475C11.0975 9.24475 11.378 9.39625 11.664 9.53125C11.786 9.58525 11.913 9.68775 11.918 9.83325C11.9395 10.0278 11.775 10.2163 11.5845 10.2003C11.177 10.2003 10.7695 10.2053 10.367 10.2003C10.166 10.2003 10.007 9.96275 10.081 9.76875C10.134 9.62825 10.2135 9.50375 10.277 9.36875C10.3245 9.26675 10.372 9.14225 10.478 9.09375Z" fill="white"/>
</g>
<defs>
<clipPath id="clip0_2_3538">
<rect width="16" height="16" fill="white" transform="translate(0.412109 0.000244141)"/>
</clipPath>
</defs>
</svg>
