<svg width="17" height="16" viewBox="0 0 17 16" fill="none" xmlns="http://www.w3.org/2000/svg">
<g clip-path="url(#clip0_2_3539)">
<path d="M3.71046 2.3247C5.03585 1.21961 6.7622 0.597941 8.48936 0.634724C10.5973 0.629065 12.67 1.61694 14.0278 3.22365C16.6668 6.3247 16.2913 10.9783 13.1907 13.6173C12.1766 14.48 10.9479 15.0519 9.63493 15.2726C8.322 15.4932 6.97382 15.3542 5.7335 14.8704C5.10456 14.6228 4.51169 14.2919 3.97077 13.8865C4.09931 12.9189 4.57708 12.0058 5.27473 11.3259C6.04173 10.5753 7.05291 10.1253 8.12396 10.0579C8.40691 10.0317 8.68985 10.0547 8.97481 10.0414C10.0701 10.014 11.1537 10.2728 12.1183 10.7924C12.2481 10.8607 12.4194 10.9334 12.4275 11.1044C12.4493 11.3235 12.2177 11.4177 12.0831 11.5426C12.4348 11.5296 12.7626 11.3684 13.0601 11.1921C13.343 11.0304 13.4271 10.5983 13.1983 10.3558C12.8095 9.92252 12.3899 9.51912 11.995 9.09067C11.8863 8.96941 11.7355 8.8635 11.7048 8.69091C11.3576 7.38888 10.5265 6.26854 9.38104 5.55873C8.68298 5.11047 7.86972 4.85299 7.04555 4.7762C5.27675 4.55995 3.48087 4.62462 1.72461 4.91645C2.166 3.91201 2.87053 3.03165 3.71046 2.3247Z" fill="white"/>
<path d="M9.16602 6.81897C9.28508 6.90481 9.39457 7.00319 9.49261 7.11242C9.84993 7.46892 10.2089 7.82381 10.5633 8.18355C10.6393 8.25343 10.7071 8.33167 10.7654 8.41677C10.4865 8.42647 10.2076 8.42324 9.92915 8.41677C9.761 8.05299 9.56982 7.69891 9.3952 7.33756C9.31476 7.16658 9.2129 7.00369 9.16602 6.81897Z" fill="white"/>
<path d="M8.02163 0.00985111C9.21739 -0.0488113 10.4111 0.161747 11.5146 0.625991C12.6181 1.09023 13.6033 1.79632 14.3975 2.69215C17.3304 5.99328 17.0317 11.047 13.7302 13.9799C13.2465 14.4097 12.7124 14.7792 12.1397 15.0802C10.1409 16.1485 7.68291 16.2928 5.56892 15.4795C4.25034 14.9768 3.08795 14.1347 2.19937 13.0385C1.31079 11.9422 0.727557 10.6307 0.508694 9.23661C0.201904 7.30694 0.632381 5.26935 1.70878 3.63798C2.6971 2.12235 4.16867 0.985242 5.8846 0.411225C6.57578 0.182436 7.29454 0.0474396 8.02163 0.00985111ZM3.7112 2.32473C2.87127 3.03168 2.16674 3.91203 1.72535 4.91891C3.48161 4.62707 5.27749 4.5624 7.04629 4.77865C7.87046 4.85545 8.68371 5.11292 9.38177 5.56119C10.5272 6.27099 11.3584 7.39134 11.7055 8.69336C11.7363 8.86596 11.887 8.96984 11.9958 9.09312C12.3899 9.52157 12.8102 9.92497 13.1991 10.3583C13.4279 10.6008 13.3454 11.0325 13.0608 11.1946C12.7633 11.3708 12.4355 11.5321 12.0839 11.545C12.2185 11.4201 12.4501 11.3259 12.4283 11.1069C12.4202 10.9359 12.2488 10.8643 12.119 10.7948C11.1545 10.2745 10.0708 10.0151 8.97515 10.0422C8.6922 10.0555 8.40926 10.0325 8.12632 10.0588C7.05526 10.1261 6.04408 10.5761 5.27709 11.3267C4.57943 12.0058 4.10166 12.9197 3.97312 13.8874C4.51405 14.2927 5.10692 14.6236 5.73586 14.8712C9.53052 16.3494 13.8054 14.471 15.2831 10.676C15.7661 9.43631 15.9046 8.08908 15.684 6.77709C15.4634 5.4651 14.8919 4.23724 14.0301 3.22368C12.6724 1.61656 10.5992 0.629091 8.49253 0.636771C6.76536 0.599989 5.03901 1.22165 3.71363 2.32675L3.7112 2.32473ZM9.16633 6.82109C9.21322 7.00581 9.31508 7.1687 9.39633 7.33928C9.57094 7.70064 9.76011 8.05391 9.93028 8.4185C10.2088 8.42537 10.4877 8.42861 10.7666 8.4185C10.7082 8.3334 10.6404 8.25516 10.5645 8.18528C10.21 7.82554 9.85105 7.47064 9.49374 7.11414C9.39522 7.00416 9.28504 6.90522 9.16512 6.81907L9.16633 6.82109Z" fill="#333333"/>
</g>
<defs>
<clipPath id="clip0_2_3539">
<rect width="16.0032" height="16" fill="white" transform="translate(0.412109 0.000244141)"/>
</clipPath>
</defs>
</svg>
