<svg width="17" height="16" viewBox="0 0 17 16" fill="none" xmlns="http://www.w3.org/2000/svg">
<g clip-path="url(#clip0_2_3540)">
<path d="M2.64035 8.87695H2.95039V9.24617L0.726058 9.82381H0.416016V9.45458L2.64035 8.87695Z" fill="url(#paint0_linear_2_3540)"/>
<path d="M3.99805 12.1292V12.4534H4.32481L5.37587 11.3213V10.9971H5.04782L3.99805 12.1292Z" fill="url(#paint1_linear_2_3540)"/>
<path d="M0.416016 15.6761V16.0002H0.741496L2.95168 13.7412V13.417H2.62619L0.416016 15.6761Z" fill="url(#paint2_linear_2_3540)"/>
<path d="M7.05905 12.4534L7.57364 11.311V10.9971H7.2353L6.7207 12.1395V12.4534H7.05776H7.05905Z" fill="url(#paint3_linear_2_3540)"/>
<path d="M5.37289 2.5835V2.26446L3.8111 0.000244141H3.48047V0.320579L5.04741 2.5835H5.37803H5.37289Z" fill="url(#paint4_linear_2_3540)"/>
<path d="M3.48047 15.6799V15.999H3.8111L5.37289 13.736V13.417H5.04741L3.48047 15.6799Z" fill="url(#paint5_linear_2_3540)"/>
<path d="M0.416016 6.17542V6.54464L2.64035 7.12613H2.95039V6.76077L0.726058 6.17542H0.416016Z" fill="url(#paint6_linear_2_3540)"/>
<path d="M0.416016 0.000244141V0.324438L2.62619 2.5835H2.95168V2.25931L0.741496 0.000244141H0.416016Z" fill="url(#paint7_linear_2_3540)"/>
<path d="M0.416016 12.6077V12.9371H0.73635L2.95168 11.3213V10.9971H2.63134L0.416016 12.6077Z" fill="url(#paint8_linear_2_3540)"/>
<path d="M12.876 9.79808V9.46359L11.7748 8.87695H11.457V9.21144L12.5583 9.80194H12.8747L12.876 9.79808Z" fill="url(#paint9_linear_2_3540)"/>
<path d="M12.876 6.53822V6.20374H12.5583L11.457 6.79423V7.12872H11.7735L12.876 6.53822Z" fill="url(#paint10_linear_2_3540)"/>
<path d="M6.7207 3.54834V3.85967L7.2353 5.00207H7.57236V4.69074L7.05776 3.54834H6.7207Z" fill="url(#paint11_linear_2_3540)"/>
<path d="M12.8336 3.87253V3.54834H12.5081L11.457 4.68173V5.00592H11.7838L12.8336 3.87253Z" fill="url(#paint12_linear_2_3540)"/>
<path d="M9.72191 6.63843H9.23047V7.12986H9.72191V6.63843Z" fill="#BE5095"/>
<path d="M7.59895 2.5835V2.27475L7.05477 0.000244141H6.68555V0.310287L7.23359 2.5835H7.60281H7.59895Z" fill="url(#paint13_linear_2_3540)"/>
<path d="M9.25586 10.9971V11.3123L9.77045 12.4547H10.1075V12.1382L9.59292 10.9958H9.25586V10.9971Z" fill="url(#paint14_linear_2_3540)"/>
<path d="M10.1114 3.54834H9.77436L9.25977 4.69074V5.00592H9.59682L10.1114 3.86353V3.54834Z" fill="url(#paint15_linear_2_3540)"/>
<path d="M0.416016 3.06458V3.39391L2.63134 5.00459H2.95168V4.67525L0.73635 3.06458H0.416016Z" fill="url(#paint16_linear_2_3540)"/>
<path d="M13.8809 10.9971V11.3213L16.0962 12.9319H16.4165V12.6077L14.2025 10.9971H13.8821H13.8809Z" fill="url(#paint17_linear_2_3540)"/>
<path d="M11.459 2.26446V2.5835H11.7896L13.3514 0.320579V0.000244141H13.0233L11.459 2.26446Z" fill="url(#paint18_linear_2_3540)"/>
<path d="M13.8809 13.417V13.7412L16.091 16.0002H16.4165V15.6761L14.2063 13.417H13.8809Z" fill="url(#paint19_linear_2_3540)"/>
<path d="M11.459 13.417V13.736L13.0233 15.999H13.354V15.6799L11.7896 13.417H11.459Z" fill="url(#paint20_linear_2_3540)"/>
<path d="M12.8349 12.4534V12.1292L11.7838 10.9958H11.457V11.3213L12.5094 12.4534H12.8361H12.8349Z" fill="url(#paint21_linear_2_3540)"/>
<path d="M16.091 0.000244141L13.8809 2.25931V2.5835H14.2063L16.4165 0.324438V0.000244141H16.091Z" fill="url(#paint22_linear_2_3540)"/>
<path d="M13.8809 4.67525V5.00459H14.2012L16.4165 3.39391V3.06458H16.0962L13.8809 4.67525Z" fill="url(#paint23_linear_2_3540)"/>
<path d="M13.8809 6.76077V7.12999H14.1909L16.4152 6.5485V6.17542H16.1116L13.8809 6.76077Z" fill="url(#paint24_linear_2_3540)"/>
<path d="M13.8809 8.87695V9.24617L16.1116 9.82381H16.4217V9.45458L14.1922 8.87695H13.8821H13.8809Z" fill="url(#paint25_linear_2_3540)"/>
<path d="M6.68555 15.6953V16.0053H7.05477L7.59766 13.7308V13.4208H7.23359L6.68555 15.6953Z" fill="url(#paint26_linear_2_3540)"/>
<path d="M3.95703 9.46359V9.79808H4.27608L5.37731 9.20758V8.87695H5.05826L3.95703 9.46359Z" fill="url(#paint27_linear_2_3540)"/>
<path d="M3.99805 3.54834V3.87253L5.04782 5.00592H5.37458V4.68173L4.32353 3.54834H3.99805Z" fill="url(#paint28_linear_2_3540)"/>
<path d="M7.10547 9.36453H7.59691V8.87695H7.10547V9.36839V9.36453Z" fill="#BD687B"/>
<path d="M3.95703 6.20496V6.53944L5.05826 7.12994H5.37474V6.79545L4.27608 6.20496H3.95703Z" fill="url(#paint29_linear_2_3540)"/>
<path d="M9.23438 13.417V13.727L9.77727 16.0015H10.1465V15.6953L9.6036 13.4209H9.23438V13.417Z" fill="url(#paint30_linear_2_3540)"/>
<path d="M9.23438 2.27475V2.58479H9.6036L10.1478 0.310287V0.000244141H9.77727L9.23438 2.27475Z" fill="url(#paint31_linear_2_3540)"/>
<path d="M7.10547 7.12858H7.59691V6.63843H7.10547V7.12986V7.12858Z" fill="#AC5E90"/>
<path d="M9.72191 8.87695H9.23047V9.36839H9.72191V8.87695Z" fill="#C85C7F"/>
</g>
<defs>
<linearGradient id="paint0_linear_2_3540" x1="1.32299" y1="10.0258" x2="2.16178" y2="8.45241" gradientUnits="userSpaceOnUse">
<stop stop-color="#93966F"/>
<stop offset="1" stop-color="#9C8476"/>
</linearGradient>
<linearGradient id="paint1_linear_2_3540" x1="5.41447" y1="11.037" x2="3.95945" y2="12.4122" gradientUnits="userSpaceOnUse">
<stop stop-color="#C27E64"/>
<stop offset="1" stop-color="#CD8D56"/>
</linearGradient>
<linearGradient id="paint2_linear_2_3540" x1="2.97483" y1="13.4414" x2="0.391579" y2="15.9758" gradientUnits="userSpaceOnUse">
<stop stop-color="#D7974E"/>
<stop offset="1" stop-color="#F5AE3D"/>
</linearGradient>
<linearGradient id="paint3_linear_2_3540" x1="7.64697" y1="11.3457" x2="6.52773" y2="12.1974" gradientUnits="userSpaceOnUse">
<stop stop-color="#CB7365"/>
<stop offset="1" stop-color="#D57D56"/>
</linearGradient>
<linearGradient id="paint4_linear_2_3540" x1="3.25791" y1="0.435076" x2="5.6572" y2="2.19499" gradientUnits="userSpaceOnUse">
<stop stop-color="#3658CA"/>
<stop offset="1" stop-color="#6B59B8"/>
</linearGradient>
<linearGradient id="paint5_linear_2_3540" x1="3.29522" y1="15.5989" x2="5.6379" y2="13.7553" gradientUnits="userSpaceOnUse">
<stop stop-color="#F99F36"/>
<stop offset="1" stop-color="#DC8A4C"/>
</linearGradient>
<linearGradient id="paint6_linear_2_3540" x1="1.23165" y1="5.79462" x2="2.04213" y2="7.33454" gradientUnits="userSpaceOnUse">
<stop stop-color="#668A87"/>
<stop offset="1" stop-color="#847C88"/>
</linearGradient>
<linearGradient id="paint7_linear_2_3540" x1="2.97483" y1="2.55906" x2="0.391572" y2="0.0246876" gradientUnits="userSpaceOnUse">
<stop stop-color="#4A69B0"/>
<stop offset="1" stop-color="#056EBD"/>
</linearGradient>
<linearGradient id="paint8_linear_2_3540" x1="2.6069" y1="10.8375" x2="0.713194" y2="13.1545" gradientUnits="userSpaceOnUse">
<stop stop-color="#B78D63"/>
<stop offset="1" stop-color="#C5A256"/>
</linearGradient>
<linearGradient id="paint9_linear_2_3540" x1="11.6783" y1="8.70199" x2="12.5853" y2="9.87912" gradientUnits="userSpaceOnUse">
<stop stop-color="#D75080"/>
<stop offset="1" stop-color="#E34B76"/>
</linearGradient>
<linearGradient id="paint10_linear_2_3540" x1="11.7195" y1="7.25351" x2="12.6496" y2="6.03263" gradientUnits="userSpaceOnUse">
<stop stop-color="#CF4794"/>
<stop offset="1" stop-color="#D739A3"/>
</linearGradient>
<linearGradient id="paint11_linear_2_3540" x1="6.51744" y1="3.8571" x2="7.71258" y2="4.65086" gradientUnits="userSpaceOnUse">
<stop stop-color="#8554B2"/>
<stop offset="1" stop-color="#9C55A5"/>
</linearGradient>
<linearGradient id="paint12_linear_2_3540" x1="11.4455" y1="4.93903" x2="12.8722" y2="3.58951" gradientUnits="userSpaceOnUse">
<stop stop-color="#C43CAE"/>
<stop offset="1" stop-color="#CD2CC3"/>
</linearGradient>
<linearGradient id="paint13_linear_2_3540" x1="6.41924" y1="0.918794" x2="7.9656" y2="1.7177" gradientUnits="userSpaceOnUse">
<stop stop-color="#6344D6"/>
<stop offset="1" stop-color="#874ABF"/>
</linearGradient>
<linearGradient id="paint14_linear_2_3540" x1="9.08604" y1="11.2866" x2="10.1976" y2="12.1022" gradientUnits="userSpaceOnUse">
<stop stop-color="#D66766"/>
<stop offset="1" stop-color="#E26A55"/>
</linearGradient>
<linearGradient id="paint15_linear_2_3540" x1="9.0565" y1="4.72418" x2="10.213" y2="3.90083" gradientUnits="userSpaceOnUse">
<stop stop-color="#AD4AA9"/>
<stop offset="1" stop-color="#AD3EBB"/>
</linearGradient>
<linearGradient id="paint16_linear_2_3540" x1="0.747928" y1="2.81114" x2="2.61976" y2="5.25932" gradientUnits="userSpaceOnUse">
<stop stop-color="#307CA3"/>
<stop offset="1" stop-color="#6A739A"/>
</linearGradient>
<linearGradient id="paint17_linear_2_3540" x1="14.1742" y1="10.7591" x2="16.0743" y2="13.112" gradientUnits="userSpaceOnUse">
<stop stop-color="#EA4C68"/>
<stop offset="1" stop-color="#F44752"/>
</linearGradient>
<linearGradient id="paint18_linear_2_3540" x1="11.1785" y1="2.19113" x2="13.637" y2="0.391335" gradientUnits="userSpaceOnUse">
<stop stop-color="#B930CC"/>
<stop offset="1" stop-color="#CE15F2"/>
</linearGradient>
<linearGradient id="paint19_linear_2_3540" x1="16.441" y1="15.9758" x2="13.8577" y2="13.4414" gradientUnits="userSpaceOnUse">
<stop stop-color="#F15829"/>
<stop offset="1" stop-color="#EF5948"/>
</linearGradient>
<linearGradient id="paint20_linear_2_3540" x1="11.2647" y1="13.8171" x2="13.601" y2="15.6426" gradientUnits="userSpaceOnUse">
<stop stop-color="#EA674A"/>
<stop offset="1" stop-color="#F26A28"/>
</linearGradient>
<linearGradient id="paint21_linear_2_3540" x1="11.4184" y1="11.037" x2="12.8735" y2="12.4123" gradientUnits="userSpaceOnUse">
<stop stop-color="#E15A68"/>
<stop offset="1" stop-color="#EB5A55"/>
</linearGradient>
<linearGradient id="paint22_linear_2_3540" x1="16.441" y1="0.0246874" x2="13.8577" y2="2.55906" gradientUnits="userSpaceOnUse">
<stop stop-color="#F902FD"/>
<stop offset="1" stop-color="#DA1FD4"/>
</linearGradient>
<linearGradient id="paint23_linear_2_3540" x1="16.0859" y1="2.81114" x2="14.2128" y2="5.25932" gradientUnits="userSpaceOnUse">
<stop stop-color="#FC11D5"/>
<stop offset="1" stop-color="#DE2AB7"/>
</linearGradient>
<linearGradient id="paint24_linear_2_3540" x1="15.6176" y1="5.76631" x2="14.7904" y2="7.33325" gradientUnits="userSpaceOnUse">
<stop stop-color="#F922AA"/>
<stop offset="1" stop-color="#E2369D"/>
</linearGradient>
<linearGradient id="paint25_linear_2_3540" x1="14.6978" y1="8.45885" x2="15.5005" y2="10.0399" gradientUnits="userSpaceOnUse">
<stop stop-color="#E64183"/>
<stop offset="1" stop-color="#F63777"/>
</linearGradient>
<linearGradient id="paint26_linear_2_3540" x1="6.35363" y1="15.1794" x2="7.88969" y2="14.2621" gradientUnits="userSpaceOnUse">
<stop stop-color="#F68C31"/>
<stop offset="1" stop-color="#D77C4E"/>
</linearGradient>
<linearGradient id="paint27_linear_2_3540" x1="5.16247" y1="8.70456" x2="4.24778" y2="9.86883" gradientUnits="userSpaceOnUse">
<stop stop-color="#AC757A"/>
<stop offset="1" stop-color="#AC8270"/>
</linearGradient>
<linearGradient id="paint28_linear_2_3540" x1="3.95945" y1="3.58951" x2="5.40932" y2="4.9609" gradientUnits="userSpaceOnUse">
<stop stop-color="#6466AA"/>
<stop offset="1" stop-color="#8563A1"/>
</linearGradient>
<linearGradient id="paint29_linear_2_3540" x1="4.1976" y1="6.04929" x2="5.08528" y2="7.21999" gradientUnits="userSpaceOnUse">
<stop stop-color="#857390"/>
<stop offset="1" stop-color="#986C8D"/>
</linearGradient>
<linearGradient id="paint30_linear_2_3540" x1="10.4372" y1="15.1113" x2="8.89475" y2="14.2802" gradientUnits="userSpaceOnUse">
<stop stop-color="#F47B2C"/>
<stop offset="1" stop-color="#E5744A"/>
</linearGradient>
<linearGradient id="paint31_linear_2_3540" x1="10.4823" y1="0.862188" x2="8.93977" y2="1.69969" gradientUnits="userSpaceOnUse">
<stop stop-color="#952EE3"/>
<stop offset="1" stop-color="#9D3FC3"/>
</linearGradient>
<clipPath id="clip0_2_3540">
<rect width="16" height="16" fill="white" transform="translate(0.416016 0.000244141)"/>
</clipPath>
</defs>
</svg>
