<svg width="17" height="16" viewBox="0 0 17 16" fill="none" xmlns="http://www.w3.org/2000/svg">
<g clip-path="url(#clip0_2_3545)">
<path d="M12.3003 1.85619C12.8047 1.85619 13.2147 1.43964 13.2147 0.927886C13.2147 0.416129 12.8047 0.000244141 12.3003 0.000244141C11.7958 0.00288888 11.3858 0.418774 11.3858 0.93053C11.3858 1.44229 11.7958 1.85619 12.3003 1.85619ZM12.57 4.26819C12.7769 4.26662 12.9747 4.18292 13.1199 4.0355C13.2651 3.88808 13.3458 3.68902 13.3443 3.48211C13.3443 3.04969 12.9978 2.69596 12.57 2.69596C12.1422 2.69596 11.7958 3.04705 11.7958 3.48211C11.7958 3.91717 12.1416 4.26819 12.57 4.26819ZM14.6957 4.57564C15.1215 4.57564 15.468 4.22455 15.468 3.79148C15.468 3.3584 15.1215 3.00731 14.6957 3.00731C14.2699 3.00731 13.9235 3.3584 13.9235 3.79148C13.9235 4.22455 14.2706 4.57564 14.6957 4.57564ZM14.4405 6.6392C14.8055 6.6392 15.101 6.33902 15.101 5.96942C15.101 5.59981 14.8055 5.29964 14.4405 5.29964C14.0755 5.29964 13.78 5.59981 13.78 5.96942C13.78 6.33902 14.0755 6.6392 14.4405 6.6392ZM16.1424 7.30832C16.51 7.30832 16.8076 7.00615 16.8076 6.63391C16.8076 6.26166 16.51 5.9595 16.1424 5.9595C16.0544 5.9601 15.9675 5.97803 15.8864 6.01225C15.8054 6.04647 15.7319 6.09632 15.6701 6.15894C15.6084 6.22157 15.5596 6.29574 15.5265 6.37724C15.4934 6.45873 15.4766 6.54595 15.4773 6.63391C15.4773 7.00615 15.7754 7.30832 16.1424 7.30832ZM12.3016 6.36018C12.391 6.35966 12.4795 6.34153 12.5619 6.30682C12.6443 6.27212 12.7191 6.22152 12.782 6.15791C12.8448 6.0943 12.8946 6.01893 12.9283 5.93611C12.9621 5.85328 12.9792 5.76462 12.9786 5.67519V5.67387C12.9786 5.29501 12.6765 4.98756 12.3016 4.98756C11.9267 4.98756 11.6245 5.29435 11.6245 5.67387C11.6245 6.05074 11.9274 6.36018 12.3016 6.36018ZM11.688 8.0019C12.0021 8.0019 12.2553 7.74404 12.2553 7.42733C12.2565 7.27618 12.1977 7.13073 12.0917 7.02298C11.9857 6.91523 11.8412 6.854 11.6901 6.85276H11.688C11.3739 6.85276 11.1207 7.11062 11.1207 7.42733C11.1207 7.74404 11.3739 8.0019 11.688 8.0019ZM13.817 8.29216C13.8914 8.29165 13.965 8.27649 14.0335 8.24754C14.1021 8.2186 14.1643 8.17643 14.2165 8.12346C14.2688 8.07049 14.3101 8.00774 14.3381 7.9388C14.3661 7.86987 14.3802 7.79609 14.3797 7.72169V7.7203C14.3797 7.40425 14.1284 7.14837 13.817 7.14837C13.5056 7.14837 13.2543 7.40425 13.2543 7.7203C13.2534 7.79444 13.267 7.86804 13.2945 7.9369C13.322 8.00576 13.3628 8.06854 13.4145 8.12164C13.4663 8.17474 13.528 8.21713 13.5961 8.24639C13.6642 8.27565 13.7375 8.2912 13.8116 8.29216H13.817ZM15.5143 8.95863C15.8283 8.95863 16.0816 8.70077 16.0816 8.38208C16.0816 8.06339 15.8283 7.80553 15.5143 7.80553C15.2002 7.80553 14.947 8.06339 14.947 8.38208C14.9454 8.5334 15.004 8.67916 15.1099 8.78728C15.2157 8.89541 15.3602 8.95704 15.5116 8.95863H15.5143ZM14.6759 10.2043C14.941 10.2043 15.1553 9.98545 15.1553 9.71833C15.1553 9.45121 14.941 9.23236 14.6759 9.23236C14.4108 9.23236 14.1965 9.45121 14.1965 9.71833C14.1965 9.98545 14.4108 10.2043 14.6759 10.2043ZM12.9707 9.54841C13.2405 9.54841 13.4613 9.32493 13.4613 9.05054C13.4613 8.77614 13.2424 8.55266 12.9707 8.55266C12.699 8.55266 12.4801 8.77614 12.4801 9.05054C12.4801 9.32493 12.7009 9.54841 12.9707 9.54841ZM10.8443 9.24426C10.9738 9.24223 11.0972 9.18942 11.188 9.09721C11.2789 9.005 11.3298 8.88078 11.3299 8.75134C11.33 8.62191 11.2792 8.49762 11.1885 8.40529C11.0978 8.31296 10.9744 8.25998 10.845 8.25778H10.8443C10.7149 8.25981 10.5915 8.31262 10.5006 8.40483C10.4098 8.49704 10.3588 8.62126 10.3588 8.75069C10.3587 8.88013 10.4095 9.00441 10.5002 9.09675C10.5909 9.18908 10.7143 9.24206 10.8437 9.24426H10.8443ZM12.0265 10.4146C12.2613 10.4146 12.4497 10.2215 12.4497 9.98677C12.4507 9.87438 12.4071 9.76617 12.3284 9.68594C12.2497 9.60572 12.1423 9.56005 12.0299 9.55899H12.0265C11.7918 9.55899 11.6034 9.75205 11.6034 9.98677C11.6021 10.099 11.6455 10.2071 11.724 10.2873C11.8025 10.3676 11.9096 10.4133 12.0218 10.4146H12.0265ZM13.7311 11.0817C13.9658 11.0817 14.1588 10.8886 14.1588 10.6493C14.1588 10.4099 13.9684 10.2169 13.7311 10.2169C13.6164 10.2169 13.5064 10.2624 13.4253 10.3435C13.3442 10.4246 13.2986 10.5346 13.2986 10.6493C13.2986 10.764 13.3442 10.8739 13.4253 10.955C13.5064 11.0361 13.6164 11.0817 13.7311 11.0817ZM12.771 11.5822C12.9568 11.5822 13.1082 11.4288 13.1082 11.2404C13.1088 11.1504 13.0735 11.0638 13.0103 10.9997C12.9471 10.9356 12.861 10.8992 12.771 10.8985C12.5852 10.8985 12.4338 11.0519 12.4338 11.2404C12.4336 11.3303 12.469 11.4166 12.5321 11.4807C12.5953 11.5447 12.6811 11.5812 12.771 11.5822ZM11.8612 11.8507C11.9015 11.8504 11.9413 11.8422 11.9785 11.8266C12.0156 11.8109 12.0493 11.7881 12.0776 11.7595C12.1059 11.7308 12.1282 11.6968 12.1434 11.6595C12.1586 11.6222 12.1663 11.5823 12.166 11.542V11.5412C12.166 11.3693 12.0285 11.2318 11.8612 11.2318C11.821 11.232 11.7811 11.2402 11.744 11.2559C11.7069 11.2715 11.6732 11.2943 11.6449 11.323C11.6166 11.3516 11.5942 11.3856 11.579 11.4229C11.5639 11.4602 11.5562 11.5001 11.5564 11.5404V11.5412C11.555 11.6219 11.5857 11.6998 11.6418 11.7578C11.6978 11.8158 11.7746 11.8492 11.8552 11.8506L11.8612 11.8507ZM11.0645 10.9607C11.2648 10.9607 11.4275 10.7954 11.4275 10.5931C11.4275 10.3908 11.2648 10.2255 11.0645 10.2255C10.8642 10.2255 10.7015 10.3908 10.7015 10.5931C10.7013 10.6898 10.7394 10.7828 10.8073 10.8516C10.8753 10.9205 10.9678 10.9597 11.0645 10.9607ZM9.89553 10.1177C10.1283 10.1177 10.3187 9.92727 10.3187 9.6899C10.3187 9.45254 10.1303 9.26211 9.89553 9.26211C9.6628 9.26211 9.47237 9.45254 9.47237 9.6899C9.47219 9.80261 9.51657 9.91082 9.59584 9.99096C9.6751 10.0711 9.78283 10.1166 9.89553 10.1177ZM13.3621 15.4772C13.8646 15.4772 14.2719 15.0633 14.2719 14.5536C14.2719 14.0438 13.8646 13.6299 13.3621 13.6299C12.8596 13.6299 12.4523 14.0438 12.4523 14.5536C12.4523 15.0633 12.8596 15.4772 13.3621 15.4772ZM11.0513 14.3083C11.4698 14.3083 11.8097 13.9638 11.8097 13.5387C11.8097 13.1135 11.4698 12.769 11.0513 12.769C10.6328 12.769 10.2929 13.1135 10.2929 13.5387C10.2929 13.9638 10.6321 14.3083 11.0513 14.3083ZM9.7309 16.0002C10.1541 16.0002 10.4959 15.6538 10.4959 15.2234C10.4959 14.7956 10.1541 14.4465 9.7309 14.4465C9.30774 14.4465 8.96591 14.7929 8.96591 15.2234C8.96432 15.4278 9.04402 15.6245 9.18747 15.7702C9.33092 15.9159 9.52637 15.9987 9.73083 16.0002H9.7309ZM9.33353 12.8828C9.42122 12.8822 9.50794 12.8643 9.58873 12.8302C9.66952 12.796 9.7428 12.7463 9.80438 12.6839C9.86596 12.6215 9.91464 12.5475 9.94764 12.4662C9.98063 12.385 9.9973 12.298 9.99669 12.2103C9.9973 12.1226 9.98063 12.0357 9.94764 11.9544C9.91464 11.8732 9.86596 11.7992 9.80438 11.7368C9.7428 11.6743 9.66952 11.6246 9.58873 11.5905C9.50794 11.5564 9.42122 11.5385 9.33353 11.5379C9.24583 11.5385 9.15911 11.5564 9.07832 11.5905C8.99753 11.6246 8.92425 11.6743 8.86267 11.7368C8.80109 11.7992 8.75241 11.8732 8.71941 11.9544C8.68642 12.0357 8.66975 12.1226 8.67036 12.2103C8.67102 12.5806 8.96855 12.8828 9.33353 12.8828ZM8.01645 14.5979C8.38142 14.5979 8.67697 14.2977 8.67697 13.9281C8.67697 13.5585 8.38142 13.2583 8.01645 13.2583C7.65147 13.2583 7.35592 13.5585 7.35592 13.9281C7.35418 14.104 7.42236 14.2733 7.54547 14.3989C7.66858 14.5245 7.83654 14.5961 8.01241 14.5979H8.01645ZM6.59688 15.7616C6.96186 15.7616 7.25542 15.4614 7.25542 15.0938C7.25542 14.7242 6.95987 14.426 6.59688 14.426C6.23191 14.426 5.93834 14.7261 5.93834 15.0938C5.93834 15.4614 6.23389 15.7616 6.59688 15.7616ZM5.41535 14.2468C5.56541 14.2454 5.70883 14.1847 5.81426 14.0779C5.91969 13.9711 5.97856 13.8269 5.97801 13.6768C5.97801 13.3628 5.72676 13.1069 5.41535 13.1069C5.26569 13.1092 5.12294 13.1702 5.01791 13.2769C4.91289 13.3835 4.85402 13.5272 4.85402 13.6768C4.85402 13.8265 4.91289 13.9702 5.01791 14.0768C5.12294 14.1835 5.26569 14.2445 5.41535 14.2468ZM6.83755 13.0778C6.98772 13.0768 7.13133 13.0161 7.23683 12.9093C7.34234 12.8024 7.4011 12.658 7.40022 12.5079C7.40022 12.1918 7.14897 11.9379 6.83755 11.9379C6.68789 11.9399 6.54501 12.0007 6.43979 12.1072C6.33457 12.2136 6.27544 12.3572 6.27518 12.5069C6.27492 12.6566 6.33355 12.8004 6.4384 12.9072C6.54325 13.014 6.68591 13.0753 6.83557 13.0778H6.83755ZM8.16455 11.3634C8.23896 11.3628 8.31253 11.3477 8.38107 11.3187C8.44962 11.2898 8.51179 11.2476 8.56404 11.1947C8.61629 11.1417 8.65759 11.0789 8.68559 11.01C8.71359 10.9411 8.72773 10.8673 8.72722 10.7929V10.7915C8.72722 10.4755 8.47597 10.2196 8.16455 10.2196C8.09015 10.2201 8.01657 10.2352 7.94803 10.2642C7.87949 10.2931 7.81731 10.3353 7.76507 10.3883C7.71282 10.4412 7.67151 10.504 7.64352 10.5729C7.61552 10.6419 7.60137 10.7156 7.60188 10.79V10.7914C7.60188 11.1075 7.85313 11.3634 8.16455 11.3634ZM6.13472 11.5994C6.40448 11.5994 6.62333 11.3786 6.62333 11.1042C6.62333 10.8298 6.40448 10.6089 6.13472 10.6089C5.86495 10.6089 5.6461 10.8298 5.6461 11.1042C5.6461 11.3786 5.86495 11.5994 6.13472 11.5994ZM4.71978 12.7637C4.78369 12.7634 4.8469 12.7505 4.90581 12.7257C4.96472 12.7009 5.01817 12.6648 5.06311 12.6193C5.10805 12.5739 5.14361 12.5201 5.16774 12.4609C5.19187 12.4017 5.20412 12.3384 5.20377 12.2745V12.2731C5.205 12.1443 5.15499 12.0202 5.06473 11.9282C4.97448 11.8362 4.85137 11.7838 4.72249 11.7825H4.71978C4.65588 11.7829 4.59266 11.7958 4.53376 11.8206C4.47485 11.8454 4.4214 11.8815 4.37645 11.9269C4.33151 11.9724 4.29596 12.0262 4.27182 12.0854C4.24769 12.1446 4.23545 12.2079 4.23579 12.2718V12.2731C4.23536 12.3371 4.24753 12.4006 4.27162 12.4599C4.29571 12.5192 4.33123 12.5731 4.37618 12.6187C4.42112 12.6642 4.4746 12.7005 4.53355 12.7254C4.59251 12.7503 4.65579 12.7633 4.71978 12.7637ZM4.39448 11.3991C4.50601 11.3982 4.61266 11.3532 4.69109 11.2739C4.76953 11.1946 4.81336 11.0874 4.81301 10.9759C4.81301 10.7412 4.62457 10.5527 4.39448 10.5527C4.16439 10.5527 3.97595 10.7432 3.97595 10.9759C3.97595 11.2106 4.16439 11.3991 4.39448 11.3991ZM4.38258 10.2017C4.43007 10.2012 4.47702 10.1914 4.52073 10.1729C4.56445 10.1543 4.60407 10.1273 4.63735 10.0934C4.67063 10.0595 4.6969 10.0194 4.71468 9.97534C4.73245 9.9313 4.74137 9.88418 4.74094 9.83668C4.74094 9.63634 4.58027 9.47171 4.38258 9.47171C4.18488 9.47171 4.02421 9.63436 4.02421 9.83668C4.02421 10.039 4.18488 10.2017 4.38258 10.2017ZM4.57961 9.20591C4.74953 9.20591 4.88442 9.0664 4.88442 8.89648C4.88442 8.72655 4.74689 8.58704 4.57961 8.58704C4.40969 8.58704 4.2748 8.72655 4.2748 8.89648C4.2748 9.0664 4.40969 9.20591 4.57961 9.20591ZM5.79949 9.0393C5.99983 9.0393 6.16249 8.874 6.16249 8.67168C6.16249 8.46935 5.99983 8.30406 5.79949 8.30406C5.59916 8.30406 5.4365 8.46935 5.4365 8.67168C5.43615 8.76848 5.47413 8.86149 5.54215 8.93038C5.61017 8.99926 5.70269 9.03842 5.79949 9.0393ZM7.13839 8.51762C7.37113 8.51762 7.56155 8.32456 7.56155 8.08984C7.56261 7.97744 7.51898 7.86923 7.44025 7.78901C7.36153 7.70878 7.25416 7.66311 7.14177 7.66205H7.13839C6.90566 7.66205 6.71524 7.85511 6.71524 8.08984C6.7148 8.14558 6.72535 8.20086 6.74628 8.25253C6.76721 8.3042 6.79811 8.35124 6.83722 8.39096C6.87633 8.43068 6.92288 8.46231 6.97422 8.48405C7.02555 8.50578 7.08067 8.51719 7.13641 8.51762H7.13839ZM7.45708 9.87569C7.58441 9.87543 7.70643 9.82463 7.79632 9.73446C7.88622 9.64428 7.93664 9.52211 7.93651 9.39478C7.93638 9.26745 7.8857 9.14539 7.79562 9.0554C7.70554 8.96541 7.58342 8.91486 7.45609 8.91486C7.32876 8.91486 7.20664 8.96541 7.11656 9.0554C7.02648 9.14539 6.97581 9.26745 6.97568 9.39478C6.97554 9.52211 7.02597 9.64428 7.11586 9.73446C7.20576 9.82463 7.32777 9.87543 7.4551 9.87569H7.45708ZM5.81669 10.2374C6.04942 10.2374 6.23522 10.0469 6.23522 9.81156C6.23522 9.57618 6.04678 9.38576 5.81669 9.38576C5.76138 9.38609 5.70668 9.39732 5.65571 9.4188C5.60475 9.44028 5.55851 9.47159 5.51965 9.51094C5.48078 9.55029 5.45005 9.59691 5.4292 9.64814C5.40836 9.69937 5.39781 9.7542 5.39816 9.80951V9.81156C5.39737 9.86668 5.40745 9.92142 5.42782 9.97265C5.44818 10.0239 5.47844 10.0706 5.51686 10.1101C5.55529 10.1497 5.60112 10.1812 5.65175 10.2031C5.70237 10.2249 5.7568 10.2365 5.81193 10.2373H5.81669V10.2374ZM1.18839 9.60593C1.68825 9.60593 2.09554 9.19401 2.09554 8.68688C2.09554 8.17976 1.68825 7.76784 1.18839 7.76784C0.68854 7.76784 0.28125 8.18042 0.28125 8.68755C0.28125 9.19467 0.68854 9.60593 1.18839 9.60593ZM3.24732 7.96487C3.67775 7.96487 4.02421 7.61114 4.02421 7.17608C4.02421 6.74102 3.67511 6.38729 3.24732 6.38729C3.03989 6.38868 2.8415 6.47243 2.69581 6.62009C2.55011 6.76776 2.46904 6.96725 2.47043 7.17469V7.17608C2.47043 7.61378 2.81954 7.96487 3.24732 7.96487ZM2.44398 5.94165C2.87177 5.94165 3.21625 5.59056 3.21625 5.15748C3.21625 4.72441 2.86979 4.37332 2.44398 4.37332C2.34188 4.374 2.2409 4.39479 2.14683 4.4345C2.05276 4.47421 1.96743 4.53206 1.89572 4.60475C1.82401 4.67744 1.76731 4.76354 1.72888 4.85814C1.69045 4.95274 1.67102 5.05399 1.67172 5.15609V5.15748C1.66962 5.36334 1.74938 5.5616 1.89345 5.70865C2.03752 5.85571 2.2341 5.93952 2.43995 5.94165H2.44398ZM4.42886 4.98293C4.79383 4.98293 5.09203 4.68275 5.09203 4.3105C5.09203 3.93826 4.79449 3.63808 4.42886 3.63808C4.06322 3.63808 3.76569 3.93826 3.76569 4.3105C3.76569 4.68275 4.06389 4.98293 4.42886 4.98293ZM5.24013 7.00153C5.60775 7.00153 5.90528 6.69936 5.90528 6.32712C5.90528 5.95487 5.60775 5.65271 5.24013 5.65271C4.87251 5.65271 4.57498 5.95487 4.57498 6.32712C4.57498 6.69936 4.87251 7.00153 5.24013 7.00153ZM7.04649 6.58233C7.19763 6.58109 7.34209 6.51988 7.4481 6.41214C7.55412 6.3044 7.613 6.15897 7.6118 6.00783C7.61294 5.93359 7.59944 5.85986 7.57208 5.79084C7.54473 5.72181 7.50404 5.65886 7.45235 5.60556C7.40066 5.55226 7.33898 5.50966 7.27083 5.4802C7.20268 5.45074 7.12939 5.43499 7.05515 5.43386C6.98091 5.43272 6.90718 5.44622 6.83816 5.47357C6.76913 5.50093 6.70618 5.54162 6.65288 5.59331C6.59958 5.645 6.55698 5.70668 6.52752 5.77483C6.49806 5.84298 6.48231 5.91627 6.48118 5.99051C6.48118 5.99633 6.48118 6.00208 6.48118 6.00783C6.47943 6.15845 6.53758 6.30359 6.64284 6.41134C6.74809 6.51909 6.89184 6.58062 7.04246 6.5824L7.04649 6.58233ZM8.60688 6.58762C8.87665 6.58762 9.0955 6.36679 9.0955 6.09438C9.0955 5.82197 8.87665 5.60114 8.60688 5.60114C8.47607 5.60114 8.35061 5.6531 8.25811 5.7456C8.16561 5.83811 8.11364 5.96356 8.11364 6.09438C8.11364 6.2252 8.16561 6.35066 8.25811 6.44316C8.35061 6.53566 8.47607 6.58762 8.60688 6.58762ZM9.89619 6.8845C10.1217 6.8845 10.3081 6.6987 10.3081 6.46795C10.3081 6.2372 10.1243 6.0514 9.89619 6.0514C9.78641 6.05226 9.68143 6.09657 9.60423 6.17463C9.52704 6.2527 9.48391 6.35816 9.48428 6.46795C9.48692 6.69606 9.67007 6.8845 9.89619 6.8845ZM10.0641 5.36509C10.1598 5.36441 10.2512 5.3258 10.3184 5.25774C10.3856 5.18968 10.423 5.09774 10.4225 5.0021C10.4225 4.80176 10.2618 4.63911 10.0641 4.63911C9.86644 4.63911 9.70577 4.80176 9.70577 5.0021C9.70523 5.09774 9.74266 5.18968 9.80985 5.25774C9.87704 5.3258 9.9685 5.36441 10.0641 5.36509ZM9.07236 4.86788C9.1818 4.86761 9.28665 4.82391 9.36389 4.74638C9.44113 4.66885 9.48444 4.56384 9.48431 4.4544C9.48417 4.34496 9.4406 4.24005 9.36317 4.16271C9.28574 4.08537 9.18077 4.04193 9.07133 4.04193C8.96189 4.04193 8.85693 4.08537 8.7795 4.16271C8.70206 4.24005 8.65849 4.34496 8.65836 4.4544C8.65822 4.56384 8.70153 4.66885 8.77877 4.74638C8.85601 4.82391 8.96087 4.86761 9.07031 4.86788H9.07236ZM7.79826 4.56638C7.92744 4.56533 8.05094 4.5131 8.14166 4.42113C8.23239 4.32916 8.28295 4.20497 8.28224 4.07578C8.28224 3.80338 8.06604 3.58519 7.79826 3.58519C7.53048 3.58519 7.31427 3.80602 7.31427 4.07578C7.31375 4.13969 7.32581 4.20307 7.34979 4.26232C7.37376 4.32156 7.40917 4.37549 7.45399 4.42105C7.49881 4.46661 7.55216 4.50289 7.61101 4.52783C7.66985 4.55276 7.73303 4.56586 7.79693 4.56638H7.79826ZM6.2405 4.56837C6.55457 4.56837 6.8078 4.3105 6.8078 3.9938C6.8078 3.67709 6.55457 3.41923 6.2405 3.41923C5.92644 3.41923 5.67321 3.67709 5.67321 3.9938C5.67268 4.14509 5.73205 4.29044 5.83834 4.3981C5.94464 4.50576 6.08922 4.56697 6.2405 4.56837ZM4.14257 3.13161C4.49828 3.13161 4.78458 2.84069 4.78458 2.48035C4.78458 2.12 4.4963 1.82908 4.14257 1.82908C3.78685 1.82908 3.50056 2.12 3.50056 2.48035C3.50056 2.84069 3.78883 3.13161 4.14257 3.13161ZM5.94826 2.73689C6.26232 2.73689 6.51556 2.47902 6.51556 2.16232C6.51556 1.84561 6.26232 1.58775 5.94826 1.58775C5.6342 1.58775 5.38097 1.84561 5.38097 2.16232C5.38097 2.47902 5.6342 2.73689 5.94826 2.73689ZM7.508 2.74416C7.77776 2.74416 7.99661 2.52332 7.99661 2.24893C7.99661 1.97454 7.77776 1.75371 7.508 1.75371C7.44348 1.75405 7.37967 1.7671 7.3202 1.79211C7.26073 1.81712 7.20677 1.8536 7.1614 1.89946C7.11602 1.94532 7.08013 1.99967 7.05576 2.05941C7.03139 2.11915 7.01903 2.1831 7.01938 2.24761V2.24893C7.01883 2.3793 7.06993 2.50458 7.16149 2.59738C7.25305 2.69018 7.37763 2.74295 7.508 2.74416ZM8.78805 3.03905C9.01616 3.03905 9.19997 2.85325 9.19997 2.6225C9.19997 2.39175 9.01616 2.20596 8.78805 2.20596C8.67757 2.20596 8.57162 2.24984 8.49351 2.32796C8.41539 2.40608 8.3715 2.51203 8.3715 2.6225C8.3715 2.73298 8.41539 2.83893 8.49351 2.91704C8.57162 2.99516 8.67757 3.03905 8.78805 3.03905ZM9.77123 3.54948C9.86932 3.54878 9.96312 3.50919 10.032 3.4394C10.101 3.36961 10.1394 3.27532 10.1388 3.17723C10.1388 2.97028 9.97355 2.80499 9.77123 2.80499C9.56891 2.80499 9.40361 2.97227 9.40361 3.17723C9.40361 3.3822 9.56891 3.54948 9.77123 3.54948ZM10.4926 4.13529C10.5325 4.13503 10.572 4.12691 10.6088 4.11138C10.6456 4.09586 10.679 4.07324 10.7071 4.04481C10.7351 4.01638 10.7573 3.98271 10.7724 3.94571C10.7874 3.90871 10.795 3.8691 10.7947 3.82916V3.8285C10.7951 3.78856 10.7876 3.74894 10.7726 3.71191C10.7576 3.67487 10.7355 3.64115 10.7075 3.61266C10.6795 3.58417 10.6462 3.56148 10.6094 3.54587C10.5727 3.53027 10.5332 3.52206 10.4932 3.52171H10.4926C10.4526 3.52197 10.4131 3.5301 10.3763 3.54562C10.3395 3.56115 10.3062 3.58377 10.2781 3.61219C10.25 3.64062 10.2279 3.6743 10.2128 3.7113C10.1978 3.7483 10.1902 3.7879 10.1904 3.82784V3.8285C10.1898 3.86818 10.197 3.90759 10.2116 3.94448C10.2263 3.98137 10.248 4.01502 10.2756 4.0435C10.3033 4.07199 10.3362 4.09475 10.3727 4.11049C10.4091 4.12622 10.4483 4.13463 10.488 4.13523H10.4927L10.4926 4.13529Z" fill="black"/>
</g>
<defs>
<clipPath id="clip0_2_3545">
<rect width="17" height="16" fill="white" transform="translate(0 0.000244141)"/>
</clipPath>
</defs>
</svg>
