<svg width="16" height="16" viewBox="0 0 16 16" fill="none" xmlns="http://www.w3.org/2000/svg">
<g clip-path="url(#clip0_2_3546)">
<path d="M8 16.0002C12.4183 16.0002 16 12.4185 16 8.00024C16 3.58197 12.4183 0.000244141 8 0.000244141C3.58172 0.000244141 0 3.58197 0 8.00024C0 12.4185 3.58172 16.0002 8 16.0002Z" fill="#00D4D5"/>
<path d="M8.25977 2.50024V5.22874L10.6288 3.86624L8.25977 2.50024Z" fill="white"/>
<path opacity="0.9" d="M10.6289 3.86633V6.59483L12.9974 5.22883L10.6289 3.86633Z" fill="white"/>
<path opacity="0.8" d="M8.25977 5.22876V7.95726L10.6288 6.59476L8.25977 5.22876ZM10.6288 6.59526V9.32326L12.9973 7.95726L10.6288 6.59526Z" fill="white"/>
<path opacity="0.8" d="M8.25977 7.95715V10.6857L10.6288 9.32315L8.25977 7.95715Z" fill="white"/>
<path d="M10.6289 9.32324V12.0517L12.9974 10.6857L10.6289 9.32324Z" fill="white"/>
<path opacity="0.4" d="M2.13672 5.13672V7.86522L4.50572 6.49922L2.13672 5.13672Z" fill="white"/>
<path opacity="0.2" d="M5.125 6.15125V8.87975L7.49 7.51725L5.125 6.15125Z" fill="white"/>
<path opacity="0.3" d="M3.36914 7.87683V10.6053L5.73764 9.23933L3.36914 7.87683Z" fill="white"/>
<path opacity="0.9" d="M4.92969 9.93567V12.6642L7.29469 11.2982L4.92969 9.93567Z" fill="white"/>
<path opacity="0.7" d="M8.24023 11.1102V13.8392L10.6052 12.4727L8.24023 11.1102Z" fill="white"/>
<path opacity="0.9" d="M5.51953 4.80383V7.53283L7.88453 6.17033L5.51953 4.80383Z" fill="white"/>
<path opacity="0.8" d="M8.25962 2.50024V5.22874L5.89062 3.86624L8.25962 2.50024Z" fill="white"/>
<path opacity="0.6" d="M5.51989 3.66016V6.38816L3.15039 5.02216L5.51989 3.66016Z" fill="white"/>
<path opacity="0.6" d="M7.88853 5.01025V7.73925L5.51953 6.37275L7.88853 5.01025Z" fill="white"/>
<path opacity="0.95" d="M5.11314 6.15125V8.87975L2.74414 7.51725L5.11314 6.15125Z" fill="white"/>
<path opacity="0.6" d="M8.25953 7.95715V10.6857L5.89453 9.32315L8.25953 7.95715Z" fill="white"/>
<path opacity="0.55" d="M3.369 8.59277V11.3213L1 9.95477L3.369 8.59277Z" fill="white"/>
<path d="M12.9974 5.22876V7.95726L10.6289 6.59476L12.9974 5.22876Z" fill="white"/>
<path opacity="0.95" d="M10.6288 6.59521V9.32321L8.25977 7.95721L10.6288 6.59521Z" fill="white"/>
<path opacity="0.9" d="M12.9974 7.95715V10.6857L10.6289 9.32315L12.9974 7.95715Z" fill="white"/>
<path opacity="0.7" d="M10.6288 9.32324V12.0517L8.25977 10.6857L10.6288 9.32324Z" fill="white"/>
<path opacity="0.4" d="M7.73569 10.4603V13.1888L5.36719 11.8263L7.73569 10.4603Z" fill="white"/>
<path d="M10.6288 3.86633V6.59483L8.25977 5.22883L10.6288 3.86633Z" fill="white"/>
</g>
<defs>
<clipPath id="clip0_2_3546">
<rect width="16" height="16" fill="white" transform="translate(0 0.000244141)"/>
</clipPath>
</defs>
</svg>
