<svg width="17" height="16" viewBox="0 0 17 16" fill="none" xmlns="http://www.w3.org/2000/svg">
<g clip-path="url(#clip0_2_3548)">
<path d="M8.43359 16.0002C12.8519 16.0002 16.4336 12.4185 16.4336 8.00024C16.4336 3.58197 12.8519 0.000244141 8.43359 0.000244141C4.01532 0.000244141 0.433594 3.58197 0.433594 8.00024C0.433594 12.4185 4.01532 16.0002 8.43359 16.0002Z" fill="#0050DB"/>
<path d="M8.4336 13.0002C8.10921 13.0001 7.79081 12.9129 7.5116 12.7477L4.8586 11.1877C4.57609 11.0197 4.34223 10.781 4.18003 10.4951C4.01784 10.2092 3.9329 9.88595 3.9336 9.55724V6.44224C3.93367 6.11382 4.01893 5.79104 4.18106 5.50543C4.34319 5.21982 4.57664 4.98115 4.8586 4.81274L7.5116 3.25274C7.79234 3.08778 8.11198 3.00062 8.4376 3.00024C8.7601 3.00024 9.0776 3.08724 9.3556 3.25274L12.0086 4.81324C12.291 4.9812 12.5247 5.21977 12.6869 5.50548C12.8491 5.7912 12.9341 6.11421 12.9336 6.44274V9.55774C12.9336 9.88625 12.8484 10.2091 12.6863 10.4948C12.5241 10.7805 12.2906 11.0193 12.0086 11.1877L9.3556 12.7477C9.0756 12.9127 8.7576 13.0002 8.4336 13.0002ZM6.9076 9.78574L6.4161 10.2857C6.54279 10.417 6.69488 10.5212 6.8631 10.5918C7.03131 10.6625 7.21215 10.6982 7.3946 10.6967C8.1596 10.6957 8.7806 10.0647 8.7816 9.28524V8.85924C8.9916 8.98274 9.2301 9.04774 9.4726 9.04724C9.65547 9.05068 9.83709 9.0164 10.0061 8.94655C10.1752 8.8767 10.328 8.77277 10.4551 8.64124L9.9641 8.14124C9.8341 8.27424 9.6571 8.34924 9.4726 8.34924C9.28778 8.34726 9.11128 8.27211 8.98176 8.14025C8.85224 8.00839 8.78026 7.83057 8.7816 7.64574V5.29774H8.0906V9.28974C8.0906 9.67924 7.7806 9.99474 7.3981 9.99474C7.30652 9.99446 7.21593 9.97582 7.13168 9.93993C7.04743 9.90403 6.97123 9.8516 6.9076 9.78574Z" fill="white"/>
</g>
<defs>
<clipPath id="clip0_2_3548">
<rect width="16" height="16" fill="white" transform="translate(0.433594 0.000244141)"/>
</clipPath>
</defs>
</svg>
