<svg width="17" height="16" viewBox="0 0 17 16" fill="none" xmlns="http://www.w3.org/2000/svg">
<g clip-path="url(#clip0_2_3549)">
<path d="M0.457944 8.34359H0.445794H0.433594V7.59729C0.441944 7.59729 0.450294 7.59729 0.458594 7.59729C0.486494 7.62214 0.501894 7.65819 0.500544 7.69554C0.507994 7.87889 0.507994 8.06234 0.500544 8.24589C0.501894 8.28324 0.486244 8.31914 0.457944 8.34359Z" fill="#FEF5F6"/>
<path d="M6.95214 5.23067C7.27529 5.34767 7.61129 5.41867 7.94214 5.50732C9.67034 5.97037 11.3989 6.43202 13.1278 6.89232C14.1889 7.17527 15.2503 7.45697 16.3121 7.73732C16.4037 7.76142 16.439 7.80097 16.4327 7.89837C16.4227 8.04972 16.4307 8.20217 16.4257 8.35397C16.4224 8.45422 16.388 8.49662 16.27 8.46122C15.968 8.37062 15.6606 8.29812 15.3562 8.21532C15.2827 8.19532 15.2496 8.20532 15.2743 8.28867C15.2782 8.30182 15.2789 8.31592 15.2826 8.32912C15.3503 8.57222 15.3057 8.52662 15.5403 8.53502C15.7966 8.54417 16.0527 8.55822 16.309 8.56342C16.3931 8.56512 16.4114 8.60262 16.4032 8.67432C16.3832 8.84732 16.3655 9.02057 16.3438 9.19337C16.3355 9.25992 16.3001 9.27917 16.2279 9.26887C16.0193 9.23922 15.8065 9.26887 15.5975 9.23127C15.5125 9.21627 15.4985 9.25212 15.5188 9.33127C15.563 9.50453 15.5996 9.67983 15.6359 9.85503C15.6509 9.92758 15.6912 9.94793 15.7617 9.94888C15.8759 9.95038 15.9898 9.96618 16.104 9.97058C16.1671 9.97298 16.1826 9.99128 16.1622 10.0542C16.1044 10.2331 16.0527 10.4142 15.9981 10.5942C15.9889 10.6242 15.9828 10.6667 15.9422 10.6618C15.7991 10.6445 15.844 10.7346 15.8586 10.8053C15.8669 10.8453 15.8897 10.8847 15.8736 10.9262C15.7454 11.2718 15.5867 11.6053 15.3993 11.9227C15.3278 11.6232 15.2621 11.3549 15.1999 11.0857C15.0203 10.3078 14.8414 9.52978 14.6632 8.75152C14.6128 8.53247 14.5544 8.31507 14.5114 8.09457C14.5025 8.02037 14.444 7.96182 14.3698 7.95282C14.1923 7.90852 14.0142 7.86522 13.8395 7.81112C13.7267 7.77612 13.725 7.81612 13.7468 7.90812C13.8682 8.42157 13.9856 8.93602 14.1046 9.45007C14.3518 10.5184 14.5997 11.5866 14.8481 12.6546C14.8662 12.7073 14.8573 12.7654 14.8243 12.8103C14.6832 12.9913 14.5443 13.1741 14.3873 13.3421C14.316 13.4184 14.2965 13.4012 14.2747 13.3066C14.0881 12.4927 13.8966 11.6799 13.708 10.8664C13.5288 10.093 13.3504 9.31952 13.173 8.54587C13.1049 8.25087 13.033 7.95667 12.9698 7.66087C12.9645 7.60577 12.923 7.56107 12.8685 7.55167C12.6778 7.50317 12.4866 7.45617 12.2978 7.40117C12.1917 7.37027 12.1851 7.40117 12.2078 7.49677C12.3568 8.12177 12.5009 8.74767 12.646 9.37347C12.9497 10.6831 13.2531 11.9929 13.556 13.3027C13.563 13.3434 13.5674 13.3844 13.5693 13.4256C13.5556 13.4445 13.5323 13.4538 13.5093 13.4496C13.2653 13.3851 13.0143 13.3422 12.7897 13.2166C12.761 13.1649 12.743 13.1079 12.7367 13.0491C12.6934 12.8456 12.6901 12.8434 12.4831 12.8951C12.3688 12.9236 12.2552 12.9551 12.1396 12.9785C11.9116 12.9421 11.7175 12.8164 11.5067 12.7344C11.3977 12.6884 11.2918 12.6355 11.1894 12.5761C11.1444 12.5517 11.0826 12.5378 11.0865 12.4653C11.1274 12.4134 11.1899 12.4096 11.2465 12.395C11.6015 12.3033 11.9602 12.2269 12.3149 12.1336C12.3507 12.1256 12.386 12.1157 12.4208 12.104C12.4558 12.0908 12.4915 12.0761 12.4865 12.0285C12.4839 11.9902 12.4546 11.959 12.4165 11.9539C12.3499 11.9367 12.2816 11.9268 12.2128 11.9242C11.9651 11.9282 11.7191 11.8995 11.4721 11.8928C11.3531 11.8923 11.2341 11.8853 11.1159 11.8719C10.88 11.8398 10.6509 11.8824 10.4245 11.9491C10.3549 11.9724 10.283 11.9879 10.21 11.9955C10.1454 11.9933 10.0831 11.971 10.0318 11.9317C9.66309 11.6905 9.29809 11.4439 8.95184 11.1704C8.91089 11.1408 8.87394 11.1061 8.84184 11.0671C8.81314 11.029 8.83419 11.0095 8.86979 10.9958C9.15394 10.9586 9.43674 11.008 9.71909 11.0202C9.96969 11.0309 10.2221 11.0468 10.4727 11.057C10.9391 11.0761 11.4044 11.1204 11.8716 11.1212C11.968 11.1212 12.0621 11.1475 12.1589 11.1467C12.2475 11.1459 12.286 11.1122 12.2632 11.0192C12.2314 10.8897 12.1966 10.7609 12.1702 10.6302C12.161 10.5586 12.0965 10.5072 12.0246 10.5142C11.6359 10.5008 11.2475 10.4775 10.8593 10.4549C10.3979 10.4281 9.93574 10.4211 9.47484 10.3824C9.25179 10.3637 9.02684 10.359 8.80309 10.3524C8.55119 10.3448 8.30084 10.3144 8.04914 10.314C8.01679 10.313 7.98564 10.3016 7.96039 10.2813C7.73314 10.0686 7.50214 9.85923 7.31239 9.61013C7.28344 9.57207 7.25889 9.52833 7.32969 9.50303C7.59119 9.48123 7.85189 9.51342 8.11149 9.52803C8.34439 9.54118 8.57864 9.55498 8.81124 9.56527C9.28739 9.58637 9.76349 9.60897 10.2396 9.63312C10.6925 9.65562 11.1466 9.66268 11.5986 9.70693C11.681 9.71318 11.7637 9.71357 11.8462 9.70813C11.9166 9.70502 11.9446 9.66952 11.9316 9.59992C11.905 9.45967 11.8711 9.32092 11.8301 9.18417C11.8043 9.09712 11.7325 9.07967 11.6558 9.07917C11.4768 9.07832 11.2985 9.05687 11.1203 9.05312C10.4511 9.03907 9.78354 8.98982 9.11534 8.95982C8.48389 8.93147 7.85184 8.90562 7.22114 8.85887C7.03264 8.84492 7.02204 8.85387 6.99954 9.03832C7.00169 9.08022 6.98539 9.12092 6.95504 9.14982C6.88724 9.12552 6.89094 9.06392 6.89094 9.01147C6.89094 8.11057 6.87869 7.20962 6.89594 6.30917C6.91464 6.20987 7.01954 6.19962 7.07429 6.13702C7.09354 6.11502 7.13809 6.10702 7.12429 6.06702C7.11484 6.03977 7.08024 6.04067 7.05534 6.03172C6.99979 6.01172 6.92244 6.03172 6.90159 5.94712C6.89159 5.71112 6.87034 5.47517 6.91339 5.24027C6.91784 5.22782 6.93154 5.22132 6.94399 5.22577C6.94699 5.22682 6.94979 5.22852 6.95214 5.23067Z" fill="#ABACAC"/>
<path d="M7.29128 9.53788C7.50853 9.80188 7.74483 10.0495 7.99828 10.279C8.14168 10.34 8.22763 10.4712 8.33928 10.5696C8.50863 10.7189 8.70058 10.8446 8.84033 11.0268C9.25548 11.3796 9.70148 11.6944 10.173 11.9674C10.3288 12.0105 10.453 12.1138 10.5919 12.1896C10.7232 12.2613 10.8525 12.3365 10.9875 12.4013C11.0313 12.4152 11.068 12.4454 11.0901 12.4856C11.4255 12.669 11.7744 12.8264 12.1339 12.9564C12.3666 13.0094 12.5955 13.073 12.8 13.203C13.0506 13.296 13.3078 13.3706 13.5693 13.4261C13.7526 13.5019 13.9509 13.52 14.1678 13.5848C14.0578 13.6901 13.9592 13.7882 13.8567 13.8821C13.5428 14.1697 13.5422 14.1691 13.1424 14.054C8.36923 12.6793 4.78173 8.84333 3.71908 3.97573C3.57458 3.28673 3.48008 2.58813 3.43643 1.88548C3.42203 1.79448 3.46338 1.70368 3.54143 1.65473C3.73048 1.51908 3.91398 1.37568 4.12818 1.24393C4.13148 2.61673 4.37078 3.97878 4.83563 5.27048V5.13148C4.83563 3.74543 4.83478 2.35933 4.83313 0.973279C4.83288 0.871679 4.85873 0.813779 4.95378 0.774329C5.14313 0.695779 5.32843 0.607429 5.51553 0.523029C5.53833 0.573079 5.54558 0.628829 5.53638 0.683029C5.53713 2.74598 5.53743 4.80898 5.53738 6.87198C5.53263 6.91298 5.53673 6.95453 5.54943 6.99378C5.74513 7.39163 5.97628 7.77103 6.24013 8.12733V7.98413C6.24013 5.46988 6.23923 2.95563 6.23748 0.441379C6.23748 0.321629 6.25943 0.263329 6.38878 0.238579C6.57193 0.203579 6.75143 0.147829 6.93668 0.119629C6.98243 0.173579 6.97193 0.239629 6.97508 0.302479C6.98768 0.552479 6.96138 0.801429 6.94873 1.05073C6.98018 1.33043 6.99583 1.60988 6.93668 1.88828C6.93643 2.13958 6.93623 2.39088 6.93603 2.64218C6.95628 2.67263 6.96768 2.70808 6.96893 2.74463C6.97228 2.96718 6.97228 3.18978 6.96893 3.41233C6.96528 3.45773 6.95403 3.50218 6.93568 3.54383L6.93683 4.32563C6.95623 4.35673 6.96728 4.39228 6.96893 4.42888C6.97228 4.65223 6.97228 4.87553 6.96893 5.09888C6.96568 5.14448 6.95438 5.18913 6.93563 5.23083L6.94513 5.98418C6.98868 6.06918 6.98808 6.17008 6.94353 6.25458C6.94118 7.19793 6.93898 8.14123 6.93698 9.08458C6.93938 9.10228 6.94408 9.11958 6.95103 9.13603C7.09293 9.24298 7.20918 9.38028 7.29128 9.53788Z" fill="#EE1D55"/>
<path d="M0.457637 8.34366L0.458287 7.59721C0.438937 7.24646 0.647037 6.98951 0.818287 6.71721C0.859437 6.65166 0.898287 6.58446 0.937837 6.51801C0.992837 6.34436 1.11139 6.20871 1.21609 6.06706C1.27824 5.99301 1.29434 5.89071 1.25789 5.80116C1.22484 5.70341 1.17074 5.60771 1.19739 5.49721C1.18969 5.44736 1.17739 5.39836 1.16074 5.35076C1.02789 5.05666 1.08214 4.78471 1.23824 4.51576C1.34584 4.33026 1.42854 4.13036 1.56324 3.92651C2.05739 6.56366 3.13134 8.90846 4.80914 10.9672C6.48889 13.0282 8.56864 14.5508 11.0441 15.5666C10.7037 15.686 10.3554 15.7818 10.0018 15.8535C9.95594 15.8584 9.90979 15.8469 9.87154 15.8211C9.68134 15.7308 9.49134 15.64 9.30154 15.5486C9.15949 15.5231 9.04534 15.4365 8.92294 15.3699C8.55794 15.1715 8.20854 14.9471 7.85824 14.7242C7.61234 14.5471 7.35649 14.3842 7.11729 14.1973C7.06414 14.1463 6.99229 14.1161 6.95379 14.0497C6.94919 14.0429 6.94479 14.0278 6.94134 14.0279C6.92924 14.0279 6.93344 14.0318 6.94199 14.0419C6.95584 14.0601 6.96449 14.0818 6.96699 14.1046C6.97324 14.5785 6.97294 15.052 6.96614 15.5252C6.96279 15.6344 6.95174 15.7432 6.93304 15.8508C6.71844 15.8311 6.51419 15.7635 6.30559 15.7158C6.21909 15.6958 6.24014 15.6291 6.24009 15.573C6.23939 14.9102 6.23754 14.2474 6.24194 13.5847C6.24699 13.4984 6.20894 13.4151 6.14029 13.3624C5.94274 13.1924 5.75289 13.0135 5.55764 12.836C5.52004 12.8829 5.53764 12.9301 5.53764 12.9729C5.53629 13.7508 5.53594 14.5286 5.53659 15.3063C5.53659 15.4579 5.53544 15.4596 5.39159 15.3969C5.24059 15.3312 5.09269 15.2582 4.94054 15.1954C4.85504 15.1601 4.83289 15.1062 4.83324 15.0157C4.83679 14.0815 4.83439 13.1472 4.83709 12.2129C4.84094 12.1311 4.81154 12.0513 4.75554 11.9915C4.55479 11.7669 4.36144 11.5356 4.14649 11.2849C4.14304 11.3577 4.13889 11.4053 4.13884 11.4529C4.13849 12.5023 4.13744 13.5517 4.13579 14.601C4.13579 14.6321 4.19119 14.7102 4.08954 14.7024C4.07989 14.6341 4.07764 14.565 4.08279 14.4962C4.08249 13.494 4.08059 12.4918 4.08469 11.4897C4.09029 11.3469 4.04079 11.2074 3.94649 11.1C3.76294 10.8766 3.59224 10.6429 3.43524 10.4C3.37424 10.2773 3.30334 10.1597 3.22334 10.0484C3.22049 10.045 3.21834 10.0408 3.21544 10.0375C3.17849 9.99566 3.16984 9.90896 3.10359 9.91901C3.05184 9.92686 3.04729 10.0048 3.02589 10.054C2.92779 10.269 2.83164 10.4846 2.74214 10.7033C2.65214 10.9431 2.55794 11.1811 2.48014 11.4253C2.44744 11.5257 2.41054 11.6246 2.38434 11.7271C2.29149 12.0415 2.20854 12.3584 2.13209 12.6771C2.12119 12.7227 2.12604 12.7813 2.06254 12.798C1.86894 12.5702 1.71839 12.313 1.56034 12.0608C1.52414 12.003 1.54684 11.9558 1.56084 11.9041C1.81404 10.9696 2.16999 10.0659 2.62219 9.20976C2.66794 9.14136 2.66839 9.05226 2.62339 8.98336C2.50999 8.78451 2.40979 8.57801 2.30429 8.37461C2.27424 8.33261 2.25389 8.28451 2.24469 8.23371C2.23169 8.28706 2.29834 8.32126 2.27969 8.37446C1.78919 9.22771 1.38764 10.1291 1.08129 11.0644C0.993937 10.9304 0.958837 10.7927 0.911537 10.6618C0.681537 10.0253 0.684337 10.0252 0.962987 9.40676C1.22679 8.81536 1.52969 8.24216 1.86969 7.69101C1.91864 7.62461 1.92564 7.53621 1.88779 7.46296C1.79414 7.24956 1.71064 7.03166 1.61399 6.79321C1.19619 7.41536 0.823437 8.06666 0.498687 8.74211L0.457637 8.34366Z" fill="#EE1D55"/>
<path d="M2.76741 2.34949C3.29546 8.25254 7.34845 13.0669 12.8001 14.6891C12.7251 14.7773 12.6241 14.8206 12.5332 14.875C12.0058 15.1904 12.002 15.1971 11.4332 14.962C6.93615 13.1025 3.98146 9.83659 2.56911 5.16429C2.37876 4.50604 2.23896 3.83419 2.15081 3.15464C2.13771 3.11019 2.14536 3.06224 2.17156 3.02404C2.35806 2.78874 2.55696 2.56359 2.76741 2.34949Z" fill="#EE1D55"/>
<path d="M14.4596 2.71172C14.5903 2.88777 14.5905 2.88812 14.4176 3.02262C14.3272 3.09262 14.2359 3.16177 14.1449 3.23127C14.0606 3.23442 14.1149 3.28297 14.1179 3.31462C14.1641 3.50617 14.2153 3.69667 14.2547 3.88962C14.278 4.00407 14.3073 4.01537 14.3976 3.93757C14.5712 3.78787 14.7576 3.65322 14.932 3.50452C15.002 3.44477 15.0374 3.45797 15.0801 3.52847C15.1633 3.66592 15.2484 3.80227 15.3372 3.93612C15.3869 4.01112 15.3855 4.06112 15.3046 4.11647C15.1913 4.19382 15.0865 4.28407 14.9801 4.37117C14.9578 4.38942 14.9178 4.40527 14.9326 4.44497C14.9435 4.47407 14.9779 4.46997 15.0041 4.47712C15.2028 4.53077 15.4001 4.58982 15.6002 4.63772C15.678 4.65017 15.7424 4.70507 15.767 4.77997C15.8391 4.97357 15.917 5.16497 15.9913 5.35777C16.0025 5.38672 16.0294 5.42022 16.0088 5.44877C15.9802 5.48837 15.9417 5.45557 15.9088 5.44677C14.9843 5.20182 14.0599 4.95647 13.1356 4.71077C12.0125 4.41157 10.8895 4.11172 9.76666 3.81122C9.68711 3.78997 9.60751 3.76882 9.52786 3.74777C9.52321 3.71212 9.55101 3.69972 9.57466 3.68942C9.92706 3.52872 10.2925 3.39827 10.667 3.29942C10.7461 3.31247 10.8085 3.37537 10.8889 3.37322C10.8589 3.33962 10.7418 3.39122 10.7862 3.27382C10.9144 3.20232 11.0462 3.14477 11.1983 3.16117C11.2605 3.19922 11.2677 3.26672 11.2807 3.32797C11.2921 3.41222 11.3582 3.47862 11.4424 3.49027C11.6206 3.52647 11.7911 3.59497 11.9834 3.62662C11.9734 3.47387 11.9272 3.33662 11.8972 3.19662C11.8833 3.13162 11.846 3.06622 11.8868 2.99747C12.1135 2.90587 12.356 2.85977 12.6005 2.86187C12.6701 2.99822 12.6798 3.15117 12.7164 3.29652C12.7522 3.43877 12.7901 3.58097 12.8151 3.72577C12.8254 3.81522 12.8932 3.88727 12.9818 3.90302C13.1282 3.93982 13.2756 3.97302 13.4206 4.01527C13.5078 4.04057 13.5301 4.00832 13.5095 3.92682C13.4286 3.60642 13.3576 3.28367 13.2845 2.96147C13.268 2.88842 13.1925 2.86262 13.1811 2.79267C13.2021 2.76787 13.2329 2.75352 13.2653 2.75332C13.6228 2.72727 13.9811 2.71552 14.3389 2.69287C14.3797 2.69462 14.4202 2.70097 14.4596 2.71172Z" fill="#ABACAC"/>
<path d="M8.55369 4.20923C9.26054 4.39923 9.96744 4.58923 10.6743 4.77923C12.491 5.26553 14.3079 5.75083 16.1249 6.23508C16.2126 6.25838 16.2558 6.29138 16.2699 6.38583C16.296 6.55783 16.3286 6.72898 16.3566 6.90083C16.3748 7.01258 16.3604 7.02993 16.2523 6.99993C15.8467 6.88728 15.4389 6.78243 15.0323 6.67383C12.6143 6.02798 10.1963 5.38193 7.77839 4.73568C7.74744 4.72743 7.71614 4.72068 7.68499 4.71323C7.67614 4.67098 7.71134 4.65853 7.73594 4.64158C7.96974 4.48038 8.22179 4.35023 8.46864 4.21158C8.49384 4.19723 8.52459 4.17423 8.55369 4.20923Z" fill="#ABACAC"/>
<path d="M8.55404 4.20929C8.25454 4.35969 7.96439 4.52804 7.68519 4.71339L6.99519 5.17134C6.95859 5.17699 6.94549 5.15539 6.94629 5.12439C6.95304 4.86244 6.92849 4.59994 6.95934 4.33839C8.59909 3.22263 10.4677 2.48803 12.4283 2.18838C12.8588 2.12123 13.2925 2.08208 13.727 2.05188C13.7865 2.04888 13.844 2.07328 13.8832 2.11808C14.086 2.30523 14.2735 2.50728 14.4592 2.71123C14.3162 2.76623 14.1653 2.74223 14.0185 2.75093C13.7428 2.76733 13.4664 2.77273 13.192 2.80838C13.1296 2.88203 13.0386 2.86233 12.9607 2.87078C12.8401 2.88383 12.7186 2.93518 12.5957 2.88168C12.3587 2.91113 12.1237 2.95498 11.892 3.01288C11.6729 3.10768 11.439 3.16348 11.2007 3.17788C11.0591 3.20148 10.9203 3.23938 10.7864 3.29108C10.7597 3.32218 10.7171 3.33448 10.6779 3.32248C10.2853 3.43813 9.90084 3.58014 9.52729 3.74749C9.19249 3.87844 8.86724 4.03279 8.55404 4.20929Z" fill="#EE1D55"/>
<path d="M7.01367 2.64878C7.79212 2.18303 8.61502 1.79593 9.47012 1.49313C10.276 1.20318 11.1057 0.984385 11.9498 0.839285C11.994 0.827485 12.041 0.831485 12.0826 0.850635C12.3987 1.01249 12.703 1.19648 12.9932 1.40123C12.7227 1.44083 12.4723 1.47483 12.2228 1.51443C10.4078 1.80123 8.66792 2.44633 7.10467 3.41213C7.06582 3.43598 7.02537 3.45713 6.98562 3.47948C6.92562 3.47413 6.94772 3.42653 6.94742 3.39638C6.94537 3.18578 6.94862 2.97508 6.94487 2.76453C6.93622 2.71428 6.96537 2.66518 7.01367 2.64878Z" fill="#EE1D55"/>
<path d="M6.98678 1.0524C7.74268 0.648601 8.53278 0.312301 9.34788 0.0474507C9.48753 0.00155075 9.62748 0.0618507 9.76538 0.0836007C10.1342 0.141001 10.4976 0.228951 10.8518 0.346551C10.3901 0.463351 9.95393 0.585301 9.52458 0.730451C8.67323 1.01775 7.84858 1.3787 7.05993 1.8092C7.02798 1.82665 6.99403 1.8403 6.96103 1.85575C6.92768 1.60575 6.95263 1.35475 6.94813 1.10425C6.94953 1.0808 6.96473 1.06045 6.98678 1.0524Z" fill="#EE1D55"/>
<path d="M7.86962 14.6989C8.33962 14.9948 8.81837 15.2753 9.30157 15.5484C9.29102 15.6598 9.28042 15.7712 9.26982 15.8825C9.24227 15.9197 9.23822 15.9723 9.16722 15.973C8.99382 15.9748 8.82052 15.988 8.64722 15.9987C8.56592 16.0037 8.52062 15.9992 8.54607 15.8883C8.58682 15.7104 8.60202 15.5267 8.63162 15.346C8.64392 15.271 8.62487 15.241 8.54597 15.261C8.36002 15.3085 8.17382 15.3548 7.98732 15.3998C7.93142 15.4063 7.88992 15.4548 7.89232 15.511C7.88287 15.634 7.85477 15.7554 7.84092 15.8781C7.83307 15.9473 7.80267 15.9781 7.73457 15.9707C7.55327 15.9507 7.37187 15.9314 7.19082 15.9095C7.14977 15.9045 7.12292 15.8812 7.13832 15.833C7.14007 15.8288 7.14137 15.8243 7.14217 15.8198C7.16247 15.6042 7.16247 15.6042 6.96442 15.6398C6.92392 15.4598 6.95607 15.2772 6.94652 15.0961C6.94387 15.0461 6.94602 14.9954 6.94622 14.9452C6.95082 14.9124 6.97612 14.8864 7.00872 14.8809C7.26897 14.8012 7.53417 14.7386 7.80262 14.6936C7.82507 14.6902 7.84802 14.692 7.86962 14.6989Z" fill="#ABACAC"/>
<path d="M6.93555 1.04189C6.93605 0.734443 6.9366 0.426944 6.9372 0.119495C7.37425 0.0283447 7.8205 -0.0115552 8.2668 0.00069475C8.0017 0.176344 7.7366 0.351994 7.47145 0.527644C7.35315 0.605894 7.23855 0.691043 7.11465 0.758943C6.9986 0.822543 6.93225 0.903043 6.9515 1.03994C6.9482 1.05759 6.9428 1.05739 6.93555 1.04189Z" fill="#ABABAC"/>
<path d="M1.19694 5.49707C1.34379 5.79207 1.34029 6.06497 1.08859 6.30917C1.03204 6.37408 0.98144 6.44393 0.93734 6.51788L0.556641 6.75053C0.598391 6.43388 0.66519 6.12102 0.75634 5.81492C0.77404 5.75492 0.83134 5.73652 0.87519 5.70637C0.98059 5.63392 1.08949 5.56652 1.19694 5.49707Z" fill="#ABACAC"/>
<path d="M7.01325 2.64846C6.99355 2.68216 6.95745 2.70346 6.95825 2.75236C6.96145 2.97911 6.95975 3.20596 6.96165 3.43276C6.96165 3.44831 6.97705 3.46371 6.9853 3.47916L6.93555 3.54381C6.93555 3.24331 6.93565 2.94276 6.9359 2.64221C6.96015 2.66281 6.98695 2.65251 7.01325 2.64846Z" fill="#EF4464"/>
<path d="M6.96005 4.33878C6.96005 4.57073 6.95885 4.80268 6.96005 5.03463C6.9603 5.08233 6.94335 5.13683 6.99585 5.17173L6.9524 5.23108L6.944 5.22948L6.93555 5.23093C6.936 4.92923 6.9364 4.62758 6.9368 4.32593C6.9459 4.32708 6.95425 4.33168 6.96005 4.33878Z" fill="#EF4263"/>
<path d="M6.93555 1.04201C6.94085 1.04416 6.94685 1.04346 6.95155 1.04016L6.98775 1.05231C6.9332 1.16566 6.9659 1.28621 6.9616 1.40326C6.95605 1.55386 6.96135 1.70481 6.96195 1.85561L6.93735 1.88826C6.93675 1.60631 6.93615 1.32426 6.93555 1.04201Z" fill="#EF4263"/>
<path d="M14.1184 3.31398C14.0715 3.27338 14.1005 3.21512 14.0801 3.16537C14.1343 3.15987 14.1101 3.22407 14.1455 3.23037L14.1184 3.31398Z" fill="#B1B2B2"/>
<path d="M3.43648 10.3613C3.60953 10.5901 3.77173 10.8283 3.95928 11.0444C4.09343 11.199 4.12583 11.3613 4.12428 11.5578C4.11678 12.5543 4.12118 13.5509 4.11983 14.5475C4.11983 14.5996 4.14208 14.6592 4.08928 14.702C3.88013 14.5738 3.67963 14.4321 3.48903 14.2778C3.44553 14.2445 3.42303 14.1906 3.43003 14.1363C3.43033 13.963 3.42723 13.7897 3.42543 13.6163C3.39963 13.5784 3.38793 13.5326 3.39238 13.4869C3.39013 13.2689 3.39083 13.0509 3.39178 12.8329C3.39363 12.7829 3.40513 12.7336 3.42563 12.6879C3.42538 12.3906 3.42508 12.0933 3.42483 11.7959C3.39743 11.7528 3.38578 11.7016 3.39178 11.6509C3.39178 11.3516 3.38678 11.0523 3.39403 10.753C3.40443 10.6221 3.35533 10.4848 3.43648 10.3613Z" fill="#ED1A47"/>
<path d="M3.42485 10.7496C3.42485 11.0985 3.42485 11.4474 3.42485 11.7963C3.02355 12.1144 2.62355 12.4341 2.2189 12.7479C2.1799 12.7779 2.1434 12.8779 2.0625 12.7973C2.15845 12.437 2.22895 12.0698 2.3542 11.7173C2.4649 11.61 2.57085 11.4963 2.7188 11.4381C2.77655 11.4242 2.83615 11.4197 2.8953 11.4249C2.82885 11.4192 2.7619 11.4243 2.69705 11.4399C2.6118 11.4504 2.52515 11.4724 2.451 11.4052C2.52605 11.1653 2.614 10.9295 2.71455 10.6991C2.95195 10.6588 3.19555 10.6761 3.42485 10.7496Z" fill="#ABACAC"/>
<path d="M3.42584 12.6891C3.42584 12.9985 3.42584 13.3079 3.42584 13.6173C3.26989 13.6308 3.12259 13.6839 2.97149 13.7193C2.91989 13.7404 2.86064 13.7271 2.82304 13.6859C2.67749 13.5268 2.53054 13.369 2.38214 13.2126C2.33024 13.1576 2.35354 13.1376 2.41489 13.1254C2.48649 13.111 2.55634 13.0854 2.62844 13.0763C2.92979 13.0391 3.21024 12.9029 3.42584 12.6891Z" fill="#ABACAC"/>
<path d="M6.96354 14.9221C6.96384 15.1615 6.96414 15.4009 6.96449 15.6403C6.93779 15.7081 6.98399 15.7867 6.93359 15.851C6.93524 15.2472 6.93689 14.6436 6.93859 14.04C6.94319 14.0253 6.95029 14.0231 6.96029 14.0357L7.12459 14.1671C7.01529 14.2363 6.99769 14.3385 6.99719 14.4611C6.99624 14.6146 7.03514 14.7732 6.96354 14.9221Z" fill="#C1A0A4"/>
<path d="M2.27919 8.37454C2.26314 8.32834 2.22284 8.29109 2.22919 8.21594C2.27059 8.25944 2.29689 8.31509 2.30419 8.37469L2.29179 8.37344L2.27919 8.37454Z" fill="#EF3C60"/>
<path d="M7.29147 9.53769C7.16707 9.41349 7.05322 9.27914 6.95117 9.13604C6.95267 9.10844 6.95542 9.08104 6.95567 9.05339C6.95797 8.80814 6.95797 8.80484 7.20867 8.81654C7.97227 8.85219 8.73597 8.88699 9.49922 8.92914C10.0477 8.95944 10.596 8.99049 11.1449 9.01354C11.3322 9.02139 11.5199 9.03354 11.7073 9.03804C11.8048 9.04044 11.8648 9.07509 11.8823 9.18459C11.9073 9.33824 11.9458 9.49004 11.9858 9.64074C12.0081 9.7248 11.9931 9.76125 11.8995 9.7562C11.3785 9.72815 10.8575 9.70145 10.3363 9.6762C10.126 9.66575 9.91557 9.65964 9.70517 9.64789C9.02862 9.61009 8.35122 9.58789 7.67442 9.55414C7.54697 9.54789 7.42007 9.52489 7.29147 9.53769Z" fill="white"/>
<path d="M8.8401 11.0263C8.5399 10.7999 8.2583 10.5498 7.99805 10.2784C8.7069 10.3008 9.41505 10.3373 10.1231 10.3824C10.3423 10.3964 10.5619 10.3956 10.7816 10.4109C11.2152 10.4409 11.65 10.4548 12.0845 10.4701C12.1411 10.4626 12.1931 10.5024 12.2006 10.559C12.201 10.5624 12.2013 10.5659 12.2014 10.5693C12.2369 10.7399 12.2802 10.9088 12.3223 11.078C12.3435 11.1633 12.3151 11.1952 12.2266 11.1898C11.7792 11.1625 11.3316 11.1398 10.8841 11.1126C10.6922 11.1009 10.5001 11.1019 10.3079 11.0893C9.81915 11.0573 9.32935 11.0459 8.8401 11.0263Z" fill="white"/>
<path d="M8.47384 6.87566C8.20119 7.06102 7.95484 7.28067 7.69539 7.48297C7.45478 7.67067 7.21723 7.86227 6.95703 8.06907C6.95703 7.76907 6.95728 7.49532 6.95703 7.22142C6.95703 7.16782 6.99283 7.13997 7.02913 7.11142C7.35963 6.84976 7.69109 6.58926 8.01939 6.32481C8.05364 6.28736 8.10799 6.27596 8.15439 6.29646C8.17199 6.30146 8.18994 6.30516 8.20809 6.30751C8.57559 6.40336 8.57544 6.40341 8.50624 6.77986C8.50319 6.80266 8.50129 6.82556 8.50064 6.84856C8.49589 6.86091 8.48614 6.87076 8.47384 6.87566Z" fill="white"/>
<path d="M9.49885 8.23187C9.3619 8.22337 9.22505 8.21187 9.088 8.20762C9.02095 8.20552 9.0058 8.18827 9.01705 8.11762C9.0827 7.70577 9.13635 7.29197 9.20465 6.88058C9.25375 6.58488 9.26255 6.58108 9.55085 6.66743C9.67255 6.70388 9.83835 6.68968 9.90525 6.78743C9.96785 6.87893 9.8885 7.02363 9.8732 7.14468C9.8332 7.46287 9.77185 7.77857 9.73605 8.09717C9.7162 8.27407 9.6007 8.22852 9.49885 8.23187Z" fill="white"/>
<path d="M11.0909 12.4856C10.7708 12.3396 10.464 12.1662 10.1738 11.9673C10.303 11.9373 10.4346 11.9151 10.5609 11.8759C10.7725 11.8102 10.984 11.8259 11.1997 11.8433C11.478 11.8658 11.7579 11.8689 12.0369 11.882C12.1549 11.896 12.2737 11.9027 12.3926 11.902C12.513 11.8926 12.5276 11.9655 12.5442 12.0479C12.5662 12.1582 12.4671 12.1366 12.4183 12.149C11.9972 12.2563 11.5743 12.3568 11.1522 12.46C11.1311 12.4669 11.1106 12.4755 11.0909 12.4856Z" fill="white"/>
<path d="M11.2832 7.21933C11.2295 7.55908 11.1743 7.89858 11.1232 8.23872C11.1127 8.30872 11.074 8.32247 11.0182 8.31012C10.8687 8.28537 10.7168 8.27842 10.5657 8.28952C10.4489 8.29167 10.4092 8.25402 10.4284 8.13862C10.4721 7.87628 10.5109 7.61308 10.5512 7.35013C10.5664 7.25038 10.5821 7.15068 10.594 7.05053C10.6023 6.98053 10.629 6.95358 10.7031 6.97488C10.8703 7.02273 11.0392 7.06428 11.2074 7.10833C11.2557 7.11328 11.2909 7.15643 11.286 7.20478C11.2855 7.20968 11.2845 7.21458 11.2832 7.21933Z" fill="white"/>
<path d="M12.8009 13.2032C12.5731 13.1375 12.3504 13.0551 12.1348 12.9566C12.2953 12.8912 12.4673 12.8686 12.6333 12.8235C12.673 12.8068 12.7186 12.8255 12.7352 12.8652C12.7391 12.8745 12.7412 12.8845 12.7413 12.8945C12.7595 12.9977 12.7809 13.1003 12.8009 13.2032Z" fill="#FDFCFC"/>
<path d="M8.32213 7.88721C8.34793 8.17065 8.33213 8.18359 8.01562 8.14005C8.10938 8.04605 8.21203 7.96135 8.32213 7.88721Z" fill="#F6F6F5"/>
<path d="M6.94336 6.25479C6.94386 6.16479 6.94436 6.0747 6.94491 5.9845C7.03336 5.9908 7.15756 5.9851 7.18411 6.0607C7.20771 6.12789 7.07576 6.16014 7.02411 6.22004C7.00291 6.24399 6.97976 6.26609 6.94336 6.25479Z" fill="#FBF1F0"/>
<path d="M8.47216 6.87515L8.49885 6.8479C8.4968 6.99715 8.47371 7.1454 8.43021 7.2882C8.41287 7.1475 8.45056 7.012 8.47216 6.87515Z" fill="#B0B1B1"/>
<path d="M8.64727 8.17076C8.58132 8.21967 8.51157 8.19866 8.41797 8.20777C8.50307 8.1166 8.57852 8.16511 8.64727 8.17076Z" fill="#B0B1B1"/>
<path d="M11.7063 8.49101C11.6906 8.34207 11.5903 8.32407 11.4688 8.33892C11.6912 8.29467 11.7224 8.31522 11.7063 8.49101Z" fill="#B2B3B3"/>
<path d="M11.5495 7.76021C11.4987 7.66621 11.4736 7.56041 11.4768 7.45361C11.5246 7.54876 11.5495 7.65376 11.5495 7.76021Z" fill="#B1B2B2"/>
<path d="M7.43553 8.11868C7.37593 8.15597 7.30133 8.15972 7.23828 8.12868C7.31138 8.07158 7.37443 8.10298 7.43553 8.11868Z" fill="#B0B1B1"/>
<path d="M13.0293 7.60794C13.1202 7.59994 13.2115 7.61974 13.2909 7.66468C13.2101 7.67483 13.1367 7.65178 13.0293 7.60794Z" fill="#B1B2B2"/>
<path d="M12.0856 7.34442C11.9852 7.34537 11.886 7.32172 11.7969 7.27547C11.8979 7.26772 11.9989 7.29182 12.0856 7.34442Z" fill="#B1B2B2"/>
<path d="M15.7394 10.2214L15.8024 10.4656C15.7314 10.3987 15.7372 10.3104 15.7394 10.2214Z" fill="#B1B2B2"/>
<path d="M10.1751 11.7931H9.99259L9.99219 11.7793H10.1747L10.1751 11.7931Z" fill="#B5B6B6"/>
<path d="M10.4548 11.8185H10.293L10.2932 11.8057H10.4551L10.4548 11.8185Z" fill="#B3B4B4"/>
<path d="M9.99219 8.2469C10.0492 8.2287 10.1105 8.2284 10.1677 8.2461C10.1107 8.26474 10.0493 8.26499 9.99219 8.2469Z" fill="#B4B4B5"/>
<path d="M8.93465 8.20098H8.77965L8.7793 8.18713H8.9369L8.93465 8.20098Z" fill="#B5B6B6"/>
<path d="M7.72241 8.144H7.56641C7.61511 8.11785 7.67371 8.11785 7.72241 8.144Z" fill="#B5B6B6"/>
<path d="M7.11897 8.1055C7.07627 8.1261 7.02712 8.1288 6.98242 8.113C7.03107 8.07825 7.07682 8.1055 7.11897 8.1055Z" fill="#B5B6B7"/>
<path d="M6.36328 8.36902C6.43743 8.39187 6.44498 8.46237 6.48223 8.51167C6.40838 8.48857 6.40068 8.41817 6.36328 8.36902Z" fill="#EE365D"/>
<path d="M5.16504 6.15295L5.23054 6.29051C5.17649 6.26841 5.1481 6.20886 5.16504 6.15295Z" fill="#EE375E"/>
<path d="M5.41016 6.72933C5.37391 6.69508 5.35342 6.64738 5.35352 6.59753C5.39651 6.62663 5.41861 6.67813 5.41016 6.72933Z" fill="#EE365E"/>
<path d="M6.81094 8.95363C6.76144 8.94143 6.72284 8.90263 6.71094 8.85303C6.75819 8.86908 6.79519 8.90633 6.81094 8.95363Z" fill="#EE355D"/>
<path d="M6.61994 8.70261C6.57679 8.70306 6.55994 8.67915 6.55273 8.6405C6.60009 8.6411 6.60569 8.67545 6.61994 8.70261Z" fill="#EF385E"/>
<path d="M5.00748 5.82173C4.97542 5.76113 4.94092 5.73353 4.96107 5.68518C5.00458 5.71513 5.00338 5.75883 5.00748 5.82173Z" fill="#EF395E"/>
<path d="M5.00195 5.78003C5.03411 5.84108 5.06896 5.86848 5.04866 5.91684C5.0046 5.88709 5.00645 5.84328 5.00195 5.78003Z" fill="#EE375D"/>
<path d="M6.96428 14.9224C6.96228 14.7128 6.96318 14.5031 6.95713 14.2936C6.95343 14.1645 7.04998 14.1836 7.12513 14.1674L7.87072 14.6993L6.96428 14.9224Z" fill="#FFFDFD"/>
<path d="M3.24081 10.0284C3.16311 10.0271 3.08546 10.0256 3.00781 10.0242C3.03581 9.96267 3.06376 9.90132 3.09781 9.82642C3.15941 9.88272 3.20821 9.95162 3.24081 10.0284Z" fill="#B4A9AA"/>
<path d="M5.51539 12.7684L5.19439 12.4453L5.18359 12.4558L5.49089 12.7925L5.51539 12.7684Z" fill="#EE355C"/>
<path d="M1.50688 6.52687L1.42188 6.27807L1.44908 6.26807L1.53708 6.51307L1.50688 6.52687Z" fill="#EE375E"/>
<path d="M6.29297 13.4985C6.34572 13.5035 6.36717 13.5411 6.41352 13.5935C6.35962 13.5848 6.31407 13.5489 6.29297 13.4985Z" fill="#EE365D"/>
<path d="M6.57432 13.7325C6.63672 13.7355 6.66472 13.7805 6.71298 13.8454C6.65347 13.8279 6.60347 13.7873 6.57422 13.7327L6.57432 13.7325Z" fill="#EE345C"/>
<path d="M2.03089 7.79128C1.96589 7.76383 1.97719 7.70018 1.96289 7.64868C2.01169 7.68368 2.01789 7.73913 2.03099 7.79118L2.03089 7.79128Z" fill="#EE365E"/>
<path d="M6.5739 13.7321C6.52866 13.7301 6.48931 13.7006 6.47461 13.6577C6.51941 13.6609 6.55825 13.6899 6.574 13.732L6.5739 13.7321Z" fill="#EE375E"/>
<path d="M6.95949 14.0352C6.95279 14.0387 6.94529 14.0401 6.93779 14.0395C6.90854 14.0215 6.87244 14.0095 6.86914 13.9634C6.92079 13.9635 6.93764 14.0025 6.95949 14.0352Z" fill="#EF395E"/>
<path d="M2.03093 7.79053C2.06853 7.81668 2.08643 7.86303 2.07618 7.90768C2.04113 7.87963 2.02383 7.83493 2.03083 7.79058L2.03093 7.79053Z" fill="#EF385E"/>
<path d="M12.5957 2.8814L13.192 2.8081C13.2459 2.7992 13.2968 2.8356 13.3057 2.8895C13.3061 2.89155 13.3063 2.8936 13.3065 2.89565C13.3896 3.2611 13.4779 3.62535 13.5626 3.99065C13.5776 4.05535 13.5703 4.09915 13.4804 4.0728C13.2924 4.0178 13.1019 3.97115 12.9128 3.9195C12.8647 3.90635 12.8128 3.8936 12.8009 3.8326C12.7396 3.51385 12.6397 3.2037 12.5957 2.8814Z" fill="white"/>
<path d="M11.2012 3.17794C11.426 3.10149 11.6574 3.04624 11.8925 3.01294C11.9367 3.20384 11.9798 3.39504 12.0257 3.58554C12.0433 3.65889 12.0325 3.68794 11.9483 3.66324C11.7694 3.61084 11.5899 3.55919 11.408 3.51924C11.3143 3.49864 11.264 3.45924 11.252 3.36154C11.2398 3.29914 11.2228 3.23774 11.2012 3.17794Z" fill="#FFFEFE"/>
<path d="M10.6777 3.32271C10.7139 3.31271 10.7432 3.2777 10.7862 3.29131C10.7975 3.37506 10.8975 3.32021 10.9274 3.39051C10.8391 3.39511 10.7516 3.37136 10.6777 3.32271Z" fill="#B1B2B1"/>
<path d="M13.8984 4.19585C13.9759 4.17649 14.0578 4.19785 14.116 4.2525L13.8984 4.19585Z" fill="#B1B1B1"/>
<path d="M14.0432 2.96851C14.0811 2.99781 14.0974 3.04715 14.0844 3.09325C14.0334 3.0701 14.0355 3.0291 14.0432 2.96851Z" fill="#B1B2B2"/>
<path d="M14.0078 2.8468C14.0368 2.8643 14.0502 2.8856 14.0384 2.9118C14.0377 2.9132 14.0195 2.9105 14.0187 2.9073C14.0134 2.8874 14.0109 2.867 14.0078 2.8468Z" fill="#B1B2B2"/>
<path d="M7.64615 15.4833C7.58015 15.5489 7.48615 15.5195 7.4082 15.5527C7.4768 15.497 7.56015 15.4905 7.64615 15.4833Z" fill="#B1B2B2"/>
<path d="M2.71484 11.4644C2.71559 11.4469 2.71639 11.4294 2.71714 11.4119H2.90519C2.84434 11.4439 2.77344 11.429 2.71484 11.4644Z" fill="#B6B6B7"/>
<path d="M3.24253 11.4501C3.17038 11.47 3.09443 11.4718 3.02148 11.4551C3.09363 11.4353 3.16958 11.4335 3.24253 11.4501Z" fill="#B2B4B3"/>
</g>
<defs>
<clipPath id="clip0_2_3549">
<rect width="16" height="16" fill="white" transform="translate(0.433594 0.000244141)"/>
</clipPath>
</defs>
</svg>
