<svg width="17" height="16" viewBox="0 0 17 16" fill="none" xmlns="http://www.w3.org/2000/svg">
<g clip-path="url(#clip0_2_3552)">
<path d="M12.1865 5.81833H11.153V4.78497C11.153 4.60887 11.223 4.43998 11.3475 4.31545C11.472 4.19093 11.6409 4.12097 11.817 4.12097H12.1865C12.3626 4.12097 12.5315 4.19093 12.6561 4.31545C12.7806 4.43998 12.8505 4.60887 12.8505 4.78497V5.15457C12.8505 5.33063 12.7805 5.49946 12.656 5.62394C12.5315 5.74841 12.3626 5.81833 12.1865 5.81833ZM6.30502 5.81833H5.27142C5.09532 5.81833 4.92643 5.74837 4.8019 5.62385C4.67738 5.49933 4.60742 5.33044 4.60742 5.15433V4.78497C4.60736 4.69776 4.62449 4.61138 4.65784 4.5308C4.69118 4.45021 4.74009 4.37698 4.80176 4.31531C4.86343 4.25364 4.93666 4.20473 5.01725 4.17139C5.09783 4.13804 5.18421 4.12091 5.27142 4.12097H5.64102C5.81713 4.12097 5.98602 4.19093 6.11054 4.31545C6.23507 4.43998 6.30502 4.60887 6.30502 4.78497V5.81833ZM5.64102 12.1214H5.2715C5.1843 12.1214 5.09796 12.1042 5.0174 12.0708C4.93684 12.0375 4.86364 11.9885 4.80198 11.9269C4.74033 11.8652 4.69142 11.792 4.65805 11.7115C4.62468 11.6309 4.6075 11.5446 4.6075 11.4574V11.0882C4.6075 11.001 4.62468 10.9146 4.65805 10.8341C4.69142 10.7535 4.74033 10.6803 4.80198 10.6187C4.86364 10.557 4.93684 10.5081 5.0174 10.4747C5.09796 10.4413 5.1843 10.4242 5.2715 10.4242H6.30502V11.4574C6.30502 11.6335 6.23507 11.8024 6.11054 11.9269C5.98602 12.0514 5.81713 12.1214 5.64102 12.1214ZM12.1865 12.1214H11.817C11.6409 12.1214 11.472 12.0514 11.3475 11.9269C11.223 11.8024 11.153 11.6335 11.153 11.4574V10.4242H12.1863C12.3624 10.4242 12.5313 10.4941 12.6558 10.6187C12.7803 10.7432 12.8503 10.9121 12.8503 11.0882V11.4578C12.8503 11.6339 12.7803 11.8028 12.6558 11.9273C12.5313 12.0518 12.3624 12.1218 12.1863 12.1218" fill="#005FFF"/>
<path d="M9.03434 4.12139H8.66474C8.48864 4.12139 8.31975 4.05144 8.19522 3.92691C8.0707 3.80239 8.00074 3.6335 8.00074 3.45739V3.08819C8.00074 2.91209 8.0707 2.7432 8.19522 2.61868C8.31975 2.49415 8.48864 2.42419 8.66474 2.42419H9.03426C9.21037 2.42419 9.37926 2.49415 9.50378 2.61868C9.62831 2.7432 9.69826 2.91209 9.69826 3.08819V3.45779C9.69826 3.6339 9.62831 3.80279 9.50378 3.92731C9.37926 4.05184 9.21037 4.12179 9.03426 4.12179L9.03434 4.12139ZM9.03434 13.8184H8.66474C8.48864 13.8184 8.31975 13.7484 8.19522 13.6239C8.0707 13.4993 8.00074 13.3305 8.00074 13.1544V12.7848C8.00074 12.6087 8.0707 12.4398 8.19522 12.3152C8.31975 12.1907 8.48864 12.1208 8.66474 12.1208H9.03426C9.21037 12.1208 9.37926 12.1907 9.50378 12.3152C9.62831 12.4398 9.69826 12.6087 9.69826 12.7848V13.1544C9.69826 13.3305 9.62831 13.4993 9.50378 13.6239C9.37926 13.7484 9.21037 13.8184 9.03426 13.8184H9.03434ZM13.8828 8.96987H13.5133C13.3372 8.96987 13.1683 8.89992 13.0438 8.77539C12.9193 8.65087 12.8493 8.48198 12.8493 8.30587V7.93619C12.8493 7.76009 12.9193 7.5912 13.0438 7.46668C13.1683 7.34215 13.3372 7.27219 13.5133 7.27219H13.8828C14.0589 7.27219 14.2278 7.34215 14.3523 7.46668C14.4769 7.5912 14.5468 7.76009 14.5468 7.93619V8.30579C14.5468 8.4819 14.4769 8.65079 14.3523 8.77531C14.2278 8.89984 14.0589 8.96979 13.8828 8.96979V8.96987ZM4.18586 8.96987H3.81634C3.64024 8.96987 3.47135 8.89992 3.34682 8.77539C3.2223 8.65087 3.15234 8.48198 3.15234 8.30587V7.93619C3.15234 7.76009 3.2223 7.5912 3.34682 7.46668C3.47135 7.34215 3.64024 7.27219 3.81634 7.27219H4.18586C4.27306 7.27219 4.35941 7.28937 4.43997 7.32274C4.52053 7.35611 4.59372 7.40502 4.65538 7.46668C4.71704 7.52833 4.76595 7.60153 4.79932 7.68209C4.83269 7.76265 4.84986 7.849 4.84986 7.93619V8.30579C4.84986 8.39299 4.83269 8.47934 4.79932 8.5599C4.76595 8.64046 4.71704 8.71366 4.65538 8.77531C4.59372 8.83697 4.52053 8.88588 4.43997 8.91925C4.35941 8.95262 4.27306 8.96979 4.18586 8.96979" fill="#00CCEE"/>
<path d="M10.705 14.4888C10.6683 14.4002 10.6587 14.3028 10.6774 14.2087C10.6961 14.1147 10.7422 14.0283 10.81 13.9605C10.8778 13.8927 10.9641 13.8466 11.0582 13.8278C11.1522 13.8091 11.2496 13.8187 11.3382 13.8554C11.4268 13.8921 11.5025 13.9542 11.5558 14.0339C11.6091 14.1136 11.6375 14.2073 11.6375 14.3032C11.6375 14.399 11.6091 14.4928 11.5559 14.5725C11.5026 14.6522 11.4269 14.7143 11.3383 14.751C11.2196 14.8002 11.0861 14.8002 10.9674 14.751C10.8486 14.7018 10.7542 14.6075 10.705 14.4888ZM5.61451 2.12511C5.57781 2.03654 5.5682 1.93908 5.58689 1.84506C5.60558 1.75103 5.65173 1.66465 5.71951 1.59685C5.78729 1.52905 5.87365 1.48288 5.96768 1.46416C6.0617 1.44545 6.15916 1.45503 6.24774 1.4917C6.33631 1.52838 6.41202 1.5905 6.4653 1.6702C6.51857 1.7499 6.54701 1.84361 6.54703 1.93948C6.54704 2.03535 6.51863 2.12907 6.46538 2.20879C6.41213 2.28851 6.33643 2.35065 6.24787 2.38735C6.1291 2.43652 5.99567 2.43652 5.8769 2.38734C5.75814 2.33817 5.66376 2.24385 5.61451 2.12511ZM14.9751 6.02423C14.8865 6.06093 14.789 6.07054 14.695 6.05185C14.601 6.03316 14.5146 5.98701 14.4468 5.91923C14.379 5.85145 14.3328 5.76509 14.3141 5.67106C14.2954 5.57704 14.305 5.47958 14.3417 5.391C14.3783 5.30243 14.4405 5.22671 14.5202 5.17344C14.5999 5.12017 14.6936 5.09173 14.7894 5.09171C14.8853 5.0917 14.979 5.12011 15.0587 5.17336C15.1385 5.22661 15.2006 5.3023 15.2373 5.39087C15.2865 5.50964 15.2865 5.64307 15.2373 5.76184C15.1881 5.8806 15.0938 5.97498 14.9751 6.02423ZM2.85387 11.1147C2.7653 11.1514 2.66784 11.161 2.57381 11.1423C2.47979 11.1236 2.39341 11.0775 2.32561 11.0097C2.25781 10.9419 2.21164 10.8556 2.19292 10.7615C2.1742 10.6675 2.18379 10.5701 2.22046 10.4815C2.25714 10.3929 2.31926 10.3172 2.39896 10.2639C2.47866 10.2106 2.57237 10.1822 2.66824 10.1822C2.76411 10.1822 2.85783 10.2106 2.93755 10.2638C3.01727 10.3171 3.07941 10.3928 3.11611 10.4813C3.16528 10.6001 3.16528 10.7335 3.1161 10.8523C3.06693 10.9711 2.97261 11.0655 2.85387 11.1147Z" fill="#005FFF"/>
<path d="M14.604 11.1148C14.5154 11.0781 14.4397 11.016 14.3865 10.9363C14.3332 10.8566 14.3048 10.7628 14.3048 10.667C14.3048 10.5711 14.3332 10.4774 14.3865 10.3977C14.4398 10.318 14.5155 10.2559 14.604 10.2192C14.6926 10.1825 14.7901 10.1729 14.8841 10.1916C14.9781 10.2103 15.0645 10.2565 15.1323 10.3243C15.2001 10.392 15.2462 10.4784 15.2649 10.5724C15.2836 10.6665 15.274 10.7639 15.2373 10.8525C15.213 10.9113 15.1773 10.9648 15.1323 11.0098C15.0873 11.0548 15.0338 11.0905 14.975 11.1149C14.9162 11.1392 14.8531 11.1518 14.7895 11.1517C14.7258 11.1517 14.6628 11.1392 14.604 11.1148ZM2.48278 6.02433C2.39421 5.98764 2.31852 5.9255 2.26526 5.84579C2.21201 5.76608 2.18359 5.67236 2.18359 5.57649C2.1836 5.48063 2.21203 5.38692 2.2653 5.30721C2.31856 5.2275 2.39427 5.16538 2.48284 5.12869C2.57141 5.09201 2.66886 5.08242 2.76289 5.10112C2.85691 5.11982 2.94328 5.16599 3.01107 5.23378C3.07885 5.30157 3.12502 5.38793 3.14372 5.48196C3.16242 5.57598 3.15282 5.67344 3.11614 5.76201C3.09179 5.82083 3.05609 5.87428 3.01107 5.9193C2.96606 5.96431 2.91262 6.00002 2.8538 6.02438C2.79499 6.04874 2.73195 6.06128 2.66829 6.06127C2.60463 6.06126 2.54159 6.04871 2.48278 6.02433ZM11.6009 2.12521C11.5642 2.21378 11.502 2.28947 11.4223 2.34273C11.3426 2.39598 11.2489 2.4244 11.153 2.4244C11.0572 2.42439 10.9634 2.39596 10.8837 2.34269C10.804 2.28943 10.7419 2.21372 10.7052 2.12515C10.6685 2.03658 10.6589 1.93913 10.6776 1.8451C10.6964 1.75108 10.7425 1.66471 10.8103 1.59692C10.8781 1.52914 10.9645 1.48297 11.0585 1.46427C11.1525 1.44557 11.25 1.45517 11.3385 1.49185C11.3974 1.5162 11.4508 1.5519 11.4958 1.59692C11.5408 1.64193 11.5766 1.69537 11.6009 1.75419C11.6253 1.813 11.6378 1.87604 11.6378 1.9397C11.6378 2.00336 11.6252 2.0664 11.6009 2.12521ZM6.51006 14.4889C6.47337 14.5775 6.41123 14.6532 6.33152 14.7064C6.25181 14.7597 6.15809 14.7881 6.06222 14.7881C5.96636 14.7881 5.87265 14.7596 5.79294 14.7064C5.71323 14.6531 5.65111 14.5774 5.61442 14.4888C5.57774 14.4003 5.56814 14.3028 5.58685 14.2088C5.60555 14.1148 5.65172 14.0284 5.71951 13.9606C5.7873 13.8928 5.87366 13.8467 5.96769 13.828C6.06171 13.8092 6.15917 13.8188 6.24774 13.8555C6.30656 13.8799 6.36001 13.9156 6.40503 13.9606C6.45004 14.0056 6.48575 14.059 6.51011 14.1179C6.53447 14.1767 6.54701 14.2397 6.547 14.3034C6.54699 14.367 6.53444 14.4301 6.51006 14.4889Z" fill="#002DAE"/>
<path d="M13.8902 13.7473C13.8563 13.7134 13.8332 13.6702 13.8239 13.6232C13.8145 13.5761 13.8193 13.5274 13.8377 13.4831C13.856 13.4388 13.8871 13.401 13.9269 13.3743C13.9668 13.3477 14.0137 13.3335 14.0616 13.3335C14.1095 13.3335 14.1564 13.3477 14.1963 13.3743C14.2361 13.401 14.2672 13.4388 14.2856 13.4831C14.3039 13.5274 14.3087 13.5761 14.2993 13.6232C14.29 13.6702 14.2669 13.7134 14.233 13.7473C14.2105 13.7698 14.1838 13.7877 14.1544 13.7999C14.125 13.812 14.0934 13.8183 14.0616 13.8183C14.0298 13.8183 13.9982 13.812 13.9688 13.7999C13.9394 13.7877 13.9127 13.7698 13.8902 13.7473ZM2.98116 2.83824C2.94726 2.80434 2.92417 2.76115 2.91482 2.71413C2.90547 2.66711 2.91027 2.61837 2.92861 2.57408C2.94696 2.52978 2.97803 2.49193 3.01789 2.46529C3.05775 2.43866 3.10462 2.42444 3.15256 2.42444C3.2005 2.42444 3.24737 2.43866 3.28723 2.46529C3.3271 2.49193 3.35816 2.52978 3.37651 2.57408C3.39486 2.61837 3.39966 2.66711 3.3903 2.71413C3.38095 2.76115 3.35786 2.80434 3.32396 2.83824C3.30146 2.86076 3.27474 2.87862 3.24533 2.89081C3.21592 2.903 3.1844 2.90927 3.15256 2.90927C3.12073 2.90927 3.0892 2.903 3.05979 2.89081C3.03039 2.87862 3.00367 2.86076 2.98116 2.83824ZM14.233 2.83824C14.1991 2.87214 14.1559 2.89523 14.1089 2.90459C14.0619 2.91394 14.0131 2.90914 13.9688 2.89079C13.9245 2.87245 13.8867 2.84138 13.86 2.80151C13.8334 2.76165 13.8192 2.71479 13.8192 2.66684C13.8192 2.6189 13.8334 2.57204 13.86 2.53217C13.8867 2.49231 13.9245 2.46124 13.9688 2.44289C14.0131 2.42455 14.0619 2.41975 14.1089 2.4291C14.1559 2.43846 14.1991 2.46154 14.233 2.49544C14.2555 2.51795 14.2734 2.54467 14.2856 2.57408C14.2978 2.60349 14.304 2.63501 14.304 2.66684C14.304 2.69868 14.2978 2.7302 14.2856 2.75961C14.2734 2.78902 14.2555 2.81574 14.233 2.83824ZM3.32396 13.7473C3.29006 13.7812 3.24687 13.8043 3.19985 13.8136C3.15283 13.823 3.10409 13.8182 3.0598 13.7998C3.0155 13.7815 2.97764 13.7504 2.95101 13.7106C2.92437 13.6707 2.91016 13.6238 2.91016 13.5759C2.91016 13.5279 2.92437 13.4811 2.95101 13.4412C2.97764 13.4014 3.0155 13.3703 3.0598 13.3519C3.10409 13.3336 3.15283 13.3288 3.19985 13.3381C3.24687 13.3475 3.29006 13.3706 3.32396 13.4045C3.34648 13.427 3.36434 13.4537 3.37653 13.4831C3.38872 13.5125 3.39499 13.544 3.39499 13.5759C3.39499 13.6077 3.38872 13.6392 3.37653 13.6687C3.36434 13.6981 3.34648 13.7248 3.32396 13.7473Z" fill="#0099C0"/>
<path d="M16.4865 8.24268C16.4386 8.24268 16.3917 8.22846 16.3519 8.20183C16.312 8.1752 16.2809 8.13735 16.2626 8.09306C16.2442 8.04877 16.2394 8.00004 16.2488 7.95302C16.2581 7.90601 16.2812 7.86282 16.3151 7.82892C16.349 7.79503 16.3922 7.77194 16.4392 7.76259C16.4862 7.75324 16.535 7.75804 16.5793 7.77638C16.6236 7.79473 16.6614 7.82579 16.688 7.86565C16.7147 7.90551 16.7289 7.95237 16.7289 8.00031C16.7289 8.06458 16.7033 8.12622 16.6579 8.17167C16.6124 8.21711 16.5508 8.24266 16.4865 8.24268Z" fill="#0029C0"/>
<path d="M0.970916 8.24268C0.922974 8.24268 0.876108 8.22846 0.836245 8.20183C0.796383 8.1752 0.765314 8.13735 0.746967 8.09306C0.728621 8.04877 0.72382 8.00004 0.733173 7.95302C0.742526 7.90601 0.765613 7.86282 0.799513 7.82892C0.833413 7.79503 0.876605 7.77194 0.923626 7.76259C0.970647 7.75324 1.01939 7.75804 1.06368 7.77638C1.10797 7.79473 1.14583 7.82579 1.17246 7.86565C1.1991 7.90551 1.21332 7.95237 1.21332 8.00031C1.21329 8.06458 1.18775 8.12622 1.14229 8.17167C1.09684 8.21711 1.0352 8.24266 0.970916 8.24268Z" fill="#0029C0"/>
<path d="M8.97107 0.242644C8.97107 0.290586 8.95686 0.337452 8.93022 0.377314C8.90359 0.417177 8.86574 0.448246 8.82145 0.466592C8.77716 0.484939 8.72843 0.48974 8.68142 0.480386C8.6344 0.471033 8.59121 0.447947 8.55732 0.414047C8.52342 0.380147 8.50034 0.336955 8.49099 0.289934C8.48163 0.242913 8.48643 0.194174 8.50478 0.149882C8.52312 0.105589 8.55419 0.0677312 8.59404 0.0410959C8.6339 0.0144607 8.68076 0.000244141 8.7287 0.000244141C8.79297 0.000265345 8.85461 0.0258107 8.90006 0.0712649C8.94551 0.116719 8.97105 0.178362 8.97107 0.242644Z" fill="#0029C0"/>
<path d="M8.97107 15.758C8.97107 15.8059 8.95686 15.8528 8.93022 15.8927C8.90359 15.9325 8.86574 15.9636 8.82145 15.9819C8.77716 16.0003 8.72843 16.0051 8.68142 15.9957C8.6344 15.9864 8.59121 15.9633 8.55732 15.9294C8.52342 15.8955 8.50034 15.8523 8.49099 15.8053C8.48163 15.7583 8.48643 15.7095 8.50478 15.6652C8.52312 15.621 8.55419 15.5831 8.59404 15.5565C8.6339 15.5298 8.68076 15.5156 8.7287 15.5156C8.79297 15.5156 8.85461 15.5412 8.90006 15.5866C8.94551 15.6321 8.97105 15.6937 8.97107 15.758Z" fill="#0029C0"/>
<path d="M10.3464 7.19229H10.7084C10.8262 7.19221 10.9393 7.14533 11.0226 7.06195C11.1059 6.97857 11.1527 6.86552 11.1527 6.74765V5.57629H9.98141C9.8635 5.57629 9.75042 5.62312 9.66703 5.70646C9.58363 5.78981 9.53675 5.90287 9.53669 6.02077V6.38429C9.53669 6.59859 9.45156 6.80411 9.30003 6.95564C9.1485 7.10717 8.94298 7.19229 8.72869 7.19229C8.51439 7.19229 8.30887 7.10717 8.15735 6.95564C8.00582 6.80411 7.92069 6.59859 7.92069 6.38429V6.00469C7.9206 5.89105 7.8754 5.78208 7.79501 5.70175C7.71461 5.62142 7.60562 5.57629 7.49197 5.57629H6.30469V10.4243H7.48309C7.59913 10.4243 7.71041 10.3781 7.79247 10.2961C7.87453 10.214 7.92064 10.1027 7.92069 9.98669V9.61629C7.92069 9.402 8.00582 9.19648 8.15735 9.04495C8.30887 8.89342 8.51439 8.80829 8.72869 8.80829V8.80989C8.94298 8.80989 9.1485 8.89502 9.30003 9.04655C9.45156 9.19808 9.53669 9.4036 9.53669 9.61789V9.98325C9.53669 10.1002 9.58316 10.2124 9.66589 10.2952C9.74861 10.3779 9.86082 10.4244 9.97781 10.4244H11.1527V9.24949C11.1527 9.19157 11.1413 9.1342 11.1191 9.08068C11.0969 9.02717 11.0644 8.97854 11.0235 8.93757C10.9825 8.89661 10.9339 8.86412 10.8804 8.84195C10.8269 8.81978 10.7695 8.80837 10.7116 8.80837H10.3447C10.1304 8.80837 9.92487 8.72324 9.77335 8.57172C9.62182 8.42019 9.53669 8.21467 9.53669 8.00037H9.53829C9.53829 7.78608 9.62342 7.58056 9.77495 7.42903C9.92647 7.2775 10.132 7.19237 10.3463 7.19237" fill="#003EC5"/>
</g>
<defs>
<clipPath id="clip0_2_3552">
<rect width="16" height="16" fill="white" transform="translate(0.728516 0.000244141)"/>
</clipPath>
</defs>
</svg>
