<svg width="17" height="16" viewBox="0 0 17 16" fill="none" xmlns="http://www.w3.org/2000/svg">
<g clip-path="url(#clip0_2_3553)">
<path d="M0.728527 7.99263C0.724943 10.1144 1.56436 12.1506 3.06212 13.6534C4.55987 15.1563 6.59328 16.0026 8.71501 16.0061C10.8367 16.0097 12.873 15.1703 14.3758 13.6726C15.8787 12.1748 16.7249 10.1414 16.7285 8.01966V7.95912C16.7283 7.34374 16.6557 6.73053 16.5123 6.13209C16.4538 5.91719 16.3142 5.73337 16.1229 5.61938C15.9316 5.50538 15.7035 5.4701 15.4867 5.52098C15.2698 5.57186 15.0812 5.70491 14.9606 5.89212C14.8399 6.07932 14.7967 6.30605 14.8399 6.52452C15.1633 7.85758 15.0425 9.25982 14.4956 10.5178C13.9488 11.7759 13.0059 12.8208 11.8105 13.4936C10.6151 14.1665 9.23264 14.4304 7.87346 14.2451C6.51428 14.0599 5.25282 13.4357 4.28105 12.4676C3.30927 11.4994 2.6804 10.2403 2.49012 8.8818C2.29984 7.52332 2.55857 6.13987 3.22695 4.94197C3.89532 3.74408 4.93674 2.79733 6.19273 2.24581C7.44871 1.69428 8.85049 1.56818 10.1847 1.88669C10.4059 1.9383 10.6385 1.90015 10.8316 1.7806C11.0247 1.66105 11.1626 1.46984 11.215 1.24885C11.2416 1.13993 11.2464 1.0268 11.2289 0.916037C11.2115 0.805275 11.1722 0.699085 11.1133 0.603635C11.0545 0.508184 10.9773 0.425374 10.8862 0.360015C10.795 0.294655 10.6919 0.248049 10.5826 0.222902C9.56173 -0.0224265 8.50254 -0.0641595 7.46555 0.100088C6.42856 0.264336 5.4341 0.631345 4.53903 1.18014C3.64396 1.72893 2.86582 2.44874 2.24909 3.29842C1.63236 4.14811 1.18913 5.11101 0.944743 6.13209C0.801712 6.74195 0.729165 7.36622 0.728527 7.99263Z" fill="url(#paint0_linear_2_3553)"/>
<path d="M12.7914 2.10515C12.7774 2.11921 12.7709 2.13326 12.7633 2.13975C12.5664 2.34882 12.4453 2.61798 12.4196 2.90407V3.04137C12.4196 3.07596 12.4131 3.10299 12.4131 3.13759C12.3837 3.43979 12.295 3.73323 12.1519 4.00106C12.0089 4.26889 11.8144 4.50583 11.5795 4.69828C11.3447 4.89074 11.0742 5.03492 10.7834 5.12255C10.4927 5.21018 10.1876 5.23954 9.8855 5.20894C9.78363 5.20004 9.68249 5.18415 9.5828 5.16137C9.52409 5.14917 9.46629 5.13292 9.40983 5.11272C9.16472 5.05088 8.91224 5.02323 8.65956 5.03056C7.92266 5.04497 7.21656 5.32879 6.67469 5.8284C6.64766 5.85542 6.61307 5.87705 6.58496 5.91056C6.28841 6.18454 6.05023 6.51557 5.88471 6.88383C5.71918 7.25208 5.62972 7.64996 5.62169 8.05362C5.61365 8.45728 5.68721 8.85841 5.83795 9.23296C5.98869 9.6075 6.2135 9.94776 6.49892 10.2333C6.78433 10.5189 7.12447 10.7439 7.49894 10.8948C7.87341 11.0457 8.2745 11.1195 8.67817 11.1117C9.08183 11.1038 9.47976 11.0146 9.84809 10.8492C10.2164 10.6839 10.5476 10.4459 10.8217 10.1495C10.9456 10.0243 11.0585 9.88869 11.159 9.74407C11.4008 9.39631 11.5663 9.00137 11.6447 8.58516C11.7232 8.16894 11.7127 7.74084 11.6142 7.32894C11.5971 7.27462 11.583 7.2194 11.572 7.16353C11.572 7.15597 11.5655 7.14948 11.5655 7.13542C11.4967 6.83939 11.487 6.53267 11.537 6.23289C11.5871 5.9331 11.6958 5.64615 11.857 5.3885C12.0183 5.13085 12.2288 4.90758 12.4765 4.7315C12.7242 4.55542 13.0043 4.43001 13.3006 4.36245C13.407 4.33636 13.5156 4.32044 13.625 4.31488L13.6725 4.30732C13.7206 4.30191 13.769 4.29975 13.8174 4.30083H13.8314C14.1303 4.27217 14.41 4.14074 14.6228 3.92894C14.6714 3.8738 14.7201 3.82083 14.7612 3.76353C14.8597 3.6256 14.9298 3.46949 14.9676 3.30425C15.0053 3.13901 15.0099 2.96792 14.981 2.8009C14.9522 2.63388 14.8904 2.47425 14.7994 2.33125C14.7085 2.18826 14.59 2.06474 14.4509 1.96786C14.2021 1.79241 13.8996 1.71003 13.5962 1.73513C13.2929 1.76023 13.008 1.89121 12.7914 2.10515Z" fill="url(#paint1_linear_2_3553)"/>
</g>
<defs>
<linearGradient id="paint0_linear_2_3553" x1="14.6864" y1="2.1202" x2="2.79447" y2="13.8499" gradientUnits="userSpaceOnUse">
<stop offset="0.09" stop-color="#00EDD3"/>
<stop offset="0.41" stop-color="#1B456E"/>
</linearGradient>
<linearGradient id="paint1_linear_2_3553" x1="14.6898" y1="1.96245" x2="6.3655" y2="10.3949" gradientUnits="userSpaceOnUse">
<stop offset="0.4" stop-color="#00EDD3"/>
<stop offset="0.89" stop-color="#1B456E"/>
</linearGradient>
<clipPath id="clip0_2_3553">
<rect width="16" height="16" fill="white" transform="translate(0.728516 0.000244141)"/>
</clipPath>
</defs>
</svg>
