<svg width="12" height="16" viewBox="0 0 12 16" fill="none" xmlns="http://www.w3.org/2000/svg">
<g clip-path="url(#clip0_2_3556)">
<path d="M5.50195 7.99915L11.4676 11.4163C11.5156 11.4451 11.5703 11.4606 11.6263 11.4613C11.6822 11.4619 11.7373 11.4477 11.7859 11.42C11.8345 11.3923 11.8748 11.3521 11.9028 11.3037C11.9307 11.2552 11.9453 11.2002 11.9449 11.1443V4.84926C11.9456 4.79323 11.9312 4.73804 11.9033 4.68946C11.8754 4.64089 11.8349 4.60072 11.7861 4.57315C11.7373 4.54559 11.682 4.53164 11.626 4.53278C11.57 4.53391 11.5153 4.55009 11.4676 4.57961L5.50195 7.99915Z" fill="#31CB9E"/>
<path d="M11.3396 3.06654L7.26142 0.066989C7.21919 0.0345716 7.16964 0.0130395 7.11713 0.00429063C7.06462 -0.0044582 7.01076 -0.000155095 6.96031 0.0168207C6.90985 0.0337964 6.86435 0.0629235 6.8278 0.101635C6.79126 0.140346 6.7648 0.187452 6.75076 0.238801L5.26172 6.92038L11.3038 3.57959C11.3498 3.55594 11.3888 3.52084 11.4173 3.47767C11.4457 3.4345 11.4626 3.38472 11.4662 3.33315C11.4698 3.28157 11.46 3.22994 11.4378 3.18324C11.4157 3.13654 11.3818 3.09635 11.3396 3.06654Z" fill="#31CB9E"/>
<path d="M7.25665 15.9287L11.3396 12.9291C11.3824 12.899 11.4167 12.8584 11.4394 12.8113C11.462 12.7641 11.4721 12.7119 11.4688 12.6596C11.4654 12.6074 11.4487 12.5569 11.4202 12.513C11.3917 12.4691 11.3525 12.4333 11.3062 12.4089L5.26172 9.06812L6.75076 15.7497C6.76311 15.8016 6.78816 15.8496 6.82367 15.8895C6.85918 15.9293 6.90402 15.9597 6.95418 15.9779C7.00433 15.9961 7.05823 16.0016 7.11103 15.9938C7.16382 15.9861 7.21386 15.9653 7.25665 15.9334" fill="#31CB9E"/>
<path d="M3.95009 7.87505L5.50117 0.620765C5.51302 0.560651 5.50665 0.498369 5.4829 0.441892C5.45914 0.385414 5.41907 0.337311 5.36782 0.30374C5.31656 0.270168 5.25645 0.252656 5.19519 0.253443C5.13392 0.254231 5.07429 0.273284 5.02391 0.308162L1.05076 3.35544C0.95015 3.43263 0.868732 3.53201 0.812852 3.64584C0.756972 3.75966 0.728143 3.88486 0.728611 4.01167V11.7432C0.726658 11.8716 0.754774 11.9987 0.810711 12.1143C0.866648 12.2299 0.948854 12.3308 1.05076 12.409L5.00482 15.4467C5.0552 15.4816 5.11483 15.5006 5.1761 15.5014C5.23736 15.5022 5.29747 15.4847 5.34872 15.4511C5.39998 15.4176 5.44005 15.3695 5.46381 15.313C5.48756 15.2565 5.49393 15.1942 5.48208 15.1341L3.95009 7.87505Z" fill="#31CB9E"/>
</g>
<defs>
<clipPath id="clip0_2_3556">
<rect width="11.2155" height="16" fill="white" transform="translate(0.728516 0.000244141)"/>
</clipPath>
</defs>
</svg>
