<svg width="17" height="16" viewBox="0 0 17 16" fill="none" xmlns="http://www.w3.org/2000/svg">
<g clip-path="url(#clip0_2_3557)">
<path d="M2.62766 6.14258L0.945312 7.82455H4.30976L2.62766 6.14258Z" fill="#A02870"/>
<path d="M4.30873 8.17603H0.945312L2.62696 9.85781L4.30873 8.17603Z" fill="#80286C"/>
<path d="M6.59043 5.89401L4.9082 4.21191V7.57591L6.59043 5.89401Z" fill="#C42C79"/>
<path d="M4.5571 7.57591V4.21191L2.875 5.89401L4.5571 7.57591Z" fill="#A02870"/>
<path d="M6.84055 5.64576L8.52252 3.96399H5.1582L6.84055 5.64576Z" fill="#C42C79"/>
<path d="M6.84075 1.93054L5.1582 3.61277H8.52252L6.84075 1.93054Z" fill="#E4327F"/>
<path d="M10.8031 1.68234L9.12109 0.000244141V3.36424L10.8031 1.68234Z" fill="#0A8B4B"/>
<path d="M8.76992 3.36437V0.000244141L7.08789 1.68234L8.76992 3.36437Z" fill="#E4327F"/>
<path d="M6.59043 10.1057L4.9082 8.42383V11.7879L6.59043 10.1057Z" fill="#632A69"/>
<path d="M2.875 10.1057L4.55706 11.7876V8.42383L2.875 10.1057Z" fill="#80286C"/>
<path d="M11.0511 5.64576L12.7331 3.96399H9.36914L11.0511 5.64576Z" fill="#167B55"/>
<path d="M9.36914 3.61264H12.7333L11.0512 1.93054L9.36914 3.61264Z" fill="#0A8B4B"/>
<path d="M8.52265 12.3875H5.1582L6.8403 14.0697L8.52265 12.3875Z" fill="#402863"/>
<path d="M6.8404 10.3551L5.1582 12.037H8.52182L6.8404 10.3551Z" fill="#632A69"/>
<path d="M15.016 5.89476L13.334 4.21289V7.57651L15.016 5.89476Z" fill="#21695E"/>
<path d="M11.2988 5.89401L12.9811 7.5761V4.21191L11.2988 5.89401Z" fill="#167B55"/>
<path d="M7.08789 14.318L8.76979 16V12.6359L7.08789 14.318Z" fill="#402863"/>
<path d="M9.12109 12.6364V16.0001L10.8032 14.3184L9.12109 12.6364ZM11.0515 14.07L12.7337 12.3878H9.36917L11.0515 14.07Z" fill="#223160"/>
<path d="M11.0509 10.3551L9.36914 12.037H12.7326L11.0509 10.3551Z" fill="#1E4561"/>
<path d="M13.334 8.42383V11.7876L15.0159 10.1056L13.334 8.42383Z" fill="#245661"/>
<path d="M11.2988 10.1061L12.9811 11.7882V8.42419L11.2988 10.1061Z" fill="#1E4561"/>
<path d="M15.2641 9.85824L16.9464 8.17603H13.582L15.2641 9.85824Z" fill="#245661"/>
<path d="M15.2644 6.14258L13.582 7.82455H16.9466L15.2644 6.14258Z" fill="#21695E"/>
</g>
<defs>
<clipPath id="clip0_2_3557">
<rect width="16.0004" height="16" fill="white" transform="translate(0.945312 0.000244141)"/>
</clipPath>
</defs>
</svg>
