<svg width="17" height="16" viewBox="0 0 17 16" fill="none" xmlns="http://www.w3.org/2000/svg">
<g clip-path="url(#clip0_2_3560)">
<path fill-rule="evenodd" clip-rule="evenodd" d="M7.49303 6.5421C7.4461 6.54307 7.40002 6.52946 7.36115 6.50315C7.32228 6.47684 7.29252 6.43913 7.27597 6.3952C7.25943 6.35127 7.25691 6.3033 7.26876 6.25788C7.28062 6.21246 7.30627 6.17184 7.34217 6.1416C7.72355 5.82018 8.05315 5.44195 8.31939 5.0202C8.50763 4.69046 8.81201 4.52091 9.12974 4.56363C9.16104 4.56562 9.19159 4.57403 9.21949 4.58834C9.2474 4.60266 9.27205 4.62257 9.29192 4.64684C9.31179 4.6711 9.32644 4.6992 9.33497 4.72938C9.3435 4.75956 9.34572 4.79117 9.34149 4.82224C9.33726 4.85332 9.32667 4.88319 9.31039 4.90999C9.29411 4.93679 9.27248 4.95995 9.24685 4.97803C9.22122 4.9961 9.19214 5.0087 9.16142 5.01503C9.13071 5.02137 9.09902 5.02131 9.06833 5.01486C8.88276 4.9895 8.75861 5.16839 8.71322 5.24582C8.42408 5.71122 8.06369 6.12836 7.64522 6.48203C7.60393 6.52062 7.54954 6.54209 7.49303 6.5421ZM3.6589 10.3963C3.61265 10.3957 3.56769 10.381 3.52994 10.3543C3.4922 10.3276 3.46347 10.29 3.44755 10.2466C3.43163 10.2032 3.42927 10.1559 3.44079 10.1111C3.45231 10.0663 3.47716 10.0261 3.51205 9.99576C3.77639 9.78758 4.05672 9.60054 4.35043 9.43639C4.40205 9.4192 4.45814 9.42112 4.50846 9.44182C4.55878 9.46251 4.6 9.5006 4.62459 9.54914C4.64918 9.59768 4.65552 9.65343 4.64244 9.70625C4.62937 9.75907 4.59775 9.80543 4.55335 9.83689C4.29162 9.98544 4.04129 10.1532 3.80441 10.3389C3.76362 10.3731 3.71215 10.392 3.6589 10.3923" fill="#28646E"/>
<path fill-rule="evenodd" clip-rule="evenodd" d="M9.37858 8.23681C9.46936 8.32091 9.57483 8.28487 9.67095 8.19275C10.3304 7.56263 11.0286 6.57873 11.2609 6.06609C11.269 6.04052 11.2822 6.01685 11.2997 5.99651C11.3172 5.97616 11.3386 5.95957 11.3627 5.94772C11.3868 5.93587 11.413 5.92902 11.4398 5.92756C11.4666 5.92611 11.4934 5.93009 11.5186 5.93927C11.6454 5.99 11.6441 6.20627 11.5293 6.44523C11.1339 7.25436 10.6059 7.99166 9.96732 8.62663C9.94929 8.6429 9.93488 8.66277 9.92502 8.68496C9.91515 8.70716 9.91006 8.73117 9.91006 8.75545C9.91006 8.77974 9.91515 8.80375 9.92502 8.82594C9.93488 8.84814 9.94929 8.86801 9.96732 8.88428C10.0407 8.9497 10.1609 8.94569 10.2717 8.83222C10.6277 8.48004 10.9541 8.09917 11.2476 7.69346C11.2679 7.65423 11.2998 7.62226 11.339 7.60194C11.3782 7.58162 11.4228 7.57395 11.4665 7.57999C11.576 7.60135 11.5934 7.70681 11.56 7.83364C11.5052 8.03789 10.9299 8.7935 10.7016 9.04715C10.0835 9.73735 9.46536 10.1152 8.27587 10.7333C7.86469 10.9469 7.55363 11.1565 7.36006 11.4809C7.18784 11.7692 7.13711 11.864 7.11976 11.9001C7.08807 11.9684 7.08414 12.0464 7.10879 12.1176C7.13344 12.1888 7.18475 12.2477 7.25192 12.2819C7.28529 12.2979 7.32151 12.3072 7.35847 12.3091C7.39544 12.3111 7.43243 12.3057 7.46731 12.2933C7.50219 12.2809 7.53426 12.2617 7.56168 12.2368C7.5891 12.2119 7.61132 12.1819 7.62706 12.1484C7.62706 12.1484 7.62706 12.1377 7.62706 12.1337C7.62706 12.1297 7.61905 12.1337 7.84333 11.7599C8.01077 11.4891 8.25465 11.274 8.54421 11.1418C9.7377 10.5984 10.225 10.1699 10.9165 9.47836C11.2423 9.10955 11.5332 8.71135 11.7856 8.28887C12.118 7.72817 11.9431 7.2489 11.6427 7.16747C11.6331 7.16466 11.6249 7.15822 11.6199 7.1495C11.615 7.14079 11.6136 7.13048 11.616 7.12074C11.6154 7.11721 11.6154 7.1136 11.616 7.11006C11.7909 6.83729 11.9203 6.53791 11.9992 6.22362C12.0579 5.93393 11.9752 5.58149 11.5787 5.49605C11.5688 5.49381 11.5602 5.48781 11.5547 5.47933C11.5493 5.47085 11.5473 5.46056 11.5493 5.45066C11.5747 5.35854 11.6 5.2424 11.616 5.1663C11.6575 5.00461 11.6349 4.83312 11.5527 4.68779C11.4706 4.54245 11.3354 4.43454 11.1755 4.38666C11.0836 4.36668 10.9885 4.36635 10.8965 4.38567C10.8045 4.405 10.7176 4.44355 10.6415 4.4988C10.6309 4.50603 10.618 4.5092 10.6053 4.50773C10.5925 4.50626 10.5808 4.50024 10.5721 4.49079C10.534 4.44959 10.4881 4.41652 10.4369 4.39357C10.3857 4.37063 10.3304 4.35829 10.2744 4.35729C10.0247 4.35729 9.78042 4.42938 9.60687 4.81253C9.47337 5.07953 9.2878 5.45466 8.72844 6.07544C8.22014 6.61356 7.65171 7.09151 7.03432 7.49989C6.95555 7.55062 6.84608 7.5386 6.8581 7.43447C6.87946 7.26759 7.05835 6.14085 7.09306 5.81511C7.14245 5.28111 6.85409 5.0328 6.52969 4.99008C6.26269 4.95404 5.86219 5.03013 5.63791 5.63756C5.38265 6.2485 5.17206 6.87716 5.00779 7.51858C4.83409 8.28104 4.81683 9.07082 4.95706 9.84014C4.96672 9.89346 4.95676 9.94847 4.92902 9.995C4.71388 10.3176 4.5199 10.6539 4.34829 11.0016C4.31962 11.0665 4.31589 11.1397 4.33781 11.2072C4.35973 11.2747 4.40577 11.3317 4.46711 11.3674C4.53234 11.4028 4.60889 11.4109 4.68013 11.3902C4.75137 11.3695 4.81154 11.3214 4.84759 11.2566L4.8556 11.2406C4.94104 11.0603 5.1226 10.7199 5.18668 10.5731C5.27382 10.4077 5.35138 10.2374 5.41897 10.0631C5.46344 9.91733 5.46344 9.76162 5.41897 9.61586C5.30751 8.99615 5.3234 8.36023 5.46569 7.74686C5.64854 7.03795 5.8714 6.33996 6.13319 5.65625C6.20128 5.48804 6.2974 5.43597 6.40019 5.44532C6.50299 5.45466 6.68054 5.50005 6.62848 5.84582C6.53369 6.45858 6.40019 7.23689 6.36148 7.49989C6.34012 7.63339 6.31609 7.92842 6.55238 8.06593C6.73795 8.17273 6.9422 8.11399 7.16648 7.96313C7.86765 7.488 8.51455 6.93735 9.09556 6.32108C9.67095 5.67494 9.85384 5.28912 10.002 4.94069C10.0286 4.88647 10.0734 4.84336 10.1285 4.81894C10.1837 4.79452 10.2458 4.79036 10.3037 4.80719C10.3651 4.82454 10.4372 4.90731 10.3878 5.0822C10.2543 5.50806 9.73369 6.48128 8.72176 7.39442C8.6992 7.41011 8.68014 7.43029 8.66577 7.45371C8.6514 7.47713 8.64204 7.50328 8.63828 7.53049C8.63451 7.55771 8.63643 7.58541 8.64391 7.61185C8.65138 7.63829 8.66425 7.6629 8.68171 7.68412C8.69936 7.7036 8.72089 7.71916 8.74492 7.72982C8.76894 7.74047 8.79493 7.74598 8.82122 7.74598C8.8475 7.74598 8.8735 7.74047 8.89752 7.72982C8.92155 7.71916 8.94308 7.7036 8.96073 7.68412C9.65893 7.06973 10.2218 6.31687 10.6135 5.47335C10.6912 5.30804 10.7577 5.13767 10.8124 4.96338C10.8236 4.90982 10.8538 4.86214 10.8975 4.82923C10.9413 4.79632 10.9954 4.78042 11.05 4.78449C11.1608 4.80719 11.2342 4.91799 11.1995 5.1089C11.1427 5.34747 11.0594 5.57897 10.9512 5.79909C10.6602 6.41853 10.0434 7.24757 9.37858 7.95913C9.35996 7.97672 9.34512 7.99793 9.33498 8.02146C9.32484 8.04499 9.31961 8.07034 9.31961 8.09596C9.31961 8.12159 9.32484 8.14694 9.33498 8.17047C9.34512 8.194 9.35996 8.21521 9.37858 8.2328V8.23681ZM5.26544 5.15295C5.30015 5.12225 5.2868 5.0822 5.27746 5.05149C5.22806 4.89396 4.94905 4.23981 4.87696 4.10898C4.87213 4.09634 4.86478 4.0848 4.85537 4.07508C4.84596 4.06535 4.83467 4.05764 4.8222 4.0524C4.80972 4.04716 4.79631 4.0445 4.78277 4.04459C4.76924 4.04468 4.75586 4.04751 4.74346 4.05291C4.64488 4.10363 4.5548 4.16939 4.47645 4.24782C4.38767 4.31639 4.31057 4.3989 4.24817 4.49213C4.24183 4.50341 4.23781 4.51584 4.23633 4.52869C4.23484 4.54154 4.23594 4.55456 4.23954 4.56699C4.24315 4.57942 4.24919 4.591 4.25732 4.60107C4.26544 4.61114 4.2755 4.61948 4.28688 4.62563C4.40703 4.71641 5.0198 5.07819 5.16799 5.14628C5.19869 5.16096 5.23607 5.17965 5.27078 5.14628L5.26544 5.15295ZM3.93044 5.37323C3.85434 5.37323 3.8223 5.40527 3.81296 5.45733C3.80419 5.56922 3.81275 5.6818 3.83832 5.79108C3.85143 5.90229 3.8816 6.01081 3.92777 6.11282C3.94046 6.13553 3.96149 6.15241 3.98641 6.15989C4.01132 6.16736 4.03817 6.16484 4.06127 6.15287C4.19477 6.0968 4.82756 5.76171 4.96373 5.67093C4.99177 5.65224 5.02648 5.62955 5.01847 5.58282L3.93044 5.37323ZM10.3117 10.9469C10.265 10.9469 10.2517 10.9909 10.2397 11.0216C10.1836 11.1751 10.0087 11.8653 9.98601 12.0135C9.98199 12.0265 9.98069 12.0402 9.98218 12.0537C9.98368 12.0672 9.98794 12.0802 9.99471 12.092C10.0015 12.1038 10.0106 12.114 10.0215 12.1221C10.0324 12.1302 10.0449 12.136 10.0581 12.139C10.1685 12.1602 10.2816 12.1638 10.3932 12.1497C10.5052 12.1484 10.6164 12.1299 10.7229 12.095C10.7353 12.0899 10.7466 12.0823 10.756 12.0728C10.7655 12.0633 10.7729 12.052 10.7779 12.0395C10.7829 12.0271 10.7853 12.0137 10.785 12.0003C10.7848 11.9869 10.7818 11.9737 10.7763 11.9615C10.7349 11.8173 10.4693 11.1605 10.3932 11.0123C10.3772 10.9829 10.3585 10.9455 10.3117 10.9482V10.9469ZM10.7122 10.6278C10.6896 10.6692 10.7122 10.7012 10.7376 10.7266C10.8404 10.8601 11.3384 11.3634 11.4532 11.4595C11.4625 11.4694 11.4738 11.4773 11.4863 11.4827C11.4988 11.4881 11.5123 11.4908 11.5259 11.4908C11.5396 11.4908 11.553 11.4881 11.5655 11.4827C11.5781 11.4773 11.5893 11.4694 11.5987 11.4595C11.6735 11.3762 11.7348 11.2815 11.7803 11.1792C11.8365 11.0821 11.8766 10.9766 11.8991 10.8668C11.8991 10.8134 11.8857 10.7706 11.8123 10.7506C11.6681 10.7106 10.9659 10.5958 10.8017 10.5864C10.7683 10.5864 10.7269 10.5864 10.7056 10.6211L10.7122 10.6278ZM8.27187 14.4526C8.27213 14.5031 8.25737 14.5526 8.22945 14.5947C8.20153 14.6369 8.16172 14.6698 8.11508 14.6892C8.06843 14.7087 8.01705 14.7139 7.96746 14.7041C7.91788 14.6943 7.87232 14.6699 7.83658 14.6342C7.80084 14.5985 7.77653 14.5529 7.76673 14.5033C7.75694 14.4537 7.7621 14.4024 7.78156 14.3557C7.80103 14.3091 7.83392 14.2693 7.87605 14.2413C7.91819 14.2134 7.96767 14.1987 8.01822 14.1989C8.05153 14.1989 8.08451 14.2055 8.11528 14.2182C8.14606 14.231 8.17402 14.2497 8.19757 14.2732C8.22113 14.2968 8.23981 14.3247 8.25256 14.3555C8.2653 14.3863 8.27187 14.4193 8.27187 14.4526ZM8.27187 1.54845C8.27186 1.59893 8.25688 1.64829 8.2288 1.69025C8.20072 1.73221 8.16082 1.76489 8.11415 1.78415C8.06748 1.80341 8.01614 1.80838 7.96664 1.79843C7.91714 1.78848 7.87171 1.76406 7.83611 1.72827C7.8005 1.69248 7.77632 1.64692 7.76663 1.59737C7.75695 1.54782 7.76219 1.49651 7.78169 1.44994C7.80119 1.40337 7.83408 1.36364 7.87619 1.33578C7.9183 1.30793 7.96773 1.2932 8.01822 1.29346C8.05164 1.29346 8.08473 1.30007 8.11559 1.3129C8.14645 1.32573 8.17448 1.34453 8.19805 1.36822C8.22162 1.39192 8.24027 1.42004 8.25294 1.45097C8.26561 1.4819 8.27204 1.51502 8.27187 1.54845ZM9.93261 14.1669C9.9454 14.2153 9.94355 14.2665 9.92729 14.3139C9.91103 14.3613 9.88109 14.4029 9.84124 14.4333C9.8014 14.4637 9.75344 14.4816 9.70342 14.4848C9.6534 14.4879 9.60356 14.4762 9.5602 14.4511C9.51683 14.426 9.48188 14.3886 9.45975 14.3436C9.43763 14.2986 9.42933 14.2481 9.43589 14.1984C9.44246 14.1487 9.46359 14.1021 9.49664 14.0644C9.52968 14.0267 9.57315 13.9997 9.62155 13.9867C9.65381 13.978 9.68746 13.9758 9.72058 13.9802C9.75369 13.9845 9.78562 13.9954 9.81452 14.0122C9.84342 14.0289 9.86873 14.0512 9.889 14.0777C9.90926 14.1043 9.92408 14.1346 9.93261 14.1669ZM6.5951 1.70197C6.60387 1.73423 6.60619 1.7679 6.60195 1.80105C6.5977 1.83421 6.58697 1.86621 6.57036 1.89522C6.55374 1.92422 6.53158 1.94968 6.50513 1.97012C6.47869 1.99056 6.44847 2.0056 6.41621 2.01436C6.38395 2.02313 6.35029 2.02545 6.31713 2.02121C6.28397 2.01696 6.25198 2.00623 6.22297 1.98961C6.19396 1.973 6.16851 1.95084 6.14806 1.92439C6.12762 1.89794 6.11259 1.86773 6.10382 1.83547C6.08612 1.77032 6.09502 1.70081 6.12857 1.64223C6.16212 1.58364 6.21756 1.54078 6.28271 1.52308C6.34786 1.50538 6.41737 1.51428 6.47596 1.54783C6.53454 1.58138 6.5774 1.63682 6.5951 1.70197ZM11.4652 13.4607C11.4827 13.4895 11.4942 13.5216 11.4991 13.555C11.504 13.5884 11.5022 13.6224 11.4938 13.6551C11.4854 13.6878 11.4706 13.7184 11.4502 13.7453C11.4298 13.7722 11.4042 13.7947 11.375 13.8116C11.3458 13.8285 11.3135 13.8393 11.28 13.8436C11.2465 13.8478 11.2126 13.8453 11.1801 13.8363C11.1476 13.8272 11.1172 13.8118 11.0907 13.7908C11.0643 13.7699 11.0423 13.7439 11.026 13.7143C10.9939 13.6562 10.986 13.5878 11.0038 13.5238C11.0216 13.4599 11.0638 13.4055 11.1213 13.3723C11.1788 13.3391 11.247 13.3297 11.3113 13.3463C11.3756 13.3628 11.4308 13.4039 11.4652 13.4607ZM5.01179 2.28537C5.0288 2.31403 5.03999 2.34576 5.04473 2.37875C5.04947 2.41174 5.04767 2.44534 5.03943 2.47764C5.03118 2.50993 5.01666 2.54028 4.99669 2.56696C4.97671 2.59364 4.95168 2.61613 4.92301 2.63314C4.86512 2.66748 4.79596 2.67742 4.73074 2.66077C4.66552 2.64412 4.60959 2.60225 4.57524 2.54436C4.54321 2.48621 4.53526 2.41783 4.55308 2.35388C4.5709 2.28993 4.61308 2.23552 4.67057 2.20232C4.72805 2.16912 4.79626 2.15978 4.86056 2.17631C4.92485 2.19283 4.98011 2.2339 5.01446 2.29071L5.01179 2.28537ZM12.7575 12.3887C12.8051 12.4363 12.8318 12.5009 12.8318 12.5682C12.8318 12.6356 12.8051 12.7002 12.7575 12.7478C12.7099 12.7954 12.6453 12.8222 12.5779 12.8222C12.5106 12.8222 12.446 12.7954 12.3984 12.7478C12.3507 12.7002 12.324 12.6356 12.324 12.5682C12.324 12.5009 12.3507 12.4363 12.3984 12.3887C12.446 12.341 12.5106 12.3143 12.5779 12.3143C12.6453 12.3143 12.7099 12.341 12.7575 12.3887ZM3.6354 3.25858C3.68303 3.30621 3.70978 3.37079 3.70978 3.43814C3.70978 3.50549 3.68303 3.57008 3.6354 3.6177C3.58778 3.66532 3.52319 3.69207 3.45585 3.69207C3.3885 3.69207 3.32391 3.66532 3.27629 3.6177C3.22867 3.57008 3.20191 3.50549 3.20191 3.43814C3.20191 3.37079 3.22867 3.30621 3.27629 3.25858C3.32391 3.21096 3.3885 3.18421 3.45585 3.18421C3.52319 3.18421 3.58778 3.21096 3.6354 3.25858ZM13.732 11.0016C13.7908 11.0345 13.8341 11.0895 13.8524 11.1543C13.8706 11.2191 13.8624 11.2886 13.8295 11.3474C13.7966 11.4061 13.7416 11.4494 13.6768 11.4677C13.6119 11.486 13.5425 11.4777 13.4837 11.4448C13.4253 11.4112 13.3826 11.3557 13.3651 11.2906C13.3476 11.2255 13.3566 11.1561 13.3903 11.0977C13.4239 11.0393 13.4794 10.9966 13.5445 10.9791C13.6096 10.9616 13.6789 10.9706 13.7374 11.0043L13.732 11.0016ZM2.55405 4.55487C2.58361 4.57115 2.60961 4.59316 2.63056 4.61962C2.6515 4.64608 2.66695 4.67645 2.67601 4.70895C2.68506 4.74145 2.68755 4.77543 2.68331 4.80891C2.67907 4.84238 2.66819 4.87467 2.65132 4.90389C2.63445 4.93311 2.61191 4.95867 2.58504 4.97907C2.55816 4.99947 2.52749 5.01431 2.49481 5.02271C2.46213 5.03111 2.4281 5.0329 2.39472 5.02799C2.36134 5.02307 2.32927 5.01155 2.3004 4.99409C2.2436 4.95973 2.20253 4.90448 2.186 4.84018C2.16948 4.77589 2.17882 4.70768 2.21201 4.65019C2.24521 4.5927 2.29963 4.55052 2.36357 4.5327C2.42752 4.51488 2.49591 4.52284 2.55405 4.55487ZM14.3154 9.42496C14.3807 9.44125 14.4369 9.48282 14.4716 9.54052C14.5063 9.59823 14.5166 9.66735 14.5003 9.73268C14.484 9.798 14.4425 9.85418 14.3848 9.88886C14.327 9.92353 14.2579 9.93386 14.1926 9.91757H14.1846C14.1524 9.90881 14.1223 9.89379 14.0959 9.87338C14.0696 9.85297 14.0475 9.82757 14.0309 9.79862C14.0144 9.76968 14.0037 9.73775 13.9995 9.70468C13.9953 9.6716 13.9976 9.63802 14.0064 9.60585C14.0151 9.57368 14.0301 9.54355 14.0506 9.51718C14.071 9.49082 14.0964 9.46873 14.1253 9.45218C14.1543 9.43563 14.1862 9.42494 14.2193 9.42073C14.2523 9.41652 14.2859 9.41886 14.3181 9.42763L14.3154 9.42496ZM1.85451 6.09012C1.91984 6.10783 1.97545 6.15075 2.00913 6.20946C2.0428 6.26817 2.05177 6.33786 2.03407 6.40318C2.01637 6.46851 1.97344 6.52412 1.91473 6.5578C1.85602 6.59147 1.78634 6.60044 1.72101 6.58274C1.65935 6.56204 1.60793 6.51856 1.57728 6.46119C1.54662 6.40383 1.53905 6.33691 1.5561 6.27415C1.57316 6.21138 1.61356 6.15751 1.66903 6.12354C1.7245 6.08958 1.79085 6.07811 1.85451 6.09146V6.09012ZM14.4703 7.74286C14.5204 7.74286 14.5695 7.75773 14.6112 7.7856C14.6529 7.81348 14.6854 7.85309 14.7046 7.89944C14.7238 7.94579 14.7288 7.99679 14.7191 8.04599C14.7093 8.09519 14.6851 8.14039 14.6496 8.17586C14.6142 8.21134 14.569 8.2355 14.5198 8.24528C14.4706 8.25507 14.4196 8.25005 14.3732 8.23085C14.3269 8.21165 14.2872 8.17914 14.2594 8.13743C14.2315 8.09571 14.2166 8.04667 14.2166 7.99651C14.2166 7.9632 14.2232 7.93021 14.2359 7.89944C14.2487 7.86866 14.2674 7.8407 14.2909 7.81715C14.3145 7.79359 14.3424 7.77491 14.3732 7.76216C14.404 7.74942 14.437 7.74286 14.4703 7.74286ZM1.56615 7.74286C1.59946 7.74286 1.63244 7.74942 1.66322 7.76216C1.69399 7.77491 1.72195 7.79359 1.74551 7.81715C1.76906 7.8407 1.78775 7.86866 1.80049 7.89944C1.81324 7.93021 1.8198 7.9632 1.8198 7.99651C1.8198 8.02982 1.81324 8.0628 1.80049 8.09357C1.78775 8.12435 1.76906 8.15231 1.74551 8.17586C1.72195 8.19942 1.69399 8.2181 1.66322 8.23085C1.63244 8.2436 1.59946 8.25016 1.56615 8.25016C1.49888 8.25016 1.43436 8.22343 1.38679 8.17586C1.33922 8.1283 1.3125 8.06378 1.3125 7.99651C1.3125 7.92923 1.33922 7.86472 1.38679 7.81715C1.43436 7.76958 1.49888 7.74286 1.56615 7.74286ZM14.1846 6.08078C14.248 6.06718 14.3142 6.07838 14.3696 6.11207C14.425 6.14577 14.4654 6.19939 14.4825 6.26194C14.4995 6.32448 14.492 6.3912 14.4615 6.44838C14.4309 6.50556 14.3796 6.54886 14.3181 6.56939H14.3114C14.2463 6.58709 14.1768 6.57819 14.1182 6.54464C14.0596 6.51109 14.0167 6.45565 13.999 6.3905C13.9813 6.32535 13.9902 6.25584 14.0238 6.19725C14.0573 6.13867 14.1128 6.09581 14.1779 6.07811L14.1846 6.08078ZM1.713 9.41561C1.74572 9.40469 1.78032 9.40056 1.81469 9.40346C1.84907 9.40637 1.88248 9.41626 1.9129 9.43252C1.94332 9.44878 1.97011 9.47108 1.99162 9.49805C2.01313 9.52501 2.02891 9.55608 2.038 9.58936C2.04709 9.62263 2.0493 9.65741 2.04449 9.69157C2.03968 9.72573 2.02796 9.75854 2.01003 9.78802C1.99211 9.81749 1.96836 9.84299 1.94024 9.86298C1.91213 9.88296 1.88023 9.89699 1.8465 9.90422C1.78153 9.92193 1.71219 9.9131 1.65373 9.87967C1.59527 9.84625 1.55248 9.79097 1.53478 9.726C1.51707 9.66103 1.52591 9.59169 1.55933 9.53323C1.59275 9.47477 1.64803 9.43198 1.713 9.41428V9.41561ZM13.4717 4.54419C13.5006 4.52673 13.5326 4.5152 13.566 4.51029C13.5994 4.50537 13.6334 4.50717 13.6661 4.51557C13.6988 4.52397 13.7295 4.5388 13.7563 4.5592C13.7832 4.57961 13.8057 4.60516 13.8226 4.63438C13.8395 4.6636 13.8504 4.69589 13.8546 4.72937C13.8588 4.76284 13.8564 4.79683 13.8473 4.82933C13.8382 4.86183 13.8228 4.8922 13.8019 4.91866C13.7809 4.94511 13.7549 4.96713 13.7253 4.98341C13.6672 5.01544 13.5988 5.02339 13.5349 5.00557C13.4709 4.98775 13.4165 4.94557 13.3833 4.88809C13.3501 4.8306 13.3408 4.76239 13.3573 4.69809C13.3738 4.6338 13.4149 4.57854 13.4717 4.54419ZM2.30307 11.0056C2.34647 10.9799 2.39655 10.9677 2.44692 10.9705C2.49729 10.9734 2.54566 10.9912 2.58584 11.0217C2.62602 11.0523 2.6562 11.0941 2.6725 11.1418C2.6888 11.1895 2.6905 11.2411 2.67737 11.2898C2.66424 11.3385 2.63688 11.3822 2.59879 11.4153C2.5607 11.4484 2.51361 11.4693 2.46354 11.4755C2.41347 11.4817 2.36269 11.4728 2.3177 11.45C2.2727 11.4271 2.23554 11.3914 2.21096 11.3474C2.17826 11.2893 2.16959 11.2207 2.18681 11.1564C2.20403 11.092 2.24576 11.0369 2.30307 11.0029V11.0056ZM12.401 3.25992C12.4365 3.2245 12.4817 3.2004 12.5309 3.19066C12.5801 3.18092 12.6311 3.18597 12.6774 3.20519C12.7237 3.2244 12.7633 3.25691 12.7911 3.29861C12.819 3.34031 12.8338 3.38933 12.8338 3.43948C12.8338 3.48962 12.819 3.53864 12.7911 3.58034C12.7633 3.62204 12.7237 3.65455 12.6774 3.67376C12.6311 3.69298 12.5801 3.69804 12.5309 3.68829C12.4817 3.67855 12.4365 3.65445 12.401 3.61903C12.3537 3.57128 12.3271 3.50674 12.3271 3.43948C12.3271 3.37221 12.3537 3.30768 12.401 3.25992ZM3.27629 12.3833C3.31178 12.3479 3.35698 12.3238 3.40617 12.3141C3.45536 12.3043 3.50633 12.3094 3.55264 12.3286C3.59896 12.3478 3.63854 12.3803 3.66639 12.422C3.69423 12.4637 3.7091 12.5127 3.7091 12.5629C3.7091 12.613 3.69423 12.662 3.66639 12.7037C3.63854 12.7454 3.59896 12.778 3.55264 12.7972C3.50633 12.8164 3.45536 12.8214 3.40617 12.8117C3.35698 12.802 3.31178 12.7779 3.27629 12.7424C3.25251 12.719 3.23364 12.691 3.22075 12.6602C3.20787 12.6294 3.20124 12.5963 3.20124 12.5629C3.20124 12.5295 3.20787 12.4964 3.22075 12.4656C3.23364 12.4348 3.25251 12.4068 3.27629 12.3833ZM11.0193 2.28537C11.0444 2.24198 11.0818 2.20701 11.1268 2.18485C11.1717 2.1627 11.2222 2.15437 11.2719 2.1609C11.3216 2.16744 11.3683 2.18855 11.406 2.22157C11.4437 2.25459 11.4708 2.29804 11.4838 2.34644C11.4968 2.39484 11.4952 2.44602 11.4792 2.49351C11.4632 2.541 11.4334 2.58267 11.3937 2.61327C11.354 2.64388 11.3061 2.66203 11.2561 2.66545C11.2061 2.66886 11.1562 2.65739 11.1128 2.63247C11.0545 2.59868 11.012 2.54322 10.9945 2.47818C10.977 2.41315 10.9859 2.34384 11.0193 2.28537ZM4.57257 13.4607C4.58809 13.4302 4.60959 13.4032 4.63581 13.3812C4.66202 13.3593 4.6924 13.3429 4.72512 13.333C4.75784 13.3231 4.79223 13.3199 4.82621 13.3236C4.86019 13.3273 4.89307 13.3379 4.92287 13.3546C4.95268 13.3714 4.97879 13.394 4.99964 13.4211C5.02048 13.4482 5.03564 13.4792 5.0442 13.5123C5.05275 13.5454 5.05453 13.5799 5.04942 13.6137C5.04431 13.6475 5.03242 13.6799 5.01446 13.709C4.98011 13.7658 4.92485 13.8069 4.86056 13.8234C4.79626 13.8399 4.72805 13.8306 4.67057 13.7974C4.61308 13.7642 4.5709 13.7098 4.55308 13.6458C4.53526 13.5819 4.54321 13.5135 4.57524 13.4553L4.57257 13.4607ZM9.44266 1.70197C9.45038 1.66954 9.4644 1.63894 9.48394 1.61193C9.50348 1.58492 9.52815 1.56202 9.55654 1.54454C9.58492 1.52706 9.61648 1.51534 9.64939 1.51006C9.68231 1.50477 9.71594 1.50602 9.74838 1.51374C9.78081 1.52145 9.81141 1.53548 9.83842 1.55501C9.86543 1.57455 9.88833 1.59922 9.90581 1.62761C9.92329 1.656 9.93501 1.68755 9.94029 1.72047C9.94558 1.75338 9.94433 1.78702 9.93661 1.81945V1.83414C9.91891 1.89911 9.87612 1.95438 9.81766 1.98781C9.7592 2.02123 9.68986 2.03006 9.62489 2.01236C9.55992 1.99466 9.50464 1.95187 9.47122 1.89341C9.4378 1.83495 9.42896 1.76561 9.44667 1.70064L9.44266 1.70197ZM6.10916 14.1656C6.11731 14.1332 6.13176 14.1028 6.15167 14.076C6.17158 14.0493 6.19656 14.0267 6.2252 14.0096C6.25384 13.9925 6.28556 13.9812 6.31856 13.9763C6.35157 13.9715 6.3852 13.9732 6.41755 13.9813C6.44989 13.9895 6.48032 14.0039 6.50708 14.0238C6.53384 14.0437 6.55642 14.0687 6.57353 14.0974C6.59064 14.126 6.60194 14.1577 6.60678 14.1907C6.61163 14.2237 6.60993 14.2574 6.60178 14.2897C6.58407 14.3547 6.54129 14.41 6.48283 14.4434C6.42437 14.4768 6.35503 14.4856 6.29006 14.4679C6.22508 14.4502 6.16981 14.4074 6.13638 14.349C6.10296 14.2905 6.09413 14.2212 6.11183 14.1562" fill="#28646E"/>
<path d="M8.01824 16C9.60068 16 11.1476 15.5307 12.4633 14.6515C13.779 13.7724 14.8045 12.5228 15.41 11.0607C16.0155 9.59873 16.1739 7.99 15.8651 6.43799C15.5563 4.88597 14.7941 3.46039 13.6751 2.34153C12.556 1.22267 11.1303 0.460785 9.57828 0.152229C8.02621 -0.156328 6.4175 0.00230234 4.9556 0.608059C3.49369 1.21381 2.24425 2.23949 1.36528 3.55537C0.48632 4.87125 0.0173142 6.41822 0.0175782 8.00066C0.0204047 10.1216 0.864279 12.1548 2.36412 13.6544C3.86396 15.154 5.89732 15.9975 8.01824 16ZM8.01824 0.676842C9.46676 0.676842 10.8827 1.10638 12.0871 1.91113C13.2915 2.71588 14.2302 3.85971 14.7846 5.19796C15.3389 6.53621 15.4839 8.00879 15.2013 9.42947C14.9187 10.8502 14.2212 12.1551 13.197 13.1794C12.1727 14.2036 10.8677 14.9012 9.44705 15.1838C8.02637 15.4664 6.55379 15.3213 5.21554 14.767C3.87729 14.2127 2.73346 13.274 1.92871 12.0696C1.12396 10.8652 0.694424 9.44918 0.694424 8.00066C0.696544 6.05892 1.46884 4.19731 2.84186 2.82428C4.21489 1.45126 6.0765 0.678962 8.01824 0.676842Z" fill="#28646E"/>
</g>
<defs>
<clipPath id="clip0_2_3560">
<rect width="16" height="16" fill="white" transform="translate(0.0175781 0.000244141)"/>
</clipPath>
</defs>
</svg>
