<svg width="23" height="16" viewBox="0 0 23 16" fill="none" xmlns="http://www.w3.org/2000/svg">
<g clip-path="url(#clip0_2_3570)">
<path d="M7.88393 15.0376L0.0924639 1.56291C0.0924639 1.56291 -0.503354 3.30023e-05 1.32993 3.30023e-05H6.37147C6.67141 -0.026087 6.97261 0.0332213 7.24026 0.1711C7.50791 0.308979 7.73107 0.519798 7.88393 0.779179C8.43391 1.69582 16.1795 15.1705 16.1795 15.1705L9.48805 15.9955C9.15936 15.9943 8.83702 15.9047 8.55481 15.7362C8.2726 15.5677 8.04088 15.3264 7.88393 15.0376Z" fill="url(#paint0_linear_2_3570)"/>
<path d="M9.48745 13.021L14.1623 4.90871C14.3229 4.64554 14.554 4.43262 14.8294 4.29409C15.1049 4.15557 15.4136 4.09699 15.7206 4.12498H20.7163C20.7163 4.12498 22.7788 4.17081 21.9996 5.54578C21.2205 6.92074 16.4998 15.1247 16.4998 15.1247C16.4998 15.1247 16.1789 15.9955 14.8956 15.9955H8.8458C8.8458 15.9955 7.7 15.9497 8.57081 14.5747C9.44162 13.1997 9.48745 13.021 9.48745 13.021Z" fill="url(#paint1_linear_2_3570)"/>
</g>
<defs>
<linearGradient id="paint0_linear_2_3570" x1="5.024" y1="1.54916" x2="11.7476" y2="16.2796" gradientUnits="userSpaceOnUse">
<stop stop-color="#F26659"/>
<stop offset="1" stop-color="#B52A53"/>
</linearGradient>
<linearGradient id="paint1_linear_2_3570" x1="11.7516" y1="16.0734" x2="18.5118" y2="4.65664" gradientUnits="userSpaceOnUse">
<stop stop-color="#F26659"/>
<stop offset="1" stop-color="#EE1C4E"/>
</linearGradient>
<clipPath id="clip0_2_3570">
<rect width="22.1782" height="16" fill="white" transform="translate(0 0.000244141)"/>
</clipPath>
</defs>
</svg>
