<svg width="17" height="16" viewBox="0 0 17 16" fill="none" xmlns="http://www.w3.org/2000/svg">
<g clip-path="url(#clip0_2_3571)">
<path d="M8.17773 16.0002C12.596 16.0002 16.1777 12.4185 16.1777 8.00024C16.1777 3.58197 12.596 0.000244141 8.17773 0.000244141C3.75946 0.000244141 0.177734 3.58197 0.177734 8.00024C0.177734 12.4185 3.75946 16.0002 8.17773 16.0002Z" fill="#004A80"/>
<path fill-rule="evenodd" clip-rule="evenodd" d="M11.6777 9.77024L10.9362 12.5002H4.67773V12.0437L8.07273 8.18424L4.74623 3.99624V3.50024H10.9117L11.1267 5.62624H10.7317C10.4712 5.14174 10.2502 4.77924 10.0677 4.53874C9.88573 4.29824 9.72323 4.14874 9.58023 4.08924C9.47923 4.04024 9.34023 4.00524 9.16323 3.98424C8.95189 3.96098 8.73935 3.95013 8.52673 3.95174H6.77523L9.39973 7.22174V7.37924L6.15573 11.0617H9.85823C10.0402 11.0617 10.2072 11.0182 10.3582 10.9317C10.5092 10.8447 10.6402 10.7357 10.7507 10.6047C10.8668 10.4693 10.9698 10.3232 11.0582 10.1682C11.1529 10.0039 11.2361 9.83312 11.3072 9.65724L11.6777 9.77024Z" fill="white"/>
</g>
<defs>
<clipPath id="clip0_2_3571">
<rect width="16" height="16" fill="white" transform="translate(0.177734 0.000244141)"/>
</clipPath>
</defs>
</svg>
