<svg width="18" height="16" viewBox="0 0 18 16" fill="none" xmlns="http://www.w3.org/2000/svg">
<g clip-path="url(#clip0_2_3573)">
<path d="M8.92578 16.0002C13.3441 16.0002 16.9258 12.4185 16.9258 8.00024C16.9258 3.58197 13.3441 0.000244141 8.92578 0.000244141C4.5075 0.000244141 0.925781 3.58197 0.925781 8.00024C0.925781 12.4185 4.5075 16.0002 8.92578 16.0002Z" fill="url(#paint0_linear_2_3573)"/>
<path d="M4.98883 10.4003V6.63497L7.8443 8.78405V10.4003H8.5731V8.63231C8.57297 8.56662 8.55761 8.50185 8.52822 8.44308C8.49884 8.38432 8.45624 8.33317 8.40377 8.29365L4.94083 5.68644C4.87749 5.63939 4.80235 5.61083 4.72375 5.60393C4.64516 5.59703 4.56619 5.61205 4.49562 5.64734C4.42505 5.68262 4.36564 5.73679 4.32401 5.8038C4.28237 5.87082 4.26013 5.94807 4.25977 6.02697V10.4003H4.98883ZM12.8859 10.4003V6.63497L10.0304 8.78405V10.4003H9.30163V8.63231C9.30177 8.56662 9.31713 8.50185 9.34651 8.44308C9.37589 8.38432 9.41849 8.33317 9.47097 8.29365L12.9339 5.6875C12.9972 5.64051 13.0722 5.61196 13.1507 5.60502C13.2292 5.59807 13.3081 5.61301 13.3786 5.64816C13.4492 5.68332 13.5086 5.73732 13.5503 5.80419C13.592 5.87105 13.6144 5.94817 13.615 6.02697V10.4003H12.8859Z" fill="white"/>
</g>
<defs>
<linearGradient id="paint0_linear_2_3573" x1="8.92578" y1="0.000244141" x2="8.92578" y2="16.0002" gradientUnits="userSpaceOnUse">
<stop stop-color="#4FA89B"/>
<stop offset="1" stop-color="#6ACEBB"/>
</linearGradient>
<clipPath id="clip0_2_3573">
<rect width="17" height="16" fill="white" transform="translate(0.544922 0.000244141)"/>
</clipPath>
</defs>
</svg>
