<svg width="17" height="16" viewBox="0 0 17 16" fill="none" xmlns="http://www.w3.org/2000/svg">
<g clip-path="url(#clip0_2_3574)">
<path d="M8.54492 16.0002C12.9632 16.0002 16.5449 12.4185 16.5449 8.00024C16.5449 3.58197 12.9632 0.000244141 8.54492 0.000244141C4.12664 0.000244141 0.544922 3.58197 0.544922 8.00024C0.544922 12.4185 4.12664 16.0002 8.54492 16.0002Z" fill="#47B95C"/>
<path d="M8.54492 3.00024C5.78492 3.00024 3.54492 5.24024 3.54492 8.00024C3.54492 8.06674 3.55142 8.13024 3.55492 8.19674H5.90142L7.03492 6.24674L8.54492 8.41024L10.0514 6.24674L11.1849 8.19674H13.5314C13.5349 8.13024 13.5414 8.06674 13.5414 8.00024C13.5449 5.24024 11.3049 3.00024 8.54492 3.00024ZM11.9914 7.59374C11.7884 5.87024 10.3214 4.53024 8.54492 4.53024C6.76842 4.53024 5.30142 5.87374 5.09842 7.59374H4.49142C4.69492 5.53674 6.43492 3.92674 8.54492 3.92674C10.6549 3.92674 12.3914 5.53674 12.5984 7.59374H11.9914Z" fill="white"/>
<path d="M10.0087 7.36658L8.54523 9.46658L7.08173 7.36658L6.24873 8.80008H3.61523C3.99873 11.1801 6.05523 13.0001 8.54523 13.0001C11.0352 13.0001 13.0917 11.1801 13.4752 8.79658H10.8417L10.0087 7.36658ZM11.7187 9.40008H12.3652C11.7917 10.9566 10.2987 12.0736 8.54523 12.0736C6.79173 12.0736 5.29873 10.9566 4.72523 9.40008H5.37173C5.91173 10.6166 7.12873 11.4701 8.54523 11.4701C9.96173 11.4701 11.1787 10.6166 11.7187 9.40008Z" fill="white"/>
</g>
<defs>
<clipPath id="clip0_2_3574">
<rect width="16" height="16" fill="white" transform="translate(0.544922 0.000244141)"/>
</clipPath>
</defs>
</svg>
