<svg width="17" height="16" viewBox="0 0 17 16" fill="none" xmlns="http://www.w3.org/2000/svg">
<g clip-path="url(#clip0_2_3576)">
<path d="M8.08203 16.0002C12.5003 16.0002 16.082 12.4185 16.082 8.00024C16.082 3.58197 12.5003 0.000244141 8.08203 0.000244141C3.66375 0.000244141 0.0820312 3.58197 0.0820312 8.00024C0.0820312 12.4185 3.66375 16.0002 8.08203 16.0002Z" fill="#00B0FF"/>
<path d="M12.082 6.03074V10.4882L10.814 11.2282V8.25324L8.08203 9.88824L5.35003 8.25174V11.2282L4.08203 10.4882V6.03024L8.08203 8.43274L12.082 6.03024V6.03074ZM8.09703 11.5892L9.26703 10.8897L10.422 11.5892L8.09703 13.0002L5.77303 11.5892L6.92803 10.8897L8.09753 11.5892H8.09703ZM10.407 4.41124L9.25153 5.11074L8.08203 4.41124L6.91253 5.11074L5.75753 4.41124L8.08203 3.00024L10.407 4.41124Z" fill="white"/>
</g>
<defs>
<clipPath id="clip0_2_3576">
<rect width="16" height="16" fill="white" transform="translate(0.0820312 0.000244141)"/>
</clipPath>
</defs>
</svg>
