<svg width="17" height="16" viewBox="0 0 17 16" fill="none" xmlns="http://www.w3.org/2000/svg">
<g clip-path="url(#clip0_2_3578)">
<path d="M8.08203 16.0002C12.5003 16.0002 16.082 12.4185 16.082 8.00024C16.082 3.58197 12.5003 0.000244141 8.08203 0.000244141C3.66375 0.000244141 0.0820312 3.58197 0.0820312 8.00024C0.0820312 12.4185 3.66375 16.0002 8.08203 16.0002Z" fill="black"/>
<path d="M4.41992 11.0039L7.89792 13.1919H8.31892L11.7409 11.0039L11.2079 10.5834L8.09442 12.5749L4.86892 10.5834L4.41992 11.0039ZM6.10292 5.92736L8.06642 2.95386L10.0859 5.95536L10.5629 5.53436L8.31892 2.16886C8.31892 2.16886 8.12242 1.91636 7.81392 2.16886L5.51392 5.61886L6.10292 5.92736Z" fill="white" fill-opacity="0.703"/>
<path d="M8.12177 11.9298C8.23377 11.5368 8.37427 11.1723 8.48677 10.7798C8.99177 9.20883 9.49627 7.60983 10.0013 6.03933C10.0293 5.95533 10.0573 5.84283 10.0853 5.75933C10.1413 5.59033 10.2253 5.50633 10.3938 5.50633C10.4669 5.5044 10.5384 5.52885 10.595 5.5752C10.6516 5.62156 10.6897 5.68673 10.7023 5.75883C10.8423 6.31983 10.9548 6.90883 11.0948 7.46983C11.3473 8.53583 11.5718 9.62983 11.8243 10.6953C11.8803 10.9478 11.7963 11.1163 11.5998 11.1723C11.4033 11.2283 11.2633 11.0883 11.2073 10.8358C10.9268 9.62983 10.6463 8.42333 10.3938 7.18933C10.3938 7.13333 10.3658 7.10533 10.3378 7.02083C10.3145 7.09758 10.2863 7.17273 10.2533 7.24583C9.72077 8.87233 9.21577 10.4993 8.68277 12.1258C8.59877 12.4343 8.48627 12.7148 8.40227 13.0233C8.34627 13.2198 8.23377 13.3038 8.06577 13.3038C7.89727 13.3038 7.78527 13.2198 7.72927 13.0238C7.11227 11.0883 6.49477 9.15283 5.90577 7.21733C5.87777 7.16133 5.87777 7.13333 5.84977 7.02083C5.79974 7.27462 5.74372 7.52719 5.68177 7.77833C5.45677 8.78833 5.23277 9.82583 5.00827 10.8358C4.95227 11.1158 4.72827 11.2563 4.50327 11.1158C4.36327 11.0318 4.33527 10.8918 4.36327 10.7233C4.67177 9.32083 5.00827 7.91833 5.31677 6.51633C5.37277 6.29133 5.42927 6.06733 5.45677 5.84283C5.51327 5.61883 5.62527 5.50633 5.79377 5.50633C5.96227 5.50633 6.07377 5.61883 6.13027 5.84283C6.77527 7.86283 7.42027 9.91033 8.03777 11.9298H8.12177Z" fill="white"/>
</g>
<defs>
<clipPath id="clip0_2_3578">
<rect width="16" height="16" fill="white" transform="translate(0.0820312 0.000244141)"/>
</clipPath>
</defs>
</svg>
