<svg width="18" height="16" viewBox="0 0 18 16" fill="none" xmlns="http://www.w3.org/2000/svg">
<g clip-path="url(#clip0_2_3582)">
<path d="M3.56616 14.4145C4.52853 14.3952 5.29308 13.5994 5.27383 12.6371C5.25458 11.6747 4.45881 10.9101 3.49644 10.9294C2.53406 10.9486 1.76951 11.7444 1.78876 12.7068C1.80802 13.6691 2.60378 14.4337 3.56616 14.4145Z" fill="black"/>
<path d="M1.98825 10.3303C2.64191 10.3303 3.17181 9.80037 3.17181 9.1467C3.17181 8.49304 2.64191 7.96313 1.98825 7.96313C1.33459 7.96313 0.804688 8.49304 0.804688 9.1467C0.804688 9.80037 1.33459 10.3303 1.98825 10.3303Z" fill="black"/>
<path d="M4.85985 3.0693C5.3563 3.0693 5.75876 2.66684 5.75876 2.17039C5.75876 1.67394 5.3563 1.27148 4.85985 1.27148C4.36339 1.27148 3.96094 1.67394 3.96094 2.17039C3.96094 2.66684 4.36339 3.0693 4.85985 3.0693Z" fill="black"/>
<path d="M8.54549 1.37102C8.92335 1.37102 9.22966 1.06471 9.22966 0.686853C9.22966 0.308998 8.92335 0.00268555 8.54549 0.00268555C8.16764 0.00268555 7.86133 0.308998 7.86133 0.686853C7.86133 1.06471 8.16764 1.37102 8.54549 1.37102Z" fill="black"/>
<path d="M12.3799 1.79511C12.6943 1.79511 12.9492 1.54022 12.9492 1.2258C12.9492 0.911382 12.6943 0.656494 12.3799 0.656494C12.0654 0.656494 11.8105 0.911382 11.8105 1.2258C11.8105 1.54022 12.0654 1.79511 12.3799 1.79511Z" fill="black"/>
<path d="M15.4772 4.11239C15.7117 4.11239 15.9017 3.92235 15.9017 3.68791C15.9017 3.45348 15.7117 3.26343 15.4772 3.26343C15.2428 3.26343 15.0527 3.45348 15.0527 3.68791C15.0527 3.92235 15.2428 4.11239 15.4772 4.11239Z" fill="black"/>
<path d="M16.9556 8.28717C17.5017 8.28717 17.9444 7.84447 17.9444 7.29837C17.9444 6.75227 17.5017 6.30957 16.9556 6.30957C16.4095 6.30957 15.9668 6.75227 15.9668 7.29837C15.9668 7.84447 16.4095 8.28717 16.9556 8.28717Z" fill="black"/>
<path d="M16.421 11.9929C16.9092 11.9929 17.305 11.5972 17.305 11.109C17.305 10.6208 16.9092 10.2251 16.421 10.2251C15.9329 10.2251 15.5371 10.6208 15.5371 11.109C15.5371 11.5972 15.9329 11.9929 16.421 11.9929Z" fill="black"/>
<path d="M14.0681 14.8345C14.4487 14.8345 14.7573 14.5259 14.7573 14.1453C14.7573 13.7647 14.4487 13.4562 14.0681 13.4562C13.6875 13.4562 13.3789 13.7647 13.3789 14.1453C13.3789 14.5259 13.6875 14.8345 14.0681 14.8345Z" fill="black"/>
<path d="M10.3939 15.9983C10.6449 15.9983 10.8483 15.7948 10.8483 15.5438C10.8483 15.2928 10.6449 15.0894 10.3939 15.0894C10.1429 15.0894 9.93945 15.2928 9.93945 15.5438C9.93945 15.7948 10.1429 15.9983 10.3939 15.9983Z" fill="black"/>
<path d="M6.73258 15.3237C6.90634 15.3237 7.0472 15.1829 7.0472 15.0091C7.0472 14.8353 6.90634 14.6945 6.73258 14.6945C6.55883 14.6945 6.41797 14.8353 6.41797 15.0091C6.41797 15.1829 6.55883 15.3237 6.73258 15.3237Z" fill="black"/>
<path d="M2.77118 6.99698C3.6965 6.94573 4.40508 6.15407 4.35383 5.22875C4.30258 4.30343 3.51092 3.59485 2.5856 3.6461C1.66028 3.69735 0.951701 4.48901 1.00295 5.41433C1.0542 6.33965 1.84586 7.04823 2.77118 6.99698Z" fill="black"/>
<path d="M6.47266 6.74948L7.86597 5.95544L7.86098 10.5748L6.47266 11.3589V6.74948Z" fill="black"/>
<path d="M12.0254 6.74948L13.4187 5.95544L13.4137 10.5748L12.0254 11.3589V6.74948Z" fill="black"/>
<path d="M9.24414 6.74948L10.6374 5.95544L10.6324 10.5748L9.24414 11.3589V6.74948Z" fill="black"/>
<path d="M5.125 5.92536L6.48834 5.12134L7.86666 5.95532L6.47336 6.74936L5.125 5.92536Z" fill="black"/>
<path d="M7.89062 5.92536L9.25397 5.12134L10.6323 5.95532L9.24398 6.74936L7.89062 5.92536Z" fill="black"/>
<path d="M10.6777 5.93086L12.0411 5.12683L13.4194 5.96082L12.0261 6.75486L10.6777 5.93086Z" fill="black"/>
</g>
<defs>
<clipPath id="clip0_2_3582">
<rect width="17.1433" height="16" fill="white" transform="translate(0.802734 0.000244141)"/>
</clipPath>
</defs>
</svg>
