<svg width="17" height="16" viewBox="0 0 17 16" fill="none" xmlns="http://www.w3.org/2000/svg">
<g clip-path="url(#clip0_2_3584)">
<path d="M8.48047 16.0002C12.8987 16.0002 16.4805 12.4185 16.4805 8.00024C16.4805 3.58197 12.8987 0.000244141 8.48047 0.000244141C4.06219 0.000244141 0.480469 3.58197 0.480469 8.00024C0.480469 12.4185 4.06219 16.0002 8.48047 16.0002Z" fill="#00ADEF"/>
<path fill-rule="evenodd" clip-rule="evenodd" d="M7.91197 13.4932C5.14047 13.2027 2.98047 10.8542 2.98047 8.00024C2.98047 5.14624 5.14047 2.79774 7.91197 2.50724V4.19224C7.00276 4.33239 6.17378 4.79346 5.57514 5.49198C4.9765 6.19051 4.64777 7.0803 4.64847 8.00024C4.64777 8.92019 4.9765 9.80998 5.57514 10.5085C6.17378 11.207 7.00276 11.6681 7.91197 11.8082V13.4932ZM8.99947 2.50024C11.6145 2.73974 13.701 4.80874 13.9735 7.41874H12.292C12.1669 6.59577 11.7784 5.8355 11.1848 5.25191C10.5912 4.66831 9.82445 4.29283 8.99947 4.18174V2.50024ZM13.9805 8.50874C13.7395 11.1537 11.6385 13.2587 8.99947 13.5002V11.8187C9.83698 11.706 10.6141 11.3208 11.2111 10.7226C11.808 10.1245 12.1915 9.34649 12.3025 8.50874H13.9805Z" fill="white"/>
</g>
<defs>
<clipPath id="clip0_2_3584">
<rect width="16" height="16" fill="white" transform="translate(0.480469 0.000244141)"/>
</clipPath>
</defs>
</svg>
