<svg width="17" height="16" viewBox="0 0 17 16" fill="none" xmlns="http://www.w3.org/2000/svg">
<g clip-path="url(#clip0_2_3587)">
<path d="M8.48047 16.0002C12.8987 16.0002 16.4805 12.4185 16.4805 8.00024C16.4805 3.58197 12.8987 0.000244141 8.48047 0.000244141C4.06219 0.000244141 0.480469 3.58197 0.480469 8.00024C0.480469 12.4185 4.06219 16.0002 8.48047 16.0002Z" fill="black"/>
<path d="M14.6833 8.85807C14.4883 9.11982 14.1973 9.2934 13.8743 9.34066C13.5513 9.38792 13.2228 9.30497 12.9609 9.11007C12.6992 8.91503 12.5256 8.62403 12.4783 8.30104C12.4311 7.97805 12.514 7.64952 12.7089 7.38767C12.904 7.12592 13.195 6.95233 13.518 6.90508C13.8409 6.85782 14.1695 6.94076 14.4313 7.13567C14.5271 7.207 14.612 7.29189 14.6833 7.38767L15.0297 7.13967C14.769 6.78513 14.3781 6.54863 13.9431 6.48218C13.5081 6.41572 13.0644 6.52474 12.7097 6.78527C12.3552 7.046 12.1187 7.43685 12.0522 7.8719C11.9858 8.30694 12.0948 8.75058 12.3553 9.10527C12.6161 9.45981 13.0069 9.6963 13.442 9.76276C13.877 9.82922 14.3206 9.7202 14.6753 9.45967C14.8107 9.36015 14.9302 9.24066 15.0297 9.10527L14.6833 8.85807Z" fill="white"/>
<path d="M10.5304 6.21082L10.2904 6.71002L8.86719 9.78122H9.33119L9.65999 9.07002H11.3912L11.7208 9.78122H12.1872L10.7632 6.71002L10.5304 6.21082ZM9.86239 8.64762L10.5304 7.20762L11.1968 8.64762H9.86239Z" fill="white"/>
<path d="M3.61969 8.12586L2.42049 6.92666L2.38769 6.89386L1.96289 6.46826V6.46906V7.07146V9.78025H2.38769V7.49626L3.31889 8.42746L3.61969 8.72826L3.91969 8.42746L4.85089 7.49626V9.78025H5.27569V7.07146V6.46906L4.85089 6.89386L3.61969 8.12586Z" fill="white"/>
<path d="M7.35727 6.46924C6.91701 6.46924 6.49478 6.64413 6.18347 6.95544C5.87216 7.26675 5.69727 7.68898 5.69727 8.12924C5.69727 8.5695 5.87216 8.99172 6.18347 9.30304C6.49478 9.61435 6.91701 9.78924 7.35727 9.78924C7.79752 9.78924 8.21975 9.61435 8.53106 9.30304C8.84237 8.99172 9.01727 8.5695 9.01727 8.12924C9.01727 7.68898 8.84237 7.26675 8.53106 6.95544C8.21975 6.64413 7.79752 6.46924 7.35727 6.46924ZM7.35727 9.35724C7.19541 9.35745 7.0351 9.32576 6.88549 9.26399C6.73589 9.20222 6.59992 9.11158 6.48536 8.99724C6.3708 8.8829 6.27989 8.74711 6.21783 8.59763C6.15577 8.44814 6.12377 8.28789 6.12367 8.12604C6.12346 7.96418 6.15514 7.80387 6.21691 7.65427C6.27868 7.50466 6.36932 7.36869 6.48366 7.25413C6.598 7.13957 6.73379 7.04866 6.88328 6.9866C7.03276 6.92454 7.19301 6.89254 7.35487 6.89244C7.51665 6.89233 7.67688 6.9241 7.82639 6.98591C7.97591 7.04773 8.11178 7.13839 8.22625 7.25272C8.34073 7.36704 8.43157 7.5028 8.49358 7.65223C8.55559 7.80167 8.58756 7.96185 8.58767 8.12364C8.5883 8.2857 8.55695 8.44629 8.49542 8.59621C8.43389 8.74613 8.34338 8.88244 8.22909 8.99733C8.11479 9.11222 7.97895 9.20343 7.82935 9.26574C7.67975 9.32805 7.51932 9.36023 7.35727 9.36044V9.35724Z" fill="white"/>
<path d="M8.05856 7.53704C8.12218 7.53704 8.17376 7.48546 8.17376 7.42184C8.17376 7.35822 8.12218 7.30664 8.05856 7.30664C7.99494 7.30664 7.94336 7.35822 7.94336 7.42184C7.94336 7.48546 7.99494 7.53704 8.05856 7.53704Z" fill="white"/>
<path d="M8.05856 8.93963C8.12218 8.93963 8.17376 8.88805 8.17376 8.82443C8.17376 8.76081 8.12218 8.70923 8.05856 8.70923C7.99494 8.70923 7.94336 8.76081 7.94336 8.82443C7.94336 8.88805 7.99494 8.93963 8.05856 8.93963Z" fill="white"/>
<path d="M6.65426 7.53704C6.71789 7.53704 6.76946 7.48546 6.76946 7.42184C6.76946 7.35822 6.71789 7.30664 6.65426 7.30664C6.59064 7.30664 6.53906 7.35822 6.53906 7.42184C6.53906 7.48546 6.59064 7.53704 6.65426 7.53704Z" fill="white"/>
<path d="M6.36309 8.18187C6.39534 8.18187 6.42149 8.15572 6.42149 8.12347C6.42149 8.09121 6.39534 8.06506 6.36309 8.06506C6.33083 8.06506 6.30469 8.09121 6.30469 8.12347C6.30469 8.15572 6.33083 8.18187 6.36309 8.18187Z" fill="white"/>
<path d="M7.35723 9.17711C7.38948 9.17711 7.41563 9.15096 7.41563 9.11871C7.41563 9.08645 7.38948 9.0603 7.35723 9.0603C7.32497 9.0603 7.29883 9.08645 7.29883 9.11871C7.29883 9.15096 7.32497 9.17711 7.35723 9.17711Z" fill="white"/>
<path d="M8.34942 8.18187C8.38167 8.18187 8.40782 8.15572 8.40782 8.12347C8.40782 8.09121 8.38167 8.06506 8.34942 8.06506C8.31716 8.06506 8.29102 8.09121 8.29102 8.12347C8.29102 8.15572 8.31716 8.18187 8.34942 8.18187Z" fill="white"/>
<path d="M7.35723 7.19077C7.38948 7.19077 7.41563 7.16463 7.41563 7.13237C7.41563 7.10012 7.38948 7.07397 7.35723 7.07397C7.32497 7.07397 7.29883 7.10012 7.29883 7.13237C7.29883 7.16463 7.32497 7.19077 7.35723 7.19077Z" fill="white"/>
<path d="M7.35723 7.48033C7.38948 7.48033 7.41563 7.45418 7.41563 7.42192C7.41563 7.38967 7.38948 7.36353 7.35723 7.36353C7.32497 7.36353 7.29883 7.38967 7.29883 7.42192C7.29883 7.45418 7.32497 7.48033 7.35723 7.48033Z" fill="white"/>
<path d="M6.65426 8.93963C6.71789 8.93963 6.76946 8.88805 6.76946 8.82443C6.76946 8.76081 6.71789 8.70923 6.65426 8.70923C6.59064 8.70923 6.53906 8.76081 6.53906 8.82443C6.53906 8.88805 6.59064 8.93963 6.65426 8.93963Z" fill="white"/>
<path d="M7.35739 8.93963C7.42101 8.93963 7.47259 8.88805 7.47259 8.82443C7.47259 8.76081 7.42101 8.70923 7.35739 8.70923C7.29376 8.70923 7.24219 8.76081 7.24219 8.82443C7.24219 8.88805 7.29376 8.93963 7.35739 8.93963Z" fill="white"/>
<path d="M8.07951 7.42188H8.03711V8.82507H8.07951V7.42188Z" fill="white"/>
<path d="M8.0575 7.41504H6.6543V7.42944H8.0575V7.41504Z" fill="white"/>
<path d="M7.36445 7.41911L7.35156 7.42554L8.05194 8.82842L8.06482 8.82199L7.36445 7.41911Z" fill="white"/>
<path d="M7.3521 7.4183L6.65039 8.82141L6.66327 8.82785L7.36498 7.42474L7.3521 7.4183Z" fill="white"/>
<path d="M6.67521 7.42188H6.63281V8.82507H6.67521V7.42188Z" fill="white"/>
<path d="M8.0575 8.81714H6.6543V8.83155H8.0575V8.81714Z" fill="white"/>
<path d="M6.67464 7.41316L6.63672 7.43213L7.33843 8.83524L7.37635 8.81627L6.67464 7.41316Z" fill="white"/>
<path d="M8.0396 7.41255L7.33789 8.81567L7.37581 8.83464L8.07752 7.43152L8.0396 7.41255Z" fill="white"/>
<path d="M6.64814 7.42024L6.35742 8.12244L6.37073 8.12794L6.66144 7.42575L6.64814 7.42024Z" fill="white"/>
<path d="M6.64862 8.82854L6.35742 8.12774L6.37022 8.12134L6.66222 8.82214L6.64862 8.82854Z" fill="white"/>
<path d="M7.36401 8.82446H7.34961V9.11726H7.36401V8.82446Z" fill="white"/>
<path d="M7.36401 7.12976H7.34961V7.42256H7.36401V7.12976Z" fill="white"/>
<path d="M7.3538 7.12488L6.65234 7.41528L6.65785 7.42859L7.35931 7.13818L7.3538 7.12488Z" fill="white"/>
<path d="M7.35902 7.12525L7.35352 7.13855L8.05571 7.42928L8.06122 7.41597L7.35902 7.12525Z" fill="white"/>
<path d="M8.06408 7.41905L8.05078 7.42456L8.34174 8.12667L8.35504 8.12115L8.06408 7.41905Z" fill="white"/>
<path d="M8.34211 8.12115L8.05078 8.82483L8.06409 8.83034L8.35542 8.12666L8.34211 8.12115Z" fill="white"/>
<path d="M8.05737 8.81969L7.35352 9.11267L7.35905 9.12597L8.06291 8.83298L8.05737 8.81969Z" fill="white"/>
<path d="M7.35359 9.12433L6.65039 8.83153L6.65519 8.81873L7.35919 9.11153L7.35359 9.12433Z" fill="white"/>
</g>
<defs>
<clipPath id="clip0_2_3587">
<rect width="16" height="16" fill="white" transform="translate(0.480469 0.000244141)"/>
</clipPath>
</defs>
</svg>
