<svg width="17" height="16" viewBox="0 0 17 16" fill="none" xmlns="http://www.w3.org/2000/svg">
<g clip-path="url(#clip0_2_3588)">
<path d="M8.48047 16.0002C12.8987 16.0002 16.4805 12.4185 16.4805 8.00024C16.4805 3.58197 12.8987 0.000244141 8.48047 0.000244141C4.06219 0.000244141 0.480469 3.58197 0.480469 8.00024C0.480469 12.4185 4.06219 16.0002 8.48047 16.0002Z" fill="#01A64F"/>
<path d="M10.812 3.99624C11.42 4.64624 11.7305 5.46224 11.7305 6.41624C11.7305 7.38474 11.42 8.20124 10.8115 8.85124C10.325 9.36274 9.74397 9.66674 9.06847 9.77774V10.3447H10.4465V10.9672H9.05447V11.2992H10.4465V11.8797H9.06847V13.0002H7.89247V11.8802H6.52747V11.2992H7.90597V10.9672H6.52797V10.3447H7.89297V9.76374C7.23047 9.65324 6.64947 9.34874 6.16297 8.83724C5.54147 8.18724 5.23047 7.37074 5.23047 6.40274C5.23047 5.42074 5.52797 4.60474 6.14947 3.96824C6.77047 3.31824 7.54147 3.00024 8.48747 3.00024C9.41997 3.00024 10.19 3.31824 10.812 3.99624ZM9.54147 7.68924C9.79797 7.35724 9.93347 6.92824 9.93347 6.40274C9.93347 5.89124 9.79847 5.46274 9.51447 5.13024C9.24447 4.78474 8.89297 4.61874 8.48747 4.61874C8.06847 4.61874 7.71747 4.78474 7.44697 5.11674C7.17597 5.44874 7.04097 5.86324 7.04097 6.38924C7.04097 6.92824 7.17647 7.35724 7.44697 7.68924C7.71747 8.02124 8.06847 8.18724 8.48697 8.18724C8.91997 8.18724 9.28447 8.02124 9.54147 7.68924Z" fill="white"/>
</g>
<defs>
<clipPath id="clip0_2_3588">
<rect width="16" height="16" fill="white" transform="translate(0.480469 0.000244141)"/>
</clipPath>
</defs>
</svg>
