<svg width="18" height="16" viewBox="0 0 18 16" fill="none" xmlns="http://www.w3.org/2000/svg">
<g clip-path="url(#clip0_2_3591)">
<path d="M16.7987 7.99946C16.7987 12.4172 13.2177 15.9986 8.79974 15.9986C4.38174 15.9986 0.800781 12.4172 0.800781 7.99946C0.800781 3.58176 4.38183 0.000244141 8.79974 0.000244141C13.2176 0.000244141 16.7987 3.58142 16.7987 7.99946Z" fill="white"/>
<path d="M8.79889 0.000244141C4.38247 0.000244141 0.795166 3.58683 0.800788 7.9992C0.801895 8.88198 0.942665 9.73116 1.20687 10.5255H3.60008V3.79634L8.79889 8.99511L13.9974 3.79634V10.5256H16.3912C16.6558 9.73133 16.7958 8.88215 16.7974 7.99933C16.8049 3.58235 13.2158 0.00130896 8.79889 0.00130896V0.000244141Z" fill="#F26822"/>
<path d="M7.60114 10.1902L5.33234 7.92139V12.1556H3.59774L1.96094 12.1559C3.36493 14.4592 5.90228 16 8.79672 16C11.6912 16 14.2286 14.4589 15.6329 12.1556H12.2606V7.92139L9.99167 10.1902L8.79647 11.3854L7.60122 10.1902H7.60114Z" fill="#4D4D4D"/>
</g>
<defs>
<clipPath id="clip0_2_3591">
<rect width="17" height="16" fill="white" transform="translate(0.417969 0.000244141)"/>
</clipPath>
</defs>
</svg>
