<svg width="14" height="16" viewBox="0 0 14 16" fill="none" xmlns="http://www.w3.org/2000/svg">
<g clip-path="url(#clip0_2_3593)">
<path d="M5.96701 0.000244141C6.81047 0.528125 7.52875 1.2335 8.07183 2.06725C8.61491 2.901 8.96976 3.84311 9.11165 4.82797C9.29368 6.05976 9.16069 7.31759 8.72508 8.48407C8.28947 9.65056 7.56544 10.6877 6.62056 11.4986C5.25328 12.6649 3.15871 13.6384 0.0878906 13.2624C0.0878906 13.2624 1.0067 14.6405 3.14092 15.4609C4.61791 16.0307 6.23019 16.152 7.77579 15.8095C9.32139 15.4671 10.7316 14.6762 11.8297 13.5358C13.1052 12.2082 13.8419 10.454 13.8969 8.61377C13.8969 8.61377 14.3071 0.683886 5.96701 0.000244141Z" fill="#0099FF"/>
</g>
<defs>
<clipPath id="clip0_2_3593">
<rect width="13.8123" height="16" fill="white" transform="translate(0.0878906 0.000244141)"/>
</clipPath>
</defs>
</svg>
