<svg width="17" height="16" viewBox="0 0 17 16" fill="none" xmlns="http://www.w3.org/2000/svg">
<g clip-path="url(#clip0_2_3594)">
<path d="M8.90039 0.000244141C13.3191 0.000244141 16.9004 3.58228 16.9004 8.00024C16.9004 12.4189 13.3191 16.0002 8.90039 16.0002C4.48243 16.0002 0.900391 12.4186 0.900391 8.00024C0.900391 3.58228 4.48243 0.000244141 8.90039 0.000244141Z" fill="#F5AC37"/>
<path d="M9.19258 8.56516H12.2325C12.2973 8.56516 12.3279 8.56516 12.3325 8.4802C12.3574 8.17095 12.3574 7.85991 12.3325 7.55031C12.3325 7.49019 12.3027 7.46534 12.2375 7.46534H6.18763C6.11275 7.46534 6.09259 7.49018 6.09259 7.56039V8.45031C6.09259 8.56516 6.09259 8.56516 6.21247 8.56516H9.19258ZM11.9931 6.42529C12.0017 6.40261 12.0017 6.37777 11.9931 6.35545C11.9423 6.24493 11.8822 6.13945 11.8123 6.04045C11.7072 5.87125 11.5834 5.71537 11.4422 5.57533C11.3756 5.49072 11.2986 5.41476 11.2122 5.35032C10.7795 4.98204 10.265 4.7214 9.71207 4.59036C9.43307 4.52772 9.14794 4.49783 8.8621 4.50036H6.17719C6.10231 4.50036 6.09223 4.53024 6.09223 4.5954V6.37021C6.09223 6.44509 6.09223 6.46525 6.18727 6.46525H11.9571C11.9571 6.46525 12.0071 6.45517 12.0172 6.42529H11.9927H11.9931ZM11.9931 9.60521C11.9081 9.59585 11.8224 9.59585 11.7375 9.60521H6.19267C6.11779 9.60521 6.09259 9.60521 6.09259 9.70529V11.4405C6.09259 11.5204 6.09259 11.5406 6.19267 11.5406H8.75266C8.87506 11.5499 8.99746 11.5413 9.11734 11.5157C9.48887 11.4891 9.85427 11.4085 10.2028 11.2756C10.3295 11.2317 10.4519 11.1745 10.5674 11.1057H10.6024C11.2025 10.7936 11.6899 10.3033 11.9974 9.70133C11.9974 9.70133 12.0323 9.62573 11.9931 9.60593V9.60521ZM5.08782 12.4402V12.4104V11.2454V10.8505V9.67541C5.08782 9.61025 5.08782 9.60053 5.0079 9.60053H3.92285C3.86273 9.60053 3.83789 9.60053 3.83789 9.52061V8.57056H4.99782C5.06262 8.57056 5.08782 8.57056 5.08782 8.48559V7.54563C5.08782 7.4855 5.08782 7.47074 5.0079 7.47074H3.92285C3.86273 7.47074 3.83789 7.47074 3.83789 7.39082V6.51098C3.83789 6.45589 3.83789 6.44113 3.91781 6.44113H4.99278C5.06766 6.44113 5.08782 6.44113 5.08782 6.34609V3.65111C5.08782 3.57119 5.08782 3.55103 5.1879 3.55103H8.9377C9.20987 3.56183 9.48023 3.59171 9.74771 3.64103C10.2989 3.74291 10.8284 3.93983 11.3126 4.22099C11.6338 4.40999 11.9293 4.63824 12.1925 4.90104C12.3905 5.1066 12.5691 5.32908 12.7275 5.56597C12.8848 5.80609 13.0155 6.06277 13.1181 6.33097C13.1307 6.40081 13.1976 6.44797 13.2675 6.43609H14.1624C14.2773 6.43609 14.2773 6.43609 14.2823 6.54626V7.36634C14.2823 7.44626 14.2524 7.46642 14.1722 7.46642H13.482C13.4122 7.46642 13.392 7.46642 13.3971 7.55643C13.4244 7.86099 13.4244 8.16663 13.3971 8.4712C13.3971 8.55616 13.3971 8.56624 13.4925 8.56624H14.282C14.3169 8.61124 14.282 8.65624 14.282 8.7016C14.287 8.75956 14.287 8.81824 14.282 8.8762V9.48136C14.282 9.56632 14.2571 9.59153 14.1819 9.59153H13.2369C13.171 9.57893 13.1069 9.62105 13.0918 9.68657C12.8668 10.2716 12.5068 10.7961 12.0417 11.2166C11.8717 11.3696 11.6932 11.5136 11.5067 11.6464C11.3065 11.7616 11.1118 11.8815 10.9066 11.9766C10.5289 12.1465 10.1329 12.2718 9.72647 12.3513C9.34055 12.4204 8.94922 12.4518 8.55646 12.4464H5.08638V12.4413L5.08782 12.4402Z" fill="#FEFEFD"/>
</g>
<defs>
<clipPath id="clip0_2_3594">
<rect width="16" height="16" fill="white" transform="translate(0.900391 0.000244141)"/>
</clipPath>
</defs>
</svg>
