<svg width="32" height="16" viewBox="0 0 32 16" fill="none" xmlns="http://www.w3.org/2000/svg">
<g clip-path="url(#clip0_2_3596)">
<path d="M31.4891 10.3342L21.2482 0.0932679C21.1263 -0.0286479 20.894 -0.0286479 20.7721 0.0932679L15.7446 5.10343L10.8157 0.174546C10.6821 0.0410188 10.4731 0.0410188 10.3396 0.174546L8.80116 1.68398L3.14659 7.22825L1.91001 8.4416L0.0928886 10.2123C0.0232224 10.2819 0 10.3632 0 10.4561C0 10.549 0.040639 10.6303 0.0928886 10.6999L5.20174 15.8088C5.33527 15.9423 5.55588 15.9423 5.67779 15.8088L10.5835 10.9089L15.553 15.8785C15.6865 16.012 15.9071 16.012 16.029 15.8785L20.9463 10.9612L25.8926 15.9075C25.9623 15.9772 26.0435 16.0004 26.1364 16.0004C26.2293 16.0004 26.3106 15.9714 26.3803 15.9075L31.4891 10.7986C31.5588 10.729 31.582 10.6477 31.582 10.5548C31.582 10.4561 31.553 10.3864 31.4891 10.3342ZM30.5718 10.758L27.6343 9.67817L26.2874 6.77542L27.0653 6.88572L30.7576 10.578L30.5718 10.758ZM28.9115 12.4184L28.0406 10.5548L30.0435 11.2921L28.9115 12.4184ZM8.69086 5.7014L4.55152 6.81605L8.69086 2.74639V5.7014ZM3.55298 7.78558L6.45573 7.00764L6.26415 10.2761L2.7344 8.59835L3.55298 7.78558ZM7.15239 6.82186L7.66909 6.68833L9.04499 8.80154L6.89115 11.1876L7.15239 6.82186ZM9.50363 8.26163L8.34833 6.49095L9.00435 6.31678L10.6531 6.99603L9.50363 8.26163ZM9.3701 5.73042V4.49385L13.2946 4.81896L14.2758 7.76235L9.3701 5.73042ZM12.6909 9.55626L14.0958 10.4155L14.328 13.6956L12.3425 11.7217L12.6909 9.55626ZM14.6009 9.92781L12.8186 8.82476L12.9521 7.96555L14.6299 8.66221C14.6705 8.69124 14.7112 8.71446 14.7634 8.71446L16.4528 9.42273L17.1611 11.5185L14.6009 9.92781ZM17.1437 9.32404L18.984 8.37193L17.6372 10.7696L17.1437 9.32404ZM19.6923 7.25727L17.9913 8.13971L18.3977 5.25437L20.7663 6.69994L19.6923 7.25727ZM21.4746 6.32839L18.299 4.39515L17.7417 4.05263L18.5776 3.22244L22.1887 4.39515L22.5312 5.78267L21.4746 6.32839ZM23.2046 5.66076L22.3628 2.16003L26.2874 6.08456L23.2046 5.66076ZM23.2337 6.34581L23.9536 6.4387L24.7315 13.7653L22.6589 11.6927L23.2337 6.34581ZM24.6386 6.549L25.4978 6.67092L26.7228 9.31243L25.225 12.0933L24.6386 6.549ZM20.9985 0.813152L21.4223 1.23695L21.9971 3.62302L19.1234 2.69414L20.9985 0.813152ZM15.9768 5.84073L17.2598 4.55771L17.7649 4.87121L17.2482 8.52288L16.7199 8.79574L15.0885 8.1281L13.7533 4.11068L15.4949 5.85234C15.6343 5.96264 15.8374 5.96264 15.9768 5.84073ZM10.566 0.911846L12.6792 3.01925L13.045 4.1223L9.3701 3.8088V2.07875L10.566 0.911846ZM2.2061 9.10923L6.2119 11.0018L6.1016 12.8015L2.51959 12.1745L0.818578 10.4735L2.2061 9.10923ZM5.43396 15.1005L3.34978 13.0163L6.04354 13.4924L5.97387 14.5432L5.43396 15.1005ZM10.3338 10.1949L6.71118 13.8175L6.80406 12.2674L6.81567 12.2558L11.3091 7.2863L12.3019 7.69269L12.0987 8.94668L11.7446 11.1237L10.8157 10.1949C10.688 10.0613 10.4731 10.0613 10.3338 10.1949ZM15.7968 15.1702L15.0595 14.4329L14.8157 10.8509L17.5094 12.5113L17.7533 13.2195L15.7968 15.1702ZM20.9579 10.1542C20.8766 10.1542 20.7837 10.1833 20.7141 10.2471L18.2758 12.6854L17.9216 11.6346L20.0871 7.79138L22.5254 6.53739L22.0377 11.0715L21.2075 10.2413C21.1379 10.1833 21.0392 10.1542 20.9579 10.1542ZM26.1364 15.1934L25.4804 14.5374L25.3469 13.2834L27.0769 10.0671L28.4006 12.9293L26.1364 15.1934Z" fill="url(#paint0_linear_2_3596)"/>
</g>
<defs>
<linearGradient id="paint0_linear_2_3596" x1="-0.000586154" y1="8.0003" x2="31.5819" y2="8.0003" gradientUnits="userSpaceOnUse">
<stop stop-color="#C51F5D"/>
<stop offset="1" stop-color="#2F2361"/>
</linearGradient>
<clipPath id="clip0_2_3596">
<rect width="31.582" height="16" fill="white" transform="translate(0 0.000244141)"/>
</clipPath>
</defs>
</svg>
