<svg width="37" height="16" viewBox="0 0 37 16" fill="none" xmlns="http://www.w3.org/2000/svg">
<g clip-path="url(#clip0_2_3599)">
<path d="M3.19895 15.7637C4.64424 15.7637 5.81587 14.5921 5.81587 13.1468C5.81587 11.7015 4.64424 10.5299 3.19895 10.5299C1.75367 10.5299 0.582031 11.7015 0.582031 13.1468C0.582031 14.5921 1.75367 15.7637 3.19895 15.7637Z" fill="black"/>
<path d="M34.3839 0.171509C32.9672 0.171509 31.7669 1.31707 31.7669 2.78843C31.7669 4.86095 31.439 5.40535 29.15 5.40535H28.9314C27.624 5.51465 26.5878 6.60556 26.5878 7.96762V8.02227C26.5878 10.0401 26.2052 10.5299 23.9708 10.5299C23.8615 10.5299 23.7522 10.5299 23.6976 10.5845C22.3902 10.7485 21.3539 11.8394 21.3539 13.1468C21.3539 14.5635 22.4995 15.7637 23.9708 15.7637C25.3329 15.7637 26.4785 14.6728 26.5331 13.3654V13.1468C26.5331 11.2929 27.1322 10.5845 29.0954 10.5299H29.15C30.5121 10.5299 31.6576 9.43898 31.7123 8.07692V7.91297C31.7123 6.0044 32.3114 5.29605 34.3292 5.29605C35.7459 5.29605 36.9461 4.15049 36.9461 2.67913C36.9461 1.31707 35.8006 0.171509 34.3839 0.171509ZM19.0103 5.40535H18.7917C16.5026 5.40535 16.1747 4.86095 16.1747 2.78843C16.1747 1.37172 15.0292 0.171509 13.5578 0.171509C12.1411 0.171509 10.9409 1.31707 10.9409 2.78843C10.9409 4.86095 10.613 5.3507 8.32399 5.3507H8.10538C6.79798 5.46 5.76172 6.55091 5.76172 7.91297C5.76172 9.32968 6.90728 10.5299 8.37864 10.5299C9.7407 10.5299 10.8863 9.43898 10.9409 8.13157V7.96762C10.9409 6.05905 11.54 5.3507 13.5578 5.3507C15.5757 5.3507 16.1747 6.05905 16.1747 7.91297C16.1747 9.32968 17.3203 10.5299 18.7917 10.5299C20.263 10.5299 21.4086 9.38433 21.4086 7.91297C21.3539 6.60556 20.3177 5.51465 19.0103 5.40535Z" fill="black"/>
</g>
<defs>
<clipPath id="clip0_2_3599">
<rect width="36.3636" height="16" fill="white" transform="translate(0.582031 0.000244141)"/>
</clipPath>
</defs>
</svg>
