<svg width="17" height="16" viewBox="0 0 17 16" fill="none" xmlns="http://www.w3.org/2000/svg">
<g clip-path="url(#clip0_2_3601)">
<path d="M8.94531 16.0002C13.3636 16.0002 16.9453 12.4185 16.9453 8.00024C16.9453 3.58197 13.3636 0.000244141 8.94531 0.000244141C4.52703 0.000244141 0.945312 3.58197 0.945312 8.00024C0.945312 12.4185 4.52703 16.0002 8.94531 16.0002Z" fill="#50479E"/>
<path d="M11.1253 6.83002V9.22202L8.97181 10.4055V8.01452L11.1248 6.83102L11.1253 6.83002ZM13.6953 6.21702V9.78252C13.6953 10.036 13.6253 10.284 13.4938 10.4995C13.3638 10.7145 13.1753 10.897 12.9418 11.0255L11.3358 11.908V9.55502L11.5388 9.44352V6.60402L13.5058 5.52252C13.6278 5.73252 13.6953 5.97002 13.6953 6.21752V6.21702ZM4.94881 11.0255C4.72988 10.9059 4.54492 10.7327 4.41131 10.522C4.27074 10.3011 4.19583 10.0448 4.19531 9.78302V7.50002L6.40731 9.22752V9.32352L6.41081 9.42252L6.58281 9.52402L8.79081 10.738L8.97281 10.838V13C8.70029 13.0055 8.43107 12.9396 8.19181 12.809L4.94881 11.025V11.0255ZM4.85681 5.03002L7.19531 3.75002L8.78531 5.29002L6.40731 6.60152V6.80152L4.20031 8.01352L4.19531 6.21652C4.19531 5.96302 4.26531 5.71402 4.39781 5.49852C4.51381 5.30852 4.67081 5.14852 4.85681 5.02952V5.03002ZM12.9418 4.97452C13.176 5.10244 13.371 5.29171 13.5058 5.52202L11.5388 6.60352V6.58552L11.3358 6.47402L9.16881 5.28302L11.3358 4.09152L12.9418 4.97452ZM4.20031 8.01452L6.40731 6.80102V9.22752L4.20031 8.01402V8.01452ZM8.97281 5.19002V3.00002C9.22678 3.00387 9.47598 3.06961 9.69881 3.19152L11.3358 4.09152L9.16881 5.28252L8.97281 5.19002ZM8.79081 5.29002L6.58681 4.07902L8.28781 3.14352C8.50244 3.04475 8.73659 2.9957 8.97281 3.00002V5.19002L8.79081 5.29002ZM8.98681 10.8455L9.16881 10.7455L11.3098 11.9225L9.69881 12.8085C9.47592 12.9302 9.22674 12.9958 8.97281 12.9995V10.838L8.98681 10.8455ZM11.3358 9.55452V11.908L11.3098 11.9225L9.16881 10.7455L11.3358 9.55452Z" fill="white"/>
</g>
<defs>
<clipPath id="clip0_2_3601">
<rect width="16" height="16" fill="white" transform="translate(0.945312 0.000244141)"/>
</clipPath>
</defs>
</svg>
