<svg width="17" height="16" viewBox="0 0 17 16" fill="none" xmlns="http://www.w3.org/2000/svg">
<g clip-path="url(#clip0_2_3602)">
<path d="M8.94531 16.0002C13.3636 16.0002 16.9453 12.4185 16.9453 8.00024C16.9453 3.58197 13.3636 0.000244141 8.94531 0.000244141C4.52703 0.000244141 0.945312 3.58197 0.945312 8.00024C0.945312 12.4185 4.52703 16.0002 8.94531 16.0002Z" fill="#222222"/>
<path fill-rule="evenodd" clip-rule="evenodd" d="M7.31031 9.32774L8.88331 12.5187L9.69131 10.1322L7.31081 9.32774H7.31031ZM4.43381 7.94324L6.81581 8.75174L7.62481 6.36674L4.43381 7.94324ZM7.44931 8.95524C7.48681 8.97524 7.50231 8.98724 7.51981 8.99324C8.28781 9.25424 9.05481 9.51724 9.82481 9.77174C9.88731 9.79174 9.97631 9.77474 10.0378 9.74474C10.9183 9.31524 11.7963 8.88074 12.6743 8.44724C12.9243 8.32374 13.1733 8.19874 13.4458 8.06274C13.3858 8.03974 13.3548 8.02674 13.3223 8.01574C12.5788 7.76324 11.8353 7.50924 11.0893 7.26374C11.0105 7.24052 10.9261 7.24583 10.8508 7.27874C9.91481 7.73374 8.98231 8.19624 8.04931 8.65674C7.85481 8.75274 7.66131 8.84974 7.44931 8.95524ZM10.6988 6.92274C10.1338 5.77574 9.57581 4.64574 9.00381 3.48524L7.26381 8.61874L10.6988 6.92274ZM3.44531 8.00124C3.99231 7.73074 4.50831 7.47374 5.02531 7.21874C5.90431 6.78524 6.78331 6.35124 7.66381 5.92074C7.70743 5.90163 7.74632 5.87319 7.77777 5.83743C7.80921 5.80166 7.83244 5.75945 7.84581 5.71374C8.18981 4.68724 8.53881 3.66274 8.88681 2.63774C8.89981 2.59974 8.91531 2.56274 8.93931 2.50024C8.97431 2.56824 9.00031 2.61624 9.02431 2.66474C9.69681 4.02974 10.3683 5.39474 11.0463 6.75674C11.0793 6.82274 11.1663 6.87774 11.2408 6.90324C12.2588 7.25424 13.2788 7.59924 14.2983 7.94574C14.3368 7.95874 14.3748 7.97274 14.4453 7.99774C14.3513 8.04524 14.2818 8.08174 14.2118 8.11624C12.8978 8.76474 11.5843 9.41474 10.2683 10.0587C10.209 10.0848 10.1561 10.1236 10.1135 10.1724C10.0709 10.2213 10.0396 10.2789 10.0218 10.3412C9.68231 11.3582 9.33431 12.3722 8.98881 13.3872C8.97931 13.4152 8.96781 13.4422 8.94531 13.5002C8.85681 13.3227 8.78031 13.1712 8.70531 13.0192C8.09331 11.7782 7.48081 10.5372 6.87231 9.29424C6.85161 9.24593 6.82055 9.20275 6.78132 9.16776C6.7421 9.13277 6.69567 9.10682 6.64531 9.09174C5.62431 8.75024 4.60531 8.40174 3.58581 8.05524C3.54831 8.04224 3.51181 8.02674 3.44531 8.00124Z" fill="white"/>
</g>
<defs>
<clipPath id="clip0_2_3602">
<rect width="16" height="16" fill="white" transform="translate(0.945312 0.000244141)"/>
</clipPath>
</defs>
</svg>
