<svg width="20" height="16" viewBox="0 0 20 16" fill="none" xmlns="http://www.w3.org/2000/svg">
<g clip-path="url(#clip0_2_3605)">
<path d="M0.0644531 0.000244141V3.19884V6.39743V9.60306H3.26305V6.39743V3.19884V0.000244141H0.0644531Z" fill="#424242"/>
<path d="M15.9316 6.39746V9.60309V12.8017V16.0003H19.1302V12.8017V9.60309V6.39746H15.9316Z" fill="#424242"/>
<path d="M9.52734 0.000244141V3.19884V6.26386L12.7259 9.46246V6.39743V3.19884L9.52734 0.000244141Z" fill="#424242"/>
<path d="M6.46875 6.53809V9.60311V12.8017L9.66735 16.0003V12.8017V9.73668L6.46875 6.53809Z" fill="#424242"/>
<path d="M9.52734 0.000244141H12.7259L19.1302 6.39743H15.9316L9.52734 0.000244141Z" fill="black"/>
<path d="M0.0644531 9.60303H3.26305L9.66727 16.0002H6.46867L0.0644531 9.60303Z" fill="black"/>
<path d="M12.7259 3.19884V6.39743V9.42028L3.26367 0.000244141V3.19884V3.39567V6.39743V9.60306L6.4693 12.8017V9.60306V6.58021L15.9315 16.0002V12.8017V12.6048V9.60306V6.39743L12.7259 3.19884Z" fill="#3CC68A"/>
</g>
<defs>
<clipPath id="clip0_2_3605">
<rect width="19.065" height="16" fill="white" transform="translate(0.0644531 0.000244141)"/>
</clipPath>
</defs>
</svg>
