<svg width="17" height="16" viewBox="0 0 17 16" fill="none" xmlns="http://www.w3.org/2000/svg">
<g clip-path="url(#clip0_2_3606)">
<path d="M8.12891 16.0002C12.5472 16.0002 16.1289 12.4185 16.1289 8.00024C16.1289 3.58197 12.5472 0.000244141 8.12891 0.000244141C3.71063 0.000244141 0.128906 3.58197 0.128906 8.00024C0.128906 12.4185 3.71063 16.0002 8.12891 16.0002Z" fill="#B3BA00"/>
<path d="M6.69391 5.33224L6.62891 5.37174L9.62891 10.0002V5.36774L8.13091 4.50024L6.69391 5.33224ZM6.62891 10.5827L8.19691 11.5002L9.62891 10.6642L6.62891 6.00024V10.5827ZM5.12891 6.17824V9.82224L6.12891 10.5002V5.50024L5.12891 6.17824ZM10.1289 10.5002L11.1289 9.80674V6.19374L10.1289 5.50024V10.5002Z" fill="white"/>
<path d="M8.12891 2.00024C4.81641 2.00024 2.12891 4.68774 2.12891 8.00024C2.12891 11.3127 4.81641 14.0002 8.12891 14.0002C11.4414 14.0002 14.1289 11.3127 14.1289 8.00024C14.1289 4.68774 11.4414 2.00024 8.12891 2.00024ZM8.10391 11.8102L4.86591 9.89024V6.05624L8.10441 4.14124L11.3424 6.05624V9.89074L8.10441 11.8097L8.10391 11.8102Z" fill="white"/>
</g>
<defs>
<clipPath id="clip0_2_3606">
<rect width="16" height="16" fill="white" transform="translate(0.128906 0.000244141)"/>
</clipPath>
</defs>
</svg>
