<svg width="20" height="16" viewBox="0 0 20 16" fill="none" xmlns="http://www.w3.org/2000/svg">
<g clip-path="url(#clip0_2_3607)">
<path d="M19.173 8.77614C19.454 8.96345 19.3603 9.11955 18.892 9.24443C18.7047 9.30687 18.7047 9.33809 18.7047 9.43175C18.7047 9.6815 18.6735 9.77516 18.1428 9.86882C18.0777 9.86346 18.0126 9.87866 17.9565 9.91226C17.9005 9.94586 17.8565 9.99618 17.8306 10.0561C17.8618 10.2747 17.612 10.3996 17.0501 10.462C16.9005 10.4637 16.7565 10.5191 16.6442 10.6181C16.5506 10.8366 16.2384 10.9303 15.6452 10.9303C15.4797 10.92 15.3154 10.9639 15.1769 11.0552C14.9896 11.2425 14.5838 11.3361 13.9906 11.3049C13.8088 11.2937 13.6269 11.3258 13.4599 11.3986C13.0611 11.5871 12.6122 11.6418 12.1799 11.5547C11.9818 11.5321 11.7813 11.5426 11.5867 11.5859C11.1541 11.7334 10.6886 11.755 10.2442 11.6483C10.0478 11.6171 9.84756 11.6171 9.65107 11.6483C9.20955 11.7643 8.74429 11.7535 8.30863 11.6171C8.11645 11.5583 7.91276 11.5476 7.71546 11.5859C7.28401 11.6912 6.82896 11.6357 6.43546 11.4298C6.26748 11.3603 6.08635 11.3284 5.90473 11.3361C5.31156 11.3674 4.93692 11.3049 4.71839 11.0864C4.56708 11.0386 4.40863 11.0175 4.2501 11.0239C3.65692 11.0239 3.31351 10.8991 3.25107 10.7117C3.13886 10.6128 2.99484 10.5574 2.84522 10.5557C2.28327 10.4932 2.00229 10.3683 2.03351 10.181C2.03351 10.0874 1.93985 10.0249 1.72131 9.9937C1.19058 9.90004 1.00327 9.74394 1.15936 9.55663C1.2218 9.49419 1.15936 9.40053 0.972046 9.36931C0.503754 9.24443 0.410095 9.08833 0.691071 8.90102C0.784729 8.83858 0.75351 8.74492 0.628632 8.68248C0.253998 8.52638 0.253998 8.37028 0.628632 8.21419C0.75351 8.15175 0.784729 8.05809 0.691071 7.99565C0.410095 7.80833 0.503754 7.65224 0.972046 7.52736C1.15936 7.46492 1.2218 7.40248 1.15936 7.34004C1.00327 7.15272 1.19058 6.99663 1.72131 6.90297C1.78641 6.90832 1.85154 6.89313 1.90754 6.85953C1.96355 6.82593 2.00761 6.7756 2.03351 6.71565C2.00229 6.49711 2.25205 6.37223 2.814 6.3098C2.96362 6.30807 3.10764 6.25268 3.21985 6.1537C3.31351 5.93516 3.62571 5.8415 4.21888 5.81028C4.38438 5.82052 4.54873 5.77669 4.68717 5.6854C4.87449 5.49809 5.28034 5.40443 5.87351 5.43565C6.05534 5.44683 6.23722 5.41473 6.40424 5.34199C6.80297 5.15349 7.2519 5.09874 7.68424 5.18589C7.88233 5.2085 8.08279 5.19795 8.27741 5.15467C8.70995 5.00717 9.17549 4.98552 9.61985 5.09223C9.81634 5.12348 10.0165 5.12348 10.213 5.09223C10.6545 4.97628 11.1198 4.9871 11.5555 5.12345C11.7476 5.18229 11.9513 5.19301 12.1486 5.15467C12.5801 5.04934 13.0351 5.10484 13.4286 5.31077C13.5966 5.38025 13.7777 5.41221 13.9594 5.40443C14.5525 5.37321 14.9272 5.43565 15.1457 5.65419C15.2841 5.74547 15.4485 5.7893 15.614 5.77906C16.2072 5.77906 16.5506 5.90394 16.613 6.09126C16.6665 6.14352 16.7301 6.18432 16.7998 6.21116C16.8696 6.238 16.9442 6.25032 17.0189 6.24736C17.4559 6.27858 17.7057 6.40345 17.8306 6.62199C17.8565 6.68195 17.9005 6.73227 17.9565 6.76587C18.0126 6.79947 18.0777 6.81466 18.1428 6.80931C18.5486 6.80931 18.8608 7.05906 18.7047 7.24638C18.6423 7.30882 18.7047 7.4337 18.892 7.4337C19.2667 7.4337 19.454 7.71467 19.173 7.90199C19.0794 7.96443 19.0794 8.05809 19.2355 8.12053C19.6101 8.27663 19.6101 8.43272 19.2355 8.58882C19.1262 8.62004 19.095 8.7137 19.173 8.77614Z" stroke="black" stroke-width="1.5"/>
<path d="M9.29219 1.43954C9.48372 1.37219 9.64817 1.24443 9.76079 1.07551C9.8734 0.906586 9.92808 0.705644 9.91658 0.50295C9.88536 0.0346573 9.41707 -0.12144 8.8239 0.0970963C7.63756 0.50295 7.32536 1.84539 7.13805 3.18783C7.07561 3.56246 7.04439 3.96832 7.01317 4.31173C6.63712 7.14701 6.47016 10.0061 6.51366 12.8659C6.54488 13.3654 6.70097 13.9273 6.29512 14.4581C5.60829 14.5205 5.79561 14.1147 5.17122 14.3332C4.1878 14.6735 4.42195 15.9878 5.12439 15.9223C5.35994 15.9171 5.58843 15.8409 5.78 15.7037C6.99756 15.0793 7.15366 13.4559 7.37219 11.8325C7.74556 8.90257 7.92286 5.95096 7.90292 2.99739V2.96929C7.90292 2.43856 7.80927 1.56441 8.15268 1.3771C8.4961 1.18978 8.74585 1.65807 9.27658 1.43954" fill="black"/>
<path d="M13.8649 0.168994C12.6786 0.574847 12.3664 1.91729 12.1791 3.25973C12.1166 3.63436 12.0854 4.04021 12.0542 4.38363C11.6781 7.2189 11.5112 10.078 11.5547 12.9378C11.5859 13.4373 11.742 13.9992 11.3361 14.53C10.6493 14.6236 10.8366 14.1866 10.2122 14.4051C9.24444 14.7485 9.46297 16.0597 10.181 15.9973C10.4166 15.9921 10.6451 15.9159 10.8366 15.7787C12.0542 15.1544 12.2103 13.5309 12.4288 11.9075C12.8022 8.97758 12.9795 6.02598 12.9596 3.07241V3.04119C12.9596 2.51046 12.8659 1.63631 13.2093 1.44899C13.5527 1.26168 13.8025 1.69875 14.3332 1.48021C14.5247 1.41287 14.6892 1.28511 14.8018 1.11619C14.9144 0.947264 14.9691 0.746322 14.9576 0.543628C14.9264 0.106555 14.4581 -0.0495429 13.8649 0.168994Z" fill="black"/>
</g>
<defs>
<clipPath id="clip0_2_3607">
<rect width="19.6371" height="16" fill="white" transform="translate(0.128906 0.000244141)"/>
</clipPath>
</defs>
</svg>
