<svg width="20" height="16" viewBox="0 0 20 16" fill="none" xmlns="http://www.w3.org/2000/svg">
<g clip-path="url(#clip0_2_3608)">
<path d="M5.55891 0.104739L14.6154 5.33106V10.6619L0.765625 2.66563L5.20426 0.104739C5.25874 0.0753327 5.31968 0.0599365 5.38158 0.0599365C5.44349 0.0599365 5.50443 0.0753327 5.55891 0.104739Z" fill="#3CA9E5"/>
<path d="M14.6159 0.000244141L9.99805 2.66567L14.6159 5.33109V0.000244141Z" fill="#2853C3"/>
<path d="M14.6152 0.000244141L19.0576 2.56114C19.111 2.59364 19.1554 2.63905 19.1868 2.69319C19.2181 2.74733 19.2353 2.80846 19.2368 2.87099V13.3236L14.6152 10.6619V0.000244141Z" fill="#1A4199"/>
<path d="M19.2338 13.3273L14.7952 15.8882C14.7384 15.921 14.6741 15.9382 14.6085 15.9382C14.543 15.9382 14.4786 15.921 14.4219 15.8882L5.36914 10.6619V5.32361L19.2338 13.3273Z" fill="#2853C3"/>
<path d="M0.765631 2.66565V13.1183C0.765256 13.1827 0.781561 13.2461 0.812961 13.3024C0.844361 13.3587 0.889787 13.4058 0.944819 13.4393L5.38346 16.0002V5.32361L0.765631 2.66565Z" fill="#60BEFF"/>
<path d="M5.38281 15.9928L9.9969 13.3274L5.38281 10.662V15.9928Z" fill="#3CA9E5"/>
</g>
<defs>
<clipPath id="clip0_2_3608">
<rect width="18.4713" height="16" fill="white" transform="translate(0.765625 0.000244141)"/>
</clipPath>
</defs>
</svg>
