<svg width="17" height="16" viewBox="0 0 17 16" fill="none" xmlns="http://www.w3.org/2000/svg">
<g clip-path="url(#clip0_2_3611)">
<path d="M8.52344 16.0002C12.9417 16.0002 16.5234 12.4185 16.5234 8.00024C16.5234 3.58197 12.9417 0.000244141 8.52344 0.000244141C4.10516 0.000244141 0.523438 3.58197 0.523438 8.00024C0.523438 12.4185 4.10516 16.0002 8.52344 16.0002Z" fill="#F28F01"/>
<path fill-rule="evenodd" clip-rule="evenodd" d="M9.59894 6.85974L8.62844 4.95174C8.83044 4.51174 8.93144 4.26174 8.93144 4.20424C8.93144 3.99774 8.79544 3.84674 8.52394 3.75024H11.4979C11.1314 3.91524 10.8054 4.32774 10.5204 4.98824L9.59894 6.85974ZM8.14094 9.82374L7.68844 10.7437H10.3569C11.5654 10.7437 12.3734 10.5172 12.7809 10.0637L11.3549 12.2502H4.06244C4.84994 12.0987 5.64444 11.1502 6.44544 9.40324C6.71544 8.86624 6.96294 8.37024 7.18894 7.91624L8.14094 9.82374ZM3.02344 10.1252C3.61394 9.77474 5.77344 6.03924 5.77344 4.98824C5.77344 4.74074 5.62394 4.50674 5.32544 4.28674H7.64744L9.66394 8.24774L11.6199 4.28674H14.0234C13.0049 4.55474 10.9884 9.35974 10.9884 9.91874C10.9884 10.0287 11.0084 10.0977 11.0494 10.1252H8.93094L7.11794 6.49424L5.32544 10.1252H3.02344Z" fill="white"/>
</g>
<defs>
<clipPath id="clip0_2_3611">
<rect width="16" height="16" fill="white" transform="translate(0.523438 0.000244141)"/>
</clipPath>
</defs>
</svg>
