<svg width="17" height="16" viewBox="0 0 17 16" fill="none" xmlns="http://www.w3.org/2000/svg">
<g clip-path="url(#clip0_2_3612)">
<path d="M8.52344 16.0002C12.9417 16.0002 16.5234 12.4185 16.5234 8.00024C16.5234 3.58197 12.9417 0.000244141 8.52344 0.000244141C4.10516 0.000244141 0.523438 3.58197 0.523438 8.00024C0.523438 12.4185 4.10516 16.0002 8.52344 16.0002Z" fill="#36A9CF"/>
<path fill-rule="evenodd" clip-rule="evenodd" d="M13.6786 9.23801C13.7666 9.27651 13.7991 9.39601 13.7516 9.50501C13.7374 9.54113 13.714 9.57292 13.6838 9.59721C13.6535 9.62151 13.6174 9.63747 13.5791 9.64351L12.4666 11.695C12.4764 11.7408 12.4741 11.7884 12.4599 11.833C12.4457 11.8777 12.4201 11.9178 12.3856 11.9495C12.3581 11.9782 12.3246 12.0006 12.2876 12.015C12.2505 12.0294 12.2108 12.0356 12.1711 12.033L10.0016 13.332C9.98471 13.3748 9.95689 13.4123 9.92091 13.441C9.88492 13.4696 9.84204 13.4882 9.79658 13.495C9.68958 13.5155 9.58758 13.4765 9.53858 13.404L6.98958 13.2255C6.95788 13.2497 6.92118 13.2664 6.88216 13.2746C6.84314 13.2827 6.80279 13.282 6.76408 13.2725C6.63808 13.245 6.55108 13.1445 6.55608 13.041L4.58658 11.62C4.54544 11.6274 4.50313 11.6249 4.46315 11.6127C4.42316 11.6005 4.38664 11.579 4.35658 11.55C4.27058 11.472 4.23958 11.3585 4.27258 11.2725L3.46258 9.39401C3.37408 9.37651 3.29758 9.28951 3.27758 9.17451C3.26108 9.07101 3.29508 8.97351 3.35858 8.92151L3.47808 6.07801C3.45118 6.04134 3.43388 5.99852 3.42777 5.95346C3.42166 5.90839 3.42692 5.86251 3.44308 5.82001C3.48308 5.70351 3.57958 5.63001 3.67458 5.63501L5.80058 3.40751C5.78208 3.30251 5.86208 3.19101 5.98758 3.15151C6.02652 3.13822 6.068 3.13416 6.10878 3.13962C6.14956 3.14509 6.18851 3.15994 6.22258 3.18301L9.28158 2.62701C9.32108 2.53701 9.43308 2.48401 9.55408 2.50551C9.66408 2.52451 9.74658 2.60001 9.76608 2.68701L11.1791 3.49301C11.2183 3.48049 11.2597 3.4766 11.3005 3.4816C11.3413 3.48661 11.3806 3.50039 11.4156 3.52201C11.4541 3.54444 11.4871 3.57538 11.5118 3.61246C11.5366 3.64955 11.5526 3.6918 11.5586 3.73601L12.1666 4.14501C12.2058 4.13437 12.2469 4.13289 12.2868 4.1407C12.3267 4.1485 12.3643 4.16537 12.3966 4.19001C12.5106 4.27201 12.5516 4.41501 12.4866 4.51001L12.4826 4.51501L13.3741 6.25501C13.4591 6.24351 13.5461 6.30951 13.5771 6.41401C13.6111 6.52851 13.5641 6.64501 13.4731 6.67401C13.3816 6.70401 13.2801 6.63501 13.2466 6.52101L13.2406 6.49601L11.4061 5.51351C11.3769 5.55459 11.3371 5.58705 11.2911 5.60751V10.5045C11.351 10.5309 11.3999 10.5773 11.4294 10.6358C11.459 10.6942 11.4673 10.7611 11.4531 10.825L12.1981 11.584C12.2362 11.5678 12.278 11.562 12.3191 11.567L13.4441 9.57901C13.4247 9.54702 13.4136 9.5107 13.4117 9.47334C13.4099 9.43597 13.4174 9.39874 13.4336 9.36501C13.4811 9.25601 13.5911 9.19951 13.6786 9.23801ZM13.6806 9.47551C13.6996 9.43151 13.6861 9.38401 13.6511 9.36851C13.6161 9.35351 13.5721 9.37601 13.5531 9.41951C13.5341 9.46301 13.5471 9.51051 13.5826 9.52651C13.6176 9.54151 13.6611 9.51901 13.6806 9.47551ZM12.3481 11.8715C12.3881 11.8315 12.3951 11.7725 12.3636 11.7395C12.3321 11.7065 12.2741 11.712 12.2336 11.7515C12.1936 11.7915 12.1866 11.851 12.2181 11.884C12.2496 11.917 12.3081 11.9115 12.3481 11.8715ZM12.0336 11.7465L12.0391 11.7345L11.3246 11.0075C11.2818 11.0342 11.2325 11.0484 11.1821 11.0485C11.1296 11.0484 11.0782 11.0333 11.034 11.0049C10.9898 10.9766 10.9546 10.9362 10.9326 10.8885H9.97358C9.94878 10.9406 9.90865 10.9839 9.85858 11.0125L9.95208 12.366C9.98908 12.382 10.0221 12.405 10.0471 12.4335L12.0336 11.7465ZM9.94958 13.1395L11.6831 12.1015L10.1031 12.6475C10.0926 12.687 10.073 12.7235 10.0458 12.754C10.0186 12.7845 9.98462 12.8081 9.94658 12.823L9.89858 13.105C9.91711 13.1141 9.93428 13.1257 9.94958 13.1395ZM9.78708 13.4085C9.84208 13.3985 9.87958 13.3535 9.87158 13.3075C9.86358 13.2625 9.81158 13.2335 9.75658 13.2445C9.70208 13.2545 9.66408 13.2995 9.67208 13.345C9.68058 13.3905 9.73208 13.419 9.78708 13.4085ZM9.53508 13.2095C9.56827 13.1548 9.62012 13.114 9.68108 13.0945L9.72658 12.827C9.68605 12.8119 9.64958 12.7876 9.62008 12.756L7.63108 13.077L9.53508 13.2095ZM7.67458 11.0415L7.02758 12.95L9.53558 12.545L7.76108 11.005C7.73453 11.022 7.70528 11.0344 7.67458 11.0415ZM6.84208 12.819L7.45908 10.9995C7.41843 10.9713 7.38599 10.9328 7.36508 10.888H6.23708C6.23014 10.9018 6.22229 10.9152 6.21358 10.928L6.84208 12.819ZM6.76558 13.1865C6.82058 13.1985 6.87258 13.1715 6.88158 13.1265C6.89158 13.0815 6.85508 13.035 6.80008 13.0225C6.74508 13.011 6.69308 13.0375 6.68358 13.0825C6.67408 13.1285 6.71058 13.1745 6.76558 13.1865ZM4.72208 11.4805L6.62458 12.8535L6.02358 11.0455C5.98024 11.0512 5.93618 11.0464 5.89505 11.0316C5.85392 11.0168 5.81691 10.9924 5.78708 10.9605L4.72558 11.423C4.7271 11.4422 4.72609 11.4616 4.72258 11.4805H4.72208ZM4.54408 11.1815C4.57112 11.1934 4.59637 11.2091 4.61908 11.228L5.71058 10.753C5.71274 10.699 5.73007 10.6466 5.76058 10.602L4.07258 8.85751L4.54408 11.1815ZM4.53258 11.486C4.56258 11.452 4.55258 11.393 4.51108 11.355C4.46908 11.3175 4.41108 11.3145 4.38108 11.349C4.35108 11.384 4.36008 11.443 4.40208 11.4805C4.44408 11.518 4.50258 11.5205 4.53208 11.486H4.53258ZM3.63758 9.31951L4.21858 10.666L3.82908 8.74701L3.67558 9.07401C3.68804 9.11516 3.69109 9.15859 3.68452 9.20108C3.67794 9.24357 3.6619 9.28405 3.63758 9.31951ZM3.62358 7.14951L3.55358 8.82551L3.69258 8.53051C3.66963 8.48697 3.6586 8.43813 3.66062 8.38896C3.66264 8.33978 3.67763 8.29202 3.70408 8.25051L3.62358 7.14951ZM3.52358 5.82401C3.50458 5.87801 3.52508 5.93401 3.56758 5.94951C3.61058 5.96451 3.65958 5.93351 3.67808 5.87951C3.69658 5.82551 3.67708 5.76951 3.63408 5.75401C3.59108 5.73901 3.54208 5.77001 3.52308 5.82401H3.52358ZM3.94558 8.40051C3.94558 8.34351 3.90408 8.29751 3.85408 8.29751C3.80358 8.29751 3.76208 8.34351 3.76208 8.40051C3.76208 8.45801 3.80358 8.50401 3.85408 8.50401C3.90408 8.50401 3.94558 8.45801 3.94558 8.40051ZM3.83058 5.95751C3.81649 5.99997 3.79309 6.03875 3.76208 6.07101L3.90708 8.06601L4.79708 5.25151L3.84458 5.89801C3.84178 5.91823 3.83709 5.93815 3.83058 5.95751ZM5.34358 4.16501L4.12658 5.44001L4.75008 5.01701C4.75845 4.96006 4.78311 4.90676 4.82108 4.86351C4.86017 4.81705 4.91307 4.78429 4.97208 4.77001L5.34358 4.16501ZM5.97058 3.56151L5.17708 4.85251C5.19625 4.88818 5.20459 4.92866 5.20108 4.96901L5.78858 5.14951C5.81926 5.11661 5.8576 5.09181 5.90018 5.0773C5.94276 5.0628 5.98827 5.05904 6.03265 5.06636C6.07703 5.07369 6.11892 5.09187 6.15458 5.11928C6.19025 5.14669 6.21859 5.1825 6.23708 5.22351H7.22058C7.23882 5.18431 7.26594 5.14989 7.29978 5.12299C7.33363 5.09609 7.37327 5.07743 7.41558 5.06851L7.95008 3.93151C7.92126 3.89358 7.90236 3.84907 7.89508 3.80201L6.26108 3.44001C6.22404 3.49383 6.1697 3.53336 6.10708 3.55201C6.06301 3.56611 6.01623 3.56953 5.97058 3.56201V3.56151ZM5.99958 3.23501C5.94608 3.25151 5.91358 3.30101 5.92658 3.34501C5.94008 3.38951 5.99408 3.41151 6.04708 3.39501C6.10058 3.37851 6.13358 3.32901 6.12008 3.28501C6.10708 3.24051 6.05358 3.21801 5.99958 3.23501ZM9.12358 2.85301L6.65758 3.30201L7.94758 3.58751C7.98237 3.53996 8.03156 3.5049 8.08785 3.48752C8.14414 3.47013 8.20454 3.47136 8.26008 3.49101L9.12358 2.85301ZM9.42608 2.90151L8.50658 3.58151L11.0291 3.65151L11.0346 3.63251L9.69758 2.87051C9.66714 2.89281 9.6324 2.90855 9.59556 2.91672C9.55873 2.9249 9.52059 2.92534 9.48358 2.91801C9.4639 2.91447 9.44464 2.90894 9.42608 2.90151ZM9.54508 2.59201C9.49008 2.58201 9.43858 2.61101 9.43108 2.65701C9.42358 2.70201 9.46108 2.74701 9.51658 2.75701C9.57158 2.76701 9.62258 2.73801 9.63058 2.69201C9.63858 2.64701 9.60008 2.60201 9.54508 2.59201ZM11.1616 3.95451C11.1274 3.93342 11.0977 3.90591 11.0741 3.87351L8.44258 3.80051C8.44057 3.81614 8.43705 3.83155 8.43208 3.84651L9.49408 5.07101C9.55544 5.05767 9.6195 5.06555 9.67581 5.09334C9.73212 5.12113 9.77734 5.16719 9.80408 5.22401H10.9326C10.9601 5.16534 11.0071 5.118 11.0656 5.09001L11.1616 3.95451ZM11.1816 5.23351C11.1211 5.23351 11.0716 5.28451 11.0716 5.34701C11.0716 5.40951 11.1211 5.46001 11.1816 5.46001C11.2431 5.46001 11.2931 5.40951 11.2931 5.34701C11.2931 5.28451 11.2431 5.23351 11.1821 5.23351H11.1816ZM11.2311 3.63351C11.2036 3.68151 11.2241 3.74651 11.2771 3.77751C11.3296 3.80951 11.3951 3.79601 11.4221 3.74751C11.4501 3.69951 11.4296 3.63501 11.3766 3.60351C11.3236 3.57201 11.2586 3.58551 11.2311 3.63351ZM13.1886 6.29251L11.3751 3.99901L11.2836 5.08351C11.3321 5.10336 11.3742 5.13632 11.4051 5.1787C11.436 5.22108 11.4545 5.27121 11.4586 5.32351L13.1886 6.29251ZM12.0421 4.29401L11.6351 4.02101L12.9486 5.73101L12.3096 4.58751C12.2562 4.58336 12.2049 4.5645 12.1616 4.53301C12.0766 4.47251 12.0316 4.37801 12.0416 4.29401H12.0421ZM12.2321 4.26551C12.2061 4.30351 12.2221 4.36051 12.2681 4.39351C12.3136 4.42601 12.3721 4.42201 12.3981 4.38351C12.4241 4.34601 12.4081 4.28851 12.3626 4.25601C12.3161 4.22351 12.2581 4.22751 12.2326 4.26601L12.2321 4.26551ZM9.44708 5.34701C9.44708 5.40801 9.49458 5.45751 9.55508 5.45751C9.58408 5.45711 9.61175 5.44528 9.63207 5.42458C9.65239 5.40389 9.66371 5.37601 9.66358 5.34701C9.66384 5.31792 9.65258 5.28991 9.63224 5.2691C9.61191 5.2483 9.58416 5.2364 9.55508 5.23601C9.52599 5.2364 9.49824 5.2483 9.47791 5.2691C9.45758 5.28991 9.44631 5.31792 9.44658 5.34701H9.44708ZM9.50658 7.73351C9.49187 7.73364 9.47733 7.73666 9.46379 7.74241C9.45025 7.74816 9.43798 7.75652 9.42767 7.76702C9.41737 7.77751 9.40923 7.78993 9.40372 7.80357C9.39821 7.81721 9.39544 7.8318 9.39558 7.84651C9.39558 7.90901 9.44558 7.96001 9.50658 7.96001C9.52129 7.95981 9.53581 7.95672 9.54933 7.95091C9.56284 7.9451 9.57508 7.93668 9.58534 7.92614C9.5956 7.9156 9.60368 7.90315 9.60913 7.88948C9.61457 7.87582 9.61728 7.86121 9.61708 7.84651C9.61728 7.83182 9.61457 7.81724 9.60912 7.80361C9.60367 7.78997 9.59557 7.77755 9.58531 7.76705C9.57504 7.75655 9.5628 7.74818 9.54929 7.74242C9.53578 7.73667 9.52126 7.73364 9.50658 7.73351ZM8.05808 3.72151C8.05808 3.78401 8.10758 3.83451 8.16858 3.83451C8.18329 3.83437 8.19782 3.83135 8.21136 3.8256C8.2249 3.81985 8.23717 3.81149 8.24748 3.801C8.25779 3.7905 8.26593 3.77808 8.27144 3.76444C8.27694 3.7508 8.27971 3.73621 8.27958 3.72151C8.27958 3.65901 8.22958 3.60801 8.16858 3.60801C8.15387 3.6082 8.13934 3.61129 8.12583 3.6171C8.11232 3.62291 8.10008 3.63133 8.08982 3.64187C8.07956 3.65241 8.07147 3.66486 8.06603 3.67853C8.06058 3.69219 8.05788 3.7068 8.05808 3.72151ZM8.13908 4.04001L7.63208 5.11751C7.68876 5.15916 7.72796 5.22038 7.74209 5.28929C7.75623 5.3582 7.74428 5.4299 7.70858 5.49051L9.39858 7.58551C9.41409 7.57908 9.43016 7.57406 9.44658 7.57051V5.60751C9.4095 5.59136 9.37631 5.56745 9.34925 5.53739C9.32219 5.50733 9.30188 5.47182 9.28971 5.43325C9.27753 5.39468 9.27376 5.35395 9.27865 5.3138C9.28355 5.27365 9.29699 5.23502 9.31808 5.20051L8.28808 4.01351C8.24184 4.03602 8.19024 4.0452 8.13908 4.04001ZM7.35908 5.34701C7.35908 5.40951 7.40908 5.46001 7.47008 5.46001C7.53058 5.46001 7.58058 5.40951 7.58058 5.34701C7.58058 5.28451 7.53058 5.23351 7.47008 5.23351C7.44033 5.2339 7.41195 5.24607 7.39114 5.26734C7.37034 5.28861 7.35881 5.31725 7.35908 5.34701ZM5.87908 5.34701C5.87908 5.40801 5.92708 5.45751 5.98708 5.45751C6.04708 5.45751 6.09558 5.40801 6.09558 5.34701C6.09558 5.28551 6.04708 5.23601 5.98708 5.23601C5.92708 5.23601 5.87908 5.28601 5.87908 5.34701ZM5.98708 10.652C5.97243 10.6522 5.95797 10.6553 5.94452 10.6611C5.93107 10.6669 5.91889 10.6752 5.90867 10.6857C5.89846 10.6962 5.89041 10.7086 5.88499 10.7222C5.87957 10.7358 5.87688 10.7504 5.87708 10.765C5.87708 10.8275 5.92608 10.878 5.98708 10.878C6.00179 10.8779 6.01632 10.8748 6.02986 10.8691C6.0434 10.8633 6.05567 10.855 6.06598 10.8445C6.07629 10.834 6.08443 10.8216 6.08994 10.8079C6.09544 10.7943 6.09821 10.7797 6.09808 10.765C6.09828 10.7503 6.09555 10.7357 6.09007 10.722C6.08459 10.7083 6.07645 10.6959 6.06613 10.6854C6.05581 10.6749 6.04351 10.6665 6.02994 10.6608C6.01637 10.6551 6.0018 10.6521 5.98708 10.652ZM4.88908 4.92201C4.85258 4.96501 4.84958 5.02451 4.88408 5.05501C4.91758 5.08501 4.97508 5.07601 5.01208 5.03251C5.04908 4.99001 5.05158 4.93051 5.01758 4.90001C4.98358 4.86901 4.92658 4.87901 4.88908 4.92201ZM4.07658 8.25151C4.1046 8.29613 4.11935 8.34781 4.11908 8.40051C4.11908 8.45551 4.10408 8.50651 4.07808 8.54801L5.87908 10.409V5.60751C5.83017 5.58596 5.78838 5.55099 5.75856 5.50665C5.72873 5.46231 5.7121 5.41042 5.71058 5.35701L5.09958 5.16951C5.0806 5.18673 5.05941 5.20136 5.03658 5.21301L4.07658 8.25151ZM9.72358 10.4815C9.84308 10.4815 9.94458 10.559 9.98358 10.6665H10.9226C10.9354 10.6307 10.9554 10.5978 10.9814 10.5699C11.0073 10.5421 11.0387 10.5198 11.0736 10.5045V5.60751C11.0387 5.59221 11.0073 5.56996 10.9813 5.5421C10.9554 5.51424 10.9354 5.48137 10.9226 5.44551H9.81458C9.80162 5.48129 9.78156 5.51408 9.75561 5.54192C9.72967 5.56976 9.69836 5.59207 9.66358 5.60751V7.61251C9.7009 7.63901 9.73129 7.67411 9.75218 7.71484C9.77307 7.75557 9.78384 7.80073 9.78358 7.84651C9.78438 7.92081 9.75566 7.9924 9.70372 8.04556C9.65179 8.09871 9.58088 8.12908 9.50658 8.13001C9.46976 8.12961 9.43339 8.12197 9.39953 8.1075C9.36568 8.09303 9.33501 8.07203 9.30928 8.0457C9.28355 8.01937 9.26327 7.98822 9.24959 7.95404C9.23592 7.91986 9.22912 7.88332 9.22958 7.84651C9.22958 7.81151 9.23558 7.77801 9.24758 7.74651L7.53358 5.62251C7.46734 5.63774 7.3978 5.62814 7.33818 5.59551C7.27855 5.56288 7.23296 5.50951 7.21008 5.44551H6.24708C6.23406 5.48133 6.21393 5.51416 6.18789 5.542C6.16185 5.56984 6.13045 5.59212 6.09558 5.60751V10.5045C6.16558 10.5345 6.22008 10.5935 6.24708 10.6665H7.35458C7.36759 10.6307 7.38773 10.5979 7.41376 10.57C7.4398 10.5422 7.4712 10.5199 7.50608 10.5045V8.46951C7.4653 8.4439 7.43169 8.40835 7.40843 8.3662C7.38516 8.32404 7.373 8.27666 7.37308 8.22851C7.37262 8.19165 7.37943 8.15507 7.39314 8.12086C7.40685 8.08664 7.42718 8.05547 7.45296 8.02913C7.47874 8.00279 7.50947 7.9818 7.54338 7.96737C7.57729 7.95293 7.61372 7.94533 7.65058 7.94501C7.69603 7.94516 7.74076 7.95638 7.7809 7.97769C7.82105 7.999 7.8554 8.02976 7.881 8.06732C7.90659 8.10488 7.92266 8.1481 7.92782 8.19326C7.93297 8.23841 7.92705 8.28415 7.91058 8.32651L9.65208 10.4915C9.67541 10.4853 9.69942 10.4819 9.72358 10.4815ZM9.84358 12.505C9.78358 12.505 9.73358 12.55 9.73358 12.606C9.73358 12.662 9.78358 12.7065 9.84358 12.7065C9.90508 12.7065 9.95508 12.6615 9.95508 12.6065C9.95508 12.5515 9.90508 12.505 9.84408 12.505H9.84358ZM9.61308 10.765C9.61308 10.8275 9.66258 10.878 9.72308 10.878C9.73783 10.8779 9.75242 10.875 9.76602 10.8692C9.77961 10.8635 9.79194 10.8552 9.8023 10.8447C9.81266 10.8342 9.82085 10.8217 9.82639 10.8081C9.83193 10.7944 9.83471 10.7798 9.83458 10.765C9.83471 10.7503 9.83194 10.7357 9.82644 10.7221C9.82093 10.7084 9.81279 10.696 9.80248 10.6855C9.79217 10.675 9.7799 10.6667 9.76636 10.6609C9.75282 10.6552 9.73829 10.6521 9.72358 10.652C9.69396 10.6524 9.66571 10.6645 9.645 10.6857C9.62429 10.7069 9.61281 10.7354 9.61308 10.765ZM7.53958 8.22851C7.53958 8.29101 7.58958 8.34151 7.65058 8.34151C7.71158 8.34151 7.76108 8.29101 7.76108 8.22851C7.76108 8.16551 7.71158 8.11551 7.65058 8.11551C7.58958 8.11551 7.53958 8.16551 7.53958 8.22851ZM7.61458 10.652C7.59987 10.6521 7.58533 10.6552 7.57179 10.6609C7.55825 10.6667 7.54598 10.675 7.53567 10.6855C7.52537 10.696 7.51723 10.7084 7.51172 10.7221C7.50621 10.7357 7.50345 10.7503 7.50358 10.765C7.50358 10.8275 7.55358 10.878 7.61458 10.878C7.67558 10.878 7.72508 10.8275 7.72508 10.765C7.72528 10.7503 7.72257 10.7357 7.71712 10.7221C7.71167 10.7085 7.70357 10.696 7.69331 10.6855C7.68304 10.675 7.6708 10.6667 7.65729 10.6609C7.64378 10.6552 7.62926 10.6521 7.61458 10.652ZM7.72258 10.5045C7.78227 10.5307 7.8311 10.5767 7.8608 10.6347C7.89049 10.6928 7.89925 10.7593 7.88558 10.823L9.68208 12.3815C9.69843 12.372 9.71568 12.3641 9.73358 12.358L9.64158 11.036C9.58458 11.0173 9.53499 10.981 9.49995 10.9323C9.46491 10.8836 9.44623 10.825 9.44658 10.765C9.44658 10.715 9.45908 10.6685 9.48158 10.6285L7.76008 8.48851C7.74795 8.49384 7.7354 8.49818 7.72258 8.50151V10.5045ZM11.2926 10.7645C11.2927 10.7499 11.29 10.7353 11.2845 10.7218C11.279 10.7082 11.2709 10.6958 11.2606 10.6854C11.2504 10.6749 11.2381 10.6666 11.2247 10.6609C11.2112 10.6552 11.1967 10.6521 11.1821 10.652C11.1674 10.6521 11.1528 10.6552 11.1393 10.6609C11.1258 10.6667 11.1135 10.675 11.1032 10.6855C11.0929 10.696 11.0847 10.7084 11.0792 10.7221C11.0737 10.7357 11.0709 10.7503 11.0711 10.765C11.0711 10.8275 11.1211 10.878 11.1821 10.878C11.2431 10.878 11.2931 10.8275 11.2931 10.765L11.2926 10.7645ZM3.43758 9.25401C3.48258 9.24651 3.51108 9.19451 3.50158 9.13851C3.49158 9.08201 3.44808 9.04251 3.40358 9.05051C3.35858 9.05801 3.33058 9.11051 3.34008 9.16651C3.34908 9.22301 3.39308 9.26251 3.43758 9.25401ZM13.4236 6.39701C13.3876 6.40851 13.3686 6.45551 13.3821 6.50101C13.3956 6.54651 13.4361 6.57401 13.4721 6.56251C13.5091 6.55101 13.5271 6.50401 13.5141 6.45851C13.5011 6.41251 13.4601 6.38551 13.4241 6.39701H13.4236Z" fill="white"/>
</g>
<defs>
<clipPath id="clip0_2_3612">
<rect width="16" height="16" fill="white" transform="translate(0.523438 0.000244141)"/>
</clipPath>
</defs>
</svg>
