<svg width="17" height="16" viewBox="0 0 17 16" fill="none" xmlns="http://www.w3.org/2000/svg">
<g clip-path="url(#clip0_2_3613)">
<path d="M8.52344 16.0002C12.9417 16.0002 16.5234 12.4185 16.5234 8.00024C16.5234 3.58197 12.9417 0.000244141 8.52344 0.000244141C4.10516 0.000244141 0.523438 3.58197 0.523438 8.00024C0.523438 12.4185 4.10516 16.0002 8.52344 16.0002Z" fill="#82BD39"/>
<path d="M7.72494 9.68024L8.52344 10.7322V13.0002L5.52344 11.6687V5.80974C5.52344 5.72324 5.56194 5.64074 5.62944 5.58324L5.97094 5.29074C6.00383 5.26229 6.04222 5.24089 6.08371 5.22787C6.12521 5.21484 6.16894 5.21046 6.2122 5.21501C6.25545 5.21955 6.29731 5.23292 6.3352 5.25429C6.37308 5.27566 6.40617 5.30458 6.43244 5.33924L9.16494 8.92124L10.6744 9.84424V4.90424L9.34044 4.23874L9.27544 7.33674L8.56944 6.40024L8.53744 3.00024L11.5234 4.38974V10.2217L10.8449 10.7807L8.70794 9.58724L6.33594 6.47574L6.30344 11.2027L7.71594 11.9262L7.72494 9.68024Z" fill="white"/>
</g>
<defs>
<clipPath id="clip0_2_3613">
<rect width="16" height="16" fill="white" transform="translate(0.523438 0.000244141)"/>
</clipPath>
</defs>
</svg>
