<svg width="15" height="16" viewBox="0 0 15 16" fill="none" xmlns="http://www.w3.org/2000/svg">
<g clip-path="url(#clip0_2_3614)">
<path d="M14.5701 10.6991C14.5705 8.89935 14.5705 7.09965 14.5701 5.29998C14.5774 5.11598 14.485 4.93285 14.3373 4.82437C12.1927 3.2574 10.0481 1.69019 7.90351 0.122737C7.83864 0.0720199 7.76367 0.0357823 7.68364 0.0164629C7.6036 -0.00285655 7.52035 -0.00480973 7.4395 0.0107348C7.33957 0.0303352 7.24949 0.0803364 7.16925 0.140498C5.03993 1.69685 2.9105 3.25313 0.780963 4.80933C0.701361 4.86466 0.636411 4.93851 0.591714 5.02454C0.547017 5.11056 0.523914 5.20616 0.524398 5.3031C0.523117 7.10234 0.523117 8.90151 0.524398 10.7006C0.521597 10.8955 0.622719 11.0846 0.782963 11.1944C2.91229 12.7499 5.04118 14.3058 7.16965 15.8621C7.37333 16.0363 7.69286 16.0501 7.90311 15.8802C10.0409 14.3193 12.1778 12.7576 14.314 11.1952C14.4748 11.0868 14.5789 10.8943 14.57 10.6991" fill="#050708"/>
<path d="M6.80537 1.29878C6.86185 1.23478 6.91913 1.13502 7.01841 1.1483C7.3561 1.1503 7.69459 1.14302 8.03219 1.1519C8.09067 1.18822 8.13547 1.2427 8.18547 1.2895C8.18419 1.63799 8.18419 1.98655 8.18547 2.3352C8.08499 2.3364 7.98419 2.34088 7.88371 2.334C7.87763 2.30936 7.86555 2.26096 7.85971 2.2364C7.85971 1.97615 7.88227 1.71559 7.86051 1.45574C7.61234 1.45612 7.36434 1.45612 7.11649 1.45574C7.11529 1.54326 7.11489 1.63127 7.11409 1.71879C7.00961 1.71879 6.90473 1.71879 6.79985 1.71799C6.80057 1.57871 6.78521 1.4371 6.80537 1.29878Z" fill="white"/>
<path d="M5.96244 1.72399C6.0766 1.71959 6.19075 1.71959 6.30531 1.72239C6.30691 2.20448 6.30891 2.68617 6.30411 3.16786C6.19515 3.17026 6.08628 3.17026 5.97772 3.16946C5.94148 2.68945 5.97044 2.20568 5.96244 1.72399Z" fill="white"/>
<path d="M8.86671 2.24191C9.17072 2.23791 9.47424 2.23911 9.77809 2.24111C9.77969 2.35248 9.77969 2.46344 9.77809 2.57473C9.47408 2.57793 9.17008 2.57913 8.86607 2.57393C8.86495 2.46336 8.86495 2.35208 8.86607 2.24191" fill="white"/>
<path d="M7.02344 2.40611C7.14608 2.40331 7.26872 2.40371 7.39145 2.40371C7.50881 2.63203 7.65609 2.84507 7.75145 3.08428C7.63889 3.08956 7.52593 3.08956 7.41337 3.08996C7.2796 2.86411 7.15048 2.63563 7.02344 2.40611Z" fill="white"/>
<path d="M8.2762 2.80761C8.38228 2.80521 8.48836 2.80561 8.59492 2.80721C8.88372 3.25522 9.16445 3.70851 9.45541 4.15548C9.45541 4.29148 9.45541 4.42749 9.45301 4.56349C9.42149 4.55781 9.35941 4.54693 9.32837 4.54173C9.08149 4.17372 8.85436 3.79259 8.61028 3.42298C8.60628 3.83899 8.61148 4.255 8.60748 4.67101C8.49692 4.67304 8.38612 4.67304 8.27508 4.67101C8.27372 4.05012 8.27172 3.42882 8.2762 2.80761Z" fill="white"/>
<path d="M9.59395 3.05969C9.70691 3.05729 9.82027 3.05729 9.93323 3.06049C9.93403 3.16698 9.93403 3.27394 9.93323 3.38051C9.82027 3.38331 9.70691 3.38331 9.59435 3.38131C9.59355 3.27432 9.59355 3.16711 9.59435 3.05969" fill="white"/>
<path d="M4.01036 3.16491C4.09949 3.16331 4.18869 3.16371 4.27781 3.16451C4.51582 3.14851 4.75342 3.15323 4.99151 3.16691C4.99231 3.27019 4.99151 3.37387 4.99071 3.47715C4.6387 3.68852 4.30045 3.92292 3.9434 4.12517C3.83812 4.08517 3.7578 4.00093 3.67188 3.93068C3.90548 3.78828 4.13421 3.6382 4.37021 3.49979C4.25077 3.49371 4.13101 3.49451 4.01156 3.49331C4.00948 3.38355 4.00908 3.27408 4.01036 3.16491Z" fill="white"/>
<path d="M6.82614 3.28765C6.9355 3.28445 7.04518 3.28485 7.15414 3.28765C7.15694 3.39741 7.15694 3.5067 7.15414 3.61646C7.04481 3.61966 6.93547 3.61979 6.82614 3.61686C6.82358 3.5071 6.82358 3.39736 6.82614 3.28765Z" fill="white"/>
<path d="M5.22216 3.60875C5.39728 3.8742 5.56712 4.14333 5.74457 4.40717C5.92169 4.14013 6.09273 3.869 6.27145 3.60315C6.27145 3.77915 6.28313 3.957 6.26785 4.13285C6.10569 4.41077 5.91809 4.67342 5.74337 4.94375C5.57152 4.6779 5.38952 4.41765 5.22656 4.14661C5.20808 3.9682 5.22136 3.78787 5.22216 3.60875Z" fill="white"/>
<path d="M10.0688 3.65356C10.5945 3.65116 11.1201 3.65129 11.6458 3.65396C11.6458 3.76044 11.6458 3.86741 11.6454 3.97397C11.1201 3.9752 10.5946 3.97533 10.0688 3.97437C10.0684 3.86741 10.068 3.7602 10.0688 3.65356Z" fill="white"/>
<path d="M7.28667 4.06986C7.39235 4.06786 7.49843 4.06786 7.60459 4.06906C7.60987 4.53538 7.60459 5.00219 7.60739 5.46908C7.55819 5.51588 7.50939 5.56348 7.46139 5.61108C7.09707 5.61508 6.73283 5.61108 6.36891 5.61308C6.32091 5.56708 6.27171 5.52308 6.22851 5.47348C6.20995 5.33068 6.22363 5.18499 6.22323 5.04147C6.32457 5.04067 6.42622 5.04067 6.52819 5.04147C6.53099 5.12379 6.53059 5.20603 6.52939 5.28835C6.77995 5.3166 7.03243 5.29636 7.28419 5.30244C7.28547 4.89163 7.28147 4.48018 7.28667 4.06986Z" fill="white"/>
<path d="M12.3697 5.44842C12.3664 5.09641 12.3664 4.74422 12.3697 4.39185C12.4798 4.38945 12.5899 4.38905 12.7005 4.39185C12.704 4.74385 12.704 5.09617 12.7005 5.44882C12.5902 5.45066 12.4801 5.45026 12.37 5.44882" fill="white"/>
<path d="M10.7983 4.65778C11.0063 4.65578 11.2154 4.62346 11.4223 4.65698C11.5578 5.09876 11.674 5.54734 11.8088 5.98991C11.7023 5.99071 11.5953 5.99071 11.4888 5.99071C11.3871 5.64742 11.3004 5.30005 11.1955 4.95747C11.137 4.95827 11.0785 4.95907 11.0199 4.95947C10.9328 5.30525 10.8279 5.64574 10.7379 5.99023C10.6306 5.99061 10.5233 5.99047 10.416 5.98983C10.5481 5.54734 10.672 5.1018 10.7983 4.65778Z" fill="white"/>
<path d="M1.90586 4.82642C2.38516 4.82362 2.86485 4.82242 3.34406 4.82642C3.34686 4.93658 3.34686 5.04626 3.34446 5.15641C2.86445 5.16081 2.38508 5.15961 1.90538 5.15681C1.90386 5.04666 1.90386 4.93586 1.90586 4.82602" fill="white"/>
<path d="M3.57127 4.82669C3.68023 4.82589 3.78912 4.82549 3.89848 4.82669C3.90088 4.93725 3.90088 5.04813 3.89848 5.1587C3.78912 5.1599 3.68023 5.1595 3.57127 5.1587C3.56999 5.04813 3.56999 4.93797 3.57127 4.82749" fill="white"/>
<path d="M4.77569 4.84038C4.88258 4.83958 4.98994 4.83998 5.09682 4.84118C5.10002 5.09719 5.09842 5.35392 5.09842 5.61018C4.98986 5.61098 4.88138 5.61138 4.77329 5.61018C4.77217 5.35416 4.76881 5.09679 4.77569 4.83998" fill="white"/>
<path d="M13.1524 5.07039C13.2755 5.06799 13.3989 5.06839 13.522 5.06799C13.6438 5.29392 13.7919 5.508 13.8826 5.74937C13.7706 5.75337 13.6579 5.75377 13.5457 5.75425C13.4131 5.52712 13.2867 5.29624 13.1523 5.07039" fill="white"/>
<path d="M8.30162 5.34435C8.40831 5.34355 8.51499 5.34355 8.62168 5.34435C8.62408 5.69531 8.6224 6.04628 8.6224 6.39732C8.5151 6.39812 8.40812 6.39852 8.3009 6.39852C8.3009 6.04724 8.30034 5.69547 8.30162 5.34395" fill="white"/>
<path d="M9.42674 5.77115C9.42546 5.66139 9.42546 5.55139 9.42674 5.44114C9.53442 5.43954 9.64274 5.43954 9.75066 5.44234C9.75066 5.55211 9.75146 5.66179 9.74986 5.77155C9.64234 5.77195 9.53386 5.77155 9.42634 5.77155" fill="white"/>
<path d="M3.33984 6.25773C3.59841 6.06892 3.87441 5.90476 4.13985 5.72644C4.31537 5.72844 4.49041 5.72644 4.66593 5.72884C4.40529 5.91524 4.12817 6.07621 3.86593 6.26013C4.13545 6.42957 4.39969 6.60709 4.66753 6.77813C4.48721 6.78133 4.30689 6.77933 4.12657 6.77973C3.86633 6.60309 3.59601 6.44029 3.33984 6.25773Z" fill="white"/>
<path d="M12.3686 5.95154C12.4791 5.94914 12.5896 5.94874 12.7006 5.95154C12.7033 6.06211 12.703 6.17219 12.6998 6.28276C12.5896 6.28516 12.4791 6.28476 12.369 6.28276C12.3666 6.17257 12.3666 6.06243 12.369 5.95234" fill="white"/>
<path d="M1.01902 5.99677C1.57103 5.99357 2.124 5.99237 2.67673 5.99757C2.67793 6.10205 2.67793 6.20694 2.67833 6.31182C2.43145 6.47359 2.18456 6.63615 1.9308 6.78624C1.82351 6.74712 1.74239 6.65823 1.65079 6.59303C1.78751 6.50671 1.92632 6.42319 2.0588 6.33078C1.71223 6.32918 1.36575 6.33278 1.01878 6.32878C1.01718 6.21822 1.01718 6.10755 1.01878 5.99677" fill="white"/>
<path d="M5.74619 6.31706C6.22428 6.31906 6.70228 6.31466 7.17997 6.31906C7.19159 6.42777 7.19011 6.53749 7.17557 6.64585C6.69908 6.64785 6.22308 6.64625 5.74707 6.64665C5.74622 6.53641 5.74592 6.42655 5.74619 6.31706Z" fill="white"/>
<path d="M7.49295 6.31902C7.60791 6.31662 7.72247 6.31662 7.83751 6.32062C7.83788 6.42794 7.83772 6.53498 7.83703 6.64177C7.72247 6.64497 7.60751 6.64497 7.49303 6.64297C7.49191 6.53488 7.49191 6.42695 7.49303 6.31902" fill="white"/>
<path d="M8.99546 6.78137C8.9805 6.66801 9.09674 6.60993 9.15642 6.53209C9.29683 6.53209 9.43715 6.53129 9.57763 6.53409C9.58083 6.63977 9.58084 6.74545 9.57916 6.85162C9.49051 6.85322 9.40123 6.85322 9.31259 6.85442V7.60724C9.72524 7.61004 10.138 7.60564 10.5507 7.60964C10.5519 7.71652 10.5519 7.82348 10.5491 7.92964C10.0844 7.93284 9.61916 7.93004 9.15442 7.93124C9.09514 7.8538 8.98138 7.79524 8.99586 7.68276C8.99378 7.38243 8.99378 7.08197 8.99586 6.78137" fill="white"/>
<path d="M10.561 6.68134C10.6748 6.67734 10.7894 6.67734 10.9036 6.68134C10.9048 6.79025 10.9048 6.89919 10.9036 7.00815C10.7894 7.01215 10.6756 7.01215 10.5614 7.00815C10.5602 6.89879 10.5602 6.78991 10.5614 6.68054" fill="white"/>
<path d="M11.6493 6.68127C12.1302 6.67479 12.6107 6.67927 13.0916 6.67887C13.0924 6.78984 13.0924 6.9012 13.0911 7.01208C12.6106 7.01208 12.1302 7.01608 11.6496 7.01008C11.648 6.90032 11.648 6.79072 11.6496 6.68127" fill="white"/>
<path d="M4.98696 7.06498C5.25649 7.06458 5.52554 7.06498 5.79498 7.06458C5.79738 7.17658 5.79738 7.28859 5.79498 7.40059C5.52586 7.40102 5.25689 7.40102 4.98808 7.40059C4.98339 7.28859 4.98315 7.17671 4.98736 7.06498" fill="white"/>
<path d="M6.76451 7.06498C7.18732 7.06458 7.61013 7.06498 8.03286 7.06418C8.18646 7.04018 8.3403 7.1997 8.32086 7.35137C8.31996 7.66193 8.3198 7.97283 8.32038 8.28408C8.2663 8.34256 8.2119 8.40024 8.15742 8.45832C8.01742 8.45832 7.87789 8.45832 7.73789 8.45672C7.73672 8.35006 7.73658 8.24355 7.73749 8.13721C7.82501 8.13601 7.91269 8.13521 8.00014 8.13401C8.00014 7.88953 8.00014 7.64465 8.00094 7.40017C7.59021 7.36345 7.17636 7.39409 6.76443 7.38321C6.76342 7.27655 6.76342 7.17047 6.76443 7.06498" fill="white"/>
<path d="M3.78456 7.16336C3.99112 7.16216 4.19729 7.16096 4.40385 7.16416C4.52889 7.61074 4.66322 8.05492 4.78146 8.50358C4.67746 8.50358 4.57345 8.50358 4.47001 8.50438C4.36393 8.15981 4.28201 7.80883 4.17265 7.46594C4.11376 7.46954 4.05488 7.47394 3.99592 7.47842C3.91768 7.82379 3.80592 8.1602 3.7204 8.50398C3.61351 8.50398 3.50655 8.50398 3.40039 8.50278C3.52759 8.05628 3.65424 7.60914 3.7844 7.16336" fill="white"/>
<path d="M12.7955 7.56684C13.1555 7.56324 13.516 7.55956 13.8755 7.56804C13.9663 7.62404 14.0687 7.71492 14.0489 7.83428C14.0489 8.09028 14.0473 8.347 14.0489 8.60325C14.0457 8.72629 14.0513 8.84933 14.0477 8.97237C14.0534 9.07285 14.026 9.17165 14.0317 9.27253C13.9293 9.27253 13.8268 9.27253 13.7243 9.27133C13.7255 8.80901 13.7243 8.34628 13.7251 7.88396C13.4737 7.87708 13.2224 7.88236 12.9711 7.88036C12.9706 7.96628 12.9706 8.0522 12.9691 8.13852C12.8633 8.14012 12.7576 8.14066 12.6519 8.14012C12.6499 7.99852 12.6504 7.85652 12.6507 7.71492C12.6994 7.66612 12.7474 7.61684 12.7954 7.56684" fill="white"/>
<path d="M2.55043 7.57971H2.88483C2.88563 7.93109 2.88483 8.28207 2.88483 8.63312H2.54883C2.55043 8.28215 2.54923 7.93077 2.55003 7.57971" fill="white"/>
<path d="M1.50145 7.87345C1.61122 7.87185 1.7209 7.87505 1.83026 7.88233C1.83148 7.98637 1.83148 8.09057 1.83026 8.19493C1.7197 8.19613 1.60922 8.19653 1.49865 8.19493C1.49745 8.08758 1.49785 7.98072 1.50145 7.87385" fill="white"/>
<path d="M5.43 9.79904C5.42712 9.17773 5.42699 8.55637 5.4296 7.93495C5.53856 7.93335 5.64744 7.93335 5.75641 7.93575C6.01241 8.34849 6.27642 8.75675 6.53786 9.16661C6.65082 9.31221 6.58306 9.5075 6.60122 9.67695C6.5633 9.67695 6.52538 9.67775 6.48786 9.67855C6.25266 9.30493 6.00697 8.9378 5.78185 8.5585C5.74113 8.97084 5.77457 9.38678 5.76129 9.80072C5.65048 9.80184 5.54008 9.80184 5.43 9.79904Z" fill="white"/>
<path d="M6.88322 8.1739C6.9941 8.1715 7.10504 8.17123 7.21602 8.1731C7.21762 8.44464 7.21722 8.71617 7.21602 8.98763C7.10466 8.98963 6.9937 8.98963 6.88242 8.98683C6.88058 8.71577 6.8801 8.44464 6.88242 8.1739" fill="white"/>
<path d="M8.89549 8.53713C9.00406 8.53633 9.11296 8.53593 9.22193 8.53713C9.22396 8.6477 9.22396 8.75824 9.22193 8.86875C9.11296 8.86918 9.00414 8.86918 8.89549 8.86875C8.89421 8.75861 8.89421 8.64821 8.89549 8.53753" fill="white"/>
<path d="M9.95216 8.55152C10.2903 8.54712 10.6283 8.54952 10.9668 8.55032C10.9805 8.64912 10.989 8.74959 10.9793 8.84967C10.9473 8.91462 10.8708 8.88879 10.8135 8.89487C10.5255 8.88639 10.2366 8.91142 9.95056 8.87887C9.94856 8.76935 9.94856 8.66048 9.95216 8.55152Z" fill="white"/>
<path d="M11.3168 8.59839C11.4258 8.59679 11.5359 8.58951 11.6448 8.60639C11.6553 8.98799 11.6492 9.37087 11.6472 9.75295C11.5371 9.75497 11.4271 9.75497 11.3172 9.75295C11.3135 9.36825 11.3135 8.98354 11.3172 8.59879" fill="white"/>
<path d="M8.30138 8.8245C8.40787 8.8245 8.51484 8.8237 8.62141 8.8245C8.62261 8.93426 8.62293 9.04433 8.62141 9.15489C8.51474 9.15649 8.40806 9.15649 8.30138 9.15489C8.30058 9.04481 8.30058 8.93426 8.30138 8.8241" fill="white"/>
<path d="M3.17279 9.05915C3.5528 9.01803 3.93649 9.05067 4.31809 9.03859C4.41643 9.03734 4.51476 9.04177 4.61258 9.05187C4.61418 9.16284 4.61378 9.2742 4.61258 9.38508C4.13257 9.38428 3.6536 9.38748 3.17439 9.38348C3.17151 9.2754 3.17151 9.16748 3.17239 9.05915" fill="white"/>
<path d="M1.02066 9.30448C1.07274 9.25367 1.12514 9.20239 1.17762 9.15159C1.31642 9.15079 1.45514 9.15039 1.59363 9.15319C1.59523 9.25807 1.59523 9.36336 1.59443 9.46824C1.5081 9.47024 1.42218 9.47064 1.33586 9.47144C1.33786 9.72161 1.33466 9.9717 1.33786 10.2219C1.74651 10.2231 2.15524 10.2191 2.56389 10.2239C2.56589 10.3272 2.56589 10.43 2.56509 10.5333C2.4638 10.5337 2.36212 10.5341 2.26108 10.5341C1.89843 10.5305 1.53531 10.5402 1.17306 10.5297C1.11258 10.4954 1.05162 10.4389 1.02418 10.3748C1.01465 10.0183 1.02306 9.66121 1.02106 9.30448" fill="white"/>
<path d="M9.49882 9.51247C9.5533 9.46127 9.60819 9.40999 9.66427 9.35999C10.0176 9.36279 10.3711 9.35999 10.7245 9.36119C10.7777 9.41199 10.8309 9.46327 10.8845 9.51367C10.8849 9.86344 10.8849 10.2131 10.8845 10.5626C10.7768 10.5634 10.669 10.5626 10.5617 10.5598C10.5617 10.2657 10.5593 9.972 10.5629 9.67791C10.3149 9.67751 10.068 9.67791 9.82059 9.67751C9.82099 9.76704 9.82059 9.85664 9.81859 9.94616C9.71251 9.94776 9.60642 9.94776 9.50066 9.94736C9.49722 9.8024 9.49802 9.65759 9.49842 9.51247" fill="white"/>
<path d="M11.7677 10.1298C12.1597 9.87446 12.5557 9.62582 12.951 9.37622C13.0454 9.43918 13.1382 9.50534 13.2302 9.5715C12.9457 9.75283 12.6614 9.93371 12.3773 10.1141C12.7949 10.1185 13.2125 10.1141 13.6304 10.1165C13.6312 10.2275 13.6312 10.3389 13.6304 10.4497C13.0098 10.4518 12.3893 10.4518 11.7689 10.4497C11.7673 10.3428 11.7673 10.2359 11.7681 10.1297" fill="white"/>
<path d="M7.33008 10.1931C7.72345 9.93127 8.1293 9.68839 8.5226 9.42664C8.61612 9.49119 8.7086 9.55695 8.80381 9.61863C8.5318 9.80983 8.24307 9.97647 7.96586 10.1608C8.38099 10.1681 8.79613 10.16 9.21126 10.1652C9.21406 10.2793 9.21406 10.3939 9.21126 10.5081C8.58996 10.5117 7.96858 10.5093 7.3472 10.5093C7.3312 10.4045 7.3312 10.2985 7.33048 10.1927" fill="white"/>
<path d="M3.2479 9.91074C3.42054 10.1747 3.59367 10.4388 3.76431 10.7035C3.94743 10.442 4.11127 10.1675 4.29279 9.90466C4.29639 10.0826 4.29359 10.2609 4.29519 10.4388C4.11447 10.7035 3.94903 10.9786 3.76351 11.2396C3.59167 10.9774 3.42502 10.7116 3.2459 10.4542C3.24414 10.2731 3.2423 10.0915 3.2479 9.91074Z" fill="white"/>
<path d="M5.13964 10.5881C5.13564 10.4752 5.13524 10.3622 5.14164 10.2496C5.25021 10.2484 5.35949 10.2488 5.46806 10.2576C5.47046 10.3677 5.47046 10.4779 5.46806 10.5881C5.35893 10.5889 5.24957 10.5893 5.14004 10.5881" fill="white"/>
<path d="M6.67826 10.7512C6.78842 10.75 6.89891 10.7496 7.00907 10.7512C7.01187 11.1614 7.00907 11.5718 7.01067 11.982C6.93243 11.9852 6.8541 11.9889 6.77586 11.9961C6.75082 11.9912 6.70082 11.9824 6.67578 11.978C6.67826 11.5693 6.67378 11.1602 6.67826 10.7516" fill="white"/>
<path d="M8.9569 11.0085C9.1649 11.0045 9.37235 11.0073 9.58019 11.0061C9.70766 11.4527 9.83529 11.8993 9.96308 12.3459C9.8558 12.3459 9.74843 12.3459 9.64155 12.3435C9.55035 12.0022 9.45155 11.6629 9.35875 11.322C9.30067 11.3184 9.24258 11.3159 9.1845 11.3131C9.0885 11.6576 8.99277 12.002 8.8973 12.3464C8.79002 12.3464 8.68305 12.3464 8.57617 12.3448C8.70681 11.9002 8.83674 11.4556 8.9569 11.0087" fill="white"/>
<path d="M4.24698 11.7483C4.64275 11.4941 5.03771 11.2384 5.439 10.9927C5.5314 11.0576 5.6246 11.1207 5.71613 11.1872C5.42892 11.3659 5.14732 11.5539 4.85723 11.7278C5.27764 11.7358 5.69837 11.7266 6.11917 11.7326C6.12117 11.8432 6.12157 11.9537 6.11837 12.0642C5.49508 12.0662 4.87179 12.0691 4.2485 12.063C4.24538 11.9581 4.24578 11.8532 4.24698 11.7483Z" fill="white"/>
<path d="M7.51562 11.0738C7.63149 11.0751 7.74731 11.0681 7.86218 11.0529C7.99817 11.2769 8.15865 11.499 8.22849 11.754C8.11993 11.7548 8.01145 11.7548 7.90338 11.7556C7.7757 11.5273 7.64645 11.3 7.51562 11.0738Z" fill="white"/>
<path d="M12.0969 11.2106C12.2102 11.207 12.324 11.207 12.4377 11.2094C12.4381 11.3179 12.4381 11.4266 12.4377 11.5355C12.324 11.5383 12.2106 11.5383 12.0972 11.5335C12.0952 11.4257 12.0952 11.3184 12.0972 11.2106" fill="white"/>
<path d="M11.2624 12.0788C11.3996 11.8581 11.5464 11.6439 11.6844 11.4236C11.6884 11.587 11.6909 11.7509 11.6868 11.9146C11.6908 11.976 11.6461 12.0236 11.6174 12.0732C11.4654 12.2979 11.3197 12.527 11.1705 12.7532C10.991 12.4853 10.8171 12.2146 10.6396 11.9452C10.6388 11.7661 10.6372 11.5869 10.6416 11.4082C10.8159 11.6692 10.9805 11.9371 11.1588 12.1957C11.2091 12.1744 11.2318 12.1204 11.2628 12.0788" fill="white"/>
<path d="M2.81892 11.7613C3.1098 11.7517 3.40108 11.7565 3.69237 11.7585C3.69397 11.8662 3.70085 11.9746 3.68709 12.0821C3.3982 12.0962 3.1082 12.0894 2.81932 12.0841C2.81812 11.9764 2.81812 11.869 2.81892 11.7613Z" fill="white"/>
<path d="M6.36504 12.4645C6.83137 12.4577 7.29738 12.4645 7.76371 12.4609C7.81704 12.5143 7.87038 12.5679 7.92371 12.6219C7.92171 12.9781 7.92251 13.3348 7.92291 13.6918C7.87614 13.7406 7.82987 13.7899 7.78411 13.8398C7.63483 13.843 7.48554 13.8434 7.3361 13.839C7.3381 13.7382 7.32522 13.6353 7.34938 13.5365C7.4337 13.5276 7.51842 13.5308 7.60355 13.53C7.60435 13.2803 7.60355 13.0309 7.60355 12.7817C7.19042 12.7793 6.77689 12.7869 6.36424 12.7777C6.36296 12.6732 6.36296 12.5688 6.36424 12.4645" fill="white"/>
<path d="M4.12457 12.5831C4.23347 12.5815 4.34253 12.5817 4.45176 12.5839C4.45336 12.6927 4.45349 12.8019 4.45216 12.9114C4.3424 12.913 4.23307 12.9132 4.12417 12.9118C4.12267 12.8021 4.12267 12.6925 4.12417 12.5831" fill="white"/>
<path d="M9.89414 12.7593C10.0176 12.6553 10.1297 12.8287 10.2354 12.8793C10.2354 12.889 10.2354 12.9088 10.2354 12.9184C9.9595 13.0964 9.67709 13.2646 9.40717 13.4518L9.56373 13.4506C9.64677 13.4506 9.73016 13.4516 9.8139 13.4534C9.8147 13.5624 9.8147 13.6717 9.8131 13.7806C9.47341 13.7855 9.13372 13.7842 8.79404 13.7814C8.78716 13.6785 8.78604 13.5753 8.78516 13.4728C9.1478 13.2248 9.52621 13.0008 9.89374 12.7593" fill="white"/>
<path d="M4.73808 13.0619C5.17905 13.0603 5.62042 13.0579 6.06131 13.0631C6.06211 13.1716 6.06211 13.2803 6.06131 13.3892C5.61994 13.3956 5.17897 13.3928 4.73768 13.3908C4.73568 13.2811 4.73608 13.1713 4.73768 13.0619" fill="white"/>
<path d="M5.91211 13.8994C6.03635 13.8982 6.16059 13.8978 6.28492 13.9002C6.39988 14.1289 6.55276 14.3396 6.64116 14.5812C6.5298 14.5873 6.41884 14.5873 6.30756 14.5881C6.17155 14.3609 6.04443 14.1284 5.91211 13.8994Z" fill="white"/>
<path d="M8.1143 14.2473C8.22285 14.2465 8.33132 14.2481 8.4394 14.2553C8.4414 14.3638 8.4406 14.4727 8.42692 14.5809C8.32325 14.5813 8.21984 14.5813 8.1167 14.5809C8.1127 14.4689 8.1127 14.3582 8.11422 14.2473" fill="white"/>
<path d="M7.35908 15.3268C7.35908 15.0734 7.3534 14.8196 7.36308 14.5663C7.47244 14.5663 7.58213 14.5724 7.69109 14.5823C7.69232 14.8304 7.69232 15.0786 7.69109 15.327C7.58037 15.3287 7.4697 15.3287 7.35908 15.327" fill="white"/>
</g>
<defs>
<clipPath id="clip0_2_3614">
<rect width="14.0472" height="16" fill="white" transform="translate(0.523438 0.000244141)"/>
</clipPath>
</defs>
</svg>
