<svg width="17" height="16" viewBox="0 0 17 16" fill="none" xmlns="http://www.w3.org/2000/svg">
<g clip-path="url(#clip0_2_3616)">
<path d="M8.57031 16.0002C12.9886 16.0002 16.5703 12.4185 16.5703 8.00024C16.5703 3.58197 12.9886 0.000244141 8.57031 0.000244141C4.15203 0.000244141 0.570312 3.58197 0.570312 8.00024C0.570312 12.4185 4.15203 16.0002 8.57031 16.0002Z" fill="#164B79"/>
<path d="M7.61594 9.33424L7.30444 9.99924H6.61344L8.48994 6.00024L9.74144 8.66674H9.03394L8.47394 7.50924L7.91294 8.68624L7.61594 9.33424ZM10.3429 9.98424L11.8079 8.00924L10.3324 6.01924H11.1399L12.2104 7.47424L11.8209 8.00924L12.2104 8.54424L11.1404 9.99924H9.65894L9.34594 9.33424H10.0369L10.3429 9.98424ZM12.6059 8.00074L12.2104 7.45724L13.2809 6.00224H14.0709L12.6059 8.00074ZM12.6059 8.00074L14.0709 9.99974H13.2809L12.2109 8.54474L12.6059 8.00074ZM6.28194 6.57974C6.46152 6.76929 6.60189 6.99244 6.69499 7.23638C6.78809 7.48032 6.83208 7.74025 6.82444 8.00124C6.8313 8.52674 6.63725 9.03502 6.28194 9.42224C5.92094 9.82674 5.47444 10.0002 4.94794 10.0002C4.6975 10.0027 4.44934 9.95257 4.21953 9.85299C3.98972 9.75342 3.7834 9.60667 3.61394 9.42224C3.25284 9.03859 3.05771 8.52794 3.07094 8.00124C3.0629 7.58886 3.18367 7.18424 3.41644 6.84374L3.87644 7.33374C3.73244 7.5907 3.67246 7.88628 3.70492 8.17904C3.73738 8.47181 3.86065 8.74707 4.05744 8.96624C4.16897 9.09254 4.30588 9.19389 4.45924 9.26368C4.6126 9.33347 4.77896 9.37012 4.94744 9.37124C5.28344 9.37124 5.60444 9.22474 5.83744 8.96624C5.95696 8.83978 6.0504 8.69102 6.11243 8.52845C6.17446 8.36588 6.20385 8.19268 6.19894 8.01874C6.20011 7.66877 6.07108 7.33087 5.83694 7.07074C5.72489 6.9465 5.58741 6.84781 5.43385 6.78138C5.28028 6.71495 5.11423 6.68234 4.94694 6.68574C4.72588 6.67968 4.50816 6.74069 4.32244 6.86074L3.86244 6.37074C4.17136 6.12649 4.55518 5.99649 4.94894 6.00274C5.19936 5.99827 5.44783 6.04745 5.67767 6.14697C5.9075 6.24649 6.11337 6.39406 6.28144 6.57974H6.28194Z" fill="white"/>
</g>
<defs>
<clipPath id="clip0_2_3616">
<rect width="16" height="16" fill="white" transform="translate(0.570312 0.000244141)"/>
</clipPath>
</defs>
</svg>
