<svg width="17" height="16" viewBox="0 0 17 16" fill="none" xmlns="http://www.w3.org/2000/svg">
<g clip-path="url(#clip0_2_3618)">
<path d="M2.59333 7.70129C2.59341 7.86957 2.54359 8.0341 2.45016 8.17406C2.35673 8.31403 2.22389 8.42314 2.06844 8.4876C1.91299 8.55205 1.74192 8.56896 1.57686 8.53619C1.4118 8.50341 1.26017 8.42241 1.14115 8.30345C1.02212 8.18449 0.941054 8.0329 0.908193 7.86785C0.875331 7.70281 0.892154 7.53173 0.956533 7.37625C1.02091 7.22077 1.12996 7.08787 1.26987 6.99437C1.40979 6.90087 1.57429 6.85096 1.74257 6.85096C1.96813 6.85096 2.18446 6.94054 2.344 7.09999C2.50353 7.25945 2.59322 7.47573 2.59333 7.70129ZM16.1106 7.70129C16.1107 7.86959 16.0608 8.03414 15.9674 8.17411C15.8739 8.31408 15.7411 8.42319 15.5856 8.48764C15.4301 8.55208 15.259 8.56897 15.094 8.53615C14.9289 8.50334 14.7773 8.42231 14.6583 8.3033C14.5393 8.18429 14.4582 8.03266 14.4254 7.86759C14.3926 7.70252 14.4095 7.53142 14.4739 7.37595C14.5384 7.22048 14.6475 7.08761 14.7874 6.99416C14.9274 6.90071 15.092 6.85088 15.2603 6.85096C15.4855 6.85153 15.7012 6.94135 15.8603 7.10075C16.0194 7.26014 16.1088 7.4761 16.1089 7.70129H16.1106ZM9.35218 11.0575C9.35226 11.2258 9.30243 11.3904 9.20898 11.5304C9.11553 11.6703 8.98266 11.7794 8.82719 11.8439C8.67171 11.9083 8.50062 11.9252 8.33555 11.8924C8.17048 11.8596 8.01885 11.7786 7.89984 11.6595C7.78084 11.5405 7.6998 11.3889 7.66699 11.2238C7.63417 11.0588 7.65106 10.8877 7.7155 10.7322C7.77995 10.5767 7.88906 10.4439 8.02903 10.3504C8.169 10.257 8.33355 10.2071 8.50185 10.2072C8.72733 10.2073 8.94355 10.297 9.10299 10.4564C9.26244 10.6158 9.35206 10.8321 9.35218 11.0575ZM5.94957 9.40066C5.94957 9.56893 5.89968 9.73341 5.8062 9.87332C5.71271 10.0132 5.57984 10.1223 5.42439 10.1867C5.26893 10.2511 5.09787 10.2679 4.93284 10.2351C4.76781 10.2022 4.61622 10.1212 4.49724 10.0022C4.37826 9.88326 4.29723 9.73167 4.26441 9.56664C4.23158 9.40161 4.24843 9.23055 4.31282 9.07509C4.37721 8.91964 4.48625 8.78677 4.62616 8.69328C4.76607 8.5998 4.93055 8.5499 5.09882 8.5499C5.32445 8.5499 5.54084 8.63954 5.70039 8.79909C5.85994 8.95863 5.94957 9.17503 5.94957 9.40066ZM12.7084 9.40066C12.7088 9.56909 12.6593 9.73386 12.566 9.87408C12.4727 10.0143 12.3398 10.1237 12.1843 10.1884C12.0288 10.253 11.8576 10.2701 11.6924 10.2374C11.5272 10.2046 11.3754 10.1236 11.2562 10.0045C11.1371 9.88547 11.056 9.73372 11.0232 9.56852C10.9904 9.40332 11.0074 9.2321 11.072 9.07654C11.1365 8.92099 11.2459 8.78812 11.386 8.69474C11.5262 8.60137 11.691 8.55171 11.8594 8.55205C12.0843 8.5525 12.3 8.64204 12.4591 8.80108C12.6182 8.96011 12.7079 9.1757 12.7084 9.40066ZM2.31733 10.2763C2.31724 10.39 2.28345 10.5011 2.22022 10.5956C2.157 10.69 2.06718 10.7636 1.96212 10.8071C1.85707 10.8505 1.7415 10.8618 1.63002 10.8395C1.51855 10.8173 1.41618 10.7624 1.33586 10.682C1.25553 10.6016 1.20087 10.4991 1.17878 10.3876C1.15668 10.2761 1.16815 10.1605 1.21173 10.0555C1.25531 9.95055 1.32905 9.86084 1.42361 9.79776C1.51818 9.73468 1.62933 9.70105 1.743 9.70113C1.81848 9.70119 1.89321 9.71611 1.96292 9.74505C2.03263 9.77398 2.09596 9.81637 2.14929 9.86978C2.20262 9.92319 2.24491 9.98658 2.27374 10.0563C2.30257 10.1261 2.31738 10.2008 2.31733 10.2763ZM15.8346 10.2763C15.8345 10.39 15.8007 10.5011 15.7375 10.5956C15.6743 10.69 15.5844 10.7636 15.4794 10.8071C15.3743 10.8505 15.2588 10.8618 15.1473 10.8395C15.0358 10.8173 14.9334 10.7624 14.8531 10.682C14.7728 10.6016 14.7181 10.4991 14.696 10.3876C14.6739 10.2761 14.6854 10.1605 14.729 10.0555C14.7726 9.95055 14.8463 9.86084 14.9409 9.79776C15.0354 9.73468 15.1466 9.70105 15.2603 9.70113C15.4127 9.70125 15.5588 9.76184 15.6666 9.8696C15.7743 9.97736 15.8349 10.1235 15.835 10.2759L15.8346 10.2763ZM9.07617 13.6781C9.07626 13.7918 9.04261 13.903 8.97949 13.9975C8.91637 14.0921 8.82661 14.1659 8.72157 14.2094C8.61653 14.253 8.50093 14.2644 8.38939 14.2422C8.27786 14.2201 8.17541 14.1653 8.09501 14.0849C8.0146 14.0045 7.95985 13.9021 7.93769 13.7905C7.91552 13.679 7.92694 13.5634 7.9705 13.4584C8.01405 13.3533 8.08779 13.2636 8.18237 13.2004C8.27695 13.1373 8.38813 13.1037 8.50185 13.1037C8.6541 13.104 8.80005 13.1646 8.90771 13.2722C9.01536 13.3799 9.07595 13.5258 9.07617 13.6781ZM5.674 11.9761C5.674 12.0898 5.64028 12.201 5.57711 12.2955C5.51393 12.39 5.42414 12.4637 5.3191 12.5072C5.21405 12.5507 5.09846 12.562 4.98696 12.5398C4.87545 12.5176 4.77304 12.4628 4.69268 12.3824C4.61232 12.302 4.55761 12.1995 4.53548 12.088C4.51335 11.9765 4.5248 11.8609 4.56836 11.7559C4.61193 11.6509 4.68567 11.5611 4.78024 11.498C4.87482 11.4349 4.98598 11.4013 5.09967 11.4014C5.17513 11.4014 5.24985 11.4162 5.31956 11.4451C5.38927 11.474 5.4526 11.5164 5.50594 11.5697C5.55927 11.6231 5.60157 11.6865 5.63041 11.7562C5.65924 11.8259 5.67406 11.9007 5.674 11.9761ZM12.4328 11.9761C12.4331 12.0899 12.3996 12.2012 12.3365 12.2959C12.2735 12.3906 12.1837 12.4645 12.0786 12.5082C11.9736 12.5518 11.8579 12.5633 11.7463 12.5412C11.6347 12.519 11.5321 12.4643 11.4517 12.3838C11.3712 12.3034 11.3165 12.2008 11.2943 12.0892C11.2722 11.9776 11.2837 11.8619 11.3273 11.7569C11.371 11.6518 11.4449 11.562 11.5396 11.499C11.6343 11.4359 11.7456 11.4024 11.8594 11.4027C12.0113 11.4031 12.1568 11.4637 12.2642 11.5711C12.3716 11.6786 12.4321 11.8242 12.4324 11.9761H12.4328ZM2.04175 12.2989C2.04175 12.3583 2.02413 12.4164 1.99112 12.4658C1.9581 12.5153 1.91117 12.5538 1.85627 12.5765C1.80137 12.5993 1.74095 12.6052 1.68267 12.5936C1.62438 12.582 1.57084 12.5534 1.52882 12.5114C1.4868 12.4694 1.45818 12.4158 1.44659 12.3575C1.43499 12.2992 1.44094 12.2388 1.46369 12.1839C1.48643 12.129 1.52494 12.0821 1.57435 12.0491C1.62376 12.0161 1.68186 11.9984 1.74128 11.9984C1.82097 11.9984 1.8974 12.0301 1.95375 12.0864C2.0101 12.1428 2.04175 12.2192 2.04175 12.2989ZM15.559 12.2989C15.559 12.3583 15.5414 12.4164 15.5084 12.4658C15.4754 12.5153 15.4284 12.5538 15.3735 12.5765C15.3186 12.5993 15.2582 12.6052 15.1999 12.5936C15.1416 12.582 15.0881 12.5534 15.0461 12.5114C15.0041 12.4694 14.9754 12.4158 14.9639 12.3575C14.9523 12.2992 14.9582 12.2388 14.9809 12.1839C15.0037 12.129 15.0422 12.0821 15.0916 12.0491C15.141 12.0161 15.1991 11.9984 15.2585 11.9984C15.3382 11.9984 15.4147 12.0301 15.471 12.0864C15.5274 12.1428 15.559 12.2192 15.559 12.2989ZM8.80017 15.7015C8.80017 15.7609 8.78255 15.819 8.74953 15.8685C8.71652 15.9179 8.66959 15.9564 8.61469 15.9791C8.55978 16.0019 8.49937 16.0078 8.44108 15.9962C8.3828 15.9846 8.32926 15.956 8.28724 15.914C8.24522 15.872 8.2166 15.8184 8.20501 15.7601C8.19341 15.7019 8.19936 15.6414 8.2221 15.5865C8.24485 15.5316 8.28336 15.4847 8.33277 15.4517C8.38218 15.4187 8.44027 15.4011 8.4997 15.4011C8.57939 15.4011 8.65582 15.4327 8.71216 15.4891C8.76851 15.5454 8.80017 15.6218 8.80017 15.7015ZM5.398 14.0004C5.398 14.0599 5.38038 14.118 5.34736 14.1674C5.31434 14.2168 5.26742 14.2553 5.21251 14.278C5.15761 14.3008 5.0972 14.3067 5.03891 14.2951C4.98062 14.2835 4.92709 14.2549 4.88506 14.2129C4.84304 14.1709 4.81443 14.1173 4.80283 14.0591C4.79124 14.0008 4.79719 13.9403 4.81993 13.8854C4.84267 13.8305 4.88118 13.7836 4.9306 13.7506C4.98001 13.7176 5.0381 13.7 5.09753 13.7C5.17722 13.7 5.25364 13.7316 5.30999 13.788C5.36634 13.8443 5.398 13.9207 5.398 14.0004ZM12.1568 14.0004C12.1568 14.0599 12.1392 14.118 12.1062 14.1674C12.0732 14.2168 12.0263 14.2553 11.9714 14.278C11.9165 14.3008 11.856 14.3067 11.7978 14.2951C11.7395 14.2835 11.6859 14.2549 11.6439 14.2129C11.6019 14.1709 11.5733 14.1173 11.5617 14.0591C11.5501 14.0008 11.556 13.9403 11.5788 13.8854C11.6015 13.8305 11.64 13.7836 11.6894 13.7506C11.7389 13.7176 11.7969 13.7 11.8564 13.7C11.9361 13.7 12.0125 13.7316 12.0688 13.788C12.1252 13.8443 12.1568 13.9207 12.1568 14.0004ZM9.62732 1.14976C9.62732 1.37715 9.55988 1.59943 9.43353 1.78848C9.30719 1.97754 9.12761 2.12487 8.91751 2.21185C8.70741 2.29883 8.47624 2.32154 8.25324 2.27712C8.03023 2.23269 7.82541 2.12313 7.66468 1.96228C7.50395 1.80143 7.39454 1.59653 7.35028 1.37349C7.30603 1.15045 7.32891 0.919293 7.41605 0.709262C7.50318 0.499231 7.65065 0.319762 7.8398 0.193555C8.02895 0.067348 8.25128 7.46416e-05 8.47867 0.000244461C8.78339 0.000472035 9.07555 0.121682 9.29094 0.337232C9.50633 0.552783 9.62732 0.845036 9.62732 1.14976ZM9.62732 4.55022C9.62732 4.77759 9.55989 4.99985 9.43356 5.1889C9.30723 5.37794 9.12768 5.52528 8.91761 5.61227C8.70754 5.69926 8.47639 5.722 8.25339 5.67761C8.0304 5.63322 7.82558 5.5237 7.66483 5.3629C7.50409 5.20209 7.39464 4.99723 7.35033 4.77421C7.30603 4.5512 7.32886 4.32006 7.41592 4.11002C7.50299 3.89998 7.6504 3.72048 7.83949 3.59423C8.02858 3.46797 8.25087 3.40062 8.47824 3.40071C8.78303 3.40082 9.07531 3.52198 9.29079 3.73754C9.50627 3.95311 9.62732 4.24542 9.62732 4.55022ZM9.62732 7.9069C9.62732 8.13427 9.55989 8.35653 9.43356 8.54558C9.30723 8.73462 9.12768 8.88196 8.91761 8.96895C8.70754 9.05594 8.47639 9.07868 8.25339 9.03429C8.0304 8.9899 7.82558 8.88038 7.66483 8.71957C7.50409 8.55877 7.39464 8.35391 7.35033 8.13089C7.30603 7.90788 7.32886 7.67674 7.41592 7.4667C7.50299 7.25666 7.6504 7.07716 7.83949 6.9509C8.02858 6.82465 8.25087 6.7573 8.47824 6.75739C8.6293 6.75744 8.77888 6.78727 8.9184 6.84517C9.05793 6.90308 9.18468 6.98791 9.2914 7.09483C9.39812 7.20175 9.48271 7.32865 9.54035 7.46829C9.59799 7.60792 9.62755 7.75755 9.62732 7.90862V7.9069ZM16.3866 4.55022C16.3866 4.77757 16.3192 4.99982 16.1929 5.18885C16.0666 5.37789 15.887 5.52523 15.677 5.61223C15.4669 5.69923 15.2358 5.722 15.0128 5.67764C14.7898 5.63329 14.585 5.52381 14.4243 5.36305C14.2635 5.20229 14.154 4.99746 14.1097 4.77448C14.0653 4.55149 14.0881 4.32037 14.1751 4.11032C14.2621 3.90027 14.4094 3.72074 14.5985 3.59443C14.7875 3.46812 15.0097 3.40071 15.2371 3.40071C15.542 3.40071 15.8343 3.52182 16.0499 3.73739C16.2655 3.95297 16.3866 4.24535 16.3866 4.55022ZM2.86933 4.55022C2.86967 4.77764 2.80254 5.00006 2.67644 5.18932C2.55034 5.37858 2.37093 5.52619 2.16091 5.61345C1.9509 5.70072 1.71971 5.72373 1.49662 5.67957C1.27352 5.63541 1.06854 5.52607 0.907605 5.36537C0.746671 5.20468 0.63702 4.99986 0.592526 4.77683C0.548033 4.5538 0.570697 4.32258 0.65765 4.11243C0.744603 3.90229 0.891937 3.72266 1.08101 3.59627C1.27008 3.46989 1.4924 3.40242 1.71982 3.40242C2.02439 3.40242 2.31652 3.5233 2.53204 3.7385C2.74757 3.95371 2.86888 4.24565 2.86933 4.55022ZM6.27151 2.84913C6.27185 3.07648 6.20476 3.29883 6.07873 3.48805C5.9527 3.67728 5.7734 3.82488 5.56348 3.9122C5.35357 3.99952 5.12247 4.02263 4.89942 3.9786C4.67637 3.93458 4.47139 3.82541 4.31038 3.66489C4.14938 3.50436 4.0396 3.29971 3.99491 3.07679C3.95022 2.85387 3.97264 2.62271 4.05933 2.41253C4.14602 2.20236 4.29309 2.02261 4.48194 1.89602C4.67078 1.76942 4.89293 1.70167 5.12028 1.70133C5.42515 1.70133 5.71753 1.82244 5.9331 2.03802C6.14868 2.25359 6.26979 2.54598 6.26979 2.85085L6.27151 2.84913ZM6.26979 6.2071C6.26979 6.43445 6.20237 6.6567 6.07606 6.84573C5.94975 7.03477 5.77022 7.1821 5.56018 7.26911C5.35013 7.35611 5.119 7.37888 4.89602 7.33452C4.67304 7.29017 4.46821 7.18069 4.30745 7.01992C4.14669 6.85916 4.03721 6.65434 3.99286 6.43136C3.9485 6.20837 3.97127 5.97724 4.05827 5.7672C4.14527 5.55715 4.29261 5.37762 4.48164 5.25131C4.67068 5.125 4.89293 5.05758 5.12028 5.05758C5.42515 5.05758 5.71753 5.17869 5.9331 5.39427C6.14868 5.60984 6.26979 5.90223 6.26979 6.2071ZM13.0304 2.85085C13.0304 3.0782 12.9629 3.30045 12.8366 3.48948C12.7103 3.67852 12.5308 3.82585 12.3207 3.91286C12.1107 3.99986 11.8796 4.02263 11.6566 3.97827C11.4336 3.93392 11.2288 3.82444 11.068 3.66367C10.9073 3.50291 10.7978 3.29809 10.7534 3.07511C10.7091 2.85212 10.7318 2.62099 10.8188 2.41095C10.9058 2.2009 11.0532 2.02137 11.2422 1.89506C11.4312 1.76875 11.6535 1.70133 11.8808 1.70133C12.1857 1.70133 12.4781 1.82244 12.6937 2.03802C12.9092 2.25359 13.0304 2.54598 13.0304 2.85085ZM13.0304 6.2071C13.0304 6.43445 12.9629 6.6567 12.8366 6.84573C12.7103 7.03477 12.5308 7.1821 12.3207 7.26911C12.1107 7.35611 11.8796 7.37888 11.6566 7.33452C11.4336 7.29017 11.2288 7.18069 11.068 7.01992C10.9073 6.85916 10.7978 6.65434 10.7534 6.43136C10.7091 6.20837 10.7318 5.97724 10.8188 5.7672C10.9058 5.55715 11.0532 5.37762 11.2422 5.25131C11.4312 5.125 11.6535 5.05758 11.8808 5.05758C12.1857 5.05758 12.4781 5.17869 12.6937 5.39427C12.9092 5.60984 13.0304 5.90223 13.0304 6.2071Z" fill="#141414"/>
</g>
<defs>
<clipPath id="clip0_2_3618">
<rect width="15.8163" height="16" fill="white" transform="translate(0.570312 0.000244141)"/>
</clipPath>
</defs>
</svg>
