<svg width="17" height="16" viewBox="0 0 17 16" fill="none" xmlns="http://www.w3.org/2000/svg">
<g clip-path="url(#clip0_2_3621)">
<path d="M8.38281 16.0002C12.8011 16.0002 16.3828 12.4185 16.3828 8.00024C16.3828 3.58197 12.8011 0.000244141 8.38281 0.000244141C3.96453 0.000244141 0.382812 3.58197 0.382812 8.00024C0.382812 12.4185 3.96453 16.0002 8.38281 16.0002Z" fill="black"/>
<path d="M14.3756 7.33488V7.36688C13.6821 7.80088 12.9836 8.22988 12.2871 8.66288C12.2739 8.67243 12.2635 8.68539 12.2571 8.70038C12.4431 8.75038 12.6356 8.78788 12.8121 8.86888C12.9751 8.94138 13.1421 9.03588 13.2341 9.19438C13.3221 9.35538 13.3441 9.54438 13.2951 9.72088C13.2686 9.85288 13.2131 9.97688 13.1631 10.1024C12.9541 10.6034 12.7441 11.1029 12.5366 11.6059C12.5265 11.6308 12.5131 11.6542 12.4966 11.6754C12.4281 11.6739 12.3626 11.6489 12.2956 11.6334C11.9576 11.5499 11.6176 11.4679 11.2796 11.3834C11.1696 11.3524 11.0566 11.3344 10.9481 11.2984C10.9511 11.2299 10.9901 11.1714 11.0131 11.1099L11.4771 9.99938C11.5121 9.92238 11.5326 9.82638 11.4826 9.75138C11.4201 9.64438 11.2946 9.60388 11.1836 9.57338C10.7756 9.46838 10.3646 9.37138 9.9556 9.26988C9.8971 9.25738 9.8401 9.23088 9.7786 9.23888C9.7426 9.30188 9.7216 9.37288 9.6926 9.44088C9.5186 9.84888 9.3516 10.2594 9.1786 10.6674C9.1536 10.7244 9.1386 10.7874 9.1006 10.8374C9.0326 10.8374 8.9686 10.8109 8.9031 10.7954C8.5536 10.7094 8.2041 10.6214 7.8531 10.5364C7.7546 10.5099 7.6516 10.4934 7.5541 10.4599C7.5553 10.4322 7.56139 10.4049 7.5721 10.3794L9.3386 6.14438C9.34471 6.13019 9.35435 6.11779 9.3666 6.10838C9.4281 6.11238 9.4866 6.13738 9.5466 6.15138C9.8441 6.22238 10.1421 6.29888 10.4401 6.37138C10.5946 6.41138 10.7531 6.44238 10.9066 6.48838C10.9146 6.51738 10.9006 6.54688 10.8896 6.57438C10.7696 6.84738 10.6596 7.12438 10.5431 7.39738L10.1826 8.26338C10.1421 8.36488 10.0891 8.46238 10.0611 8.56938C10.1131 8.55138 10.1576 8.52088 10.2031 8.48988L12.5561 7.01488C12.5991 6.98788 12.6381 6.95188 12.6871 6.93938C12.7591 6.93388 12.8271 6.96138 12.8956 6.97688C13.1356 7.02838 13.3716 7.09688 13.6096 7.15188C13.8676 7.20938 14.1206 7.28038 14.3756 7.33488ZM8.8236 6.48538C8.8361 6.73738 8.7401 6.97688 8.6416 7.20238C8.3756 7.84138 8.1066 8.47888 7.8421 9.11788C7.7461 9.34338 7.6626 9.57888 7.5151 9.77788C7.4101 9.92588 7.2641 10.0399 7.0951 10.1049C6.88207 10.1715 6.65648 10.1878 6.4361 10.1524C6.0561 10.1049 5.6861 10.0024 5.3141 9.91288C4.8091 9.78638 4.3006 9.66388 3.7956 9.53688C3.4601 9.45638 3.1216 9.36988 2.8096 9.21688C2.67498 9.15161 2.56058 9.05104 2.4786 8.92588C2.41528 8.82259 2.38737 8.70147 2.3991 8.58088C2.4256 8.35938 2.5076 8.14888 2.5966 7.94588L3.4116 5.98838C3.4766 5.83838 3.5336 5.68338 3.6171 5.54188C3.68854 5.41101 3.78345 5.2944 3.8971 5.19788C4.0311 5.09588 4.1886 5.03038 4.3551 5.00688C4.4776 4.99588 4.6001 5.00188 4.7226 5.00438C5.10143 5.06038 5.47659 5.13885 5.8461 5.23938C6.3641 5.36438 6.8806 5.49588 7.3981 5.62088C7.6361 5.67938 7.8731 5.73938 8.1056 5.81888C8.2611 5.87588 8.4201 5.93388 8.5566 6.03288C8.7116 6.13338 8.8106 6.30088 8.8236 6.48538ZM7.0136 6.93088C7.0236 6.85738 6.9711 6.79438 6.9096 6.76238C6.7846 6.69438 6.6421 6.66938 6.5061 6.63438C6.1451 6.54438 5.7841 6.45538 5.4211 6.36738C5.31823 6.33723 5.20994 6.3304 5.1041 6.34738C4.9816 6.38238 4.9201 6.50638 4.8786 6.61488C4.6736 7.10238 4.4736 7.59088 4.2676 8.07688C4.2451 8.13388 4.2226 8.19088 4.2176 8.25188C4.2176 8.32188 4.2661 8.38288 4.3256 8.41188C4.4151 8.45788 4.5126 8.48338 4.6071 8.50838L5.7346 8.78538C5.8656 8.81588 6.0031 8.84938 6.1371 8.82038C6.2496 8.78388 6.3071 8.66838 6.3486 8.56688L6.9011 7.24138C6.9446 7.14138 7.0001 7.04238 7.0141 6.93138L7.0136 6.93088Z" fill="white"/>
</g>
<defs>
<clipPath id="clip0_2_3621">
<rect width="16" height="16" fill="white" transform="translate(0.382812 0.000244141)"/>
</clipPath>
</defs>
</svg>
