<svg width="17" height="16" viewBox="0 0 17 16" fill="none" xmlns="http://www.w3.org/2000/svg">
<g clip-path="url(#clip0_2_3624)">
<path d="M8.00391 16.0002C12.4222 16.0002 16.0039 12.4185 16.0039 8.00024C16.0039 3.58197 12.4222 0.000244141 8.00391 0.000244141C3.58563 0.000244141 0.00390625 3.58197 0.00390625 8.00024C0.00390625 12.4185 3.58563 16.0002 8.00391 16.0002Z" fill="black"/>
<path fill-rule="evenodd" clip-rule="evenodd" d="M7.97541 13.1554C10.8454 13.1554 13.0194 11.2324 13.4704 8.71643H11.0219C10.6559 10.0524 9.51991 11.0304 8.00441 11.0304C6.49991 11.0304 5.34941 10.0454 4.96791 8.71643H2.50391C2.93841 11.2414 5.09391 13.1554 7.97541 13.1554Z" fill="white"/>
<path d="M7.99006 5.02724C8.68787 5.02724 9.25356 4.46156 9.25356 3.76374C9.25356 3.06593 8.68787 2.50024 7.99006 2.50024C7.29225 2.50024 6.72656 3.06593 6.72656 3.76374C6.72656 4.46156 7.29225 5.02724 7.99006 5.02724Z" fill="white"/>
<path fill-rule="evenodd" clip-rule="evenodd" d="M4.83203 8.71659V8.69159C4.83203 6.89509 6.11903 5.42859 7.97453 5.42859C9.83053 5.42859 11.1445 6.92009 11.1475 8.71659H4.83203Z" fill="white"/>
</g>
<defs>
<clipPath id="clip0_2_3624">
<rect width="16" height="16" fill="white" transform="translate(0.00390625 0.000244141)"/>
</clipPath>
</defs>
</svg>
