<svg width="17" height="16" viewBox="0 0 17 16" fill="none" xmlns="http://www.w3.org/2000/svg">
<g clip-path="url(#clip0_2_3627)">
<path d="M8.10156 16.0002C12.5198 16.0002 16.1016 12.4185 16.1016 8.00024C16.1016 3.58197 12.5198 0.000244141 8.10156 0.000244141C3.68328 0.000244141 0.101562 3.58197 0.101562 8.00024C0.101562 12.4185 3.68328 16.0002 8.10156 16.0002Z" fill="#34445B"/>
<path d="M8.07022 5.11108L9.07522 3.54308C9.33309 3.5849 9.59716 3.52569 9.81248 3.37777C10.0278 3.22984 10.1778 3.00459 10.2313 2.74888C10.2847 2.49317 10.2375 2.2267 10.0995 2.0049C9.96148 1.7831 9.74325 1.62306 9.49022 1.55808C9.28867 1.51634 9.0792 1.53686 8.88958 1.61693C8.69996 1.69699 8.53917 1.83281 8.42852 2.00637C8.31788 2.17993 8.26262 2.38302 8.27007 2.58871C8.27751 2.79441 8.34732 2.99297 8.47022 3.15808L7.22322 5.10358C6.70282 5.15476 6.1976 5.308 5.73644 5.55453C5.27529 5.80106 4.86723 6.13604 4.5356 6.54035C4.20397 6.94465 3.95525 7.41034 3.80368 7.91081C3.65211 8.41128 3.60064 8.93671 3.65223 9.45708C3.75625 10.5077 4.27321 11.4741 5.08948 12.1437C5.90574 12.8133 6.95451 13.1314 8.00522 13.0281C9.05597 12.9242 10.0224 12.4073 10.6922 11.591C11.3619 10.7747 11.6801 9.72587 11.5767 8.67508C11.487 7.76996 11.0901 6.92281 10.4522 6.27445C9.81434 5.62609 8.97376 5.21555 8.07022 5.11108ZM7.61273 11.1721C7.33534 11.1723 7.06063 11.1179 6.8043 11.0119C6.54798 10.9059 6.31507 10.7504 6.11891 10.5542C5.92274 10.3581 5.76717 10.1253 5.6611 9.86896C5.55503 9.61266 5.50053 9.33796 5.50073 9.06058C5.50046 8.78315 5.55491 8.5084 5.66096 8.25204C5.767 7.99568 5.92256 7.76275 6.11873 7.56658C6.3149 7.37041 6.54783 7.21485 6.80419 7.10881C7.06054 7.00276 7.3353 6.94831 7.61273 6.94858C8.04176 6.94847 8.46064 7.07916 8.8135 7.32321C9.16636 7.56727 9.43644 7.91309 9.58772 8.31458C9.38928 8.05902 9.09752 7.89268 8.77652 7.85208C8.45552 7.81149 8.13154 7.89996 7.87572 8.09807C7.62006 8.29644 7.45363 8.58821 7.41303 8.90925C7.37243 9.23029 7.46098 9.55431 7.65922 9.81007C7.7731 9.95657 7.91887 10.0752 8.08546 10.1569C8.25205 10.2386 8.43508 10.2812 8.62062 10.2815C8.80616 10.2819 8.98934 10.2399 9.15623 10.1588C9.32312 10.0777 9.46932 9.95965 9.58372 9.81357C9.43183 10.2133 9.16194 10.5573 8.80989 10.7999C8.45784 11.0426 8.0403 11.1724 7.61273 11.1721Z" fill="white"/>
<path d="M8.07022 5.11108L9.07522 3.54308C9.33309 3.5849 9.59716 3.52569 9.81248 3.37777C10.0278 3.22984 10.1778 3.00459 10.2313 2.74888C10.2847 2.49317 10.2375 2.2267 10.0995 2.0049C9.96148 1.7831 9.74325 1.62306 9.49022 1.55808C9.28867 1.51634 9.0792 1.53686 8.88958 1.61693C8.69996 1.69699 8.53917 1.83281 8.42852 2.00637C8.31788 2.17993 8.26262 2.38302 8.27007 2.58871C8.27751 2.79441 8.34732 2.99297 8.47022 3.15808L7.22322 5.10358C6.70282 5.15476 6.1976 5.308 5.73644 5.55453C5.27529 5.80106 4.86723 6.13604 4.5356 6.54035C4.20397 6.94465 3.95525 7.41034 3.80368 7.91081C3.65211 8.41128 3.60064 8.93671 3.65223 9.45708C3.75625 10.5077 4.27321 11.4741 5.08948 12.1437C5.90574 12.8133 6.95451 13.1314 8.00522 13.0281C9.05597 12.9242 10.0224 12.4073 10.6922 11.591C11.3619 10.7747 11.6801 9.72587 11.5767 8.67508C11.487 7.76996 11.0901 6.92281 10.4522 6.27445C9.81434 5.62609 8.97376 5.21555 8.07022 5.11108ZM7.61273 11.1721C7.33534 11.1723 7.06063 11.1179 6.8043 11.0119C6.54798 10.9059 6.31507 10.7504 6.11891 10.5542C5.92274 10.3581 5.76717 10.1253 5.6611 9.86896C5.55503 9.61266 5.50053 9.33796 5.50073 9.06058C5.50046 8.78315 5.55491 8.5084 5.66096 8.25204C5.767 7.99568 5.92256 7.76275 6.11873 7.56658C6.3149 7.37041 6.54783 7.21485 6.80419 7.10881C7.06054 7.00276 7.3353 6.94831 7.61273 6.94858C8.04176 6.94847 8.46064 7.07916 8.8135 7.32321C9.16636 7.56727 9.43644 7.91309 9.58772 8.31458C9.38928 8.05902 9.09752 7.89268 8.77652 7.85208C8.45552 7.81149 8.13154 7.89996 7.87572 8.09807C7.62006 8.29644 7.45363 8.58821 7.41303 8.90925C7.37243 9.23029 7.46098 9.55431 7.65922 9.81007C7.7731 9.95657 7.91887 10.0752 8.08546 10.1569C8.25205 10.2386 8.43508 10.2812 8.62062 10.2815C8.80616 10.2819 8.98934 10.2399 9.15623 10.1588C9.32312 10.0777 9.46932 9.95965 9.58372 9.81357C9.43183 10.2133 9.16194 10.5573 8.80989 10.7999C8.45784 11.0426 8.0403 11.1724 7.61273 11.1721Z" fill="white"/>
</g>
<defs>
<clipPath id="clip0_2_3627">
<rect width="16" height="16" fill="white" transform="translate(0.101562 0.000244141)"/>
</clipPath>
</defs>
</svg>
