<svg width="17" height="16" viewBox="0 0 17 16" fill="none" xmlns="http://www.w3.org/2000/svg">
<g clip-path="url(#clip0_2_3629)">
<path d="M16.1016 8.00024C16.1016 9.58249 15.6324 11.1292 14.7533 12.4448C13.8743 13.7604 12.6248 14.7858 11.163 15.3913C9.70122 15.9968 8.09269 16.1552 6.54084 15.8465C4.989 15.5378 3.56353 14.7759 2.44471 13.6571C1.32589 12.5383 0.563966 11.1128 0.255284 9.56097C-0.0533979 8.00912 0.105029 6.40059 0.71053 4.93878C1.31603 3.47697 2.34141 2.22754 3.657 1.34849C4.9726 0.469436 6.51932 0.000244141 8.10157 0.000244141C10.2233 0.000244141 12.2581 0.843099 13.7584 2.34339C15.2587 3.84368 16.1016 5.87851 16.1016 8.00024ZM11.3597 3.87524L11.4766 3.31274C11.4851 3.28287 11.4864 3.2514 11.4804 3.22092C11.4744 3.19044 11.4613 3.16181 11.442 3.13741C11.4228 3.113 11.3981 3.0935 11.3699 3.08052C11.3416 3.06754 11.3107 3.06145 11.2797 3.06274H10.9047C10.8338 3.06572 10.7659 3.09175 10.7112 3.13687C10.6565 3.182 10.618 3.24375 10.6016 3.31274L10.4822 3.87524H9.60719L9.72657 3.31274C9.7351 3.28287 9.73642 3.2514 9.73042 3.22092C9.72442 3.19044 9.71127 3.16181 9.69205 3.13741C9.67283 3.113 9.64809 3.0935 9.61986 3.08052C9.59164 3.06754 9.56073 3.06145 9.52969 3.06274H9.15469C9.08383 3.06572 9.01588 3.09175 8.96117 3.13687C8.90646 3.182 8.86797 3.24375 8.85157 3.31274L8.73219 3.87524H3.85157L2.60157 5.37524H10.8516C11.0505 5.37524 11.2412 5.45426 11.3819 5.59491C11.5225 5.73557 11.6016 5.92633 11.6016 6.12524V6.87524C11.6016 7.07416 11.5225 7.26492 11.3819 7.40557C11.2412 7.54623 11.0505 7.62524 10.8516 7.62524H7.00032L7.31907 6.12524H5.31907L3.85782 13.0002H5.85782L6.68157 9.12524H7.61907L7.49969 9.68774C7.49116 9.71762 7.48983 9.74909 7.49583 9.77957C7.50183 9.81005 7.51499 9.83867 7.53421 9.86308C7.55343 9.88749 7.57817 9.90699 7.6064 9.91997C7.63462 9.93295 7.66553 9.93904 7.69657 9.93774H8.07157C8.14242 9.93477 8.21037 9.90874 8.26509 9.86362C8.3198 9.81849 8.35828 9.75674 8.37469 9.68774L8.49407 9.12524H9.36907L9.24969 9.68774C9.24115 9.71762 9.23983 9.74909 9.24583 9.77957C9.25183 9.81005 9.26499 9.83867 9.28421 9.86308C9.30343 9.88749 9.32817 9.90699 9.3564 9.91997C9.38462 9.93295 9.41553 9.93904 9.44657 9.93774H9.82157C9.89242 9.93477 9.96037 9.90874 10.0151 9.86362C10.0698 9.81849 10.1083 9.75674 10.1247 9.68774L10.2441 9.12524H12.1016C12.4994 9.12524 12.8809 8.96721 13.1622 8.6859C13.4435 8.4046 13.6016 8.02307 13.6016 7.62524V5.37524C13.6016 4.97742 13.4435 4.59589 13.1622 4.31458C12.8809 4.03328 12.4994 3.87524 12.1016 3.87524H11.3597Z" fill="#F7931E"/>
</g>
<defs>
<clipPath id="clip0_2_3629">
<rect width="16" height="16" fill="white" transform="translate(0.101562 0.000244141)"/>
</clipPath>
</defs>
</svg>
