<svg width="18" height="16" viewBox="0 0 18 16" fill="none" xmlns="http://www.w3.org/2000/svg">
<g clip-path="url(#clip0_2_3632)">
<path d="M4.61523 14.0457C5.1194 14.6201 5.73259 15.0886 6.41923 15.4241C7.10588 15.7596 7.85231 15.9555 8.61523 16.0003C9.52672 15.9519 10.3867 15.5624 11.0243 14.9093C12.2821 13.8321 13.6026 12.8303 14.9789 11.9093L15.7516 11.5912C16.0698 11.4548 16.6152 11.1366 17.1152 10.5457C17.6607 9.81844 17.7516 9.04571 17.7516 8.77298C17.6912 7.91284 17.4093 7.08294 16.9334 6.36389C15.6916 8.57669 13.9118 10.4406 11.7587 11.7833C9.60563 13.126 7.14873 13.9041 4.61523 14.0457Z" fill="#0293D6"/>
<path d="M6.34375 1.13664C6.68307 0.778227 7.0918 0.49264 7.54504 0.297277C7.99829 0.101913 8.48656 0.000860685 8.98011 0.0002758C9.29282 -0.0206619 9.60657 0.0207984 9.9031 0.122244C10.1996 0.22369 10.473 0.383095 10.7074 0.591185C12.0112 1.51488 13.5642 2.02199 15.1619 2.04573C15.571 2.09119 16.3892 2.22755 16.9347 2.90937C17.3438 3.45482 17.3892 4.04573 17.3892 4.31846C17.3526 5.02082 17.199 5.71215 16.9347 6.36391L6.34375 1.13664Z" fill="#EBE638"/>
<path d="M4.61559 14.0458C4.2065 14.0004 3.66104 13.864 3.02468 13.5913C2.38832 13.3186 1.61559 13.0004 1.11559 12.1367C0.797408 11.5913 0.751953 11.0458 0.751953 10.6822C0.76305 9.71782 0.996367 8.769 1.43377 7.90946C1.86895 6.84707 2.15943 5.73102 2.29741 4.59128L2.52468 3.68219C2.66104 3.22764 2.75195 2.7731 3.07013 2.31855L3.57013 1.7731C4.39597 1.25388 5.37327 1.02958 6.34286 1.13673C5.04456 2.99396 4.21021 5.13526 3.90969 7.38127C3.60916 9.62728 3.85122 11.9126 4.61559 14.0458Z" fill="#BAD147"/>
<path d="M6.3426 1.1366C6.29714 1.1366 8.79715 1.27296 10.3426 1.81841L11.6153 2.36387C11.1153 2.31841 7.93351 2.18205 5.52441 4.59114C2.47896 7.68205 3.47896 11.9093 3.52441 12.1366C2.81866 11.2487 2.46288 10.1328 2.52441 9.00023C2.58425 7.49707 2.95434 6.02252 3.61142 4.66925C4.2685 3.31598 5.19837 2.11324 6.3426 1.1366Z" fill="#78B650"/>
<path d="M12.4334 12.3639C13.2934 10.8007 13.6743 9.01898 13.5288 7.24079C13.3833 5.4626 12.7178 3.76653 11.6152 2.36389C12.9319 2.58402 14.1429 3.22141 15.0698 4.18207C15.6152 4.63662 16.2971 5.31844 16.9334 6.36389C16.0347 8.75121 14.4736 10.8326 12.4334 12.3639Z" fill="#2F8260"/>
<path d="M13.8885 4.3638C13.1612 3.13653 12.1158 2.59107 11.6612 2.3638C11.2976 2.27289 7.88849 1.72743 5.29759 4.22743C3.20668 6.22743 3.07031 8.81834 3.07031 9.31834C3.07994 11.0314 3.6552 12.6932 4.70668 14.0456C6.0579 14.3058 7.44636 14.3058 8.79759 14.0456C9.4794 13.9093 11.0703 13.6365 12.4339 12.4547C12.6158 12.2729 14.6158 10.4093 14.7521 7.45471C14.7521 6.95471 14.7521 5.68198 13.8885 4.3638ZM12.2521 10.9547C11.83 11.4139 11.3171 11.7803 10.7459 12.0307C10.1747 12.2811 9.55764 12.41 8.93395 12.4093C8.66122 12.4093 6.84304 12.3638 5.57031 10.8638C5.38849 10.6365 4.4794 9.54562 4.52486 7.90925C4.61577 5.72743 6.34304 4.45471 6.70668 4.18198C7.02486 3.95471 7.79759 3.45471 8.93395 3.40925C9.20668 3.3638 10.1612 3.31834 11.1158 3.8638C13.2067 5.00016 13.2976 7.72743 13.2976 7.90925C13.2976 8.40925 13.2976 9.77289 12.2521 10.9547Z" fill="#085229"/>
</g>
<defs>
<clipPath id="clip0_2_3632">
<rect width="17" height="16" fill="white" transform="translate(0.751953 0.000244141)"/>
</clipPath>
</defs>
</svg>
