<svg width="17" height="16" viewBox="0 0 17 16" fill="none" xmlns="http://www.w3.org/2000/svg">
<g clip-path="url(#clip0_2_3633)">
<path d="M8.75195 16.0002C13.1702 16.0002 16.752 12.4185 16.752 8.00024C16.752 3.58197 13.1702 0.000244141 8.75195 0.000244141C4.33367 0.000244141 0.751953 3.58197 0.751953 8.00024C0.751953 12.4185 4.33367 16.0002 8.75195 16.0002Z" fill="#663300"/>
<path d="M6.5957 5.03174L7.2207 3.50024L11.5017 3.51574C12.1267 3.56274 12.8767 3.56274 13.2987 4.09424C13.7987 4.67224 13.6892 5.50024 13.4392 6.15624C13.1982 6.86223 12.78 7.4945 12.2246 7.99249C11.6692 8.49047 10.9952 8.83747 10.2672 9.00024C9.2362 9.15674 8.1892 9.10974 7.1422 9.10974C7.3507 8.60124 7.5592 8.09074 7.7672 7.57824C8.6267 7.57824 9.5017 7.62524 10.3767 7.48474C11.1737 7.28174 11.9082 6.48474 11.7832 5.60974C11.7047 5.23474 11.2832 5.06274 10.9232 5.06274C9.4862 5.00024 8.0482 5.06274 6.6112 5.03124H6.5957V5.03174Z" fill="white"/>
<path d="M4.75195 5.45312H9.82995L9.15845 7.18762H4.06395L4.75195 5.46863V5.45362V5.45312ZM5.56445 7.57812H7.32995L5.48695 12.2656H3.75195L5.57995 7.57812H5.56445Z" fill="white"/>
</g>
<defs>
<clipPath id="clip0_2_3633">
<rect width="16" height="16" fill="white" transform="translate(0.751953 0.000244141)"/>
</clipPath>
</defs>
</svg>
