<svg width="17" height="16" viewBox="0 0 17 16" fill="none" xmlns="http://www.w3.org/2000/svg">
<g clip-path="url(#clip0_2_3638)">
<path d="M8.75195 16.0002C13.1702 16.0002 16.752 12.4185 16.752 8.00024C16.752 3.58197 13.1702 0.000244141 8.75195 0.000244141C4.33367 0.000244141 0.751953 3.58197 0.751953 8.00024C0.751953 12.4185 4.33367 16.0002 8.75195 16.0002Z" fill="#ED79AA"/>
<path opacity="0.5" fill-rule="evenodd" clip-rule="evenodd" d="M12.478 4.46475L11.543 5.40625C11.2061 5.06554 10.8049 4.79512 10.3627 4.61067C9.92052 4.42622 9.44609 4.33141 8.96696 4.33175C7.00946 4.33175 5.41196 5.88675 5.32796 7.83675H5.32396V11.3977C4.47155 10.4719 3.99949 9.25873 4.00196 8.00025C4.00196 5.23875 6.22496 3.00025 8.96696 3.00025C9.62 2.99978 10.2666 3.129 10.8693 3.3804C11.472 3.6318 12.0188 4.00037 12.478 4.46475ZM12.478 11.5357C11.5704 12.454 10.3389 12.9798 9.04796 13.0002V11.6682C9.98746 11.6479 10.8822 11.2629 11.543 10.5947L12.478 11.5357Z" fill="white"/>
<path fill-rule="evenodd" clip-rule="evenodd" d="M6.5918 12.3922V7.83724H6.5953C6.6653 6.53474 7.7363 5.50024 9.0473 5.50024C10.4033 5.50024 11.5028 6.60724 11.5028 7.97324C11.5028 9.33874 10.4033 10.4457 9.0478 10.4457C8.61107 10.4465 8.18221 10.3295 7.8063 10.1072V12.8627C7.38239 12.7607 6.97397 12.6026 6.5918 12.3927V12.3922ZM9.0473 9.22324C9.2109 9.22272 9.3728 9.18997 9.52374 9.12686C9.67468 9.06375 9.81172 8.97152 9.92701 8.85544C10.0423 8.73936 10.1336 8.60171 10.1957 8.45034C10.2577 8.29897 10.2894 8.13685 10.2888 7.97324C10.2888 7.28274 9.7328 6.72324 9.0473 6.72324C8.88373 6.72383 8.72189 6.75663 8.57101 6.81977C8.42012 6.88291 8.28315 6.97515 8.16791 7.09122C8.05267 7.2073 7.96143 7.34493 7.89938 7.49627C7.83733 7.64761 7.8057 7.80968 7.8063 7.97324C7.8063 8.66324 8.3618 9.22324 9.0473 9.22324Z" fill="white"/>
</g>
<defs>
<clipPath id="clip0_2_3638">
<rect width="16" height="16" fill="white" transform="translate(0.751953 0.000244141)"/>
</clipPath>
</defs>
</svg>
