<svg width="17" height="16" viewBox="0 0 17 16" fill="none" xmlns="http://www.w3.org/2000/svg">
<g clip-path="url(#clip0_2_3639)">
<path d="M8.75195 16.0002C13.1702 16.0002 16.752 12.4185 16.752 8.00024C16.752 3.58197 13.1702 0.000244141 8.75195 0.000244141C4.33367 0.000244141 0.751953 3.58197 0.751953 8.00024C0.751953 12.4185 4.33367 16.0002 8.75195 16.0002Z" fill="#96B73D"/>
<path d="M6.54874 8.05277C6.59174 8.18177 6.65524 8.30277 6.73724 8.41177L5.49074 7.15277C5.36085 7.02177 5.28798 6.84475 5.28798 6.66027C5.28798 6.47579 5.36085 6.29878 5.49074 6.16777L7.06324 4.59427C7.09574 4.57027 7.12674 4.54427 7.15674 4.51727L7.20224 4.47727L8.47574 3.20277C8.53979 3.13846 8.61593 3.08745 8.69978 3.05269C8.78364 3.01793 8.87354 3.00011 8.9643 3.00024C9.05507 3.00038 9.14492 3.01848 9.22866 3.0535C9.3124 3.08852 9.38839 3.13976 9.45224 3.20427L13.6237 7.40577C13.7188 7.54088 13.7633 7.70511 13.7495 7.86974C13.7357 8.03436 13.6645 8.18889 13.5482 8.30627C13.4335 8.42199 13.2825 8.49481 13.1205 8.51256C12.9585 8.53031 12.7953 8.4919 12.6582 8.40377L8.97324 4.68377L8.96924 4.67877L8.95724 4.66577L6.98574 6.63777L6.95574 6.66277C6.9546 6.66413 6.95343 6.66546 6.95224 6.66677L8.90024 8.63027C8.98601 8.71695 9.04763 8.82453 9.07899 8.94236C9.11036 9.0602 9.11038 9.18418 9.07905 9.30202C9.04772 9.41986 8.98613 9.52747 8.90039 9.61416C8.81464 9.70086 8.70773 9.76364 8.59024 9.79627C8.4728 9.82792 8.34907 9.82788 8.23165 9.79618C8.11423 9.76447 8.0073 9.70223 7.92174 9.61577L6.92374 8.61077C6.90924 8.59777 6.89474 8.58077 6.87674 8.56277L6.83074 8.51677C6.79729 8.47913 6.76607 8.43956 6.73724 8.39827L6.75974 8.42477L6.74474 8.40527C6.66098 8.29901 6.59481 8.18 6.54874 8.05277ZM10.6217 9.33927L8.67124 7.37477C8.54135 7.24377 8.46848 7.06675 8.46848 6.88227C8.46848 6.69779 8.54135 6.52078 8.67124 6.38977C8.73542 6.32538 8.8117 6.27433 8.8957 6.23955C8.9797 6.20478 9.06975 6.18697 9.16066 6.18716C9.25157 6.18734 9.34154 6.20552 9.4254 6.24064C9.50925 6.27575 9.58533 6.32712 9.64924 6.39177L10.6477 7.39677C10.6617 7.40927 10.6762 7.42677 10.6947 7.44427L10.7402 7.49027C10.7662 7.51927 10.7902 7.55027 10.8122 7.58177L10.8232 7.59527C10.8092 7.57523 10.7949 7.55539 10.7802 7.53577L12.0852 8.84927C12.2153 8.98038 12.2883 9.15759 12.2883 9.34227C12.2883 9.52696 12.2153 9.70416 12.0852 9.83527L10.5117 11.4093C10.4788 11.4328 10.4471 11.458 10.4167 11.4848L9.10474 12.7968C9.04078 12.8613 8.96469 12.9125 8.88084 12.9474C8.797 12.9823 8.70707 13.0003 8.61624 13.0003C8.52541 13.0003 8.43548 12.9823 8.35164 12.9474C8.2678 12.9125 8.1917 12.8613 8.12774 12.7968L3.88924 8.52327C3.78597 8.38315 3.73827 8.20974 3.75535 8.03651C3.77244 7.86328 3.85309 7.70252 3.98174 7.58527C4.10999 7.46863 4.27736 7.40441 4.45072 7.40534C4.62407 7.40626 4.79075 7.47227 4.91774 7.59027L8.60974 11.3178L8.62224 11.3328L10.5897 9.36577L10.6187 9.34227C10.6197 9.34126 10.6207 9.34026 10.6217 9.33927Z" fill="white"/>
</g>
<defs>
<clipPath id="clip0_2_3639">
<rect width="16" height="16" fill="white" transform="translate(0.751953 0.000244141)"/>
</clipPath>
</defs>
</svg>
