<svg width="17" height="16" viewBox="0 0 17 16" fill="none" xmlns="http://www.w3.org/2000/svg">
<g clip-path="url(#clip0_2_3640)">
<path d="M8.74616 0.000244141L2.2168 1.36504V10.4151C2.2168 11.7402 3.57432 12.9923 5.0444 13.9662C6.1964 14.7215 7.40184 15.3841 8.6468 15.9605L8.75272 16.0005L8.85864 15.9605C9.12352 15.8611 15.2887 13.2375 15.2887 10.4151V1.36504L8.74616 0.000244141ZM14.759 10.4151C14.759 12.3894 10.5143 14.4764 8.74616 15.1721L8.66008 15.139L8.62696 15.1257L8.56736 15.0992L8.53424 15.0859L8.47464 15.0594L8.4548 15.0528L8.38192 15.0197L8.36208 15.013L8.28264 14.9799L8.26936 14.9733L8.18328 14.9402H8.1768L8.07744 14.9002H8.0708C7.19008 14.5093 6.04448 13.9329 5.03792 13.2571L4.91872 13.1776L4.79952 13.0914L4.68696 13.0119L4.68032 13.0053L4.5744 12.9258L4.56776 12.9191L4.46168 12.8402L4.45504 12.8336L4.34912 12.7541L4.33584 12.7474L4.23648 12.6746L4.2232 12.6679L4.13048 12.595L4.1172 12.5818L4.03112 12.5089L4.01784 12.4956L3.9384 12.4227L3.91856 12.4094L3.84568 12.3366L3.82584 12.3167L3.75296 12.2438L3.73312 12.224L3.66024 12.1578L3.6404 12.1379L3.57416 12.0717L3.55432 12.0452L3.49472 11.979L3.47488 11.9525L3.41528 11.8862L3.39544 11.8598L3.34248 11.7935L3.316 11.767L3.26968 11.7074L3.2432 11.6743L3.19688 11.6147L3.1704 11.5816L3.1304 11.522L3.11056 11.4889L3.07056 11.4293L3.05072 11.3893C3.03744 11.3694 3.03088 11.3493 3.0176 11.3362L2.99112 11.2962C2.97968 11.28 2.97076 11.2621 2.96464 11.2432L2.9448 11.2032C2.93816 11.1834 2.92496 11.1701 2.91832 11.1502C2.91307 11.1362 2.90643 11.1228 2.89848 11.1102C2.89077 11.0929 2.88415 11.0752 2.87864 11.0571C2.872 11.0373 2.86536 11.0306 2.8588 11.0107C2.8534 10.9948 2.84677 10.9792 2.83896 10.9643C2.83151 10.9499 2.82699 10.9341 2.82568 10.9179C2.82568 10.9046 2.8124 10.8848 2.8124 10.8715C2.81108 10.8553 2.80657 10.8396 2.79912 10.8251C2.79248 10.8118 2.79248 10.7986 2.78584 10.7787C2.7792 10.7588 2.7792 10.7456 2.77256 10.7257C2.76759 10.713 2.76533 10.6993 2.76592 10.6857C2.76592 10.6724 2.75928 10.6526 2.75928 10.6326C2.75928 10.6127 2.75264 10.6062 2.75264 10.5926C2.7507 10.5723 2.74624 10.5523 2.73936 10.533C2.73272 10.5132 2.73936 10.5132 2.73936 10.4999V1.84872L8.71968 0.888244H8.77264L14.7528 1.84872L14.7594 10.4152L14.759 10.4151Z" fill="#5E4778"/>
<path d="M8.74642 1.55054L4.21705 2.27933L3.2832 2.42509V10.1832C3.2832 11.9786 7.14385 13.88 8.74642 14.5095C9.6801 14.1451 11.3754 13.35 12.627 12.396C12.7197 12.3232 12.819 12.2503 12.9051 12.1774C13.3356 11.8263 13.6932 11.4552 13.925 11.0776C14.1038 10.7861 14.2097 10.488 14.2097 10.1897V2.42509L8.74642 1.55054ZM6.11081 5.66474H9.29602V6.32729H6.11081V5.66474ZM12.3223 5.97618C12.3223 7.54632 11.2297 8.56015 9.71986 8.56015H7.6273V11.8728H6.79953V7.81136H9.60754C10.7333 7.81136 11.4683 7.12896 11.4683 5.97618C11.4683 4.83667 10.7333 4.17411 9.62074 4.17411H8.74642L6.65385 4.18075V3.42548H9.71306C11.2295 3.42548 12.3222 4.40603 12.3222 5.97618" fill="#5E4778"/>
<path d="M8.74647 0.000244141V0.888244H8.77295L14.7531 1.84872V10.4082C14.7531 12.3826 10.5084 14.4695 8.74023 15.1652V15.9934L8.84615 15.9534C9.11103 15.854 15.2762 13.2304 15.2762 10.408V1.36504L8.74647 0.000244141Z" fill="#5E4778"/>
<path d="M9.7128 8.55342H7.62704V8.94422C7.98162 9.22749 8.35805 9.48228 8.7528 9.70622C10.0706 10.4615 11.7658 10.9717 13.9313 11.071C14.1101 10.7795 14.216 10.4813 14.216 10.183V2.4251L8.7528 1.55054L4.2168 2.27934C4.42872 3.98206 5.05784 6.33398 6.79944 8.18246V7.81142H9.60744C10.7332 7.81142 11.4682 7.12902 11.4682 5.97622C11.4682 4.8367 10.7332 4.17414 9.62064 4.17414H8.74616L6.6536 4.18078V3.4255H9.7128C11.2226 3.4255 12.3153 4.4127 12.3153 5.9695C12.3153 7.53966 11.2293 8.5535 9.7128 8.5535V8.55342ZM8.74616 5.66478H9.2888V6.32734H6.11056V5.66478H8.74616Z" fill="#5E4778"/>
<path d="M8.66678 15.139L8.63366 15.1257L8.57406 15.1058L8.54094 15.0926L8.48134 15.0661L8.4615 15.0594L8.38861 15.0263L8.36877 15.0197L8.28933 14.9866L8.27605 14.9799L8.18997 14.9399H8.17685L8.07749 14.8999H8.07085C7.19676 14.509 6.05107 13.9326 5.0445 13.2502L4.9253 13.1707L4.8061 13.078L4.69354 12.9985L4.6869 12.9918L4.58098 12.9123L4.57434 12.9057L4.46842 12.8262L4.46178 12.8195L4.35586 12.74L4.34258 12.7334L4.24322 12.6605L4.22994 12.6538L4.13721 12.581L4.12401 12.5682L4.03793 12.4954L4.02465 12.4821L3.94521 12.4092L3.92537 12.3959L3.85249 12.323L3.83265 12.3032L3.75977 12.2303L3.73993 12.2105L3.66705 12.1442L3.64721 12.1244L3.58097 12.0582L3.56113 12.0317L3.50153 11.9654L3.48169 11.939L3.42209 11.8727L3.40225 11.8462L3.34265 11.7932L3.31617 11.7667L3.26985 11.7071L3.24337 11.674L3.19705 11.6144L3.17057 11.5813L3.13057 11.5217L3.11073 11.4886L3.07072 11.429L3.05088 11.3958C3.0376 11.376 3.03104 11.3558 3.01776 11.3428L2.99128 11.3028L2.9648 11.2498L2.94496 11.2098C2.93832 11.1899 2.92512 11.1766 2.91848 11.1567C2.91324 11.1428 2.90659 11.1294 2.89864 11.1167C2.89094 11.0995 2.88431 11.0818 2.8788 11.0637C2.87216 11.0438 2.86552 11.0372 2.85896 11.0173C2.85357 11.0013 2.84694 10.9858 2.83912 10.9709C2.83082 10.9568 2.82625 10.9408 2.82584 10.9245C2.82584 10.9046 2.81256 10.8845 2.81256 10.8714C2.81125 10.8553 2.80673 10.8395 2.79928 10.825C2.79264 10.8118 2.79264 10.7986 2.786 10.7786C2.77936 10.7587 2.77936 10.7455 2.77272 10.7256C2.76776 10.7129 2.7655 10.6993 2.76608 10.6856C2.76608 10.6723 2.75944 10.6525 2.75944 10.6326C2.75944 10.6126 2.7528 10.6061 2.7528 10.5926C2.75087 10.5722 2.74641 10.5522 2.73952 10.533C2.73288 10.5131 2.73952 10.5131 2.73952 10.4998V1.84872L8.71974 0.888244H8.74622V0.000244141L2.2168 1.36504V10.4151C2.2168 11.7402 3.57433 12.9923 5.04442 13.9662C6.19643 14.7215 7.40189 15.3841 8.64686 15.9605L8.75278 16.0005V15.1721L8.6667 15.139" fill="#3D3144"/>
<path d="M8.74642 9.70628C8.35167 9.48235 7.97524 9.22756 7.62066 8.94428V11.8723H6.79305V8.18245C5.05129 6.32741 4.42881 3.97541 4.21705 2.27942L3.2832 2.42518V10.1833C3.2832 11.9788 7.14385 13.8802 8.74642 14.5096C9.6801 14.1452 11.3754 13.3502 12.627 12.3962C12.7197 12.3233 12.819 12.2504 12.9052 12.1776C13.3356 11.8264 13.6932 11.4554 13.925 11.0778C11.7595 10.9652 10.0709 10.455 8.7465 9.70636" fill="#3D3144"/>
</g>
<defs>
<clipPath id="clip0_2_3640">
<rect width="16" height="16" fill="white" transform="translate(0.751953 0.000244141)"/>
</clipPath>
</defs>
</svg>
