<svg width="17" height="16" viewBox="0 0 17 16" fill="none" xmlns="http://www.w3.org/2000/svg">
<g clip-path="url(#clip0_2_3642)">
<path d="M8.75195 16.0002C13.1702 16.0002 16.752 12.4185 16.752 8.00024C16.752 3.58197 13.1702 0.000244141 8.75195 0.000244141C4.33367 0.000244141 0.751953 3.58197 0.751953 8.00024C0.751953 12.4185 4.33367 16.0002 8.75195 16.0002Z" fill="#2C3E50"/>
<path d="M13.57 11.3404V10.8404C13.57 10.7414 13.5035 10.6754 13.4025 10.6754H13.07V10.1734C13.07 10.0739 13.0035 10.0064 12.9045 10.0064H12.5715V6.33389H12.9025C13.002 6.33389 13.07 6.26789 13.07 6.16689V5.66689H13.4025C13.4416 5.66853 13.4801 5.65583 13.5105 5.63116C13.541 5.60649 13.5614 5.57154 13.568 5.53289C13.585 5.44989 13.5515 5.38389 13.4855 5.34889L8.82645 3.01289C8.77816 2.99635 8.72574 2.99635 8.67745 3.01289L3.85145 5.34889C3.81977 5.36614 3.79454 5.39321 3.77958 5.42603C3.76461 5.45886 3.7607 5.49565 3.76845 5.53089C3.76845 5.61589 3.83495 5.66689 3.91745 5.66689H4.41745V6.16689C4.41745 6.26589 4.48395 6.33189 4.58295 6.33189H4.91595V10.0064H4.58495C4.48495 10.0064 4.41745 10.0724 4.41745 10.1714V10.6734H4.08495C3.98495 10.6734 3.91895 10.7394 3.91895 10.8389V11.3404C3.81995 11.3404 3.75195 11.4069 3.75195 11.5079C3.75195 11.6089 3.81795 11.6749 3.91745 11.6749H13.57C13.669 11.6749 13.737 11.6089 13.737 11.5099C13.737 11.4099 13.671 11.3404 13.572 11.3404H13.57ZM4.74845 5.99939V5.66689H12.7355V5.99939H4.74845ZM11.57 6.33439V10.0064H10.906V6.33389H11.57V6.33439ZM9.90595 6.33439V10.0064H9.24045V6.33389H9.90545L9.90595 6.33439ZM8.24195 6.33439V10.0064H7.57795V6.33389H8.24195V6.33439ZM6.57795 6.33439V10.0064H5.91445V6.33389H6.57795V6.33439ZM12.7355 10.6734H4.75045V10.3389H12.737V10.6734H12.7355Z" fill="white"/>
</g>
<defs>
<clipPath id="clip0_2_3642">
<rect width="16" height="16" fill="white" transform="translate(0.751953 0.000244141)"/>
</clipPath>
</defs>
</svg>
