<svg width="18" height="16" viewBox="0 0 18 16" fill="none" xmlns="http://www.w3.org/2000/svg">
<g clip-path="url(#clip0_2_3645)">
<path d="M2.44495 4.25465H10.7812C12.0288 4.25465 13.0438 5.26962 13.0438 6.51719C13.0438 7.76475 12.0288 8.77972 10.7812 8.77972H6.27054C6.0997 8.77972 5.93585 8.84759 5.81504 8.96839C5.69424 9.0892 5.62637 9.25305 5.62637 9.42389C5.62637 9.59474 5.69424 9.75858 5.81504 9.87939C5.93585 10.0002 6.0997 10.0681 6.27054 10.0681H10.7811C12.739 10.0681 14.332 8.47535 14.332 6.51719C14.332 4.55902 12.739 2.96631 10.7811 2.96631H2.44495C2.27411 2.96631 2.11026 3.03418 1.98945 3.15498C1.86865 3.27579 1.80078 3.43963 1.80078 3.61048C1.80078 3.78132 1.86865 3.94517 1.98945 4.06598C2.11026 4.18678 2.27411 4.25465 2.44495 4.25465Z" fill="#8500FF"/>
<path d="M10.7806 0.000244141H7.54721C7.37636 0.000244141 7.21252 0.0681119 7.09171 0.188917C6.9709 0.309723 6.90304 0.47357 6.90304 0.644415C6.90304 0.81526 6.9709 0.979107 7.09171 1.09991C7.21252 1.22072 7.37636 1.28859 7.54721 1.28859H10.7806C13.6637 1.28859 16.009 3.63409 16.009 6.51715C16.009 9.40021 13.6635 11.7458 10.7804 11.7458H2.56744C2.48225 11.7448 2.39771 11.7608 2.31871 11.7927C2.23972 11.8246 2.16785 11.8719 2.10727 11.9318C2.04668 11.9917 1.99858 12.063 1.96575 12.1417C1.93292 12.2203 1.91602 12.3046 1.91602 12.3898C1.91602 12.475 1.93292 12.5594 1.96575 12.638C1.99858 12.7166 2.04668 12.788 2.10727 12.8479C2.16785 12.9078 2.23972 12.955 2.31871 12.987C2.39771 13.0189 2.48225 13.0349 2.56744 13.0339H10.7804C14.3739 13.0339 17.2974 10.1105 17.2974 6.51698C17.2974 2.92349 14.3741 0.000244141 10.7806 0.000244141Z" fill="#8500FF"/>
<path d="M7.04637 6.51672C7.04617 6.34594 6.97824 6.18221 6.85748 6.06145C6.73671 5.94069 6.57298 5.87276 6.4022 5.87256H4.83229C4.66151 5.87276 4.49778 5.94069 4.37701 6.06145C4.25625 6.18221 4.18832 6.34594 4.18812 6.51672C4.18812 6.87356 4.47303 7.16088 4.70881 7.16088H6.27854C6.73072 7.16088 7.04637 6.89595 7.04637 6.51672ZM5.00733 14.7115H1.28041C1.19521 14.7105 1.11066 14.7264 1.03166 14.7584C0.952655 14.7903 0.880776 14.8376 0.820181 14.8975C0.759585 14.9574 0.711478 15.0287 0.678645 15.1074C0.645812 15.186 0.628906 15.2704 0.628906 15.3556C0.628906 15.4408 0.645812 15.5252 0.678645 15.6038C0.711478 15.6824 0.759585 15.7538 0.820181 15.8137C0.880776 15.8736 0.952655 15.9209 1.03166 15.9528C1.11066 15.9847 1.19521 16.0007 1.28041 15.9997H5.00733C5.09254 16.0007 5.17709 15.9847 5.25609 15.9528C5.33509 15.9209 5.40697 15.8736 5.46756 15.8137C5.52816 15.7538 5.57626 15.6824 5.6091 15.6038C5.64193 15.5252 5.65884 15.4408 5.65884 15.3556C5.65884 15.2704 5.64193 15.186 5.6091 15.1074C5.57626 15.0287 5.52816 14.9574 5.46756 14.8975C5.40697 14.8376 5.33509 14.7903 5.25609 14.7584C5.17709 14.7264 5.09254 14.7105 5.00733 14.7115Z" fill="#8500FF"/>
</g>
<defs>
<clipPath id="clip0_2_3645">
<rect width="16.6615" height="16" fill="white" transform="translate(0.636719 0.000244141)"/>
</clipPath>
</defs>
</svg>
