<svg width="17" height="16" viewBox="0 0 17 16" fill="none" xmlns="http://www.w3.org/2000/svg">
<g clip-path="url(#clip0_2_3646)">
<path d="M8.29688 16.0002C12.7152 16.0002 16.2969 12.4185 16.2969 8.00024C16.2969 3.58197 12.7152 0.000244141 8.29688 0.000244141C3.8786 0.000244141 0.296875 3.58197 0.296875 8.00024C0.296875 12.4185 3.8786 16.0002 8.29688 16.0002Z" fill="#152743"/>
<path d="M8.32095 4.15826C7.66295 4.15826 7.12945 3.79176 7.12945 3.33926C7.12945 2.88676 7.66295 2.52026 8.32095 2.52026C8.97895 2.52026 9.51195 2.88676 9.51195 3.33926C9.51195 3.79176 8.97895 4.15826 8.32095 4.15826ZM7.70445 13.3003V4.55226H10.3605C10.459 4.55226 10.5285 4.62576 10.5285 4.72426V9.57826C10.5285 9.67626 10.4585 9.76026 10.3605 9.76026H8.89645V13.3003C8.89645 13.3988 8.82145 13.4883 8.72295 13.4883H7.88895C7.84011 13.4864 7.79383 13.4659 7.75955 13.4311C7.72527 13.3962 7.70556 13.3496 7.70445 13.3008V13.3003ZM7.25645 9.75976H6.25145C6.20286 9.75928 6.15633 9.74011 6.1215 9.70621C6.08668 9.67232 6.06625 9.62632 6.06445 9.57776V4.72426C6.06445 4.62576 6.15295 4.55226 6.25095 4.55226H7.25645V9.76026V9.75976Z" fill="white"/>
</g>
<defs>
<clipPath id="clip0_2_3646">
<rect width="16" height="16" fill="white" transform="translate(0.296875 0.000244141)"/>
</clipPath>
</defs>
</svg>
