<svg width="17" height="16" viewBox="0 0 17 16" fill="none" xmlns="http://www.w3.org/2000/svg">
<g clip-path="url(#clip0_2_3647)">
<path d="M8.29688 16.0002C12.7152 16.0002 16.2969 12.4185 16.2969 8.00024C16.2969 3.58197 12.7152 0.000244141 8.29688 0.000244141C3.8786 0.000244141 0.296875 3.58197 0.296875 8.00024C0.296875 12.4185 3.8786 16.0002 8.29688 16.0002Z" fill="#105B2F"/>
<path fill-rule="evenodd" clip-rule="evenodd" d="M6.31338 9.0902L6.11838 10.0837L5.76337 11.9092C5.75337 11.9642 5.73938 12.0012 5.66938 12.0002C5.22838 11.9937 4.78738 11.9902 4.34637 11.9852C4.33587 11.9852 4.32488 11.9782 4.29688 11.9677L5.29188 6.9977H4.45337C4.45537 6.9607 4.45437 6.9387 4.45837 6.9177C4.50987 6.6492 4.56538 6.3812 4.61188 6.1117C4.62488 6.0367 4.65837 6.0177 4.72838 6.0182C4.93338 6.0202 5.13837 6.0127 5.34237 6.0197C5.43987 6.0227 5.47738 5.9947 5.49638 5.8987C5.61038 5.3047 5.73237 4.7127 5.84938 4.1197C5.86337 4.0492 5.87888 4.0007 5.97088 4.0007C6.97487 4.0037 7.97938 3.9942 8.98338 4.0072C9.56938 4.0147 10.1569 4.0447 10.7334 4.1632C10.9319 4.2042 11.1334 4.2572 11.3174 4.3392C11.8464 4.5742 12.1649 4.9812 12.2534 5.5447C12.3909 6.4202 12.2054 7.2247 11.6434 7.9257C11.2284 8.4417 10.6594 8.73119 10.0239 8.9072C9.51988 9.0467 9.00288 9.0902 8.48188 9.0912C7.80438 9.0927 7.12688 9.0912 6.44938 9.0907H6.31338V9.0902ZM6.59088 7.7212H6.73238C7.44888 7.7212 8.16538 7.7227 8.88238 7.7202C9.03488 7.7202 9.18938 7.7137 9.34088 7.6952C9.91938 7.6262 10.3589 7.3487 10.6399 6.8452C10.7604 6.62685 10.8009 6.37324 10.7544 6.1282C10.6954 5.7797 10.4874 5.5522 10.1339 5.4882C9.87508 5.43887 9.61273 5.41045 9.34938 5.4032C8.61338 5.3897 7.87738 5.3952 7.14088 5.3932C7.11438 5.3932 7.08788 5.3972 7.05238 5.4002L6.93038 6.0242H8.97538L8.78738 6.9932H6.73588L6.59088 7.7212Z" fill="white"/>
</g>
<defs>
<clipPath id="clip0_2_3647">
<rect width="16" height="16" fill="white" transform="translate(0.296875 0.000244141)"/>
</clipPath>
</defs>
</svg>
