<svg width="16" height="16" viewBox="0 0 16 16" fill="none" xmlns="http://www.w3.org/2000/svg">
<g clip-path="url(#clip0_2_3648)">
<path d="M15.8379 7.84055C15.3912 7.40977 14.9687 6.95532 14.5219 6.52455C14.3907 6.42342 14.3446 6.24611 14.4106 6.09378C14.5943 5.47162 14.7536 4.84947 14.929 4.22731C14.977 4.07561 14.9527 4.01225 14.7856 3.97192C14.1475 3.81254 13.5176 3.62116 12.8712 3.46114C12.6875 3.42146 12.6158 3.32544 12.5761 3.15774C12.4167 2.53559 12.2413 1.92944 12.0896 1.30728C12.0416 1.12358 11.9859 1.08389 11.8022 1.13958C11.1801 1.31496 10.5502 1.47434 9.92809 1.63436C9.8244 1.66636 9.72839 1.69005 9.63302 1.59468C9.12224 1.06917 8.58777 0.566712 8.09363 0.0162461C8.03731 0.0175262 7.98098 0.0124056 7.92593 0.000244141C7.92913 0.0424892 7.90737 0.0834541 7.87025 0.103937C7.39147 0.574393 6.91333 1.04485 6.44224 1.52363C6.35199 1.63436 6.19965 1.67341 6.06715 1.61964C5.445 1.44426 4.82284 1.28488 4.20069 1.10886C4.02531 1.06085 3.95362 1.09286 3.90561 1.27656C3.74623 1.89871 3.56253 2.52087 3.40315 3.14302C3.38651 3.2736 3.28602 3.37793 3.15608 3.39841C2.52625 3.55779 1.91177 3.73317 1.28194 3.88487C1.07455 3.93288 1.01886 4.00457 1.08223 4.21963C1.26593 4.8341 1.40931 5.46394 1.58469 6.08609C1.64102 6.21859 1.60197 6.37157 1.48868 6.46118C1.01822 6.91563 0.56313 7.38673 0.0926735 7.84119C-0.0347018 7.96088 -0.0270209 8.03257 0.0926735 8.15226C0.555449 8.60672 1.00222 9.06949 1.46436 9.52395C1.57829 9.60844 1.62118 9.7595 1.56805 9.89071C1.39267 10.5052 1.24097 11.119 1.05727 11.7335C0.993262 11.9486 1.02527 12.0369 1.25697 12.0926C1.87913 12.2443 2.48528 12.4273 3.10744 12.579C3.29114 12.6187 3.36283 12.7147 3.40251 12.8824C3.56189 13.5123 3.73727 14.1267 3.89729 14.7566C3.93698 14.916 3.9933 14.9563 4.15268 14.9083C4.76715 14.7329 5.38867 14.5895 6.00314 14.4135C6.16636 14.352 6.3507 14.4039 6.4576 14.5409C6.89605 14.9953 7.34282 15.4344 7.78192 15.8889C7.91761 16.0322 7.99698 16.0406 8.141 15.8966C8.57945 15.4338 9.04223 14.9953 9.489 14.5325C9.58949 14.4001 9.76551 14.3514 9.91977 14.4129C10.5342 14.5966 11.1481 14.7476 11.7626 14.9236C11.9379 14.9716 12.0096 14.9396 12.0576 14.7559C12.2093 14.1415 12.4007 13.5276 12.5524 12.9132C12.5921 12.7295 12.6798 12.6578 12.8558 12.6181C13.478 12.4664 14.0841 12.291 14.7063 12.1393C14.89 12.0996 14.9457 12.0279 14.89 11.8359C14.7146 11.2138 14.5552 10.5756 14.3792 9.94576C14.3229 9.81326 14.3619 9.66028 14.4752 9.57067C14.9297 9.13222 15.3764 8.66945 15.8392 8.23099C16.0056 8.07225 15.9896 7.99224 15.8379 7.84055ZM4.0093 7.4821C4.0093 7.48274 4.0093 7.48338 4.0093 7.48402C4.00674 7.75478 3.78528 7.97176 3.51452 7.9692H3.01975C2.81236 7.9692 2.60497 7.9692 2.38991 7.97688C2.27854 7.97688 2.24653 7.9372 2.27022 7.82518C2.3259 7.59412 2.38159 7.41041 2.68498 7.36241C3.07607 7.30672 3.45052 7.17103 3.83328 7.05901C3.96898 7.02701 4.02467 7.04301 4.00866 7.18639C4.00162 7.2824 4.0093 7.38609 4.0093 7.4821ZM3.98562 11.834C3.65662 11.5242 3.36219 11.2381 3.06007 10.952C3.31546 10.8086 3.56253 10.6729 3.80192 10.5295C3.93762 10.4495 3.98562 10.4655 3.98562 10.6332C3.97794 11.0224 3.98562 11.4205 3.98562 11.834ZM3.10039 10.7843C3.00438 10.8399 2.9807 10.8163 2.95702 10.7203C2.88533 10.4329 2.79764 10.1461 2.72595 9.85871C2.70995 9.7947 2.70227 9.71533 2.76563 9.67501C2.82964 9.63532 2.87701 9.69101 2.92501 9.71469C3.25209 9.89839 3.57917 10.0898 3.95426 10.2972C3.65086 10.4649 3.37115 10.6166 3.10039 10.7843ZM2.49424 6.50855C2.41423 6.70825 2.13516 6.73961 1.9521 6.86763C1.76839 6.39717 1.76839 6.39717 2.08779 6.07009C2.31118 5.84671 2.53457 5.63164 2.75795 5.40825C2.77844 5.39545 2.79956 5.38521 2.82196 5.37625C2.70931 5.77502 2.63762 6.15778 2.49424 6.50855ZM2.97238 5.28856C2.98838 5.21687 3.04407 5.23287 3.08375 5.25656C3.35515 5.41593 3.61822 5.57531 3.92097 5.75133C3.4902 5.9984 3.09911 6.22179 2.65298 6.46118C2.76499 6.03809 2.86869 5.663 2.97238 5.28856ZM2.13516 7.38609C2.04747 7.38609 2.04747 7.2984 2.03147 7.24271C1.94378 6.97964 1.95978 6.96364 2.43856 6.76394C2.39375 6.94764 2.35086 7.0987 2.31438 7.24271C2.30222 7.3304 2.22349 7.39377 2.13516 7.38609ZM1.65638 7.52179C1.35298 7.6018 1.05023 7.67349 0.746832 7.74517L0.723149 7.71317L1.82408 7.06733C2.00778 7.41041 1.99946 7.4341 1.65638 7.52179ZM1.88809 7.58579C2.09547 7.53779 2.03147 7.7535 2.07179 7.84119C2.11148 7.92888 2.05579 7.96856 1.96042 7.96856H0.659782C0.659782 7.95256 0.652101 7.92888 0.652101 7.91287C1.05855 7.80918 1.465 7.68949 1.88809 7.58579ZM2.20045 8.34045C2.27982 8.64192 2.35919 8.9434 2.44944 9.26856C1.84456 8.97412 1.92265 9.1399 2.20045 8.34045ZM1.99498 9.19687C2.19469 9.18919 2.55313 9.52395 2.55313 9.70765C2.50192 9.84335 2.39375 9.97072 2.29006 10.1147C2.28238 10.1147 2.27406 10.1224 2.26637 10.1224C2.18636 10.1384 1.79592 9.65964 1.81192 9.57195C1.8196 9.55595 1.8196 9.53995 1.82792 9.52395C1.88297 9.41193 1.8196 9.20455 1.99498 9.19687ZM2.17036 10.5129C2.25037 10.3932 2.30606 10.3452 2.41743 10.4809C2.52049 10.5986 2.6293 10.71 2.74451 10.8156C2.7842 10.8636 2.86421 10.9033 2.76051 10.9673C2.30606 11.2227 1.84328 11.4858 1.38883 11.7412C1.37603 11.7297 1.36579 11.7162 1.35683 11.7015C1.62438 11.3027 1.89577 10.9116 2.17036 10.5129ZM2.61394 9.90671C2.68562 10.1621 2.74963 10.4175 2.82132 10.6882C2.30286 10.3215 2.28686 10.2735 2.61394 9.90671ZM2.80532 9.35625C2.71763 9.49194 2.62162 9.43626 2.59025 9.32424C2.47888 8.94148 2.37519 8.55871 2.27918 8.17595C2.23949 8.04857 2.35086 8.07994 2.41487 8.07994H3.68286C3.37115 8.53503 3.09207 8.9498 2.80532 9.35625ZM3.93762 6.91563C3.45116 7.04301 2.9647 7.17103 2.45392 7.30672C2.48592 6.84395 2.6453 6.54119 3.06839 6.37349C3.38715 6.24611 3.67454 6.03873 4.01762 5.84735V6.80426C4.02467 6.85611 3.9901 6.90539 3.93762 6.91563ZM4.0093 4.4667V5.65532C3.71423 5.48762 3.45116 5.32824 3.19577 5.17655C3.10808 5.12854 3.08439 5.08053 3.17208 4.99284C3.38715 4.78546 3.59453 4.57807 3.80192 4.36301C3.84096 4.30604 3.91521 4.2862 3.9773 4.315C4.04131 4.33932 4.0093 4.41101 4.0093 4.4667ZM3.12408 4.79378C3.20409 4.22731 3.24377 4.18763 3.65854 4.315C3.47484 4.4827 3.29178 4.64208 3.12408 4.79378ZM3.94594 1.72333C3.96194 1.73101 3.98562 1.73101 4.00162 1.73933V2.79994C4.00162 3.23839 4.00162 3.23839 3.51516 3.3024C3.65854 2.76794 3.80192 2.24179 3.94594 1.72333ZM3.41915 3.62948C3.45116 3.4221 3.61054 3.44578 3.74623 3.39009C3.9773 3.29408 4.02531 3.39777 4.00162 3.59748V3.69349C4.00162 4.12426 3.78656 4.28364 3.38715 4.14026C3.33914 4.12426 3.30714 4.10826 3.31546 4.06025C3.34746 3.91623 3.39547 3.77286 3.41915 3.62948ZM1.58469 3.95656C2.15436 3.81318 2.72531 3.66148 3.32378 3.50979C3.27578 3.70117 3.23609 3.85287 3.19641 4.01225C3.1644 4.13962 3.06903 4.11594 2.98134 4.10826C2.51856 4.06857 2.04811 4.03657 1.57765 3.99688C1.58341 3.98408 1.58597 3.97 1.58469 3.95656ZM2.98838 4.22731C3.09975 4.23499 3.12408 4.27532 3.09975 4.38669C2.95638 5.04085 2.96406 5.04085 2.39759 4.70545C2.10251 4.53007 1.79912 4.35469 1.47204 4.1633C2.00778 4.11594 2.50192 4.20363 2.98838 4.22731ZM1.25761 4.26764C1.24993 4.24395 1.24993 4.22795 1.24161 4.20363C1.26529 4.20363 1.2813 4.21131 1.30562 4.21131C1.7844 4.49038 2.27085 4.77778 2.76499 5.05685C2.813 5.08886 2.88469 5.10486 2.80468 5.19255C2.4776 5.52731 2.15884 5.87039 1.83944 6.21347C1.80872 6.20323 1.77928 6.19043 1.75175 6.17379C1.58469 5.53563 1.42531 4.90579 1.25761 4.26764ZM1.67238 6.48486C1.69607 6.50855 1.72039 6.51687 1.72039 6.52455C1.83176 6.93164 1.83176 6.93164 1.465 7.13902C1.19361 7.2984 0.914532 7.4501 0.611776 7.6178C0.97854 7.21839 1.32162 6.85163 1.67238 6.48486ZM0.380708 8.07994C0.891489 8.07994 1.39395 8.07993 1.90409 8.07225C2.03979 8.07225 2.09547 8.09594 2.03979 8.25596C1.95978 8.47102 1.9681 8.8141 1.82472 8.88579C1.65702 8.97348 1.42595 8.71041 1.22625 8.60672C0.938855 8.45502 0.659782 8.27964 0.373027 8.12026C0.375587 8.10682 0.378788 8.09338 0.380708 8.07994ZM0.579772 8.43134L0.587453 8.42366C0.994542 8.57535 1.3453 8.83074 1.71975 9.03813C1.82344 9.09382 1.79976 9.23783 1.64806 9.54059C1.28194 9.17255 0.914532 8.82178 0.579772 8.43134ZM1.72807 9.84271C1.75175 9.85039 1.77608 9.85039 1.78376 9.85871C2.19853 10.2575 2.19853 10.2575 1.87145 10.7279C1.69607 10.9833 1.51236 11.2304 1.33698 11.4775L1.2973 11.4455L1.72807 9.84271ZM1.24161 11.9722C1.79976 11.6535 2.30222 11.3661 2.813 11.0787C2.87701 11.039 2.90901 11.0467 2.93269 11.1267C3.05239 11.5812 3.17208 12.0279 3.30778 12.5304C2.59793 12.3313 1.95146 12.1559 1.24161 11.9722ZM3.96514 14.3015C3.94914 14.3015 3.93313 14.3092 3.91713 14.3092C3.77376 13.7907 3.63806 13.2722 3.49468 12.7378H3.49148C3.54717 12.7301 3.56317 12.7218 3.58237 12.7301C3.96514 12.8178 3.96514 12.8178 3.96514 13.2166V14.3015ZM3.97794 12.6744C3.92225 12.6821 3.91393 12.6904 3.91393 12.6904C3.56317 12.6667 3.37179 12.4907 3.32378 12.1323C3.27578 11.8289 3.1804 11.5421 3.1484 11.2227C3.40379 11.4781 3.67454 11.7175 3.90625 11.9966C4.07331 12.1956 3.91393 12.4433 3.97794 12.6744ZM4.0093 8.84611L3.98562 9.96304C3.98562 10.1064 3.96194 10.1704 3.81024 10.0744C3.53885 9.91504 3.26809 9.75566 2.98838 9.61164C2.86869 9.54763 2.86869 9.49194 2.94038 9.38825C3.21945 8.98948 3.49852 8.59072 3.76992 8.18363C3.80128 8.11322 3.87745 8.07353 3.95362 8.08762C4.06499 8.10362 4.0093 8.19131 4.0093 8.24699C4.01762 8.4467 4.0093 8.6464 4.0093 8.84611ZM10.869 5.08117C10.6296 4.92179 10.3345 4.85779 10.2309 4.54671C10.1892 4.45774 10.1924 4.35405 10.2385 4.26764C10.4459 3.92456 10.6456 3.58147 10.837 3.23839C10.917 3.1027 10.9644 3.12702 11.0681 3.21471C11.2435 3.36641 11.3075 3.51811 11.2275 3.74917C11.0924 4.18763 10.9887 4.6344 10.869 5.08117ZM11.8662 11.0953C11.8662 11.7572 11.8662 11.7572 11.2044 11.7015C10.8856 11.6778 10.5586 11.6458 10.2392 11.6215C10.1592 11.6138 10.0958 11.6055 10.0715 11.5101C10.0478 11.4141 10.1355 11.4064 10.1912 11.3744C10.6936 11.0953 11.1884 10.8163 11.6825 10.5289C11.8342 10.4412 11.8822 10.4809 11.8662 10.6486C11.8579 10.8003 11.8662 10.9436 11.8662 11.0953ZM8.98654 13.1129C8.71515 12.9132 8.40407 12.7621 8.09299 12.5784C8.38039 12.419 8.64346 12.2673 8.91485 12.1079C8.96158 12.0721 9.02815 12.0791 9.06655 12.1239C9.41731 12.4747 9.7764 12.8261 10.1432 13.1929C10.0952 13.2326 10.0875 13.2409 10.0875 13.2409C9.69639 13.4163 9.33794 13.3843 8.98654 13.1129ZM9.31362 13.4483C8.89885 13.552 8.53209 13.6556 8.16532 13.7517C8.07763 13.7753 8.04563 13.7517 8.04563 13.6556V12.6987C8.48408 12.9535 8.87517 13.1845 9.31362 13.4483ZM5.26193 13.0572C5.15056 13.0252 5.20625 12.9612 5.23825 12.9055C5.44564 12.5464 5.6607 12.1873 5.88409 11.7969C6.11516 12.2833 6.33086 12.7301 6.53825 13.1769C6.61826 13.3362 6.53825 13.3919 6.41087 13.3606C6.02747 13.2729 5.6447 13.1609 5.26193 13.0572ZM6.31486 13.4643C5.78872 13.815 5.77272 13.8073 5.30994 13.1929C5.65238 13.2882 5.97178 13.3682 6.31486 13.4643ZM5.10576 11.071C5.11344 11.0313 5.13776 10.991 5.18576 11.023C5.35347 11.1267 5.55253 11.1747 5.67222 11.3501C5.79192 11.5255 5.83992 11.7008 5.68823 11.9082C5.50644 12.1751 5.34386 12.4555 5.20177 12.7455C5.08207 12.9765 4.9867 12.9605 4.851 12.7775C4.79532 12.6974 4.6833 12.6578 4.70763 12.5304C4.83884 12.0446 4.96686 11.5575 5.10576 11.071ZM4.12132 3.44578C4.12004 3.43938 4.11876 3.43234 4.11876 3.42594C4.11172 3.33825 4.17764 3.26144 4.26533 3.25439C4.44072 3.22239 4.6161 3.17439 4.79148 3.12702C4.8126 3.12318 4.83436 3.12318 4.85549 3.12702C4.84076 3.13662 4.82924 3.1507 4.82348 3.1667C4.60009 3.38177 4.37671 3.60516 4.12132 3.85287C4.12132 3.70117 4.129 3.57379 4.12132 3.44578ZM4.177 4.00456C4.4644 3.70117 4.75947 3.40609 5.07823 3.07901C5.3253 3.50979 5.54101 3.89255 5.7964 4.32332C5.22993 4.28364 4.71147 4.25163 4.20133 4.19595C4.04963 4.17995 4.113 4.06793 4.177 4.00456ZM6.89669 2.87995C7.19177 3.11102 7.54253 3.27872 7.90161 3.4861C7.61422 3.6538 7.35947 3.79718 7.10408 3.94888C7.04007 3.98856 6.9927 4.01289 6.92869 3.94888C6.57793 3.5898 6.21885 3.23903 5.84376 2.86395C6.22717 2.71225 6.54593 2.60856 6.89669 2.87995ZM6.68162 2.62456C7.08871 2.51319 7.44716 2.41717 7.81392 2.32116C7.90161 2.29748 7.94962 2.30516 7.94962 2.41717V3.36641C7.51885 3.1187 7.12008 2.87995 6.68162 2.62456ZM7.65006 5.9664C7.57005 5.87039 7.44268 5.97408 7.34666 5.9984C6.9479 6.09442 6.95558 6.1021 6.74819 5.74301C6.57281 5.42426 6.39743 5.10486 6.20605 4.79378C6.13436 4.6664 6.14204 4.6024 6.27774 4.54671C6.35775 4.51471 6.42943 4.47502 6.50112 4.44302C6.66882 4.37133 6.81988 4.17995 6.9799 4.21195C7.1636 4.25163 7.27498 4.46734 7.41835 4.60304C7.86193 5.04981 8.30038 5.50427 8.75547 5.93504C8.92701 6.0925 9.03263 6.30884 9.05055 6.54119C8.53529 6.4535 8.02963 6.37349 7.53037 6.27812C7.53037 6.26212 7.52269 6.24611 7.53037 6.23011C7.55405 6.1341 7.73775 6.07777 7.65006 5.9664ZM4.129 4.95316L4.1322 4.87315C4.1322 4.30668 4.1322 4.30668 4.68266 4.34701C5.03343 4.37069 5.39251 4.41101 5.74327 4.4347C5.82328 4.44238 5.89177 4.44238 5.91545 4.53839C5.93914 4.6344 5.85145 4.64208 5.80408 4.67409L4.2967 5.53563C4.13732 5.63164 4.12132 5.55931 4.129 5.42426C4.13732 5.26424 4.129 5.11318 4.129 4.95316ZM4.63146 5.48762C5.05391 5.28024 5.445 5.04085 5.84376 4.80146C5.99546 4.70545 6.05115 4.75345 6.12284 4.88915C6.31422 5.25592 6.52161 5.615 6.73731 5.96576C6.825 6.10914 6.80132 6.14946 6.6413 6.18915C5.88345 6.38053 5.1256 6.58791 4.36839 6.7953C4.20069 6.84331 4.13732 6.8273 4.161 6.6436C4.16868 6.53223 4.161 6.41253 4.161 6.22883C4.02531 5.85503 4.27302 5.65532 4.63146 5.48762ZM4.13732 7.80086C4.145 7.69717 4.161 7.5858 4.161 7.4821C4.16868 6.97964 4.16868 6.97964 4.63978 6.85227C5.25425 6.69289 5.86809 6.53351 6.48256 6.35749C6.72963 6.2858 6.96902 6.2538 7.23209 6.38117C6.89733 6.77994 6.57025 7.17871 6.25085 7.57747C6.13948 7.49746 6.18685 7.29008 6.05115 7.30608C5.93145 7.32208 5.96346 7.49746 5.92377 7.60116C5.89497 7.67861 5.87385 7.75862 5.85977 7.84055C5.85977 7.84247 5.85913 7.84503 5.85913 7.84695C5.8444 7.9372 5.75927 7.99864 5.66838 7.98392C5.21393 7.97624 4.75883 7.96792 4.30438 7.97624C4.161 7.97624 4.12132 7.92056 4.13732 7.80086ZM5.83608 2.71993C5.75479 2.74937 5.66454 2.71097 5.6287 2.63224C5.57301 2.54455 5.6607 2.51255 5.70039 2.47286C5.89177 2.26548 5.90009 2.26548 6.33854 2.58423C6.15484 2.63224 5.98778 2.66424 5.83608 2.71993ZM5.65558 2.32948C5.55189 2.48118 5.45588 2.48886 5.32082 2.33716C5.12112 2.11378 4.89837 1.90639 4.68266 1.69133C4.69035 1.67533 4.69867 1.65164 4.70635 1.63564C5.07823 1.77902 5.38931 2.03441 5.72727 2.20211C5.73559 2.27316 5.6799 2.28916 5.65558 2.32948ZM5.95578 3.1507C6.25917 3.44578 6.55425 3.74085 6.88133 4.06025C6.73219 4.15882 6.57793 4.24971 6.41855 4.33164C6.19581 4.43214 5.93337 4.34125 5.82008 4.12426C5.6127 3.7575 5.40531 3.39841 5.19793 3.03165C5.65238 2.84795 5.65238 2.85563 5.95578 3.1507ZM4.113 8.28732C4.113 8.13562 4.13668 8.07225 4.3127 8.07994C4.74347 8.09594 5.17424 8.08762 5.60502 8.08762C5.71639 8.08762 5.7804 8.10362 5.74071 8.23931C5.50964 9.07653 5.28626 9.91439 5.05455 10.7759C4.91117 10.6882 4.79148 10.6242 4.67946 10.5609C4.08931 10.2261 4.08931 10.2261 4.10532 9.55595C4.12132 9.13286 4.12132 8.71041 4.113 8.28732ZM6.01979 11.7732C5.9801 11.7015 5.95578 11.6375 6.02747 11.5735C6.08315 11.5178 6.13116 11.5735 6.17916 11.5972C6.72963 11.9159 7.27178 12.243 7.84592 12.5784C7.50284 12.7781 7.19177 12.9612 6.88901 13.1449C6.78532 13.2166 6.71363 13.2409 6.64962 13.0892C6.45056 12.6507 6.23485 12.2116 6.01979 11.7732ZM5.86809 11.2547C5.80408 11.215 5.74839 11.167 5.68438 11.1273C5.51669 11.0076 5.23761 10.984 5.19793 10.7926C5.15824 10.6172 5.27794 10.4015 5.33362 10.2024C5.493 9.62828 5.6607 9.06181 5.7964 8.47934C5.84312 8.23419 5.9833 8.01721 6.18749 7.87319C6.34686 8.31164 6.49856 8.74241 6.67394 9.1495C6.72195 9.29288 6.71363 9.34921 6.54657 9.3172C6.49088 9.30952 6.41919 9.2852 6.38719 9.34921C6.35519 9.41321 6.42687 9.44522 6.45888 9.49258C6.57025 9.64428 6.82564 9.73197 6.80964 9.93104C6.79364 10.0987 6.64194 10.2581 6.54657 10.4258C6.39487 10.6812 6.24317 10.9366 6.09979 11.1997C6.03579 11.3187 5.97178 11.3341 5.86809 11.2547ZM6.809 9.24487C6.6413 8.79042 6.47424 8.32764 6.30654 7.87319C6.26237 7.79126 6.27902 7.69013 6.34622 7.62612C6.6733 7.25104 6.99206 6.86827 7.30314 6.4855C7.34986 6.41445 7.43692 6.38181 7.51821 6.40549C7.99698 6.49318 8.48344 6.58087 8.96158 6.66088C9.06911 6.67112 9.15872 6.74793 9.18497 6.85227C9.34435 7.29072 9.50372 7.73749 9.67142 8.17659C9.72071 8.2726 9.70087 8.38909 9.62342 8.46398C9.31234 8.82306 9.00894 9.19751 8.69787 9.56491C8.64218 9.62892 8.60186 9.70829 8.51416 9.6686C7.98802 9.58091 7.48492 9.49322 6.97478 9.40553C6.87301 9.38825 6.841 9.32424 6.809 9.24487ZM8.46808 9.78702C8.46808 9.92272 8.25301 9.98672 8.3407 10.0904C8.42839 10.1941 8.58009 10.0981 8.68379 10.0507C8.96286 9.92336 9.10624 10.027 9.23425 10.2818C9.39363 10.6166 9.59333 10.936 9.78472 11.2547C9.86473 11.3904 9.84873 11.4621 9.70471 11.5178C9.6119 11.5556 9.52165 11.5978 9.43332 11.6452C8.99486 11.8846 8.99486 11.8846 8.65178 11.5415C8.19733 11.087 7.75055 10.6319 7.2961 10.1858C7.12072 10.0104 6.95302 9.83502 6.95302 9.52395C7.46316 9.61164 7.96562 9.69933 8.46808 9.78702ZM10.1515 13.3522C10.2334 13.3215 10.3249 13.3554 10.3665 13.4323C10.4146 13.5123 10.3269 13.5436 10.2865 13.5916C10.0952 13.799 10.0952 13.799 9.6567 13.4803C9.8404 13.4323 9.99978 13.4003 10.1515 13.3522ZM10.0478 12.9618C9.7924 12.6667 9.50564 12.4037 9.22593 12.1323C9.11456 12.0209 9.12224 11.9729 9.26562 11.9089C9.441 11.8289 9.57669 11.6695 9.80008 11.7175C9.99146 11.6695 10.0875 11.7815 10.1752 11.9486C10.3505 12.2756 10.5342 12.5944 10.7256 12.9138C10.7813 13.0175 10.7736 13.0572 10.6539 13.1052C10.4146 13.2005 10.2309 13.1769 10.0478 12.9618ZM11.3587 10.5769C10.9439 10.7843 10.5451 11.0313 10.1464 11.263C10.019 11.3347 9.95498 11.343 9.87497 11.199C9.67526 10.8163 9.4602 10.4412 9.23681 10.0744C9.1568 9.94704 9.20481 9.90671 9.3245 9.87471C10.106 9.67501 10.8799 9.47594 11.6537 9.26024C11.8054 9.22055 11.8534 9.24423 11.8374 9.39593C11.8298 9.51563 11.8374 9.643 11.8374 9.83438H11.8342C11.9699 10.2095 11.7254 10.4092 11.3587 10.5769ZM11.8579 8.29564C11.8502 8.39165 11.8342 8.49534 11.8342 8.59072C11.8266 9.09318 11.8266 9.08549 11.3318 9.22055C10.7333 9.37993 10.1355 9.53931 9.53701 9.70701C9.28162 9.7787 9.02623 9.83439 8.76315 9.68333L9.75207 8.50303C9.86345 8.57471 9.80776 8.79042 9.94346 8.7661C10.0792 8.74241 10.0548 8.55871 10.0868 8.44734C10.1905 8.08825 10.1905 8.08825 10.5573 8.08825C10.9241 8.08825 11.2991 8.09594 11.6742 8.08825C11.8342 8.08825 11.8739 8.15162 11.8579 8.29564ZM10.1828 7.68117C10.1272 7.90455 10.0075 8.04793 9.81608 8.19963C9.63238 7.70485 9.46532 7.23439 9.28994 6.76394C9.40131 6.68393 9.57221 6.82794 9.6087 6.69225C9.64838 6.58856 9.489 6.51687 9.40899 6.43686C9.14592 6.16546 9.14592 6.17379 9.3373 5.83839C9.52101 5.52731 9.71239 5.23223 9.87177 4.91283C9.96778 4.72145 10.0632 4.73745 10.2065 4.84883C10.2526 4.88595 10.3006 4.92052 10.3499 4.95252C10.4933 5.06389 10.757 5.0959 10.7967 5.2636C10.8364 5.4313 10.725 5.63036 10.677 5.81406C10.5182 6.43686 10.3345 7.05901 10.1828 7.68117ZM10.7333 3.01501C10.837 3.03869 10.789 3.11102 10.757 3.1667C10.5496 3.52579 10.3422 3.88487 10.1112 4.27532C9.87177 3.78886 9.66438 3.3344 9.457 2.89531C9.38531 2.74361 9.44932 2.68025 9.58437 2.71161C9.96778 2.79994 10.3505 2.91131 10.7333 3.01501ZM9.68871 2.60024C10.2629 2.24947 10.0395 2.16946 10.7096 2.87931C10.3345 2.78394 10.0235 2.69625 9.68871 2.60024ZM9.97546 4.27532C10.0075 4.33933 10.0471 4.41101 9.98314 4.4827C9.90313 4.57039 9.84744 4.4827 9.79176 4.4507C9.24961 4.13962 8.71515 3.82086 8.14868 3.48546C8.50776 3.27808 8.84252 3.08669 9.16192 2.89531C9.26562 2.8313 9.3053 2.87163 9.34562 2.95932C9.55301 3.39777 9.76808 3.83686 9.97546 4.27532ZM11.1161 2.99132C11.0047 2.99132 11.0521 2.90363 11.0841 2.84795C11.2838 2.50486 11.4828 2.1701 11.6825 1.82702C11.7043 1.8283 11.7261 1.83406 11.7466 1.84303C11.6461 2.21811 11.5552 2.60856 11.4278 2.98364C11.3715 3.1667 11.2281 2.99132 11.1161 2.99132ZM11.5148 1.86671C11.3235 2.20147 11.1238 2.53687 10.9324 2.87163C10.7173 2.64824 10.5253 2.44086 10.3179 2.22579C10.7724 1.96272 11.2351 1.65164 11.7299 1.41225C11.7222 1.59532 11.5949 1.72333 11.5148 1.86671ZM10.0907 1.73933C10.5131 1.61964 10.9362 1.51595 11.367 1.40457L11.3907 1.45258H11.3875C11.0079 1.66764 10.6296 1.91535 10.2424 2.11442C10.083 2.19443 9.9793 1.98704 9.91529 1.85903C9.85128 1.73101 10.0267 1.75469 10.0907 1.73933ZM9.6407 1.84303C9.81608 1.89871 9.90377 2.06641 10.0318 2.1701C10.0382 2.19251 10.0318 2.21683 10.0158 2.23411C9.8468 2.34805 9.66758 2.44662 9.48132 2.52919C9.34562 2.57719 9.01855 2.17843 9.05887 2.03441C9.05887 2.01073 9.09855 1.9864 9.12288 1.97872C9.28994 1.93072 9.457 1.89039 9.6407 1.84303ZM9.53701 1.72333C9.53253 1.72717 9.52933 1.73293 9.52933 1.73933C9.00318 1.92304 8.99486 1.92304 8.75547 1.42057C8.6281 1.14918 8.50008 0.886111 8.36439 0.591035C8.56409 0.670405 9.40963 1.49994 9.53701 1.72333ZM8.07763 0.447018C8.10132 0.447018 8.11732 0.439337 8.14164 0.439337C8.35671 0.893791 8.57241 1.34889 8.78748 1.78734C8.82716 1.86735 8.83548 1.91471 8.73179 1.95504C8.10964 2.20211 8.07763 2.18611 8.07763 1.53259V0.447018ZM8.22101 2.32948C8.50008 2.41717 8.77916 2.48886 9.05823 2.56055C9.12224 2.57655 9.18561 2.59256 9.20161 2.67192C9.20929 2.71993 9.17792 2.74361 9.1376 2.76794C8.78684 2.96764 8.44376 3.17503 8.06099 3.39777V2.44918C8.05331 2.32116 8.10132 2.28916 8.22101 2.32948ZM8.20053 3.65316C8.71131 3.96424 9.22145 4.26764 9.73991 4.56271C9.86729 4.6344 9.87561 4.69009 9.80392 4.80978C9.57285 5.17655 9.36547 5.55163 9.14976 5.92672C9.09407 6.03041 9.05375 6.07841 8.94238 5.9664C8.3279 5.36025 7.71407 4.76178 7.06823 4.13194H7.06503C7.38379 3.94824 7.6475 3.80486 7.90545 3.64548C7.99506 3.58403 8.11412 3.58723 8.20053 3.65316ZM6.54145 1.63564C6.9927 1.17286 7.43948 0.710089 7.88625 0.247954C7.90993 0.263956 7.92593 0.279958 7.95026 0.29596L7.95346 1.97872C7.95346 2.09842 7.90545 2.13042 7.80176 2.09842C7.37099 1.97872 6.93254 1.85903 6.47744 1.73165C6.496 1.69709 6.51713 1.66508 6.54145 1.63564ZM6.44224 1.86671C6.841 1.9704 7.24809 2.07409 7.64686 2.18547V2.24115C7.3281 2.32884 7.00102 2.41653 6.67394 2.51255C6.40255 2.57655 6.24317 2.34485 6.03579 2.24947C6.01979 2.24179 6.0121 2.20147 6.0121 2.18547C6.01979 2.09778 6.35455 1.84303 6.44224 1.86671ZM6.16316 1.7707C5.92377 2.16178 5.90009 2.16946 5.55701 1.96208C5.26193 1.77838 4.93485 1.62732 4.66346 1.40393C5.18512 1.46794 5.6639 1.67533 6.16316 1.7707ZM4.52777 1.69133C4.79916 1.96272 5.07823 2.23347 5.33362 2.52087C5.46932 2.68025 5.24593 2.71225 5.19793 2.79994C5.15824 2.87163 5.10191 2.87995 5.05455 2.79226C4.85485 2.4415 4.65578 2.09842 4.45608 1.74765C4.4804 1.73101 4.50408 1.70733 4.52777 1.69133ZM4.12132 2.48886C4.10532 2.1541 4.11364 1.82702 4.11364 1.49162C4.13028 1.4897 4.14692 1.48458 4.16164 1.47562C4.41703 1.92239 4.67242 2.36917 4.92717 2.82362C4.98286 2.91131 4.96686 2.95932 4.86317 2.97532C4.85549 2.97532 4.84716 2.983 4.83948 2.983C4.6161 3.03869 4.33702 3.20639 4.18532 3.12638C4.0093 3.03101 4.129 2.71225 4.12132 2.48886ZM4.08931 11.6932C4.129 11.2784 4.09699 10.8559 4.09699 10.3849C4.40807 10.5686 4.67114 10.7196 4.93421 10.8713C5.02191 10.927 4.99822 10.991 4.9739 11.0627C4.84652 11.5255 4.72683 11.9882 4.59113 12.4984C4.36071 12.2436 4.04963 12.1079 4.08931 11.6932ZM4.12132 12.22C4.24869 12.3473 4.36839 12.467 4.48808 12.579C4.55977 12.643 4.53609 12.7064 4.51176 12.7787C4.47976 12.8901 4.40039 12.8107 4.35239 12.8024C4.04963 12.7384 4.01762 12.6744 4.12132 12.22ZM4.09699 14.3098C4.08931 14.3098 4.08099 14.3021 4.07331 14.3021C4.07331 13.8317 4.07331 13.3689 4.06563 12.9061C4.08931 12.8984 4.10532 12.8824 4.11364 12.8824C4.4644 12.9541 4.45672 12.9624 4.36903 13.2972C4.2807 13.6313 4.18533 13.9744 4.09699 14.3098ZM4.24101 14.2458C4.3447 13.8707 4.44072 13.4879 4.55209 13.1135C4.6161 12.8824 4.77548 13.0738 4.87085 13.0815C5.03023 13.1052 4.91885 13.2089 4.88685 13.2652C4.71915 13.5603 4.55209 13.8477 4.37607 14.1427C4.3447 14.1901 4.33638 14.2535 4.24101 14.2458ZM4.24869 14.6362C4.52009 14.1575 4.79084 13.671 5.06223 13.1845C5.3093 13.3843 5.493 13.607 5.70807 13.8304C5.21329 14.1095 4.75883 14.4129 4.26469 14.6522L4.24869 14.6362ZM4.60778 14.6522C4.95086 14.3732 5.3413 14.1735 5.72471 13.9744C5.93209 13.8784 5.9801 14.1581 6.18749 14.2695C5.60502 14.4052 5.12624 14.5889 4.60778 14.6522ZM6.37055 14.2215C6.29054 14.2138 5.96346 13.9341 5.96346 13.8784C5.95834 13.8624 5.9609 13.8445 5.97114 13.8304C6.00314 13.7664 6.5056 13.527 6.57729 13.5353C6.84036 13.5673 6.82436 13.8304 6.93638 13.9898C6.96838 14.0378 6.92869 14.0775 6.88837 14.0858C6.71363 14.1338 6.53825 14.1818 6.37055 14.2215ZM6.92869 13.6313C7.20009 13.703 7.43116 13.767 7.68655 13.831C7.16808 14.0941 7.07271 14.0704 6.92869 13.6313ZM6.52993 14.4692C6.41855 14.3732 6.42623 14.3335 6.57793 14.2938C7.01638 14.1741 7.01639 14.1664 7.20777 14.5729C7.35947 14.9 7.51885 15.227 7.67054 15.5541C7.28778 15.179 6.90501 14.8199 6.52993 14.4692ZM7.90161 15.0913V15.6335C7.88561 15.6335 7.87793 15.6412 7.86193 15.6412C7.64686 15.1944 7.43115 14.7399 7.20777 14.2932C7.15208 14.1735 7.16808 14.1338 7.30378 14.0935C7.90993 13.9181 7.90993 13.9098 7.90993 14.5479C7.90993 14.7323 7.90161 14.9076 7.90161 15.0913ZM7.93362 13.2166C7.93362 13.783 7.93361 13.783 7.39147 13.639C7.23209 13.5993 7.07271 13.5513 6.91269 13.5116C6.84868 13.4956 6.80132 13.4636 6.793 13.4003C6.78532 13.3362 6.841 13.3202 6.88069 13.2966C7.17576 13.1212 7.47916 12.9535 7.77424 12.7704C7.92593 12.6744 7.94194 12.7467 7.93362 12.8741V13.2166ZM7.80944 12.4113C7.29098 12.1003 6.77252 11.7969 6.24637 11.4941C6.15036 11.4384 6.119 11.3904 6.18236 11.2867C6.43776 10.8643 6.67714 10.4412 6.94022 9.9944C7.57837 10.6326 8.18901 11.2464 8.81436 11.8609C8.88605 11.9326 8.89437 11.9646 8.79836 12.0202C8.55897 12.1476 8.3279 12.2916 8.08851 12.4273C8.00082 12.4779 7.89073 12.4721 7.80944 12.4113ZM9.41731 14.4609C8.98654 14.9153 8.54809 15.3621 8.11732 15.8165L8.04563 15.7685C8.04563 15.2021 8.04563 14.6362 8.03795 14.0615C8.03795 13.9501 8.09363 13.9418 8.18132 13.9654C8.58841 14.0768 8.99486 14.1965 9.40195 14.3002C9.56901 14.3412 9.473 14.4052 9.41731 14.4609ZM9.52101 14.2061C9.12992 14.1024 8.73115 13.991 8.3407 13.8874C8.34711 13.8694 8.34966 13.8502 8.34838 13.8317C8.67546 13.744 9.01342 13.6403 9.34562 13.5686C9.60102 13.5129 9.75271 13.7363 9.9601 13.8317C9.97034 13.8515 9.97546 13.8733 9.9761 13.8957C9.95946 13.9987 9.6247 14.2298 9.52101 14.2061ZM11.2518 14.6682C10.7813 14.5409 10.3109 14.4212 9.83976 14.2932C10.0075 13.9341 10.1028 13.9021 10.4222 14.0935L11.2838 14.5959C11.2697 14.619 11.2595 14.6433 11.2518 14.6682ZM11.319 14.4852C10.9599 14.2701 10.6091 14.0544 10.2104 13.8233C10.2789 13.7677 10.3269 13.7433 10.3537 13.7036C10.4574 13.5603 10.5374 13.5763 10.6571 13.7036C10.8325 13.9034 11.0322 14.0787 11.2153 14.2701C11.271 14.3252 11.3587 14.3655 11.319 14.4852ZM11.4592 14.3572C11.1878 14.0941 10.933 13.831 10.6853 13.5673C10.5336 13.3919 10.7493 13.3522 10.8127 13.2722C10.9004 13.1365 10.9401 13.2799 10.9721 13.3362L11.4265 14.1261C11.4848 14.1895 11.4976 14.281 11.4592 14.3572ZM11.8739 14.5729C11.8579 14.5806 11.8502 14.5806 11.8342 14.5889C11.5789 14.1504 11.3267 13.7037 11.0687 13.2569C11.013 13.1609 11.0207 13.1135 11.1404 13.0892C11.3798 13.0335 11.6192 12.9618 11.8739 12.8978V14.5729ZM11.2678 12.9055C11.4675 12.7141 11.6825 12.5067 11.8739 12.3153C11.8983 12.8421 11.8419 12.8978 11.2678 12.9055ZM11.8099 12.0843C11.5308 12.3877 11.2435 12.6987 10.9324 13.0335C10.6693 12.5707 10.4536 12.1803 10.1988 11.7495C10.757 11.7975 11.2678 11.8295 11.7702 11.8769C11.9456 11.8929 11.8822 12.0042 11.8099 12.0843ZM11.8855 6.03809C11.8778 6.61224 11.8778 7.17871 11.8778 7.75285C11.8854 7.92056 11.8458 7.99992 11.6467 7.99224C11.2242 7.96856 10.8012 7.98456 10.3787 7.98456C10.275 7.98456 10.2193 7.97688 10.2513 7.84887C10.4824 7.00396 10.7135 6.15906 10.9445 5.29816C11.2307 5.4569 11.4931 5.60796 11.7504 5.77502C11.8445 5.82686 11.8983 5.9312 11.8855 6.03809ZM11.9059 4.49102C11.8579 4.86611 11.8983 5.24887 11.8983 5.67965C11.5872 5.50426 11.3273 5.34489 11.061 5.20087C11.061 5.20087 11.0604 5.20087 11.0604 5.20023C11.0053 5.17591 10.981 5.1119 11.0053 5.05685C11.141 4.57807 11.2684 4.09162 11.4041 3.58147C11.7062 3.82854 11.9616 4.05193 11.9059 4.49102ZM11.8579 3.90855C11.7254 3.74917 11.6269 3.62116 11.5148 3.50146C11.4617 3.44898 11.4489 3.36833 11.4828 3.30176C11.5225 3.20575 11.5942 3.25375 11.6505 3.26208C11.9456 3.3184 11.9699 3.39009 11.8579 3.90855ZM11.8054 3.17503C11.7177 3.13534 11.5104 3.21471 11.5661 2.99132C11.6697 2.59256 11.7811 2.20147 11.8848 1.8027H11.9213C11.9213 2.21747 11.9213 2.62456 11.9168 3.03869C11.9168 3.11102 11.9488 3.24671 11.8054 3.17503ZM15.3675 7.6178C15.3598 7.62548 15.3598 7.64148 15.3515 7.6498C14.9847 7.44242 14.6096 7.25872 14.2665 7.02765C14.0912 6.90027 14.3062 6.71657 14.3062 6.56487C14.6659 6.91563 15.0167 7.2664 15.3675 7.6178ZM12.0256 8.40701C12.137 8.17595 12.297 8.00825 12.6158 8.11194C12.9224 8.11194 13.2456 8.11962 13.581 8.11194C13.7084 8.11194 13.7327 8.15994 13.7084 8.27964C13.6604 8.50303 13.5887 8.65472 13.3173 8.70209C12.9345 8.77378 12.5518 8.89347 12.169 9.00549C12.0333 9.04517 11.9616 9.02149 11.9853 8.86979C12.0096 8.71809 11.9456 8.55871 12.0256 8.40701ZM12.0096 4.22731C12.3367 4.54607 12.6318 4.82578 12.9352 5.12086C12.6721 5.27256 12.4167 5.41593 12.1613 5.55931C12.0576 5.615 12.0096 5.60732 12.0096 5.4793V4.22731ZM12.8949 5.28856C12.9909 5.23287 13.0145 5.26488 13.0382 5.36025C13.1099 5.64764 13.1976 5.9344 13.2693 6.22179C13.2975 6.28516 13.2808 6.35941 13.2296 6.40549C13.1656 6.44518 13.1259 6.38181 13.0779 6.35749C12.7432 6.17379 12.4078 5.9824 12.0487 5.77502C12.3527 5.59964 12.6241 5.44794 12.8949 5.28856ZM13.7116 4.8341C13.9907 4.67473 14.2697 4.52303 14.5488 4.36365C14.5648 4.35597 14.5808 4.36365 14.6525 4.36365H14.6493C14.3459 4.8021 14.0668 5.20919 13.7993 5.60796C13.7436 5.69565 13.7116 5.69565 13.6316 5.62396C13.1298 5.16054 13.1214 5.16886 13.7116 4.8341ZM13.3973 6.74793C13.5087 7.12302 13.6047 7.49746 13.7007 7.87255C13.7404 7.99993 13.645 7.98392 13.5733 7.98392H12.3053C12.6241 7.52947 12.9038 7.12238 13.1669 6.70761C13.2699 6.56487 13.3576 6.62056 13.3973 6.74793ZM13.581 9.29224C13.5733 9.10854 13.6527 8.94916 13.6924 8.78978C13.7084 8.71809 13.7724 8.69377 13.8441 8.68609C13.9401 8.67841 13.9401 8.75778 13.9555 8.81346C14.0515 9.08486 14.0035 9.14886 13.581 9.29224ZM12.0096 9.24487C12.1453 8.9978 12.5678 9.04517 12.8628 8.9498C13.0862 8.87811 13.3096 8.8301 13.565 8.7661C13.5093 8.97348 13.4613 9.14118 13.4216 9.31656C13.4024 9.39785 13.3461 9.4657 13.2699 9.50027C13.0862 9.59628 12.9109 9.69997 12.7278 9.80366C12.4967 9.93936 12.2573 10.0667 12.0019 10.2107L12.0096 9.24487ZM13.3416 9.60332C13.2303 10.0258 13.1266 10.4009 13.0229 10.7759C12.9909 10.8873 12.9192 10.8239 12.8712 10.7919C12.6158 10.6486 12.3687 10.4969 12.0736 10.3215C12.5044 10.0744 12.8949 9.85103 13.3416 9.60332ZM13.4536 9.66733C13.4856 9.53995 13.9004 9.22055 14.0118 9.22887C14.0335 9.23335 14.0528 9.24423 14.0675 9.26088C14.1872 9.39657 14.1712 9.73965 14.0438 9.86703C13.8204 10.0904 13.597 10.3138 13.3736 10.5289C13.3256 10.5686 13.2859 10.6326 13.1899 10.6089C13.2776 10.2818 13.3653 9.97072 13.4536 9.66733ZM14.1027 8.88579C14.095 8.7981 13.983 8.66241 14.1264 8.6144C14.4925 8.50303 14.858 8.39165 15.2555 8.37501C14.9047 8.56639 14.5616 8.76546 14.2141 8.95684C14.1347 9.00549 14.1104 8.94148 14.1027 8.88579ZM14.1072 8.4787C13.9075 8.52671 13.9638 8.31932 13.9318 8.22331C13.8838 8.08762 14.0118 8.11194 14.0835 8.11194H15.3675C15.3694 8.1241 15.3751 8.13498 15.3835 8.14394C14.961 8.25532 14.5379 8.37501 14.1072 8.4787ZM13.8121 7.80086C13.7161 7.4341 13.6367 7.1307 13.5407 6.77994C14.0835 7.05901 14.0835 7.05901 13.8121 7.80086ZM13.9875 6.88363C13.8313 6.8081 13.6821 6.72041 13.5407 6.62056C13.5343 6.61608 13.5285 6.6116 13.5228 6.60648C13.4216 6.52135 13.4082 6.37093 13.4933 6.26916C13.5413 6.19747 13.5893 6.13346 13.629 6.06177C13.7007 5.91007 13.7724 5.94208 13.8601 6.04577C13.9715 6.18147 14.1232 6.28516 14.2109 6.42086C14.1712 6.57255 14.1392 6.69993 14.0995 6.84331C14.0835 6.89963 14.0438 6.91563 13.9875 6.88363ZM14.2589 6.22947C14.2352 6.22179 14.2108 6.22179 14.2032 6.21347C13.7807 5.8307 13.7807 5.8307 14.0995 5.36793C14.2749 5.12086 14.4426 4.87315 14.6179 4.62608C14.6416 4.63376 14.6659 4.64976 14.6896 4.65808C14.5462 5.17655 14.4106 5.70333 14.2589 6.22947ZM14.7536 4.09994C14.1712 4.42702 13.6367 4.72977 13.0869 5.04085C12.9512 4.54607 12.8238 4.05961 12.6881 3.54115C13.3813 3.72485 14.0355 3.90855 14.7536 4.09994ZM12.5998 3.71717C12.6958 4.07625 12.7912 4.44302 12.8872 4.80978C12.875 4.81938 12.8616 4.8277 12.8475 4.83346C12.5921 4.57807 12.3367 4.32268 12.082 4.07561C12.0263 4.01161 11.9943 3.49314 12.0423 3.42978C12.0544 3.41057 12.0756 3.39841 12.098 3.39777C12.281 3.35809 12.5518 3.53347 12.5998 3.71717ZM12.0205 2.92732C12.0525 2.52855 12.0282 2.12978 12.0282 1.73101H12.073C12.2087 2.22579 12.3361 2.71993 12.4673 3.21471C12.4993 3.3344 12.4596 3.35041 12.3399 3.32608C12.1088 3.2864 11.9968 3.19871 12.0205 2.92732ZM11.9859 7.80086V7.17871L12.0019 6.08609C12.0019 5.9504 12.0339 5.90239 12.1696 5.9824C12.441 6.1501 12.7201 6.30948 13.0069 6.46118C13.1182 6.51687 13.1182 6.57255 13.0549 6.66857C12.7758 7.06733 12.4967 7.4661 12.2253 7.87319C12.1773 7.9532 12.114 8.00056 12.0256 7.9692C11.9379 7.93656 11.9859 7.85655 11.9859 7.80086ZM11.9776 11.5978V10.4092C12.2842 10.5846 12.5358 10.7439 12.7995 10.8956C12.8955 10.9513 12.9032 10.9993 12.8232 11.0793C12.6158 11.279 12.4084 11.4864 12.2087 11.6938C12.1671 11.7476 12.1005 11.7751 12.0333 11.7655C11.9379 11.7335 11.9776 11.6535 11.9776 11.5978ZM12.8788 11.1907C12.7355 11.9326 12.7828 11.8449 12.3367 11.7649C12.4884 11.5498 12.6798 11.3981 12.8788 11.1907ZM12.0493 14.3412C12.0333 14.3412 12.0096 14.3335 11.9936 14.3335C11.9936 13.9264 12.0013 13.5116 11.9859 13.1052C11.9783 12.9215 12.0256 12.8261 12.217 12.8101C12.306 12.7947 12.3943 12.7736 12.4801 12.7461C12.3284 13.2966 12.1933 13.8227 12.0493 14.3412ZM12.3527 12.6507C11.9303 12.7544 12.0019 12.7704 11.9936 12.3793C11.9936 12.0042 12.0576 11.8929 12.3047 11.9166C12.4321 11.9242 12.6158 11.8449 12.6798 12.0042C12.7432 12.1636 12.4961 12.6104 12.3527 12.6507ZM14.4182 12.1079C13.8441 12.2596 13.2776 12.4113 12.6715 12.5784C12.7195 12.387 12.7592 12.2193 12.7988 12.0599C12.8308 11.9326 12.9345 11.9639 13.0222 11.9722C13.485 12.0042 13.9395 12.0362 14.4022 12.0759C14.4106 12.0843 14.4106 12.1003 14.4182 12.1079ZM13.0542 11.8525C12.9269 11.8449 12.8705 11.8129 12.9109 11.6528C13.0702 11.0467 13.0626 11.0467 13.6047 11.3654L14.5616 11.9639C14.0355 11.9249 13.5413 11.8846 13.0542 11.8525ZM14.7856 11.9249C14.2115 11.5818 13.6847 11.2707 13.1822 10.9756C13.5413 10.6166 13.8844 10.2658 14.2512 9.91504C14.4182 10.5609 14.5936 11.215 14.7856 11.9249ZM14.2985 9.54763C14.2889 9.53803 14.2813 9.52715 14.2749 9.51563C14.1552 9.12454 14.1475 9.12454 14.5142 8.92548C14.7933 8.77378 15.0807 8.62208 15.3598 8.47102L15.3918 8.4947C15.0244 8.84611 14.6659 9.19687 14.2985 9.54763ZM15.5832 7.98456H14.0835C13.9721 7.98456 13.9081 7.97688 13.9561 7.83286C14.0201 7.63316 14.0675 7.4341 14.1155 7.23439C14.1392 7.13838 14.1712 7.10702 14.2672 7.1627C14.7139 7.42578 15.1607 7.67349 15.6069 7.92824C15.6005 7.94744 15.5921 7.96664 15.5832 7.98456Z" fill="#05BCA9"/>
<path d="M9.04273 2.40877C8.79566 2.40109 8.57996 2.2974 8.34057 2.24108C8.75597 1.94664 8.95504 2.00233 9.04273 2.40877ZM13.2307 5.44016C13.2787 5.47984 13.3344 5.52016 13.3824 5.56753C13.6538 5.83892 13.6538 5.83892 13.4061 6.15768C13.3184 6.06167 13.3261 5.93429 13.2864 5.8306C13.2525 5.71283 13.2256 5.59313 13.2064 5.47152C13.2128 5.46 13.2205 5.44912 13.2307 5.44016ZM4.22876 14.6681C4.23644 14.6604 4.24476 14.6444 4.25244 14.6361L4.26844 14.6521L4.22876 14.6681ZM1.25819 4.26754C1.25051 4.24386 1.25051 4.22786 1.24219 4.20354C1.26587 4.20354 1.28187 4.21122 1.30619 4.21122C1.29019 4.22722 1.27739 4.25154 1.25819 4.26754Z" fill="#05BCA9"/>
<path d="M13.2871 6.60962H10.5449V14.2151H9.42578V6.60962H6.68945V5.68384H13.2871V6.60962ZM11.1367 27.5881C10.7148 28.0842 10.0957 28.3323 9.2793 28.3323C8.60352 28.3323 8.08789 28.137 7.73242 27.7463C7.38086 27.3518 7.20312 26.7698 7.19922 26.0002V21.8752H8.2832V25.9709C8.2832 26.9319 8.67383 27.4124 9.45508 27.4124C10.2832 27.4124 10.834 27.1038 11.1074 26.4866V21.8752H12.1914V28.2151H11.1602L11.1367 27.5881ZM9.85352 42.3323C8.99414 42.3323 8.29492 42.051 7.75586 41.4885C7.2168 40.9221 6.94727 40.1663 6.94727 39.2209V39.0217C6.94727 38.3928 7.06641 37.8323 7.30469 37.3401C7.54688 36.844 7.88281 36.4573 8.3125 36.1799C8.74609 35.8987 9.21484 35.7581 9.71875 35.7581C10.543 35.7581 11.1836 36.0295 11.6406 36.5725C12.0977 37.1155 12.3262 37.8928 12.3262 38.9045V39.3557H8.03125C8.04688 39.9807 8.22852 40.4866 8.57617 40.8733C8.92773 41.2561 9.37305 41.4475 9.91211 41.4475C10.2949 41.4475 10.6191 41.3694 10.8848 41.2131C11.1504 41.0569 11.3828 40.8499 11.582 40.592L12.2441 41.1077C11.7129 41.9241 10.916 42.3323 9.85352 42.3323ZM9.71875 36.6487C9.28125 36.6487 8.91406 36.8088 8.61719 37.1292C8.32031 37.4456 8.13672 37.8909 8.06641 38.4651H11.2422V38.3831C11.2109 37.8323 11.0625 37.4065 10.7969 37.1057C10.5312 36.801 10.1719 36.6487 9.71875 36.6487ZM8.30078 57.7971H7.42773V47.6838H8.30078V57.7971ZM12.7012 70.2151H7.11133V69.4358L10.0645 66.1545C10.502 65.6584 10.8027 65.2561 10.9668 64.9475C11.1348 64.635 11.2188 64.3127 11.2188 63.9807C11.2188 63.5354 11.084 63.1702 10.8145 62.885C10.5449 62.5999 10.1855 62.4573 9.73633 62.4573C9.19727 62.4573 8.77734 62.6116 8.47656 62.9202C8.17969 63.2249 8.03125 63.6506 8.03125 64.1975H6.94727C6.94727 63.4124 7.19922 62.7776 7.70312 62.2932C8.21094 61.8088 8.88867 61.5667 9.73633 61.5667C10.5293 61.5667 11.1562 61.7756 11.6172 62.1936C12.0781 62.6077 12.3086 63.1604 12.3086 63.8518C12.3086 64.6917 11.7734 65.6917 10.7031 66.8518L8.41797 69.3303H12.7012V70.2151ZM12.4609 80.5764C12.4609 81.8459 12.2441 82.7893 11.8105 83.4065C11.377 84.0237 10.6992 84.3323 9.77734 84.3323C8.86719 84.3323 8.19336 84.0315 7.75586 83.4299C7.31836 82.8245 7.0918 81.9221 7.07617 80.7229V79.2756C7.07617 78.0217 7.29297 77.0901 7.72656 76.4807C8.16016 75.8713 8.83984 75.5667 9.76562 75.5667C10.6836 75.5667 11.3594 75.8616 11.793 76.4514C12.2266 77.0374 12.4492 77.9436 12.4609 79.1702V80.5764ZM11.377 79.094C11.377 78.176 11.248 77.5081 10.9902 77.0901C10.7324 76.6682 10.3242 76.4573 9.76562 76.4573C9.21094 76.4573 8.80664 76.6663 8.55273 77.0842C8.29883 77.5022 8.16797 78.1448 8.16016 79.012V80.7463C8.16016 81.6682 8.29297 82.3499 8.55859 82.7913C8.82812 83.2288 9.23438 83.4475 9.77734 83.4475C10.3125 83.4475 10.709 83.2405 10.9668 82.8264C11.2285 82.4124 11.3652 81.76 11.377 80.8694V79.094ZM12.7012 98.2151H7.11133V97.4358L10.0645 94.1545C10.502 93.6584 10.8027 93.2561 10.9668 92.9475C11.1348 92.635 11.2188 92.3127 11.2188 91.9807C11.2188 91.5354 11.084 91.1702 10.8145 90.885C10.5449 90.5999 10.1855 90.4573 9.73633 90.4573C9.19727 90.4573 8.77734 90.6116 8.47656 90.9202C8.17969 91.2249 8.03125 91.6506 8.03125 92.1975H6.94727C6.94727 91.4124 7.19922 90.7776 7.70312 90.2932C8.21094 89.8088 8.88867 89.5667 9.73633 89.5667C10.5293 89.5667 11.1562 89.7756 11.6172 90.1936C12.0781 90.6077 12.3086 91.1604 12.3086 91.8518C12.3086 92.6917 11.7734 93.6917 10.7031 94.8518L8.41797 97.3303H12.7012V98.2151ZM12.4609 108.576C12.4609 109.846 12.2441 110.789 11.8105 111.406C11.377 112.024 10.6992 112.332 9.77734 112.332C8.86719 112.332 8.19336 112.031 7.75586 111.43C7.31836 110.824 7.0918 109.922 7.07617 108.723V107.276C7.07617 106.022 7.29297 105.09 7.72656 104.481C8.16016 103.871 8.83984 103.567 9.76562 103.567C10.6836 103.567 11.3594 103.862 11.793 104.451C12.2266 105.037 12.4492 105.944 12.4609 107.17V108.576ZM11.377 107.094C11.377 106.176 11.248 105.508 10.9902 105.09C10.7324 104.668 10.3242 104.457 9.76562 104.457C9.21094 104.457 8.80664 104.666 8.55273 105.084C8.29883 105.502 8.16797 106.145 8.16016 107.012V108.746C8.16016 109.668 8.29297 110.35 8.55859 110.791C8.82812 111.229 9.23438 111.448 9.77734 111.448C10.3125 111.448 10.709 111.24 10.9668 110.826C11.2285 110.412 11.3652 109.76 11.377 108.869V107.094ZM9.47852 123.033H6.61914V122.149H9.47852V123.033ZM10.6738 140.215H9.58398V132.99L7.39844 133.793V132.809L10.5039 131.643H10.6738V140.215ZM12.7012 154.215H7.11133V153.436L10.0645 150.155C10.502 149.658 10.8027 149.256 10.9668 148.948C11.1348 148.635 11.2188 148.313 11.2188 147.981C11.2188 147.535 11.084 147.17 10.8145 146.885C10.5449 146.6 10.1855 146.457 9.73633 146.457C9.19727 146.457 8.77734 146.612 8.47656 146.92C8.17969 147.225 8.03125 147.651 8.03125 148.198H6.94727C6.94727 147.412 7.19922 146.778 7.70312 146.293C8.21094 145.809 8.88867 145.567 9.73633 145.567C10.5293 145.567 11.1562 145.776 11.6172 146.194C12.0781 146.608 12.3086 147.16 12.3086 147.852C12.3086 148.692 11.7734 149.692 10.7031 150.852L8.41797 153.33H12.7012V154.215ZM9.47852 165.033H6.61914V164.149H9.47852V165.033ZM12.7012 182.215H7.11133V181.436L10.0645 178.155C10.502 177.658 10.8027 177.256 10.9668 176.948C11.1348 176.635 11.2188 176.313 11.2188 175.981C11.2188 175.535 11.084 175.17 10.8145 174.885C10.5449 174.6 10.1855 174.457 9.73633 174.457C9.19727 174.457 8.77734 174.612 8.47656 174.92C8.17969 175.225 8.03125 175.651 8.03125 176.198H6.94727C6.94727 175.412 7.19922 174.778 7.70312 174.293C8.21094 173.809 8.88867 173.567 9.73633 173.567C10.5293 173.567 11.1562 173.776 11.6172 174.194C12.0781 174.608 12.3086 175.16 12.3086 175.852C12.3086 176.692 11.7734 177.692 10.7031 178.852L8.41797 181.33H12.7012V182.215ZM11.2656 192.465C11.0391 192.735 10.7676 192.951 10.4512 193.115C10.1387 193.28 9.79492 193.362 9.41992 193.362C8.92773 193.362 8.49805 193.24 8.13086 192.998C7.76758 192.756 7.48633 192.416 7.28711 191.979C7.08789 191.537 6.98828 191.051 6.98828 190.52C6.98828 189.949 7.0957 189.436 7.31055 188.979C7.5293 188.522 7.83789 188.172 8.23633 187.93C8.63477 187.688 9.09961 187.567 9.63086 187.567C10.4746 187.567 11.1387 187.883 11.623 188.516C12.1113 189.145 12.3555 190.004 12.3555 191.094V191.41C12.3555 193.071 12.0273 194.283 11.3711 195.049C10.7148 195.811 9.72461 196.201 8.40039 196.221H8.18945V195.307H8.41797C9.3125 195.291 10 195.059 10.4805 194.61C10.9609 194.156 11.2227 193.442 11.2656 192.465ZM9.5957 192.465C9.95898 192.465 10.293 192.354 10.5977 192.131C10.9062 191.908 11.1309 191.633 11.2715 191.305V190.871C11.2715 190.16 11.1172 189.582 10.8086 189.137C10.5 188.692 10.1094 188.469 9.63672 188.469C9.16016 188.469 8.77734 188.653 8.48828 189.02C8.19922 189.383 8.05469 189.864 8.05469 190.461C8.05469 191.043 8.19336 191.524 8.4707 191.903C8.75195 192.278 9.12695 192.465 9.5957 192.465ZM7.1875 209.647C7.1875 209.459 7.24219 209.303 7.35156 209.178C7.46484 209.053 7.63281 208.99 7.85547 208.99C8.07812 208.99 8.24609 209.053 8.35938 209.178C8.47656 209.303 8.53516 209.459 8.53516 209.647C8.53516 209.826 8.47656 209.977 8.35938 210.098C8.24609 210.219 8.07812 210.28 7.85547 210.28C7.63281 210.28 7.46484 210.219 7.35156 210.098C7.24219 209.977 7.1875 209.826 7.1875 209.647ZM7.19336 204.473C7.19336 204.285 7.24805 204.129 7.35742 204.004C7.4707 203.879 7.63867 203.817 7.86133 203.817C8.08398 203.817 8.25195 203.879 8.36523 204.004C8.48242 204.129 8.54102 204.285 8.54102 204.473C8.54102 204.653 8.48242 204.803 8.36523 204.924C8.25195 205.045 8.08398 205.106 7.86133 205.106C7.63867 205.106 7.4707 205.045 7.35742 204.924C7.24805 204.803 7.19336 204.653 7.19336 204.473ZM10.6738 224.215H9.58398V216.99L7.39844 217.793V216.809L10.5039 215.643H10.6738V224.215ZM11.3652 229.678V230.598H11.166C10.3223 230.614 9.65039 230.864 9.15039 231.348C8.65039 231.832 8.36133 232.514 8.2832 233.393C8.73242 232.877 9.3457 232.619 10.123 232.619C10.8652 232.619 11.457 232.881 11.8984 233.405C12.3438 233.928 12.5664 234.604 12.5664 235.432C12.5664 236.311 12.3262 237.014 11.8457 237.541C11.3691 238.069 10.7285 238.332 9.92383 238.332C9.10742 238.332 8.44531 238.02 7.9375 237.395C7.42969 236.766 7.17578 235.957 7.17578 234.969V234.553C7.17578 232.983 7.50977 231.783 8.17773 230.955C8.84961 230.123 9.84766 229.698 11.1719 229.678H11.3652ZM9.94141 233.522C9.57031 233.522 9.22852 233.633 8.91602 233.856C8.60352 234.078 8.38672 234.358 8.26562 234.694V235.092C8.26562 235.795 8.42383 236.362 8.74023 236.791C9.05664 237.221 9.45117 237.436 9.92383 237.436C10.4121 237.436 10.7949 237.256 11.0723 236.897C11.3535 236.537 11.4941 236.067 11.4941 235.485C11.4941 234.899 11.3516 234.426 11.0664 234.067C10.7852 233.703 10.4102 233.522 9.94141 233.522ZM8.30078 253.797H7.42773V243.684H8.30078V253.797ZM12.2148 262.272H8.51758V265.295H12.8125V266.215H7.39258V257.684H12.7539V258.61H8.51758V261.352H12.2148V262.272ZM7.1875 279.647C7.1875 279.459 7.24219 279.303 7.35156 279.178C7.46484 279.053 7.63281 278.99 7.85547 278.99C8.07812 278.99 8.24609 279.053 8.35938 279.178C8.47656 279.303 8.53516 279.459 8.53516 279.647C8.53516 279.826 8.47656 279.977 8.35938 280.098C8.24609 280.219 8.07812 280.28 7.85547 280.28C7.63281 280.28 7.46484 280.219 7.35156 280.098C7.24219 279.977 7.1875 279.826 7.1875 279.647ZM7.19336 274.473C7.19336 274.285 7.24805 274.129 7.35742 274.004C7.4707 273.879 7.63867 273.817 7.86133 273.817C8.08398 273.817 8.25195 273.879 8.36523 274.004C8.48242 274.129 8.54102 274.285 8.54102 274.473C8.54102 274.653 8.48242 274.803 8.36523 274.924C8.25195 275.045 8.08398 275.106 7.86133 275.106C7.63867 275.106 7.4707 275.045 7.35742 274.924C7.24805 274.803 7.19336 274.653 7.19336 274.473ZM10.6738 294.215H9.58398V286.99L7.39844 287.793V286.809L10.5039 285.643H10.6738V294.215ZM8.6875 303.422H9.50195C10.0137 303.414 10.416 303.28 10.709 303.018C11.002 302.756 11.1484 302.403 11.1484 301.957C11.1484 300.957 10.6504 300.457 9.6543 300.457C9.18555 300.457 8.81055 300.592 8.5293 300.862C8.25195 301.127 8.11328 301.481 8.11328 301.922H7.0293C7.0293 301.246 7.27539 300.686 7.76758 300.24C8.26367 299.791 8.89258 299.567 9.6543 299.567C10.459 299.567 11.0898 299.78 11.5469 300.205C12.0039 300.631 12.2324 301.223 12.2324 301.981C12.2324 302.352 12.1113 302.711 11.8691 303.059C11.6309 303.406 11.3047 303.666 10.8906 303.838C11.3594 303.987 11.7207 304.233 11.9746 304.576C12.2324 304.92 12.3613 305.34 12.3613 305.836C12.3613 306.602 12.1113 307.209 11.6113 307.658C11.1113 308.108 10.4609 308.332 9.66016 308.332C8.85938 308.332 8.20703 308.115 7.70312 307.682C7.20312 307.248 6.95312 306.676 6.95312 305.965H8.04297C8.04297 306.414 8.18945 306.774 8.48242 307.043C8.77539 307.313 9.16797 307.448 9.66016 307.448C10.1836 307.448 10.584 307.311 10.8613 307.037C11.1387 306.764 11.2773 306.371 11.2773 305.86C11.2773 305.364 11.125 304.983 10.8203 304.717C10.5156 304.451 10.0762 304.315 9.50195 304.307H8.6875V303.422ZM12.2852 315.91C12.2852 316.336 12.1719 316.715 11.9453 317.047C11.7227 317.379 11.4199 317.639 11.0371 317.826C11.4824 318.018 11.834 318.297 12.0918 318.664C12.3535 319.031 12.4844 319.448 12.4844 319.912C12.4844 320.651 12.2344 321.239 11.7344 321.676C11.2383 322.114 10.584 322.332 9.77148 322.332C8.95117 322.332 8.29297 322.114 7.79688 321.676C7.30469 321.235 7.05859 320.647 7.05859 319.912C7.05859 319.451 7.18359 319.035 7.43359 318.664C7.6875 318.293 8.03711 318.012 8.48242 317.821C8.10352 317.633 7.80469 317.373 7.58594 317.041C7.36719 316.709 7.25781 316.332 7.25781 315.91C7.25781 315.192 7.48828 314.621 7.94922 314.199C8.41016 313.778 9.01758 313.567 9.77148 313.567C10.5215 313.567 11.127 313.778 11.5879 314.199C12.0527 314.621 12.2852 315.192 12.2852 315.91ZM11.4004 319.889C11.4004 319.412 11.248 319.024 10.9434 318.723C10.6426 318.422 10.248 318.272 9.75977 318.272C9.27148 318.272 8.87891 318.42 8.58203 318.717C8.28906 319.014 8.14258 319.405 8.14258 319.889C8.14258 320.373 8.28516 320.754 8.57031 321.031C8.85938 321.309 9.25977 321.448 9.77148 321.448C10.2793 321.448 10.6777 321.309 10.9668 321.031C11.2559 320.75 11.4004 320.369 11.4004 319.889ZM9.77148 314.457C9.3457 314.457 9 314.59 8.73438 314.856C8.47266 315.117 8.3418 315.475 8.3418 315.928C8.3418 316.362 8.4707 316.713 8.72852 316.983C8.99023 317.248 9.33789 317.381 9.77148 317.381C10.2051 317.381 10.5508 317.248 10.8086 316.983C11.0703 316.713 11.2012 316.362 11.2012 315.928C11.2012 315.494 11.0664 315.141 10.7969 314.867C10.5273 314.594 10.1855 314.457 9.77148 314.457ZM8.30078 337.797H7.42773V327.684H8.30078V337.797ZM9.90625 346.412C8.94141 346.135 8.23828 345.795 7.79688 345.393C7.35938 344.987 7.14062 344.487 7.14062 343.893C7.14062 343.221 7.4082 342.666 7.94336 342.229C8.48242 341.787 9.18164 341.567 10.041 341.567C10.627 341.567 11.1484 341.68 11.6055 341.906C12.0664 342.133 12.4219 342.446 12.6719 342.844C12.9258 343.242 13.0527 343.678 13.0527 344.151H11.9219C11.9219 343.635 11.7578 343.231 11.4297 342.938C11.1016 342.641 10.6387 342.492 10.041 342.492C9.48633 342.492 9.05273 342.615 8.74023 342.862C8.43164 343.104 8.27734 343.442 8.27734 343.875C8.27734 344.223 8.42383 344.518 8.7168 344.76C9.01367 344.998 9.51562 345.217 10.2227 345.416C10.9336 345.615 11.4883 345.836 11.8867 346.078C12.2891 346.317 12.5859 346.596 12.7773 346.916C12.9727 347.237 13.0703 347.614 13.0703 348.047C13.0703 348.739 12.8008 349.293 12.2617 349.711C11.7227 350.125 11.002 350.332 10.0996 350.332C9.51367 350.332 8.9668 350.221 8.45898 349.998C7.95117 349.772 7.55859 349.463 7.28125 349.073C7.00781 348.682 6.87109 348.239 6.87109 347.742H8.00195C8.00195 348.258 8.19141 348.666 8.57031 348.967C8.95312 349.264 9.46289 349.412 10.0996 349.412C10.6934 349.412 11.1484 349.291 11.4648 349.049C11.7812 348.807 11.9395 348.477 11.9395 348.059C11.9395 347.641 11.793 347.319 11.5 347.092C11.207 346.862 10.6758 346.635 9.90625 346.412ZM7.1875 363.647C7.1875 363.459 7.24219 363.303 7.35156 363.178C7.46484 363.053 7.63281 362.99 7.85547 362.99C8.07812 362.99 8.24609 363.053 8.35938 363.178C8.47656 363.303 8.53516 363.459 8.53516 363.647C8.53516 363.826 8.47656 363.977 8.35938 364.098C8.24609 364.219 8.07812 364.28 7.85547 364.28C7.63281 364.28 7.46484 364.219 7.35156 364.098C7.24219 363.977 7.1875 363.826 7.1875 363.647ZM7.19336 358.473C7.19336 358.285 7.24805 358.129 7.35742 358.004C7.4707 357.879 7.63867 357.817 7.86133 357.817C8.08398 357.817 8.25195 357.879 8.36523 358.004C8.48242 358.129 8.54102 358.285 8.54102 358.473C8.54102 358.653 8.48242 358.803 8.36523 358.924C8.25195 359.045 8.08398 359.106 7.86133 359.106C7.63867 359.106 7.4707 359.045 7.35742 358.924C7.24805 358.803 7.19336 358.653 7.19336 358.473ZM12.7012 378.215H7.11133V377.436L10.0645 374.155C10.502 373.658 10.8027 373.256 10.9668 372.948C11.1348 372.635 11.2188 372.313 11.2188 371.981C11.2188 371.535 11.084 371.17 10.8145 370.885C10.5449 370.6 10.1855 370.457 9.73633 370.457C9.19727 370.457 8.77734 370.612 8.47656 370.92C8.17969 371.225 8.03125 371.651 8.03125 372.198H6.94727C6.94727 371.412 7.19922 370.778 7.70312 370.293C8.21094 369.809 8.88867 369.567 9.73633 369.567C10.5293 369.567 11.1562 369.776 11.6172 370.194C12.0781 370.608 12.3086 371.16 12.3086 371.852C12.3086 372.692 11.7734 373.692 10.7031 374.852L8.41797 377.33H12.7012V378.215ZM11.6875 389.35H12.8711V390.235H11.6875V392.215H10.5977V390.235H6.71289V389.596L10.5332 383.684H11.6875V389.35ZM7.94336 389.35H10.5977V385.166L10.4688 385.401L7.94336 389.35ZM8.30078 407.797H7.42773V397.684H8.30078V407.797ZM8.51758 416.875V420.215H7.39258V411.684H10.5391C11.4727 411.684 12.2031 411.922 12.7305 412.399C13.2617 412.875 13.5273 413.506 13.5273 414.291C13.5273 415.119 13.2676 415.758 12.748 416.207C12.2324 416.653 11.4922 416.875 10.5273 416.875H8.51758ZM8.51758 415.955H10.5391C11.1406 415.955 11.6016 415.815 11.9219 415.533C12.2422 415.248 12.4023 414.838 12.4023 414.303C12.4023 413.795 12.2422 413.389 11.9219 413.084C11.6016 412.78 11.1621 412.621 10.6035 412.61H8.51758V415.955ZM7.1875 433.647C7.1875 433.459 7.24219 433.303 7.35156 433.178C7.46484 433.053 7.63281 432.99 7.85547 432.99C8.07812 432.99 8.24609 433.053 8.35938 433.178C8.47656 433.303 8.53516 433.459 8.53516 433.647C8.53516 433.826 8.47656 433.977 8.35938 434.098C8.24609 434.219 8.07812 434.28 7.85547 434.28C7.63281 434.28 7.46484 434.219 7.35156 434.098C7.24219 433.977 7.1875 433.826 7.1875 433.647ZM7.19336 428.473C7.19336 428.285 7.24805 428.129 7.35742 428.004C7.4707 427.879 7.63867 427.817 7.86133 427.817C8.08398 427.817 8.25195 427.879 8.36523 428.004C8.48242 428.129 8.54102 428.285 8.54102 428.473C8.54102 428.653 8.48242 428.803 8.36523 428.924C8.25195 429.045 8.08398 429.106 7.86133 429.106C7.63867 429.106 7.4707 429.045 7.35742 428.924C7.24805 428.803 7.19336 428.653 7.19336 428.473ZM7.60938 443.938L8.04297 439.684H12.4141V440.686H8.96289L8.70508 443.012C9.12305 442.766 9.59766 442.643 10.1289 442.643C10.9062 442.643 11.5234 442.901 11.9805 443.416C12.4375 443.928 12.666 444.621 12.666 445.496C12.666 446.375 12.4277 447.069 11.9512 447.576C11.4785 448.08 10.8164 448.332 9.96484 448.332C9.21094 448.332 8.5957 448.123 8.11914 447.705C7.64258 447.287 7.37109 446.709 7.30469 445.971H8.33008C8.39648 446.459 8.57031 446.828 8.85156 447.078C9.13281 447.324 9.50391 447.448 9.96484 447.448C10.4688 447.448 10.8633 447.276 11.1484 446.932C11.4375 446.588 11.582 446.114 11.582 445.508C11.582 444.938 11.4258 444.481 11.1133 444.137C10.8047 443.789 10.3926 443.615 9.87695 443.615C9.4043 443.615 9.0332 443.719 8.76367 443.926L8.47656 444.16L7.60938 443.938ZM12.7012 462.215H7.11133V461.436L10.0645 458.155C10.502 457.658 10.8027 457.256 10.9668 456.948C11.1348 456.635 11.2188 456.313 11.2188 455.981C11.2188 455.535 11.084 455.17 10.8145 454.885C10.5449 454.6 10.1855 454.457 9.73633 454.457C9.19727 454.457 8.77734 454.612 8.47656 454.92C8.17969 455.225 8.03125 455.651 8.03125 456.198H6.94727C6.94727 455.412 7.19922 454.778 7.70312 454.293C8.21094 453.809 8.88867 453.567 9.73633 453.567C10.5293 453.567 11.1562 453.776 11.6172 454.194C12.0781 454.608 12.3086 455.16 12.3086 455.852C12.3086 456.692 11.7734 457.692 10.7031 458.852L8.41797 461.33H12.7012V462.215ZM13.2871 468.61H10.5449V476.215H9.42578V468.61H6.68945V467.684H13.2871V468.61ZM11.1367 489.588C10.7148 490.084 10.0957 490.332 9.2793 490.332C8.60352 490.332 8.08789 490.137 7.73242 489.746C7.38086 489.352 7.20312 488.77 7.19922 488V483.875H8.2832V487.971C8.2832 488.932 8.67383 489.412 9.45508 489.412C10.2832 489.412 10.834 489.104 11.1074 488.487V483.875H12.1914V490.215H11.1602L11.1367 489.588ZM9.85352 504.332C8.99414 504.332 8.29492 504.051 7.75586 503.489C7.2168 502.922 6.94727 502.166 6.94727 501.221V501.022C6.94727 500.393 7.06641 499.832 7.30469 499.34C7.54688 498.844 7.88281 498.457 8.3125 498.18C8.74609 497.899 9.21484 497.758 9.71875 497.758C10.543 497.758 11.1836 498.03 11.6406 498.573C12.0977 499.115 12.3262 499.893 12.3262 500.905V501.356H8.03125C8.04688 501.981 8.22852 502.487 8.57617 502.873C8.92773 503.256 9.37305 503.448 9.91211 503.448C10.2949 503.448 10.6191 503.369 10.8848 503.213C11.1504 503.057 11.3828 502.85 11.582 502.592L12.2441 503.108C11.7129 503.924 10.916 504.332 9.85352 504.332ZM9.71875 498.649C9.28125 498.649 8.91406 498.809 8.61719 499.129C8.32031 499.446 8.13672 499.891 8.06641 500.465H11.2422V500.383C11.2109 499.832 11.0625 499.406 10.7969 499.106C10.5312 498.801 10.1719 498.649 9.71875 498.649ZM8.30078 519.797H7.42773V509.684H8.30078V519.797ZM12.7012 532.215H7.11133V531.436L10.0645 528.155C10.502 527.658 10.8027 527.256 10.9668 526.948C11.1348 526.635 11.2188 526.313 11.2188 525.981C11.2188 525.535 11.084 525.17 10.8145 524.885C10.5449 524.6 10.1855 524.457 9.73633 524.457C9.19727 524.457 8.77734 524.612 8.47656 524.92C8.17969 525.225 8.03125 525.651 8.03125 526.198H6.94727C6.94727 525.412 7.19922 524.778 7.70312 524.293C8.21094 523.809 8.88867 523.567 9.73633 523.567C10.5293 523.567 11.1562 523.776 11.6172 524.194C12.0781 524.608 12.3086 525.16 12.3086 525.852C12.3086 526.692 11.7734 527.692 10.7031 528.852L8.41797 531.33H12.7012V532.215ZM12.4609 542.576C12.4609 543.846 12.2441 544.789 11.8105 545.406C11.377 546.024 10.6992 546.332 9.77734 546.332C8.86719 546.332 8.19336 546.031 7.75586 545.43C7.31836 544.824 7.0918 543.922 7.07617 542.723V541.276C7.07617 540.022 7.29297 539.09 7.72656 538.481C8.16016 537.871 8.83984 537.567 9.76562 537.567C10.6836 537.567 11.3594 537.862 11.793 538.451C12.2266 539.037 12.4492 539.944 12.4609 541.17V542.576ZM11.377 541.094C11.377 540.176 11.248 539.508 10.9902 539.09C10.7324 538.668 10.3242 538.457 9.76562 538.457C9.21094 538.457 8.80664 538.666 8.55273 539.084C8.29883 539.502 8.16797 540.145 8.16016 541.012V542.746C8.16016 543.668 8.29297 544.35 8.55859 544.791C8.82812 545.229 9.23438 545.448 9.77734 545.448C10.3125 545.448 10.709 545.24 10.9668 544.826C11.2285 544.412 11.3652 543.76 11.377 542.869V541.094ZM12.7012 560.215H7.11133V559.436L10.0645 556.155C10.502 555.658 10.8027 555.256 10.9668 554.948C11.1348 554.635 11.2188 554.313 11.2188 553.981C11.2188 553.535 11.084 553.17 10.8145 552.885C10.5449 552.6 10.1855 552.457 9.73633 552.457C9.19727 552.457 8.77734 552.612 8.47656 552.92C8.17969 553.225 8.03125 553.651 8.03125 554.198H6.94727C6.94727 553.412 7.19922 552.778 7.70312 552.293C8.21094 551.809 8.88867 551.567 9.73633 551.567C10.5293 551.567 11.1562 551.776 11.6172 552.194C12.0781 552.608 12.3086 553.16 12.3086 553.852C12.3086 554.692 11.7734 555.692 10.7031 556.852L8.41797 559.33H12.7012V560.215ZM12.4609 570.576C12.4609 571.846 12.2441 572.789 11.8105 573.406C11.377 574.024 10.6992 574.332 9.77734 574.332C8.86719 574.332 8.19336 574.031 7.75586 573.43C7.31836 572.824 7.0918 571.922 7.07617 570.723V569.276C7.07617 568.022 7.29297 567.09 7.72656 566.481C8.16016 565.871 8.83984 565.567 9.76562 565.567C10.6836 565.567 11.3594 565.862 11.793 566.451C12.2266 567.037 12.4492 567.944 12.4609 569.17V570.576ZM11.377 569.094C11.377 568.176 11.248 567.508 10.9902 567.09C10.7324 566.668 10.3242 566.457 9.76562 566.457C9.21094 566.457 8.80664 566.666 8.55273 567.084C8.29883 567.502 8.16797 568.145 8.16016 569.012V570.746C8.16016 571.668 8.29297 572.35 8.55859 572.791C8.82812 573.229 9.23438 573.448 9.77734 573.448C10.3125 573.448 10.709 573.24 10.9668 572.826C11.2285 572.412 11.3652 571.76 11.377 570.869V569.094ZM9.47852 585.033H6.61914V584.149H9.47852V585.033ZM10.6738 602.215H9.58398V594.99L7.39844 595.793V594.809L10.5039 593.643H10.6738V602.215ZM12.7012 616.215H7.11133V615.436L10.0645 612.155C10.502 611.658 10.8027 611.256 10.9668 610.948C11.1348 610.635 11.2188 610.313 11.2188 609.981C11.2188 609.535 11.084 609.17 10.8145 608.885C10.5449 608.6 10.1855 608.457 9.73633 608.457C9.19727 608.457 8.77734 608.612 8.47656 608.92C8.17969 609.225 8.03125 609.651 8.03125 610.198H6.94727C6.94727 609.412 7.19922 608.778 7.70312 608.293C8.21094 607.809 8.88867 607.567 9.73633 607.567C10.5293 607.567 11.1562 607.776 11.6172 608.194C12.0781 608.608 12.3086 609.16 12.3086 609.852C12.3086 610.692 11.7734 611.692 10.7031 612.852L8.41797 615.33H12.7012V616.215ZM9.47852 627.033H6.61914V626.149H9.47852V627.033ZM12.7012 644.215H7.11133V643.436L10.0645 640.155C10.502 639.658 10.8027 639.256 10.9668 638.948C11.1348 638.635 11.2188 638.313 11.2188 637.981C11.2188 637.535 11.084 637.17 10.8145 636.885C10.5449 636.6 10.1855 636.457 9.73633 636.457C9.19727 636.457 8.77734 636.612 8.47656 636.92C8.17969 637.225 8.03125 637.651 8.03125 638.198H6.94727C6.94727 637.412 7.19922 636.778 7.70312 636.293C8.21094 635.809 8.88867 635.567 9.73633 635.567C10.5293 635.567 11.1562 635.776 11.6172 636.194C12.0781 636.608 12.3086 637.16 12.3086 637.852C12.3086 638.692 11.7734 639.692 10.7031 640.852L8.41797 643.33H12.7012V644.215ZM11.2656 654.465C11.0391 654.735 10.7676 654.951 10.4512 655.115C10.1387 655.28 9.79492 655.362 9.41992 655.362C8.92773 655.362 8.49805 655.24 8.13086 654.998C7.76758 654.756 7.48633 654.416 7.28711 653.979C7.08789 653.537 6.98828 653.051 6.98828 652.52C6.98828 651.949 7.0957 651.436 7.31055 650.979C7.5293 650.522 7.83789 650.172 8.23633 649.93C8.63477 649.688 9.09961 649.567 9.63086 649.567C10.4746 649.567 11.1387 649.883 11.623 650.516C12.1113 651.145 12.3555 652.004 12.3555 653.094V653.41C12.3555 655.071 12.0273 656.283 11.3711 657.049C10.7148 657.811 9.72461 658.201 8.40039 658.221H8.18945V657.307H8.41797C9.3125 657.291 10 657.059 10.4805 656.61C10.9609 656.156 11.2227 655.442 11.2656 654.465ZM9.5957 654.465C9.95898 654.465 10.293 654.354 10.5977 654.131C10.9062 653.908 11.1309 653.633 11.2715 653.305V652.871C11.2715 652.16 11.1172 651.582 10.8086 651.137C10.5 650.692 10.1094 650.469 9.63672 650.469C9.16016 650.469 8.77734 650.653 8.48828 651.02C8.19922 651.383 8.05469 651.864 8.05469 652.461C8.05469 653.043 8.19336 653.524 8.4707 653.903C8.75195 654.278 9.12695 654.465 9.5957 654.465ZM7.1875 671.647C7.1875 671.459 7.24219 671.303 7.35156 671.178C7.46484 671.053 7.63281 670.99 7.85547 670.99C8.07812 670.99 8.24609 671.053 8.35938 671.178C8.47656 671.303 8.53516 671.459 8.53516 671.647C8.53516 671.826 8.47656 671.977 8.35938 672.098C8.24609 672.219 8.07812 672.28 7.85547 672.28C7.63281 672.28 7.46484 672.219 7.35156 672.098C7.24219 671.977 7.1875 671.826 7.1875 671.647ZM7.19336 666.473C7.19336 666.285 7.24805 666.129 7.35742 666.004C7.4707 665.879 7.63867 665.817 7.86133 665.817C8.08398 665.817 8.25195 665.879 8.36523 666.004C8.48242 666.129 8.54102 666.285 8.54102 666.473C8.54102 666.653 8.48242 666.803 8.36523 666.924C8.25195 667.045 8.08398 667.106 7.86133 667.106C7.63867 667.106 7.4707 667.045 7.35742 666.924C7.24805 666.803 7.19336 666.653 7.19336 666.473ZM10.6738 686.215H9.58398V678.99L7.39844 679.793V678.809L10.5039 677.643H10.6738V686.215ZM12.2852 693.91C12.2852 694.336 12.1719 694.715 11.9453 695.047C11.7227 695.379 11.4199 695.639 11.0371 695.826C11.4824 696.018 11.834 696.297 12.0918 696.664C12.3535 697.031 12.4844 697.448 12.4844 697.912C12.4844 698.651 12.2344 699.239 11.7344 699.676C11.2383 700.114 10.584 700.332 9.77148 700.332C8.95117 700.332 8.29297 700.114 7.79688 699.676C7.30469 699.235 7.05859 698.647 7.05859 697.912C7.05859 697.451 7.18359 697.035 7.43359 696.664C7.6875 696.293 8.03711 696.012 8.48242 695.821C8.10352 695.633 7.80469 695.373 7.58594 695.041C7.36719 694.709 7.25781 694.332 7.25781 693.91C7.25781 693.192 7.48828 692.621 7.94922 692.199C8.41016 691.778 9.01758 691.567 9.77148 691.567C10.5215 691.567 11.127 691.778 11.5879 692.199C12.0527 692.621 12.2852 693.192 12.2852 693.91ZM11.4004 697.889C11.4004 697.412 11.248 697.024 10.9434 696.723C10.6426 696.422 10.248 696.272 9.75977 696.272C9.27148 696.272 8.87891 696.42 8.58203 696.717C8.28906 697.014 8.14258 697.405 8.14258 697.889C8.14258 698.373 8.28516 698.754 8.57031 699.031C8.85938 699.309 9.25977 699.448 9.77148 699.448C10.2793 699.448 10.6777 699.309 10.9668 699.031C11.2559 698.75 11.4004 698.369 11.4004 697.889ZM9.77148 692.457C9.3457 692.457 9 692.59 8.73438 692.856C8.47266 693.117 8.3418 693.475 8.3418 693.928C8.3418 694.362 8.4707 694.713 8.72852 694.983C8.99023 695.248 9.33789 695.381 9.77148 695.381C10.2051 695.381 10.5508 695.248 10.8086 694.983C11.0703 694.713 11.2012 694.362 11.2012 693.928C11.2012 693.494 11.0664 693.141 10.7969 692.867C10.5273 692.594 10.1855 692.457 9.77148 692.457ZM8.30078 715.797H7.42773V705.684H8.30078V715.797ZM12.2148 724.272H8.51758V727.295H12.8125V728.215H7.39258V719.684H12.7539V720.61H8.51758V723.352H12.2148V724.272ZM7.1875 741.647C7.1875 741.459 7.24219 741.303 7.35156 741.178C7.46484 741.053 7.63281 740.99 7.85547 740.99C8.07812 740.99 8.24609 741.053 8.35938 741.178C8.47656 741.303 8.53516 741.459 8.53516 741.647C8.53516 741.826 8.47656 741.977 8.35938 742.098C8.24609 742.219 8.07812 742.28 7.85547 742.28C7.63281 742.28 7.46484 742.219 7.35156 742.098C7.24219 741.977 7.1875 741.826 7.1875 741.647ZM7.19336 736.473C7.19336 736.285 7.24805 736.129 7.35742 736.004C7.4707 735.879 7.63867 735.817 7.86133 735.817C8.08398 735.817 8.25195 735.879 8.36523 736.004C8.48242 736.129 8.54102 736.285 8.54102 736.473C8.54102 736.653 8.48242 736.803 8.36523 736.924C8.25195 737.045 8.08398 737.106 7.86133 737.106C7.63867 737.106 7.4707 737.045 7.35742 736.924C7.24805 736.803 7.19336 736.653 7.19336 736.473ZM10.6738 756.215H9.58398V748.99L7.39844 749.793V748.809L10.5039 747.643H10.6738V756.215ZM11.6875 767.35H12.8711V768.235H11.6875V770.215H10.5977V768.235H6.71289V767.596L10.5332 761.684H11.6875V767.35ZM7.94336 767.35H10.5977V763.166L10.4688 763.401L7.94336 767.35ZM12.2852 777.91C12.2852 778.336 12.1719 778.715 11.9453 779.047C11.7227 779.379 11.4199 779.639 11.0371 779.826C11.4824 780.018 11.834 780.297 12.0918 780.664C12.3535 781.031 12.4844 781.448 12.4844 781.912C12.4844 782.651 12.2344 783.239 11.7344 783.676C11.2383 784.114 10.584 784.332 9.77148 784.332C8.95117 784.332 8.29297 784.114 7.79688 783.676C7.30469 783.235 7.05859 782.647 7.05859 781.912C7.05859 781.451 7.18359 781.035 7.43359 780.664C7.6875 780.293 8.03711 780.012 8.48242 779.821C8.10352 779.633 7.80469 779.373 7.58594 779.041C7.36719 778.709 7.25781 778.332 7.25781 777.91C7.25781 777.192 7.48828 776.621 7.94922 776.199C8.41016 775.778 9.01758 775.567 9.77148 775.567C10.5215 775.567 11.127 775.778 11.5879 776.199C12.0527 776.621 12.2852 777.192 12.2852 777.91ZM11.4004 781.889C11.4004 781.412 11.248 781.024 10.9434 780.723C10.6426 780.422 10.248 780.272 9.75977 780.272C9.27148 780.272 8.87891 780.42 8.58203 780.717C8.28906 781.014 8.14258 781.405 8.14258 781.889C8.14258 782.373 8.28516 782.754 8.57031 783.031C8.85938 783.309 9.25977 783.448 9.77148 783.448C10.2793 783.448 10.6777 783.309 10.9668 783.031C11.2559 782.75 11.4004 782.369 11.4004 781.889ZM9.77148 776.457C9.3457 776.457 9 776.59 8.73438 776.856C8.47266 777.117 8.3418 777.475 8.3418 777.928C8.3418 778.362 8.4707 778.713 8.72852 778.983C8.99023 779.248 9.33789 779.381 9.77148 779.381C10.2051 779.381 10.5508 779.248 10.8086 778.983C11.0703 778.713 11.2012 778.362 11.2012 777.928C11.2012 777.494 11.0664 777.141 10.7969 776.867C10.5273 776.594 10.1855 776.457 9.77148 776.457ZM8.30078 799.797H7.42773V789.684H8.30078V799.797ZM9.90625 808.412C8.94141 808.135 8.23828 807.795 7.79688 807.393C7.35938 806.987 7.14062 806.487 7.14062 805.893C7.14062 805.221 7.4082 804.666 7.94336 804.229C8.48242 803.787 9.18164 803.567 10.041 803.567C10.627 803.567 11.1484 803.68 11.6055 803.906C12.0664 804.133 12.4219 804.446 12.6719 804.844C12.9258 805.242 13.0527 805.678 13.0527 806.151H11.9219C11.9219 805.635 11.7578 805.231 11.4297 804.938C11.1016 804.641 10.6387 804.492 10.041 804.492C9.48633 804.492 9.05273 804.615 8.74023 804.862C8.43164 805.104 8.27734 805.442 8.27734 805.875C8.27734 806.223 8.42383 806.518 8.7168 806.76C9.01367 806.998 9.51562 807.217 10.2227 807.416C10.9336 807.615 11.4883 807.836 11.8867 808.078C12.2891 808.317 12.5859 808.596 12.7773 808.916C12.9727 809.237 13.0703 809.614 13.0703 810.047C13.0703 810.739 12.8008 811.293 12.2617 811.711C11.7227 812.125 11.002 812.332 10.0996 812.332C9.51367 812.332 8.9668 812.221 8.45898 811.998C7.95117 811.772 7.55859 811.463 7.28125 811.073C7.00781 810.682 6.87109 810.239 6.87109 809.742H8.00195C8.00195 810.258 8.19141 810.666 8.57031 810.967C8.95312 811.264 9.46289 811.412 10.0996 811.412C10.6934 811.412 11.1484 811.291 11.4648 811.049C11.7812 810.807 11.9395 810.477 11.9395 810.059C11.9395 809.641 11.793 809.319 11.5 809.092C11.207 808.862 10.6758 808.635 9.90625 808.412ZM7.1875 825.647C7.1875 825.459 7.24219 825.303 7.35156 825.178C7.46484 825.053 7.63281 824.99 7.85547 824.99C8.07812 824.99 8.24609 825.053 8.35938 825.178C8.47656 825.303 8.53516 825.459 8.53516 825.647C8.53516 825.826 8.47656 825.977 8.35938 826.098C8.24609 826.219 8.07812 826.28 7.85547 826.28C7.63281 826.28 7.46484 826.219 7.35156 826.098C7.24219 825.977 7.1875 825.826 7.1875 825.647ZM7.19336 820.473C7.19336 820.285 7.24805 820.129 7.35742 820.004C7.4707 819.879 7.63867 819.817 7.86133 819.817C8.08398 819.817 8.25195 819.879 8.36523 820.004C8.48242 820.129 8.54102 820.285 8.54102 820.473C8.54102 820.653 8.48242 820.803 8.36523 820.924C8.25195 821.045 8.08398 821.106 7.86133 821.106C7.63867 821.106 7.4707 821.045 7.35742 820.924C7.24805 820.803 7.19336 820.653 7.19336 820.473ZM12.7012 840.215H7.11133V839.436L10.0645 836.155C10.502 835.658 10.8027 835.256 10.9668 834.948C11.1348 834.635 11.2188 834.313 11.2188 833.981C11.2188 833.535 11.084 833.17 10.8145 832.885C10.5449 832.6 10.1855 832.457 9.73633 832.457C9.19727 832.457 8.77734 832.612 8.47656 832.92C8.17969 833.225 8.03125 833.651 8.03125 834.198H6.94727C6.94727 833.412 7.19922 832.778 7.70312 832.293C8.21094 831.809 8.88867 831.567 9.73633 831.567C10.5293 831.567 11.1562 831.776 11.6172 832.194C12.0781 832.608 12.3086 833.16 12.3086 833.852C12.3086 834.692 11.7734 835.692 10.7031 836.852L8.41797 839.33H12.7012V840.215ZM7.60938 849.938L8.04297 845.684H12.4141V846.686H8.96289L8.70508 849.012C9.12305 848.766 9.59766 848.643 10.1289 848.643C10.9062 848.643 11.5234 848.901 11.9805 849.416C12.4375 849.928 12.666 850.621 12.666 851.496C12.666 852.375 12.4277 853.069 11.9512 853.576C11.4785 854.08 10.8164 854.332 9.96484 854.332C9.21094 854.332 8.5957 854.123 8.11914 853.705C7.64258 853.287 7.37109 852.709 7.30469 851.971H8.33008C8.39648 852.459 8.57031 852.828 8.85156 853.078C9.13281 853.324 9.50391 853.448 9.96484 853.448C10.4688 853.448 10.8633 853.276 11.1484 852.932C11.4375 852.588 11.582 852.114 11.582 851.508C11.582 850.938 11.4258 850.481 11.1133 850.137C10.8047 849.789 10.3926 849.615 9.87695 849.615C9.4043 849.615 9.0332 849.719 8.76367 849.926L8.47656 850.16L7.60938 849.938ZM8.30078 869.797H7.42773V859.684H8.30078V869.797ZM8.51758 878.875V882.215H7.39258V873.684H10.5391C11.4727 873.684 12.2031 873.922 12.7305 874.399C13.2617 874.875 13.5273 875.506 13.5273 876.291C13.5273 877.119 13.2676 877.758 12.748 878.207C12.2324 878.653 11.4922 878.875 10.5273 878.875H8.51758ZM8.51758 877.955H10.5391C11.1406 877.955 11.6016 877.815 11.9219 877.533C12.2422 877.248 12.4023 876.838 12.4023 876.303C12.4023 875.795 12.2422 875.389 11.9219 875.084C11.6016 874.78 11.1621 874.621 10.6035 874.61H8.51758V877.955ZM7.1875 895.647C7.1875 895.459 7.24219 895.303 7.35156 895.178C7.46484 895.053 7.63281 894.99 7.85547 894.99C8.07812 894.99 8.24609 895.053 8.35938 895.178C8.47656 895.303 8.53516 895.459 8.53516 895.647C8.53516 895.826 8.47656 895.977 8.35938 896.098C8.24609 896.219 8.07812 896.28 7.85547 896.28C7.63281 896.28 7.46484 896.219 7.35156 896.098C7.24219 895.977 7.1875 895.826 7.1875 895.647ZM7.19336 890.473C7.19336 890.285 7.24805 890.129 7.35742 890.004C7.4707 889.879 7.63867 889.817 7.86133 889.817C8.08398 889.817 8.25195 889.879 8.36523 890.004C8.48242 890.129 8.54102 890.285 8.54102 890.473C8.54102 890.653 8.48242 890.803 8.36523 890.924C8.25195 891.045 8.08398 891.106 7.86133 891.106C7.63867 891.106 7.4707 891.045 7.35742 890.924C7.24805 890.803 7.19336 890.653 7.19336 890.473ZM11.3652 901.678V902.598H11.166C10.3223 902.614 9.65039 902.864 9.15039 903.348C8.65039 903.832 8.36133 904.514 8.2832 905.393C8.73242 904.877 9.3457 904.619 10.123 904.619C10.8652 904.619 11.457 904.881 11.8984 905.405C12.3438 905.928 12.5664 906.604 12.5664 907.432C12.5664 908.311 12.3262 909.014 11.8457 909.541C11.3691 910.069 10.7285 910.332 9.92383 910.332C9.10742 910.332 8.44531 910.02 7.9375 909.395C7.42969 908.766 7.17578 907.957 7.17578 906.969V906.553C7.17578 904.983 7.50977 903.783 8.17773 902.955C8.84961 902.123 9.84766 901.698 11.1719 901.678H11.3652ZM9.94141 905.522C9.57031 905.522 9.22852 905.633 8.91602 905.856C8.60352 906.078 8.38672 906.358 8.26562 906.694V907.092C8.26562 907.795 8.42383 908.362 8.74023 908.791C9.05664 909.221 9.45117 909.436 9.92383 909.436C10.4121 909.436 10.7949 909.256 11.0723 908.897C11.3535 908.537 11.4941 908.067 11.4941 907.485C11.4941 906.899 11.3516 906.426 11.0664 906.067C10.7852 905.703 10.4102 905.522 9.94141 905.522ZM12.4609 920.576C12.4609 921.846 12.2441 922.789 11.8105 923.406C11.377 924.024 10.6992 924.332 9.77734 924.332C8.86719 924.332 8.19336 924.031 7.75586 923.43C7.31836 922.824 7.0918 921.922 7.07617 920.723V919.276C7.07617 918.022 7.29297 917.09 7.72656 916.481C8.16016 915.871 8.83984 915.567 9.76562 915.567C10.6836 915.567 11.3594 915.862 11.793 916.451C12.2266 917.037 12.4492 917.944 12.4609 919.17V920.576ZM11.377 919.094C11.377 918.176 11.248 917.508 10.9902 917.09C10.7324 916.668 10.3242 916.457 9.76562 916.457C9.21094 916.457 8.80664 916.666 8.55273 917.084C8.29883 917.502 8.16797 918.145 8.16016 919.012V920.746C8.16016 921.668 8.29297 922.35 8.55859 922.791C8.82812 923.229 9.23438 923.448 9.77734 923.448C10.3125 923.448 10.709 923.24 10.9668 922.826C11.2285 922.412 11.3652 921.76 11.377 920.869V919.094Z" fill="black"/>
</g>
<defs>
<clipPath id="clip0_2_3648">
<rect width="15.9571" height="16" fill="white" transform="translate(0 0.000244141)"/>
</clipPath>
</defs>
</svg>
