<svg width="17" height="16" viewBox="0 0 17 16" fill="none" xmlns="http://www.w3.org/2000/svg">
<g clip-path="url(#clip0_2_3650)">
<path d="M8.95703 16.0002C13.3753 16.0002 16.957 12.4185 16.957 8.00024C16.957 3.58197 13.3753 0.000244141 8.95703 0.000244141C4.53875 0.000244141 0.957031 3.58197 0.957031 8.00024C0.957031 12.4185 4.53875 16.0002 8.95703 16.0002Z" fill="#FFD81B"/>
<path d="M12.957 7.78124C12.957 9.99274 11.244 10.7447 9.80203 10.7447V11.3212H10.9145V12.1022H9.80253V13.0002H8.06253V12.1022H6.99903V11.3212H8.06053V10.7372C7.59903 10.7372 4.95703 10.6277 4.95703 7.62074V4.00024H6.68453V7.75924C6.68453 9.32874 8.06753 9.31424 8.06753 9.31424V4.00024H9.80253V9.31424C9.80253 9.31424 11.2295 9.39424 11.2295 7.73774V4.00024H12.957V7.78124Z" fill="white"/>
</g>
<defs>
<clipPath id="clip0_2_3650">
<rect width="16" height="16" fill="white" transform="translate(0.957031 0.000244141)"/>
</clipPath>
</defs>
</svg>
