<svg width="17" height="16" viewBox="0 0 17 16" fill="none" xmlns="http://www.w3.org/2000/svg">
<g clip-path="url(#clip0_2_3651)">
<path d="M14.782 13.2911C14.7755 13.4436 14.7101 13.5875 14.5996 13.6928C14.4891 13.798 14.3421 13.8563 14.1895 13.8554H5.49971C5.34231 13.8547 5.19162 13.7916 5.08058 13.6801C4.96955 13.5685 4.90722 13.4175 4.90722 13.2601V13.0626C4.93911 12.7456 5.0351 12.4385 5.18936 12.1598C5.61256 11.3698 6.40255 10.8055 7.5311 10.4105L11.0014 9.25375C11.5393 9.05328 12.0363 8.75695 12.4685 8.37913C12.9313 7.99177 13.3046 7.50869 13.5628 6.96318C13.8209 6.41766 13.9577 5.82267 13.9638 5.21919L14.2177 5.38847C14.3879 5.50524 14.5278 5.66081 14.6259 5.84232C14.724 6.02384 14.7775 6.22609 14.782 6.43238V13.2883V13.2911ZM11.8196 5.1938C11.825 5.48593 11.7672 5.77578 11.6504 6.04358C11.5335 6.31138 11.3603 6.55081 11.1425 6.74555C10.9047 6.95168 10.6387 7.1227 10.3525 7.2534L6.88218 8.41016C4.82258 9.08729 3.80689 10.2723 3.32725 11.1469C3.24033 11.3107 3.16491 11.4804 3.10154 11.6547C3.10154 11.683 3.07333 11.683 3.07333 11.7112V6.46341C3.08028 6.25763 3.13485 6.05626 3.23276 5.87513C3.33067 5.694 3.46925 5.53804 3.6376 5.41951L8.37751 2.316C8.54261 2.21322 8.7332 2.15875 8.92768 2.15875C9.12215 2.15875 9.31274 2.21322 9.47784 2.316L11.8196 3.86775V5.1938ZM16.9263 13.1783V6.46341C16.917 5.90546 16.7738 5.35791 16.5086 4.8669C16.2435 4.37588 15.8642 3.9558 15.4027 3.64204L13.992 2.71099V0.59496C13.992 0.437562 13.9297 0.286568 13.8187 0.175007C13.7076 0.0634454 13.5569 0.000396362 13.3995 -0.000349602H12.4685C12.3902 -0.00228469 12.3123 0.0117179 12.2395 0.0408082C12.1667 0.0698985 12.1006 0.11347 12.0452 0.168878C11.9898 0.224286 11.9463 0.290375 11.9172 0.363134C11.8881 0.435892 11.8741 0.513804 11.876 0.592138V1.29748L10.691 0.507497C10.1736 0.174349 9.57127 -0.00280762 8.95589 -0.00280762C8.34051 -0.00280762 7.73814 0.174349 7.22075 0.507497L2.48084 3.61101C2.01475 3.92003 1.63194 4.33909 1.36623 4.83116C1.10051 5.32322 0.960068 5.87316 0.957301 6.43238V13.1472C0.934177 13.7264 1.09195 14.2983 1.40872 14.7836C1.64314 15.1498 1.97545 15.443 2.36799 15.6301C2.81089 15.8402 3.28953 15.9646 3.77867 15.9968H14.1331C14.6247 15.9807 15.1066 15.8555 15.5438 15.6301C15.9444 15.4439 16.286 15.1511 16.5313 14.7836C16.8071 14.2936 16.9437 13.7375 16.9263 13.1755" fill="#38A6FA"/>
</g>
<defs>
<clipPath id="clip0_2_3651">
<rect width="15.969" height="16" fill="white" transform="translate(0.957031 0.000244141)"/>
</clipPath>
</defs>
</svg>
