<svg width="17" height="16" viewBox="0 0 17 16" fill="none" xmlns="http://www.w3.org/2000/svg">
<g clip-path="url(#clip0_2_3659)">
<path d="M8.59766 16.0002C13.0159 16.0002 16.5977 12.4185 16.5977 8.00024C16.5977 3.58197 13.0159 0.000244141 8.59766 0.000244141C4.17938 0.000244141 0.597656 3.58197 0.597656 8.00024C0.597656 12.4185 4.17938 16.0002 8.59766 16.0002Z" fill="#252525"/>
<path d="M13.4117 10.6047C13.4617 10.6058 13.5093 10.6266 13.5441 10.6625C13.579 10.6985 13.5982 10.7467 13.5977 10.7967V11.7502H10.4582L10.4462 10.9202C10.4463 10.8932 10.4524 10.8665 10.4639 10.842C10.4753 10.8174 10.492 10.7957 10.5127 10.7782C10.5251 10.7623 10.5391 10.7477 10.5547 10.7347C11.9382 9.76974 12.4697 7.93224 11.8257 6.34274C11.1812 4.75324 9.53966 3.85374 7.90216 4.19274C6.26516 4.53124 5.08666 6.01474 5.08616 7.73774C5.08516 8.91524 5.64616 10.0177 6.58666 10.6852C6.60714 10.6967 6.62382 10.7139 6.63466 10.7347C6.66882 10.7507 6.69773 10.7761 6.71801 10.8078C6.73829 10.8396 6.74909 10.8765 6.74916 10.9142L6.73716 11.7442H3.59766V10.7902C3.59766 10.6842 3.68116 10.5982 3.78366 10.5982C3.88616 10.5982 3.96966 10.6842 3.96966 10.7902V11.3662H6.37066L6.37666 11.0072H6.37066C4.99016 10.0062 4.39766 8.19824 4.90566 6.53824C5.41516 4.87824 6.90766 3.75024 8.59516 3.75024C10.2827 3.75024 11.7752 4.87824 12.2837 6.53824C12.7922 8.19824 12.1997 10.0062 10.8187 11.0072L10.8252 11.3722H13.2262V10.7967C13.2256 10.7467 13.2449 10.6985 13.2797 10.6625C13.3145 10.6266 13.3621 10.6058 13.4122 10.6047H13.4117ZM10.9327 8.01674C11.3467 8.54324 11.4727 9.01374 11.2927 9.32324C11.1547 9.56474 10.8607 9.69474 10.4342 9.69474C10.1663 9.68822 9.90034 9.64875 9.64216 9.57724C9.40816 10.3947 9.02966 10.9212 8.59766 10.9212C8.16566 10.9212 7.78766 10.3947 7.55916 9.57724C7.30098 9.64875 7.03498 9.68822 6.76716 9.69474C6.34066 9.69474 6.04666 9.56474 5.90866 9.32324C5.68666 8.93924 5.93866 8.33874 6.51466 7.72574C6.42755 7.63527 6.34543 7.54013 6.26866 7.44074C5.85466 6.91424 5.72866 6.44974 5.90866 6.12774C6.04666 5.88624 6.34066 5.75624 6.76716 5.75624C7.035 5.76293 7.301 5.80256 7.55916 5.87424C7.79316 5.05674 8.17166 4.53024 8.60366 4.53024C9.03566 4.53024 9.41366 5.05674 9.64216 5.88024C9.90034 5.80873 10.1663 5.76927 10.4342 5.76274C10.8607 5.76274 11.1547 5.89274 11.2927 6.13424C11.4727 6.45624 11.3467 6.92074 10.9327 7.44724C10.8558 7.54657 10.7737 7.64171 10.6867 7.73224C10.7737 7.82224 10.8557 7.91724 10.9327 8.01674ZM10.4402 5.99174C10.1911 5.99958 9.94356 6.03479 9.70216 6.09674C9.76666 6.39074 9.81216 6.68874 9.84016 6.98874C10.0772 7.16374 10.3037 7.35424 10.5187 7.55874C10.6027 7.47174 10.6807 7.37874 10.7527 7.29224C11.0947 6.85224 11.2207 6.47474 11.0947 6.24574C10.9807 6.03524 10.6747 5.99174 10.4402 5.99174ZM9.12016 8.66074C9.29416 8.55574 9.46216 8.44424 9.61816 8.33274C9.63616 8.13424 9.64216 7.93624 9.64216 7.72574C9.64216 7.51524 9.63016 7.31074 9.61816 7.11874C9.45612 7.00515 9.28983 6.89774 9.11966 6.79674C8.94826 6.69911 8.77419 6.60624 8.59766 6.51824C8.41866 6.60124 8.24466 6.69424 8.07566 6.79674C7.89566 6.90174 7.73316 7.00724 7.57716 7.11874C7.55916 7.31074 7.55316 7.51524 7.55316 7.72574C7.55316 7.93574 7.56516 8.14074 7.57716 8.33274C7.90149 8.56043 8.24264 8.76318 8.59766 8.93924C8.77666 8.85624 8.95066 8.76324 9.11966 8.66074H9.12016ZM9.59416 8.64224C9.47416 8.71624 9.36016 8.79074 9.24016 8.86524C9.12016 8.93924 9.00016 9.00774 8.88016 9.06924C9.07716 9.15824 9.27966 9.23474 9.48616 9.29874C9.52816 9.09424 9.56416 8.87724 9.59416 8.64224ZM8.32766 9.06924L7.96766 8.86524C7.84766 8.79074 7.72766 8.71624 7.61316 8.64224C7.63466 8.86324 7.67066 9.08224 7.72116 9.29874C7.92716 9.23374 8.12966 9.15724 8.32766 9.06924ZM7.34316 8.15274C7.33599 8.01052 7.33199 7.86815 7.33116 7.72574C7.33116 7.57724 7.33716 7.44074 7.34316 7.29824C7.16866 7.43024 7.00216 7.57274 6.84516 7.72574C7.00316 7.87724 7.16966 8.02024 7.34316 8.15274ZM7.61316 6.82174C7.72595 6.74252 7.84206 6.66812 7.96116 6.59874C8.08766 6.52424 8.20766 6.45624 8.32766 6.39424C8.13016 6.30524 7.92766 6.22924 7.72116 6.16524C7.67916 6.36924 7.64316 6.58624 7.61316 6.82174ZM8.87366 6.39424C8.99366 6.45624 9.11366 6.52424 9.23366 6.59874C9.35366 6.67274 9.47366 6.74724 9.58816 6.82174C9.56689 6.60074 9.5308 6.38141 9.48016 6.16524C9.27416 6.23024 9.07166 6.30624 8.87366 6.39424ZM9.86416 7.30424C9.87016 7.44724 9.87616 7.58324 9.87616 7.73174C9.87616 7.88024 9.87016 8.02274 9.86416 8.15924C10.0382 8.01674 10.2062 7.87424 10.3562 7.73174C10.2018 7.57862 10.0375 7.43597 9.86416 7.30474V7.30424ZM8.60366 4.76574C8.29766 4.76574 7.98566 5.19924 7.78116 5.93574C8.06216 6.02424 8.33666 6.13174 8.60366 6.25724C8.87032 6.13193 9.1451 6.02469 9.42616 5.93624C9.22166 5.19924 8.90366 4.76574 8.60366 4.76574ZM6.11266 6.24574C5.98066 6.47474 6.10666 6.85874 6.45466 7.28574C6.52666 7.37824 6.60466 7.46474 6.68866 7.55774C6.90266 7.35274 7.12866 7.16274 7.36716 6.98874C7.39466 6.68874 7.44066 6.39074 7.50516 6.09724C7.26416 6.03224 7.01616 5.99724 6.76716 5.99174C6.53266 5.99174 6.23266 6.03524 6.11266 6.24574ZM6.76716 9.46574C7.01666 9.46074 7.26466 9.42324 7.50516 9.35374C7.44081 9.05988 7.39472 8.76231 7.36716 8.46274C7.12566 8.29074 6.89716 8.10024 6.68266 7.89274C6.16666 8.44424 5.96266 8.93924 6.11266 9.21174C6.22666 9.42224 6.53266 9.46574 6.76716 9.46574ZM8.60366 10.6917C8.90366 10.6917 9.22166 10.2582 9.42616 9.52174C9.14508 9.43297 8.87029 9.3254 8.60366 9.19974C8.33692 9.32516 8.06215 9.43273 7.78116 9.52174C7.98566 10.2582 8.30366 10.6917 8.60366 10.6917ZM11.0947 9.21174C11.2207 8.98874 11.0947 8.60524 10.7527 8.16524C10.6781 8.07363 10.6 7.9849 10.5187 7.89924C10.3047 8.10424 10.0787 8.29424 9.84016 8.46924C9.81268 8.76898 9.76659 9.06673 9.70216 9.36074C9.94316 9.42524 10.1912 9.46074 10.4402 9.46574C10.6747 9.46574 10.9747 9.42224 11.0947 9.21174ZM8.60366 6.82174C9.08866 6.82174 9.48266 7.22524 9.48616 7.72574C9.48616 8.22424 9.09466 8.62874 8.61166 8.62974C8.12866 8.63074 7.73566 8.22824 7.73316 7.72974C7.73116 7.23124 8.12066 6.82474 8.60366 6.82174ZM8.60366 8.40074C8.96066 8.39774 9.24916 8.10024 9.25216 7.73174C9.25216 7.36224 8.96216 7.06324 8.60366 7.06324C8.24516 7.06324 7.95516 7.36224 7.95516 7.73174C7.95516 8.10124 8.24566 8.40074 8.60366 8.40074Z" fill="white"/>
</g>
<defs>
<clipPath id="clip0_2_3659">
<rect width="16" height="16" fill="white" transform="translate(0.597656 0.000244141)"/>
</clipPath>
</defs>
</svg>
