<svg width="17" height="16" viewBox="0 0 17 16" fill="none" xmlns="http://www.w3.org/2000/svg">
<g clip-path="url(#clip0_2_3662)">
<path d="M8.57422 16.0002C12.9925 16.0002 16.5742 12.4185 16.5742 8.00024C16.5742 3.58197 12.9925 0.000244141 8.57422 0.000244141C4.15594 0.000244141 0.574219 3.58197 0.574219 8.00024C0.574219 12.4185 4.15594 16.0002 8.57422 16.0002Z" fill="#9D4BEF"/>
<path d="M6.3088 3.83118C6.81377 3.83118 7.29806 4.03178 7.65513 4.38885C8.0122 4.74592 8.2128 5.2302 8.2128 5.73518C8.2128 6.24015 8.0122 6.72444 7.65513 7.08151C7.29806 7.43858 6.81377 7.63918 6.3088 7.63918C5.80383 7.63918 5.31954 7.43858 4.96247 7.08151C4.6054 6.72444 4.4048 6.24015 4.4048 5.73518C4.4048 5.2302 4.6054 4.74592 4.96247 4.38885C5.31954 4.03178 5.80383 3.83118 6.3088 3.83118ZM8.2123 10.2662C8.2123 10.6428 8.10063 11.0109 7.89142 11.324C7.6822 11.6371 7.38484 11.8811 7.03693 12.0252C6.68902 12.1694 6.30619 12.2071 5.93685 12.1336C5.56751 12.0601 5.22825 11.8788 4.96197 11.6125C4.69569 11.3462 4.51435 11.007 4.44088 10.6376C4.36742 10.2683 4.40512 9.88546 4.54923 9.53755C4.69334 9.18964 4.93738 8.89227 5.25049 8.68306C5.5636 8.47385 5.93172 8.36218 6.3083 8.36218C7.00489 8.36218 7.67295 8.08546 8.16551 7.59289C8.65808 7.10033 8.9348 6.43227 8.9348 5.73568C8.9348 5.3591 9.04647 4.99098 9.25568 4.67787C9.46489 4.36476 9.76226 4.12072 10.1102 3.97661C10.4581 3.8325 10.8409 3.7948 11.2102 3.86826C11.5796 3.94173 11.9188 4.12307 12.1851 4.38935C12.4514 4.65562 12.6327 4.99488 12.7062 5.36422C12.7797 5.73356 12.742 6.1164 12.5979 6.46431C12.4538 6.81222 12.2097 7.10958 11.8966 7.3188C11.5835 7.52801 11.2154 7.63968 10.8388 7.63968C10.1423 7.63981 9.47436 7.91659 8.9819 8.40914C8.48945 8.90169 8.2128 9.56967 8.2128 10.2662H8.2123ZM10.8388 12.1702C10.3338 12.1702 9.84954 11.9696 9.49247 11.6125C9.1354 11.2554 8.9348 10.7712 8.9348 10.2662C8.9348 9.76121 9.1354 9.27692 9.49247 8.91985C9.84954 8.56278 10.3338 8.36218 10.8388 8.36218C11.3438 8.36218 11.8281 8.56278 12.1851 8.91985C12.5422 9.27692 12.7428 9.76121 12.7428 10.2662C12.7428 10.7712 12.5422 11.2554 12.1851 11.6125C11.8281 11.9696 11.3438 12.1702 10.8388 12.1702ZM10.8388 10.8402C10.991 10.8402 11.137 10.7797 11.2447 10.6721C11.3523 10.5644 11.4128 10.4184 11.4128 10.2662C11.4128 10.1139 11.3523 9.96794 11.2447 9.8603C11.137 9.75265 10.991 9.69218 10.8388 9.69218C10.6866 9.69218 10.5406 9.75265 10.4329 9.8603C10.3253 9.96794 10.2648 10.1139 10.2648 10.2662C10.2648 10.4184 10.3253 10.5644 10.4329 10.6721C10.5406 10.7797 10.6866 10.8402 10.8388 10.8402ZM6.3088 10.8402C6.46103 10.8402 6.60703 10.7797 6.71468 10.6721C6.82232 10.5644 6.8828 10.4184 6.8828 10.2662C6.8828 10.1139 6.82232 9.96794 6.71468 9.8603C6.60703 9.75265 6.46103 9.69218 6.3088 9.69218C6.15656 9.69218 6.01056 9.75265 5.90292 9.8603C5.79527 9.96794 5.7348 10.1139 5.7348 10.2662C5.7348 10.4184 5.79527 10.5644 5.90292 10.6721C6.01056 10.7797 6.15656 10.8402 6.3088 10.8402ZM10.8388 6.30918C10.991 6.30918 11.137 6.2487 11.2447 6.14106C11.3523 6.03341 11.4128 5.88741 11.4128 5.73518C11.4128 5.58294 11.3523 5.43694 11.2447 5.3293C11.137 5.22165 10.991 5.16118 10.8388 5.16118C10.6866 5.16118 10.5406 5.22165 10.4329 5.3293C10.3253 5.43694 10.2648 5.58294 10.2648 5.73518C10.2648 5.88741 10.3253 6.03341 10.4329 6.14106C10.5406 6.2487 10.6866 6.30918 10.8388 6.30918ZM6.3088 6.30918C6.46103 6.30918 6.60703 6.2487 6.71468 6.14106C6.82232 6.03341 6.8828 5.88741 6.8828 5.73518C6.8828 5.58294 6.82232 5.43694 6.71468 5.3293C6.60703 5.22165 6.46103 5.16118 6.3088 5.16118C6.15656 5.16118 6.01056 5.22165 5.90292 5.3293C5.79527 5.43694 5.7348 5.58294 5.7348 5.73518C5.7348 5.88741 5.79527 6.03341 5.90292 6.14106C6.01056 6.2487 6.15656 6.30918 6.3088 6.30918Z" fill="white"/>
</g>
<defs>
<clipPath id="clip0_2_3662">
<rect width="16" height="16" fill="white" transform="translate(0.574219 0.000244141)"/>
</clipPath>
</defs>
</svg>
