<svg width="17" height="16" viewBox="0 0 17 16" fill="none" xmlns="http://www.w3.org/2000/svg">
<g clip-path="url(#clip0_2_3663)">
<path d="M8.57422 16.0002C12.9925 16.0002 16.5742 12.4185 16.5742 8.00024C16.5742 3.58197 12.9925 0.000244141 8.57422 0.000244141C4.15594 0.000244141 0.574219 3.58197 0.574219 8.00024C0.574219 12.4185 4.15594 16.0002 8.57422 16.0002Z" fill="#2A2A2A"/>
<path d="M5.57422 3.00324H9.62972C9.67872 2.98824 9.70372 3.03324 9.73572 3.05824C10.118 3.4193 10.4609 3.81987 10.7587 4.25324C11.1819 4.85929 11.5141 5.52399 11.7447 6.22624C11.9857 6.96824 12.0997 7.75324 12.0697 8.53324H10.0022C10.0124 8.42957 10.0161 8.32536 10.0132 8.22124C9.99172 7.48574 9.76472 6.76424 9.40722 6.12524C9.02472 5.44074 8.49072 4.85024 7.88372 4.35974C7.22272 3.82524 6.47872 3.40324 5.70372 3.06224C5.66072 3.04224 5.61572 3.02624 5.57422 3.00324ZM7.07522 6.66674C7.76886 7.9216 8.46136 9.1771 9.15272 10.4332C9.31922 10.7362 9.48772 11.0382 9.65272 11.3417C8.79222 11.8927 7.93422 12.4487 7.07422 13.0002V6.66674H7.07522Z" fill="white"/>
</g>
<defs>
<clipPath id="clip0_2_3663">
<rect width="16" height="16" fill="white" transform="translate(0.574219 0.000244141)"/>
</clipPath>
</defs>
</svg>
