<svg width="11" height="16" viewBox="0 0 11 16" fill="none" xmlns="http://www.w3.org/2000/svg">
<g clip-path="url(#clip0_2_3664)">
<path d="M4.77729 12.9826L0.574219 16.0003L3.24246 3.72167L4.77729 12.9826ZM4.8623 12.9543L7.42192 12.9873L3.34163 3.76889L4.8623 12.9543ZM7.66277 12.7512L9.62263 5.4879L8.88119 4.58117L7.66277 12.7512ZM6.71826 1.36511L3.49276 3.53749L8.20586 2.0121L6.71826 1.36511ZM6.31212 1.36511L4.30976 1.43123L4.01696 2.26712L6.31212 1.36511Z" fill="#384182"/>
<path d="M8.73987 4.30266L3.57812 3.59427L8.22984 2.13028L8.73987 4.30266ZM7.51673 1.57302L7.80009 0.803241L6.31248 0.15625L7.51673 1.57302ZM7.94648 0.72768L8.28179 1.93665L10.2653 1.41245L7.94648 0.72768Z" fill="#F79534"/>
<path d="M7.53539 12.94L3.39844 3.68383L8.79159 4.43944L7.53539 12.94ZM6.56255 1.36506L4.01237 2.36152L3.39844 3.49493L6.56255 1.36506ZM4.98049 0.609453L4.34295 1.31311L6.45865 1.26117L4.98049 0.609453ZM6.09501 0.0616373L5.08439 0.52917L7.38899 1.54452L6.09501 0.0616373ZM7.24732 0.000244141H6.16113L7.84236 0.651956L7.24732 0.000244141ZM7.87542 0.864471L7.61567 1.63897L8.13516 1.88926L7.87542 0.864471Z" fill="#F0513A"/>
</g>
<defs>
<clipPath id="clip0_2_3664">
<rect width="9.6954" height="16" fill="white" transform="translate(0.574219 0.000244141)"/>
</clipPath>
</defs>
</svg>
