<svg width="15" height="16" viewBox="0 0 15 16" fill="none" xmlns="http://www.w3.org/2000/svg">
<g clip-path="url(#clip0_2_3667)">
<path d="M10.2044 8.99041L14.2192 4.98814C14.3683 4.83955 14.4866 4.66288 14.5671 4.46834C14.6477 4.2738 14.6889 4.06523 14.6884 3.85468L14.6952 0.619768C14.6948 0.453816 14.6307 0.294349 14.5161 0.174316L6.81423 7.85921C6.66454 8.00759 6.54572 8.18414 6.46463 8.37869C6.38355 8.57323 6.3418 8.78191 6.3418 8.99268C6.3418 9.20345 6.38355 9.41212 6.46463 9.60667C6.54572 9.80121 6.66454 9.97777 6.81423 10.1261L12.2447 15.5396C12.3935 15.6877 12.5701 15.805 12.7643 15.8849C12.9585 15.9648 13.1665 16.0056 13.3765 16.0051C13.5864 16.0045 13.7943 15.9627 13.9881 15.8818C14.1818 15.801 14.3578 15.6828 14.5059 15.5339C14.654 15.3851 14.7714 15.2085 14.8512 15.0143C14.9311 14.8201 14.9719 14.6121 14.9714 14.4021C14.9709 14.1921 14.929 13.9843 14.8482 13.7905C14.7673 13.5967 14.6491 13.4207 14.5003 13.2726L10.2044 8.99041Z" fill="#008C62"/>
<path d="M14.0673 0.000763121H1.96986C0.99168 0.000763121 0.269663 0.739783 0.269663 1.74857V14.3697C0.266919 14.5842 0.307154 14.797 0.387994 14.9956C0.468834 15.1943 0.588642 15.3747 0.740349 15.5263C0.892056 15.6779 1.07259 15.7976 1.2713 15.8783C1.47001 15.959 1.68287 15.9991 1.89732 15.9962C2.11193 15.9999 2.32509 15.9604 2.52409 15.8799C2.7231 15.7995 2.90387 15.6798 3.05565 15.528C3.20742 15.3763 3.3271 15.1955 3.40753 14.9965C3.48797 14.7975 3.52752 14.5843 3.52384 14.3697V3.11439H11.5714L14.5185 0.182118C14.4594 0.122945 14.389 0.0763634 14.3115 0.0451912C14.2339 0.014019 14.1509 -0.00109533 14.0673 0.000763121Z" fill="#00E6A0"/>
</g>
<defs>
<clipPath id="clip0_2_3667">
<rect width="14.701" height="16" fill="white" transform="translate(0.269531 0.000244141)"/>
</clipPath>
</defs>
</svg>
