<svg width="17" height="16" viewBox="0 0 17 16" fill="none" xmlns="http://www.w3.org/2000/svg">
<g clip-path="url(#clip0_2_3669)">
<path d="M8.9707 16.0002C13.389 16.0002 16.9707 12.4185 16.9707 8.00024C16.9707 3.58197 13.389 0.000244141 8.9707 0.000244141C4.55242 0.000244141 0.970703 3.58197 0.970703 8.00024C0.970703 12.4185 4.55242 16.0002 8.9707 16.0002Z" fill="#3555F9"/>
<path d="M8.15074 3.31372C8.57574 3.23472 9.01074 3.24372 9.44074 3.26522C9.93674 3.32322 10.4337 3.42722 10.8897 3.63222C11.8005 4.01278 12.5724 4.66378 13.1012 5.49722C13.2977 5.78372 13.4297 6.10472 13.5622 6.42322C13.6852 6.22722 13.7952 6.02322 13.9022 5.81822C13.9482 5.72172 14.0447 5.64722 14.1572 5.65222C14.2321 5.64638 14.3063 5.66963 14.3644 5.71713C14.4225 5.76463 14.4601 5.83272 14.4692 5.90722C14.4817 6.02722 14.4062 6.13072 14.3567 6.23472C14.2007 6.54972 13.9992 6.84072 13.7907 7.12472C13.7522 7.16572 13.7682 7.22272 13.7727 7.27272C14.0047 8.64122 13.5632 10.0977 12.6227 11.1287C12.0805 11.7314 11.3973 12.1901 10.6342 12.4637C9.75524 12.7712 8.78724 12.8407 7.87824 12.6257C6.56024 12.3402 5.39424 11.4712 4.73124 10.3182C4.58624 10.0847 4.49374 9.82522 4.37924 9.57722C4.25424 9.76972 4.14824 9.97222 4.04174 10.1742C4.01671 10.2243 3.97906 10.2669 3.93249 10.298C3.88593 10.329 3.83207 10.3474 3.77624 10.3512C3.58574 10.3512 3.41274 10.1462 3.48924 9.96372C3.65324 9.58672 3.87774 9.23772 4.12924 8.91172C4.18324 8.85522 4.17574 8.77522 4.16574 8.70472C4.07235 8.10304 4.09954 7.48879 4.24574 6.89772C4.63074 5.23572 6.01074 3.84772 7.68324 3.41522C7.83824 3.37872 7.99324 3.34022 8.15074 3.31372ZM6.96974 4.31872C6.08324 4.78472 5.36974 5.56422 4.99974 6.48472C4.78574 7.04072 4.67674 7.63872 4.70974 8.23372C4.80362 8.16324 4.89312 8.0871 4.97774 8.00572C5.47524 7.56172 6.05774 7.21772 6.66674 6.94372C7.79824 6.42922 9.04424 6.20772 10.2822 6.14772C9.86374 5.71372 9.40974 5.31322 8.99124 4.87922C9.12324 4.73422 9.26624 4.60022 9.40924 4.46622C9.57174 4.61322 9.72174 4.77272 9.88074 4.92322C10.3957 5.43572 10.9262 5.93322 11.4327 6.45272C10.8927 6.99122 10.3387 7.51622 9.79874 8.05472C9.75322 8.09753 9.70549 8.13792 9.65574 8.17572C9.51974 8.03872 9.36174 7.91872 9.25274 7.75822C9.58473 7.41022 9.96274 7.10522 10.2812 6.74472C9.71024 6.75272 9.14224 6.83372 8.58324 6.94472C8.13174 7.02522 7.69774 7.17772 7.26424 7.32322C6.35624 7.66322 5.51874 8.20522 4.88024 8.93022C4.84224 8.96772 4.84774 9.02322 4.85774 9.07022C4.93324 9.39422 5.07574 9.69722 5.23174 9.99022C5.74674 10.9187 6.63674 11.6362 7.65924 11.9602C8.25724 12.1442 8.89524 12.2152 9.51724 12.1287C10.3867 12.0195 11.202 11.647 11.8537 11.0612C12.7862 10.2392 13.3092 8.98672 13.2287 7.75722C13.1302 7.83372 13.0422 7.92072 12.9502 8.00372C12.3248 8.54179 11.6054 8.95979 10.8282 9.23672C9.81824 9.61172 8.74224 9.80572 7.66474 9.83622C7.75874 9.95922 7.87474 10.0622 7.98424 10.1717C8.30674 10.4857 8.62474 10.8037 8.95224 11.1127C8.82624 11.2612 8.67924 11.3907 8.54024 11.5267C8.40074 11.4132 8.28024 11.2812 8.15024 11.1567C7.66324 10.6847 7.18124 10.2067 6.69524 9.73272C6.62794 9.67149 6.56604 9.60457 6.51024 9.53272C6.72074 9.30672 6.96274 9.11172 7.17824 8.89072C7.54824 8.53322 7.90824 8.16522 8.28274 7.81222C8.42274 7.94822 8.56974 8.07822 8.69424 8.22872C8.36124 8.57372 8.00674 8.89822 7.66924 9.23872C8.03924 9.25722 8.40424 9.19372 8.77124 9.15872C9.03624 9.13072 9.29674 9.07072 9.55824 9.01622C10.9007 8.70622 12.2082 8.06872 13.1092 7.01822C12.7642 5.52622 11.4957 4.29822 9.98624 3.95122C8.98074 3.69572 7.88424 3.84122 6.96974 4.31872Z" fill="white"/>
</g>
<defs>
<clipPath id="clip0_2_3669">
<rect width="16" height="16" fill="white" transform="translate(0.970703 0.000244141)"/>
</clipPath>
</defs>
</svg>
