<svg width="17" height="16" viewBox="0 0 17 16" fill="none" xmlns="http://www.w3.org/2000/svg">
<g clip-path="url(#clip0_2_3673)">
<path d="M8.6875 16.0002C13.1058 16.0002 16.6875 12.4185 16.6875 8.00024C16.6875 3.58197 13.1058 0.000244141 8.6875 0.000244141C4.26922 0.000244141 0.6875 3.58197 0.6875 8.00024C0.6875 12.4185 4.26922 16.0002 8.6875 16.0002Z" fill="#3D58B0"/>
<path d="M8.6805 2.00024C5.3755 2.00024 2.6875 4.68824 2.6875 7.99324C2.6875 11.2982 5.3755 13.9852 8.6805 13.9852C11.9855 13.9852 14.6725 11.2977 14.6725 7.99324C14.673 4.68824 11.985 2.00024 8.6805 2.00024ZM8.6805 2.81624C9.36057 2.81539 10.0341 2.94872 10.6626 3.20859C11.291 3.46846 11.8621 3.84977 12.3429 4.33067C12.8238 4.81158 13.205 5.38263 13.4648 6.01112C13.7247 6.6396 13.8579 7.31317 13.857 7.99324C13.8579 8.67327 13.7245 9.34679 13.4647 9.97522C13.2049 10.6036 12.8236 11.1746 12.3427 11.6555C11.8619 12.1363 11.2909 12.5176 10.6625 12.7774C10.034 13.0373 9.36053 13.1706 8.6805 13.1697C8.00043 13.1707 7.32686 13.0374 6.69837 12.7776C6.06989 12.5178 5.49884 12.1365 5.01793 11.6557C4.53702 11.1748 4.15571 10.6038 3.89584 9.97533C3.63597 9.34687 3.50264 8.67331 3.5035 7.99324C3.50264 7.31315 3.63597 6.63957 3.89583 6.01108C4.1557 5.38259 4.537 4.81154 5.0179 4.33064C5.4988 3.84975 6.06985 3.46844 6.69834 3.20858C7.32683 2.94871 8.00041 2.81539 8.6805 2.81624Z" fill="white"/>
<path d="M6.45312 5.78003V10.205H10.9056V5.78003H6.45312ZM7.17812 6.50503H10.1801V9.48003H7.17863V6.50503H7.17812Z" fill="white"/>
</g>
<defs>
<clipPath id="clip0_2_3673">
<rect width="16" height="16" fill="white" transform="translate(0.6875 0.000244141)"/>
</clipPath>
</defs>
</svg>
