<svg width="16" height="16" viewBox="0 0 16 16" fill="none" xmlns="http://www.w3.org/2000/svg">
<g clip-path="url(#clip0_2_3675)">
<path d="M8 16.0002C12.4183 16.0002 16 12.4185 16 8.00024C16 3.58197 12.4183 0.000244141 8 0.000244141C3.58172 0.000244141 0 3.58197 0 8.00024C0 12.4185 3.58172 16.0002 8 16.0002Z" fill="#8E9495"/>
<path d="M3.8115 10.3557C3.69698 10.1087 3.61205 9.84906 3.5585 9.58216C3.52764 9.44161 3.50808 9.29882 3.5 9.15516H3.947C3.95721 9.27067 3.97391 9.38552 3.997 9.49916C4.0455 9.73366 4.1185 9.96666 4.2185 10.1792C4.4865 10.7472 4.8935 11.0712 5.4845 11.0712C5.9465 11.0712 6.3045 10.8862 6.5565 10.5602C6.7705 10.2847 6.8915 9.91916 6.8915 9.61216C6.8915 9.21866 6.7425 8.92866 6.445 8.68316C6.203 8.48316 5.9245 8.34316 5.3495 8.10416L5.248 8.06216C4.65 7.81466 4.374 7.67866 4.1055 7.46666C3.7345 7.17366 3.5375 6.81016 3.5375 6.34466C3.5375 5.78716 3.738 5.31466 4.097 4.98066C4.43744 4.66903 4.88298 4.49742 5.3445 4.50016C5.9845 4.50016 6.473 4.76666 6.798 5.23366V4.59866H8.242V10.9722H8.671V9.18366C8.67028 9.169 8.67028 9.15431 8.671 9.13966L9.118 9.15466V9.17716C9.12681 9.2856 9.14183 9.39344 9.163 9.50016C9.2095 9.73266 9.2815 9.96616 9.3815 10.1787C9.648 10.7462 10.0555 11.0707 10.646 11.0707C11.108 11.0707 11.466 10.8857 11.718 10.5597C11.932 10.2842 12.053 9.91866 12.053 9.61166C12.053 9.21816 11.904 8.92816 11.6065 8.68266C11.3645 8.48266 11.086 8.34266 10.511 8.10366L10.4095 8.06166C9.8115 7.81416 9.5355 7.67816 9.267 7.46616C8.896 7.17316 8.699 6.80966 8.699 6.34416C8.699 5.78666 8.8995 5.31416 9.2585 4.98016C9.59901 4.66871 10.0445 4.49728 10.506 4.50016C11.146 4.50016 11.6345 4.76666 11.9595 5.23366V4.62566H12.407V6.83666H11.9595C11.9595 6.37466 11.8535 5.90666 11.645 5.56116C11.399 5.15266 11.029 4.92966 10.506 4.92966C10.1598 4.92715 9.82533 5.05535 9.5695 5.28866C9.2995 5.54066 9.146 5.90116 9.146 6.34416C9.146 6.67416 9.279 6.91916 9.551 7.13416C9.776 7.31166 10.028 7.43566 10.5865 7.66716L10.688 7.70916C11.3045 7.96466 11.61 8.11916 11.898 8.35666C12.2915 8.68166 12.5 9.08866 12.5 9.61166C12.5 10.0097 12.349 10.4647 12.077 10.8167C11.7425 11.2482 11.254 11.5002 10.646 11.5002C10.2245 11.5002 9.863 11.3722 9.566 11.1352C9.38825 10.9914 9.23668 10.818 9.118 10.6227V11.4017H7.795V5.02816H7.245V6.83666H6.798C6.798 6.37466 6.692 5.90666 6.4835 5.56116C6.2375 5.15266 5.8675 4.92966 5.3445 4.92966C4.99827 4.92715 4.66383 5.05535 4.408 5.28866C4.138 5.54066 3.9845 5.90116 3.9845 6.34416C3.9845 6.67416 4.1175 6.91916 4.3895 7.13416C4.6145 7.31166 4.8665 7.43566 5.425 7.66716L5.5265 7.70916C6.143 7.96466 6.4485 8.11916 6.7365 8.35666C7.13 8.68166 7.3385 9.08866 7.3385 9.61166C7.3385 10.0097 7.1875 10.4647 6.9155 10.8167C6.581 11.2482 6.0925 11.5002 5.4845 11.5002C5.063 11.5002 4.7015 11.3722 4.4045 11.1352C4.22229 10.9879 4.06743 10.8096 3.947 10.6087V11.3747H3.5V9.15466H3.947V10.6087C3.8973 10.5268 3.85207 10.4424 3.8115 10.3557Z" fill="white"/>
</g>
<defs>
<clipPath id="clip0_2_3675">
<rect width="16" height="16" fill="white" transform="translate(0 0.000244141)"/>
</clipPath>
</defs>
</svg>
