<svg width="16" height="16" viewBox="0 0 16 16" fill="none" xmlns="http://www.w3.org/2000/svg">
<g clip-path="url(#clip0_2_3676)">
<path d="M8 16.0002C12.4183 16.0002 16 12.4185 16 8.00024C16 3.58197 12.4183 0.000244141 8 0.000244141C3.58172 0.000244141 0 3.58197 0 8.00024C0 12.4185 3.58172 16.0002 8 16.0002Z" fill="#2B77B3"/>
<path d="M13.5002 8.01962C13.4767 11.0736 11.0017 13.5226 7.96168 13.4996C4.91918 13.4771 2.47568 10.9911 2.50018 7.94362C2.52518 4.92512 5.00718 2.48012 8.02518 2.50012C11.0652 2.52062 13.5222 4.99812 13.5002 8.02012V8.01962ZM2.89818 8.00212C2.90368 10.8121 5.17718 13.0806 7.99268 13.0871C10.8112 13.0921 13.1107 10.8081 13.1012 7.99512C13.0907 5.06512 10.6637 2.85512 7.87018 2.90312C5.16918 2.94912 2.89268 5.24512 2.89818 8.00212ZM9.34068 5.61412L9.13718 6.26512C8.75818 6.20262 8.40718 6.12812 8.05168 6.09312C7.84068 6.07262 7.62168 6.12762 7.54018 6.36512C7.45618 6.60862 7.44618 6.86812 7.64768 7.05612C7.85468 7.24862 8.09768 7.40112 8.32468 7.57212C8.53318 7.72912 8.76268 7.86612 8.94468 8.04962C9.43818 8.54762 9.52568 9.15162 9.32318 9.80262C9.20318 10.1886 8.91718 10.4326 8.55118 10.5806C7.99118 10.8076 7.03768 10.6956 6.50218 10.3356L6.73718 9.65362C7.07818 9.74362 7.39018 9.85162 7.71118 9.90262C8.01718 9.95112 8.33768 9.90412 8.49468 9.59162C8.65268 9.27662 8.60268 8.94512 8.35518 8.69212C8.16418 8.49712 7.92468 8.34862 7.70118 8.18612C7.55218 8.07812 7.38568 7.99312 7.24068 7.88012C6.95954 7.66516 6.75936 7.36144 6.67267 7.01831C6.58598 6.67518 6.61788 6.31282 6.76318 5.99012C6.82723 5.83602 6.92747 5.69963 7.05541 5.59248C7.18335 5.48534 7.33523 5.41061 7.49818 5.37462C8.12568 5.22562 8.73418 5.29312 9.34068 5.61462V5.61412ZM5.30068 7.90912C5.30069 8.07641 5.23468 8.23695 5.117 8.35585C4.99932 8.47475 4.83947 8.54241 4.67218 8.54412C4.32218 8.54562 4.02318 8.24062 4.03118 7.89212C4.03777 7.72494 4.10882 7.5668 4.22944 7.45084C4.35005 7.33489 4.51087 7.27012 4.67818 7.27012C5.02818 7.27512 5.30318 7.55762 5.30118 7.90912H5.30068ZM11.3472 7.28762C11.6962 7.28712 11.9562 7.54462 11.9607 7.89562C11.9626 7.98043 11.9475 8.06476 11.9163 8.14363C11.885 8.2225 11.8383 8.2943 11.7788 8.35477C11.7193 8.41524 11.6483 8.46316 11.5699 8.49568C11.4916 8.52821 11.4075 8.54468 11.3227 8.54412C11.1553 8.54136 10.9957 8.47274 10.8785 8.35313C10.7613 8.23352 10.696 8.07256 10.6967 7.90512C10.6967 7.53912 10.9617 7.28762 11.3472 7.28762Z" fill="white"/>
</g>
<defs>
<clipPath id="clip0_2_3676">
<rect width="16" height="16" fill="white" transform="translate(0 0.000244141)"/>
</clipPath>
</defs>
</svg>
