<svg width="17" height="16" viewBox="0 0 17 16" fill="none" xmlns="http://www.w3.org/2000/svg">
<g clip-path="url(#clip0_2_3677)">
<path d="M8.11024 9.65638C9.08368 9.65638 9.87282 8.86725 9.87282 7.8938C9.87282 6.92036 9.08368 6.13123 8.11024 6.13123C7.13679 6.13123 6.34766 6.92036 6.34766 7.8938C6.34766 8.86725 7.13679 9.65638 8.11024 9.65638Z" fill="black"/>
<path d="M1.95057 10.6638C2.14213 10.5355 2.28837 10.3501 2.36849 10.1339C2.44861 9.91772 2.45853 9.68178 2.39685 9.45963C1.9856 7.95569 2.18335 6.35029 2.94726 4.9911C3.71118 3.63192 4.97977 2.62837 6.47829 2.1978C6.74951 2.11109 6.97618 1.92195 7.11005 1.67063C7.24391 1.41931 7.27439 1.12566 7.195 0.852205C7.11561 0.578749 6.93262 0.34708 6.68498 0.206518C6.43735 0.0659551 6.14463 0.0276011 5.86914 0.0996207C3.81944 0.691066 2.08495 2.06559 1.04079 3.92591C-0.00336573 5.78624 -0.273248 7.98282 0.289513 10.0406C0.335079 10.2077 0.419697 10.3616 0.536396 10.4896C0.653096 10.6176 0.798538 10.7161 0.960743 10.7769C1.12295 10.8377 1.29728 10.8591 1.46937 10.8393C1.64146 10.8195 1.80639 10.7591 1.95057 10.6631V10.6638Z" fill="black"/>
<path d="M8.74219 1.09376C8.74156 1.33607 8.8218 1.57167 8.9702 1.76323C9.11859 1.95479 9.32666 2.09136 9.56144 2.15131C11.0613 2.53097 12.353 3.48248 13.1603 4.80231C13.9676 6.12213 14.2263 7.70546 13.8812 9.21362C13.8268 9.45875 13.8586 9.71512 13.9712 9.93956C14.0837 10.164 14.2702 10.3428 14.4991 10.4459C14.7281 10.5489 14.9856 10.5699 15.2282 10.5054C15.4708 10.4408 15.6838 10.2946 15.8313 10.0914C15.918 9.97163 15.9799 9.8357 16.0132 9.69163C16.4794 7.63107 16.1242 5.46993 15.0229 3.66703C13.9216 1.86413 12.161 0.561433 10.1149 0.0355081C9.97536 -0.00101321 9.83 -0.00966188 9.68712 0.010057C9.54425 0.0297758 9.40666 0.0774751 9.28224 0.150425C9.15782 0.223375 9.049 0.320145 8.96202 0.435195C8.87504 0.550245 8.8116 0.681318 8.77533 0.820914C8.7531 0.910153 8.74197 1.0018 8.74219 1.09376Z" fill="black"/>
<path d="M13.8301 11.8145C13.618 11.6626 13.358 11.5931 13.0984 11.6191C12.8389 11.645 12.5978 11.7646 12.42 11.9555C11.8862 12.5211 11.2461 12.9761 10.5365 13.2943C9.82681 13.6126 9.0614 13.788 8.28395 13.8104C7.50651 13.8329 6.73225 13.702 6.0054 13.4252C5.27855 13.1484 4.61333 12.7312 4.04774 12.1973C4.01813 12.1691 3.98852 12.1409 3.95961 12.112C3.7855 11.9425 3.55832 11.8381 3.31628 11.8164C3.07424 11.7947 2.83211 11.857 2.63062 11.9928L2.58409 12.0239C2.46756 12.1009 2.36736 12.2002 2.28923 12.316C2.21109 12.4319 2.15655 12.562 2.12872 12.6989C2.1009 12.8358 2.10033 12.9768 2.12705 13.114C2.15377 13.2511 2.20726 13.3816 2.28445 13.4981C2.32319 13.5578 2.36835 13.6131 2.41912 13.6631C3.94942 15.1737 6.01714 16.0146 8.16742 16.0007C10.3177 15.9868 12.3744 15.1193 13.8851 13.589C13.9323 13.5411 13.9788 13.4924 14.0261 13.4431C14.22 13.2369 14.3241 12.9623 14.3156 12.6794C14.3072 12.3965 14.1868 12.1285 13.9809 11.9343C13.9474 11.9026 13.9119 11.8732 13.8745 11.8462L13.8301 11.8145Z" fill="black"/>
</g>
<defs>
<clipPath id="clip0_2_3677">
<rect width="16.2171" height="16" fill="white" transform="translate(0 0.000244141)"/>
</clipPath>
</defs>
</svg>
