<svg width="17" height="16" viewBox="0 0 17 16" fill="none" xmlns="http://www.w3.org/2000/svg">
<g clip-path="url(#clip0_2_3678)">
<path d="M8.2168 16.0002C12.6351 16.0002 16.2168 12.4185 16.2168 8.00024C16.2168 3.58197 12.6351 0.000244141 8.2168 0.000244141C3.79852 0.000244141 0.216797 3.58197 0.216797 8.00024C0.216797 12.4185 3.79852 16.0002 8.2168 16.0002Z" fill="#964B9C"/>
<path opacity="0.6" d="M10.4704 8.20312L8.23438 10.4386H12.7054L10.4704 8.20312Z" fill="white"/>
<path opacity="0.7" d="M5.98159 8.20546L8.21759 5.97046H3.74609L5.98209 8.20596L5.98159 8.20546Z" fill="white"/>
<path opacity="0.4" d="M8.23541 10.4395L10.4654 8.20951L8.22541 5.96851L3.75391 10.4395L8.22491 14.911L12.6964 10.4395H12.6954H8.23541Z" fill="white"/>
<path opacity="0.8" d="M8.24584 1.50024L3.77734 5.96874H8.21784L5.99484 8.19174L8.24584 10.4422L12.7168 5.97124L8.24584 1.50024Z" fill="white"/>
</g>
<defs>
<clipPath id="clip0_2_3678">
<rect width="16" height="16" fill="white" transform="translate(0.216797 0.000244141)"/>
</clipPath>
</defs>
</svg>
