<svg width="17" height="16" viewBox="0 0 17 16" fill="none" xmlns="http://www.w3.org/2000/svg">
<g clip-path="url(#clip0_2_3681)">
<path d="M8.20508 16.0002C12.6234 16.0002 16.2051 12.4185 16.2051 8.00024C16.2051 3.58197 12.6234 0.000244141 8.20508 0.000244141C3.7868 0.000244141 0.205078 3.58197 0.205078 8.00024C0.205078 12.4185 3.7868 16.0002 8.20508 16.0002Z" fill="#057BC1"/>
<path d="M8.20508 2.00024C4.89158 2.00024 2.20508 4.68674 2.20508 8.00024C2.20508 11.3137 4.89158 14.0002 8.20508 14.0002C11.5186 14.0002 14.2051 11.3137 14.2051 8.00024C14.2051 6.40895 13.5729 4.88282 12.4477 3.7576C11.3225 2.63239 9.79638 2.00024 8.20508 2.00024ZM10.2931 10.2637H10.0491V11.6297H9.22908V10.2637H7.98058V9.75624H9.24908V8.83924C8.59045 9.20626 7.8239 9.33048 7.08308 9.19024C6.67308 9.09274 6.26358 8.86874 6.04908 8.49774C5.84528 8.135 5.74399 7.72364 5.75608 7.30774V5.14174H6.58558V7.38574C6.60508 7.87324 6.91708 8.36124 7.39558 8.50774C8.02484 8.65223 8.68562 8.54721 9.23908 8.21474C9.23908 7.53174 9.22908 6.50774 9.23908 5.14174H10.0781V9.75674H10.2931V10.2637Z" fill="white"/>
</g>
<defs>
<clipPath id="clip0_2_3681">
<rect width="16" height="16" fill="white" transform="translate(0.205078 0.000244141)"/>
</clipPath>
</defs>
</svg>
