<svg width="17" height="16" viewBox="0 0 17 16" fill="none" xmlns="http://www.w3.org/2000/svg">
<g clip-path="url(#clip0_2_3684)">
<path d="M8.20508 16.0002C12.6234 16.0002 16.2051 12.4185 16.2051 8.00024C16.2051 3.58197 12.6234 0.000244141 8.20508 0.000244141C3.7868 0.000244141 0.205078 3.58197 0.205078 8.00024C0.205078 12.4185 3.7868 16.0002 8.20508 16.0002Z" fill="#6916FF"/>
<path d="M8.77747 3.21205C8.74967 3.192 8.73019 3.16245 8.72273 3.129C8.71527 3.09554 8.72033 3.06052 8.73697 3.03055C8.76025 3.01562 8.78732 3.00769 8.81497 3.00769C8.84262 3.00769 8.86969 3.01562 8.89297 3.03055C9.24534 3.17683 9.5643 3.39321 9.83047 3.66655C9.98197 3.80705 10.109 3.97105 10.2055 4.15155C10.3075 4.33555 10.391 4.52805 10.4555 4.72755C10.517 4.93405 10.549 5.14855 10.5495 5.36355C10.518 5.57605 10.487 6.60605 9.89297 7.09105C9.81736 7.13651 9.72761 7.15237 9.641 7.13556C9.5544 7.11876 9.47709 7.07049 9.42397 7.00005C9.38152 6.95027 9.35571 6.88846 9.35015 6.82327C9.34459 6.75809 9.35956 6.6928 9.39297 6.63655C9.64551 6.24559 9.785 5.79241 9.79603 5.32711C9.80707 4.86182 9.6892 4.40253 9.45547 4.00005C9.25547 3.71705 9.02847 3.45355 8.77747 3.21205ZM7.85547 12.5031C7.91797 12.5636 7.91797 12.6241 7.88697 12.6546C7.85597 12.6851 7.79297 12.7151 7.76197 12.6846C7.4096 12.5383 7.09064 12.3219 6.82447 12.0486C6.67343 11.9088 6.5467 11.7449 6.44947 11.5636C6.34766 11.3803 6.26394 11.1875 6.19947 10.9881C6.13768 10.7815 6.10602 10.5671 6.10547 10.3516C6.13697 10.1396 6.16797 9.10905 6.76197 8.62405C6.83753 8.57873 6.92717 8.56296 7.01366 8.57976C7.10015 8.59656 7.17737 8.64474 7.23047 8.71505C7.27597 8.76474 7.30121 8.82967 7.30121 8.89705C7.30121 8.96443 7.27597 9.02936 7.23047 9.07905C6.97803 9.46995 6.83859 9.92304 6.82756 10.3882C6.81653 10.8534 6.93434 11.3126 7.16797 11.7151C7.37047 11.9986 7.60097 12.2626 7.85547 12.5031Z" fill="white" fill-opacity="0.5"/>
<path d="M10.5527 10.0029C10.5074 9.42117 10.2774 8.86914 9.89622 8.42739C9.5103 8.03953 9.06777 7.71247 8.58372 7.45739C8.16149 7.22401 7.76368 6.94898 7.39621 6.63639C7.09401 6.35236 6.88675 5.98203 6.80272 5.57589C6.72809 5.15657 6.7814 4.7245 6.95572 4.33589C7.16456 3.90356 7.46401 3.52124 7.83371 3.21489C7.85451 3.19635 7.86879 3.17162 7.87446 3.14434C7.88013 3.11707 7.87689 3.08869 7.86522 3.06339C7.8563 3.04745 7.84388 3.03373 7.8289 3.02327C7.81392 3.01281 7.79677 3.00587 7.77873 3.00298C7.76069 3.0001 7.74223 3.00133 7.72473 3.0066C7.70724 3.01187 7.69116 3.02103 7.67772 3.03339C7.17971 3.25064 6.75603 3.60864 6.45871 4.06339C6.12621 4.54115 5.97046 5.11978 6.01822 5.69989C6.04316 5.993 6.11719 6.27983 6.23721 6.54839C6.3671 6.81422 6.53559 7.05938 6.73721 7.27589C7.13456 7.65556 7.58763 7.97222 8.08072 8.21489C8.50472 8.43489 8.90322 8.69939 9.26822 9.00289C9.5893 9.28464 9.79983 9.6713 9.86222 10.0939C9.95022 10.5334 9.89522 10.9889 9.70572 11.3969C9.49301 11.8264 9.18253 12.2001 8.79922 12.4879C8.78654 12.4952 8.77555 12.5051 8.76697 12.5169C8.75839 12.5287 8.75242 12.5423 8.74944 12.5566C8.74646 12.5709 8.74655 12.5857 8.7497 12.5999C8.75285 12.6142 8.75899 12.6277 8.76772 12.6394C8.78522 12.6714 8.81772 12.6944 8.85422 12.6999C8.89072 12.7054 8.92872 12.6949 8.95572 12.6699C9.4203 12.4017 9.82456 12.0405 10.1432 11.6089C10.4532 11.1299 10.5962 10.5669 10.5527 10.0029Z" fill="white"/>
</g>
<defs>
<clipPath id="clip0_2_3684">
<rect width="16" height="16" fill="white" transform="translate(0.205078 0.000244141)"/>
</clipPath>
</defs>
</svg>
