<svg width="22" height="16" viewBox="0 0 22 16" fill="none" xmlns="http://www.w3.org/2000/svg">
<g clip-path="url(#clip0_2_3686)">
<path d="M18.6065 5.93267L13.9525 16.0004H12.0933L16.9916 5.40232C17.5666 5.49468 18.1089 5.67345 18.6065 5.93267ZM10.4635 0.0183653L3.30376 15.5088C1.47732 14.6656 0.205078 12.8183 0.205078 10.6671C0.205078 7.72037 2.5857 5.33379 5.52348 5.33379C5.52348 2.51518 7.70447 0.215012 10.4635 0.0183653ZM16.1633 5.33379L11.2322 16.0004H9.21806L15.4095 2.60755C15.8862 3.40605 16.1633 4.33566 16.1633 5.33379ZM17.9957 15.6697L21.1539 8.84066C21.3625 9.41272 21.4817 10.0265 21.4817 10.6701C21.4817 12.9643 20.0307 14.9188 17.9957 15.6697ZM19.3901 6.43322C19.831 6.77289 20.2213 7.17512 20.5372 7.63694L16.6817 15.9736C16.5119 15.9915 16.3361 16.0004 16.1633 16.0004H14.9685L19.3901 6.43322ZM10.8627 0.000488281C11.6166 0.00346778 12.3316 0.164361 12.9812 0.453372L5.79462 16.0004H5.52348C4.85607 16.0004 4.21846 15.8723 3.6315 15.6458L10.8627 0.000488281ZM14.9893 1.99377L8.5149 16.0004H6.34284L13.4281 0.673855C14.0299 1.01054 14.5603 1.46044 14.9893 1.99377Z" fill="#0072FF"/>
</g>
<defs>
<clipPath id="clip0_2_3686">
<rect width="21.2766" height="16" fill="white" transform="translate(0.205078 0.000244141)"/>
</clipPath>
</defs>
</svg>
