<svg width="17" height="16" viewBox="0 0 17 16" fill="none" xmlns="http://www.w3.org/2000/svg">
<g clip-path="url(#clip0_2_3687)">
<path d="M8.48242 16.0002C12.9007 16.0002 16.4824 12.4185 16.4824 8.00024C16.4824 3.58197 12.9007 0.000244141 8.48242 0.000244141C4.06414 0.000244141 0.482422 3.58197 0.482422 8.00024C0.482422 12.4185 4.06414 16.0002 8.48242 16.0002Z" fill="#FEC60D"/>
<path d="M13.8168 5.0738L12.0978 4.0843C12.0388 4.0493 11.9843 4.0188 11.9258 3.9853C11.8688 3.9528 11.8133 3.9178 11.7553 3.8843C11.4108 3.6873 11.0653 3.4963 10.7248 3.2923L9.09183 2.3493C8.99683 2.2918 8.50583 2.0033 8.48483 2.0033C8.47633 2.0033 8.41433 2.0433 8.40083 2.0518L6.16983 3.3368C6.13733 3.3553 6.11483 3.3698 6.08183 3.3878C6.05347 3.40351 6.02546 3.41984 5.99783 3.4368L5.82683 3.5368C5.79773 3.55437 5.7684 3.57153 5.73883 3.5883L5.57083 3.6853C5.51183 3.7203 5.45633 3.7503 5.39833 3.7838L5.05283 3.9813C5.02283 3.9968 4.99783 4.0133 4.96883 4.0298L4.53683 4.2798C4.47683 4.3148 4.42133 4.3438 4.36283 4.3773L4.02133 4.5788C3.84983 4.6768 3.67783 4.7813 3.50383 4.8758C3.42733 4.9168 3.02583 5.1618 2.98633 5.1723V11.5293C3.01833 11.5323 3.45733 11.7938 3.50283 11.8208L4.19083 12.2188C4.24833 12.2538 4.30583 12.2853 4.36283 12.3183L4.70283 12.5143C4.73183 12.5293 4.75783 12.5463 4.78783 12.5628C4.82083 12.5808 4.84233 12.5963 4.87583 12.6128C4.96333 12.6578 5.04733 12.7113 5.13083 12.7618L5.56383 13.0113C5.59383 13.0278 5.61783 13.0423 5.64733 13.0598C5.81633 13.1618 5.99183 13.2533 6.16033 13.3548L6.76383 13.7048C7.16233 13.9403 7.56883 14.1598 7.96533 14.3978L8.43683 14.6708C8.51183 14.7213 8.53933 14.6643 8.65733 14.5998L9.69033 14.0038C9.74733 13.9708 9.80283 13.9388 9.86283 13.9053L10.0313 13.8088C10.0598 13.7933 10.0863 13.7768 10.1148 13.7593L11.0623 13.2108C11.3453 13.0413 11.6373 12.8878 11.9203 12.7178L13.8068 11.6248C13.8343 11.6083 13.8618 11.5918 13.8908 11.5758C13.9208 11.5598 13.9493 11.5373 13.9833 11.5298V5.1723C13.9298 5.1363 13.8743 5.1088 13.8168 5.0738ZM10.4218 11.2958H8.81433V11.7168C8.81433 11.7218 8.81233 11.7233 8.80733 11.7233H8.03233V11.2958H6.54783V10.1058C6.54783 10.0933 6.56283 10.0828 6.57033 10.0758L6.72083 9.9133C6.72527 9.90923 6.72944 9.90489 6.73333 9.90029C6.7368 9.8955 6.74064 9.89098 6.74483 9.8868L6.83233 9.7938L6.83333 9.79229L6.85933 9.7658L6.87083 9.7518L6.89883 9.7223L6.90183 9.7188L6.99533 9.6178C7.01533 9.5973 7.03533 9.5778 7.05433 9.5553L7.05533 9.5543L7.05833 9.5503L7.12133 9.48329C7.13033 9.4733 7.13733 9.4678 7.14583 9.4568L7.22183 9.37579L7.23433 9.3633C7.23846 9.35888 7.2423 9.3542 7.24583 9.3493L7.37333 9.2133L7.37433 9.2123L7.37733 9.2088L7.39683 9.1888C7.42183 9.1568 7.46683 9.1168 7.49333 9.0848L7.49633 9.08079C7.50483 9.0708 7.51433 9.0638 7.52233 9.0543L7.57183 9.00079C7.60683 8.9658 7.63683 8.92779 7.67183 8.8928L7.78433 8.77179L7.79683 8.75929L7.84583 8.7053C7.85533 8.6958 7.86433 8.6888 7.87183 8.6788C7.87933 8.6688 7.88883 8.6618 7.89733 8.65179L7.94683 8.59829C7.95183 8.59329 7.95583 8.5898 7.96033 8.58429L7.99783 8.5438C8.00533 8.5338 8.01483 8.5268 8.02333 8.5168C8.04533 8.4923 8.10833 8.4278 8.12183 8.4098C8.12983 8.3998 8.13933 8.3938 8.14633 8.3838C8.12655 8.35956 8.10534 8.33652 8.08283 8.3148L8.03383 8.2608L8.02083 8.2483C8.01583 8.2423 8.01433 8.2393 8.00833 8.23329C7.96983 8.19429 7.93433 8.1528 7.89533 8.1133L7.83283 8.04579C7.8292 8.04098 7.82519 8.03646 7.82083 8.03229L7.24583 7.4153C7.24198 7.41003 7.23781 7.40502 7.23333 7.4003L7.14833 7.3088L7.14733 7.3078L6.95883 7.10479C6.95483 7.0998 6.95083 7.0968 6.94633 7.0923L6.89633 7.0373C6.86233 7.0023 6.82983 6.9643 6.79533 6.9298L6.78433 6.9178L6.78333 6.9168L6.74633 6.8763C6.72933 6.8578 6.71133 6.8408 6.69483 6.8223C6.68933 6.8163 6.68833 6.8133 6.68233 6.8073C6.64833 6.7728 6.61733 6.7353 6.58233 6.7013C6.57833 6.6963 6.57433 6.6933 6.57033 6.6888C6.56583 6.6838 6.54783 6.6663 6.54783 6.6608V5.4663H8.03183V4.9703C8.29283 4.9703 8.55083 4.9753 8.81183 4.9753V5.4503C8.81183 5.4558 8.81333 5.4578 8.81883 5.4578H10.4218V6.6633H8.21033C8.22333 6.6833 8.24333 6.6998 8.25883 6.7178L8.38183 6.8528C8.38933 6.8628 8.39733 6.8698 8.40583 6.8798C8.42683 6.9048 8.45033 6.9263 8.47083 6.9513L8.64983 7.1478C8.68483 7.1818 8.71483 7.2203 8.74833 7.2553L9.20483 7.7568L9.20783 7.7608L9.37133 7.9408L9.38383 7.9528C9.40583 7.9748 9.42383 7.99979 9.44583 8.02179L9.73983 8.3433C9.75183 8.3563 9.76483 8.3683 9.77483 8.3833C9.77033 8.3903 9.76683 8.39229 9.76133 8.39829C9.75778 8.40303 9.75394 8.40754 9.74983 8.4118L9.68833 8.47829C9.68479 8.48304 9.68095 8.48755 9.67683 8.4918L9.52933 8.6533C9.51933 8.6628 9.51433 8.6708 9.50433 8.6803C9.48433 8.7003 9.45433 8.7378 9.43083 8.7603L9.32783 8.8748C9.30733 8.8993 9.25233 8.95379 9.23583 8.97479L9.08933 9.13479C9.05783 9.17329 9.02233 9.2063 8.99033 9.2443L8.93033 9.3093C8.90033 9.3398 8.87433 9.37229 8.84533 9.4033C8.84033 9.4083 8.83633 9.4118 8.83183 9.41729C8.79783 9.45579 8.76083 9.49229 8.72733 9.53229L8.72233 9.5383L8.59383 9.67779L8.59083 9.68129L8.58633 9.6863L8.58533 9.6878L8.52633 9.75279C8.52216 9.75682 8.51832 9.76117 8.51483 9.7658C8.51096 9.7704 8.50678 9.77474 8.50233 9.77879C8.47683 9.80379 8.45483 9.83379 8.42933 9.85879C8.42521 9.86304 8.42137 9.86755 8.41783 9.87229L8.36883 9.92629C8.36483 9.93129 8.36083 9.9343 8.35633 9.9388L8.21033 10.0998H10.3603C10.3808 10.0998 10.4218 10.0948 10.4218 10.1063V11.2963V11.2958Z" fill="white"/>
</g>
<defs>
<clipPath id="clip0_2_3687">
<rect width="16" height="16" fill="white" transform="translate(0.482422 0.000244141)"/>
</clipPath>
</defs>
</svg>
