<svg width="17" height="16" viewBox="0 0 17 16" fill="none" xmlns="http://www.w3.org/2000/svg">
<g clip-path="url(#clip0_2_3688)">
<path d="M8.48242 16.0002C12.9007 16.0002 16.4824 12.4185 16.4824 8.00024C16.4824 3.58197 12.9007 0.000244141 8.48242 0.000244141C4.06414 0.000244141 0.482422 3.58197 0.482422 8.00024C0.482422 12.4185 4.06414 16.0002 8.48242 16.0002Z" fill="#D21E2B"/>
<path d="M8.55242 2.92774V1.50024L13.8654 4.56624L12.6369 5.28024L8.55242 2.92774ZM12.7184 10.1362V5.43224L13.9589 4.71824V10.8502L12.7189 10.1362H12.7184ZM8.55242 12.6407L12.6369 10.2887L13.8654 11.0022L8.55242 14.0682V12.6407ZM3.06442 11.0022L4.30442 10.2887L8.37692 12.6407V14.0682L3.06442 11.0022ZM2.98242 4.71824L4.21092 5.43224V10.1362L2.98242 10.8502V4.71824ZM3.06442 4.56624L8.37692 1.50024V2.92774L4.30492 5.28024L3.06442 4.56624ZM8.47642 3.06224L4.38092 5.41524V10.1427L8.47642 12.5067L12.5604 10.1427V5.41524L8.47642 3.06274V3.06224ZM11.7649 7.28724L11.5894 7.59124L10.4194 6.93624L8.92142 7.77824L10.4189 8.62074L11.5889 7.96574L11.7649 8.26974L10.7819 8.81974L11.7649 9.36974L11.5894 9.67424L10.6064 9.12424V10.2242H10.2434V8.92524L8.74592 8.08274V9.76774L9.90442 10.4112L9.72892 10.7097L8.74592 10.1597V11.2597H8.38242V10.1597L7.39942 10.7097L7.21242 10.4057L8.38242 9.76174V8.08274L6.88442 8.92524V10.2242H6.50992V9.12424L5.53892 9.67424L5.35142 9.36974L6.33442 8.81974L5.35142 8.26974L5.53892 7.96574L6.69742 8.62074L8.20692 7.77824L6.69692 6.93574L5.53892 7.59074L5.35142 7.28674L6.33442 6.73674L5.35142 6.18674L5.53892 5.88274L6.50992 6.43274V5.32674H6.88492V6.62574L8.38242 7.46824V5.78924L7.22392 5.14524L7.39942 4.84124L8.38242 5.39124V4.29124H8.74542V5.39124L9.72842 4.84124L9.90342 5.14524L8.74542 5.78924V7.47424L10.2429 6.63174V5.32674H10.6059V6.42674L11.5889 5.87674L11.7639 6.18124L10.7814 6.73124L11.7644 7.28674L11.7649 7.28724Z" fill="white"/>
</g>
<defs>
<clipPath id="clip0_2_3688">
<rect width="16" height="16" fill="white" transform="translate(0.482422 0.000244141)"/>
</clipPath>
</defs>
</svg>
