<svg width="17" height="16" viewBox="0 0 17 16" fill="none" xmlns="http://www.w3.org/2000/svg">
<g clip-path="url(#clip0_2_3689)">
<path d="M8.48242 16.0002C12.9007 16.0002 16.4824 12.4185 16.4824 8.00024C16.4824 3.58197 12.9007 0.000244141 8.48242 0.000244141C4.06414 0.000244141 0.482422 3.58197 0.482422 8.00024C0.482422 12.4185 4.06414 16.0002 8.48242 16.0002Z" fill="#FDA616"/>
<path d="M6.44264 11.0002C6.50114 11.1822 7.22514 11.9322 7.97864 11.9322C9.09564 11.9322 9.74814 11.2582 9.74814 10.2832C9.74814 9.38024 9.29614 8.86424 8.15414 8.36224C6.77364 7.80324 5.92014 6.98574 5.92014 5.62374C5.92014 4.11874 7.01214 3.00024 8.65614 3.00024C9.52214 3.00024 10.3996 3.54524 10.6906 3.90924L9.99214 4.63674C9.71614 4.46474 9.38464 4.03224 8.61864 4.03224C7.46414 4.03224 7.02464 4.82074 7.02464 5.48024C7.02464 6.38374 7.53964 6.82824 8.70614 7.34424C10.1371 7.97524 10.8651 8.76374 10.8651 10.1827C10.8651 11.6742 9.89314 13.0002 7.89764 13.0002C7.08164 13.0002 6.21014 12.4552 5.68614 11.7882L6.44264 11.0002ZM7.37364 5.84874C7.19914 5.48524 7.31564 5.12174 7.31564 5.12174C11.7376 4.39424 10.9231 8.69674 10.9231 8.69674C10.5741 8.03074 10.2251 7.90924 10.2251 7.90924C10.2831 5.42424 7.37364 5.84874 7.37364 5.84874ZM9.35214 9.78824C9.52714 10.2127 9.32514 10.6542 9.32514 10.6542C4.29014 11.3032 5.65014 6.69924 5.64864 6.69924C5.91564 7.40624 6.24764 7.57174 6.24764 7.57174C6.15264 10.4547 9.35214 9.78824 9.35214 9.78824Z" fill="white"/>
</g>
<defs>
<clipPath id="clip0_2_3689">
<rect width="16" height="16" fill="white" transform="translate(0.482422 0.000244141)"/>
</clipPath>
</defs>
</svg>
