<svg width="17" height="16" viewBox="0 0 17 16" fill="none" xmlns="http://www.w3.org/2000/svg">
<g clip-path="url(#clip0_2_3693)">
<path d="M8.48242 16.0002C12.9007 16.0002 16.4824 12.4185 16.4824 8.00024C16.4824 3.58197 12.9007 0.000244141 8.48242 0.000244141C4.06414 0.000244141 0.482422 3.58197 0.482422 8.00024C0.482422 12.4185 4.06414 16.0002 8.48242 16.0002Z" fill="#01AEF0"/>
<path fill-rule="evenodd" clip-rule="evenodd" d="M11.017 9.44528C11.0105 10.4823 10.4115 11.3653 9.45601 11.7278C9.23201 11.8128 8.99901 11.8753 8.76701 11.9333C8.62851 11.9683 8.55301 12.0368 8.54201 12.1883C8.52801 12.3793 8.50851 12.5698 8.48201 12.7583C8.45001 12.9813 8.37351 13.0323 8.16851 12.9833C7.81551 12.8993 7.77751 12.8423 7.82451 12.4718C7.82851 12.4403 7.83301 12.4088 7.83651 12.3768C7.87151 12.0733 7.82851 12.0298 7.53801 12.0443C7.40751 12.0508 7.35301 12.1153 7.34051 12.2433C7.32351 12.4273 7.30551 12.6118 7.27551 12.7933C7.24551 12.9793 7.16751 13.0253 6.98851 12.9863C6.60651 12.9038 6.57851 12.8613 6.62851 12.4573C6.69151 11.9558 6.69001 11.9613 6.22701 11.8218C6.02201 11.7598 5.82301 11.6738 5.62251 11.5943C5.50051 11.5463 5.46051 11.4553 5.49351 11.3198C5.53551 11.1473 5.56451 10.9708 5.60051 10.7963C5.66251 10.4988 5.80651 10.4088 6.08151 10.5168C6.56851 10.7083 7.06851 10.8263 7.58901 10.8388C8.05851 10.8503 8.52301 10.8193 8.95151 10.5888C9.23451 10.4363 9.44251 10.2128 9.54701 9.89228C9.70201 9.41628 9.56301 9.03128 9.11701 8.83978C8.74951 8.68228 8.35501 8.59478 7.98451 8.44378C7.65551 8.30978 7.31351 8.17578 7.02951 7.96528C6.39101 7.49328 6.27951 6.79528 6.41951 6.04978C6.57851 5.20928 7.09301 4.66428 7.85651 4.37478C8.06001 4.29828 8.15201 4.19128 8.15551 3.96278C8.15851 3.71528 8.19801 3.46778 8.22801 3.22128C8.25101 3.03178 8.32501 2.97878 8.50201 3.00778C8.87801 3.06928 8.92301 3.12878 8.88601 3.51928C8.87151 3.67178 8.85901 3.82428 8.84101 3.97578C8.82601 4.10328 8.86651 4.16178 9.00001 4.16578C9.30451 4.17478 9.31751 4.16928 9.35351 3.85428C9.37651 3.65178 9.39351 3.44878 9.42101 3.24678C9.45101 3.02278 9.52351 2.97178 9.73001 3.01378C10.0775 3.08528 10.116 3.13828 10.082 3.50028C10.067 3.65878 10.0595 3.81878 10.032 3.97528C10.0005 4.15528 10.0555 4.23878 10.2345 4.28028C10.575 4.35928 10.912 4.45928 11.2465 4.56328C11.498 4.64128 11.508 4.66978 11.4595 4.93128C11.431 5.08778 11.4025 5.24478 11.3655 5.39928C11.2965 5.69028 11.1515 5.77678 10.8745 5.68378C10.4005 5.52378 9.92451 5.37928 9.42201 5.35778C8.98201 5.33928 8.54801 5.34578 8.16601 5.62228C7.62801 6.01128 7.62501 6.80228 8.19701 7.13528C8.56101 7.34728 8.98151 7.45528 9.37601 7.61128C9.61651 7.70628 9.86351 7.78828 10.0945 7.90328C10.7135 8.21228 11.024 8.72878 11.017 9.44578" fill="white"/>
</g>
<defs>
<clipPath id="clip0_2_3693">
<rect width="16" height="16" fill="white" transform="translate(0.482422 0.000244141)"/>
</clipPath>
</defs>
</svg>
