<svg width="17" height="16" viewBox="0 0 17 16" fill="none" xmlns="http://www.w3.org/2000/svg">
<g clip-path="url(#clip0_2_3694)">
<path d="M8.48242 16.0002C12.9007 16.0002 16.4824 12.4185 16.4824 8.00024C16.4824 3.58197 12.9007 0.000244141 8.48242 0.000244141C4.06414 0.000244141 0.482422 3.58197 0.482422 8.00024C0.482422 12.4185 4.06414 16.0002 8.48242 16.0002Z" fill="#5B6DEE"/>
<path d="M7.13242 7.5103C6.85347 7.50887 6.57498 7.53297 6.30042 7.5823C6.52642 5.4923 8.26842 3.9093 10.3424 3.9093C11.6124 3.9093 12.4824 4.5313 12.4824 5.8183C12.4824 7.1058 11.4379 7.7278 9.91442 7.7278C8.78942 7.7278 8.25742 7.5108 7.13242 7.5108V7.5103ZM7.05042 8.2728C5.52692 8.2728 4.48242 8.8953 4.48242 10.1823C4.48242 11.4693 5.35242 12.0913 6.62242 12.0913C8.69642 12.0913 10.4384 10.5088 10.6644 8.4183C10.3899 8.46763 10.1114 8.49173 9.83242 8.4903C8.70742 8.4903 8.17492 8.2728 7.05042 8.2728Z" fill="white"/>
</g>
<defs>
<clipPath id="clip0_2_3694">
<rect width="16" height="16" fill="white" transform="translate(0.482422 0.000244141)"/>
</clipPath>
</defs>
</svg>
