<svg width="17" height="16" viewBox="0 0 17 16" fill="none" xmlns="http://www.w3.org/2000/svg">
<g clip-path="url(#clip0_2_3696)">
<path d="M8.54432 0.000244141C4.1253 0.000244141 0.542969 3.58258 0.542969 8.0016C0.542969 12.4206 4.1253 16.003 8.54432 16.003C12.9633 16.003 16.5457 12.4206 16.5457 8.0016C16.5457 3.58258 12.9633 0.000244141 8.54432 0.000244141ZM6.54331 10.7662L6.46749 10.842C6.31044 10.9991 6.14256 11.148 5.96927 11.2861L5.7689 11.4431C5.75536 11.454 5.73911 11.4594 5.72286 11.4594C5.70932 11.4594 5.69579 11.4567 5.68496 11.4485C5.65788 11.4323 5.64434 11.4025 5.65246 11.37L5.73099 11.0153C5.81763 10.6308 5.79868 10.2274 5.67683 9.85098L5.63351 9.72101C5.58477 9.56938 5.5252 9.42045 5.46292 9.27423L4.53958 7.09451L4.4394 6.79666C4.40961 6.70459 4.38795 6.60982 4.37712 6.51234L4.36087 6.36342C4.31484 5.94372 4.45835 5.53214 4.7562 5.23429L4.83202 5.15848C4.98907 5.00143 5.15695 4.8525 5.33024 4.71441L5.53061 4.55736C5.55498 4.53841 5.58748 4.5357 5.61455 4.55194C5.64163 4.56819 5.65517 4.59798 5.64705 4.63047L5.56852 4.98518C5.48188 5.36968 5.50083 5.77313 5.62268 6.14951L5.666 6.27948C5.71474 6.43111 5.77431 6.58004 5.83659 6.72625L6.76263 8.90598L6.86282 9.20383C6.8926 9.29589 6.91427 9.39067 6.9251 9.48814L6.94134 9.63707C6.98467 10.0541 6.84116 10.4683 6.54331 10.7662ZM9.66803 11.481L9.57055 11.5785C9.37289 11.7762 9.16169 11.9657 8.94236 12.1363L8.68242 12.3421C8.66888 12.3529 8.64992 12.3583 8.63368 12.3583C8.62014 12.3583 8.60389 12.3529 8.59035 12.3448C8.56057 12.3258 8.54703 12.2934 8.55515 12.2609L8.65805 11.8033C8.76636 11.3159 8.74199 10.8068 8.58765 10.333L8.53349 10.1678C8.47121 9.97554 8.3981 9.78599 8.31687 9.60187L7.14984 6.85352L7.02528 6.47985C6.98737 6.36613 6.9603 6.24428 6.94676 6.12514L6.9251 5.9356C6.86553 5.4103 7.04695 4.89583 7.4179 4.51945L7.51538 4.42197C7.71305 4.22431 7.92425 4.03477 8.14358 3.86418L8.40352 3.65839C8.4306 3.63673 8.4658 3.63402 8.49558 3.65298C8.52537 3.67193 8.53891 3.70442 8.53078 3.73692L8.42789 4.19452C8.31958 4.68192 8.34395 5.19097 8.49829 5.66482L8.55244 5.83C8.61472 6.01954 8.68783 6.21179 8.76906 6.39591L9.9361 9.14697L10.0607 9.52064C10.0986 9.63436 10.1256 9.75621 10.1392 9.87535L10.1608 10.0649C10.2204 10.5902 10.039 11.1074 9.66803 11.481ZM12.3324 10.7662L12.2566 10.842C12.0996 10.9991 11.9317 11.148 11.7584 11.2861L11.558 11.4431C11.5445 11.454 11.5282 11.4594 11.512 11.4594C11.4985 11.4594 11.4849 11.4567 11.4741 11.4485C11.447 11.4323 11.4335 11.4025 11.4416 11.37L11.5201 11.0153C11.6068 10.6308 11.5878 10.2274 11.466 9.85098L11.4226 9.72101C11.3739 9.56938 11.3143 9.42045 11.2521 9.27423L10.326 7.09451L10.2258 6.79666C10.196 6.70459 10.1744 6.60982 10.1635 6.51234L10.1473 6.36342C10.1013 5.94372 10.2448 5.53214 10.5426 5.23429L10.6184 5.15848C10.7755 5.00143 10.9434 4.8525 11.1167 4.71441L11.317 4.55736C11.3414 4.53841 11.3739 4.5357 11.401 4.55194C11.4281 4.56819 11.4416 4.59798 11.4335 4.63047L11.3549 4.98518C11.2683 5.36968 11.2873 5.77313 11.4091 6.14951L11.4524 6.27948C11.5012 6.43111 11.5607 6.58004 11.623 6.72625L12.5491 8.90598L12.6492 9.20383C12.679 9.29589 12.7007 9.39067 12.7115 9.48814L12.7278 9.63707C12.7738 10.0541 12.6303 10.4683 12.3324 10.7662Z" fill="#171FC9"/>
</g>
<defs>
<clipPath id="clip0_2_3696">
<rect width="16" height="16" fill="white" transform="translate(0.542969 0.000244141)"/>
</clipPath>
</defs>
</svg>
