<svg width="20" height="16" viewBox="0 0 20 16" fill="none" xmlns="http://www.w3.org/2000/svg">
<g clip-path="url(#clip0_2_3697)">
<path d="M16.5913 2.43129L14.4485 3.52305L4.10081 8.79364C4.06582 8.52677 4.04821 8.25791 4.0481 7.98875C4.04951 6.91482 4.33147 5.8599 4.86604 4.92847C5.4006 3.99704 6.16923 3.22143 7.09579 2.67846C8.02234 2.13549 9.07467 1.844 10.1485 1.83287C11.2224 1.82174 12.2806 2.09136 13.2182 2.61501L14.4447 1.99007L14.6277 1.8967C13.5041 1.08118 12.1769 0.592203 10.7928 0.483804C9.40866 0.375405 8.02152 0.651808 6.78468 1.28247C5.54783 1.91312 4.50943 2.87348 3.78425 4.05738C3.05907 5.24129 2.67534 6.60265 2.67549 7.99101C2.67549 8.18276 2.68277 8.37375 2.69732 8.564C2.71771 8.83341 2.65796 9.10283 2.52559 9.33836C2.39322 9.57389 2.19415 9.76501 1.95342 9.88767L1.30664 10.2175V11.7557L3.21083 10.7852L3.82749 10.4704L4.43511 10.161L15.3437 4.60277L16.5695 3.97858L19.1032 2.68729V1.14978L16.5913 2.43129Z" fill="black"/>
<path d="M19.1032 4.22644L5.05478 11.3794L3.82899 12.0051L1.30664 13.2903V14.8271L3.81168 13.5509L5.95455 12.4591L16.3128 7.18098C16.3478 7.44962 16.3654 7.72024 16.3655 7.99115C16.3648 9.06632 16.0829 10.1226 15.5478 11.0552C15.0128 11.9877 14.2431 12.7641 13.3152 13.3073C12.3873 13.8504 11.3335 14.1414 10.2583 14.1514C9.18321 14.1614 8.12417 13.89 7.18636 13.3641L7.11106 13.404L5.78137 14.0817C6.9047 14.8972 8.23163 15.3864 9.61553 15.495C10.9994 15.6037 12.3864 15.3276 13.6233 14.6974C14.8601 14.0672 15.8987 13.1073 16.6242 11.9238C17.3497 10.7403 17.7339 9.37931 17.7343 7.99115C17.7343 7.79764 17.7268 7.60414 17.7125 7.41289C17.6921 7.14357 17.7518 6.87425 17.884 6.63875C18.0162 6.40324 18.2151 6.21206 18.4556 6.08922L19.1032 5.75943V4.22644Z" fill="black"/>
</g>
<defs>
<clipPath id="clip0_2_3697">
<rect width="18.8235" height="16" fill="white" transform="translate(0.542969 0.000244141)"/>
</clipPath>
</defs>
</svg>
