<svg width="17" height="16" viewBox="0 0 17 16" fill="none" xmlns="http://www.w3.org/2000/svg">
<g clip-path="url(#clip0_2_3699)">
<path d="M2.64401 10.8812C2.55748 10.8812 2.47289 10.9068 2.40094 10.9549C2.32899 11.003 2.27291 11.0713 2.2398 11.1513C2.20668 11.2312 2.19802 11.3192 2.2149 11.404C2.23178 11.4889 2.27345 11.5669 2.33464 11.6281C2.39583 11.6892 2.47378 11.7309 2.55866 11.7478C2.64353 11.7647 2.7315 11.756 2.81144 11.7229C2.89139 11.6898 2.95972 11.6337 3.0078 11.5618C3.05587 11.4898 3.08153 11.4052 3.08153 11.3187C3.08153 11.2411 3.06033 11.1705 3.02505 11.1C2.98594 11.0336 2.93025 10.9786 2.86345 10.9402C2.79665 10.9019 2.72103 10.8816 2.64401 10.8812V10.8812ZM8.82529 1.3622C8.82529 1.27567 8.79963 1.19108 8.75156 1.11913C8.70348 1.04718 8.63515 0.991102 8.5552 0.957987C8.47526 0.924872 8.38729 0.916208 8.30242 0.93309C8.21754 0.949971 8.13959 0.991641 8.0784 1.05283C8.01721 1.11402 7.97554 1.19198 7.95866 1.27685C7.94178 1.36172 7.95044 1.44969 7.98356 1.52963C8.01667 1.60958 8.07275 1.67791 8.1447 1.72599C8.21665 1.77406 8.30124 1.79972 8.38777 1.79972C8.50361 1.79907 8.61451 1.75277 8.69642 1.67086C8.77834 1.58895 8.82464 1.47804 8.82529 1.3622ZM14.1603 5.15852C14.2468 5.15852 14.3314 5.13286 14.4033 5.08479C14.4753 5.03671 14.5314 4.96838 14.5645 4.88843C14.5976 4.80849 14.6062 4.72052 14.5894 4.63565C14.5725 4.55078 14.5308 4.47282 14.4696 4.41163C14.4084 4.35044 14.3305 4.30877 14.2456 4.29189C14.1607 4.27501 14.0728 4.28367 13.9928 4.31679C13.9129 4.3499 13.8445 4.40598 13.7965 4.47793C13.7484 4.54988 13.7227 4.63447 13.7227 4.721C13.723 4.79525 13.7425 4.86816 13.7792 4.93268C13.8168 5.00091 13.8719 5.05783 13.9389 5.09754C14.006 5.13725 14.0824 5.15831 14.1603 5.15852ZM2.84825 4.31876C2.63657 4.19876 2.37545 4.2694 2.25553 4.48108C2.13561 4.69276 2.20617 4.95388 2.41785 5.0738C2.62953 5.19372 2.89065 5.12316 3.01057 4.91148C3.13057 4.70684 3.05993 4.43868 2.84825 4.31876ZM14.3363 10.9658C14.2727 10.9235 14.1951 10.9093 14.1175 10.9023C14.0596 10.9015 14.0021 10.9122 13.9483 10.9339C13.8945 10.9555 13.8456 10.9876 13.8043 11.0283C13.7631 11.069 13.7303 11.1175 13.708 11.171C13.6856 11.2244 13.6741 11.2818 13.6741 11.3398C13.6741 11.3977 13.6856 11.4551 13.708 11.5086C13.7303 11.562 13.7631 11.6105 13.8043 11.6512C13.8456 11.6919 13.8945 11.724 13.9483 11.7457C14.0021 11.7673 14.0596 11.778 14.1175 11.7772C14.2727 11.7772 14.4135 11.6926 14.4986 11.5585C14.6186 11.3539 14.5479 11.0857 14.3363 10.9658ZM7.95025 14.6138C7.92905 14.8114 8.04905 15.0019 8.23249 15.0724C8.27481 15.0865 8.32425 15.1007 8.36657 15.1007C8.47357 15.1005 8.57717 15.0631 8.65958 14.9948C8.74199 14.9266 8.79806 14.8318 8.81817 14.7267C8.83387 14.6131 8.80407 14.4978 8.73525 14.4061C8.66642 14.3143 8.56415 14.2534 8.45067 14.2367C8.33719 14.2199 8.22169 14.2487 8.12929 14.3166C8.0369 14.3846 7.97508 14.4863 7.95729 14.5996C7.95347 14.6034 7.951 14.6084 7.95025 14.6137" fill="#2683FF"/>
<path d="M14.7663 10.1613C14.7143 10.1312 14.6601 10.1053 14.604 10.0837V5.99808C14.6675 5.97688 14.731 5.9416 14.7946 5.91344C15.4506 5.54648 15.6906 4.71384 15.3238 4.05744C14.957 3.40104 14.1242 3.16144 13.4678 3.52824C13.4113 3.55648 13.3619 3.59176 13.3126 3.62704L9.71384 1.54544C9.72088 1.48192 9.72792 1.42544 9.72792 1.362C9.72784 0.607044 9.11424 0.000244141 8.36624 0.000244141C7.61824 0.000244141 6.99024 0.621204 6.99024 1.36912C6.99024 1.43264 6.99728 1.48912 7.00432 1.55256L3.43384 3.62008C3.2918 3.50881 3.12911 3.42682 2.95517 3.37886C2.78123 3.3309 2.5995 3.31793 2.42051 3.34069C2.24152 3.36346 2.06883 3.4215 1.91243 3.51147C1.75603 3.60144 1.61903 3.72154 1.50937 3.86482C1.39971 4.0081 1.31956 4.17172 1.27357 4.34619C1.22758 4.52066 1.21666 4.70252 1.24145 4.88124C1.26623 5.05996 1.32622 5.23199 1.41795 5.38736C1.50968 5.54274 1.63133 5.67837 1.77584 5.7864C1.8252 5.82168 1.87464 5.85696 1.93104 5.89224C1.98867 5.92752 2.05024 5.95593 2.11448 5.97688V10.0554C1.41584 10.3377 1.07704 11.1282 1.35928 11.8266C1.64152 12.5249 2.43184 12.8638 3.13048 12.5816C3.194 12.5604 3.25048 12.5251 3.30688 12.497C3.36336 12.4617 3.41976 12.4264 3.47624 12.3841L7.01144 14.4234C6.89144 15.1642 7.39952 15.8628 8.14048 15.9828C8.88144 16.1028 9.58 15.5947 9.69992 14.8538C9.714 14.7762 9.714 14.7056 9.714 14.6279C9.71307 14.5618 9.70837 14.4959 9.69992 14.4303L13.214 12.4052C13.2705 12.4475 13.3269 12.4898 13.3904 12.5252C14.0464 12.8922 14.8793 12.6593 15.2464 12.003C15.599 11.3467 15.3873 10.5423 14.7663 10.1613ZM15.0133 11.8689C14.724 12.3628 14.0818 12.5322 13.5879 12.2429C13.1928 12.01 12.9952 11.5514 13.101 11.1069L11.4498 10.1402C11.195 10.3986 10.8695 10.5759 10.5142 10.6499C10.1589 10.7239 9.78969 10.6913 9.45288 10.5562C9.20592 10.6338 8.67688 10.6832 8.67688 10.6832V13.5904C9.25552 13.7668 9.57288 14.3807 9.39688 14.9593C9.22088 15.5378 8.60656 15.8553 8.02792 15.6793C8.02088 15.6793 8.01384 15.6722 8.00672 15.6722C7.95736 15.6582 7.91496 15.637 7.87264 15.6158C7.32928 15.3476 7.1176 14.6843 7.38576 14.1481C7.51984 13.8799 7.75976 13.6824 8.04176 13.5906V10.627C7.83452 10.5629 7.63177 10.4851 7.43488 10.3941C7.11961 10.4571 6.79433 10.4499 6.48214 10.3731C6.16995 10.2963 5.8785 10.1516 5.62848 9.94952L3.65976 11.0855C3.70787 11.2871 3.69512 11.4984 3.62313 11.6928C3.55114 11.8871 3.42315 12.0558 3.25532 12.1774C3.0875 12.299 2.88739 12.3681 2.68028 12.376C2.47318 12.3839 2.26839 12.3302 2.0918 12.2217C1.91521 12.1132 1.77475 11.9548 1.68818 11.7665C1.60161 11.5782 1.57282 11.3685 1.60545 11.1638C1.63808 10.9591 1.73066 10.7687 1.87149 10.6167C2.01232 10.4646 2.19507 10.3577 2.39664 10.3095C2.73536 10.2249 3.0952 10.3236 3.35664 10.5635L5.19832 9.498C4.57736 8.62304 4.67616 7.42344 5.43832 6.66136L3.34232 5.46176C2.92632 5.85688 2.26976 5.83576 1.87464 5.4124C1.78063 5.31254 1.70729 5.19507 1.65886 5.06676C1.61043 4.93844 1.58786 4.80181 1.59245 4.66473C1.59704 4.52766 1.62869 4.39284 1.6856 4.26805C1.7425 4.14326 1.82352 4.03096 1.924 3.9376C2.34736 3.54248 2.99656 3.5636 3.39168 3.98696C3.63168 4.24096 3.72336 4.59376 3.64568 4.93248L5.9672 6.26608C6.27135 6.10247 6.60984 6.013 6.95512 6.00496C7.27984 5.73696 8.11184 5.46176 8.11184 5.46176V2.28648C7.59672 2.13128 7.30744 1.58792 7.46264 1.0728C7.61784 0.557684 8.1616 0.275444 8.67672 0.430644C9.19184 0.585844 9.48112 1.1292 9.32592 1.64432C9.28004 1.79789 9.19668 1.93763 9.08335 2.05096C8.97002 2.16429 8.83028 2.24764 8.67672 2.29352V5.40552C8.67672 5.40552 10.2009 5.78656 10.6807 6.35808L13.1504 4.95392C13.0234 4.38944 13.3691 3.82488 13.9337 3.69792C14.4982 3.57096 15.0627 3.91664 15.1897 4.4812C15.3166 5.04576 14.971 5.61024 14.4064 5.7372C14.2384 5.77506 14.0636 5.77104 13.8975 5.72551C13.7314 5.67998 13.579 5.59432 13.4538 5.47608L11.0123 6.85896C11.0829 7.00712 11.1464 7.15496 11.1887 7.31056C11.9438 7.82568 12.2119 8.81352 11.8097 9.63912L13.4257 10.5776C13.5885 10.4258 13.796 10.3308 14.0173 10.3066C14.2386 10.2825 14.4617 10.3305 14.6534 10.4435C15.1403 10.7328 15.3094 11.3679 15.0134 11.8689H15.0133Z" fill="#2683FF"/>
<path d="M10.4624 7.86091C10.4554 7.80443 10.4484 7.75507 10.4412 7.6986C10.4343 7.66039 10.4249 7.62268 10.413 7.58572C10.413 7.57164 10.406 7.55748 10.406 7.5434C10.3919 7.50108 10.3777 7.45165 10.3636 7.40933V7.40229C10.2739 7.16558 10.1371 6.94954 9.9614 6.76727C9.91908 6.72495 9.8838 6.68967 9.83436 6.64727L9.82732 6.64023C9.785 6.60495 9.74268 6.56967 9.69324 6.54144L9.6862 6.5344C9.64388 6.50616 9.59444 6.47088 9.55212 6.44976L9.54508 6.44272C9.49949 6.4164 9.45237 6.39284 9.40396 6.37216L9.38988 6.36512C9.34052 6.34392 9.29108 6.3228 9.23468 6.3016L9.22764 6.29456C9.17116 6.28048 9.1218 6.25928 9.06532 6.25224H9.05828C9.00245 6.23941 8.94589 6.22998 8.88892 6.22401H8.88188C8.58134 6.18131 8.27487 6.21779 7.99276 6.32984L7.95748 6.35808C7.91516 6.37216 7.8446 6.40744 7.80228 6.42864C7.78025 6.44318 7.75656 6.45503 7.73172 6.46392C7.71052 6.47096 7.67524 6.4992 7.65412 6.51328C7.633 6.52736 7.58356 6.56263 7.55532 6.58383L7.53412 6.59791C7.4918 6.62615 7.45652 6.66143 7.41412 6.69671L7.37884 6.73199C7.33652 6.77431 7.30124 6.80959 7.26596 6.85198C7.18202 6.83792 7.09706 6.83083 7.01196 6.83079C6.98372 6.83079 6.9626 6.83079 6.9414 6.83783C6.61684 6.8519 6.30636 6.98598 6.06644 7.20477C5.94644 7.31061 5.84772 7.44477 5.77044 7.5858L5.76292 7.6002C5.74117 7.64118 5.72229 7.68363 5.70644 7.72724C5.6994 7.74132 5.6994 7.74843 5.69236 7.76251C5.6774 7.79907 5.6656 7.83683 5.65708 7.87539C5.65004 7.88947 5.65004 7.91067 5.643 7.92475C5.63596 7.96003 5.62892 7.99531 5.6218 8.03763C5.6218 8.05171 5.61476 8.06586 5.61476 8.08698C5.60889 8.14088 5.60654 8.1951 5.60772 8.2493C5.60654 8.29411 5.6089 8.33894 5.61476 8.38337C5.61476 8.39745 5.6218 8.41161 5.6218 8.43273C5.62884 8.46097 5.62884 8.48921 5.63588 8.51737C5.64292 8.54553 5.64292 8.55265 5.64996 8.57385C5.65799 8.59414 5.66274 8.61558 5.66404 8.63737C5.66404 8.65857 5.67812 8.67968 5.68524 8.70088C5.69101 8.71786 5.69809 8.73437 5.70644 8.75024C5.71707 8.77326 5.72649 8.79681 5.73468 8.8208C5.74172 8.83488 5.74876 8.842 5.74876 8.85608C5.84792 9.08849 6.0153 9.28532 6.22876 9.42054C6.3346 9.48406 6.44044 9.54054 6.55332 9.57573C6.59708 9.59078 6.6419 9.60257 6.6874 9.61101L6.70148 9.61805L6.82852 9.63925L6.85676 9.64629C6.90612 9.65333 6.95556 9.65333 7.01196 9.65333C7.20252 9.65333 7.38596 9.61805 7.55532 9.54046C7.59764 9.5687 7.63292 9.59693 7.67532 9.62509L7.6894 9.63213C7.72468 9.65333 7.767 9.67445 7.8094 9.69565H7.81628C8.21959 9.90118 8.68504 9.94899 9.12172 9.82973H9.12876C9.19224 9.81602 9.25383 9.79469 9.3122 9.76621L9.50276 9.68157C9.6842 9.82312 9.90767 9.90009 10.1378 9.90028C10.1872 9.90028 10.2296 9.89324 10.2789 9.89324L10.3142 9.8862C10.3594 9.87947 10.4042 9.87004 10.4483 9.85797C10.4918 9.8446 10.5342 9.82811 10.5753 9.80861L10.5965 9.80157C10.6388 9.78037 10.6741 9.75925 10.7165 9.73805C10.8929 9.62517 11.027 9.45582 11.1046 9.26527C11.1328 9.20175 11.1469 9.13823 11.1611 9.07479V9.05359C11.1681 9.02535 11.1681 8.99711 11.1752 8.96895C11.1752 8.93368 11.1822 8.8984 11.1822 8.86312C11.1822 8.39745 10.8929 7.99523 10.4622 7.86115" fill="#2683FF"/>
</g>
<defs>
<clipPath id="clip0_2_3699">
<rect width="16" height="16" fill="white" transform="translate(0.367188 0.000244141)"/>
</clipPath>
</defs>
</svg>
