<svg width="17" height="16" viewBox="0 0 17 16" fill="none" xmlns="http://www.w3.org/2000/svg">
<g clip-path="url(#clip0_2_3698)">
<path d="M8.36719 16.0002C12.7855 16.0002 16.3672 12.4185 16.3672 8.00024C16.3672 3.58197 12.7855 0.000244141 8.36719 0.000244141C3.94891 0.000244141 0.367188 3.58197 0.367188 8.00024C0.367188 12.4185 3.94891 16.0002 8.36719 16.0002Z" fill="#2DC4E7"/>
<path d="M2.94403 4.51845C3.47953 4.51845 4.03303 4.48245 4.56903 4.53045C4.80703 4.79795 4.86053 5.17295 5.04503 5.48245C7.45003 5.49445 9.86653 5.48245 12.2715 5.48245C12.45 5.49445 12.67 5.50045 12.7595 5.67895C12.8665 5.87545 12.7895 6.10745 12.688 6.28595C12.2 7.11345 11.7355 7.95295 11.2595 8.78595C11.081 9.08395 10.9615 9.41695 10.694 9.64945C10.474 9.83395 10.17 9.84545 9.89053 9.84545H6.55653C6.37803 9.84545 6.18753 9.82795 6.08053 9.68495C5.73553 9.29795 5.55053 8.80395 5.32453 8.35145C4.93315 7.56789 4.55013 6.78018 4.17553 5.98845C4.09803 5.80995 4.00303 5.64945 3.91353 5.48245C3.59853 5.48245 3.28253 5.48245 2.97353 5.47045C2.91353 5.15545 2.91353 4.83395 2.94353 4.51845H2.94403ZM6.70003 10.4885C6.94224 10.4309 7.19408 10.4268 7.43803 10.4765C7.71153 10.5365 7.95003 10.7445 8.01553 11.0185C8.08653 11.3335 8.08653 11.6735 7.96153 11.9765C7.84253 12.2505 7.54503 12.3815 7.26553 12.4055C6.94403 12.429 6.57503 12.4055 6.33653 12.167C6.08103 11.8815 6.08103 11.465 6.13453 11.1075C6.17003 10.81 6.40803 10.554 6.69953 10.4885H6.70003ZM9.67603 10.4885C9.97353 10.4235 10.295 10.429 10.581 10.536C10.8545 10.6495 10.9975 10.947 11.021 11.2265C11.057 11.554 11.021 11.929 10.783 12.179C10.563 12.3875 10.2415 12.417 9.95003 12.411C9.66403 12.3995 9.35503 12.292 9.20603 12.0245C9.06405 11.7343 9.0261 11.4042 9.09853 11.0895C9.15853 10.798 9.38453 10.5545 9.67603 10.4885Z" fill="white"/>
</g>
<defs>
<clipPath id="clip0_2_3698">
<rect width="16" height="16" fill="white" transform="translate(0.367188 0.000244141)"/>
</clipPath>
</defs>
</svg>
