<svg width="16" height="16" viewBox="0 0 16 16" fill="none" xmlns="http://www.w3.org/2000/svg">
<g clip-path="url(#clip0_2_3701)">
<path d="M8 16.0002C12.4183 16.0002 16 12.4185 16 8.00024C16 3.58197 12.4183 0.000244141 8 0.000244141C3.58172 0.000244141 0 3.58197 0 8.00024C0 12.4185 3.58172 16.0002 8 16.0002Z" fill="#F2941B"/>
<path d="M8.283 2.50024H8.2885C9.3245 3.52524 10.349 4.56024 11.379 5.59074H13.949L8.164 13.7872C8.068 12.8247 7.994 11.8622 7.909 10.9002C8.747 9.69474 9.6075 8.50024 10.4455 7.30024L8.532 5.39274C8.53029 5.16714 8.5114 4.94198 8.4755 4.71924C8.413 3.98324 8.3735 3.23624 8.283 2.50024ZM2.0055 10.7302C3.947 8.00224 5.8715 5.26274 7.8075 2.52874L8.051 5.42674C7.2075 6.63224 6.3585 7.82124 5.515 9.02124C6.1435 9.64924 6.7715 10.2887 7.4115 10.9172C7.4965 11.8792 7.57 12.8532 7.6665 13.8212H7.6545L4.581 10.7417C3.721 10.7532 2.8605 10.7362 2 10.7532V10.7302H2.0055Z" fill="white"/>
</g>
<defs>
<clipPath id="clip0_2_3701">
<rect width="16" height="16" fill="white" transform="translate(0 0.000244141)"/>
</clipPath>
</defs>
</svg>
