<svg width="16" height="16" viewBox="0 0 16 16" fill="none" xmlns="http://www.w3.org/2000/svg">
<g clip-path="url(#clip0_2_3702)">
<path d="M8 16.0002C12.4183 16.0002 16 12.4185 16 8.00024C16 3.58197 12.4183 0.000244141 8 0.000244141C3.58172 0.000244141 0 3.58197 0 8.00024C0 12.4185 3.58172 16.0002 8 16.0002Z" fill="#2D9CDB"/>
<path d="M9.0305 4.54224C10.7325 6.32524 11.1645 6.64024 11.578 6.75374C10.1405 6.57374 9.3295 6.47174 7.975 5.76074L7.12 6.75574L12.5 7.95024C10.817 9.38124 10.088 10.1437 9.0305 11.4572H6.995C6.1005 10.1482 5.504 9.72324 4.355 9.19374C5.884 9.33474 6.734 9.42874 7.975 10.1637L8.9055 9.11874L3.5 7.95024C4.757 6.91424 5.4885 6.22324 6.9945 4.54224H9.0305ZM7.12 4.29374C7.585 3.72124 7.775 3.44274 8.025 3.00024C8.27 3.45624 8.4595 3.73774 8.905 4.29374H7.12ZM8.905 11.7067C8.4395 12.2792 8.249 12.5577 8 13.0002C7.755 12.5442 7.565 12.2627 7.12 11.7067H8.905Z" fill="white"/>
</g>
<defs>
<clipPath id="clip0_2_3702">
<rect width="16" height="16" fill="white" transform="translate(0 0.000244141)"/>
</clipPath>
</defs>
</svg>
