<svg width="10" height="16" viewBox="0 0 10 16" fill="none" xmlns="http://www.w3.org/2000/svg">
<g clip-path="url(#clip0_2_3703)">
<path fill-rule="evenodd" clip-rule="evenodd" d="M0.566931 6.34465C0.486304 6.26459 0.422314 6.16936 0.378648 6.06446C0.334981 5.95956 0.3125 5.84706 0.3125 5.73343C0.3125 5.61981 0.334981 5.5073 0.378648 5.4024C0.422314 5.2975 0.486304 5.20228 0.566931 5.12221L5.42573 0.253096C5.58964 0.0924331 5.81001 0.00244141 6.03953 0.00244141C6.26905 0.00244141 6.48942 0.0924331 6.65333 0.253096C6.81399 0.417006 6.90398 0.637375 6.90398 0.866894C6.90398 1.09641 6.81399 1.31678 6.65333 1.48069L1.78937 6.34465C1.7093 6.42528 1.61408 6.48927 1.50918 6.53293C1.40428 6.5766 1.29178 6.59908 1.17815 6.59908C1.06452 6.59908 0.95202 6.5766 0.84712 6.53293C0.742219 6.48927 0.646995 6.42528 0.566931 6.34465Z" fill="#242328"/>
<path fill-rule="evenodd" clip-rule="evenodd" d="M9.3461 9.65117C9.42688 9.73167 9.49098 9.82733 9.53471 9.93266C9.57845 10.038 9.60096 10.1509 9.60096 10.265C9.60096 10.379 9.57845 10.4919 9.53471 10.5973C9.49098 10.7026 9.42688 10.7983 9.3461 10.8788L4.4873 15.7427C4.40786 15.8269 4.31235 15.8944 4.20641 15.9411C4.10047 15.9878 3.98625 16.0128 3.87049 16.0146C3.75473 16.0164 3.63978 15.995 3.53244 15.9516C3.42509 15.9083 3.32751 15.8439 3.24548 15.7622C3.16344 15.6805 3.09861 15.5832 3.0548 15.476C3.011 15.3689 2.98911 15.254 2.99044 15.1382C2.99176 15.0225 3.01627 14.9081 3.06252 14.802C3.10877 14.6959 3.17581 14.6001 3.2597 14.5203L8.12366 9.65117C8.28604 9.48959 8.5058 9.39888 8.73488 9.39888C8.96395 9.39888 9.18371 9.48959 9.3461 9.65117ZM0.252608 10.6828C0.0919448 10.5189 0.00195312 10.2985 0.00195312 10.069C0.00195313 9.83945 0.0919448 9.61908 0.252608 9.45517L3.34739 6.36039C3.42745 6.27976 3.52267 6.21577 3.62757 6.1721C3.73247 6.12844 3.84498 6.10596 3.9586 6.10596C4.07223 6.10596 4.18473 6.12844 4.28963 6.1721C4.39453 6.21577 4.48976 6.27976 4.56982 6.36039C4.73049 6.5243 4.82048 6.74467 4.82048 6.97419C4.82048 7.2037 4.73049 7.42407 4.56982 7.58798L1.47505 10.6828C1.31266 10.8443 1.0929 10.9351 0.863827 10.9351C0.634748 10.9351 0.414991 10.8443 0.252608 10.6828Z" fill="#242328"/>
<path fill-rule="evenodd" clip-rule="evenodd" d="M9.66145 5.30768C9.82303 5.47007 9.91374 5.68983 9.91374 5.9189C9.91374 6.14798 9.82303 6.36774 9.66145 6.53012L6.56667 9.6249C6.48688 9.70878 6.39109 9.77583 6.28495 9.82208C6.17882 9.86832 6.06449 9.89284 5.94873 9.89416C5.83296 9.89549 5.71811 9.8736 5.61094 9.8298C5.50377 9.78599 5.40647 9.72116 5.32478 9.63912C5.24309 9.55709 5.17867 9.45951 5.13531 9.35216C5.09196 9.24481 5.07056 9.12987 5.07237 9.01411C5.07419 8.89835 5.09918 8.78413 5.14587 8.67819C5.19256 8.57225 5.26001 8.47674 5.34423 8.3973L8.43901 5.30253C8.51907 5.2219 8.6143 5.15791 8.7192 5.11424C8.8241 5.07058 8.9366 5.0481 9.05023 5.0481C9.16386 5.0481 9.27636 5.07058 9.38126 5.11424C9.48616 5.15791 9.58138 5.2219 9.66145 5.30253" fill="#A573FF"/>
</g>
<defs>
<clipPath id="clip0_2_3703">
<rect width="9.9136" height="16" fill="white" transform="translate(0 0.000244141)"/>
</clipPath>
</defs>
</svg>
