<svg width="17" height="16" viewBox="0 0 17 16" fill="none" xmlns="http://www.w3.org/2000/svg">
<g clip-path="url(#clip0_2_3704)">
<path d="M0.914062 0.000244141H16.9141V16.0002H0.914062V0.000244141Z" fill="#EFD96F"/>
<path d="M12.2972 5.8562C10.4732 5.8562 8.96921 7.3202 7.60921 8.5362C7.21721 8.1922 6.77721 7.7682 6.44121 7.3682C6.40921 7.3282 6.36121 7.3202 6.33721 7.3362C6.30521 7.3602 6.29721 7.4082 6.32921 7.4402C6.64121 7.8242 7.05721 8.2882 7.44921 8.6802C6.72121 9.3682 5.60921 10.2002 4.71321 10.2002C2.90521 10.2002 2.89721 7.6962 4.48121 7.2242C4.55321 7.2082 4.55321 7.1202 4.48121 7.1442C2.40921 7.6562 2.52121 10.5762 4.75321 10.5762C5.81721 10.5762 6.79321 9.8642 7.77721 9.0242C8.84121 9.9842 10.1852 10.7682 11.9132 10.7682C16.2972 10.7682 16.1692 5.8562 12.2972 5.8562ZM11.8812 10.3922C10.4972 10.3842 9.15321 9.7762 7.97721 8.8562C9.31321 7.6962 10.6652 6.3682 12.2572 6.3682C15.3612 6.3682 15.4412 10.4162 11.8812 10.3922Z" fill="#333333"/>
<path d="M5.42458 7.33619C5.67201 7.33619 5.87259 7.13561 5.87259 6.88819C5.87259 6.64076 5.67201 6.44019 5.42458 6.44019C5.17715 6.44019 4.97656 6.64076 4.97656 6.88819C4.97656 7.13561 5.17715 7.33619 5.42458 7.33619Z" fill="#333333"/>
</g>
<defs>
<clipPath id="clip0_2_3704">
<rect width="16" height="16" fill="white" transform="translate(0.914062 0.000244141)"/>
</clipPath>
</defs>
</svg>
