<svg width="17" height="16" viewBox="0 0 17 16" fill="none" xmlns="http://www.w3.org/2000/svg">
<g clip-path="url(#clip0_2_3709)">
<path d="M8.02148 16.0002C12.4398 16.0002 16.0215 12.4185 16.0215 8.00024C16.0215 3.58197 12.4398 0.000244141 8.02148 0.000244141C3.60321 0.000244141 0.0214844 3.58197 0.0214844 8.00024C0.0214844 12.4185 3.60321 16.0002 8.02148 16.0002Z" fill="#002342"/>
<path d="M2.02148 6.50024H2.67048V7.11074H2.02148V6.50024ZM2.67048 8.88724H4.55898V9.50024H2.02148V7.72124H3.92648V8.33124H2.67098V8.88724H2.67048ZM11.484 7.72124H14.0215V9.50024H12.1165V8.88724H13.3725V8.33174H11.484V7.72124ZM13.383 7.14024H11.483V6.52974H13.383V7.13974V7.14024ZM5.17748 7.72124H7.71498V8.91324H7.08298V9.50024H5.17748V7.72124ZM7.06598 8.88724V8.33174H5.82648V8.88674H7.06648L7.06598 8.88724ZM5.17748 6.50024H7.71498V7.11074H5.17748V6.50024ZM8.34448 7.72124H10.882V8.91324H10.25V9.50024H8.34498V7.72124H8.34448ZM10.2305 8.88724V8.33174H8.99048V8.88674H10.2305V8.88724ZM8.34448 6.50024H10.882V7.11074H8.34448V6.50024Z" fill="white"/>
</g>
<defs>
<clipPath id="clip0_2_3709">
<rect width="16" height="16" fill="white" transform="translate(0.0214844 0.000244141)"/>
</clipPath>
</defs>
</svg>
