<svg width="17" height="16" viewBox="0 0 17 16" fill="none" xmlns="http://www.w3.org/2000/svg">
<g clip-path="url(#clip0_2_3711)">
<path d="M8.02148 16.0002C12.4398 16.0002 16.0215 12.4185 16.0215 8.00024C16.0215 3.58197 12.4398 0.000244141 8.02148 0.000244141C3.60321 0.000244141 0.0214844 3.58197 0.0214844 8.00024C0.0214844 12.4185 3.60321 16.0002 8.02148 16.0002Z" fill="#14C8FF"/>
<path d="M12.5615 5.73919C12.878 5.99569 13.0775 6.52619 13.0075 6.91569L12.3275 10.6777C12.2565 11.0697 11.8815 11.5012 11.4955 11.6367L7.78598 12.9392C7.39998 13.0747 6.82598 12.9767 6.50998 12.7202L3.48098 10.2617C3.16448 10.0052 2.96448 9.47719 3.03598 9.08519L3.71598 5.32319C3.78648 4.93119 4.16148 4.50019 4.54798 4.36419L8.25798 3.06119C8.64448 2.92519 9.21798 3.02419 9.53448 3.28019L12.5615 5.73919ZM9.40598 7.42819L9.55698 6.66319L8.14098 6.66569L8.34098 5.65769H7.88348C7.55347 6.16343 7.07281 6.55261 6.50948 6.77019L6.38098 7.42969H6.99998C6.99998 7.42969 6.79048 8.37669 6.71998 8.72619C6.54498 9.61619 6.98498 10.2472 7.66098 10.2472H8.80498L9.00498 9.40219H8.04798C7.62298 9.40219 7.64548 9.16969 7.72798 8.75719L7.99148 7.42619L9.40598 7.42819Z" fill="white"/>
</g>
<defs>
<clipPath id="clip0_2_3711">
<rect width="16" height="16" fill="white" transform="translate(0.0214844 0.000244141)"/>
</clipPath>
</defs>
</svg>
