<svg width="17" height="16" viewBox="0 0 17 16" fill="none" xmlns="http://www.w3.org/2000/svg">
<g clip-path="url(#clip0_2_3712)">
<path d="M8.02148 16.0002C12.4398 16.0002 16.0215 12.4185 16.0215 8.00024C16.0215 3.58197 12.4398 0.000244141 8.02148 0.000244141C3.60321 0.000244141 0.0214844 3.58197 0.0214844 8.00024C0.0214844 12.4185 3.60321 16.0002 8.02148 16.0002Z" fill="#302C2C"/>
<path d="M13.4769 7.84824C13.4495 7.79272 13.4132 7.74206 13.3694 7.69824C12.4184 6.62124 10.4829 4.50024 10.4829 4.50024L8.02443 7.18924L5.53443 4.52574C5.53443 4.52574 3.57643 6.66524 2.61693 7.75374C2.49193 7.87674 2.49193 8.09874 2.60393 8.22974C3.10243 8.79774 5.55093 11.4977 5.55093 11.4977L8.02093 8.79074L10.4739 11.5002L13.4324 8.22724C13.4324 8.22724 13.4949 8.16224 13.5084 8.11874C13.5374 8.02874 13.5164 7.93074 13.4769 7.84824ZM3.98093 8.14774C3.90093 8.05324 3.92793 7.90474 4.00243 7.81524C4.31543 7.45874 5.56793 6.11524 5.56793 6.11524L7.31293 7.96774L5.56493 9.87974C5.56493 9.87974 4.49493 8.73774 3.98093 8.14774ZM11.9749 8.21074C11.9381 8.2739 11.8952 8.33334 11.8469 8.38824L10.4919 9.86074L8.74193 8.00024L10.4639 6.11274C10.4639 6.11274 11.4559 7.14024 11.9104 7.69274C11.9489 7.74074 11.9944 7.78624 12.0139 7.84724C12.0554 7.96674 12.0289 8.09974 11.9744 8.21024" fill="white"/>
</g>
<defs>
<clipPath id="clip0_2_3712">
<rect width="16" height="16" fill="white" transform="translate(0.0214844 0.000244141)"/>
</clipPath>
</defs>
</svg>
