<svg width="13" height="16" viewBox="0 0 13 16" fill="none" xmlns="http://www.w3.org/2000/svg">
<g clip-path="url(#clip0_2_3717)">
<path d="M8.30564 15.5204C7.23108 15.5204 6.44675 15.2616 5.95267 14.7439C5.49497 14.3057 5.22936 13.7042 5.21391 13.0707C5.20834 12.8783 5.25294 12.6877 5.34332 12.5177C5.42762 12.3708 5.54939 12.249 5.69621 12.1645C5.86685 12.0794 6.05493 12.0351 6.24562 12.0351C6.43631 12.0351 6.62439 12.0794 6.79504 12.1645C6.94159 12.2486 7.06279 12.3706 7.14594 12.5177C7.23892 12.6869 7.28519 12.8777 7.27998 13.0707C7.28958 13.3012 7.22348 13.5284 7.09177 13.7178C6.98198 13.8723 6.82507 13.9872 6.64454 14.045C6.82109 14.2698 7.07087 14.4255 7.35041 14.4851C7.66316 14.5759 7.98706 14.6226 8.31273 14.6239C8.7439 14.6276 9.1662 14.5013 9.52453 14.2615C9.89626 13.9989 10.1735 13.6235 10.3151 13.191C10.4946 12.6762 10.5822 12.1338 10.5739 11.5887C10.5884 11.0203 10.4925 10.4546 10.2916 9.92276C10.1404 9.4974 9.8535 9.13359 9.47509 8.88746C9.12336 8.66488 8.71507 8.5481 8.29884 8.55102C7.93615 8.58175 7.58642 8.70048 7.27998 8.89691L6.52449 9.27569V8.89691L9.91977 4.34215H5.21391V9.06867C5.20061 9.40976 5.29084 9.74688 5.47273 10.0357C5.56074 10.1616 5.67976 10.2626 5.81826 10.329C5.95677 10.3953 6.11006 10.4248 6.2633 10.4145C6.54643 10.4088 6.82024 10.3123 7.04441 10.1392C7.29851 9.95301 7.51963 9.72555 7.69857 9.46627C7.71467 9.42081 7.74437 9.3814 7.78364 9.3534C7.81516 9.32615 7.85542 9.31112 7.89708 9.31105C7.97883 9.31851 8.05619 9.35141 8.11828 9.40511C8.19692 9.49299 8.23973 9.60717 8.23824 9.72509C8.22916 9.80434 8.21501 9.88293 8.19589 9.96038C8.02873 10.365 7.74851 10.7129 7.38879 10.9624C7.05469 11.1885 6.66008 11.3083 6.25668 11.3063C5.23782 11.3063 4.53199 11.1055 4.13918 10.704C3.93728 10.482 3.78167 10.222 3.68147 9.93919C3.58128 9.65637 3.5385 9.35641 3.55564 9.05686V4.34215H1.16211V3.46396H3.56679V1.46161L3.01624 0.91069V0.46167H4.61382L5.21391 0.772297V3.46396L11.4303 3.44505L12.0492 4.06621L8.23739 7.89649C8.46767 7.80388 8.71019 7.74523 8.95734 7.72237C9.44651 7.74379 9.92378 7.88003 10.3505 8.12006C10.8447 8.35496 11.2612 8.72662 11.5506 9.191C11.8099 9.5841 11.9935 10.0222 12.0918 10.4828C12.1727 10.846 12.216 11.2166 12.2212 11.5888C12.2237 12.2989 12.0627 13.0002 11.7506 13.6381C11.4547 14.2558 10.9566 14.7539 10.3388 15.0499C9.70647 15.3615 9.01059 15.5225 8.30564 15.5204Z" fill="#2C7DF7"/>
</g>
<defs>
<clipPath id="clip0_2_3717">
<rect width="12.2353" height="16" fill="white" transform="translate(0.597656 0.000244141)"/>
</clipPath>
</defs>
</svg>
