<svg width="17" height="16" viewBox="0 0 17 16" fill="none" xmlns="http://www.w3.org/2000/svg">
<g clip-path="url(#clip0_2_3722)">
<path d="M8.78711 16.0002C13.2054 16.0002 16.7871 12.4185 16.7871 8.00024C16.7871 3.58197 13.2054 0.000244141 8.78711 0.000244141C4.36883 0.000244141 0.787109 3.58197 0.787109 8.00024C0.787109 12.4185 4.36883 16.0002 8.78711 16.0002Z" fill="#FFC04E"/>
<path d="M8.58611 5.92874H8.58761L8.57261 5.99374L8.44261 6.60724H8.42761L7.57111 10.2502H6.48161L7.35511 6.60724H5.88911L5.06611 10.2502H3.86811L4.95711 5.75024H8.62361L8.58611 5.92874ZM10.6566 5.75024H12.4716C14.0331 5.82174 13.8876 6.85724 13.8876 6.85724H14.2871L14.1421 7.28574H13.7786C13.6701 7.67874 12.9436 7.89324 12.9436 7.89324C13.7786 8.00024 13.7426 8.64324 13.7426 8.64324H14.1421L14.0331 9.07174H13.7061C13.6226 9.66674 13.0951 9.95574 12.6616 10.0932C12.3994 10.1751 12.1262 10.2161 11.8516 10.2147H9.56711L10.6566 5.75024ZM4.44861 6.60724H3.28711L3.50511 5.75024H4.66661L4.44861 6.60724ZM9.42261 9.75024L8.47861 7.53574L8.87811 5.82174L9.82161 7.92874L9.42261 9.75024ZM12.1996 7.53574C12.3296 7.53574 12.4546 7.48574 12.5461 7.39474C12.6376 7.30374 12.6896 7.18174 12.6896 7.05374C12.6896 6.92574 12.6381 6.80324 12.5461 6.71274C12.4541 6.62224 12.3296 6.57174 12.1996 6.57174H11.4921L11.2746 7.53574H12.1996ZM11.9551 9.39324C12.2806 9.39324 12.5446 9.14524 12.5446 8.83974C12.5446 8.53374 12.2821 8.28574 11.9551 8.28574H11.1041L10.8421 9.39324H11.9551Z" fill="white"/>
</g>
<defs>
<clipPath id="clip0_2_3722">
<rect width="16" height="16" fill="white" transform="translate(0.787109 0.000244141)"/>
</clipPath>
</defs>
</svg>
