<svg width="17" height="16" viewBox="0 0 17 16" fill="none" xmlns="http://www.w3.org/2000/svg">
<g clip-path="url(#clip0_2_3723)">
<path d="M8.78711 16.0002C13.2054 16.0002 16.7871 12.4185 16.7871 8.00024C16.7871 3.58197 13.2054 0.000244141 8.78711 0.000244141C4.36883 0.000244141 0.787109 3.58197 0.787109 8.00024C0.787109 12.4185 4.36883 16.0002 8.78711 16.0002Z" fill="#5244D4"/>
<path d="M8.63711 13.7002C5.40611 13.7002 2.78711 11.0812 2.78711 7.85024C2.78711 4.61924 5.40611 2.00024 8.63711 2.00024C11.8681 2.00024 14.4871 4.61924 14.4871 7.85024C14.4871 11.0812 11.8681 13.7002 8.63711 13.7002ZM10.0821 9.85024L8.63711 7.85024L7.19211 9.85024L6.01711 7.85024L7.32711 5.61024H9.94711L11.2571 7.85024L10.0821 9.85024ZM10.5121 4.65024H6.76211L4.89211 7.85024L6.76711 11.0502H10.5121L12.3821 7.85024L10.5121 4.65024Z" fill="white"/>
</g>
<defs>
<clipPath id="clip0_2_3723">
<rect width="16" height="16" fill="white" transform="translate(0.787109 0.000244141)"/>
</clipPath>
</defs>
</svg>
