<svg width="17" height="16" viewBox="0 0 17 16" fill="none" xmlns="http://www.w3.org/2000/svg">
<g clip-path="url(#clip0_2_3730)">
<path d="M15.6216 4.99822C14.9157 4.34645 13.9392 3.35116 13.1439 2.64528L13.0968 2.61234C13.0185 2.54946 12.9303 2.50015 12.8357 2.46645C10.918 2.10881 1.99332 0.440571 1.8192 0.461748C1.77041 0.468581 1.72378 0.48627 1.68273 0.513512L1.63802 0.548807C1.58298 0.604713 1.54117 0.672252 1.51567 0.746454L1.50391 0.777042V0.944101V0.969983C2.50861 3.76763 6.47567 12.9323 7.25685 15.0829C7.30391 15.2288 7.39332 15.5065 7.56038 15.5206H7.59802C7.68744 15.5206 8.06861 15.017 8.06861 15.017C8.06861 15.017 14.8827 6.75351 15.5721 5.87351C15.6614 5.76511 15.7402 5.64852 15.8074 5.52528C15.8246 5.42885 15.8165 5.32962 15.7839 5.23726C15.7514 5.14489 15.6954 5.06254 15.6216 4.99822ZM9.81685 5.96057L12.7251 3.54881L14.431 5.12057L9.81685 5.96057ZM8.68744 5.80292L3.68038 1.69939L11.7816 3.19351L8.68744 5.80292ZM9.1392 6.87822L14.2639 6.05234L8.40508 13.1112L9.1392 6.87822ZM3.00038 2.10881L8.26861 6.57939L7.50626 13.1159L3.00038 2.10881Z" fill="#FF060A"/>
</g>
<defs>
<clipPath id="clip0_2_3730">
<rect width="16" height="16" fill="white" transform="translate(0.697266 0.000244141)"/>
</clipPath>
</defs>
</svg>
