<svg width="17" height="16" viewBox="0 0 17 16" fill="none" xmlns="http://www.w3.org/2000/svg">
<g clip-path="url(#clip0_2_3731)">
<path d="M8.69727 16.0002C4.29727 16.0002 0.697266 12.4002 0.697266 8.00024C0.697266 3.60024 4.29727 0.000244141 8.69727 0.000244141C13.0973 0.000244141 16.6973 3.60024 16.6973 8.00024C16.6973 12.4002 13.0973 16.0002 8.69727 16.0002Z" fill="#002868"/>
<path d="M12.7285 12.8002H4.66448C4.24208 12.8002 3.89648 12.4546 3.89648 12.0322V3.9682C3.89648 3.5458 4.24208 3.2002 4.66448 3.2002H12.7285C13.1509 3.2002 13.4965 3.5458 13.4965 3.9682V12.0322C13.4965 12.4546 13.1509 12.8002 12.7285 12.8002Z" fill="white"/>
<path d="M5.77098 11.834C5.7457 11.834 5.72522 11.811 5.72522 11.7857V10.4958C5.72522 10.4705 5.70474 10.4475 5.67946 10.4475H5.2241C5.1985 10.4475 5.17578 10.427 5.17578 10.4017V10.1524C5.17578 10.1272 5.19882 10.1041 5.2241 10.1041H6.6257C6.65098 10.1041 6.67402 10.1268 6.67402 10.1524V10.4017C6.67402 10.427 6.65098 10.4475 6.6257 10.4475H6.1729C6.14762 10.4475 6.12458 10.4702 6.12458 10.4958V11.7857C6.12458 11.811 6.1041 11.834 6.07882 11.834H5.77098Z" fill="#002868"/>
<path d="M8.07309 10.1524C8.07309 10.1272 8.09357 10.1041 8.11885 10.1041H8.42413C8.44941 10.1041 8.47245 10.1268 8.47245 10.1524V11.0328C8.47245 11.5544 8.17741 11.8571 7.70925 11.8571C7.24365 11.8571 6.95117 11.5544 6.95117 11.0328V10.1524C6.95117 10.1272 6.97165 10.1041 6.99693 10.1041H7.30221C7.32749 10.1041 7.35053 10.1268 7.35053 10.1524V11.0452C7.35053 11.3022 7.48269 11.4852 7.71181 11.4852C7.94093 11.4852 8.07309 11.3022 8.07309 11.0452V10.1524Z" fill="#002868"/>
<path d="M9.87414 10.6688C9.8335 10.6688 9.8207 10.6535 9.80534 10.6231C9.7519 10.4983 9.63478 10.4195 9.45686 10.4195C9.29653 10.4195 9.16181 10.4755 9.16181 10.5824C9.16181 10.6995 9.28661 10.7479 9.56118 10.7808C9.97846 10.8291 10.2175 10.9565 10.2175 11.2871C10.2175 11.6586 9.89174 11.8544 9.47478 11.8544C9.11349 11.8544 8.80309 11.6787 8.75477 11.3101C8.74965 11.2746 8.76757 11.2618 8.80309 11.2618H9.08309C9.11861 11.2618 9.13909 11.2771 9.14933 11.305C9.18741 11.4272 9.31733 11.5213 9.5055 11.5213C9.67094 11.5213 9.8159 11.4602 9.8159 11.3306C9.8159 11.1754 9.66326 11.1475 9.35798 11.1091C9.00693 11.0634 8.76277 10.9616 8.76277 10.6384C8.76277 10.3152 9.04021 10.0839 9.4751 10.0839C9.86678 10.0839 10.1391 10.2951 10.1951 10.6106C10.2028 10.6461 10.1925 10.6691 10.1545 10.6691H9.87414V10.6688Z" fill="#002868"/>
<path d="M10.5633 11.834C10.5381 11.834 10.5176 11.811 10.5176 11.7857V10.1524C10.5176 10.1272 10.5381 10.1041 10.5633 10.1041H11.2552C11.7691 10.1041 12.1685 10.4577 12.1685 10.9742C12.1685 11.483 11.7742 11.834 11.2552 11.834H10.5633ZM11.2552 11.4904C11.5326 11.4904 11.7486 11.2715 11.7486 10.9688C11.7486 10.666 11.5323 10.4472 11.2526 10.4472H10.9653C10.94 10.4472 10.9195 10.4699 10.9195 10.4955V11.4443C10.9195 11.4696 10.94 11.49 10.9653 11.49H11.2552V11.4904Z" fill="#002868"/>
<path d="M13.2414 9.15225H4.15339C4.08299 9.15225 4.02539 9.09465 4.02539 9.02425V3.96825C4.02539 3.61625 4.31339 3.32825 4.66539 3.32825H12.7294C13.0814 3.32825 13.3694 3.61625 13.3694 3.96825V9.02425C13.3694 9.09465 13.3118 9.15225 13.2414 9.15225Z" fill="#002868"/>
<path d="M9.16822 8.1141H8.33623C8.28343 8.1141 8.24023 8.0709 8.24023 8.0181V4.4981C8.24023 4.4453 8.28343 4.4021 8.33623 4.4021H9.16822C9.22102 4.4021 9.26422 4.4453 9.26422 4.4981V8.0181C9.26422 8.0709 9.22102 8.1141 9.16822 8.1141Z" fill="white"/>
<path d="M10.5849 5.4261H6.80889C6.75609 5.4261 6.71289 5.3829 6.71289 5.3301V4.4981C6.71289 4.4453 6.75609 4.4021 6.80889 4.4021H10.5849C10.6377 4.4021 10.6809 4.4453 10.6809 4.4981V5.3301C10.6809 5.3829 10.6377 5.4261 10.5849 5.4261Z" fill="white"/>
</g>
<defs>
<clipPath id="clip0_2_3731">
<rect width="16" height="16" fill="white" transform="translate(0.697266 0.000244141)"/>
</clipPath>
</defs>
</svg>
