<svg width="15" height="16" viewBox="0 0 15 16" fill="none" xmlns="http://www.w3.org/2000/svg">
<g clip-path="url(#clip0_2_3734)">
<path d="M4.26489 6.91351H4.27167L4.38688 6.95417L4.49531 6.99484L4.61053 7.02872L4.71896 7.07616L4.83417 7.11682L4.94261 7.15749L5.05782 7.19815L5.16625 7.23881L5.27469 7.27948L5.38312 7.32014L5.49833 7.3608L5.60677 7.40824L5.72198 7.44213L5.83041 7.48279L5.94562 7.52345L6.05406 7.57089L6.16927 7.61156L6.2777 7.64544L6.38614 7.6861L6.50135 7.73354L6.61656 7.77421V7.598V7.57089V7.42857V7.32692V7.25237V7.07616V6.90673V6.73053V6.5611V6.37811V6.20869V6.18835H6.48102H6.35225H6.3387H6.19638H6.08794H6.04728H5.90496H5.83041H5.75586H5.60677H5.5661H5.46445H5.32213H5.31535H5.30857H5.17303H5.05104H5.03071H4.88161H4.78673H4.5292H4.27167H4.26489H4.11579L4.00736 6.24257L3.74983 6.37811L3.48552 6.52043L3.22121 6.6492L2.97046 6.78474L2.70615 6.92706L2.44184 7.05583L2.18431 7.19815L1.92 7.33369L1.66247 7.46246L1.40493 7.60478L1.16773 7.72677L1.14062 11.6101L1.40493 11.7931L1.66247 11.976L1.92 12.1522L2.18431 12.342L2.44184 12.525L2.70615 12.708L2.82136 12.7961L2.97046 12.6063L3.22121 12.2675L3.24832 12.2336L3.22121 12.2132L2.97046 12.0303L2.70615 11.8473L2.44184 11.6643L2.18431 11.4813L1.92 11.2915L1.85223 11.2509L1.87256 8.10629L1.92 8.07918L2.18431 7.95041L2.44184 7.82165L2.70615 7.69288L2.97046 7.56412L3.22121 7.42857L3.48552 7.29981L3.74983 7.17782L4.00736 7.04228L4.26489 6.91351Z" fill="url(#paint0_linear_2_3734)"/>
<path d="M8.75111 14.3207L8.53424 14.4088L8.29027 14.5105L8.04629 14.6053L7.80231 14.707L7.69388 14.7477L7.56511 14.6867L7.32113 14.5579L7.07716 14.4427L6.83996 14.3139L6.59598 14.1919L6.352 14.0767L6.10802 13.948L5.86405 13.826L5.62007 13.704L5.37609 13.582L5.13211 13.4532L4.90169 13.338L4.65771 13.216L4.6306 13.2025V10.0308H4.41374H4.16976H3.92578V13.6362L4.16976 13.7514L4.41374 13.8734L4.65771 14.0022L4.90169 14.1174L5.13211 14.2462L5.37609 14.3681L5.62007 14.4901L5.86405 14.6121L6.10802 14.7341L6.352 14.8561L6.59598 14.9781L6.83996 15.1069L7.07716 15.2221L7.32113 15.3508L7.56511 15.466L7.65999 15.5203L7.80231 15.4525L8.04629 15.3644L8.29027 15.2627L8.53424 15.1611L8.77144 15.0662L9.01542 14.9713L8.77144 14.3614L8.75111 14.3207Z" fill="url(#paint1_linear_2_3734)"/>
<path d="M13.0821 9.91572L13.0956 11.4067L13.0346 11.4609L12.6212 11.7455L12.2078 12.0437L11.7944 12.3419L11.381 12.6334L10.9676 12.9248L10.561 13.223L10.1476 13.5144L9.9036 13.6906L9.73417 13.5618L9.32754 13.2433L8.91413 12.9316L8.50073 12.613L8.0941 12.3013L8.01955 12.2471V10.6409L8.0941 10.5731L8.50073 10.1394L8.91413 9.7124L9.32754 9.27866L9.73417 8.8517L10.134 8.43152H9.73417H9.32754H8.91413H8.50073H8.0941H7.67391H7.26051H6.85388H6.44047H6.02707H5.62044H5.20703L5.62044 8.86526L6.02707 9.29222L6.44047 9.71918L6.85388 10.1529L7.26051 10.5799L7.3215 10.6409V12.5859L7.67391 12.8638L8.0941 13.1823L8.50073 13.4941L8.91413 13.8126L9.32754 14.1243L9.73417 14.4429L9.88326 14.5581L10.1476 14.3683L10.561 14.0837L10.9676 13.7855L11.381 13.4873L11.7944 13.2026L12.2078 12.9044L12.6212 12.6062L13.0346 12.3216L13.448 12.0234L13.7869 11.7727L13.8547 9.94282L13.448 9.92927L13.0821 9.91572Z" fill="url(#paint2_linear_2_3734)"/>
<path d="M1.81168 6.44592H1.85912L1.8659 4.45344L2.13021 4.28401L2.46229 4.08747L2.78759 3.89093L3.11289 3.68762L3.4382 3.49108L3.77028 3.28777L4.0888 3.09123L4.42088 2.89469L4.74619 2.69138L5.07827 2.48806H5.08504L5.39679 2.67105L5.72887 2.85403L6.05417 3.04379L6.37948 3.22677L6.70478 3.40975L7.03008 3.59274L7.35539 3.7825L7.67391 3.96548L7.68747 3.93837L8.01277 3.34876L7.68747 3.159L7.35539 2.97602L7.03008 2.79303L6.70478 2.61005L6.37948 2.42029L6.05417 2.23731L5.72887 2.05433L5.39679 1.86456L5.07827 1.68158L5.06471 1.6748L4.74619 1.86456L4.42088 2.06788L4.0888 2.27119L3.77028 2.47451L3.4382 2.67105L3.11289 2.86758L2.78759 3.0709L2.46229 3.26743L2.13021 3.47075L1.81168 3.66729L1.4796 3.86382L1.16785 4.06036L1.1543 6.43914H1.4796L1.81168 6.44592Z" fill="url(#paint3_linear_2_3734)"/>
<path d="M14.5528 4.623L14.3834 4.48746L14.214 4.35191L14.0445 4.20959L13.8751 4.07405L13.7057 3.93851L13.5295 3.80296L13.36 3.66742L13.1906 3.53188L13.0144 3.38956L12.8856 3.29468L12.8382 3.34889L12.6688 3.55899L12.4994 3.77586L12.4519 3.83007L12.4994 3.87751L12.6688 4.01983L12.8382 4.16215L13.0144 4.30447L13.1906 4.44679L13.36 4.59589L13.5295 4.73821L13.7057 4.88053L13.787 4.9483L13.7938 8.15389L13.7057 8.21489L13.5295 8.32332L13.36 8.43176L13.1906 8.54019L13.0144 8.64863L12.8382 8.75706L12.6688 8.86549L12.4994 8.97393L12.3299 9.08236L12.1605 9.1908L11.9911 9.29923L11.8149 9.40767L11.6454 9.5161L11.476 9.62454L11.3066 9.73297L11.1304 9.8414L10.9609 9.94984L11.1304 10.2209L11.3066 10.492L11.3337 10.5395L11.476 10.4513L11.6454 10.3497L11.8149 10.2413L11.9911 10.1396L12.1605 10.0244L12.3299 9.92273L12.4994 9.8143L12.6688 9.71264L12.8382 9.6042L13.0144 9.50255L13.1906 9.38733L13.36 9.28568L13.5295 9.17724L13.7057 9.07559L13.8751 8.96715L14.0445 8.86549L14.214 8.75028L14.3834 8.64863L14.5528 8.54019V4.623Z" fill="url(#paint4_linear_2_3734)"/>
<path d="M8.96185 6.53399V6.7102V6.88641V7.06261V7.24559V7.42858V7.60478V7.78099V7.91653L9.01606 7.8962L9.24649 7.8081L9.47691 7.71322L9.70055 7.62511L9.93098 7.53024L10.1614 7.43536L10.385 7.34725L10.6155 7.25237L10.8459 7.16427L11.0695 7.06939L11.3 6.98129L11.5236 6.88641V6.7102V6.64243V6.17481V2.69135L11.2661 2.5287L11.0018 2.3796L10.7375 2.23051L10.4799 2.06785L10.2156 1.91876L9.95131 1.76966L9.69378 1.61379L9.42947 1.45791L9.17194 1.30204L8.90763 1.15294L8.64332 0.997065L8.38579 0.84119L8.12826 0.692093L7.86395 0.542996L7.72163 0.46167L7.59964 0.529441L7.33533 0.671761L7.07102 0.807304L6.82027 0.956402L6.55596 1.09872L6.29165 1.23426L6.02734 1.38336L6.29165 1.53246L6.55596 1.68156L6.71861 1.78321L6.82027 1.729L7.07102 1.59345L7.33533 1.45113L7.59964 1.31559L7.7013 1.26137L7.86395 1.35625L8.12826 1.50535L8.38579 1.65445L8.64332 1.81032L8.90763 1.9662L9.17194 2.11529L9.42947 2.27117L9.69378 2.42704L9.95131 2.57614L10.2156 2.72524L10.4799 2.88789L10.7375 3.03699L10.8256 3.08443V6.17481H10.7646H10.7375H10.6155H10.4799H10.4664H10.3105H10.2156H10.1614H10.0123H9.95131H9.8632H9.71411H9.69378H9.56501H9.42947H9.41591H9.26004H9.17194H9.11094H8.99573H8.9754" fill="url(#paint5_linear_2_3734)"/>
<path d="M8.96094 7.91665L11.5227 6.88653L8.96094 6.17493" fill="url(#paint6_linear_2_3734)"/>
<path d="M6.61638 7.91628V6.20166L4.27148 6.89971L6.61638 7.9095" fill="url(#paint7_linear_2_3734)"/>
</g>
<defs>
<linearGradient id="paint0_linear_2_3734" x1="3.8769" y1="6.19039" x2="3.8769" y2="12.7934" gradientUnits="userSpaceOnUse">
<stop stop-color="#F6E93D"/>
<stop offset="0.13" stop-color="#F8E330"/>
<stop offset="0.35" stop-color="#F7C730"/>
<stop offset="0.64" stop-color="#F59C2E"/>
<stop offset="0.98" stop-color="#EB5E2C"/>
<stop offset="1" stop-color="#EB5C2C"/>
</linearGradient>
<linearGradient id="paint1_linear_2_3734" x1="6.47162" y1="10.0335" x2="6.47162" y2="15.5196" gradientUnits="userSpaceOnUse">
<stop stop-color="#F6E93D"/>
<stop offset="0.13" stop-color="#F8E330"/>
<stop offset="0.35" stop-color="#F7C730"/>
<stop offset="0.64" stop-color="#F59C2E"/>
<stop offset="0.98" stop-color="#EB5E2C"/>
<stop offset="1" stop-color="#EB5C2C"/>
</linearGradient>
<linearGradient id="paint2_linear_2_3734" x1="9.53051" y1="8.43084" x2="9.53051" y2="14.5601" gradientUnits="userSpaceOnUse">
<stop stop-color="#F6E93D"/>
<stop offset="0.13" stop-color="#F8E330"/>
<stop offset="0.35" stop-color="#F7C730"/>
<stop offset="0.64" stop-color="#F59C2E"/>
<stop offset="0.98" stop-color="#EB5E2C"/>
<stop offset="1" stop-color="#EB5C2C"/>
</linearGradient>
<linearGradient id="paint3_linear_2_3734" x1="4.58319" y1="1.67684" x2="4.58319" y2="6.4466" gradientUnits="userSpaceOnUse">
<stop stop-color="#F6E93D"/>
<stop offset="0.13" stop-color="#F8E330"/>
<stop offset="0.35" stop-color="#F7C730"/>
<stop offset="0.64" stop-color="#F59C2E"/>
<stop offset="0.98" stop-color="#EB5E2C"/>
<stop offset="1" stop-color="#EB5C2C"/>
</linearGradient>
<linearGradient id="paint4_linear_2_3734" x1="12.7596" y1="3.29332" x2="12.7596" y2="10.5401" gradientUnits="userSpaceOnUse">
<stop stop-color="#F6E93D"/>
<stop offset="0.13" stop-color="#F8E330"/>
<stop offset="0.35" stop-color="#F7C730"/>
<stop offset="0.64" stop-color="#F59C2E"/>
<stop offset="0.98" stop-color="#EB5E2C"/>
<stop offset="1" stop-color="#EB5C2C"/>
</linearGradient>
<linearGradient id="paint5_linear_2_3734" x1="8.7748" y1="0.46167" x2="8.7748" y2="7.91857" gradientUnits="userSpaceOnUse">
<stop stop-color="#F6E93D"/>
<stop offset="0.13" stop-color="#F8E330"/>
<stop offset="0.35" stop-color="#F7C730"/>
<stop offset="0.64" stop-color="#F59C2E"/>
<stop offset="0.98" stop-color="#EB5E2C"/>
<stop offset="1" stop-color="#EB5C2C"/>
</linearGradient>
<linearGradient id="paint6_linear_2_3734" x1="10.2391" y1="6.17967" x2="10.2391" y2="7.92072" gradientUnits="userSpaceOnUse">
<stop stop-color="#F6E93D"/>
<stop offset="0.13" stop-color="#F8E330"/>
<stop offset="0.35" stop-color="#F7C730"/>
<stop offset="0.64" stop-color="#F59C2E"/>
<stop offset="0.98" stop-color="#EB5E2C"/>
<stop offset="1" stop-color="#EB5C2C"/>
</linearGradient>
<linearGradient id="paint7_linear_2_3734" x1="5.41566" y1="7.48575" x2="5.96867" y2="5.96632" gradientUnits="userSpaceOnUse">
<stop stop-color="#F6E93D"/>
<stop offset="0.13" stop-color="#F8E330"/>
<stop offset="0.35" stop-color="#F7C730"/>
<stop offset="0.64" stop-color="#F59C2E"/>
<stop offset="0.98" stop-color="#EB5E2C"/>
<stop offset="1" stop-color="#EB5C2C"/>
</linearGradient>
<clipPath id="clip0_2_3734">
<rect width="14.1176" height="16" fill="white" transform="translate(0.697266 0.000244141)"/>
</clipPath>
</defs>
</svg>
