<svg width="17" height="16" viewBox="0 0 17 16" fill="none" xmlns="http://www.w3.org/2000/svg">
<g clip-path="url(#clip0_2_3735)">
<path d="M8.69347 15.5205C12.866 15.5205 16.2229 12.1637 16.2229 7.99108C16.2229 3.81851 12.866 0.46167 8.69347 0.46167C4.5209 0.46167 1.16406 3.81851 1.16406 7.99108C1.16406 12.1637 4.5209 15.5205 8.69347 15.5205Z" fill="#2775CA"/>
<path d="M10.7644 9.18308C10.7644 8.08506 10.1056 7.70859 8.78794 7.55175C7.84678 7.42623 7.65855 7.17528 7.65855 6.73601C7.65855 6.29674 7.97229 6.01446 8.59971 6.01446C9.16441 6.01446 9.47815 6.2027 9.63499 6.67329C9.66639 6.76741 9.7605 6.83013 9.85462 6.83013H10.3565C10.482 6.83013 10.5762 6.73601 10.5762 6.61057V6.57917C10.4506 5.88895 9.88594 5.35564 9.16441 5.29292V4.53997C9.16441 4.41446 9.07029 4.32034 8.91346 4.28894H8.44287C8.31736 4.28894 8.22324 4.38306 8.19185 4.53997V5.26152C7.25068 5.38703 6.65466 6.01446 6.65466 6.7988C6.65466 7.8341 7.28208 8.2419 8.59971 8.39881C9.47815 8.55565 9.7605 8.74389 9.7605 9.24587C9.7605 9.74786 9.32124 10.0929 8.72522 10.0929C7.9095 10.0929 7.62715 9.74779 7.53303 9.27719C7.50171 9.15175 7.40759 9.08896 7.31348 9.08896H6.7801C6.65466 9.08896 6.56055 9.18308 6.56055 9.30859V9.33999C6.68599 10.1243 7.18796 10.689 8.22324 10.8459V11.5988C8.22324 11.7243 8.31736 11.8184 8.4742 11.8498H8.94478C9.07029 11.8498 9.16441 11.7557 9.19581 11.5988V10.8459C10.137 10.689 10.7644 10.0301 10.7644 9.18308Z" fill="white"/>
<path d="M7.09363 12.4774C4.64657 11.599 3.39164 8.8696 4.30149 6.45387C4.77208 5.13622 5.80738 4.13232 7.09363 3.66173C7.21914 3.59901 7.28186 3.5049 7.28186 3.34798V2.90879C7.28186 2.78328 7.21914 2.68916 7.09363 2.65784C7.06223 2.65784 6.99951 2.65784 6.96811 2.68916C3.98774 3.63034 2.35635 6.79901 3.29752 9.77938C3.86223 11.5362 5.21127 12.8853 6.96811 13.45C7.09363 13.5127 7.21914 13.45 7.25046 13.3245C7.28186 13.2931 7.28186 13.2617 7.28186 13.199V12.7597C7.28186 12.6656 7.18774 12.5402 7.09363 12.4774ZM10.4191 2.68916C10.2936 2.62644 10.1681 2.68916 10.1368 2.81467C10.1054 2.84607 10.1054 2.87739 10.1054 2.94019V3.37938C10.1054 3.5049 10.1995 3.63034 10.2936 3.69313C12.7407 4.57151 13.9956 7.30092 13.0858 9.71666C12.6152 11.0343 11.5799 12.0382 10.2936 12.5088C10.1681 12.5715 10.1054 12.6656 10.1054 12.8225V13.2617C10.1054 13.3872 10.1681 13.4814 10.2936 13.5127C10.325 13.5127 10.3877 13.5127 10.4191 13.4814C13.3995 12.5402 15.0309 9.37151 14.0897 6.39115C13.525 4.60291 12.1446 3.25387 10.4191 2.68916Z" fill="white"/>
</g>
<defs>
<clipPath id="clip0_2_3735">
<rect width="16" height="16" fill="white" transform="translate(0.814453 0.000244141)"/>
</clipPath>
</defs>
</svg>
