<svg width="17" height="16" viewBox="0 0 17 16" fill="none" xmlns="http://www.w3.org/2000/svg">
<g clip-path="url(#clip0_2_3736)">
<path d="M8.81445 16.0002C13.2327 16.0002 16.8145 12.4185 16.8145 8.00024C16.8145 3.58197 13.2327 0.000244141 8.81445 0.000244141C4.39617 0.000244141 0.814453 3.58197 0.814453 8.00024C0.814453 12.4185 4.39617 16.0002 8.81445 16.0002Z" fill="#25AAE1"/>
<path fill-rule="evenodd" clip-rule="evenodd" d="M8.9879 12.4969C8.1679 12.5059 7.4794 12.3579 6.8304 12.0354C6.7904 12.0154 6.7604 12.0144 6.7204 12.0369C6.3262 12.2597 5.89343 12.406 5.4449 12.4679C5.2529 12.4929 5.0589 12.5199 4.8659 12.4804C4.74705 12.4571 4.63655 12.4026 4.54571 12.3225C4.45487 12.2424 4.38697 12.1396 4.34896 12.0246C4.31095 11.9096 4.3042 11.7865 4.32941 11.6681C4.35461 11.5496 4.41086 11.44 4.4924 11.3504C4.72152 11.0902 4.89355 10.7848 4.9974 10.4539C5.0035 10.4374 5.00546 10.4197 5.00311 10.4023C5.00076 10.3848 4.99416 10.3682 4.9839 10.3539C4.62994 9.79209 4.41136 9.15569 4.3454 8.49494C4.1984 7.03394 4.6529 5.78244 5.7004 4.75644C6.35964 4.10344 7.21276 3.6817 8.1319 3.55444C9.4004 3.36894 10.5564 3.66194 11.5719 4.44844C12.4779 5.15044 13.0419 6.07494 13.2384 7.20394C13.4874 8.63294 13.1269 9.90594 12.1684 10.9939C11.4599 11.7979 10.5599 12.2754 9.5009 12.4449C9.2999 12.4774 9.0959 12.4864 8.9879 12.4969ZM5.7729 11.3029C5.8054 11.2939 5.8244 11.2889 5.8429 11.2829C6.12728 11.1869 6.39586 11.0492 6.6399 10.8744C6.8159 10.7504 6.9894 10.7444 7.1749 10.8504C7.5729 11.0784 7.9994 11.2204 8.4569 11.2689C9.2004 11.3484 9.9019 11.2069 10.5294 10.8039C11.6144 10.1079 12.1544 9.10594 12.0959 7.80844C12.0584 6.97744 11.7329 6.25994 11.1434 5.67544C10.4329 4.97144 9.5684 4.65044 8.5669 4.71944C7.8919 4.76644 7.2819 4.99844 6.7624 5.43194C5.7559 6.27194 5.3674 7.34894 5.5904 8.64044C5.6634 9.06544 5.8329 9.45544 6.0719 9.81544C6.1175 9.87977 6.14874 9.95316 6.1635 10.0306C6.17825 10.1081 6.17617 10.1878 6.1574 10.2644C6.10024 10.5131 6.01989 10.7558 5.9174 10.9894C5.8729 11.0909 5.8249 11.1904 5.7734 11.3029H5.7729ZM8.8184 6.09694L9.1034 6.67544C9.2034 6.88044 9.3064 7.08544 9.4034 7.29244C9.4284 7.34644 9.4619 7.36544 9.5179 7.37294C9.9379 7.43144 10.3574 7.49294 10.7769 7.55344C10.7914 7.55594 10.8059 7.55994 10.8239 7.56344C10.7464 7.64344 10.6744 7.72144 10.5989 7.79494C10.3619 8.02644 10.1244 8.25694 9.8854 8.48594C9.8439 8.52594 9.8274 8.56344 9.8384 8.62494C9.9134 9.04644 9.9834 9.46894 10.0544 9.89144C10.0559 9.90194 10.0559 9.91294 10.0574 9.93344C10.0344 9.92444 10.0169 9.91894 10.0009 9.91044C9.6299 9.71494 9.2584 9.51994 8.8889 9.32144C8.8389 9.29444 8.7999 9.29194 8.7479 9.31994C8.3759 9.51844 8.0024 9.71394 7.6289 9.90994C7.6139 9.91844 7.5979 9.92494 7.5689 9.93894C7.5874 9.82544 7.6034 9.72394 7.6209 9.62294C7.6799 9.28194 7.7384 8.94044 7.8009 8.59994C7.8099 8.54994 7.7819 8.52644 7.7539 8.49894C7.45618 8.2063 7.15785 7.9143 6.8589 7.62294C6.8419 7.60594 6.8179 7.59644 6.7969 7.58344L6.8124 7.55944L7.2704 7.49344C7.5584 7.45244 7.8459 7.41044 8.1344 7.37094C8.1804 7.36444 8.2014 7.33994 8.2204 7.30094C8.4089 6.91644 8.5994 6.53294 8.7889 6.14894C8.7959 6.13544 8.8039 6.12294 8.8189 6.09694H8.8184Z" fill="white"/>
</g>
<defs>
<clipPath id="clip0_2_3736">
<rect width="16" height="16" fill="white" transform="translate(0.814453 0.000244141)"/>
</clipPath>
</defs>
</svg>
