<svg width="18" height="16" viewBox="0 0 18 16" fill="none" xmlns="http://www.w3.org/2000/svg">
<g clip-path="url(#clip0_2_3739)">
<path d="M8.07161 15.2801L0.822337 0.514659C0.704539 0.279062 0.88166 0.000244141 1.14268 0.000244141H3.65459C3.78933 0.000244141 3.91561 0.0765165 3.97493 0.194315L9.26908 10.9063C9.74112 11.8674 11.1064 11.8674 11.5784 10.9063L16.8556 0.20279C16.915 0.0849912 17.0412 0.00871885 17.176 0.00871885H17.4879C17.6735 0.00871885 17.7913 0.20279 17.7074 0.362962L10.3818 15.2801C9.90977 16.2403 8.54365 16.2403 8.07161 15.2801Z" fill="url(#paint0_linear_2_3739)"/>
<path opacity="0.1" d="M8.07103 15.2801L3.97435 0.202738C3.91503 0.0764647 3.78028 0.00866699 3.67096 0.00866699H1.15058C0.872607 0.00866699 0.712435 0.286638 0.821759 0.523082L8.07103 15.2801Z" fill="white"/>
<path opacity="0.1" d="M9.26946 10.914L0.822717 0.514659C0.721868 0.270587 0.873566 0.0256683 1.10916 0.000244141H3.66344C3.80666 0.00871885 3.91599 0.101093 3.96684 0.194315L9.26946 10.914Z" fill="white"/>
</g>
<defs>
<linearGradient id="paint0_linear_2_3739" x1="0.785133" y1="8.00029" x2="17.7349" y2="8.00029" gradientUnits="userSpaceOnUse">
<stop stop-color="#9D4ABE"/>
<stop offset="0.03" stop-color="#9055C4"/>
<stop offset="0.15" stop-color="#6B74D6"/>
<stop offset="0.26" stop-color="#4C8FE5"/>
<stop offset="0.39" stop-color="#34A3F0"/>
<stop offset="0.52" stop-color="#22B2F9"/>
<stop offset="0.66" stop-color="#18BAFD"/>
<stop offset="0.83" stop-color="#15BDFF"/>
<stop offset="1" stop-color="#28BAD5"/>
</linearGradient>
<clipPath id="clip0_2_3739">
<rect width="16.9498" height="16" fill="white" transform="translate(0.785156 0.000244141)"/>
</clipPath>
</defs>
</svg>
