<svg width="17" height="16" viewBox="0 0 17 16" fill="none" xmlns="http://www.w3.org/2000/svg">
<g clip-path="url(#clip0_2_3744)">
<path fill-rule="evenodd" clip-rule="evenodd" d="M14.1179 2.29795C14.0719 2.25377 14.0254 2.21044 13.9785 2.16794L8.45433 9.8972L6.34354 7.17726H2.90764L1.94206 8.28793H3.73854L8.02769 13.8866C8.17084 14.0225 8.31305 14.0905 8.45433 14.0905C8.5956 14.0905 8.73035 14.0225 8.85859 13.8866L15.6403 4.41192C15.6011 4.3308 15.5605 4.25046 15.5186 4.1709C16.1338 5.30824 16.4835 6.61304 16.4835 8.0002C16.4835 12.4181 12.9365 16.0002 8.56103 16.0002C4.18557 16.0002 0.638672 12.4185 0.638672 8.0002C0.638672 3.58187 4.18614 0.000244141 8.56122 0.000244141C10.7259 0.000244141 12.688 0.877001 14.1179 2.29795Z" fill="#048657"/>
<path fill-rule="evenodd" clip-rule="evenodd" d="M1.94141 8.28807L2.90699 7.17741H6.34288L8.45367 9.89735L13.9779 2.16809C14.3069 2.46612 14.6138 2.8062 14.8986 3.18834C15.1843 3.57165 15.4324 3.98151 15.6397 4.41226L8.85793 13.8867C8.72976 14.0227 8.59501 14.0907 8.45367 14.0907C8.31233 14.0907 8.17012 14.0227 8.02704 13.8867L3.73788 8.28807H1.94141Z" fill="white"/>
</g>
<defs>
<clipPath id="clip0_2_3744">
<rect width="15.845" height="16" fill="white" transform="translate(0.638672 0.000244141)"/>
</clipPath>
</defs>
</svg>
