<svg width="17" height="16" viewBox="0 0 17 16" fill="none" xmlns="http://www.w3.org/2000/svg">
<g clip-path="url(#clip0_2_3746)">
<path d="M8.48438 16.0002C12.9027 16.0002 16.4844 12.4185 16.4844 8.00024C16.4844 3.58197 12.9027 0.000244141 8.48438 0.000244141C4.0661 0.000244141 0.484375 3.58197 0.484375 8.00024C0.484375 12.4185 4.0661 16.0002 8.48438 16.0002Z" fill="#565656"/>
<path d="M6.05088 7.14824H4.48688V6.28874H5.72188L4.77437 3.81374L5.55638 3.50024L7.33138 8.13374L9.63188 8.14874L11.4124 3.50024L12.1949 3.81374L11.2469 6.28874H12.4819V7.14874H10.9179L10.5324 8.15374L12.4844 8.16624L12.4794 9.02574L10.2044 9.01124L8.48438 13.5002L6.75637 8.98974L4.48438 8.97474L4.48938 8.11574L6.42637 8.12824L6.05088 7.14824ZM7.66087 8.99524L8.48438 11.1442L9.30338 9.00574L7.66087 8.99524Z" fill="white"/>
</g>
<defs>
<clipPath id="clip0_2_3746">
<rect width="16" height="16" fill="white" transform="translate(0.484375 0.000244141)"/>
</clipPath>
</defs>
</svg>
