<svg width="17" height="16" viewBox="0 0 17 16" fill="none" xmlns="http://www.w3.org/2000/svg">
<g clip-path="url(#clip0_2_3747)">
<path d="M8.48438 16.0002C12.9027 16.0002 16.4844 12.4185 16.4844 8.00024C16.4844 3.58197 12.9027 0.000244141 8.48438 0.000244141C4.0661 0.000244141 0.484375 3.58197 0.484375 8.00024C0.484375 12.4185 4.0661 16.0002 8.48438 16.0002Z" fill="#338BE5"/>
<path d="M11.7992 8.45924C12.1642 8.55724 12.5242 8.67074 12.8482 8.87024C12.9922 8.95874 13.1267 9.06274 13.2482 9.17974C13.4282 9.37974 13.4162 9.59074 13.2522 9.80224C13.1082 9.98624 12.9122 10.1037 12.7037 10.2017C12.1757 10.4562 11.6157 10.6012 11.0437 10.6872C10.5792 10.7572 10.1072 10.7972 9.63868 10.8557C9.61666 10.8604 9.59578 10.8694 9.57725 10.8822C9.55871 10.895 9.54289 10.9113 9.53068 10.9302C9.20268 11.4192 8.87868 11.9087 8.55068 12.3982C8.52433 12.4305 8.50027 12.4646 8.47868 12.5002C8.13225 11.9804 7.78941 11.4583 7.45018 10.9337C7.43588 10.9092 7.41548 10.8887 7.39095 10.8743C7.36642 10.86 7.3386 10.8522 7.31018 10.8517C6.37368 10.7852 5.44968 10.6637 4.56518 10.3467C4.28518 10.2487 4.01718 10.1272 3.78518 9.94324C3.77268 9.93124 3.75668 9.92324 3.74518 9.91174C3.40518 9.62624 3.39668 9.32074 3.72518 9.02674C3.98518 8.79174 4.30518 8.65874 4.63718 8.55674C4.96918 8.45474 5.30518 8.38074 5.64168 8.29474C5.65768 8.29074 5.67368 8.29074 5.70168 8.28274C4.97718 7.17474 4.26118 6.07824 3.52868 4.96624C3.57268 4.96224 3.60468 4.95824 3.63268 4.95824C4.08518 4.95424 4.53718 4.95824 4.98918 4.95424C5.02113 4.95232 5.05295 4.95983 5.08069 4.97583C5.10842 4.99183 5.13084 5.01562 5.14518 5.04424C6.24018 6.71424 7.33418 8.38474 8.42668 10.0567C8.44272 10.0847 8.46147 10.111 8.48268 10.1352C8.73468 9.75524 8.97868 9.39124 9.21868 9.02674C10.0987 7.69674 10.9792 6.36824 11.8597 5.04074C11.8917 4.99374 11.9157 4.95824 11.9877 4.95824C12.4637 4.96224 12.9402 4.96224 13.4162 4.96224C13.4387 4.96224 13.4612 4.96324 13.4842 4.96624C12.7412 6.08717 11.9969 7.20717 11.2512 8.32624C11.4397 8.37274 11.6197 8.41224 11.7997 8.45924H11.7992ZM4.93318 9.39924C5.02618 9.50274 5.13568 9.59174 5.25718 9.66124C5.75718 9.92774 6.30968 10.0252 6.88218 10.1112C6.87418 10.0842 6.87418 10.0722 6.87018 10.0647C6.54568 9.57474 6.22568 9.08174 5.90168 8.59224C5.88867 8.57948 5.87284 8.56997 5.85546 8.56449C5.83808 8.55902 5.81965 8.55773 5.80168 8.56074C5.61168 8.62324 5.42568 8.69774 5.24518 8.78424C5.12833 8.84862 5.02401 8.93347 4.93718 9.03474C4.88864 9.08263 4.86099 9.14775 4.86024 9.21592C4.85949 9.2841 4.88571 9.34981 4.93318 9.39874V9.39924ZM11.2352 9.82174C11.4532 9.76286 11.6528 9.64967 11.8152 9.49274C11.9757 9.33274 11.9757 9.15224 11.8152 8.98774C11.7755 8.9448 11.7299 8.90776 11.6797 8.87774C11.5077 8.79174 11.3277 8.70974 11.1512 8.62374C11.0912 8.59224 11.0552 8.61574 11.0192 8.67074C10.8312 8.96074 10.6392 9.24574 10.4472 9.53224C10.3272 9.71224 10.2072 9.89624 10.0832 10.0842C10.1151 10.0883 10.1473 10.0883 10.1792 10.0842C10.5312 9.99824 10.8872 9.91974 11.2352 9.82174ZM11.2392 4.50024L8.49868 8.86624L5.72168 4.50024H11.2392Z" fill="white"/>
</g>
<defs>
<clipPath id="clip0_2_3747">
<rect width="16" height="16" fill="white" transform="translate(0.484375 0.000244141)"/>
</clipPath>
</defs>
</svg>
