<svg width="17" height="16" viewBox="0 0 17 16" fill="none" xmlns="http://www.w3.org/2000/svg">
<g clip-path="url(#clip0_2_3750)">
<path d="M8.49023 16.0002C12.9085 16.0002 16.4902 12.4185 16.4902 8.00024C16.4902 3.58197 12.9085 0.000244141 8.49023 0.000244141C4.07196 0.000244141 0.490234 3.58197 0.490234 8.00024C0.490234 12.4185 4.07196 16.0002 8.49023 16.0002Z" fill="#B80000"/>
<path d="M13.4367 5.69374C13.5147 5.82624 13.5042 5.96524 13.4267 6.10124C13.3107 6.28624 13.2037 6.47474 13.0932 6.66124C12.7902 7.17924 12.4872 7.69724 12.1832 8.21524C11.5764 9.24592 10.9691 10.2763 10.3612 11.3062C10.3271 11.3695 10.2754 11.4215 10.2122 11.4559C10.1491 11.4903 10.0773 11.5055 10.0057 11.4997C9.85218 11.4927 9.74318 11.4167 9.67068 11.2842C9.59618 11.1517 9.51868 11.0207 9.44068 10.8887C9.18568 10.4527 8.92968 10.0177 8.67418 9.58324C8.61718 9.48474 8.55868 9.38824 8.49318 9.27924C8.42918 9.38774 8.36868 9.48424 8.31168 9.58324L7.54518 10.8882C7.46688 11.0193 7.39021 11.1513 7.31518 11.2842C7.24268 11.4167 7.13418 11.4927 6.98018 11.4997C6.90858 11.5051 6.83696 11.4897 6.7739 11.4554C6.71084 11.4211 6.65903 11.3693 6.62468 11.3062C6.33618 10.8207 6.05118 10.3352 5.76468 9.84774C5.44291 9.30422 5.12225 8.76006 4.80268 8.21524C4.50018 7.69724 4.19668 7.17924 3.89268 6.66124C3.78268 6.47474 3.67368 6.28624 3.55968 6.10124C3.47668 5.96524 3.46468 5.82624 3.54218 5.69374C3.61818 5.56324 3.74068 5.50024 3.89818 5.50024C4.88218 5.50374 5.86668 5.51024 6.85068 5.50174C7.09918 5.50024 7.24768 5.59524 7.36368 5.80224C7.61218 6.24574 7.87668 6.67824 8.13218 7.11674C8.23918 7.30174 8.34468 7.48824 8.45318 7.67324C8.46168 7.68674 8.47568 7.69724 8.48818 7.70874C8.50153 7.69922 8.51305 7.68737 8.52218 7.67374C8.62968 7.48874 8.73468 7.30174 8.84368 7.11674C9.10068 6.67824 9.36368 6.24374 9.61218 5.80224C9.72768 5.59524 9.87618 5.50024 10.1247 5.50224C11.1092 5.51024 12.0932 5.50374 13.0777 5.50024C13.2382 5.50024 13.3607 5.56324 13.4367 5.69374ZM8.01518 8.57124C8.0248 8.55088 8.02992 8.52868 8.03018 8.50616C8.03044 8.48364 8.02583 8.46132 8.01668 8.44074C7.96668 8.33874 7.90068 8.24224 7.84218 8.14174C7.49018 7.54074 7.13768 6.94174 6.78718 6.33924C6.75118 6.27774 6.70968 6.25574 6.63718 6.25574C5.98118 6.25924 5.32468 6.25924 4.66868 6.26074C4.63768 6.26074 4.60668 6.26574 4.56168 6.26924C5.36268 7.63574 6.15668 8.99224 6.96018 10.3622C7.02918 10.2472 7.08768 10.1552 7.14318 10.0602C7.43618 9.56524 7.72668 9.06874 8.01518 8.57124ZM10.0202 10.3622C10.8227 8.99224 11.6172 7.63574 12.4202 6.26924C12.3737 6.26574 12.3442 6.26074 12.3132 6.26074C11.6567 6.25924 11.0007 6.25924 10.3447 6.25574C10.2722 6.25574 10.2307 6.27774 10.1947 6.33874C9.84345 6.94 9.49178 7.541 9.13968 8.14174C9.08068 8.24024 9.01668 8.33674 8.96468 8.44074C8.95532 8.46122 8.95048 8.48348 8.95048 8.50599C8.95048 8.52851 8.95532 8.55076 8.96468 8.57124C9.25468 9.06824 9.54518 9.56474 9.83718 10.0602C9.89218 10.1552 9.95118 10.2487 10.0202 10.3622Z" fill="white"/>
</g>
<defs>
<clipPath id="clip0_2_3750">
<rect width="16" height="16" fill="white" transform="translate(0.490234 0.000244141)"/>
</clipPath>
</defs>
</svg>
