<svg width="24" height="16" viewBox="0 0 24 16" fill="none" xmlns="http://www.w3.org/2000/svg">
<g clip-path="url(#clip0_2_3751)">
<path d="M6.80762 10.6114L1.23271 12.2839L1.04688 1.69156L6.62179 0.390747L6.80762 10.6114Z" fill="#8400FD"/>
<path d="M1.60522 12.6549C1.36364 12.6549 1.14064 12.5806 0.936227 12.4505C0.657482 12.2647 0.490234 11.9674 0.490234 11.6515V2.02544C0.490234 1.56086 0.843312 1.17062 1.32647 1.05912L5.87932 0.0370512C6.2324 -0.037281 6.60406 0.0184682 6.90138 0.222882C7.19871 0.427295 7.36596 0.743207 7.36596 1.0777V10.425C7.36596 10.8895 7.01288 11.317 6.51114 11.447L1.92113 12.6178C1.80963 12.6364 1.71672 12.6549 1.60522 12.6549ZM5.6749 1.17062C5.61915 1.17062 5.54482 1.17062 5.48907 1.1892L1.95829 2.08119C1.64238 2.15552 1.4008 2.45285 1.4008 2.78734V11.1497C1.4008 11.3727 1.5123 11.5957 1.69813 11.7258C1.88396 11.8559 2.10696 11.9116 2.32996 11.8373L5.8979 10.8152C6.2324 10.7223 6.47397 10.4064 6.47397 10.0533V1.9511C6.47397 1.70953 6.36248 1.48653 6.17665 1.33786C6.0094 1.22637 5.84215 1.17062 5.6749 1.17062Z" fill="white"/>
<path d="M10.71 14.1423L5.13505 15.8148L4.94922 5.22244L10.5241 3.92163L10.71 14.1423Z" fill="#02FFDB"/>
<path d="M5.63736 15.9818C5.41436 15.9818 5.19137 15.9075 5.00553 15.7774C4.74537 15.5916 4.57812 15.3128 4.57812 14.9969V5.6868C4.57812 5.24081 4.91262 4.85056 5.3772 4.75765L9.68846 3.77275C10.023 3.69841 10.376 3.77275 10.6548 3.95858C10.9335 4.16299 11.0822 4.46032 11.0822 4.77623V13.8262C11.0822 14.2907 10.7477 14.6996 10.2645 14.8111L5.9161 15.9446C5.82319 15.9632 5.73027 15.9818 5.63736 15.9818ZM9.57696 4.51607C9.52121 4.51607 9.44688 4.51607 9.39113 4.53465L5.86035 5.42664C5.54444 5.50097 5.30286 5.7983 5.30286 6.13279V14.4952C5.30286 14.7182 5.41436 14.9412 5.60019 15.0712C5.78602 15.2013 6.00902 15.2571 6.23202 15.1827L9.79996 14.1607C10.1345 14.0678 10.376 13.7518 10.376 13.3988V5.29656C10.376 5.05498 10.2645 4.83198 10.0787 4.68332C9.91146 4.57182 9.74421 4.51607 9.57696 4.51607Z" fill="white"/>
<path d="M14.9854 10.7973L9.41044 12.4698L9.22461 1.87747L14.7995 0.57666L14.9854 10.7973Z" fill="#8400FD"/>
<path d="M9.91275 12.6552C9.68975 12.6552 9.46676 12.5809 9.28093 12.4508C9.02076 12.265 8.85352 11.9862 8.85352 11.6703V2.32303C8.85352 1.87704 9.18801 1.48679 9.65259 1.39388L13.9453 0.408978C14.2798 0.334645 14.6328 0.408977 14.9116 0.594808C15.1903 0.799221 15.339 1.09655 15.339 1.41246V10.481C15.339 10.9456 15.0045 11.3544 14.5213 11.4659L10.1915 12.5995C10.0986 12.6366 10.0057 12.6552 9.91275 12.6552ZM13.8524 1.17088C13.7966 1.17088 13.7223 1.17088 13.6665 1.18947L10.1172 2.08145C9.80125 2.15578 9.55967 2.45311 9.55967 2.78761V11.15C9.55967 11.373 9.67117 11.596 9.857 11.7261C10.0428 11.8561 10.2844 11.9119 10.5074 11.8375L14.0568 10.8155C14.3913 10.7226 14.6328 10.4067 14.6328 10.0536V1.95137C14.6328 1.70979 14.5213 1.48679 14.3355 1.33813C14.1868 1.22663 14.0196 1.17088 13.8524 1.17088Z" fill="white"/>
<path d="M19.2588 14.1423L13.6839 15.8148L13.498 5.22244L19.073 3.92163L19.2588 14.1423Z" fill="#02FFDB"/>
<path d="M14.0564 15.9999C13.8148 15.9999 13.5918 15.9256 13.3874 15.7955C13.1087 15.6097 12.9414 15.3123 12.9414 14.9964V5.37041C12.9414 4.90583 13.2945 4.51559 13.7776 4.40409L18.3305 3.38202C18.6836 3.30769 19.0552 3.36344 19.3526 3.56785C19.6499 3.77227 19.8171 4.08818 19.8171 4.40409V13.7514C19.8171 14.2159 19.4641 14.6433 18.9623 14.7734L14.3723 15.9442C14.2608 15.9813 14.1679 15.9999 14.0564 15.9999ZM18.1261 4.51559C18.0703 4.51559 17.996 4.51559 17.9402 4.53417L14.4095 5.42616C14.0936 5.50049 13.852 5.79782 13.852 6.13231V14.4947C13.852 14.7177 13.9635 14.9407 14.1493 15.0708C14.3351 15.2008 14.5581 15.2566 14.7811 15.1823L18.3491 14.1602C18.6836 14.0673 18.9251 13.7514 18.9251 13.3983V5.29608C18.9251 5.0545 18.8136 4.8315 18.6278 4.68283C18.4606 4.57134 18.2933 4.51559 18.1261 4.51559Z" fill="white"/>
<path d="M23.5342 10.6114L17.9593 12.2839L17.7734 1.69156L23.3484 0.390747L23.5342 10.6114Z" fill="#8400FD"/>
<path d="M18.1443 12.6549C17.9027 12.6549 17.6797 12.5806 17.4753 12.4505C17.1965 12.2647 17.0293 11.9674 17.0293 11.6515V2.02544C17.0293 1.56086 17.3824 1.17062 17.8655 1.05912L22.4184 0.0370512C22.7715 -0.037281 23.1431 0.0184682 23.4404 0.222882C23.7378 0.427295 23.905 0.743207 23.905 1.05912V10.4064C23.905 10.871 23.5519 11.2984 23.0502 11.4285L18.4602 12.5992C18.3487 12.6364 18.2558 12.6549 18.1443 12.6549ZM22.214 1.17062C22.1582 1.17062 22.0839 1.17062 22.0281 1.1892L18.4974 2.08119C18.1814 2.15552 17.9399 2.45285 17.9399 2.78734V11.1497C17.9399 11.3727 18.0514 11.5957 18.2372 11.7258C18.423 11.8559 18.646 11.9116 18.869 11.8373L22.437 10.8152C22.7715 10.7223 23.013 10.4064 23.013 10.0533V1.9511C23.013 1.70953 22.9015 1.48653 22.7157 1.33786C22.5485 1.22637 22.3812 1.17062 22.214 1.17062Z" fill="white"/>
</g>
<defs>
<clipPath id="clip0_2_3751">
<rect width="23.4146" height="16" fill="white" transform="translate(0.490234 0.000244141)"/>
</clipPath>
</defs>
</svg>
