<svg width="16" height="16" viewBox="0 0 16 16" fill="none" xmlns="http://www.w3.org/2000/svg">
<g clip-path="url(#clip0_2_3752)">
<path d="M8 16.0002C12.4183 16.0002 16 12.4185 16 8.00024C16 3.58197 12.4183 0.000244141 8 0.000244141C3.58172 0.000244141 0 3.58197 0 8.00024C0 12.4185 3.58172 16.0002 8 16.0002Z" fill="#136AAD"/>
<path fill-rule="evenodd" clip-rule="evenodd" d="M3.5 5.54524L4.8335 6.11024V9.28674L8 7.39324L11.197 9.28674V6.11024L12.5 5.54524V11.5322L8 8.87474L3.5 11.5322V5.54524ZM3.6515 5.30074L8 2.75024L12.379 5.30074L11.197 5.78974L8 3.94174L4.8335 5.78974L3.6515 5.30074ZM4.591 11.2112L5.576 10.6462L8.015 12.0587L10.424 10.6462L11.439 11.2112L8.015 13.2502L4.591 11.2112Z" fill="white"/>
</g>
<defs>
<clipPath id="clip0_2_3752">
<rect width="16" height="16" fill="white" transform="translate(0 0.000244141)"/>
</clipPath>
</defs>
</svg>
