<svg width="16" height="16" viewBox="0 0 16 16" fill="none" xmlns="http://www.w3.org/2000/svg">
<g clip-path="url(#clip0_2_3754)">
<path d="M8 16.0002C12.4183 16.0002 16 12.4185 16 8.00024C16 3.58197 12.4183 0.000244141 8 0.000244141C3.58172 0.000244141 0 3.58197 0 8.00024C0 12.4185 3.58172 16.0002 8 16.0002Z" fill="#F89022"/>
<path fill-rule="evenodd" clip-rule="evenodd" d="M14 9.48124H12.818L11.9795 8.76324L11.144 9.47824H10.145L9.6675 8.89824H8.0215L8.438 8.38374H9.2475L8.631 7.62974L6.4785 10.2502H5.48L6.103 9.48924H5.0625L4.5 7.91224L3.942 9.47724H2.8865L2 7.02074H2.81L3.406 8.69374L4 7.02824H5L5.5925 8.69024L6.1845 7.02774H6.997L6.103 9.48924L6.302 9.24624L8.128 7.02374H9.133L10.6525 8.87774L11.3835 8.24924L9.07 6.25024H10.2575L14 9.48124ZM12.8275 7.99524L12.27 7.51724L12.8265 7.04324L13.9515 7.04424L12.8275 7.99524Z" fill="white"/>
</g>
<defs>
<clipPath id="clip0_2_3754">
<rect width="16" height="16" fill="white" transform="translate(0 0.000244141)"/>
</clipPath>
</defs>
</svg>
