<svg width="17" height="16" viewBox="0 0 17 16" fill="none" xmlns="http://www.w3.org/2000/svg">
<g clip-path="url(#clip0_2_3757)">
<path d="M8.4082 16.0002C12.8265 16.0002 16.4082 12.4185 16.4082 8.00024C16.4082 3.58197 12.8265 0.000244141 8.4082 0.000244141C3.98992 0.000244141 0.408203 3.58197 0.408203 8.00024C0.408203 12.4185 3.98992 16.0002 8.4082 16.0002Z" fill="#0DC9F7"/>
<path d="M9.85956 7.86939L8.33706 9.05139L7.71356 6.88889L4.10156 5.92139L8.84206 6.16489L9.85956 7.86939Z" fill="white" fill-opacity="0.305"/>
<path d="M4.54297 11.9967L12.701 5.66516L13.408 7.23816L12.4805 6.98166L12.448 8.61366L4.54297 11.9967Z" fill="white" fill-opacity="0.7"/>
<path d="M11.8062 8.89024L9.4327 4.80974L3.4082 4.50024L7.9997 5.73074L9.2447 9.97574L11.8062 8.89024Z" fill="white"/>
</g>
<defs>
<clipPath id="clip0_2_3757">
<rect width="16" height="16" fill="white" transform="translate(0.408203 0.000244141)"/>
</clipPath>
</defs>
</svg>
