<svg width="16" height="16" viewBox="0 0 16 16" fill="none" xmlns="http://www.w3.org/2000/svg">
<g clip-path="url(#clip0_2_3760)">
<path d="M8.15265 9.53422H8.17692L15.541 5.94199V6.98083L9.60896 9.86918L15.5313 11.3255V12.2964L8.30313 10.51L0.90022 14.1216V13.107L8.15265 9.53422ZM8.15265 5.51481L15.541 1.91287V2.9517L0.871094 10.1022V9.06335L6.83226 6.15073L0.871094 4.69927V3.7284L8.15265 5.51481ZM0.871094 0.000244141L8.24003 1.79636V2.76723L0.871094 0.971118V0.000244141ZM0.871094 2.8352V1.86432L8.24973 3.67015V4.64102L0.871094 2.8352ZM0.871094 11.0876L15.541 3.92743V4.96626L0.871094 12.107V11.0876ZM15.5313 14.1507L8.15265 12.3449V11.374L15.5216 13.175L15.5313 14.1507ZM8.15265 14.2041V13.2333L15.541 15.0488V16.0197L8.15265 14.2041Z" fill="#FF0033"/>
</g>
<defs>
<clipPath id="clip0_2_3760">
<rect width="14.6893" height="16" fill="white" transform="translate(0.871094 0.000244141)"/>
</clipPath>
</defs>
</svg>
