<svg width="20" height="16" viewBox="0 0 20 16" fill="none" xmlns="http://www.w3.org/2000/svg">
<g clip-path="url(#clip0_2_3762)">
<path d="M16.0809 0.894531H18.7091L13.2396 6.31002C11.2589 8.27016 8.04751 8.27016 6.06536 6.31002L0.59375 0.894531H3.22407L7.37946 5.00836C7.98489 5.60507 8.80082 5.93957 9.65089 5.93957C10.501 5.93957 11.3169 5.60507 11.9223 5.00836L16.0809 0.894531Z" fill="#23292F"/>
<path d="M3.19051 15.9533H0.560547L6.06554 10.5044C8.04627 8.54427 11.2576 8.54427 13.2398 10.5044L18.7448 15.9533H16.1166L11.9257 11.8061C11.3203 11.2094 10.5043 10.8749 9.65427 10.8749C8.8042 10.8749 7.98827 11.2094 7.38283 11.8061L3.19051 15.9533Z" fill="#23292F"/>
</g>
<defs>
<clipPath id="clip0_2_3762">
<rect width="18.8235" height="16" fill="white" transform="translate(0.560547 0.000244141)"/>
</clipPath>
</defs>
</svg>
