<svg width="16" height="16" viewBox="0 0 16 16" fill="none" xmlns="http://www.w3.org/2000/svg">
<g clip-path="url(#clip0_2_3765)">
<path d="M7.99349 14.7339C4.56248 14.7339 1.76172 11.9303 1.76172 8.50215C1.76172 5.07115 4.56531 2.27039 7.99349 2.27039C11.4245 2.27039 14.2252 5.07398 14.2252 8.50215C14.2252 11.9332 11.4245 14.7339 7.99349 14.7339Z" fill="url(#paint0_linear_2_3765)"/>
<path d="M7.91418 15.9534C3.773 15.9534 0.384766 12.5651 0.384766 8.42394C0.384766 4.28277 3.773 0.894531 7.91418 0.894531C12.0554 0.894531 15.4436 4.28277 15.4436 8.42394C15.4436 12.5651 12.0554 15.9534 7.91418 15.9534ZM7.91418 2.56871C4.69424 2.56871 2.05895 5.20401 2.05895 8.42394C2.05895 11.6439 4.69424 14.2792 7.91418 14.2792C11.1341 14.2792 13.7694 11.6439 13.7694 8.42394C13.7694 5.20401 11.1341 2.56871 7.91418 2.56871Z" fill="black"/>
<path d="M7.74022 10.4635H11.0029V12.0949H9.07785V13.4753H7.40369V12.1377H5.39588C5.39588 11.5929 5.31318 11.051 5.43865 10.5491C5.48142 10.2981 5.77235 10.0471 5.98335 9.79616C6.61082 9.04322 7.23828 8.29028 7.90851 7.53733C8.15945 7.24357 8.41045 6.99257 8.70421 6.65892H5.56701V5.02751H7.40652V3.64734H9.03791V4.98456H11.0457C11.0457 5.52927 11.1284 6.07121 11.0029 6.57315C10.9602 6.82415 10.6693 7.07509 10.4582 7.32609C9.83078 8.07903 9.20332 8.83197 8.53309 9.58491C8.28203 9.87886 8.03115 10.1697 7.74022 10.4635Z" fill="black"/>
</g>
<defs>
<linearGradient id="paint0_linear_2_3765" x1="3.71466" y1="12.7754" x2="12.3174" y2="4.17265" gradientUnits="userSpaceOnUse">
<stop stop-color="#CF8724"/>
<stop offset="1" stop-color="#FDCE58"/>
</linearGradient>
<clipPath id="clip0_2_3765">
<rect width="15.0588" height="16" fill="white" transform="translate(0.384766 0.000244141)"/>
</clipPath>
</defs>
</svg>
