<svg width="17" height="16" viewBox="0 0 17 16" fill="none" xmlns="http://www.w3.org/2000/svg">
<g clip-path="url(#clip0_2_3766)">
<path d="M8.44336 16.0002C12.8616 16.0002 16.4434 12.4185 16.4434 8.00024C16.4434 3.58197 12.8616 0.000244141 8.44336 0.000244141C4.02508 0.000244141 0.443359 3.58197 0.443359 8.00024C0.443359 12.4185 4.02508 16.0002 8.44336 16.0002Z" fill="#C87035"/>
<path d="M8.43936 13.5002C5.40186 13.4982 2.94336 11.0352 2.94336 7.99325C2.94336 4.95775 5.40936 2.49825 8.45086 2.50025C11.4834 2.50225 13.9474 4.96725 13.9434 8.00125C13.9374 11.0022 11.5254 13.4962 8.43936 13.5002ZM6.19786 10.5152C6.21336 10.4857 6.22536 10.4622 6.23686 10.4432C6.72886 9.57524 7.22186 8.70825 7.71486 7.84225C8.14686 7.08325 8.57786 6.32325 9.00736 5.56325C9.01332 5.54865 9.02385 5.53638 9.03737 5.52827C9.05089 5.52016 9.06668 5.51664 9.08236 5.51825C9.58436 5.52075 10.0884 5.52075 10.5899 5.52075H10.6614C9.96436 6.75075 9.27236 7.97224 8.57486 9.20074C8.59986 9.20274 8.61386 9.20275 8.62736 9.20275C9.88686 9.20275 11.1454 9.20325 12.4034 9.20475C12.4459 9.20475 12.4594 9.18925 12.4689 9.15225C12.6595 8.47975 12.6775 7.77006 12.5214 7.08875C12.3334 6.26375 11.9209 5.56725 11.3124 4.98475C11.0393 4.72443 10.7293 4.5059 10.3924 4.33625C9.55536 3.90925 8.67386 3.77375 7.74986 3.93625C6.82986 4.09975 6.05486 4.53425 5.41936 5.22125C5.33586 5.31125 5.26036 5.40775 5.18086 5.50125C5.18286 5.50675 5.18686 5.51125 5.18886 5.51624H8.77886C8.75886 5.55375 8.74536 5.58074 8.72986 5.60625C8.51136 5.99425 8.28986 6.38025 8.07336 6.76874C8.06481 6.78785 8.05044 6.80375 8.03229 6.81417C8.01414 6.82459 7.99316 6.82899 7.97236 6.82675C6.84136 6.82475 5.71036 6.82425 4.58036 6.82475H4.51236C3.93936 8.62625 4.74886 10.8857 6.77936 11.7897C8.74536 12.6677 10.8069 11.8597 11.7734 10.5112C9.91586 10.5147 8.05736 10.5162 6.19836 10.5147L6.19786 10.5152ZM12.5194 11.4642C13.2169 10.6892 13.8369 9.41425 13.7979 7.88275C13.7669 6.62125 13.3349 5.51274 12.5274 4.53274C12.2754 4.78675 12.0294 5.03325 11.7854 5.27975C13.0654 6.81924 13.1204 9.09574 11.7989 10.7302L12.5194 11.4642Z" fill="white"/>
</g>
<defs>
<clipPath id="clip0_2_3766">
<rect width="16" height="16" fill="white" transform="translate(0.443359 0.000244141)"/>
</clipPath>
</defs>
</svg>
