<svg width="12" height="16" viewBox="0 0 12 16" fill="none" xmlns="http://www.w3.org/2000/svg">
<g clip-path="url(#clip0_2_3769)">
<path d="M11.7458 6.61159L9.44199 7.63875L3.33041 10.7496L9.44199 13.688V8.83099L11.7458 7.79282V14.9683L9.44199 15.9954L0.443359 11.6887V9.39959L6.67234 6.3438L0.443359 3.35037V1.02826L2.78381 0.00109863L11.7458 4.31516V6.61159Z" fill="black"/>
<path d="M0.443359 1.02826L9.44199 5.34232L11.7458 4.31516L2.78381 0.00109863L0.443359 1.02826Z" fill="black"/>
<path d="M9.44141 5.33296L11.7452 4.30579V6.60226L9.44141 7.62944V5.33296Z" fill="black"/>
<path d="M0.443359 1.03064V3.35275L6.67234 6.34617L0.443359 9.40197V11.6911L9.44199 15.9978V13.694L3.33041 10.7519L9.44199 7.64113V5.3447L0.443359 1.03064Z" fill="black"/>
<path d="M9.44141 15.9805L11.7452 14.9534V7.77795L9.44141 8.81612V15.9805Z" fill="black"/>
</g>
<defs>
<clipPath id="clip0_2_3769">
<rect width="11.3024" height="16" fill="white" transform="translate(0.443359 0.000244141)"/>
</clipPath>
</defs>
</svg>
