<svg width="37" height="16" viewBox="0 0 37 16" fill="none" xmlns="http://www.w3.org/2000/svg">
<g clip-path="url(#clip0_2_3770)">
<path d="M18.8047 15.9965H35.7137C36.4867 15.9965 37.0771 14.7154 35.7137 14.1607C34.4146 13.6347 22.3404 8.69258 21.1451 8.19873C19.7853 9.84132 18.6723 11.1976 18.4755 11.4803C17.953 12.2533 16.1887 14.4005 18.8047 15.9965Z" fill="url(#paint0_linear_2_3770)"/>
<path d="M1.64433 0.000244141C1.40503 0.027211 1.18317 0.138566 1.01856 0.314329C0.85394 0.490093 0.757343 0.718763 0.746094 0.959314L0.746094 0.78754C0.771066 1.04504 0.868784 1.29012 1.02784 1.49417C1.18689 1.69821 1.40071 1.85279 1.64433 1.93986C3.1044 2.52317 15.4864 7.54755 15.4864 7.54755V7.73722C17.2364 5.72603 18.8181 3.70411 19.2225 3.221V3.42498C21.1442 1.19908 17.494 0.000244141 17.494 0.000244141H1.64433Z" fill="url(#paint1_linear_2_3770)"/>
<path d="M25.8648 0.000244141H17.3691C17.3691 0.000244141 20.9979 1.0452 19.094 3.29973L15.3723 7.70143C12.971 10.5321 10.2513 13.7242 9.82898 14.2109C9.11326 15.0376 9.47112 16.0002 10.6914 16.0002H18.9974C16.3779 14.3863 17.9632 12.2928 18.5071 11.5055C18.704 11.2264 19.8133 9.88081 21.1732 8.24896C23.5888 5.35028 26.7988 1.55694 27.0922 1.19908C27.5467 0.647974 26.8203 0.000244141 25.8648 0.000244141Z" fill="#007AFF"/>
<path opacity="0.3" d="M18.0055 0.000244141H17.3685C17.3685 0.000244141 20.9973 1.0452 19.0934 3.29973L15.3717 7.70143C13.7708 9.58855 14.9792 12.3536 18.9968 15.9967C16.3701 14.3863 17.9519 12.2821 18.4958 11.5055C18.6926 11.2264 19.802 9.88081 21.1619 8.24896C23.5882 5.35028 26.7982 1.55694 27.0917 1.19908C27.5461 0.647974 26.8197 0.000244141 25.8642 0.000244141H17.9912H18.0055Z" fill="url(#paint2_linear_2_3770)"/>
<g opacity="0.84">
<path opacity="0.84" d="M18.0061 0.000244141H17.3691C17.3691 0.000244141 20.9979 1.0452 19.094 3.29973L15.3723 7.70143C12.971 10.5321 10.2513 13.7242 9.82898 14.2109C9.11326 15.0376 9.47112 16.0002 10.6914 16.0002H18.9974C16.3707 14.3899 17.9524 12.2856 18.4964 11.5091C18.6932 11.2299 19.8026 9.88439 21.1625 8.25254C23.5888 5.35028 26.7988 1.55694 27.0922 1.19908C27.5467 0.647974 26.8203 0.000244141 25.8648 0.000244141H17.9918H18.0061Z" fill="#007AFF"/>
<path opacity="0.84" d="M18.0061 0.000244141H17.3691C17.3691 0.000244141 20.9979 1.0452 19.094 3.29973L15.3723 7.70143C12.971 10.5321 10.2513 13.7242 9.82898 14.2109C9.11326 15.0376 9.47112 16.0002 10.6914 16.0002H18.9974C16.3707 14.3899 17.9524 12.2856 18.4964 11.5091C18.6932 11.2299 19.8026 9.88439 21.1625 8.25254C23.5888 5.35028 26.7988 1.55694 27.0922 1.19908C27.5467 0.647974 26.8203 0.000244141 25.8648 0.000244141H17.9918H18.0061Z" fill="url(#paint3_linear_2_3770)"/>
</g>
<path opacity="0.45" d="M17.3691 0.000244141C17.3691 0.000244141 20.9979 1.0452 19.094 3.29973L15.3723 7.70143C12.971 10.5321 10.2513 13.7242 9.82898 14.2109C9.11326 15.0376 9.47112 16.0002 10.6914 16.0002H18.9974C16.3707 14.3899 17.9524 12.2856 18.4964 11.5091C18.6932 11.2299 19.8026 9.88439 21.1625 8.25254C22.1251 7.09664 21.7172 3.91883 20.6257 2.16889C20.1414 1.39591 19.0559 0.673024 17.3691 0.000244141Z" fill="#B8CFFF" fill-opacity="0.5"/>
<path d="M17.3689 0.000244141C17.3689 0.000244141 20.9977 1.0452 19.0938 3.29973L15.3721 7.70143C12.8217 10.7146 14.0301 13.4797 18.9972 15.9967C16.3705 14.3863 17.9522 12.2821 18.4962 11.5055C18.693 11.2264 19.831 9.8486 21.1623 8.24896C24.0132 4.83257 22.7488 2.083 17.3689 0.000244141Z" fill="url(#paint4_linear_2_3770)"/>
</g>
<defs>
<linearGradient id="paint0_linear_2_3770" x1="14.8927" y1="11.2103" x2="21.6861" y2="18.4716" gradientUnits="userSpaceOnUse">
<stop stop-color="#878A96"/>
<stop offset="1" stop-color="#DADDE6"/>
</linearGradient>
<linearGradient id="paint1_linear_2_3770" x1="-1.92788e+06" y1="-140646" x2="-1.92793e+06" y2="-140806" gradientUnits="userSpaceOnUse">
<stop stop-color="#878A96"/>
<stop offset="1" stop-color="#DADDE6"/>
</linearGradient>
<linearGradient id="paint2_linear_2_3770" x1="27.4588" y1="8.91709" x2="14.8702" y2="7.73245" gradientUnits="userSpaceOnUse">
<stop stop-color="white"/>
<stop offset="1" stop-color="#2B72FF"/>
</linearGradient>
<linearGradient id="paint3_linear_2_3770" x1="18.4992" y1="0.61523" x2="18.4992" y2="16.5803" gradientUnits="userSpaceOnUse">
<stop stop-color="white" stop-opacity="0.5"/>
<stop offset="1" stop-opacity="0.5"/>
</linearGradient>
<linearGradient id="paint4_linear_2_3770" x1="17.875" y1="16.5803" x2="20.2246" y2="0.864322" gradientUnits="userSpaceOnUse">
<stop stop-color="#74ABE9"/>
<stop offset="1" stop-color="#2C5C96"/>
</linearGradient>
<clipPath id="clip0_2_3770">
<rect width="35.7826" height="16" fill="white" transform="translate(0.746094 0.000244141)"/>
</clipPath>
</defs>
</svg>
