<svg width="48" height="48" viewBox="0 0 48 48" fill="none" xmlns="http://www.w3.org/2000/svg">
<g clip-path="url(#clip0_55_6230)">
<g opacity="0.5">
<path d="M15.2606 18.944H5.08594V37.843H15.2606V18.944Z" fill="#273BEF"/>
</g>
<g opacity="0.54">
<path d="M29.0878 18.944H18.9131V37.843H29.0878V18.944Z" fill="#273BEF"/>
</g>
<g opacity="0.54">
<path d="M42.9149 18.944H32.7402V37.843H42.9149V18.944Z" fill="#273BEF"/>
</g>
<path d="M44.106 40.6553H3.89399C3.20793 40.7486 2.67871 41.3353 2.67871 42.0471V46.5937C2.67871 47.3703 3.30834 47.9999 4.08496 47.9999H43.915C44.6917 47.9999 45.3213 47.3703 45.3213 46.5937V42.0471C45.3213 41.3354 44.7921 40.7487 44.106 40.6553Z" fill="#273BEF"/>
<path d="M46.9357 11.111L25.0765 0.149201C24.6868 -0.0461744 24.2285 -0.0499243 23.8357 0.139451L1.08505 11.1013C0.494054 11.3861 0.178491 12.0416 0.32446 12.6812C0.417929 13.0908 0.685304 13.4234 1.03743 13.6101C1.23524 13.715 1.4594 13.7745 1.69537 13.7745H3.84993V16.1312H44.1507V13.7745H46.3053C46.5411 13.7745 46.7654 13.7151 46.9632 13.6102C47.3122 13.4251 47.5779 13.0969 47.6737 12.6921C47.8239 12.0576 47.5184 11.4032 46.9357 11.111ZM26.3336 9.19289H21.6672C20.8906 9.19289 20.261 8.56326 20.261 7.78664C20.261 7.01001 20.8906 6.38039 21.6672 6.38039H26.3336C27.1102 6.38039 27.7399 7.01001 27.7399 7.78664C27.7399 8.56326 27.1102 9.19289 26.3336 9.19289Z" fill="#273BEF"/>
</g>
<defs>
<clipPath id="clip0_55_6230">
<rect width="48" height="48" fill="white"/>
</clipPath>
</defs>
</svg>
