<svg width="56" height="56" viewBox="0 0 56 56" fill="none" xmlns="http://www.w3.org/2000/svg">
<g clip-path="url(#clip0_55_6159)">
<path d="M39.2418 9.03229H7.08471C5.91729 9.03229 4.96777 9.9818 4.96777 11.1492V53.8831C4.96777 55.0505 5.91729 56 7.08471 56H39.2418C40.4081 56 41.3576 55.0505 41.3576 53.8831V11.1492C41.3576 9.9818 40.4081 9.03229 39.2418 9.03229ZM32.0645 38.8387H14.9033C13.9052 38.8387 13.0968 38.0304 13.0968 37.0323C13.0968 36.0342 13.9052 35.2258 14.9033 35.2258H32.0645C33.0626 35.2258 33.871 36.0342 33.871 37.0323C33.871 38.0304 33.0626 38.8387 32.0645 38.8387ZM32.0645 31.6129H14.9033C13.9052 31.6129 13.0968 30.8045 13.0968 29.8065C13.0968 28.8084 13.9052 28 14.9033 28H32.0645C33.0626 28 33.871 28.8084 33.871 29.8065C33.871 30.8045 33.0626 31.6129 32.0645 31.6129ZM32.0645 24.3871H14.9033C13.9052 24.3871 13.0968 23.5787 13.0968 22.5807C13.0968 21.5826 13.9052 20.7742 14.9033 20.7742H32.0645C33.0626 20.7742 33.871 21.5826 33.871 22.5807C33.871 23.5787 33.0626 24.3871 32.0645 24.3871Z" fill="#273BEF"/>
<path opacity="0.2" d="M51.032 5.41935V45.1613C51.032 47.889 48.8371 50.5806 44.9703 50.5806V11.1492C44.9703 7.98903 42.4006 5.41935 39.2416 5.41935H11.0293C11.0293 2.43081 13.6046 0 16.7693 0H45.292C48.4567 0 51.032 2.43081 51.032 5.41935Z" fill="#273BEF"/>
</g>
<defs>
<clipPath id="clip0_55_6159">
<rect width="56" height="56" fill="white"/>
</clipPath>
</defs>
</svg>
