<svg width="132" height="129" viewBox="0 0 132 129" fill="none" xmlns="http://www.w3.org/2000/svg">
<path d="M38.0746 30.4576L11.5994 15.2288L38.0746 0L64.4961 15.2288L38.0746 30.4576Z" fill="#BCBEFF"/>
<path d="M38.0746 88.9598L11.5994 73.731L38.0746 58.5022L64.4961 73.731L38.0746 88.9598Z" fill="white"/>
<path d="M64.4961 15.2288V73.731L38.0746 88.9598V30.4576L64.4961 15.2288Z" fill="url(#paint0_linear_55_6387)"/>
<path d="M11.599 15.2288V73.731L38.0742 88.9598V30.4576L11.599 15.2288Z" fill="#24126A"/>
<g opacity="0.51">
<path opacity="0.51" d="M13.4256 19.1433V71.6935L36.249 84.8846V32.2808L13.4256 19.1433Z" fill="#453C9E"/>
</g>
<path d="M60.5225 29.3853V30.9403L41.9952 41.6112V40.0562L60.5225 29.3853Z" fill="#453C9E"/>
<path d="M60.5225 35.9272V37.4823L41.9952 48.1532V46.5981L60.5225 35.9272Z" fill="#453C9E"/>
<path d="M60.5225 42.469V44.0241L41.9952 54.6413V53.1399L60.5225 42.469Z" fill="#453C9E"/>
<path d="M60.5225 49.011V50.5124L41.9952 61.1833V59.6819L60.5225 49.011Z" fill="#453C9E"/>
<path d="M60.5225 55.553V57.0544L41.9952 67.7253V66.2239L60.5225 55.553Z" fill="#453C9E"/>
<path d="M60.5225 62.0413V63.5963L41.9952 74.2672V72.7121L60.5225 62.0413Z" fill="#453C9E"/>
<mask id="mask0_55_6387" style="mask-type:alpha" maskUnits="userSpaceOnUse" x="11" y="3" width="28" height="24">
<path d="M38.0742 26.4896H31.0929L11.599 15.2289L32.8114 3.00293H38.0742V26.4896Z" fill="url(#paint1_linear_55_6387)"/>
</mask>
<g mask="url(#mask0_55_6387)">
<path opacity="0.78" d="M38.0742 26.4896H31.0929L11.599 15.2289L32.8114 3.00293H38.0742V26.4896Z" fill="url(#paint2_linear_55_6387)"/>
<path d="M38.0744 25.1491L18.849 14.0492L38.0744 3.00293L57.2461 14.0492L38.0744 25.1491Z" fill="url(#paint3_linear_55_6387)"/>
<path d="M18.8488 14.0491V15.4433L38.0742 26.4895V25.149L18.8488 14.0491Z" fill="url(#paint4_linear_55_6387)"/>
<path d="M30.6097 14.2634L29.7505 13.7808L29.8579 13.3519L37.6984 8.79395L38.8262 9.33017L38.6114 9.65191L30.6097 14.2634Z" fill="#3F21D3"/>
<path d="M37.7522 9.16935L38.6114 9.65195L39.1484 9.33022L37.7522 8.52588L29.2135 13.4592L29.7506 13.7809L37.7522 9.16935Z" fill="url(#paint5_linear_55_6387)"/>
<path d="M33.1879 15.7114L32.3286 15.2288L32.436 14.8535L40.2765 10.2419L41.4043 10.7782L41.1895 11.0999L33.1879 15.7114Z" fill="#3F21D3"/>
<path d="M40.3303 10.6172L41.1895 11.0998L41.7266 10.8317L40.3303 10.0273L31.7917 14.907L32.3287 15.2287L40.3303 10.6172Z" fill="url(#paint6_linear_55_6387)"/>
<path d="M35.765 17.2127L34.9058 16.7301L35.0132 16.3011L42.8537 11.7432L43.9814 12.2794L43.7666 12.6011L35.765 17.2127Z" fill="#3F21D3"/>
<path d="M42.9075 12.1186L43.7667 12.6012L44.3037 12.2794L42.9075 11.4751L34.3688 16.4084L34.9058 16.7301L42.9075 12.1186Z" fill="url(#paint7_linear_55_6387)"/>
<path d="M38.3431 18.7141L37.4839 18.2315L37.5913 17.8025L45.4318 13.2446L46.5596 13.7272L46.3448 14.1026L38.3431 18.7141Z" fill="#3F21D3"/>
<path d="M45.4856 13.62L46.3448 14.1026L46.8818 13.7809L45.4856 12.9766L36.9469 17.9098L37.484 18.2316L45.4856 13.62Z" fill="url(#paint8_linear_55_6387)"/>
<g opacity="0.51">
<path opacity="0.51" d="M11.599 64.5079L38.0742 48.582V30.4576L11.599 15.2288V64.5079Z" fill="#453C9E"/>
</g>
<path d="M14.8213 19.5187C14.8213 18.8752 14.338 18.0172 13.7472 17.6955C13.4787 17.5346 13.2102 17.5346 12.9954 17.6419L12.2436 18.0709H12.7269C12.7269 18.1245 12.7269 18.2317 12.7269 18.2854C12.7269 18.9288 13.2102 19.7868 13.8009 20.1085C13.8546 20.1621 13.962 20.1621 14.0158 20.2158L13.8009 20.5911L14.5528 20.1621C14.7139 20.1085 14.8213 19.8404 14.8213 19.5187Z" fill="url(#paint9_linear_55_6387)"/>
<path d="M14.0693 19.9477C14.0693 20.5912 13.586 20.9129 12.9953 20.5376C12.4046 20.2158 11.9213 19.4115 11.9213 18.7144C11.9213 18.0173 12.4046 17.7492 12.9953 18.1246C13.586 18.4463 14.0693 19.3043 14.0693 19.9477Z" fill="url(#paint10_linear_55_6387)"/>
<path d="M13.6396 19.6796C13.6396 20.0549 13.3711 20.2158 13.0489 20.0549C12.7267 19.8405 12.4582 19.4115 12.4582 18.9825C12.4582 18.5535 12.7267 18.4463 13.0489 18.6071C13.3711 18.8216 13.6396 19.3042 13.6396 19.6796Z" fill="#3F21D3"/>
</g>
<path d="M71.8002 39.0372L45.3787 23.8084L71.8002 8.57959L98.2217 23.8084L71.8002 39.0372Z" fill="#BCBEFF"/>
<path d="M72.8739 110.516L101.766 93.8394C102.088 93.6249 102.303 93.3032 102.303 92.9278C102.303 92.5525 102.088 92.2307 101.766 92.0163L72.8202 75.3396C72.1758 74.9643 71.3703 74.9643 70.7258 75.3396L41.7804 92.0163C41.4581 92.2307 41.2433 92.5525 41.2433 92.9278C41.2433 93.3032 41.4581 93.6249 41.7804 93.8394L70.7795 110.516C71.1018 110.731 71.4777 110.784 71.8536 110.784C72.1758 110.784 72.5517 110.731 72.8739 110.516ZM72.498 76.0367L101.39 92.7133C101.497 92.767 101.551 92.9278 101.551 92.9815C101.551 93.0351 101.551 93.1423 101.39 93.2496L72.4443 109.926C72.0147 110.141 71.5314 110.141 71.1018 109.926L42.1563 93.2496C42.0489 93.1959 41.9952 93.0351 41.9952 92.9815C41.9952 92.9278 41.9952 92.8206 42.1563 92.7133L71.1018 76.0367C71.3166 75.9295 71.5314 75.8759 71.7999 75.8759C72.0684 75.8759 72.2832 75.9295 72.498 76.0367Z" fill="url(#paint11_linear_55_6387)"/>
<g opacity="0.67">
<path opacity="0.67" d="M71.7995 105.851L49.4057 92.928L71.7995 80.0586L94.1934 92.928L71.7995 105.851Z" fill="#24126A"/>
</g>
<path d="M71.8002 97.5394L45.3787 82.3106L71.8002 67.0818L98.2217 82.3106L71.8002 97.5394Z" fill="white"/>
<path d="M98.2217 23.8083V82.3106L71.8002 97.5394V39.0372L98.2217 23.8083Z" fill="url(#paint12_linear_55_6387)"/>
<path d="M45.3783 23.8083V82.3106L71.7998 97.5394V39.0372L45.3783 23.8083Z" fill="#24126A"/>
<g opacity="0.51">
<path opacity="0.51" d="M47.1502 27.7229V80.273L70.0273 93.4642V40.8604L47.1502 27.7229Z" fill="#453C9E"/>
</g>
<path d="M94.3008 37.9648V39.5199L75.7735 50.1908V48.6357L94.3008 37.9648Z" fill="#453C9E"/>
<path d="M94.3008 44.5068V46.0619L75.7735 56.7328V55.1777L94.3008 44.5068Z" fill="#453C9E"/>
<path d="M94.3008 51.0486V52.6036L75.7735 63.2209V61.7195L94.3008 51.0486Z" fill="#453C9E"/>
<path d="M94.3008 57.5906V59.092L75.7735 69.7629V68.2615L94.3008 57.5906Z" fill="#453C9E"/>
<path d="M94.3008 64.1326V65.634L75.7735 76.3049V74.7498L94.3008 64.1326Z" fill="#453C9E"/>
<path d="M94.3008 70.6208V72.1759L75.7735 82.8468V81.2917L94.3008 70.6208Z" fill="#453C9E"/>
<mask id="mask1_55_6387" style="mask-type:alpha" maskUnits="userSpaceOnUse" x="45" y="11" width="27" height="25">
<path d="M71.7998 35.0692H64.8722L45.3783 23.8085L66.5907 11.5825H71.7998V35.0692Z" fill="url(#paint13_linear_55_6387)"/>
</mask>
<g mask="url(#mask1_55_6387)">
<path opacity="0.78" d="M71.7998 35.0692H64.8722L45.3783 23.8085L66.5907 11.5825H71.7998V35.0692Z" fill="url(#paint14_linear_55_6387)"/>
<path d="M71.8 33.7287L52.6283 22.6288L71.8 11.5825L90.9717 22.6288L71.8 33.7287Z" fill="url(#paint15_linear_55_6387)"/>
<path d="M52.6281 22.6287V24.0228L71.7998 35.0691V33.7285L52.6281 22.6287Z" fill="url(#paint16_linear_55_6387)"/>
<path d="M64.389 22.843L63.5298 22.3604L63.5835 21.9315L71.4777 17.3735L72.5518 17.8561L72.3369 18.2315L64.389 22.843Z" fill="#3F21D3"/>
<path d="M71.5315 17.7489L72.337 18.2315L72.9277 17.9098L71.5315 17.1055L62.9928 22.0387L63.5298 22.3605L71.5315 17.7489Z" fill="url(#paint17_linear_55_6387)"/>
<path d="M66.9671 24.291L66.1079 23.8084L66.1616 23.4331L74.0558 18.8215L75.1299 19.3578L74.9151 19.6795L66.9671 24.291Z" fill="#3F21D3"/>
<path d="M74.1096 19.1968L74.9151 19.6794L75.5059 19.4113L74.1096 18.6069L65.571 23.4866L66.108 23.8083L74.1096 19.1968Z" fill="url(#paint18_linear_55_6387)"/>
<path d="M69.5443 25.7923L68.6851 25.3097L68.7388 24.8807L76.633 20.3228L77.707 20.859L77.4922 21.1807L69.5443 25.7923Z" fill="#3F21D3"/>
<path d="M76.6868 20.6982L77.4923 21.1808L78.083 20.859L76.6868 20.0547L68.1481 24.988L68.6851 25.3097L76.6868 20.6982Z" fill="url(#paint19_linear_55_6387)"/>
<path d="M72.1224 27.2937L71.2632 26.7575L71.3169 26.3821L79.2111 21.8242L80.2852 22.3068L80.0704 22.6822L72.1224 27.2937Z" fill="#3F21D3"/>
<path d="M79.2649 22.1996L80.0704 22.6822L80.6611 22.3605L79.2649 21.5562L70.7262 26.4894L71.2632 26.8112L79.2649 22.1996Z" fill="url(#paint20_linear_55_6387)"/>
<g opacity="0.51">
<path opacity="0.51" d="M45.3783 73.0875L71.7998 57.1616V39.0372L45.3783 23.8083V73.0875Z" fill="#453C9E"/>
</g>
<path d="M48.6006 28.0983C48.6006 27.4548 48.1173 26.5968 47.5265 26.2751C47.258 26.1142 46.9895 26.1142 46.7747 26.2215L46.0229 26.6505H46.5062C46.5062 26.7041 46.5062 26.8113 46.5062 26.8649C46.5062 27.5084 46.9895 28.3664 47.5802 28.6881C47.6339 28.7417 47.7413 28.7417 47.795 28.7954L47.5802 29.1707L48.3321 28.7417C48.4932 28.6345 48.6006 28.42 48.6006 28.0983Z" fill="url(#paint21_linear_55_6387)"/>
<path d="M47.8486 28.5273C47.8486 29.1708 47.3653 29.4925 46.7746 29.1172C46.1839 28.7954 45.7005 27.9911 45.7005 27.294C45.7005 26.5969 46.1839 26.3288 46.7746 26.7042C47.3653 27.0259 47.8486 27.8302 47.8486 28.5273Z" fill="url(#paint22_linear_55_6387)"/>
<path d="M47.3652 28.2591C47.3652 28.6344 47.0967 28.7953 46.7745 28.6344C46.4523 28.4736 46.1838 27.991 46.1838 27.562C46.1838 27.1866 46.4523 27.0258 46.7745 27.1866C47.0967 27.3475 47.3652 27.8837 47.3652 28.2591Z" fill="#3F21D3"/>
</g>
<path d="M105.579 70.1383L79.1033 54.9095L105.579 39.6807L132 54.9095L105.579 70.1383Z" fill="#BCBEFF"/>
<path d="M105.579 128.64L79.1033 113.412L105.579 98.1829L132 113.412L105.579 128.64Z" fill="white"/>
<path d="M132 54.9094V113.412L105.579 128.64V70.1382L132 54.9094Z" fill="url(#paint23_linear_55_6387)"/>
<path d="M79.1029 54.9094V113.412L105.578 128.64V70.1382L79.1029 54.9094Z" fill="#24126A"/>
<g opacity="0.51">
<path opacity="0.51" d="M80.9295 58.824V111.374L103.753 124.565V71.9615L80.9295 58.824Z" fill="#453C9E"/>
</g>
<path d="M128.026 69.0659V70.621L109.553 81.2919V79.7368L128.026 69.0659Z" fill="#453C9E"/>
<path d="M128.026 75.6079V77.163L109.553 87.8339V86.2788L128.026 75.6079Z" fill="#453C9E"/>
<path d="M128.026 82.1497V83.7047L109.553 94.322V92.8206L128.026 82.1497Z" fill="#453C9E"/>
<path d="M128.026 88.6917V90.1931L109.553 100.864V99.3625L128.026 88.6917Z" fill="#453C9E"/>
<path d="M128.026 95.2336V96.7351L109.553 107.406V105.851L128.026 95.2336Z" fill="#453C9E"/>
<path d="M128.026 101.722V103.277L109.553 113.948V112.393L128.026 101.722Z" fill="#453C9E"/>
<mask id="mask2_55_6387" style="mask-type:alpha" maskUnits="userSpaceOnUse" x="79" y="42" width="27" height="25">
<path d="M105.578 66.1703H98.5968L79.1029 54.9095L100.315 42.6836H105.578V66.1703Z" fill="url(#paint24_linear_55_6387)"/>
</mask>
<g mask="url(#mask2_55_6387)">
<path opacity="0.78" d="M105.578 66.1703H98.5968L79.1029 54.9095L100.315 42.6836H105.578V66.1703Z" fill="url(#paint25_linear_55_6387)"/>
<path d="M105.578 64.8297L86.4066 53.7298L105.578 42.6836L124.75 53.7298L105.578 64.8297Z" fill="url(#paint26_linear_55_6387)"/>
<path d="M86.4064 53.7297V55.1239L105.578 66.1702V64.8296L86.4064 53.7297Z" fill="url(#paint27_linear_55_6387)"/>
<path d="M98.1136 53.9441L97.2544 53.4615L97.3618 53.0325L105.202 48.4746L106.33 48.9572L106.115 49.3326L98.1136 53.9441Z" fill="#3F21D3"/>
<path d="M105.256 48.85L106.115 49.3326L106.652 49.0109L105.256 48.2065L96.7174 53.1398L97.2545 53.4616L105.256 48.85Z" fill="url(#paint28_linear_55_6387)"/>
<path d="M100.692 55.3921L99.8325 54.9095L99.9399 54.5341L107.78 49.9226L108.908 50.4588L108.693 50.7806L100.692 55.3921Z" fill="#3F21D3"/>
<path d="M107.834 50.2979L108.693 50.7805L109.23 50.5123L107.834 49.708L99.2956 54.5877L99.8326 54.9094L107.834 50.2979Z" fill="url(#paint29_linear_55_6387)"/>
<path d="M103.269 56.8933L102.41 56.4107L102.517 55.9818L110.358 51.4238L111.485 51.9601L111.271 52.2818L103.269 56.8933Z" fill="#3F21D3"/>
<path d="M110.411 51.7992L111.271 52.2818L111.808 51.9601L110.411 51.1558L101.873 56.089L102.41 56.4108L110.411 51.7992Z" fill="url(#paint30_linear_55_6387)"/>
<path d="M105.847 58.3948L104.988 57.9122L105.095 57.4832L112.936 52.9253L114.063 53.4079L113.849 53.7833L105.847 58.3948Z" fill="#3F21D3"/>
<path d="M112.989 53.3007L113.849 53.7833L114.386 53.4616L112.989 52.6572L104.451 57.5905L104.988 57.9122L112.989 53.3007Z" fill="url(#paint31_linear_55_6387)"/>
<g opacity="0.51">
<path opacity="0.51" d="M79.1029 104.189L105.578 88.2627V70.1382L79.1029 54.9094V104.189Z" fill="#453C9E"/>
</g>
<path d="M82.3252 59.1993C82.3252 58.5559 81.8419 57.6979 81.2512 57.3762C80.9826 57.2153 80.7141 57.2153 80.4993 57.3225L79.7475 57.7515H80.2308C80.2308 57.8051 80.2308 57.9124 80.2308 57.966C80.2308 58.6095 80.7141 59.4674 81.3049 59.7892C81.3586 59.8428 81.466 59.8428 81.5197 59.8964L81.3049 60.2718L82.0567 59.8428C82.2178 59.7892 82.3252 59.5211 82.3252 59.1993Z" fill="url(#paint32_linear_55_6387)"/>
<path d="M81.5732 59.6283C81.5732 60.2717 81.0899 60.5935 80.4992 60.2181C79.9085 59.8964 79.4252 59.0921 79.4252 58.395C79.4252 57.7515 79.9085 57.4298 80.4992 57.8051C81.1436 58.1268 81.5732 58.9312 81.5732 59.6283Z" fill="url(#paint33_linear_55_6387)"/>
<path d="M81.1436 59.3602C81.1436 59.7355 80.875 59.8964 80.5528 59.7355C80.2306 59.521 79.9621 59.092 79.9621 58.6631C79.9621 58.2877 80.2306 58.1268 80.5528 58.2877C80.875 58.5022 81.1436 58.9848 81.1436 59.3602Z" fill="#3F21D3"/>
</g>
<path d="M55.4209 47.5096L50.4266 44.614V43.5415L55.4209 46.3835V47.5096Z" fill="#42E8E0"/>
<path d="M57.9443 48.9574L56.1722 47.9386V46.8125L57.9443 47.885V48.9574Z" fill="#42E8E0"/>
<path d="M59.9316 50.0835L58.6965 49.3864V48.314L59.9316 49.0111V50.0835Z" fill="#42E8E0"/>
<path d="M53.165 48.6892L50.4262 47.1341V46.0081L53.165 47.5631V48.6892Z" fill="#42E8E0"/>
<path d="M57.1934 50.995L53.9175 49.1183V47.9922L57.1934 49.9226V50.995Z" fill="#42E8E0"/>
<path d="M59.1797 52.1211L57.9982 51.424V50.3516L59.1797 51.0487V52.1211Z" fill="#42E8E0"/>
<path d="M61.0596 53.2472L59.8244 52.5501V51.4241L61.0596 52.1212V53.2472Z" fill="#42E8E0"/>
<path d="M52.4131 50.7268L50.4261 49.6008V48.5283L52.4131 49.6544V50.7268Z" fill="#42E8E0"/>
<path d="M53.8096 51.5313L53.1652 51.1559V50.0835L53.8096 50.4589V51.5313Z" fill="#42E8E0"/>
<path d="M55.7969 52.6572L54.5617 51.9601V50.8877L55.7969 51.5848V52.6572Z" fill="#42E8E0"/>
<path d="M57.6758 56.2501L50.426 52.0676V50.9951L57.6758 55.1241V56.2501Z" fill="#42E8E0"/>
<path d="M60.2002 57.698L58.428 56.6791V55.6067L60.2002 56.6255V57.698Z" fill="#42E8E0"/>
<path d="M52.4131 55.6602L50.4261 54.5341V53.4617L52.4131 54.5877V55.6602Z" fill="#42E8E0"/>
<path d="M56.9785 58.3414L53.1657 56.1429V55.0168L56.9785 57.2154V58.3414Z" fill="#42E8E0"/>
<path d="M58.9648 59.4673L57.7297 58.7702V57.6978L58.9648 58.3948V59.4673Z" fill="#42E8E0"/>
<path d="M54.4541 59.3601L50.4264 57.0543V55.9282L54.4541 58.234V59.3601Z" fill="#42E8E0"/>
<path d="M58.1055 61.4515L55.2056 59.7892V58.7168L58.1055 60.3791V61.4515Z" fill="#42E8E0"/>
<path d="M60.791 63.0064L58.8577 61.8803V60.8079L60.791 61.9339V63.0064Z" fill="#42E8E0"/>
<path d="M51.8223 60.3253L50.426 59.5209V58.4485L51.8223 59.1992V60.3253Z" fill="#42E8E0"/>
<path d="M54.3467 61.7731L52.5745 60.7543V59.6282L54.3467 60.7006V61.7731Z" fill="#42E8E0"/>
<path d="M57.998 63.8644L55.0981 62.2021V61.1296L57.998 62.7919V63.8644Z" fill="#42E8E0"/>
<path d="M54.5615 64.4008L50.4265 61.9877V60.9153L54.5615 63.2747V64.4008Z" fill="#42E8E0"/>
<path d="M59.2334 67.0819L55.3668 64.8298V63.7573L59.2334 65.9558V67.0819Z" fill="#42E8E0"/>
<path d="M61.167 68.2079L59.9855 67.5108V66.3848L61.167 67.0819V68.2079Z" fill="#42E8E0"/>
<path d="M63.1006 69.2803L61.8654 68.5832V67.5107L63.1006 68.2078V69.2803Z" fill="#42E8E0"/>
<path d="M52.9502 65.9021L50.4262 64.5079V63.3818L52.9502 64.8296V65.9021Z" fill="#42E8E0"/>
<path d="M63.315 52.0139L66.752 53.9979V52.9254L63.315 50.9414V52.0139Z" fill="#42E8E0"/>
<path d="M64.0131 54.9096L66.752 56.5183V55.3922L64.0131 53.8372V54.9096Z" fill="#42E8E0"/>
<path d="M64.765 57.8588L66.752 58.9849V57.9125L64.765 56.7864V57.8588Z" fill="#42E8E0"/>
<path d="M63.9057 59.8429L66.752 61.4515V60.3791L63.9057 58.7168V59.8429Z" fill="#42E8E0"/>
<path d="M64.765 62.7919L66.752 63.918V62.8456L64.765 61.7195V62.7919Z" fill="#42E8E0"/>
<path d="M64.228 64.9904L66.752 66.4382V65.3122L64.228 63.918V64.9904Z" fill="#42E8E0"/>
<path d="M65.3557 68.1008L66.752 68.9051V67.8327L65.3557 67.0283V68.1008Z" fill="#42E8E0"/>
<path d="M64.1205 69.8703L66.752 71.3717V70.2993L64.1205 68.7979V69.8703Z" fill="#42E8E0"/>
<path d="M64.228 72.444L66.752 73.8918V72.7658L64.228 71.3716V72.444Z" fill="#42E8E0"/>
<path d="M54.7227 66.9745L53.7023 66.331V65.2585L54.7227 65.8484V66.9745Z" fill="#42E8E0"/>
<path d="M57.8906 68.7441L55.474 67.4035V66.3311L57.8906 67.6716V68.7441Z" fill="#42E8E0"/>
<path d="M59.8242 77.1092L55.8503 74.8034V73.731L59.8242 76.0367V77.1092Z" fill="#42E8E0"/>
<path d="M62.5635 78.6642L61.0061 77.8063V76.6802L62.5635 77.5918V78.6642Z" fill="#42E8E0"/>
<path d="M21.6416 38.662L16.701 35.82V34.7476L21.6416 37.5896V38.662Z" fill="#42E8E0"/>
<path d="M24.2188 40.1635L22.4466 39.091V38.0186L24.2188 39.0374V40.1635Z" fill="#42E8E0"/>
<path d="M26.1523 41.2895L24.9709 40.5924V39.4663L26.1523 40.1634V41.2895Z" fill="#42E8E0"/>
<path d="M19.3857 39.8416L16.7006 38.2866V37.2141L19.3857 38.7692V39.8416Z" fill="#42E8E0"/>
<path d="M23.4678 42.2011L20.1919 40.2707V39.1982L23.4678 41.1287V42.2011Z" fill="#42E8E0"/>
<path d="M25.4541 43.3272L24.2189 42.6301V41.5576L25.4541 42.2547V43.3272Z" fill="#42E8E0"/>
<path d="M27.334 44.3997L26.0988 43.7026V42.6301L27.334 43.3272V44.3997Z" fill="#42E8E0"/>
<path d="M18.6875 41.9331L16.7005 40.807V39.6809L18.6875 40.807V41.9331Z" fill="#42E8E0"/>
<path d="M20.084 42.7373L19.4395 42.3619V41.2358L20.084 41.6648V42.7373Z" fill="#42E8E0"/>
<path d="M22.0713 43.8633L20.8361 43.1662V42.0938L22.0713 42.7908V43.8633Z" fill="#42E8E0"/>
<path d="M23.8965 47.4026L16.7004 43.2736V42.2012L23.8965 46.3301V47.4026Z" fill="#42E8E0"/>
<path d="M26.4746 48.9039L24.7024 47.8315V46.759L26.4746 47.7779V48.9039Z" fill="#42E8E0"/>
<path d="M18.6875 46.8662L16.7005 45.7402V44.6677L18.6875 45.7938V46.8662Z" fill="#42E8E0"/>
<path d="M23.2529 49.4939L19.4401 47.2954V46.2229L23.2529 48.4214V49.4939Z" fill="#42E8E0"/>
<path d="M25.2393 50.6735L24.0041 49.9764V48.8503L25.2393 49.5474V50.6735Z" fill="#42E8E0"/>
<path d="M20.7285 50.5125L16.7009 48.2067V47.1343L20.7285 49.44V50.5125Z" fill="#42E8E0"/>
<path d="M24.3262 52.6575L21.48 50.9416V49.8691L24.3262 51.5314V52.6575Z" fill="#42E8E0"/>
<path d="M27.0654 54.2126L25.1321 53.0865V51.9604L27.0654 53.0865V54.2126Z" fill="#42E8E0"/>
<path d="M18.043 51.4779L16.7004 50.7271V49.6011L18.043 50.4054V51.4779Z" fill="#42E8E0"/>
<path d="M20.6211 52.9255L18.7952 51.9067V50.8342L20.6211 51.8531V52.9255Z" fill="#42E8E0"/>
<path d="M24.2188 55.0706L21.3725 53.4083V52.2822L24.2188 53.9445V55.0706Z" fill="#42E8E0"/>
<path d="M20.8359 55.5532L16.7009 53.1938V52.1213L20.8359 54.4807V55.5532Z" fill="#42E8E0"/>
<path d="M25.4541 58.2343L21.5875 56.0357V54.9097L25.4541 57.1618V58.2343Z" fill="#42E8E0"/>
<path d="M27.4414 59.3604L26.2063 58.6633V57.5908L27.4414 58.2879V59.3604Z" fill="#42E8E0"/>
<path d="M29.3213 60.4865L28.1398 59.7894V58.6633L29.3213 59.3604V60.4865Z" fill="#42E8E0"/>
<path d="M19.1709 57.1082L16.7006 55.6603V54.5879L19.1709 56.0357V57.1082Z" fill="#42E8E0"/>
<path d="M29.5357 43.2199L32.9727 45.2039V44.1315L29.5357 42.1475V43.2199Z" fill="#42E8E0"/>
<path d="M30.2875 46.1154L32.9727 47.6705V46.598L30.2875 45.043V46.1154Z" fill="#42E8E0"/>
<path d="M31.0394 49.0112L32.9727 50.1372V49.0648L31.0394 47.9387V49.0112Z" fill="#42E8E0"/>
<path d="M30.1264 50.9953L32.9727 52.6576V51.5852L30.1264 49.9229V50.9953Z" fill="#42E8E0"/>
<path d="M31.0394 53.998L32.9727 55.1241V54.0516L31.0394 52.9255V53.998Z" fill="#42E8E0"/>
<path d="M30.5023 56.1966L32.9727 57.5908V56.5184L30.5023 55.0706V56.1966Z" fill="#42E8E0"/>
<path d="M31.6301 59.3068L32.9727 60.1112V58.9851L31.6301 58.2344V59.3068Z" fill="#42E8E0"/>
<path d="M30.3412 61.0764L32.9727 62.5778V61.5053L30.3412 60.0039V61.0764Z" fill="#42E8E0"/>
<path d="M30.5023 63.6502L32.9727 65.0444V63.972L30.5023 62.5242V63.6502Z" fill="#42E8E0"/>
<path d="M20.9971 58.1269L19.923 57.537V56.4646L20.9971 57.0544V58.1269Z" fill="#42E8E0"/>
<path d="M24.1113 59.9503L21.7484 58.5561V57.4836L24.1113 58.8778V59.9503Z" fill="#42E8E0"/>
<path d="M26.0986 68.3154L22.071 66.0096V64.8835L26.0986 67.1893V68.3154Z" fill="#42E8E0"/>
<path d="M28.8379 69.8703L27.2268 68.9587V67.8862L28.8379 68.7978V69.8703Z" fill="#42E8E0"/>
<path d="M89.1455 78.9324L84.2049 76.0904V74.9644L89.1455 77.86V78.9324Z" fill="#42E8E0"/>
<path d="M91.7227 80.3803L89.8968 79.3615V78.2891L91.7227 79.3079V80.3803Z" fill="#42E8E0"/>
<path d="M93.6562 81.5064L92.4748 80.8093V79.7368L93.6562 80.4339V81.5064Z" fill="#42E8E0"/>
<path d="M86.8896 80.1121L84.2045 78.5571V77.4846L86.8896 79.0397V80.1121Z" fill="#42E8E0"/>
<path d="M90.9717 82.4716L87.6421 80.5412V79.4688L90.9717 81.3455V82.4716Z" fill="#42E8E0"/>
<path d="M92.958 83.5976L91.7229 82.9005V81.7744L92.958 82.5251V83.5976Z" fill="#42E8E0"/>
<path d="M94.8379 84.6699L93.6027 83.9728V82.9004L94.8379 83.5975V84.6699Z" fill="#42E8E0"/>
<path d="M86.1377 82.1497L84.2044 81.0236V79.9512L86.1377 81.0772V82.1497Z" fill="#42E8E0"/>
<path d="M87.5879 82.9542L86.9435 82.5788V81.5063L87.5879 81.8817V82.9542Z" fill="#42E8E0"/>
<path d="M89.5752 84.1337L88.34 83.4366V82.3105L89.5752 83.0076V84.1337Z" fill="#42E8E0"/>
<path d="M91.4004 87.673L84.2043 83.4904V82.418L91.4004 86.6005V87.673Z" fill="#42E8E0"/>
<path d="M93.9785 89.1208L92.1526 88.102V87.0295L93.9785 88.0484V89.1208Z" fill="#42E8E0"/>
<path d="M86.1377 87.1367L84.2044 86.0106V84.8845L86.1377 86.0106V87.1367Z" fill="#42E8E0"/>
<path d="M90.7568 89.7641L86.944 87.5656V86.4932L90.7568 88.6917V89.7641Z" fill="#42E8E0"/>
<path d="M92.6895 90.8902L91.508 90.1931V89.1206L92.6895 89.8177V90.8902Z" fill="#42E8E0"/>
<path d="M88.1787 90.783L84.2048 88.4772V87.4048L88.1787 89.7106V90.783Z" fill="#42E8E0"/>
<path d="M91.8301 92.8744L88.9839 91.2121V90.1396L91.8301 91.8019V92.8744Z" fill="#42E8E0"/>
<path d="M94.5693 94.4292L92.5824 93.3032V92.2307L94.5693 93.3568V94.4292Z" fill="#42E8E0"/>
<path d="M85.5469 91.7481L84.2043 90.9438V89.8713L85.5469 90.6757V91.7481Z" fill="#42E8E0"/>
<path d="M88.0713 93.196L86.2991 92.1772V91.1047L88.0713 92.1236V93.196Z" fill="#42E8E0"/>
<path d="M91.7227 95.2872L88.8764 93.6249V92.5525L91.7227 94.2148V95.2872Z" fill="#42E8E0"/>
<path d="M88.3398 95.8236L84.2048 93.4642V92.3381L88.3398 94.7511V95.8236Z" fill="#42E8E0"/>
<path d="M92.958 98.5048L89.0914 96.2526V95.1802L92.958 97.4323V98.5048Z" fill="#42E8E0"/>
<path d="M94.9453 99.6306L93.7102 98.9335V97.8611L94.9453 98.5582V99.6306Z" fill="#42E8E0"/>
<path d="M96.8252 100.703L95.6437 100.006V98.9336L96.8252 99.6307V100.703Z" fill="#42E8E0"/>
<path d="M86.6748 97.3787L84.2045 95.9309V94.8584L86.6748 96.2526V97.3787Z" fill="#42E8E0"/>
<path d="M97.0396 83.4903L100.477 85.4744V84.3483L97.0396 82.3643V83.4903Z" fill="#42E8E0"/>
<path d="M97.7915 86.3859L100.477 87.941V86.8685L97.7915 85.3135V86.3859Z" fill="#42E8E0"/>
<path d="M98.5433 89.2817L100.477 90.4078V89.3353L98.5433 88.2092V89.2817Z" fill="#42E8E0"/>
<path d="M97.6303 91.2656L100.477 92.8742V91.8018L97.6303 90.1931V91.2656Z" fill="#42E8E0"/>
<path d="M98.5433 94.2684L100.477 95.3945V94.2684L98.5433 93.1423V94.2684Z" fill="#42E8E0"/>
<path d="M98.0063 96.4133L100.477 97.8611V96.7886L98.0063 95.3408V96.4133Z" fill="#42E8E0"/>
<path d="M99.134 99.5771L100.477 100.328V99.2554L99.134 98.5046V99.5771Z" fill="#42E8E0"/>
<path d="M97.8452 101.293L100.477 102.848V101.722L97.8452 100.221V101.293Z" fill="#42E8E0"/>
<path d="M98.0063 103.867L100.477 105.315V104.242L98.0063 102.794V103.867Z" fill="#42E8E0"/>
<path d="M88.501 98.3973L87.4269 97.8075V96.6814L88.501 97.3249V98.3973Z" fill="#42E8E0"/>
<path d="M91.6152 100.221L89.2523 98.8264V97.7539L91.6152 99.0945V100.221Z" fill="#42E8E0"/>
<path d="M93.6025 108.532L89.5749 106.226V105.154L93.6025 107.46V108.532Z" fill="#42E8E0"/>
<path d="M96.3418 110.141L94.7307 109.229V108.157L96.3418 109.068V110.141Z" fill="#42E8E0"/>
<path d="M47.6337 116.736C48.0633 116.736 48.5466 116.629 48.9226 116.415L58.4816 110.892C58.9112 110.677 59.126 110.355 59.126 109.98C59.126 109.658 58.9649 109.39 58.6427 109.229L12.5125 82.6324C11.9218 82.3107 10.9014 82.3107 10.2033 82.7397L0.644295 88.2628C0.21468 88.4773 -0.0001297 88.799 -0.0001297 89.1744C-0.0001297 89.4961 0.160984 89.7642 0.483196 89.9251L46.6134 116.468C46.8819 116.629 47.2578 116.736 47.6337 116.736ZM11.4921 83.0078C11.7607 83.0078 12.0292 83.0614 12.1903 83.1686L58.3204 109.765C58.3741 109.819 58.5352 109.873 58.5352 110.034C58.5352 110.141 58.4278 110.302 58.213 110.409L48.6541 115.932C48.1707 116.2 47.3652 116.254 46.9356 116.039L0.805405 89.4425C0.751701 89.3889 0.590599 89.3352 0.590599 89.1744C0.590599 89.0671 0.697998 88.9063 0.912807 88.799L10.4718 83.2759C10.794 83.0614 11.1699 83.0078 11.4921 83.0078Z" fill="url(#paint34_linear_55_6387)"/>
<path d="M19.1716 67.189C20.4067 67.8861 21.5345 68.8513 22.5548 70.031C23.9511 65.4731 28.301 64.0789 33.4027 67.0282C37.6451 69.4412 41.2969 74.2672 43.2839 79.3614C43.9283 79.3614 44.6264 79.5759 45.432 80.0585C48.1708 81.6671 50.4263 85.528 50.4263 88.6917C50.4263 88.7453 50.4263 88.7989 50.4263 88.9062C51.2318 88.9598 52.091 89.2279 53.004 89.7642C56.5483 91.8018 59.3945 96.7351 59.3945 100.81C59.3945 104.886 56.5483 106.548 53.004 104.51L19.2253 85.0454C14.9828 82.5787 11.4922 76.6266 11.4922 71.6933C11.4385 66.7601 14.9291 64.776 19.1716 67.189Z" fill="url(#paint35_linear_55_6387)"/>
<path d="M19.1716 67.1884C19.8697 67.6174 20.5679 68.1 21.2123 68.6898L24.9714 66.4913C27.0658 65.0435 30.0731 65.0971 33.4027 67.0275C37.6451 69.4406 41.2969 74.2666 43.2839 79.3607C43.9283 79.3607 44.6264 79.5752 45.432 80.0578C48.1708 81.6665 50.4263 85.5273 50.4263 88.6911C50.4263 88.7447 50.4263 88.7983 50.4263 88.9056C51.2318 88.9592 52.091 89.2273 53.004 89.7635C56.5483 91.8012 59.3945 96.7345 59.3945 100.81C59.3945 102.847 58.6964 104.242 57.5687 104.939H57.515L48.2782 110.301L46.2375 100.595L19.2253 85.0447C14.9828 82.5781 11.4922 76.626 11.4922 71.6927C11.4385 66.7594 14.9291 64.7754 19.1716 67.1884Z" fill="url(#paint36_radial_55_6387)"/>
<path d="M4.29609 72.1223L13.694 66.7064C15.0902 65.8484 17.0235 65.9557 19.1716 67.2426C19.8697 67.6716 20.5678 68.1542 21.2123 68.744L24.9714 66.5455C27.0658 65.0977 30.0731 65.1513 33.4027 67.0817C37.6451 69.4948 41.2969 74.3208 43.2839 79.4149C43.9283 79.4149 44.6264 79.6294 45.432 80.112C48.1708 81.7207 50.4263 85.5815 50.4263 88.7453C50.4263 88.7989 50.4263 88.8525 50.4263 88.9598C51.2318 89.0134 52.091 89.2815 53.004 89.8177C56.5483 91.8554 59.3945 96.7887 59.3945 100.864C59.3945 102.902 58.6964 104.296 57.5687 104.993H57.515L48.2782 110.355L46.2375 100.649L19.2253 85.0989C15.7884 83.1149 12.8347 78.8251 11.8681 74.6425L4.29609 72.1223Z" fill="url(#paint37_linear_55_6387)"/>
<path d="M9.88155 72.6048C11.1167 73.3019 12.2444 74.2671 13.2648 75.4468C14.661 70.8889 19.0109 69.4947 24.1126 72.444C28.3551 74.857 32.0069 79.683 33.9938 84.7772C34.6383 84.7772 35.3364 84.9916 36.1419 85.4742C38.8807 87.0829 41.1362 90.9437 41.1362 94.1075C41.1362 94.1611 41.1362 94.2147 41.1362 94.322C41.9418 94.3756 42.801 94.6437 43.7139 95.1799C47.2583 97.2176 50.1045 102.151 50.1045 106.226C50.1045 110.302 47.2583 111.964 43.7139 109.926L9.93525 90.4611C5.69277 87.9945 2.20213 82.0424 2.20213 77.1091C2.14843 72.1222 5.63907 70.1382 9.88155 72.6048Z" fill="url(#paint38_linear_55_6387)"/>
<mask id="mask3_55_6387" style="mask-type:alpha" maskUnits="userSpaceOnUse" x="53" y="113" width="22" height="14">
<path d="M74.6993 126.657L74.9678 126.174L53.4869 113.251L53.1647 113.787L74.6993 126.657Z" fill="url(#paint39_linear_55_6387)"/>
</mask>
<g mask="url(#mask3_55_6387)">
<path d="M74.6993 126.657L74.9678 126.174L53.4869 113.251L53.1647 113.787L74.6993 126.657Z" fill="url(#paint40_linear_55_6387)"/>
</g>
<defs>
<linearGradient id="paint0_linear_55_6387" x1="51.2722" y1="72.5132" x2="51.2722" y2="16.8052" gradientUnits="userSpaceOnUse">
<stop stop-color="#C0BFF6"/>
<stop offset="0.2938" stop-color="#C5C4F7"/>
<stop offset="0.6399" stop-color="#D3D2F9"/>
<stop offset="1" stop-color="#E9E9FD"/>
</linearGradient>
<linearGradient id="paint1_linear_55_6387" x1="11.6158" y1="14.7457" x2="38.0533" y2="14.7457" gradientUnits="userSpaceOnUse">
<stop/>
<stop offset="0.0469354" stop-color="#2F2F2F"/>
<stop offset="0.0981487" stop-color="#5A5A5A"/>
<stop offset="0.155" stop-color="#828282"/>
<stop offset="0.2161" stop-color="#A4A4A4"/>
<stop offset="0.2828" stop-color="#C0C0C0"/>
<stop offset="0.3571" stop-color="#D7D7D7"/>
<stop offset="0.442" stop-color="#E9E9E9"/>
<stop offset="0.5443" stop-color="#F6F6F6"/>
<stop offset="0.6813" stop-color="#FDFDFD"/>
<stop offset="1" stop-color="white"/>
</linearGradient>
<linearGradient id="paint2_linear_55_6387" x1="11.6158" y1="14.7457" x2="38.0533" y2="14.7457" gradientUnits="userSpaceOnUse">
<stop stop-color="#E9E9FD"/>
<stop offset="0.0373936" stop-color="#D3D5F7"/>
<stop offset="0.1056" stop-color="#B2B6EF"/>
<stop offset="0.1817" stop-color="#969BE7"/>
<stop offset="0.2663" stop-color="#7F86E1"/>
<stop offset="0.3632" stop-color="#6D75DD"/>
<stop offset="0.4798" stop-color="#606AD9"/>
<stop offset="0.6363" stop-color="#5963D8"/>
<stop offset="1" stop-color="#5761D7"/>
</linearGradient>
<linearGradient id="paint3_linear_55_6387" x1="18.8708" y1="14.0733" x2="57.2356" y2="14.0733" gradientUnits="userSpaceOnUse">
<stop stop-color="#C0BFF6"/>
<stop offset="0.2938" stop-color="#C5C4F7"/>
<stop offset="0.6399" stop-color="#D3D2F9"/>
<stop offset="1" stop-color="#E9E9FD"/>
</linearGradient>
<linearGradient id="paint4_linear_55_6387" x1="28.462" y1="20.7336" x2="28.462" y2="8.32995" gradientUnits="userSpaceOnUse">
<stop stop-color="#5761D7"/>
<stop offset="0.1779" stop-color="#5C66D9"/>
<stop offset="0.3876" stop-color="#6A73DF"/>
<stop offset="0.6134" stop-color="#8289E8"/>
<stop offset="0.849" stop-color="#A3A7F5"/>
<stop offset="1" stop-color="#BCBEFF"/>
</linearGradient>
<linearGradient id="paint5_linear_55_6387" x1="29.2179" y1="11.1421" x2="39.1523" y2="11.1421" gradientUnits="userSpaceOnUse">
<stop stop-color="#5761D7"/>
<stop offset="0.1779" stop-color="#5C66D9"/>
<stop offset="0.3876" stop-color="#6A73DF"/>
<stop offset="0.6134" stop-color="#8289E8"/>
<stop offset="0.849" stop-color="#A3A7F5"/>
<stop offset="1" stop-color="#BCBEFF"/>
</linearGradient>
<linearGradient id="paint6_linear_55_6387" x1="31.7971" y1="12.6241" x2="41.7315" y2="12.6241" gradientUnits="userSpaceOnUse">
<stop stop-color="#5761D7"/>
<stop offset="0.1779" stop-color="#5C66D9"/>
<stop offset="0.3876" stop-color="#6A73DF"/>
<stop offset="0.6134" stop-color="#8289E8"/>
<stop offset="0.849" stop-color="#A3A7F5"/>
<stop offset="1" stop-color="#BCBEFF"/>
</linearGradient>
<linearGradient id="paint7_linear_55_6387" x1="34.3752" y1="14.106" x2="44.3096" y2="14.106" gradientUnits="userSpaceOnUse">
<stop stop-color="#5761D7"/>
<stop offset="0.1779" stop-color="#5C66D9"/>
<stop offset="0.3876" stop-color="#6A73DF"/>
<stop offset="0.6134" stop-color="#8289E8"/>
<stop offset="0.849" stop-color="#A3A7F5"/>
<stop offset="1" stop-color="#BCBEFF"/>
</linearGradient>
<linearGradient id="paint8_linear_55_6387" x1="36.9544" y1="15.588" x2="46.8888" y2="15.588" gradientUnits="userSpaceOnUse">
<stop stop-color="#5761D7"/>
<stop offset="0.1779" stop-color="#5C66D9"/>
<stop offset="0.3876" stop-color="#6A73DF"/>
<stop offset="0.6134" stop-color="#8289E8"/>
<stop offset="0.849" stop-color="#A3A7F5"/>
<stop offset="1" stop-color="#BCBEFF"/>
</linearGradient>
<linearGradient id="paint9_linear_55_6387" x1="12.2897" y1="19.0823" x2="14.8336" y2="19.0823" gradientUnits="userSpaceOnUse">
<stop stop-color="#C0BFF6"/>
<stop offset="0.2938" stop-color="#C5C4F7"/>
<stop offset="0.6399" stop-color="#D3D2F9"/>
<stop offset="1" stop-color="#E9E9FD"/>
</linearGradient>
<linearGradient id="paint10_linear_55_6387" x1="11.98" y1="19.3413" x2="14.0837" y2="19.3413" gradientUnits="userSpaceOnUse">
<stop stop-color="#5761D7"/>
<stop offset="0.1779" stop-color="#5C66D9"/>
<stop offset="0.3876" stop-color="#6A73DF"/>
<stop offset="0.6134" stop-color="#8289E8"/>
<stop offset="0.849" stop-color="#A3A7F5"/>
<stop offset="1" stop-color="#BCBEFF"/>
</linearGradient>
<linearGradient id="paint11_linear_55_6387" x1="41.309" y1="92.9493" x2="102.308" y2="92.9493" gradientUnits="userSpaceOnUse">
<stop stop-color="#5761D7"/>
<stop offset="0.0725764" stop-color="#5472D8"/>
<stop offset="0.2791" stop-color="#4E9CDB"/>
<stop offset="0.4801" stop-color="#49BDDD"/>
<stop offset="0.6715" stop-color="#45D5DF"/>
<stop offset="0.8493" stop-color="#43E3E0"/>
<stop offset="1" stop-color="#42E8E0"/>
</linearGradient>
<linearGradient id="paint12_linear_55_6387" x1="85.0273" y1="81.0915" x2="85.0273" y2="25.3835" gradientUnits="userSpaceOnUse">
<stop stop-color="#C0BFF6"/>
<stop offset="0.2938" stop-color="#C5C4F7"/>
<stop offset="0.6399" stop-color="#D3D2F9"/>
<stop offset="1" stop-color="#E9E9FD"/>
</linearGradient>
<linearGradient id="paint13_linear_55_6387" x1="45.371" y1="23.324" x2="71.8084" y2="23.324" gradientUnits="userSpaceOnUse">
<stop/>
<stop offset="0.0469354" stop-color="#2F2F2F"/>
<stop offset="0.0981487" stop-color="#5A5A5A"/>
<stop offset="0.155" stop-color="#828282"/>
<stop offset="0.2161" stop-color="#A4A4A4"/>
<stop offset="0.2828" stop-color="#C0C0C0"/>
<stop offset="0.3571" stop-color="#D7D7D7"/>
<stop offset="0.442" stop-color="#E9E9E9"/>
<stop offset="0.5443" stop-color="#F6F6F6"/>
<stop offset="0.6813" stop-color="#FDFDFD"/>
<stop offset="1" stop-color="white"/>
</linearGradient>
<linearGradient id="paint14_linear_55_6387" x1="45.371" y1="23.324" x2="71.8084" y2="23.324" gradientUnits="userSpaceOnUse">
<stop stop-color="#E9E9FD"/>
<stop offset="0.0373936" stop-color="#D3D5F7"/>
<stop offset="0.1056" stop-color="#B2B6EF"/>
<stop offset="0.1817" stop-color="#969BE7"/>
<stop offset="0.2663" stop-color="#7F86E1"/>
<stop offset="0.3632" stop-color="#6D75DD"/>
<stop offset="0.4798" stop-color="#606AD9"/>
<stop offset="0.6363" stop-color="#5963D8"/>
<stop offset="1" stop-color="#5761D7"/>
</linearGradient>
<linearGradient id="paint15_linear_55_6387" x1="52.6259" y1="22.6516" x2="90.9907" y2="22.6516" gradientUnits="userSpaceOnUse">
<stop stop-color="#C0BFF6"/>
<stop offset="0.2938" stop-color="#C5C4F7"/>
<stop offset="0.6399" stop-color="#D3D2F9"/>
<stop offset="1" stop-color="#E9E9FD"/>
</linearGradient>
<linearGradient id="paint16_linear_55_6387" x1="62.2171" y1="29.3119" x2="62.2171" y2="16.9083" gradientUnits="userSpaceOnUse">
<stop stop-color="#5761D7"/>
<stop offset="0.1779" stop-color="#5C66D9"/>
<stop offset="0.3876" stop-color="#6A73DF"/>
<stop offset="0.6134" stop-color="#8289E8"/>
<stop offset="0.849" stop-color="#A3A7F5"/>
<stop offset="1" stop-color="#BCBEFF"/>
</linearGradient>
<linearGradient id="paint17_linear_55_6387" x1="62.973" y1="19.7203" x2="72.9075" y2="19.7203" gradientUnits="userSpaceOnUse">
<stop stop-color="#5761D7"/>
<stop offset="0.1779" stop-color="#5C66D9"/>
<stop offset="0.3876" stop-color="#6A73DF"/>
<stop offset="0.6134" stop-color="#8289E8"/>
<stop offset="0.849" stop-color="#A3A7F5"/>
<stop offset="1" stop-color="#BCBEFF"/>
</linearGradient>
<linearGradient id="paint18_linear_55_6387" x1="65.5522" y1="21.2023" x2="75.4866" y2="21.2023" gradientUnits="userSpaceOnUse">
<stop stop-color="#5761D7"/>
<stop offset="0.1779" stop-color="#5C66D9"/>
<stop offset="0.3876" stop-color="#6A73DF"/>
<stop offset="0.6134" stop-color="#8289E8"/>
<stop offset="0.849" stop-color="#A3A7F5"/>
<stop offset="1" stop-color="#BCBEFF"/>
</linearGradient>
<linearGradient id="paint19_linear_55_6387" x1="68.1303" y1="22.6842" x2="78.0648" y2="22.6842" gradientUnits="userSpaceOnUse">
<stop stop-color="#5761D7"/>
<stop offset="0.1779" stop-color="#5C66D9"/>
<stop offset="0.3876" stop-color="#6A73DF"/>
<stop offset="0.6134" stop-color="#8289E8"/>
<stop offset="0.849" stop-color="#A3A7F5"/>
<stop offset="1" stop-color="#BCBEFF"/>
</linearGradient>
<linearGradient id="paint20_linear_55_6387" x1="70.7095" y1="24.1663" x2="80.6439" y2="24.1663" gradientUnits="userSpaceOnUse">
<stop stop-color="#5761D7"/>
<stop offset="0.1779" stop-color="#5C66D9"/>
<stop offset="0.3876" stop-color="#6A73DF"/>
<stop offset="0.6134" stop-color="#8289E8"/>
<stop offset="0.849" stop-color="#A3A7F5"/>
<stop offset="1" stop-color="#BCBEFF"/>
</linearGradient>
<linearGradient id="paint21_linear_55_6387" x1="46.0448" y1="27.6607" x2="48.5888" y2="27.6607" gradientUnits="userSpaceOnUse">
<stop stop-color="#C0BFF6"/>
<stop offset="0.2938" stop-color="#C5C4F7"/>
<stop offset="0.6399" stop-color="#D3D2F9"/>
<stop offset="1" stop-color="#E9E9FD"/>
</linearGradient>
<linearGradient id="paint22_linear_55_6387" x1="45.735" y1="27.9195" x2="47.8388" y2="27.9195" gradientUnits="userSpaceOnUse">
<stop stop-color="#5761D7"/>
<stop offset="0.1779" stop-color="#5C66D9"/>
<stop offset="0.3876" stop-color="#6A73DF"/>
<stop offset="0.6134" stop-color="#8289E8"/>
<stop offset="0.849" stop-color="#A3A7F5"/>
<stop offset="1" stop-color="#BCBEFF"/>
</linearGradient>
<linearGradient id="paint23_linear_55_6387" x1="118.781" y1="112.193" x2="118.781" y2="56.4848" gradientUnits="userSpaceOnUse">
<stop stop-color="#C0BFF6"/>
<stop offset="0.2938" stop-color="#C5C4F7"/>
<stop offset="0.6399" stop-color="#D3D2F9"/>
<stop offset="1" stop-color="#E9E9FD"/>
</linearGradient>
<linearGradient id="paint24_linear_55_6387" x1="79.1251" y1="54.4253" x2="105.563" y2="54.4253" gradientUnits="userSpaceOnUse">
<stop/>
<stop offset="0.0469354" stop-color="#2F2F2F"/>
<stop offset="0.0981487" stop-color="#5A5A5A"/>
<stop offset="0.155" stop-color="#828282"/>
<stop offset="0.2161" stop-color="#A4A4A4"/>
<stop offset="0.2828" stop-color="#C0C0C0"/>
<stop offset="0.3571" stop-color="#D7D7D7"/>
<stop offset="0.442" stop-color="#E9E9E9"/>
<stop offset="0.5443" stop-color="#F6F6F6"/>
<stop offset="0.6813" stop-color="#FDFDFD"/>
<stop offset="1" stop-color="white"/>
</linearGradient>
<linearGradient id="paint25_linear_55_6387" x1="79.1251" y1="54.4253" x2="105.563" y2="54.4253" gradientUnits="userSpaceOnUse">
<stop stop-color="#E9E9FD"/>
<stop offset="0.0373936" stop-color="#D3D5F7"/>
<stop offset="0.1056" stop-color="#B2B6EF"/>
<stop offset="0.1817" stop-color="#969BE7"/>
<stop offset="0.2663" stop-color="#7F86E1"/>
<stop offset="0.3632" stop-color="#6D75DD"/>
<stop offset="0.4798" stop-color="#606AD9"/>
<stop offset="0.6363" stop-color="#5963D8"/>
<stop offset="1" stop-color="#5761D7"/>
</linearGradient>
<linearGradient id="paint26_linear_55_6387" x1="86.38" y1="53.7529" x2="124.745" y2="53.7529" gradientUnits="userSpaceOnUse">
<stop stop-color="#C0BFF6"/>
<stop offset="0.2938" stop-color="#C5C4F7"/>
<stop offset="0.6399" stop-color="#D3D2F9"/>
<stop offset="1" stop-color="#E9E9FD"/>
</linearGradient>
<linearGradient id="paint27_linear_55_6387" x1="95.9713" y1="60.4132" x2="95.9713" y2="48.0096" gradientUnits="userSpaceOnUse">
<stop stop-color="#5761D7"/>
<stop offset="0.1779" stop-color="#5C66D9"/>
<stop offset="0.3876" stop-color="#6A73DF"/>
<stop offset="0.6134" stop-color="#8289E8"/>
<stop offset="0.849" stop-color="#A3A7F5"/>
<stop offset="1" stop-color="#BCBEFF"/>
</linearGradient>
<linearGradient id="paint28_linear_55_6387" x1="96.7272" y1="50.8217" x2="106.662" y2="50.8217" gradientUnits="userSpaceOnUse">
<stop stop-color="#5761D7"/>
<stop offset="0.1779" stop-color="#5C66D9"/>
<stop offset="0.3876" stop-color="#6A73DF"/>
<stop offset="0.6134" stop-color="#8289E8"/>
<stop offset="0.849" stop-color="#A3A7F5"/>
<stop offset="1" stop-color="#BCBEFF"/>
</linearGradient>
<linearGradient id="paint29_linear_55_6387" x1="99.3064" y1="52.3037" x2="109.241" y2="52.3037" gradientUnits="userSpaceOnUse">
<stop stop-color="#5761D7"/>
<stop offset="0.1779" stop-color="#5C66D9"/>
<stop offset="0.3876" stop-color="#6A73DF"/>
<stop offset="0.6134" stop-color="#8289E8"/>
<stop offset="0.849" stop-color="#A3A7F5"/>
<stop offset="1" stop-color="#BCBEFF"/>
</linearGradient>
<linearGradient id="paint30_linear_55_6387" x1="101.885" y1="53.7856" x2="111.819" y2="53.7856" gradientUnits="userSpaceOnUse">
<stop stop-color="#5761D7"/>
<stop offset="0.1779" stop-color="#5C66D9"/>
<stop offset="0.3876" stop-color="#6A73DF"/>
<stop offset="0.6134" stop-color="#8289E8"/>
<stop offset="0.849" stop-color="#A3A7F5"/>
<stop offset="1" stop-color="#BCBEFF"/>
</linearGradient>
<linearGradient id="paint31_linear_55_6387" x1="104.464" y1="55.2676" x2="114.398" y2="55.2676" gradientUnits="userSpaceOnUse">
<stop stop-color="#5761D7"/>
<stop offset="0.1779" stop-color="#5C66D9"/>
<stop offset="0.3876" stop-color="#6A73DF"/>
<stop offset="0.6134" stop-color="#8289E8"/>
<stop offset="0.849" stop-color="#A3A7F5"/>
<stop offset="1" stop-color="#BCBEFF"/>
</linearGradient>
<linearGradient id="paint32_linear_55_6387" x1="79.799" y1="58.762" x2="82.3429" y2="58.762" gradientUnits="userSpaceOnUse">
<stop stop-color="#C0BFF6"/>
<stop offset="0.2938" stop-color="#C5C4F7"/>
<stop offset="0.6399" stop-color="#D3D2F9"/>
<stop offset="1" stop-color="#E9E9FD"/>
</linearGradient>
<linearGradient id="paint33_linear_55_6387" x1="79.4892" y1="59.0207" x2="81.593" y2="59.0207" gradientUnits="userSpaceOnUse">
<stop stop-color="#5761D7"/>
<stop offset="0.1779" stop-color="#5C66D9"/>
<stop offset="0.3876" stop-color="#6A73DF"/>
<stop offset="0.6134" stop-color="#8289E8"/>
<stop offset="0.849" stop-color="#A3A7F5"/>
<stop offset="1" stop-color="#BCBEFF"/>
</linearGradient>
<linearGradient id="paint34_linear_55_6387" x1="59.1159" y1="99.5701" x2="0.00916243" y2="99.5701" gradientUnits="userSpaceOnUse">
<stop stop-color="#42E8E0"/>
<stop offset="0.1507" stop-color="#43E3E0"/>
<stop offset="0.3285" stop-color="#45D5DF"/>
<stop offset="0.5199" stop-color="#49BDDD"/>
<stop offset="0.7209" stop-color="#4E9CDB"/>
<stop offset="0.9274" stop-color="#5472D8"/>
<stop offset="1" stop-color="#5761D7"/>
</linearGradient>
<linearGradient id="paint35_linear_55_6387" x1="59.3312" y1="95.0835" x2="11.4515" y2="95.0835" gradientUnits="userSpaceOnUse">
<stop stop-color="#5761D7"/>
<stop offset="0.1779" stop-color="#5C66D9"/>
<stop offset="0.3876" stop-color="#6A73DF"/>
<stop offset="0.6134" stop-color="#8289E8"/>
<stop offset="0.849" stop-color="#A3A7F5"/>
<stop offset="1" stop-color="#BCBEFF"/>
</linearGradient>
<radialGradient id="paint36_radial_55_6387" cx="0" cy="0" r="1" gradientUnits="userSpaceOnUse" gradientTransform="translate(48.0785 80.7322) rotate(180) scale(22.8395 22.8056)">
<stop stop-color="#2B237C"/>
<stop offset="1" stop-color="#180D5B"/>
</radialGradient>
<linearGradient id="paint37_linear_55_6387" x1="59.3307" y1="87.8962" x2="4.29544" y2="87.8962" gradientUnits="userSpaceOnUse">
<stop stop-color="#5761D7"/>
<stop offset="0.1779" stop-color="#5C66D9"/>
<stop offset="0.3876" stop-color="#6A73DF"/>
<stop offset="0.6134" stop-color="#8289E8"/>
<stop offset="0.849" stop-color="#A3A7F5"/>
<stop offset="1" stop-color="#BCBEFF"/>
</linearGradient>
<linearGradient id="paint38_linear_55_6387" x1="50.0503" y1="100.462" x2="2.17063" y2="100.462" gradientUnits="userSpaceOnUse">
<stop stop-color="#C0BFF6"/>
<stop offset="0.2938" stop-color="#C5C4F7"/>
<stop offset="0.6399" stop-color="#D3D2F9"/>
<stop offset="1" stop-color="#E9E9FD"/>
</linearGradient>
<linearGradient id="paint39_linear_55_6387" x1="74.9905" y1="119.972" x2="53.1692" y2="119.972" gradientUnits="userSpaceOnUse">
<stop/>
<stop offset="0.0526243" stop-color="#171717"/>
<stop offset="0.2032" stop-color="#545454"/>
<stop offset="0.353" stop-color="#888888"/>
<stop offset="0.4983" stop-color="#B3B3B3"/>
<stop offset="0.6383" stop-color="#D4D4D4"/>
<stop offset="0.7715" stop-color="#ECECEC"/>
<stop offset="0.8952" stop-color="#FAFAFA"/>
<stop offset="1" stop-color="white"/>
</linearGradient>
<linearGradient id="paint40_linear_55_6387" x1="74.9905" y1="119.972" x2="53.1692" y2="119.972" gradientUnits="userSpaceOnUse">
<stop stop-color="#5761D7"/>
<stop offset="0.0725764" stop-color="#5472D8"/>
<stop offset="0.2791" stop-color="#4E9CDB"/>
<stop offset="0.4801" stop-color="#49BDDD"/>
<stop offset="0.6715" stop-color="#45D5DF"/>
<stop offset="0.8493" stop-color="#43E3E0"/>
<stop offset="1" stop-color="#42E8E0"/>
</linearGradient>
</defs>
</svg>
