<svg width="100" height="136" viewBox="0 0 100 136" fill="none" xmlns="http://www.w3.org/2000/svg">
<path d="M73.6236 34.9118H78.1123C77.4645 33.3859 77.048 32.4611 77.048 32.4611L32.1151 14.9358V89.8922C32.1151 89.8922 32.1151 89.8922 32.1151 89.9385V89.9847C32.1151 90.1234 32.2076 90.2621 32.3927 90.3546L73.346 113.984C73.4385 114.03 73.5311 114.076 73.6236 114.076V34.9118Z" fill="#242993"/>
<path d="M100 24.1841L74.1323 38.9349V84.066V114.169C74.41 114.169 74.7339 114.076 74.9653 113.938L99.5835 99.7416C99.8612 99.6029 100 99.418 100 99.233V24.1841Z" fill="url(#paint0_linear_55_6722)"/>
<path d="M72.282 16.3694V82.9562V102.377V113.336L73.3463 113.938C73.5314 114.076 73.809 114.123 74.1329 114.076C74.4106 114.076 74.4569 113.891 74.6882 113.753L74.9196 113.66L74.6882 102.146V84.1122L75.1973 16.3694H72.282Z" fill="#3947BA"/>
<path d="M75.1969 102.377V84.6208V38.3337L74.1326 38.9349V84.0659V114.169C74.1788 114.169 74.2714 114.169 74.3177 114.169H74.3639C74.5028 114.169 74.6416 114.122 74.7804 114.076C74.7804 114.076 74.7804 114.076 74.8267 114.076C74.873 114.03 74.9655 114.03 75.0118 113.984L75.2432 113.845V102.377H75.1969Z" fill="#CAE7FF"/>
<path opacity="0.51" d="M34.1517 19.0513L70.2461 39.9059V110.053L34.1517 89.1986V19.0513Z" fill="#4553C7"/>
<path opacity="0.51" d="M32.1147 79.1181L72.2812 52.2522V38.3799L32.1147 14.9358V79.1181Z" fill="#4553C7"/>
<path d="M73.3914 38.9815L32.4381 15.3524C32.0217 15.1212 32.068 14.7051 32.577 14.4276L57.1489 0.231666C57.6117 -0.045779 58.3521 -0.0920199 58.7686 0.185425L99.7218 23.8145C100.138 24.0457 100.092 24.4619 99.583 24.7393L74.9648 38.9353C74.502 39.2127 73.7616 39.2127 73.3914 38.9815Z" fill="#BCD5FF"/>
<path d="M58.353 2.68213L38.6862 14.0111L36.789 13.6874V15.1209L73.7626 36.4842L92.5039 23.768L58.353 2.68213Z" fill="url(#paint1_linear_55_6722)"/>
<path d="M95.373 22.5657V24.0454L73.7627 36.4842V35.0045L95.373 22.5657Z" fill="url(#paint2_linear_55_6722)"/>
<path d="M73.7627 35.0045L36.7891 13.6874L58.3531 1.20239L95.373 22.5657L73.7627 35.0045Z" fill="url(#paint3_linear_55_6722)"/>
<path d="M50.5777 12.1152L49.9761 11.7915L50.0224 11.5141L55.5291 8.32349L56.2695 8.69341L56.1307 8.92462L50.5777 12.1152Z" fill="#3F38FC"/>
<path d="M55.5292 8.60084L56.1308 8.92452L56.501 8.69332L55.5292 8.13843L49.606 11.5603L49.9762 11.7915L55.5292 8.60084Z" fill="url(#paint4_linear_55_6722)"/>
<path d="M52.3824 13.1326L51.7808 12.8089L51.8271 12.5314L57.2875 9.34082L58.0742 9.71075L57.9354 9.94195L52.3824 13.1326Z" fill="#3F38FC"/>
<path d="M57.3339 9.61817L57.9355 9.94186L58.3057 9.71065L57.3339 9.15576L51.4107 12.5776L51.7809 12.8088L57.3339 9.61817Z" fill="url(#paint5_linear_55_6722)"/>
<path d="M54.1412 14.1959L53.5859 13.826L53.6322 13.5485L59.0926 10.3579L59.833 10.7278L59.6942 10.959L54.1412 14.1959Z" fill="#3F38FC"/>
<path d="M59.139 10.6354L59.6943 10.9591L60.0645 10.7741L59.139 10.2192L53.1695 13.5948L53.586 13.826L59.139 10.6354Z" fill="url(#paint6_linear_55_6722)"/>
<path d="M55.9459 15.2134L55.3443 14.8435L55.3906 14.566L60.8973 11.4216L61.6377 11.7916L61.4989 12.0228L55.9459 15.2134Z" fill="#3F38FC"/>
<path d="M60.8974 11.6527L61.4989 12.0227L61.8691 11.7915L60.8974 11.2366L54.9742 14.6584L55.3444 14.8434L60.8974 11.6527Z" fill="url(#paint7_linear_55_6722)"/>
<path d="M61.1754 18.2652L60.5738 17.8953L60.6201 17.6179L66.1268 14.4272L66.8672 14.7972L66.7284 15.0284L61.1754 18.2652Z" fill="#3F38FC"/>
<path d="M66.1269 14.7047L66.7284 15.0284L67.0986 14.8435L66.1269 14.2886L60.2037 17.6642L60.5739 17.8954L66.1269 14.7047Z" fill="url(#paint8_linear_55_6722)"/>
<path d="M62.9801 19.2827L62.3785 18.9128L62.4248 18.6353L67.8852 15.491L68.6719 15.8147L68.533 16.0921L62.9801 19.2827Z" fill="#3F38FC"/>
<path d="M67.9315 15.7221L68.5331 16.092L68.9033 15.8608L67.9315 15.3059L62.0084 18.7277L62.3786 18.9127L67.9315 15.7221Z" fill="url(#paint9_linear_55_6722)"/>
<path d="M64.7851 20.3L64.1836 19.9764L64.2298 19.6989L69.6903 16.5083L70.4307 16.8782L70.2918 17.1094L64.7851 20.3Z" fill="#3F38FC"/>
<path d="M69.7362 16.7857L70.2915 17.1093L70.708 16.8781L69.7362 16.3232L63.8131 19.7451L64.1833 19.9763L69.7362 16.7857Z" fill="url(#paint10_linear_55_6722)"/>
<path d="M66.5435 21.3174L65.942 20.9937L66.0345 20.7163L71.495 17.5256L72.2354 17.8956L72.0965 18.1268L66.5435 21.3174Z" fill="#3F38FC"/>
<path d="M71.495 17.803L72.0966 18.1267L72.4668 17.8955L71.495 17.3406L65.5718 20.7624L65.942 20.9936L71.495 17.803Z" fill="url(#paint11_linear_55_6722)"/>
<path d="M71.7721 24.3691L71.2168 24.0455L71.263 23.768L76.7235 20.5774L77.4639 20.9473L77.325 21.1785L71.7721 24.3691Z" fill="#3F38FC"/>
<path d="M76.7235 20.8085L77.3251 21.1784L77.6953 20.9472L76.7235 20.3923L70.8004 23.8142L71.2168 24.0454L76.7235 20.8085Z" fill="url(#paint12_linear_55_6722)"/>
<path d="M73.5767 25.3865L72.9752 25.0628L73.0214 24.7853L78.4819 21.5947L79.2686 21.9647L79.1297 22.1959L73.5767 25.3865Z" fill="#3F38FC"/>
<path d="M78.5282 21.8721L79.1298 22.1958L79.5 21.9646L78.5282 21.4097L72.605 24.8315L72.9752 25.0627L78.5282 21.8721Z" fill="url(#paint13_linear_55_6722)"/>
<path d="M75.3814 26.4498L74.7799 26.0799L74.8261 25.8024L80.2866 22.6118L81.0732 22.9817L80.8881 23.2129L75.3814 26.4498Z" fill="#3F38FC"/>
<path d="M80.3329 22.8893L80.8882 23.213L81.3047 23.028L80.3329 22.4731L74.4097 25.8487L74.7799 26.0799L80.3329 22.8893Z" fill="url(#paint14_linear_55_6722)"/>
<path d="M77.1402 27.4673L76.5849 27.0974L76.6312 26.8199L82.0916 23.6755L82.832 23.9992L82.6932 24.2767L77.1402 27.4673Z" fill="#3F38FC"/>
<path d="M82.0917 23.9066L82.6933 24.2766L83.0635 24.0454L82.0917 23.4905L76.1685 26.9123L76.585 27.0973L82.0917 23.9066Z" fill="url(#paint15_linear_55_6722)"/>
<path opacity="0.51" d="M79.0842 84.7596C79.223 84.7596 79.3156 84.7134 79.4081 84.6671L96.2059 74.9566C96.6686 74.6791 96.9463 74.2167 96.9463 73.6618V50.4027C96.9463 50.1715 96.8075 49.9403 96.6224 49.8016C96.391 49.6628 96.1596 49.6628 95.9282 49.8016L79.1305 59.5121C78.6677 59.7896 78.3901 60.252 78.3901 60.8069V84.066C78.3901 84.2972 78.5289 84.5284 78.714 84.6671C78.8065 84.7134 78.9454 84.7596 79.0842 84.7596ZM96.0208 74.6329L79.223 84.3435C79.1305 84.3897 79.0379 84.3897 78.9454 84.3435C78.8528 84.2972 78.8065 84.2047 78.8065 84.066V60.8069C78.8065 60.4369 79.0379 60.067 79.3618 59.8821L96.1596 50.1715C96.2522 50.1252 96.3447 50.1252 96.4373 50.1715C96.5298 50.2177 96.5761 50.3102 96.5761 50.4489V73.7081C96.5761 74.078 96.3447 74.4479 96.0208 74.6329Z" fill="#4553C7"/>
<path d="M71.2637 40.1373C71.2637 39.6749 70.9397 39.12 70.5233 38.8888C70.3382 38.75 70.1531 38.75 70.0142 38.8425L69.5052 39.1662H69.8292C69.8292 39.2125 69.8292 39.2587 69.8292 39.3049C69.8292 39.7673 70.1531 40.3222 70.5695 40.5534C70.6158 40.5997 70.6621 40.5997 70.7084 40.6459L70.5695 40.9234L71.0786 40.6459C71.1711 40.5534 71.2637 40.3685 71.2637 40.1373Z" fill="url(#paint16_linear_55_6722)"/>
<path d="M70.708 40.4611C70.708 40.9235 70.3841 41.1084 69.9676 40.8772C69.5511 40.646 69.2272 40.0911 69.2272 39.6287C69.2272 39.1663 69.5511 38.9814 69.9676 39.2126C70.3841 39.4438 70.708 39.9987 70.708 40.4611Z" fill="url(#paint17_linear_55_6722)"/>
<path d="M70.4307 40.276C70.4307 40.5534 70.2456 40.6459 70.0142 40.5072C69.7828 40.3685 69.5977 40.0448 69.5977 39.7673C69.5977 39.4899 69.7828 39.3974 70.0142 39.5361C70.2456 39.6749 70.4307 39.9986 70.4307 40.276Z" fill="#3F38FC"/>
<path d="M35.1689 19.4212C35.1689 18.9588 34.845 18.4039 34.4285 18.1727C34.2434 18.034 34.0583 18.034 33.9195 18.1265L33.4105 18.4502H33.7344C33.7344 18.4964 33.7344 18.5426 33.7344 18.5889C33.7344 19.0513 34.0583 19.6062 34.4748 19.8374C34.5211 19.8836 34.5674 19.8836 34.6136 19.9299L34.4748 20.2073L34.9838 19.9299C35.0764 19.8374 35.1689 19.6987 35.1689 19.4212Z" fill="url(#paint18_linear_55_6722)"/>
<path d="M34.6133 19.745C34.6133 20.2074 34.2894 20.3924 33.8729 20.1612C33.4564 19.93 33.1325 19.3751 33.1325 18.9127C33.1325 18.4503 33.4564 18.2653 33.8729 18.4965C34.2894 18.7277 34.6133 19.2826 34.6133 19.745Z" fill="url(#paint19_linear_55_6722)"/>
<path d="M34.3359 19.5599C34.3359 19.8374 34.1508 19.9299 33.9195 19.7911C33.6881 19.6524 33.503 19.3287 33.503 19.0513C33.503 18.7738 33.6881 18.6814 33.9195 18.8201C34.1508 18.9588 34.3359 19.2825 34.3359 19.5599Z" fill="#3F38FC"/>
<path d="M71.2637 110.284C71.2637 109.822 70.9397 109.267 70.5233 109.036C70.3382 108.897 70.1531 108.897 70.0142 108.99L69.5052 109.313C69.644 109.221 69.8291 109.267 70.0142 109.36C70.4307 109.591 70.7546 110.146 70.7546 110.608C70.7546 110.839 70.6621 110.978 70.5695 111.071L71.0786 110.793C71.1711 110.701 71.2637 110.516 71.2637 110.284Z" fill="url(#paint20_linear_55_6722)"/>
<path d="M70.5233 110.701C70.477 110.654 70.4307 110.654 70.3845 110.608C70.2919 110.747 70.1531 110.747 70.0143 110.654C69.7829 110.516 69.5978 110.192 69.5978 109.915C69.5978 109.73 69.6903 109.637 69.8292 109.637C69.8292 109.591 69.8292 109.498 69.8292 109.452C69.8292 109.406 69.8292 109.36 69.8292 109.313H69.5052C69.3664 109.406 69.2739 109.545 69.2739 109.776C69.2739 110.238 69.5978 110.793 70.0143 111.024C70.2456 111.163 70.4307 111.163 70.5233 111.071L70.6621 110.793C70.6158 110.747 70.5696 110.747 70.5233 110.701Z" fill="url(#paint21_linear_55_6722)"/>
<path d="M70.708 110.608C70.708 110.146 70.3841 109.591 69.9676 109.36C69.7825 109.221 69.5974 109.221 69.4586 109.313H69.7825C69.7825 109.36 69.7825 109.406 69.7825 109.452C69.7825 109.498 69.7825 109.591 69.7825 109.637C69.8288 109.637 69.9213 109.637 69.9676 109.683C70.199 109.822 70.3841 110.146 70.3841 110.423C70.3841 110.516 70.3841 110.562 70.3378 110.608C70.3841 110.654 70.4304 110.701 70.4766 110.701C70.5229 110.747 70.5692 110.747 70.6155 110.793L70.4766 111.071C70.6617 110.978 70.708 110.793 70.708 110.608Z" fill="url(#paint22_linear_55_6722)"/>
<path d="M70.708 110.608C70.708 110.146 70.3841 109.591 69.9676 109.36C69.7825 109.221 69.5974 109.221 69.4586 109.313H69.7825C69.7825 109.36 69.7825 109.406 69.7825 109.452C69.7825 109.498 69.7825 109.591 69.7825 109.637C69.8288 109.637 69.9213 109.637 69.9676 109.683C70.199 109.822 70.3841 110.146 70.3841 110.423C70.3841 110.516 70.3841 110.562 70.3378 110.608C70.3841 110.654 70.4304 110.701 70.4766 110.701C70.5229 110.747 70.5692 110.747 70.6155 110.793L70.4766 111.071C70.6617 110.978 70.708 110.793 70.708 110.608Z" fill="url(#paint23_linear_55_6722)"/>
<path d="M69.5981 109.915C69.5981 110.192 69.7832 110.516 70.0146 110.655C70.1997 110.747 70.3385 110.701 70.3848 110.608C70.1071 110.377 69.8757 110.007 69.8295 109.637C69.6906 109.637 69.5981 109.73 69.5981 109.915Z" fill="#3F38FC"/>
<path d="M70.3844 110.608C70.4307 110.562 70.4307 110.516 70.4307 110.423C70.4307 110.146 70.2456 109.822 70.0142 109.683C69.9216 109.637 69.8754 109.637 69.8291 109.637C69.8754 110.007 70.1067 110.377 70.3844 110.608Z" fill="#3F38FC"/>
<path d="M34.4291 88.3202C34.244 88.1814 34.0589 88.1814 33.9201 88.2739L33.4111 88.5976C33.5499 88.5051 33.735 88.5514 33.9201 88.6439C34.3366 88.8751 34.6605 89.4299 34.6605 89.8924C34.6605 90.1236 34.568 90.2623 34.4754 90.3548L34.9844 90.0773C35.1233 89.9848 35.2158 89.8461 35.2158 89.6149C35.1695 89.1063 34.7993 88.5514 34.4291 88.3202Z" fill="url(#paint24_linear_55_6722)"/>
<path d="M34.4286 89.9849C34.3823 89.9387 34.336 89.9386 34.2897 89.8924C34.1972 90.0311 34.0584 90.0311 33.9195 89.9386C33.6882 89.7999 33.5031 89.4762 33.5031 89.1988C33.5031 89.0138 33.5956 88.9213 33.7344 88.9213C33.7344 88.8751 33.7344 88.7826 33.7344 88.7364C33.7344 88.6901 33.7344 88.6439 33.7344 88.5977H33.4105C33.2717 88.6901 33.1791 88.8289 33.1791 89.0601C33.1791 89.5225 33.5031 90.0774 33.9195 90.3086C34.1509 90.4473 34.336 90.4473 34.4286 90.3548L34.5674 90.0774C34.5211 90.0311 34.4748 90.0311 34.4286 89.9849Z" fill="url(#paint25_linear_55_6722)"/>
<path d="M34.6143 89.8924C34.6143 89.43 34.2903 88.8751 33.8739 88.6439C33.6888 88.5052 33.5037 88.5052 33.3648 88.5977H33.6888C33.6888 88.6439 33.6888 88.6901 33.6888 88.7364C33.6888 88.7826 33.6888 88.8751 33.6888 88.9213C33.735 88.9213 33.8276 88.9213 33.8739 88.9676C34.1052 89.1063 34.2903 89.43 34.2903 89.7074C34.2903 89.7999 34.2903 89.8462 34.2441 89.8924C34.2903 89.9386 34.3366 89.9849 34.3829 89.9849C34.4292 90.0311 34.4754 90.0311 34.5217 90.0774L34.3829 90.3548C34.568 90.2623 34.6143 90.1236 34.6143 89.8924Z" fill="url(#paint26_linear_55_6722)"/>
<path d="M34.6143 89.8924C34.6143 89.43 34.2903 88.8751 33.8739 88.6439C33.6888 88.5052 33.5037 88.5052 33.3648 88.5977H33.6888C33.6888 88.6439 33.6888 88.6901 33.6888 88.7364C33.6888 88.7826 33.6888 88.8751 33.6888 88.9213C33.735 88.9213 33.8276 88.9213 33.8739 88.9676C34.1052 89.1063 34.2903 89.43 34.2903 89.7074C34.2903 89.7999 34.2903 89.8462 34.2441 89.8924C34.2903 89.9386 34.3366 89.9849 34.3829 89.9849C34.4292 90.0311 34.4754 90.0311 34.5217 90.0774L34.3829 90.3548C34.568 90.2623 34.6143 90.1236 34.6143 89.8924Z" fill="url(#paint27_linear_55_6722)"/>
<path d="M33.4575 89.1988C33.4575 89.4763 33.6426 89.8 33.8739 89.9387C34.059 90.0312 34.1979 89.9849 34.2441 89.8925C33.9665 89.6612 33.7351 89.2913 33.6888 88.9214C33.55 88.9214 33.4575 89.0139 33.4575 89.1988Z" fill="#3F38FC"/>
<path d="M34.2897 89.8924C34.3359 89.8462 34.3359 89.8 34.3359 89.7075C34.3359 89.43 34.1508 89.1063 33.9195 88.9676C33.8269 88.9214 33.7806 88.9214 33.7344 88.9214C33.7806 89.2913 33.9657 89.6612 34.2897 89.8924Z" fill="#3F38FC"/>
<mask id="mask0_55_6722" style="mask-type:alpha" maskUnits="userSpaceOnUse" x="73" y="24" width="26" height="15">
<path d="M95.3729 24.0454L98.1494 25.5714L76.5853 38.0101L73.7626 36.4842L95.3729 24.0454Z" fill="url(#paint28_linear_55_6722)"/>
</mask>
<g mask="url(#mask0_55_6722)">
<path opacity="0.78" d="M95.3729 24.0454L98.1494 25.5714L76.5853 38.0101L73.7626 36.4842L95.3729 24.0454Z" fill="url(#paint29_linear_55_6722)"/>
</g>
<path d="M32.5778 76.8986L35.2155 75.3726C35.2618 75.3726 35.3081 75.3264 35.3543 75.3726L68.4409 94.4701C68.5334 94.5163 68.626 94.7013 68.626 94.84V101.083C68.626 101.129 68.626 101.221 68.5797 101.221L65.8958 102.747V99.7415L35.3543 82.1238C35.2618 82.0775 35.1692 81.8926 35.1692 81.7538V79.6268L32.5778 76.8986Z" fill="url(#paint30_linear_55_6722)"/>
<path d="M32.7166 83.6496L65.8032 102.747C65.8957 102.793 65.9883 102.747 65.9883 102.608V96.3658C65.9883 96.2271 65.8957 96.0421 65.8032 95.9959L32.7166 76.8984C32.6241 76.8522 32.5315 76.8984 32.5315 77.0372V83.2797C32.4853 83.4184 32.5778 83.6034 32.7166 83.6496Z" fill="url(#paint31_linear_55_6722)"/>
<path opacity="0.6" d="M37.2513 82.4011L63.0264 97.5681C62.2397 98.2617 61.453 99.0478 60.8052 99.8802L34.845 84.8981C35.5854 83.9733 36.4183 83.141 37.2513 82.4011Z" fill="#242993"/>
<path d="M33.6426 81.8001L64.8319 99.7878C64.9244 99.834 64.9707 99.7878 64.9707 99.6953V98.1231C64.9707 98.0306 64.9244 97.8919 64.8319 97.8456L33.6426 79.858C33.5501 79.8117 33.5038 79.858 33.5038 79.9505V81.5227C33.5038 81.6151 33.5501 81.7539 33.6426 81.8001Z" fill="#242993"/>
<path d="M33.6426 79.858L34.2905 80.2279V81.0602C34.2905 81.1527 34.3367 81.2914 34.4293 81.3377L64.9707 98.9554V99.6953C64.9707 99.7878 64.9244 99.834 64.8319 99.7878L33.6426 81.8001C33.5501 81.7539 33.5038 81.6614 33.5038 81.5227V79.9505C33.5038 79.858 33.5501 79.8117 33.6426 79.858Z" fill="#4553C7"/>
<path opacity="0.96" d="M0 120.272L19.6205 108.943C25.081 105.799 28.6441 100.111 29.0144 93.8226C29.3383 88.5049 33.3642 83.2797 36.4646 81.4763L62.4248 96.4584C59.3707 98.2155 55.9463 103.21 55.5761 108.435C55.1134 114.723 51.689 120.411 46.2286 123.602L25.9602 135.301L0 120.272Z" fill="url(#paint32_linear_55_6722)"/>
<path opacity="0.8" d="M36.4646 81.4763L62.4248 96.4584C62.2397 96.5971 62.0083 96.6896 61.8232 96.8283L35.863 81.8462C36.0481 81.7538 36.2332 81.615 36.4646 81.4763Z" fill="#4553C7"/>
<g opacity="0.32">
<path opacity="0.32" d="M46.7375 98.863L51.8277 101.822L51.874 101.268L46.7838 98.3081L46.7375 98.863Z" fill="#4553C7"/>
<path opacity="0.32" d="M44.1461 97.3833L45.9508 98.4468L45.9971 97.8457L44.1924 96.8284L44.1461 97.3833Z" fill="#4553C7"/>
<path opacity="0.32" d="M42.1565 96.2273L43.4059 96.9671L43.4521 96.366L42.249 95.6724L42.1565 96.2273Z" fill="#4553C7"/>
<path opacity="0.32" d="M48.9122 101.545L51.735 103.21L51.7812 102.609L48.9585 100.99L48.9122 101.545Z" fill="#4553C7"/>
<path opacity="0.32" d="M44.7472 99.1404L48.1715 101.083L48.2178 100.528L44.8397 98.5393L44.7472 99.1404Z" fill="#4553C7"/>
<path opacity="0.32" d="M42.758 97.9844L44.0074 98.6781L44.0537 98.1232L42.8506 97.3833L42.758 97.9844Z" fill="#4553C7"/>
<path opacity="0.32" d="M40.9068 96.8747L42.11 97.5683L42.1562 97.0134L40.9531 96.3198L40.9068 96.8747Z" fill="#4553C7"/>
<path opacity="0.32" d="M49.6061 103.348L51.6422 104.551L51.6885 103.95L49.6524 102.747L49.6061 103.348Z" fill="#4553C7"/>
<path opacity="0.32" d="M48.1258 102.516L48.8199 102.886L48.8662 102.331L48.1721 101.915L48.1258 102.516Z" fill="#4553C7"/>
<path opacity="0.32" d="M46.09 101.314L47.3395 102.054L47.3857 101.453L46.1363 100.713L46.09 101.314Z" fill="#4553C7"/>
<path opacity="0.32" d="M44.0539 101.545L51.5504 105.938L51.5967 105.337L44.1002 100.944L44.0539 101.545Z" fill="#4553C7"/>
<path opacity="0.32" d="M41.4621 100.019L43.3131 101.083L43.3594 100.482L41.5547 99.418L41.4621 100.019Z" fill="#4553C7"/>
<path opacity="0.32" d="M49.3753 106.123L51.4576 107.325L51.5039 106.724L49.4216 105.522L49.3753 106.123Z" fill="#4553C7"/>
<path opacity="0.32" d="M44.6089 103.302L48.5885 105.614L48.6348 105.013L44.7014 102.701L44.6089 103.302Z" fill="#4553C7"/>
<path opacity="0.32" d="M42.6193 102.1L43.8688 102.84L43.915 102.239L42.6656 101.499L42.6193 102.1Z" fill="#4553C7"/>
<path opacity="0.32" d="M47.1539 106.215L51.3649 108.712L51.4111 108.111L47.2001 105.614L47.1539 106.215Z" fill="#4553C7"/>
<path opacity="0.32" d="M43.3599 103.95L46.3678 105.753L46.4141 105.152L43.4062 103.395L43.3599 103.95Z" fill="#4553C7"/>
<path opacity="0.32" d="M40.5827 102.331L42.5725 103.487L42.665 102.932L40.6752 101.73L40.5827 102.331Z" fill="#4553C7"/>
<path opacity="0.32" d="M49.8376 109.267L51.2721 110.146L51.3184 109.498L49.8838 108.666L49.8376 109.267Z" fill="#4553C7"/>
<path opacity="0.32" d="M47.1545 107.695L49.0055 108.805L49.0518 108.204L47.2008 107.048L47.1545 107.695Z" fill="#4553C7"/>
<path opacity="0.32" d="M43.3599 105.429L46.3215 107.186L46.4141 106.585L43.4062 104.828L43.3599 105.429Z" fill="#4553C7"/>
<path opacity="0.32" d="M46.7836 108.897L51.1334 111.579L51.1797 110.932L46.8298 108.296L46.7836 108.897Z" fill="#4553C7"/>
<path opacity="0.32" d="M41.9249 106.03L45.9508 108.435L45.9971 107.834L42.0174 105.429L41.9249 106.03Z" fill="#4553C7"/>
<path opacity="0.32" d="M39.9348 104.782L41.1379 105.568L41.2305 104.967L39.981 104.227L39.9348 104.782Z" fill="#4553C7"/>
<path opacity="0.32" d="M37.9914 103.626L39.2408 104.366L39.2871 103.811L38.084 103.071L37.9914 103.626Z" fill="#4553C7"/>
<path opacity="0.32" d="M48.403 111.394L51.0406 113.013L51.0869 112.365L48.4493 110.793L48.403 111.394Z" fill="#4553C7"/>
<path opacity="0.32" d="M36.6955 93.0829L33.3638 91.1408L33.4563 90.5859L36.7881 92.5281L36.6955 93.0829Z" fill="#4553C7"/>
<path opacity="0.32" d="M35.8166 93.9153L33.2252 92.3894L33.2715 91.8345L35.9092 93.3604L35.8166 93.9153Z" fill="#4553C7"/>
<path opacity="0.32" d="M34.9377 94.7938L33.0405 93.6841L33.133 93.1292L35.0303 94.2389L34.9377 94.7938Z" fill="#4553C7"/>
<path opacity="0.32" d="M35.6774 96.5972L32.9009 94.9326L32.9471 94.3777L35.7236 95.9961L35.6774 96.5972Z" fill="#4553C7"/>
<path opacity="0.32" d="M34.6135 97.3833L32.7162 96.2273L32.7625 95.6724L34.7061 96.7821L34.6135 97.3833Z" fill="#4553C7"/>
<path opacity="0.32" d="M34.984 99.0019L32.5314 97.5222L32.624 96.9673L35.0303 98.4008L34.984 99.0019Z" fill="#4553C7"/>
<path opacity="0.32" d="M33.6877 99.6492L32.3458 98.8169L32.4383 98.262L33.7803 99.0481L33.6877 99.6492Z" fill="#4553C7"/>
<path opacity="0.32" d="M34.7985 101.73L32.2071 100.158L32.2533 99.5566L34.8447 101.129L34.7985 101.73Z" fill="#4553C7"/>
<path opacity="0.32" d="M34.4748 102.979L32.0223 101.499L32.0685 100.898L34.5674 102.377L34.4748 102.979Z" fill="#4553C7"/>
<path opacity="0.32" d="M46.4599 110.238L47.6168 110.886L47.6631 110.285L46.5525 109.637L46.4599 110.238Z" fill="#4553C7"/>
<path opacity="0.32" d="M43.2209 108.25L45.6735 109.73L45.7197 109.129L43.2672 107.649L43.2209 108.25Z" fill="#4553C7"/>
</g>
<path opacity="0.5" d="M40.6299 27.8833L36.1412 25.2938V24.3228L40.6299 26.9122V27.8833Z" fill="#42FFFF"/>
<path opacity="0.5" d="M42.9434 29.2242L41.3237 28.2994V27.3284L42.9434 28.2532V29.2242Z" fill="#42FFFF"/>
<path opacity="0.5" d="M44.7021 30.2417L43.6378 29.6406V28.6233L44.7021 29.2707V30.2417Z" fill="#42FFFF"/>
<path opacity="0.5" d="M38.5938 28.9931L36.1412 27.5597V26.5886L38.5938 27.9758V28.9931Z" fill="#42FFFF"/>
<path opacity="0.5" d="M42.2959 31.0738L39.288 29.3629V28.3918L42.2959 30.1028V31.0738Z" fill="#42FFFF"/>
<path opacity="0.5" d="M44.0537 32.1375L42.9431 31.4901V30.519L44.0537 31.1202V32.1375Z" fill="#42FFFF"/>
<path opacity="0.5" d="M45.7666 33.1084L44.656 32.461V31.49L45.7666 32.1374V33.1084Z" fill="#42FFFF"/>
<path d="M37.8994 30.8427L36.141 29.8254V28.8081L37.8994 29.8254V30.8427Z" fill="#42FFFF"/>
<path d="M39.1953 31.5827L38.5937 31.2128V30.2417L39.1953 30.6116V31.5827Z" fill="#42FFFF"/>
<path opacity="0.5" d="M41 32.5999L39.8894 31.9525V30.9814L41 31.6288V32.5999Z" fill="#42FFFF"/>
<path opacity="0.5" d="M42.666 35.8368L36.1413 32.045V31.074L42.666 34.8195V35.8368Z" fill="#42FFFF"/>
<path opacity="0.5" d="M44.9795 37.1315L43.3599 36.2067V35.2356L44.9795 36.1604V37.1315Z" fill="#42FFFF"/>
<path opacity="0.5" d="M37.8994 35.3282L36.141 34.3109V33.3398L37.8994 34.3571V35.3282Z" fill="#42FFFF"/>
<path opacity="0.5" d="M42.0645 37.7327L38.5938 35.6981V34.7271L42.0645 36.7154V37.7327Z" fill="#42FFFF"/>
<path opacity="0.5" d="M43.8691 38.75L42.7586 38.1026V37.1316L43.8691 37.779V38.75Z" fill="#42FFFF"/>
<path opacity="0.5" d="M39.751 38.6575L36.1415 36.5304V35.5593L39.751 37.6402V38.6575Z" fill="#42FFFF"/>
<path d="M43.082 40.5534L40.4444 39.0275V38.0564L43.082 39.5361V40.5534Z" fill="#42FFFF"/>
<path opacity="0.5" d="M45.5352 41.9405L43.7767 40.9232V39.9521L45.5352 40.9694V41.9405Z" fill="#42FFFF"/>
<path opacity="0.5" d="M37.3906 39.4899L36.1412 38.7963V37.8252L37.3906 38.5188V39.4899Z" fill="#42FFFF"/>
<path opacity="0.5" d="M39.6582 40.8307L38.0386 39.9059V38.9348L39.6582 39.8596V40.8307Z" fill="#42FFFF"/>
<path opacity="0.5" d="M42.9434 42.7265L40.352 41.2468V40.2295L42.9434 41.7554V42.7265Z" fill="#42FFFF"/>
<path opacity="0.5" d="M39.8896 43.1891L36.1414 41.062V40.0447L39.8896 42.218V43.1891Z" fill="#42FFFF"/>
<path opacity="0.5" d="M44.1006 45.6397L40.5837 43.6051V42.634L44.1006 44.6224V45.6397Z" fill="#42FFFF"/>
<path d="M45.8584 46.657L44.7478 46.0096V45.0386L45.8584 45.6859V46.657Z" fill="#42FFFF"/>
<path opacity="0.5" d="M47.5713 47.6282L46.4607 47.0271V46.0098L47.5713 46.6571V47.6282Z" fill="#42FFFF"/>
<path opacity="0.5" d="M38.4082 44.5764L36.1407 43.2816V42.3105L38.4082 43.6053V44.5764Z" fill="#42FFFF"/>
<path d="M47.756 31.9986L50.8564 33.802V32.831L47.756 31.0276V31.9986Z" fill="#42FFFF"/>
<path opacity="0.5" d="M48.4501 34.6344L50.8564 36.0679V35.0968L48.4501 33.6633V34.6344Z" fill="#42FFFF"/>
<path opacity="0.5" d="M49.098 37.2701L50.8564 38.2874V37.3164L49.098 36.2991V37.2701Z" fill="#42FFFF"/>
<path opacity="0.5" d="M48.3113 39.0736L50.8564 40.5533V39.5822L48.3113 38.1025V39.0736Z" fill="#42FFFF"/>
<path opacity="0.5" d="M49.098 41.8017L50.8564 42.819V41.8017L49.098 40.7844V41.8017Z" fill="#42FFFF"/>
<path opacity="0.5" d="M48.6352 43.744L50.8564 45.0388V44.0677L48.6352 42.7729V43.744Z" fill="#42FFFF"/>
<path opacity="0.5" d="M49.6533 46.6108L50.8564 47.3044V46.3334L49.6533 45.5935V46.6108Z" fill="#42FFFF"/>
<path opacity="0.5" d="M48.4964 48.183L50.8564 49.524V48.5529L48.4964 47.2119V48.183Z" fill="#42FFFF"/>
<path opacity="0.5" d="M48.6352 50.495L50.8564 51.7897V50.8187L48.6352 49.5239V50.495Z" fill="#42FFFF"/>
<path opacity="0.5" d="M40.0283 45.5474L39.0566 44.9925V44.0215L40.0283 44.5301V45.5474Z" fill="#42FFFF"/>
<path opacity="0.5" d="M42.8506 47.1659L40.7219 45.9174V44.9463L42.8506 46.1948V47.1659Z" fill="#42FFFF"/>
<path opacity="0.5" d="M58.0293 37.8713L53.5406 35.3281V34.3108L58.0293 36.9003V37.8713Z" fill="#42FFFF"/>
<path opacity="0.5" d="M60.2969 39.2123L58.7235 38.2875V37.3164L60.2969 38.2412V39.2123Z" fill="#42FFFF"/>
<path d="M62.1016 40.2295L60.991 39.6284V38.6111L62.1016 39.2585V40.2295Z" fill="#42FFFF"/>
<path opacity="0.5" d="M55.9932 38.9812L53.5406 37.5477V36.5767L55.9932 37.9639V38.9812Z" fill="#42FFFF"/>
<path opacity="0.5" d="M59.6484 41.1081L56.6868 39.3509V38.3799L59.6484 40.0908V41.1081Z" fill="#42FFFF"/>
<path d="M61.4531 42.1255L60.3425 41.4781V40.5071L61.4531 41.1082V42.1255Z" fill="#42FFFF"/>
<path opacity="0.5" d="M63.1191 43.0965L62.0548 42.4491V41.478L63.1191 42.1254V43.0965Z" fill="#42FFFF"/>
<path opacity="0.5" d="M55.2988 40.8307L53.5404 39.8134V38.7961L55.2988 39.8597V40.8307Z" fill="#42FFFF"/>
<path opacity="0.5" d="M56.5947 41.5705L55.9932 41.2006V40.2295L56.5947 40.5994V41.5705Z" fill="#42FFFF"/>
<path opacity="0.5" d="M58.3525 42.5879L57.2882 41.9405V40.9695L58.3525 41.6169V42.5879Z" fill="#42FFFF"/>
<path opacity="0.5" d="M60.0654 45.8248L53.5407 42.0331V41.062L60.0654 44.8075V45.8248Z" fill="#42FFFF"/>
<path opacity="0.5" d="M62.3789 47.1195L60.7593 46.1947V45.2236L62.3789 46.1485V47.1195Z" fill="#42FFFF"/>
<path opacity="0.5" d="M55.2988 45.3162L53.5404 44.2989V43.3279L55.2988 44.3452V45.3162Z" fill="#42FFFF"/>
<path opacity="0.5" d="M59.4639 47.7205L55.9933 45.7321V44.7148L59.4639 46.7032V47.7205Z" fill="#42FFFF"/>
<path opacity="0.5" d="M61.2217 48.7381L60.1574 48.0907V47.1196L61.2217 47.767V48.7381Z" fill="#42FFFF"/>
<path d="M57.1504 48.6455L53.5409 46.5647V45.5474L57.1504 47.6282V48.6455Z" fill="#42FFFF"/>
<path opacity="0.5" d="M60.4355 50.5414L57.8442 49.0155V48.0444L60.4355 49.5704V50.5414Z" fill="#42FFFF"/>
<path opacity="0.5" d="M62.8877 51.9285L61.1292 50.9112V49.9402L62.8877 50.9575V51.9285Z" fill="#42FFFF"/>
<path opacity="0.5" d="M54.7432 49.4779L53.54 48.7843V47.8132L54.7432 48.5068V49.4779Z" fill="#42FFFF"/>
<path opacity="0.5" d="M57.0576 50.8187L55.438 49.8939V48.9229L57.0576 49.8477V50.8187Z" fill="#42FFFF"/>
<path d="M60.3428 52.7145L57.7514 51.2348V50.2175L60.3428 51.7435V52.7145Z" fill="#42FFFF"/>
<path opacity="0.5" d="M57.2891 53.1771L53.5408 51.05V50.0327L57.2891 52.206V53.1771Z" fill="#42FFFF"/>
<path opacity="0.5" d="M61.4531 55.6277L57.9825 53.5931V52.6221L61.4531 54.6104V55.6277Z" fill="#42FFFF"/>
<path opacity="0.5" d="M63.2578 56.645L62.1472 55.9977V55.0266L63.2578 55.674V56.645Z" fill="#42FFFF"/>
<path opacity="0.5" d="M64.9707 57.6162L63.8601 57.0151V55.9978L64.9707 56.6452V57.6162Z" fill="#42FFFF"/>
<path opacity="0.5" d="M55.7617 54.5644L53.5405 53.2696V52.2986L55.7617 53.5933V54.5644Z" fill="#42FFFF"/>
<path d="M65.1554 41.9867L68.2559 43.7901V42.819L65.1554 41.0156V41.9867Z" fill="#42FFFF"/>
<path opacity="0.5" d="M65.8033 44.6224L68.2559 46.0559V45.0848L65.8033 43.6514V44.6224Z" fill="#42FFFF"/>
<path opacity="0.5" d="M66.4974 47.2582L68.2559 48.2755V47.3044L66.4974 46.2871V47.2582Z" fill="#42FFFF"/>
<path opacity="0.5" d="M65.7107 49.0616L68.2559 50.5413V49.5703L65.7107 48.0906V49.0616Z" fill="#42FFFF"/>
<path opacity="0.5" d="M66.4974 51.7898L68.2559 52.8071V51.7898L66.4974 50.7725V51.7898Z" fill="#42FFFF"/>
<path opacity="0.5" d="M66.0347 53.732L68.2559 55.0268V54.0557L66.0347 52.761V53.732Z" fill="#42FFFF"/>
<path opacity="0.5" d="M67.0527 56.5988L68.2559 57.2924V56.3214L67.0527 55.5815V56.5988Z" fill="#42FFFF"/>
<path opacity="0.5" d="M65.8958 58.171L68.2559 59.512V58.5409L65.8958 57.2V58.171Z" fill="#42FFFF"/>
<path opacity="0.5" d="M66.0347 60.483L68.2559 61.7778V60.8067L66.0347 59.512V60.483Z" fill="#42FFFF"/>
<path d="M57.4277 55.5352L56.456 54.9803V54.0093L57.4277 54.5179V55.5352Z" fill="#42FFFF"/>
<path opacity="0.5" d="M60.25 57.1536L58.1214 55.9051V54.9341L60.25 56.1826V57.1536Z" fill="#42FFFF"/>
<path opacity="0.5" d="M40.6299 48.1367L36.1412 45.5472V44.5762L40.6299 47.1657V48.1367Z" fill="#42FFFF"/>
<path opacity="0.5" d="M42.9434 49.4778L41.3237 48.5529V47.5356L42.9434 48.4605V49.4778Z" fill="#42FFFF"/>
<path opacity="0.5" d="M44.7021 50.4951L43.6378 49.8478V48.8767L44.7021 49.5241V50.4951Z" fill="#42FFFF"/>
<path opacity="0.5" d="M38.5938 49.2004L36.1412 47.8132V46.7959L38.5938 48.2294V49.2004Z" fill="#42FFFF"/>
<path opacity="0.5" d="M42.2959 51.3275L39.288 49.6166V48.6455L42.2959 50.3564V51.3275Z" fill="#42FFFF"/>
<path opacity="0.5" d="M44.0537 52.3447L42.9431 51.7436V50.7263L44.0537 51.3737V52.3447Z" fill="#42FFFF"/>
<path opacity="0.5" d="M45.7666 53.3621L44.656 52.7147V51.7437L45.7666 52.3448V53.3621Z" fill="#42FFFF"/>
<path opacity="0.5" d="M37.8994 51.0499L36.141 50.0326V49.0615L37.8994 50.0788V51.0499Z" fill="#42FFFF"/>
<path opacity="0.5" d="M39.1953 51.7899L38.5937 51.4662V50.4951L39.1953 50.8188V51.7899Z" fill="#42FFFF"/>
<path opacity="0.5" d="M41 52.8533L39.8894 52.2059V51.2349L41 51.836V52.8533Z" fill="#42FFFF"/>
<path opacity="0.5" d="M42.666 56.044L36.1413 52.2984V51.3274L42.666 55.0729V56.044Z" fill="#42FFFF"/>
<path opacity="0.5" d="M44.9795 57.3849L43.3599 56.4601V55.489L44.9795 56.4138V57.3849Z" fill="#42FFFF"/>
<path opacity="0.5" d="M37.8994 55.5815L36.141 54.5642V53.5469L37.8994 54.5642V55.5815Z" fill="#42FFFF"/>
<path opacity="0.5" d="M42.0645 57.9399L38.5938 55.9515V54.9805L42.0645 56.9688V57.9399Z" fill="#42FFFF"/>
<path opacity="0.5" d="M43.8691 59.0034L42.7586 58.3561V57.385L43.8691 57.9861V59.0034Z" fill="#42FFFF"/>
<path opacity="0.5" d="M39.751 58.8647L36.1415 56.7838V55.8127L39.751 57.8936V58.8647Z" fill="#42FFFF"/>
<path opacity="0.5" d="M43.082 60.7606L40.4444 59.2809V58.3098L43.082 59.7895V60.7606Z" fill="#42FFFF"/>
<path opacity="0.5" d="M45.5352 62.1939L43.7767 61.1766V60.2056L45.5352 61.2229V62.1939Z" fill="#42FFFF"/>
<path opacity="0.5" d="M37.3906 59.7431L36.1412 59.0495V58.0322L37.3906 58.7721V59.7431Z" fill="#42FFFF"/>
<path opacity="0.5" d="M39.6582 61.0842L38.0386 60.1594V59.1421L39.6582 60.0669V61.0842Z" fill="#42FFFF"/>
<path opacity="0.5" d="M42.9434 62.9801L40.352 61.4542V60.4832L42.9434 61.9629V62.9801Z" fill="#42FFFF"/>
<path opacity="0.5" d="M39.8896 63.4425L36.1414 61.2692V60.2981L39.8896 62.4714V63.4425Z" fill="#42FFFF"/>
<path opacity="0.5" d="M44.1006 65.847L40.5837 63.8586V62.8413L44.1006 64.8759V65.847Z" fill="#42FFFF"/>
<path opacity="0.5" d="M45.8584 66.9107L44.7478 66.2633V65.2922L45.8584 65.8934V66.9107Z" fill="#42FFFF"/>
<path opacity="0.5" d="M47.5713 67.8816L46.4607 67.2342V66.2632L47.5713 66.9106V67.8816Z" fill="#42FFFF"/>
<path opacity="0.5" d="M38.4082 64.8298L36.1407 63.535V62.564L38.4082 63.8587V64.8298Z" fill="#42FFFF"/>
<path opacity="0.5" d="M47.756 52.2523L50.8564 54.0557V53.0846L47.756 51.2812V52.2523Z" fill="#42FFFF"/>
<path opacity="0.5" d="M48.4501 54.8881L50.8564 56.2753V55.3042L48.4501 53.917V54.8881Z" fill="#42FFFF"/>
<path opacity="0.5" d="M49.098 57.5238L50.8564 58.5411V57.57L49.098 56.5527V57.5238Z" fill="#42FFFF"/>
<path opacity="0.5" d="M48.3113 59.3271L50.8564 60.8068V59.7895L48.3113 58.3098V59.3271Z" fill="#42FFFF"/>
<path opacity="0.5" d="M49.098 62.0091L50.8564 63.0264V62.0554L49.098 61.0381V62.0091Z" fill="#42FFFF"/>
<path opacity="0.5" d="M48.6352 63.9974L50.8564 65.2922V64.3211L48.6352 63.0264V63.9974Z" fill="#42FFFF"/>
<path opacity="0.5" d="M49.6533 66.8182L50.8564 67.5118V66.5408L49.6533 65.8472V66.8182Z" fill="#42FFFF"/>
<path opacity="0.5" d="M48.4964 68.4365L50.8564 69.7775V68.8064L48.4964 67.4192V68.4365Z" fill="#42FFFF"/>
<path opacity="0.5" d="M48.6352 70.7485L50.8564 72.0433V71.026L48.6352 69.7312V70.7485Z" fill="#42FFFF"/>
<path opacity="0.5" d="M40.0283 65.7545L39.0566 65.1996V64.2285L40.0283 64.7834V65.7545Z" fill="#42FFFF"/>
<path opacity="0.5" d="M42.8506 67.4193L40.7219 66.1708V65.1997L42.8506 66.402V67.4193Z" fill="#42FFFF"/>
<path opacity="0.5" d="M44.6553 74.9564L40.9996 72.8756V71.9045L44.6553 73.9854V74.9564Z" fill="#42FFFF"/>
<path opacity="0.5" d="M47.1084 76.3901L45.6739 75.5577V74.5867L47.1084 75.419V76.3901Z" fill="#42FFFF"/>
<path opacity="0.5" d="M58.0293 58.1248L53.5406 55.5353V54.5642L58.0293 57.1537V58.1248Z" fill="#42FFFF"/>
<path opacity="0.5" d="M60.2969 59.4658L58.7235 58.541V57.5237L60.2969 58.4947V59.4658Z" fill="#42FFFF"/>
<path opacity="0.5" d="M62.1016 60.4832L60.991 59.8358V58.8647L62.1016 59.5121V60.4832Z" fill="#42FFFF"/>
<path opacity="0.5" d="M55.9932 59.1884L53.5406 57.8011V56.8301L55.9932 58.2173V59.1884Z" fill="#42FFFF"/>
<path opacity="0.5" d="M59.6484 61.3155L56.6868 59.6046V58.6335L59.6484 60.3445V61.3155Z" fill="#42FFFF"/>
<path opacity="0.5" d="M61.4531 62.3328L60.3425 61.7317V60.7144L61.4531 61.3617V62.3328Z" fill="#42FFFF"/>
<path opacity="0.5" d="M63.1191 63.3501L62.0548 62.7028V61.7317L63.1191 62.3328V63.3501Z" fill="#42FFFF"/>
<path opacity="0.5" d="M55.2988 61.0379L53.5404 60.0206V59.0496L55.2988 60.0669V61.0379Z" fill="#42FFFF"/>
<path opacity="0.5" d="M56.5947 61.8241L55.9932 61.4542V60.4832L56.5947 60.8068V61.8241Z" fill="#42FFFF"/>
<path opacity="0.5" d="M58.3525 62.8413L57.2882 62.194V61.2229L58.3525 61.824V62.8413Z" fill="#42FFFF"/>
<path opacity="0.5" d="M60.0654 66.032L53.5407 62.2865V61.3154L60.0654 65.0609V66.032Z" fill="#42FFFF"/>
<path opacity="0.5" d="M62.3789 67.3729L60.7593 66.4481V65.4771L62.3789 66.4019V67.3729Z" fill="#42FFFF"/>
<path opacity="0.5" d="M55.2988 65.5695L53.5404 64.5522V63.5349L55.2988 64.5522V65.5695Z" fill="#42FFFF"/>
<path opacity="0.5" d="M59.4639 67.9279L55.9933 65.9396V64.9685L59.4639 66.9569V67.9279Z" fill="#42FFFF"/>
<path opacity="0.5" d="M61.2217 68.9915L60.1574 68.3441V67.373L61.2217 67.9742V68.9915Z" fill="#42FFFF"/>
<path opacity="0.5" d="M57.1504 68.8527L53.5409 66.7718V65.8008L57.1504 67.8816V68.8527Z" fill="#42FFFF"/>
<path opacity="0.5" d="M60.4355 70.7486L57.8442 69.2689V68.2979L60.4355 69.7775V70.7486Z" fill="#42FFFF"/>
<path opacity="0.5" d="M62.8877 72.182L61.1292 71.1647V70.1936L62.8877 71.2109V72.182Z" fill="#42FFFF"/>
<path opacity="0.5" d="M54.7432 69.7313L53.54 69.0377V68.0667L54.7432 68.7603V69.7313Z" fill="#42FFFF"/>
<path opacity="0.5" d="M57.0576 71.0722L55.438 70.1474V69.1301L57.0576 70.0549V71.0722Z" fill="#42FFFF"/>
<path opacity="0.5" d="M60.3428 72.9682L57.7514 71.4422V70.4712L60.3428 71.9509V72.9682Z" fill="#42FFFF"/>
<path opacity="0.5" d="M57.2891 73.4305L53.5408 71.2572V70.2861L57.2891 72.4595V73.4305Z" fill="#42FFFF"/>
<path opacity="0.5" d="M61.4531 75.835L57.9825 73.8466V72.8293L61.4531 74.8639V75.835Z" fill="#42FFFF"/>
<path opacity="0.5" d="M63.2578 76.8987L62.1472 76.2513V75.2803L63.2578 75.8814V76.8987Z" fill="#42FFFF"/>
<path opacity="0.5" d="M64.9707 77.8697L63.8601 77.2223V76.2512L64.9707 76.8986V77.8697Z" fill="#42FFFF"/>
<path opacity="0.5" d="M55.7617 74.8178L53.5405 73.5231V72.552L55.7617 73.8467V74.8178Z" fill="#42FFFF"/>
<path opacity="0.5" d="M65.1554 62.2403L68.2559 64.0437V63.0727L65.1554 61.2693V62.2403Z" fill="#42FFFF"/>
<path opacity="0.5" d="M65.8033 64.8761L68.2559 66.3096V65.2923L65.8033 63.905V64.8761Z" fill="#42FFFF"/>
<path opacity="0.5" d="M66.4974 67.5118L68.2559 68.5291V67.5581L66.4974 66.5408V67.5118Z" fill="#42FFFF"/>
<path opacity="0.5" d="M65.7107 69.3151L68.2559 70.7949V69.7776L65.7107 68.2979V69.3151Z" fill="#42FFFF"/>
<path opacity="0.5" d="M66.4974 71.9972L68.2559 73.0145V72.0434L66.4974 71.0261V71.9972Z" fill="#42FFFF"/>
<path opacity="0.5" d="M66.0347 73.9855L68.2559 75.2802V74.3092L66.0347 73.0144V73.9855Z" fill="#42FFFF"/>
<path opacity="0.5" d="M67.0527 76.806L68.2559 77.5459V76.5286L67.0527 75.835V76.806Z" fill="#42FFFF"/>
<path opacity="0.5" d="M65.8958 78.4245L68.2559 79.7655V78.7945L65.8958 77.4072V78.4245Z" fill="#42FFFF"/>
<path opacity="0.5" d="M66.0347 80.7365L68.2559 82.0312V81.014L66.0347 79.7192V80.7365Z" fill="#42FFFF"/>
<path opacity="0.5" d="M57.4277 75.7425L56.456 75.2338V74.2166L57.4277 74.7714V75.7425Z" fill="#42FFFF"/>
<path opacity="0.5" d="M60.25 77.4073L58.1214 76.1588V75.1877L60.25 76.39V77.4073Z" fill="#42FFFF"/>
<path opacity="0.5" d="M62.0088 84.9445L58.3993 82.8636V81.8926L62.0088 83.9734V84.9445Z" fill="#42FFFF"/>
<path opacity="0.5" d="M64.5078 86.3781L63.0733 85.5458V84.5747L64.5078 85.407V86.3781Z" fill="#42FFFF"/>
<defs>
<linearGradient id="paint0_linear_55_6722" x1="87.0676" y1="114.158" x2="87.0676" y2="24.1854" gradientUnits="userSpaceOnUse">
<stop stop-color="#C0D6FF"/>
<stop offset="0.2978" stop-color="#C5DBFF"/>
<stop offset="0.6488" stop-color="#D3E9FF"/>
<stop offset="1" stop-color="#E9FFFF"/>
</linearGradient>
<linearGradient id="paint1_linear_55_6722" x1="36.7686" y1="19.5778" x2="92.5141" y2="19.5778" gradientUnits="userSpaceOnUse">
<stop stop-color="#5778FF"/>
<stop offset="0.1779" stop-color="#5C7DFF"/>
<stop offset="0.3876" stop-color="#6A8AFF"/>
<stop offset="0.6134" stop-color="#82A0FF"/>
<stop offset="0.849" stop-color="#A3BEFF"/>
<stop offset="1" stop-color="#BCD5FF"/>
</linearGradient>
<linearGradient id="paint2_linear_55_6722" x1="73.7763" y1="29.5252" x2="95.3635" y2="29.5252" gradientUnits="userSpaceOnUse">
<stop stop-color="#C0D6FF"/>
<stop offset="0.2978" stop-color="#C5DBFF"/>
<stop offset="0.6488" stop-color="#D3E9FF"/>
<stop offset="1" stop-color="#E9FFFF"/>
</linearGradient>
<linearGradient id="paint3_linear_55_6722" x1="36.7687" y1="18.1221" x2="95.3635" y2="18.1221" gradientUnits="userSpaceOnUse">
<stop stop-color="#C0D6FF"/>
<stop offset="0.2978" stop-color="#C5DBFF"/>
<stop offset="0.6488" stop-color="#D3E9FF"/>
<stop offset="1" stop-color="#E9FFFF"/>
</linearGradient>
<linearGradient id="paint4_linear_55_6722" x1="49.6127" y1="9.95856" x2="56.5069" y2="9.95856" gradientUnits="userSpaceOnUse">
<stop stop-color="#5778FF"/>
<stop offset="0.1779" stop-color="#5C7DFF"/>
<stop offset="0.3876" stop-color="#6A8AFF"/>
<stop offset="0.6134" stop-color="#82A0FF"/>
<stop offset="0.849" stop-color="#A3BEFF"/>
<stop offset="1" stop-color="#BCD5FF"/>
</linearGradient>
<linearGradient id="paint5_linear_55_6722" x1="51.4022" y1="10.9879" x2="58.2966" y2="10.9879" gradientUnits="userSpaceOnUse">
<stop stop-color="#5778FF"/>
<stop offset="0.1779" stop-color="#5C7DFF"/>
<stop offset="0.3876" stop-color="#6A8AFF"/>
<stop offset="0.6134" stop-color="#82A0FF"/>
<stop offset="0.849" stop-color="#A3BEFF"/>
<stop offset="1" stop-color="#BCD5FF"/>
</linearGradient>
<linearGradient id="paint6_linear_55_6722" x1="53.1922" y1="12.017" x2="60.0865" y2="12.017" gradientUnits="userSpaceOnUse">
<stop stop-color="#5778FF"/>
<stop offset="0.1779" stop-color="#5C7DFF"/>
<stop offset="0.3876" stop-color="#6A8AFF"/>
<stop offset="0.6134" stop-color="#82A0FF"/>
<stop offset="0.849" stop-color="#A3BEFF"/>
<stop offset="1" stop-color="#BCD5FF"/>
</linearGradient>
<linearGradient id="paint7_linear_55_6722" x1="54.9818" y1="13.0463" x2="61.8761" y2="13.0463" gradientUnits="userSpaceOnUse">
<stop stop-color="#5778FF"/>
<stop offset="0.1779" stop-color="#5C7DFF"/>
<stop offset="0.3876" stop-color="#6A8AFF"/>
<stop offset="0.6134" stop-color="#82A0FF"/>
<stop offset="0.849" stop-color="#A3BEFF"/>
<stop offset="1" stop-color="#BCD5FF"/>
</linearGradient>
<linearGradient id="paint8_linear_55_6722" x1="60.2156" y1="16.0848" x2="67.1099" y2="16.0848" gradientUnits="userSpaceOnUse">
<stop stop-color="#5778FF"/>
<stop offset="0.1779" stop-color="#5C7DFF"/>
<stop offset="0.3876" stop-color="#6A8AFF"/>
<stop offset="0.6134" stop-color="#82A0FF"/>
<stop offset="0.849" stop-color="#A3BEFF"/>
<stop offset="1" stop-color="#BCD5FF"/>
</linearGradient>
<linearGradient id="paint9_linear_55_6722" x1="62.0052" y1="17.1142" x2="68.8995" y2="17.1142" gradientUnits="userSpaceOnUse">
<stop stop-color="#5778FF"/>
<stop offset="0.1779" stop-color="#5C7DFF"/>
<stop offset="0.3876" stop-color="#6A8AFF"/>
<stop offset="0.6134" stop-color="#82A0FF"/>
<stop offset="0.849" stop-color="#A3BEFF"/>
<stop offset="1" stop-color="#BCD5FF"/>
</linearGradient>
<linearGradient id="paint10_linear_55_6722" x1="63.7948" y1="18.1434" x2="70.6891" y2="18.1434" gradientUnits="userSpaceOnUse">
<stop stop-color="#5778FF"/>
<stop offset="0.1779" stop-color="#5C7DFF"/>
<stop offset="0.3876" stop-color="#6A8AFF"/>
<stop offset="0.6134" stop-color="#82A0FF"/>
<stop offset="0.849" stop-color="#A3BEFF"/>
<stop offset="1" stop-color="#BCD5FF"/>
</linearGradient>
<linearGradient id="paint11_linear_55_6722" x1="65.5847" y1="19.1727" x2="72.479" y2="19.1727" gradientUnits="userSpaceOnUse">
<stop stop-color="#5778FF"/>
<stop offset="0.1779" stop-color="#5C7DFF"/>
<stop offset="0.3876" stop-color="#6A8AFF"/>
<stop offset="0.6134" stop-color="#82A0FF"/>
<stop offset="0.849" stop-color="#A3BEFF"/>
<stop offset="1" stop-color="#BCD5FF"/>
</linearGradient>
<linearGradient id="paint12_linear_55_6722" x1="70.8175" y1="22.211" x2="77.7119" y2="22.211" gradientUnits="userSpaceOnUse">
<stop stop-color="#5778FF"/>
<stop offset="0.1779" stop-color="#5C7DFF"/>
<stop offset="0.3876" stop-color="#6A8AFF"/>
<stop offset="0.6134" stop-color="#82A0FF"/>
<stop offset="0.849" stop-color="#A3BEFF"/>
<stop offset="1" stop-color="#BCD5FF"/>
</linearGradient>
<linearGradient id="paint13_linear_55_6722" x1="72.6072" y1="23.2403" x2="79.5015" y2="23.2403" gradientUnits="userSpaceOnUse">
<stop stop-color="#5778FF"/>
<stop offset="0.1779" stop-color="#5C7DFF"/>
<stop offset="0.3876" stop-color="#6A8AFF"/>
<stop offset="0.6134" stop-color="#82A0FF"/>
<stop offset="0.849" stop-color="#A3BEFF"/>
<stop offset="1" stop-color="#BCD5FF"/>
</linearGradient>
<linearGradient id="paint14_linear_55_6722" x1="74.3967" y1="24.2695" x2="81.291" y2="24.2695" gradientUnits="userSpaceOnUse">
<stop stop-color="#5778FF"/>
<stop offset="0.1779" stop-color="#5C7DFF"/>
<stop offset="0.3876" stop-color="#6A8AFF"/>
<stop offset="0.6134" stop-color="#82A0FF"/>
<stop offset="0.849" stop-color="#A3BEFF"/>
<stop offset="1" stop-color="#BCD5FF"/>
</linearGradient>
<linearGradient id="paint15_linear_55_6722" x1="76.1867" y1="25.2987" x2="83.081" y2="25.2987" gradientUnits="userSpaceOnUse">
<stop stop-color="#5778FF"/>
<stop offset="0.1779" stop-color="#5C7DFF"/>
<stop offset="0.3876" stop-color="#6A8AFF"/>
<stop offset="0.6134" stop-color="#82A0FF"/>
<stop offset="0.849" stop-color="#A3BEFF"/>
<stop offset="1" stop-color="#BCD5FF"/>
</linearGradient>
<linearGradient id="paint16_linear_55_6722" x1="69.4813" y1="39.8537" x2="71.2467" y2="39.8537" gradientUnits="userSpaceOnUse">
<stop stop-color="#C0D6FF"/>
<stop offset="0.2978" stop-color="#C5DBFF"/>
<stop offset="0.6488" stop-color="#D3E9FF"/>
<stop offset="1" stop-color="#E9FFFF"/>
</linearGradient>
<linearGradient id="paint17_linear_55_6722" x1="69.2659" y1="40.0336" x2="70.726" y2="40.0336" gradientUnits="userSpaceOnUse">
<stop stop-color="#5778FF"/>
<stop offset="0.1779" stop-color="#5C7DFF"/>
<stop offset="0.3876" stop-color="#6A8AFF"/>
<stop offset="0.6134" stop-color="#82A0FF"/>
<stop offset="0.849" stop-color="#A3BEFF"/>
<stop offset="1" stop-color="#BCD5FF"/>
</linearGradient>
<linearGradient id="paint18_linear_55_6722" x1="33.3812" y1="19.1448" x2="35.1466" y2="19.1448" gradientUnits="userSpaceOnUse">
<stop stop-color="#C0D6FF"/>
<stop offset="0.2978" stop-color="#C5DBFF"/>
<stop offset="0.6488" stop-color="#D3E9FF"/>
<stop offset="1" stop-color="#E9FFFF"/>
</linearGradient>
<linearGradient id="paint19_linear_55_6722" x1="33.1659" y1="19.3246" x2="34.626" y2="19.3246" gradientUnits="userSpaceOnUse">
<stop stop-color="#5778FF"/>
<stop offset="0.1779" stop-color="#5C7DFF"/>
<stop offset="0.3876" stop-color="#6A8AFF"/>
<stop offset="0.6134" stop-color="#82A0FF"/>
<stop offset="0.849" stop-color="#A3BEFF"/>
<stop offset="1" stop-color="#BCD5FF"/>
</linearGradient>
<linearGradient id="paint20_linear_55_6722" x1="69.4813" y1="109.988" x2="71.2467" y2="109.988" gradientUnits="userSpaceOnUse">
<stop stop-color="#C0D6FF"/>
<stop offset="0.2978" stop-color="#C5DBFF"/>
<stop offset="0.6488" stop-color="#D3E9FF"/>
<stop offset="1" stop-color="#E9FFFF"/>
</linearGradient>
<linearGradient id="paint21_linear_55_6722" x1="69.2663" y1="110.191" x2="70.7264" y2="110.191" gradientUnits="userSpaceOnUse">
<stop stop-color="#5778FF"/>
<stop offset="0.1779" stop-color="#5C7DFF"/>
<stop offset="0.3876" stop-color="#6A8AFF"/>
<stop offset="0.6134" stop-color="#82A0FF"/>
<stop offset="0.849" stop-color="#A3BEFF"/>
<stop offset="1" stop-color="#BCD5FF"/>
</linearGradient>
<linearGradient id="paint22_linear_55_6722" x1="69.4814" y1="110.138" x2="71.2468" y2="110.138" gradientUnits="userSpaceOnUse">
<stop stop-color="#C0D6FF"/>
<stop offset="0.2978" stop-color="#C5DBFF"/>
<stop offset="0.6488" stop-color="#D3E9FF"/>
<stop offset="1" stop-color="#E9FFFF"/>
</linearGradient>
<linearGradient id="paint23_linear_55_6722" x1="69.266" y1="110.138" x2="70.726" y2="110.138" gradientUnits="userSpaceOnUse">
<stop stop-color="#5778FF"/>
<stop offset="0.1779" stop-color="#5C7DFF"/>
<stop offset="0.3876" stop-color="#6A8AFF"/>
<stop offset="0.6134" stop-color="#82A0FF"/>
<stop offset="0.849" stop-color="#A3BEFF"/>
<stop offset="1" stop-color="#BCD5FF"/>
</linearGradient>
<linearGradient id="paint24_linear_55_6722" x1="33.3818" y1="89.279" x2="35.1472" y2="89.279" gradientUnits="userSpaceOnUse">
<stop stop-color="#C0D6FF"/>
<stop offset="0.2978" stop-color="#C5DBFF"/>
<stop offset="0.6488" stop-color="#D3E9FF"/>
<stop offset="1" stop-color="#E9FFFF"/>
</linearGradient>
<linearGradient id="paint25_linear_55_6722" x1="33.1663" y1="89.4821" x2="34.6263" y2="89.4821" gradientUnits="userSpaceOnUse">
<stop stop-color="#5778FF"/>
<stop offset="0.1779" stop-color="#5C7DFF"/>
<stop offset="0.3876" stop-color="#6A8AFF"/>
<stop offset="0.6134" stop-color="#82A0FF"/>
<stop offset="0.849" stop-color="#A3BEFF"/>
<stop offset="1" stop-color="#BCD5FF"/>
</linearGradient>
<linearGradient id="paint26_linear_55_6722" x1="33.3823" y1="89.4289" x2="35.1478" y2="89.4289" gradientUnits="userSpaceOnUse">
<stop stop-color="#C0D6FF"/>
<stop offset="0.2978" stop-color="#C5DBFF"/>
<stop offset="0.6488" stop-color="#D3E9FF"/>
<stop offset="1" stop-color="#E9FFFF"/>
</linearGradient>
<linearGradient id="paint27_linear_55_6722" x1="33.1669" y1="89.4289" x2="34.6269" y2="89.4289" gradientUnits="userSpaceOnUse">
<stop stop-color="#5778FF"/>
<stop offset="0.1779" stop-color="#5C7DFF"/>
<stop offset="0.3876" stop-color="#6A8AFF"/>
<stop offset="0.6134" stop-color="#82A0FF"/>
<stop offset="0.849" stop-color="#A3BEFF"/>
<stop offset="1" stop-color="#BCD5FF"/>
</linearGradient>
<linearGradient id="paint28_linear_55_6722" x1="87.8654" y1="33.7899" x2="80.3486" y2="22.811" gradientUnits="userSpaceOnUse">
<stop/>
<stop offset="0.0469354" stop-color="#2F2F2F"/>
<stop offset="0.0981487" stop-color="#5A5A5A"/>
<stop offset="0.155" stop-color="#828282"/>
<stop offset="0.2161" stop-color="#A4A4A4"/>
<stop offset="0.2828" stop-color="#C0C0C0"/>
<stop offset="0.3571" stop-color="#D7D7D7"/>
<stop offset="0.442" stop-color="#E9E9E9"/>
<stop offset="0.5443" stop-color="#F6F6F6"/>
<stop offset="0.6813" stop-color="#FDFDFD"/>
<stop offset="1" stop-color="white"/>
</linearGradient>
<linearGradient id="paint29_linear_55_6722" x1="87.8654" y1="33.7899" x2="80.3486" y2="22.811" gradientUnits="userSpaceOnUse">
<stop stop-color="#E9FFFF"/>
<stop offset="0.0373936" stop-color="#D3EBFF"/>
<stop offset="0.1056" stop-color="#B2CCFF"/>
<stop offset="0.1817" stop-color="#96B2FF"/>
<stop offset="0.2663" stop-color="#7F9DFF"/>
<stop offset="0.3632" stop-color="#6D8CFF"/>
<stop offset="0.4798" stop-color="#6081FF"/>
<stop offset="0.6363" stop-color="#597AFF"/>
<stop offset="1" stop-color="#5778FF"/>
</linearGradient>
<linearGradient id="paint30_linear_55_6722" x1="62.0978" y1="106.646" x2="44.607" y2="75.128" gradientUnits="userSpaceOnUse">
<stop stop-color="#5778FF"/>
<stop offset="0.0397918" stop-color="#5C7DFF"/>
<stop offset="0.086699" stop-color="#6A8AFF"/>
<stop offset="0.1372" stop-color="#82A0FF"/>
<stop offset="0.1899" stop-color="#A3BEFF"/>
<stop offset="0.2237" stop-color="#BCD5FF"/>
</linearGradient>
<linearGradient id="paint31_linear_55_6722" x1="40.5862" y1="106.758" x2="52.2277" y2="83.9831" gradientUnits="userSpaceOnUse">
<stop stop-color="#C0D6FF"/>
<stop offset="0.2978" stop-color="#C5DBFF"/>
<stop offset="0.6488" stop-color="#D3E9FF"/>
<stop offset="1" stop-color="#E9FFFF"/>
</linearGradient>
<linearGradient id="paint32_linear_55_6722" x1="18.4583" y1="132.744" x2="46.2913" y2="83.3901" gradientUnits="userSpaceOnUse">
<stop stop-color="#C0D6FF"/>
<stop offset="0.1212" stop-color="#D6ECFF"/>
<stop offset="0.2117" stop-color="#E9FFFF"/>
<stop offset="0.2475" stop-color="#E3F9FF"/>
<stop offset="0.4139" stop-color="#C9DFFF"/>
<stop offset="0.5143" stop-color="#C0D6FF"/>
<stop offset="0.6239" stop-color="#D0E6FF"/>
<stop offset="0.755" stop-color="#E9FFFF"/>
<stop offset="1" stop-color="#C0D6FF"/>
</linearGradient>
</defs>
</svg>
