<svg width="93" height="160" viewBox="0 0 93 160" fill="none" xmlns="http://www.w3.org/2000/svg">
<path d="M92.8647 128.98V133.412C92.8647 134.352 92.2547 135.359 90.9668 136.097V131.666C92.1869 130.86 92.797 129.92 92.8647 128.98Z" fill="#5618B8"/>
<path d="M0 133.344V128.913C0 129.92 0.677843 130.86 1.96574 131.599V136.03C0.677843 135.292 0 134.352 0 133.344Z" fill="#5618B8"/>
<path d="M90.8989 131.599V136.03L51.2451 158.926V154.427L90.8989 131.599Z" fill="#5618B8"/>
<path d="M41.8907 154.427V158.926L1.96582 136.03V131.599L41.8907 154.427Z" fill="#5618B8"/>
<path d="M51.2449 154.427V158.859C48.6691 160.336 44.4664 160.336 41.8906 158.859V154.427C44.4664 155.904 48.6691 155.904 51.2449 154.427Z" fill="#5618B8"/>
<path d="M90.899 126.227C93.4748 127.705 93.4748 130.122 90.899 131.599L51.2452 154.427C48.6694 155.904 44.4668 155.904 41.891 154.427L1.96603 131.599C-0.609771 130.122 -0.609771 127.705 1.96603 126.227L41.6198 103.399C44.1956 101.922 48.3982 101.922 50.974 103.399L90.899 126.227Z" fill="url(#paint0_linear_55_8149)"/>
<path d="M88.5944 125.086V129.115C88.5944 129.988 87.9844 130.86 86.832 131.532V127.503C87.9844 126.832 88.5944 125.959 88.5944 125.086Z" fill="#5FD9FF"/>
<path d="M3.86328 129.115V125.086C3.86328 125.959 4.47334 126.899 5.62567 127.57V131.599C4.47334 130.928 3.86328 129.988 3.86328 129.115Z" fill="#5FD9FF"/>
<path d="M86.8316 127.503V131.599L50.6348 152.413V148.385L86.8316 127.503Z" fill="#5FD9FF"/>
<path d="M42.0939 148.385V152.413L5.62598 131.599V127.503L42.0939 148.385Z" fill="#5FD9FF"/>
<path d="M50.6346 148.385V152.413C48.3299 153.756 44.4662 153.756 42.0938 152.413V148.385C44.4662 149.727 48.3299 149.727 50.6346 148.385Z" fill="#5FD9FF"/>
<path d="M86.8316 122.602C89.204 123.945 89.204 126.161 86.8316 127.503L50.6348 148.317C48.3301 149.66 44.4664 149.66 42.094 148.317L5.62602 127.503C3.25357 126.161 3.25357 123.945 5.62602 122.602L41.8228 101.788C44.1953 100.445 47.9912 100.445 50.3636 101.788L86.8316 122.602Z" fill="#5FD9FF"/>
<path d="M92.9321 119.11V123.542C92.9321 124.482 92.3221 125.489 91.0342 126.227V121.796C92.2543 121.057 92.9321 120.05 92.9321 119.11Z" fill="#5618B8"/>
<path d="M0.0673828 123.542V119.11C0.0673828 120.117 0.745225 121.057 2.03313 121.796V126.227C0.745225 125.489 0.0673828 124.482 0.0673828 123.542Z" fill="#5618B8"/>
<path d="M91.0341 121.796L90.9663 126.228L51.3125 149.056V144.625L91.0341 121.796Z" fill="#5618B8"/>
<path d="M41.9581 144.625V149.056L2.0332 126.228V121.796L41.9581 144.625Z" fill="#5618B8"/>
<path d="M51.3122 144.625V149.056C48.7364 150.533 44.5338 150.533 41.958 149.056V144.625C44.5338 146.102 48.7364 146.102 51.3122 144.625Z" fill="#5618B8"/>
<path d="M90.9664 116.425C93.5422 117.902 93.5422 120.319 90.9664 121.796L51.3126 144.624C48.7368 146.102 44.5341 146.102 41.9583 144.624L2.03341 121.796C-0.542388 120.319 -0.542388 117.902 2.03341 116.425L41.6872 93.5964C44.263 92.1192 48.4656 92.1192 51.0414 93.5964L90.9664 116.425Z" fill="url(#paint1_linear_55_8149)"/>
<path d="M88.6618 115.015V119.043C88.6618 119.916 88.0517 120.789 86.8994 121.46V117.432C88.0517 116.76 88.6618 115.887 88.6618 115.015Z" fill="#5FD9FF"/>
<path d="M3.93066 119.043V115.015C3.93066 115.887 4.54072 116.827 5.69306 117.499V121.527C4.54072 120.856 3.93066 119.916 3.93066 119.043Z" fill="#5FD9FF"/>
<path d="M86.8989 117.432V121.528L50.7021 142.342V138.313L86.8989 117.432Z" fill="#5FD9FF"/>
<path d="M42.1613 138.313V142.342L5.69336 121.528V117.432L42.1613 138.313Z" fill="#5FD9FF"/>
<path d="M50.7019 138.313V142.342C48.3973 143.684 44.5336 143.684 42.1611 142.342V138.313C44.5336 139.656 48.3295 139.656 50.7019 138.313Z" fill="#5FD9FF"/>
<path d="M86.899 112.53C89.2714 113.873 89.2714 116.089 86.899 117.432L50.7022 138.246C48.3975 139.589 44.5338 139.589 42.1613 138.246L5.6934 117.432C3.32095 116.089 3.32095 113.873 5.6934 112.53L41.8902 91.7164C44.2627 90.3735 48.0586 90.3735 50.431 91.7164L86.899 112.53Z" fill="#5FD9FF"/>
<path d="M93.0005 109.039V113.47C93.0005 114.41 92.3904 115.418 91.1025 116.156V111.725C92.3227 110.986 93.0005 109.979 93.0005 109.039Z" fill="#5618B8"/>
<path d="M0.135742 113.47V109.039C0.135742 110.046 0.813585 110.986 2.10149 111.725V116.156C0.813585 115.418 0.135742 114.41 0.135742 113.47Z" fill="#5618B8"/>
<path d="M91.0347 111.725V116.156L51.3809 138.985V134.553L91.0347 111.725Z" fill="#5618B8"/>
<path d="M42.0265 134.553V138.985L2.10156 116.156V111.725L42.0265 134.553Z" fill="#5618B8"/>
<path d="M51.3806 134.553V138.985C48.8048 140.462 44.6022 140.462 42.0264 138.985V134.553C44.6022 136.03 48.8048 136.03 51.3806 134.553Z" fill="#5618B8"/>
<path d="M91.0347 106.353C93.6105 107.831 93.6105 110.248 91.0347 111.725L51.3809 134.553C48.8051 136.03 44.6025 136.03 42.0267 134.553L2.10177 111.725C-0.474029 110.248 -0.474029 107.831 2.10177 106.353L41.7556 83.5251C44.3314 82.048 48.534 82.048 51.1098 83.5251L91.0347 106.353Z" fill="url(#paint2_linear_55_8149)"/>
<path d="M50.364 83.1223V87.5537C48.1271 86.278 44.399 86.278 42.1621 87.5537V83.1223C44.4668 81.8466 48.1271 81.8466 50.364 83.1223Z" fill="#CCD3E2"/>
<path d="M83.7819 102.258V106.689L50.3643 87.5537V83.1223L83.7819 102.258Z" fill="#CCD3E2"/>
<path d="M85.5442 104.608V109.039C85.5442 108.166 85.0019 107.293 83.8496 106.689V102.258C84.9342 102.862 85.5442 103.735 85.5442 104.608Z" fill="#CCD3E2"/>
<path d="M7.32129 109.039V104.608C7.32129 103.735 7.86356 102.929 9.0159 102.258V106.689C7.86356 107.293 7.32129 108.166 7.32129 109.039Z" fill="#CCD3E2"/>
<path d="M87.171 104.608V109.039C87.171 110.113 86.4254 111.188 85.002 112.06V107.629C86.4254 106.756 87.171 105.682 87.171 104.608Z" fill="#CCD3E2"/>
<path d="M5.69434 109.039V104.608C5.69434 105.682 6.43996 106.823 7.86343 107.629V112.06C6.37218 111.188 5.69434 110.113 5.69434 109.039Z" fill="#CCD3E2"/>
<path d="M85.0016 101.586C87.9163 103.265 87.9163 105.951 85.0694 107.629L51.8551 126.765C48.9404 128.443 44.2633 128.443 41.3486 126.765L7.93092 107.629C5.01619 105.951 5.0162 103.265 7.86313 101.586L41.0774 82.4508C43.9921 80.7723 48.6693 80.7723 51.584 82.4508L85.0016 101.586ZM50.635 126.026L83.8493 106.891C86.0862 105.615 86.0862 103.466 83.8493 102.191L50.4316 83.0551C48.1948 81.7794 44.4666 81.7794 42.2298 83.0551L9.01547 102.191C6.77859 103.466 6.77859 105.615 9.01547 106.891L42.4331 126.026C44.7378 127.302 48.3981 127.302 50.635 126.026Z" fill="white"/>
<path d="M42.2299 83.1223L42.1621 87.5537L9.01562 106.689V102.258L42.2299 83.1223Z" fill="#CCD3E2"/>
<path d="M85.0024 107.629V112.061L51.7881 131.129V126.698L85.0024 107.629Z" fill="#CCD3E2"/>
<path d="M41.2809 126.698V131.129L7.86328 112.061V107.629L41.2809 126.698Z" fill="#CCD3E2"/>
<path d="M51.7878 126.698V131.129C48.8731 132.807 44.196 132.807 41.2812 131.129V126.698C44.196 128.376 48.9409 128.376 51.7878 126.698Z" fill="#CCD3E2"/>
<path d="M75.1733 107.562V108.435C75.1733 109.375 74.5633 110.382 73.2754 111.121V110.248C74.5633 109.509 75.1733 108.569 75.1733 107.562Z" fill="#CCD3E2"/>
<path d="M17.624 108.435V107.562C17.624 108.569 18.3019 109.509 19.5898 110.248V111.121C18.3019 110.382 17.624 109.375 17.624 108.435Z" fill="#CCD3E2"/>
<path d="M73.2744 110.248V111.121L51.1768 123.811V122.938L73.2744 110.248Z" fill="#CCD3E2"/>
<path d="M41.8231 122.938V123.878L19.5898 111.121V110.248L41.8231 122.938Z" fill="#CCD3E2"/>
<path d="M51.1775 122.938V123.81C48.6017 125.287 44.399 125.287 41.8232 123.81V122.938C44.399 124.415 48.6017 124.415 51.1775 122.938Z" fill="#CCD3E2"/>
<path d="M73.2752 104.876C75.851 106.353 75.851 108.771 73.2752 110.248L51.1775 122.938C48.6017 124.415 44.3991 124.415 41.8233 122.938L19.5901 110.248C17.0143 108.771 17.0143 106.353 19.5901 104.876L41.6877 92.1865C44.2635 90.7093 48.4661 90.7093 51.042 92.1865L73.2752 104.876Z" fill="white"/>
<path d="M62.9036 89.6348C64.3949 90.0376 65.9539 90.239 67.3773 90.1719L66.8351 91.179C65.4116 91.2462 63.8526 91.0448 62.3613 90.6419C62.5647 90.3062 62.768 89.9705 62.9036 89.6348Z" fill="white"/>
<path d="M67.4446 90.172C70.3593 90.1049 72.3251 89.0306 73.2063 87.3521L72.664 88.3592C71.7828 90.0377 69.7493 91.112 66.9023 91.1792C67.0379 90.9106 67.2413 90.5077 67.4446 90.172Z" fill="white"/>
<path d="M51.5829 81.7791C53.8198 85.4048 58.3613 88.4262 62.9706 89.6348C62.7673 89.9705 62.6317 90.3062 62.4284 90.6419C57.8868 89.4333 53.3453 86.412 51.0406 82.7863C49.5494 80.3692 49.346 78.1535 50.2272 76.542L50.7695 75.5349C49.8883 77.1463 50.0916 79.362 51.5829 81.7791Z" fill="white"/>
<path d="M50.2275 76.5422L50.7698 75.5351C51.651 73.8565 53.6845 72.7822 56.5315 72.7151L55.9892 73.7222C53.0745 73.8565 51.1087 74.9308 50.2275 76.5422Z" fill="#E8EFF9"/>
<path d="M48.3975 74.7964L48.9397 73.7893C50.0921 71.5736 52.8034 70.1636 56.5994 70.0293L56.0571 71.0364C52.1934 71.2379 49.5498 72.6478 48.3975 74.7964Z" fill="url(#paint3_linear_55_8149)"/>
<path d="M55.9896 73.7222C61.7512 73.5208 68.8686 77.3479 71.8511 82.115C74.8336 86.9492 72.5967 90.9778 66.9028 91.1792C61.1412 91.3806 54.0916 87.6207 51.0413 82.7864C47.991 77.9522 50.2279 73.9236 55.9896 73.7222Z" fill="#E8EFF9"/>
<path d="M73.2065 87.3519L72.6642 88.359C73.5454 86.7476 73.342 84.5319 71.8508 82.1148C68.8683 77.2805 61.7509 73.5206 55.9893 73.722L56.5315 72.7149C62.2932 72.5135 69.4105 76.3406 72.3931 81.1076C73.8843 83.5248 74.0877 85.7405 73.2065 87.3519Z" fill="#E8EFF9"/>
<path d="M78.6292 89.5013L78.0869 90.5084C79.2393 88.3599 78.9681 85.4056 77.0024 82.2499C73.0031 75.8714 63.6489 70.9029 55.9893 71.1043L56.5315 70.0972C64.1234 69.8286 73.5454 74.8643 77.5447 81.2428C79.5782 84.3985 79.7815 87.2856 78.6292 89.5013Z" fill="url(#paint4_linear_55_8149)"/>
<path d="M56.0571 71.1035C63.6489 70.835 73.0709 75.8706 77.0702 82.2491C81.0695 88.6277 78.087 93.999 70.4951 94.2676C62.9033 94.5362 53.4813 89.5005 49.5498 83.122C45.4827 76.6763 48.4653 71.305 56.0571 71.1035ZM66.8348 91.2462C72.5965 91.0448 74.8333 87.0162 71.783 82.182C68.8005 77.3478 61.6832 73.5878 55.9215 73.7892C50.1599 73.9906 47.923 78.0192 50.9733 82.8534C54.0236 87.6205 61.1409 91.3805 66.8348 91.2462Z" fill="white"/>
<path d="M50.4308 76.6091L50.6341 76.2734C49.6174 78.0863 49.8885 80.5705 51.5153 83.2562C54.8367 88.6276 62.8353 92.8576 69.2748 92.6561L69.0714 92.9919C62.6319 93.1933 54.7012 88.9633 51.312 83.5919C49.6851 80.9063 49.4818 78.422 50.4308 76.6091Z" fill="#CAAEFF"/>
<path d="M75.7141 89.5005L75.5108 89.8362C74.494 91.7162 72.2571 92.9247 69.0713 92.9919L69.2746 92.6562C72.4605 92.5219 74.6974 91.3805 75.7141 89.5005Z" fill="#CAAEFF"/>
<path d="M49.6172 76.1394L49.8205 75.8037C50.9051 73.8565 53.2775 72.5137 56.7345 72.4465L56.5312 72.7822C53.0742 72.9165 50.7017 74.1922 49.6172 76.1394Z" fill="#CAAEFF"/>
<path d="M76.5954 89.9706L76.392 90.3063C77.4766 88.3592 77.2055 85.7406 75.4431 82.8535C71.8505 77.0793 63.3775 72.5807 56.5312 72.7822L56.7346 72.4464C63.5808 72.245 72.0538 76.7436 75.6464 82.5178C77.4088 85.3378 77.6122 87.9563 76.5954 89.9706Z" fill="#CAAEFF"/>
<path d="M56.5314 72.7821C63.3776 72.5807 71.8506 77.0792 75.4432 82.8535C79.0358 88.6277 76.3244 93.4619 69.4782 93.6634C62.632 93.8648 54.1589 89.3663 50.5664 83.592C46.9738 77.8178 49.6852 72.9836 56.5314 72.7821ZM69.0715 92.992C75.511 92.7905 78.019 88.2249 74.6298 82.8535C71.3084 77.4821 63.3098 73.2521 56.8703 73.4536C50.4308 73.655 47.9228 78.2207 51.312 83.592C54.7012 88.9634 62.632 93.1934 69.0715 92.992Z" fill="#5618B8"/>
<path d="M55.8535 83.1892L56.0569 82.8535L58.1582 82.3164L57.9548 82.6521L55.8535 83.1892Z" fill="#CAAEFF"/>
<path d="M63.1748 82.9878L63.3782 82.6521L64.7338 86.2778L64.5305 86.6135L63.1748 82.9878Z" fill="#CAAEFF"/>
<path d="M71.7832 86.4119L71.9866 86.0762L73.0033 88.8962L72.8678 89.2319L71.7832 86.4119Z" fill="#CAAEFF"/>
<path d="M64.5303 86.6133L64.7336 86.2776L71.9865 86.0762L71.7832 86.4119L64.5303 86.6133Z" fill="#CAAEFF"/>
<path d="M64.7334 80.8391L64.869 80.5034L65.8179 81.9805L65.6146 82.3163L64.7334 80.8391Z" fill="#CAAEFF"/>
<path d="M62.6328 81.3763L62.8362 81.0405L64.8697 80.5034L64.7341 80.8391L62.6328 81.3763Z" fill="#CAAEFF"/>
<path d="M60.4633 75.6021L62.6324 81.3763L64.7337 80.8392L65.6149 82.3163L63.1747 82.9877L64.5303 86.6134L71.7833 86.412L72.8678 89.2319L60.5311 89.6348L58.5653 84.1963L56.8029 84.6663L55.854 83.1891L57.9553 82.652L55.4473 75.8035L60.4633 75.6021Z" fill="#5618B8"/>
<path d="M60.4629 75.6021L60.6662 75.2664L62.8353 81.0406L62.632 81.3763L60.4629 75.6021Z" fill="#CAAEFF"/>
<path d="M55.4473 75.8035L55.5828 75.4006L60.6667 75.2664L60.4633 75.6021L55.4473 75.8035Z" fill="#CAAEFF"/>
<path d="M58.7689 100.915C58.7689 100.848 58.7689 100.848 58.7012 100.781C58.7012 100.378 58.7012 99.9077 58.7012 99.5049C58.7012 99.572 58.7012 99.572 58.7689 99.6392C58.7689 100.042 58.7689 100.445 58.7689 100.915Z" fill="white"/>
<path d="M58.7686 100.915C58.7686 100.848 58.7686 100.848 58.7686 100.781C58.7686 100.378 58.7686 99.9749 58.7686 99.572C58.9041 100.042 58.9719 100.512 58.9719 101.049C58.9719 101.452 58.9719 101.922 58.9719 102.325C59.0397 101.855 58.9719 101.385 58.7686 100.915Z" fill="white"/>
<path d="M34.5015 96.5505C31.7223 98.1619 30.3666 100.243 30.2988 102.325V101.049C30.2988 98.9676 31.7223 96.8862 34.5015 95.2748C40.0598 92.052 49.1429 92.052 54.7689 95.2748C56.8703 96.4833 58.2259 97.9605 58.7682 99.5047C58.7682 99.9076 58.7682 100.378 58.7682 100.78C58.2259 99.2362 56.938 97.759 54.7689 96.5505C49.1429 93.3277 40.0598 93.3277 34.5015 96.5505Z" fill="white"/>
<path d="M59.0393 101.116V102.392C59.0393 104.473 57.6158 106.555 54.8367 108.166C49.2784 111.389 40.1953 111.389 34.5692 108.166C31.7223 106.555 30.2988 104.406 30.3666 102.325V101.049C30.3666 103.198 31.79 105.279 34.5692 106.89C40.1953 110.113 49.2784 110.113 54.8367 106.89C57.6158 105.279 59.0393 103.198 59.0393 101.116Z" fill="#E8EFF9"/>
<path d="M54.7696 95.2079C60.3957 98.4307 60.3957 103.668 54.8374 106.824C49.2791 110.046 40.196 110.046 34.5699 106.824C28.9438 103.601 28.9438 98.3636 34.5021 95.2079C40.0604 91.9851 49.1435 91.9851 54.7696 95.2079Z" fill="#E8EFF9"/>
<path d="M63.9201 101.653V102.929C63.9201 105.682 62.0899 108.435 58.4296 110.583C51.0411 114.813 39.0433 114.813 31.587 110.583C27.8589 108.435 25.9609 105.615 25.9609 102.795V101.519C25.9609 104.339 27.7911 107.159 31.587 109.308C39.0433 113.537 51.0411 113.537 58.4296 109.308C62.0899 107.159 63.9201 104.406 63.9201 101.653Z" fill="url(#paint5_linear_55_8149)"/>
<path d="M58.3618 93.8649C65.8181 98.0949 65.8181 105.011 58.4296 109.308C51.0411 113.605 39.0433 113.538 31.587 109.308C24.1308 105.078 24.1308 98.162 31.5192 93.8649C38.9077 89.5678 50.9055 89.635 58.3618 93.8649ZM34.5695 106.891C40.1956 110.113 49.2787 110.113 54.837 106.891C60.3953 103.668 60.3953 98.4306 54.7692 95.2749C49.1432 92.0521 40.0601 92.0521 34.5018 95.2749C28.8757 98.4306 28.9434 103.668 34.5695 106.891Z" fill="white"/>
<path d="M60.7342 101.519V101.922C60.7342 99.572 59.1752 97.1549 55.9893 95.342C49.6854 91.7835 39.5178 91.7835 33.2816 95.342C30.1635 97.1549 28.6045 99.4377 28.6045 101.788V101.385C28.6045 99.0349 30.1635 96.6849 33.2816 94.9392C39.5178 91.3806 49.6854 91.3806 55.9893 94.9392C59.1752 96.8192 60.7342 99.1691 60.7342 101.519Z" fill="#CAAEFF"/>
<path d="M61.8185 101.519V101.922C61.8185 104.406 60.1239 106.89 56.8703 108.838C50.2274 112.665 39.382 112.665 32.6713 108.838C29.2821 106.89 27.5875 104.406 27.6553 101.855V101.452C27.6553 104.003 29.3499 106.488 32.6713 108.435C39.382 112.262 50.2274 112.262 56.8703 108.435C60.1239 106.555 61.8185 104.07 61.8185 101.519Z" fill="#CAAEFF"/>
<path d="M56.7352 94.5364C63.4458 98.3635 63.4458 104.608 56.803 108.435C50.1601 112.262 39.3146 112.262 32.604 108.435C25.8933 104.608 25.8933 98.3635 32.5362 94.5364C39.1791 90.7092 50.0245 90.7092 56.7352 94.5364ZM33.3496 108.032C39.6536 111.59 49.8212 111.59 56.0573 108.032C62.2935 104.473 62.2935 98.5649 55.9896 95.0063C49.6856 91.4478 39.518 91.4478 33.2818 95.0063C27.0457 98.5649 27.1135 104.406 33.3496 108.032Z" fill="#5618B8"/>
<path d="M41.6192 103.399V103.869L38.9756 98.229V97.759L41.6192 103.399Z" fill="#CAAEFF"/>
<path d="M51.4479 104.876L41.6192 103.399L38.9756 97.7592L55.3116 95.4763L51.4479 104.876Z" fill="#5618B8"/>
<path d="M51.4479 104.876V105.346L41.6191 103.869V103.399L51.4479 104.876Z" fill="#CAAEFF"/>
<path d="M55.311 95.4763V95.9463L51.4473 105.346V104.876L55.311 95.4763Z" fill="#CAAEFF"/>
<path d="M50.9732 105.749V106.219L35.3828 107.428V106.958L50.9732 105.749Z" fill="#CAAEFF"/>
<path d="M40.2633 104.138L50.9732 105.749L35.3828 106.958L37.4841 98.0278L40.2633 104.138Z" fill="#5618B8"/>
<path d="M29.0792 72.8494C30.5705 73.3865 32.0617 73.7894 33.4852 73.8565L32.8073 74.7965C31.3839 74.6622 29.8926 74.3265 28.4014 73.7894C28.6047 73.5208 28.8081 73.1851 29.0792 72.8494Z" fill="white"/>
<path d="M18.5725 63.9193C20.4027 67.7464 24.6053 71.2378 29.0113 72.9163C28.808 73.252 28.6046 73.5206 28.3335 73.8563C23.9275 72.1778 19.7249 68.6864 17.8947 64.8593C16.6746 62.3079 16.6746 60.0922 17.7591 58.5479L18.437 57.6079C17.4202 59.1522 17.3524 61.3679 18.5725 63.9193Z" fill="white"/>
<path d="M33.4181 73.9235C36.3328 74.1249 38.4341 73.252 39.4509 71.7078L38.773 72.6478C37.6885 74.192 35.5872 75.0649 32.7402 74.8635C33.0114 74.5949 33.2825 74.192 33.4181 73.9235Z" fill="white"/>
<path d="M17.8271 58.5479L18.505 57.6079C19.5895 56.0636 21.6909 55.1908 24.5378 55.3922L23.86 56.3322C20.9452 56.1308 18.8439 57.0036 17.8271 58.5479Z" fill="#E8EFF9"/>
<path d="M14.709 56.131L15.3868 55.191C16.8103 53.1096 19.5895 51.9682 23.3854 52.3039L22.7075 53.2439C18.8438 52.9082 16.0647 54.0496 14.709 56.131Z" fill="url(#paint6_linear_55_8149)"/>
<path d="M39.5185 71.7079L38.8407 72.6479C39.8574 71.1036 39.9252 68.8879 38.7051 66.3365C36.1971 61.3008 29.5542 56.8023 23.8604 56.3995L24.5382 55.4595C30.2321 55.8623 36.9427 60.3609 39.3829 65.4637C40.6031 67.9479 40.5353 70.1636 39.5185 71.7079Z" fill="#E8EFF9"/>
<path d="M22.7078 53.1765C30.2996 53.7136 39.1116 59.6893 42.3652 66.4035C45.6189 73.1849 42.1619 78.2206 34.57 77.6163C26.9782 77.0791 18.1662 71.1035 14.9126 64.3892C11.5912 57.675 15.116 52.6393 22.7078 53.1765ZM32.8076 74.8634C38.5015 75.2663 41.2129 71.5063 38.7049 66.4035C36.1969 61.3007 29.554 56.8022 23.8601 56.3993C18.1662 55.9965 15.4549 59.7564 17.9629 64.8592C20.4031 69.9621 27.046 74.4606 32.8076 74.8634Z" fill="white"/>
<path d="M23.8603 56.3994C29.5542 56.8023 36.2648 61.3008 38.705 66.4036C41.1453 71.5064 38.5017 75.3335 32.8078 74.8635C27.1139 74.4607 20.4033 69.9622 17.9631 64.8593C15.455 59.7565 18.0986 55.9294 23.8603 56.3994Z" fill="#E8EFF9"/>
<path d="M43.1783 73.7892L42.5004 74.7292C43.8561 72.715 43.9239 69.7607 42.2971 66.4036C39.0434 59.6222 30.2315 53.7137 22.6396 53.1766L23.3175 52.2366C30.9093 52.7737 39.7213 58.7494 42.9749 65.4636C44.6017 68.8207 44.534 71.775 43.1783 73.7892Z" fill="url(#paint7_linear_55_8149)"/>
<path d="M16.4032 58.2122L16.6065 57.8765C15.4542 59.6222 15.3864 62.0393 16.7421 64.9264C19.5212 70.6335 26.9775 75.6692 33.3492 76.1392L33.1459 76.4749C26.7742 76.0049 19.3179 70.9692 16.5387 65.2621C15.1831 62.4421 15.2508 59.9579 16.4032 58.2122Z" fill="#CAAEFF"/>
<path d="M40.1956 73.655L39.9923 73.9907C38.7722 75.7364 36.4675 76.6764 33.2139 76.475L33.4172 76.1393C36.6031 76.3407 38.9755 75.4007 40.1956 73.655Z" fill="#CAAEFF"/>
<path d="M15.6572 57.6751L15.8606 57.3394C17.1485 55.4594 19.6565 54.4523 23.0457 54.7209L22.8424 55.0566C19.3854 54.788 16.8773 55.8623 15.6572 57.6751Z" fill="#CAAEFF"/>
<path d="M40.9417 74.1927L40.7384 74.5284C41.9585 72.7156 42.0263 70.0299 40.6028 67.0085C37.6881 60.8985 29.6896 55.5943 22.9111 55.0571L23.1145 54.7214C29.9607 55.1914 37.8915 60.5628 40.8062 66.6728C42.2297 69.6942 42.2297 72.3798 40.9417 74.1927Z" fill="#CAAEFF"/>
<path d="M22.8429 55.0567C29.6891 55.5267 37.6198 60.898 40.5346 67.008C43.4493 73.1179 40.3312 77.6165 33.485 77.1465C26.6388 76.6765 18.708 71.3051 15.7933 65.1951C12.8786 59.0852 15.9967 54.5867 22.8429 55.0567ZM33.2139 76.475C39.5856 76.945 42.5681 72.7151 39.7889 67.008C37.0098 61.3009 29.5535 56.2652 23.1818 55.7952C16.8101 55.3252 13.8276 59.5552 16.6067 65.2623C19.3859 70.9694 26.7744 76.005 33.2139 76.475Z" fill="#5618B8"/>
<path d="M28.673 71.1706L28.4697 71.5063C28.8086 70.9692 28.8764 70.2306 28.4019 69.2906C28.1985 68.9549 27.9952 68.6192 27.6562 68.2835L27.8596 67.9478C28.1307 68.2835 28.4019 68.6192 28.6052 68.9549C29.0797 69.8277 29.0119 70.6334 28.673 71.1706Z" fill="#CAAEFF"/>
<path d="M21.0811 66.5377L21.2844 66.202C21.6233 65.6649 22.369 65.3292 23.3857 65.4634C24.4703 65.5306 25.6904 66.0677 26.6394 66.7391L26.436 67.0749C25.487 66.4034 24.2669 65.8663 23.1824 65.7992C22.2334 65.732 21.4878 66.0006 21.0811 66.5377Z" fill="#CAAEFF"/>
<path d="M27.9274 66.0007L27.724 66.3364C27.5885 66.5379 27.1817 66.6721 26.5039 67.1421L26.7073 66.8064C27.3851 66.3364 27.7918 66.2022 27.9274 66.0007Z" fill="#CAAEFF"/>
<path d="M28.334 64.4563L28.5373 64.1206C29.7575 66.6049 28.8085 65.732 31.8588 67.142L31.6554 67.4777C28.6729 66.0006 29.5541 66.9406 28.334 64.4563Z" fill="#CAAEFF"/>
<path d="M31.7236 67.4106L31.927 67.0749C32.3337 66.5378 33.0793 66.1349 34.0961 66.2692C36.0618 66.4035 38.3665 68.0149 39.2477 69.7606C39.6544 70.6334 39.6544 71.4391 39.3155 71.9763L39.1121 72.312C39.451 71.7749 39.5188 70.9691 39.0443 70.0963C38.1631 68.3506 35.8585 66.7392 33.8927 66.6049C32.876 66.4706 32.1303 66.8735 31.7236 67.4106Z" fill="#CAAEFF"/>
<path d="M22.4365 58.7493L22.6399 58.4136C23.0466 57.8764 23.7244 57.5407 24.7412 57.6079L24.5378 57.9436C23.5211 57.9436 22.7754 58.2122 22.4365 58.7493Z" fill="#CAAEFF"/>
<path d="M29.9612 63.3831L29.7579 63.7188C30.0968 63.1817 30.1646 62.4431 29.6901 61.5031C28.8089 59.6903 26.5042 58.146 24.4707 58.0117L24.6741 57.676C26.7076 57.8103 29.0122 59.3546 29.8934 61.1674C30.3679 62.0403 30.3679 62.846 29.9612 63.3831Z" fill="#CAAEFF"/>
<path d="M24.5382 58.0107C26.5717 58.145 28.8763 59.6892 29.7575 61.5021C30.5032 63.0463 29.8931 64.2549 28.4019 64.4563C29.622 66.9406 28.673 66.0677 31.7233 67.4777C32.0622 66.8734 32.8756 66.4706 33.9602 66.6049C35.9259 66.7392 38.2306 68.3506 39.1118 70.0963C39.993 71.9091 39.044 73.1848 37.0782 73.0505C35.0447 72.9163 32.74 71.372 31.8589 69.5591C31.6555 69.2234 31.5877 68.8877 31.5199 68.552C30.0965 67.8806 29.5542 67.5449 29.1475 67.5449C28.7408 67.5449 28.4696 67.8134 27.6562 68.2834C27.9274 68.6191 28.1985 68.9549 28.4019 69.2906C29.2831 71.1034 28.3341 72.3791 26.3683 72.2448C24.3348 72.1105 22.0301 70.5663 21.1489 68.7534C20.2677 67.0077 21.2167 65.6649 23.1825 65.7992C24.267 65.8663 25.4871 66.4035 26.4361 67.0749C28.0629 66.0677 28.0629 66.6049 26.9784 64.322C25.1482 63.9192 23.2503 62.5092 22.4368 60.8978C21.6234 59.1521 22.5724 57.8764 24.5382 58.0107Z" fill="#5618B8"/>
<path d="M72.1224 52.5724C73.2069 49.9538 73.0714 47.7381 71.919 46.261L72.5969 47.201C73.7492 48.6781 73.8848 50.8938 72.8002 53.5123C70.6311 58.7494 64.2594 63.5837 58.5655 64.3223L57.8877 63.3823C63.5816 62.6437 69.9533 57.8095 72.1224 52.5724Z" fill="white"/>
<path d="M51.7197 61.5022C52.8721 62.9793 55.0412 63.7179 57.8881 63.3822L58.5659 64.3222C55.719 64.725 53.5499 63.9865 52.3976 62.4422C52.262 62.1736 51.9231 61.8379 51.7197 61.5022Z" fill="white"/>
<path d="M71.9193 46.261L72.5972 47.201C71.4449 45.7239 69.2758 44.9853 66.4288 45.321L65.751 44.381C68.5979 44.0453 70.767 44.7839 71.9193 46.261Z" fill="#E8EFF9"/>
<path d="M77.681 43.7096L78.3588 44.6496C76.8676 42.7024 74.0206 41.6953 70.2247 42.1653L69.5469 41.2253C73.275 40.7553 76.122 41.6953 77.681 43.7096Z" fill="url(#paint8_linear_55_8149)"/>
<path d="M66.497 45.3211C72.1908 44.5825 75.0378 48.2082 72.8687 53.4453C70.6996 58.6824 64.3279 63.5166 58.634 64.2552C52.9401 64.9937 50.0932 61.3681 52.2623 56.131C54.4314 50.8939 60.8031 46.0596 66.497 45.3211Z" fill="#E8EFF9"/>
<path d="M52.4649 62.4424L51.7871 61.5024C50.6348 60.0252 50.4992 57.8095 51.5838 55.191C53.7528 49.9539 60.1246 45.1197 65.8184 44.3811L66.4963 45.3211C60.8024 46.0597 54.4307 50.8939 52.2616 56.131C51.177 58.7495 51.3126 60.9652 52.4649 62.4424Z" fill="#E8EFF9"/>
<path d="M51.6519 64.793L50.9741 63.853C49.4828 61.9059 49.2795 58.9516 50.703 55.5274C53.5499 48.6117 62.0229 42.1661 69.547 41.1589L70.2248 42.0989C62.7008 43.1061 54.2277 49.4846 51.3808 56.4674C49.8895 59.8916 50.1607 62.8459 51.6519 64.793Z" fill="url(#paint9_linear_55_8149)"/>
<path d="M70.2246 42.1652C77.7486 41.1581 81.5446 45.9923 78.6976 52.908C75.8507 59.8236 67.3777 66.2693 59.8536 67.2764C52.3296 68.2836 48.5336 63.4493 51.3806 56.5337C54.2275 49.5509 62.6328 43.1052 70.2246 42.1652ZM58.6335 64.3222C64.3274 63.5836 70.6991 58.7494 72.8682 53.5123C75.0373 48.2752 72.1903 44.6495 66.4965 45.388C60.8026 46.1266 54.4309 50.9609 52.2618 56.198C50.0927 61.435 52.9396 65.0607 58.6335 64.3222Z" fill="white"/>
<path d="M75.7832 46.5295L75.9865 46.8653C77.2744 48.5438 77.41 50.9609 76.2577 53.9152C73.8174 59.7566 66.7001 65.1951 60.3284 66.0008L60.125 65.6651C66.4967 64.8594 73.6141 59.4209 76.0543 53.5795C77.2744 50.6924 77.0711 48.2081 75.7832 46.5295Z" fill="#CAAEFF"/>
<path d="M53.4827 63.9195L53.2793 63.5837C54.5672 65.2623 56.9397 66.068 60.1933 65.6652L60.3966 66.0009C57.143 66.4037 54.7706 65.598 53.4827 63.9195Z" fill="#CAAEFF"/>
<path d="M76.5971 45.9925L76.8004 46.3282C75.4447 44.5153 72.8689 43.6425 69.4797 44.1125L69.2764 43.7767C72.6656 43.3067 75.1736 44.1796 76.5971 45.9925Z" fill="#CAAEFF"/>
<path d="M52.7367 64.5245L52.5333 64.1888C51.1776 62.4431 50.9743 59.8246 52.2622 56.6689C54.838 50.4247 62.4976 44.6504 69.276 43.7104L69.4794 44.0462C62.7009 44.919 55.0413 50.7604 52.4655 57.0046C51.1776 60.0932 51.381 62.7117 52.7367 64.5245Z" fill="#CAAEFF"/>
<path d="M69.4798 44.0452C76.2582 43.1724 79.6474 47.5366 77.0716 53.7808C74.4958 60.0251 66.8362 65.7993 60.0578 66.7393C53.2793 67.6121 49.8223 63.2479 52.4659 57.0037C55.0417 50.7594 62.7014 44.9852 69.4798 44.0452ZM60.3967 66.0007C66.7684 65.195 73.8858 59.7565 76.326 53.9151C78.7662 48.0738 75.5804 43.9781 69.2086 44.7838C62.8369 45.5895 55.7196 51.028 53.2793 56.8694C50.7713 62.7779 54.025 66.8064 60.3967 66.0007Z" fill="#5618B8"/>
<path d="M67.3776 57.4065L67.1064 57.0708L70.9701 51.9009L71.1735 52.1694L67.3776 57.4065Z" fill="#CAAEFF"/>
<path d="M75.1051 48.9466L75.3085 49.2823C75.1051 48.9466 74.6306 48.8794 73.885 48.9466L73.6816 48.6109C74.3595 48.5437 74.834 48.678 75.1051 48.9466Z" fill="#CAAEFF"/>
<path d="M57.7522 58.6151L57.5488 58.3465L67.1064 57.0708L67.3775 57.4065L57.7522 58.6151Z" fill="#CAAEFF"/>
<path d="M55.3801 61.905L55.1768 61.5693L57.5492 58.3464L57.7526 58.615L55.3801 61.905Z" fill="#CAAEFF"/>
<path d="M61.6164 53.445L61.4131 53.1764L63.7178 49.9536L63.9889 50.2222L61.6164 53.445Z" fill="#CAAEFF"/>
<path d="M63.9889 50.2225L63.7178 49.9539L73.6821 48.6111L73.8854 48.9468L63.9889 50.2225Z" fill="#CAAEFF"/>
<path d="M73.885 48.9466C74.7662 48.8123 75.2407 49.0137 75.444 49.4837C75.5796 49.9537 75.3762 50.6252 74.834 51.4309L70.4958 57.2722C69.8857 58.078 69.0045 58.8837 68.0555 59.4879C67.1066 60.0922 66.1576 60.4951 65.2764 60.6294L55.3799 61.9051L57.7523 58.6822L67.3099 57.4065L71.1736 52.2366L61.616 53.5123L63.9885 50.2894L73.885 48.9466Z" fill="#5618B8"/>
<path fill-rule="evenodd" clip-rule="evenodd" d="M58.973 54.6536L65.5481 53.5793L63.6501 56.9365L56.9395 57.8764L58.973 54.6536Z" fill="#5618B8"/>
<path d="M34.9766 24.0369C37.2813 27.9983 40.4671 31.4225 43.9919 33.4368L42.5007 34.2425C38.9759 32.2282 35.79 28.804 33.4854 24.8426C34.0276 24.574 34.5021 24.3054 34.9766 24.0369Z" fill="white"/>
<path d="M31.2487 11.6826C31.2487 15.7111 32.6721 20.1425 34.9768 24.0367C34.5023 24.3053 34.0278 24.5739 33.5533 24.8424C31.2487 20.881 29.8252 16.4497 29.8252 12.4883C29.8252 8.52687 31.2487 5.7069 33.5533 4.4312L34.9768 3.62549C32.6721 4.90119 31.2487 7.65402 31.2487 11.6826Z" fill="white"/>
<path d="M43.9244 33.4368C47.4492 35.451 50.7029 35.6525 53.0075 34.3096L51.5841 35.1153C49.2794 36.4582 46.0935 36.2568 42.501 34.2425C42.9755 33.9739 43.5177 33.6382 43.9244 33.4368Z" fill="white"/>
<path d="M33.5537 4.36418L34.9772 3.55847C37.2818 2.21563 40.4677 2.41705 44.0603 4.43132L42.6368 5.23703C39.0442 3.22276 35.8584 3.02133 33.5537 4.36418Z" fill="#E8EFF9"/>
<path d="M33.6211 4.02842L35.0446 3.22271C38.0949 1.47701 42.3653 1.67844 47.0424 4.36413L45.6189 5.16983C40.874 2.55129 36.6714 2.28272 33.6211 4.02842Z" fill="url(#paint10_linear_55_8149)"/>
<path d="M42.5686 5.23702C49.6182 9.26556 55.3121 19.0012 55.2443 26.9911C55.2443 34.981 49.4826 38.2039 42.5009 34.1753C35.5191 30.2139 29.8252 20.4783 29.8252 12.4884C29.8252 4.43131 35.5869 1.20849 42.5686 5.23702Z" fill="#E8EFF9"/>
<path d="M53.0077 34.3097L51.5842 35.1154C53.8889 33.7726 55.3124 31.0197 55.3124 27.0583C55.3124 19.0684 49.6185 9.33278 42.6367 5.30424L44.0602 4.49854C51.1097 8.52707 56.8036 18.2627 56.7358 26.2526C56.7358 30.214 55.3124 32.9669 53.0077 34.3097Z" fill="#E8EFF9"/>
<path d="M58.9043 43.9108L57.4808 44.7165C60.4633 42.9708 62.3613 39.278 62.3613 34.0409C62.3613 23.4324 54.905 10.5411 45.5508 5.23686L46.9743 4.43115C56.2607 9.73539 63.7847 22.6267 63.7847 33.2352C63.7847 38.4723 61.8868 42.1651 58.9043 43.9108Z" fill="url(#paint11_linear_55_8149)"/>
<path d="M45.6189 5.16974C54.9054 10.5411 62.4294 23.4324 62.3616 34.0409C62.2938 44.6494 54.7698 48.8793 45.4833 43.5751C36.1969 38.2709 28.6729 25.3124 28.6729 14.7711C28.7406 4.1626 36.2647 -0.134501 45.6189 5.16974ZM42.5008 34.2423C49.5504 38.2709 55.2443 35.048 55.2443 27.0581C55.2443 19.0682 49.5504 9.33256 42.5686 5.30402C35.5868 1.20834 29.8252 4.43117 29.8252 12.4882C29.8252 20.4782 35.5191 30.2138 42.5008 34.2423Z" fill="white"/>
<path d="M34.9088 7.72145L35.3833 7.45288C32.8075 8.93001 31.2485 12.0857 31.2485 16.5171C31.2485 25.447 37.6202 36.3912 45.4154 40.8897L44.9409 41.1583C37.0779 36.6598 30.7062 25.7156 30.774 16.7857C30.774 12.2871 32.333 9.19858 34.9088 7.72145Z" fill="#CAAEFF"/>
<path d="M55.5148 41.8296L55.0403 42.0982C52.4645 43.5754 48.8719 43.3739 44.9404 41.0911L45.4149 40.8225C49.3464 43.1054 52.939 43.3068 55.5148 41.8296Z" fill="#CAAEFF"/>
<path d="M34.2305 6.57992L34.705 6.31135C37.4841 4.69993 41.28 4.9685 45.4827 7.31848L45.0082 7.58705C40.8055 5.16993 37.0096 4.9685 34.2305 6.57992Z" fill="#CAAEFF"/>
<path d="M56.1932 42.9709L55.7187 43.2395C58.4301 41.6952 60.1247 38.3381 60.1247 33.571C60.1247 24.0368 53.3463 12.354 45.0088 7.58693L45.4833 7.31836C53.8885 12.0855 60.667 23.7682 60.667 33.3024C60.667 38.0695 58.9724 41.3595 56.1932 42.9709Z" fill="#CAAEFF"/>
<path d="M45.0084 7.58713C53.4136 12.3542 60.1921 24.037 60.1921 33.5712C60.1921 43.1054 53.3459 46.9325 44.9406 42.1654C36.5354 37.3983 29.7569 25.7155 29.8247 16.1813C29.8247 6.64714 36.6709 2.82003 45.0084 7.58713ZM44.9406 41.0911C52.8036 45.5896 59.1753 41.964 59.2431 33.034C59.2431 24.1041 52.8714 13.1599 45.0762 8.66141C37.281 4.16288 30.8415 7.78856 30.7737 16.7185C30.7059 25.6484 37.0776 36.5926 44.9406 41.0911Z" fill="#5618B8"/>
<path d="M35.9258 27.0584L36.4003 26.7898L39.1794 28.4012L38.7049 28.6698L35.9258 27.0584Z" fill="#CAAEFF"/>
<path d="M43.6533 35.1826L44.1278 34.9141V37.5998L43.6533 37.8683V35.1826Z" fill="#CAAEFF"/>
<path d="M47.9238 37.3311L48.3983 37.0625L48.3305 40.0168L47.9238 40.2853V37.3311Z" fill="#5618B8"/>
<path d="M42.6367 30.8855L43.1112 30.6169L45.687 32.0941L45.2125 32.3626L42.6367 30.8855Z" fill="#CAAEFF"/>
<path d="M42.6367 25.3797L43.1112 25.1111V30.6167L42.6367 30.8853V25.3797Z" fill="#5618B8"/>
<path d="M48.195 32.6311L47.7205 32.8997C47.6527 32.8997 47.5849 32.9668 47.5849 32.9668C47.1104 33.1683 46.297 32.9668 45.2803 32.3626L45.7548 32.094C46.7715 32.6983 47.5172 32.8997 48.0594 32.6983C48.0594 32.6983 48.1272 32.6311 48.195 32.6311Z" fill="#CAAEFF"/>
<path d="M42.6367 21.8884L43.1112 21.6199L45.3481 22.8956L44.8736 23.1641L42.6367 21.8884Z" fill="#CAAEFF"/>
<path d="M42.6367 17.1885L43.1112 16.9199V21.6199L42.6367 21.8884V17.1885Z" fill="#CAAEFF"/>
<path d="M44.873 23.1641L45.3475 22.8955C45.4831 22.9627 45.6187 23.0298 45.6865 23.0969C46.5677 23.5669 47.1777 23.7684 47.6522 23.6341L47.1777 23.9026C46.771 23.9698 46.0932 23.8355 45.212 23.3655C45.1442 23.2984 45.0086 23.2312 44.873 23.1641Z" fill="#CAAEFF"/>
<path d="M49.0762 27.1255L49.5507 26.7898V26.9912L49.0762 27.2598V27.1255Z" fill="#5618B8"/>
<path d="M47.9239 23.5669L47.4494 23.8355C47.3817 23.9026 47.3139 23.9026 47.2461 23.9026L47.7206 23.634C47.7884 23.634 47.8562 23.634 47.9239 23.5669Z" fill="#5618B8"/>
<path d="M35.9932 9.73561L36.4677 9.46704L41.5515 12.4213L41.077 12.6899L35.9932 9.73561Z" fill="#CAAEFF"/>
<path d="M51.5165 36.9952L51.042 37.2638C51.9232 36.7267 52.3977 35.6524 52.3977 34.041C52.3977 32.6981 52.1265 31.4896 51.652 30.3482L52.1265 30.0796C52.6688 31.221 52.8722 32.4296 52.8722 33.7724C52.8722 35.3838 52.3977 36.4581 51.5165 36.9952Z" fill="#CAAEFF"/>
<path d="M49.0762 27.2598L49.5507 26.9912C50.703 27.9312 51.5842 29.0055 52.0587 30.0798L51.5842 30.3483C51.1097 29.274 50.2285 28.1998 49.0762 27.2598Z" fill="#CAAEFF"/>
<path d="M43.7207 14.167L44.1952 13.8984L44.9408 14.3684L44.4663 14.637L43.7207 14.167Z" fill="#CAAEFF"/>
<path d="M44.4668 14.637L44.9413 14.3684C45.2124 14.5027 45.4836 14.7041 45.7547 14.8384L45.2802 15.107C45.0091 14.9055 44.7379 14.7713 44.4668 14.637Z" fill="#CAAEFF"/>
<path d="M41.0771 9.93703L41.5516 9.66846L44.1952 11.2127L43.7207 11.4813L41.0771 9.93703Z" fill="#CAAEFF"/>
<path d="M43.7207 11.4812L44.1952 11.2126V13.8983L43.7207 14.1669V11.4812Z" fill="#CAAEFF"/>
<path d="M51.3126 26.7898L50.8382 27.0584C50.9737 26.9913 51.0415 26.9241 51.1771 26.7898C51.7194 26.3199 51.9905 25.3799 51.9905 24.1713C51.9905 22.2913 51.3804 20.6128 50.2281 19.1356C49.6858 18.3971 48.9402 17.6585 47.9912 16.9199L48.4657 16.6514C49.3469 17.3899 50.0925 18.1285 50.7026 18.8671C51.8549 20.4113 52.465 22.0899 52.465 23.9027C52.465 25.1784 52.1938 26.0513 51.6516 26.5213C51.516 26.6556 51.3804 26.7227 51.3126 26.7898Z" fill="#CAAEFF"/>
<path d="M47.9916 13.8985L48.4661 13.6299L48.3983 16.6513L47.9238 16.9199L47.9916 13.8985Z" fill="#CAAEFF"/>
<path d="M45.2803 12.3543L45.7548 12.0857L48.4661 13.63L47.9916 13.8985L45.2803 12.3543Z" fill="#CAAEFF"/>
<path d="M51.5839 30.3483C52.1262 31.4897 52.3296 32.6982 52.3296 34.0411C52.3296 35.9211 51.7195 37.1296 50.4994 37.4653C49.7538 37.6668 48.8726 37.6668 47.8558 37.3311V40.2853L45.2122 38.7411V36.0554L43.6532 35.1825V37.8682L41.0096 36.3239V33.6382L35.9258 30.7511V27.1254L38.7049 28.6697L38.7727 14.9727L35.9936 13.4284V9.80273L41.0774 12.6899V10.0042L43.721 11.5484V14.2341L44.4666 14.637C44.7377 14.7713 45.0089 14.9727 45.28 15.107V12.3541L47.9236 13.8984V16.9198C48.8048 17.6584 49.5504 18.3969 50.1605 19.1355C51.3128 20.6798 51.9229 22.3583 51.9229 24.1712C51.9229 25.4469 51.6517 26.3197 51.1095 26.7897C50.5672 27.3269 49.8893 27.394 49.0759 27.0583V27.1926C50.2283 28.1997 51.1095 29.274 51.5839 30.3483ZM47.9236 32.7654C48.1947 32.4968 48.3303 32.0268 48.3303 31.2883C48.3303 30.684 48.1947 30.1468 47.9236 29.5426C47.4491 28.5354 46.5679 27.6626 45.28 26.924C45.2122 26.8569 45.1444 26.8569 45.0767 26.7897L42.6364 25.3797V30.8183L45.28 32.2954C46.2968 32.8997 47.0424 33.1011 47.5847 32.8997C47.6525 32.8997 47.788 32.8325 47.9236 32.7654ZM42.6364 17.1884V21.8212L44.8733 23.0969C45.0089 23.164 45.1444 23.2312 45.2122 23.2983C46.0934 23.7683 46.7035 23.9698 47.178 23.8355C47.6525 23.7012 47.9236 23.2312 47.9236 22.3583C47.9236 21.5526 47.6525 20.8141 47.178 20.2098C46.7713 19.6726 46.1612 19.1355 45.3478 18.6655C45.1444 18.5312 44.9411 18.3969 44.7377 18.3298L42.6364 17.1884Z" fill="#5618B8"/>
<path d="M5.89746 104.272V0H87.1708L87.103 104.339L84.9339 107.293L53.8209 125.422C49.4827 128.175 43.9922 128.175 39.654 125.489L8.06656 107.293L5.89746 104.272Z" fill="url(#paint12_linear_55_8149)"/>
<defs>
<linearGradient id="paint0_linear_55_8149" x1="0.0130172" y1="128.932" x2="92.8314" y2="128.932" gradientUnits="userSpaceOnUse">
<stop stop-color="#5618B8"/>
<stop offset="1" stop-color="#C7D7FF"/>
</linearGradient>
<linearGradient id="paint1_linear_55_8149" x1="0.0988511" y1="119.089" x2="92.9172" y2="119.089" gradientUnits="userSpaceOnUse">
<stop stop-color="#5618B8"/>
<stop offset="1" stop-color="#C7D7FF"/>
</linearGradient>
<linearGradient id="paint2_linear_55_8149" x1="0.154806" y1="109.018" x2="92.9732" y2="109.018" gradientUnits="userSpaceOnUse">
<stop stop-color="#5618B8"/>
<stop offset="1" stop-color="#C7D7FF"/>
</linearGradient>
<linearGradient id="paint3_linear_55_8149" x1="48.5384" y1="70.7011" x2="80.2841" y2="84.9212" gradientUnits="userSpaceOnUse">
<stop stop-color="#5618B8"/>
<stop offset="1" stop-color="#C7D7FF"/>
</linearGradient>
<linearGradient id="paint4_linear_55_8149" x1="48.4631" y1="70.8699" x2="80.2088" y2="85.0899" gradientUnits="userSpaceOnUse">
<stop stop-color="#5618B8"/>
<stop offset="1" stop-color="#C7D7FF"/>
</linearGradient>
<linearGradient id="paint5_linear_55_8149" x1="25.9607" y1="107.656" x2="63.954" y2="107.656" gradientUnits="userSpaceOnUse">
<stop stop-color="#5618B8"/>
<stop offset="1" stop-color="#C7D7FF"/>
</linearGradient>
<linearGradient id="paint6_linear_55_8149" x1="18.949" y1="54.1338" x2="49.5124" y2="70.1898" gradientUnits="userSpaceOnUse">
<stop stop-color="#5618B8"/>
<stop offset="1" stop-color="#C7D7FF"/>
</linearGradient>
<linearGradient id="paint7_linear_55_8149" x1="18.4351" y1="55.1118" x2="48.9984" y2="71.1679" gradientUnits="userSpaceOnUse">
<stop stop-color="#5618B8"/>
<stop offset="1" stop-color="#C7D7FF"/>
</linearGradient>
<linearGradient id="paint8_linear_55_8149" x1="53.3943" y1="33.8454" x2="78.5355" y2="44.6293" gradientUnits="userSpaceOnUse">
<stop stop-color="#5618B8"/>
<stop offset="1" stop-color="#C7D7FF"/>
</linearGradient>
<linearGradient id="paint9_linear_55_8149" x1="47.5307" y1="47.5166" x2="72.672" y2="58.3004" gradientUnits="userSpaceOnUse">
<stop stop-color="#5618B8"/>
<stop offset="1" stop-color="#C7D7FF"/>
</linearGradient>
<linearGradient id="paint10_linear_55_8149" x1="41.2335" y1="7.54915" x2="52.9051" y2="50.1841" gradientUnits="userSpaceOnUse">
<stop stop-color="#5618B8"/>
<stop offset="1" stop-color="#C7D7FF"/>
</linearGradient>
<linearGradient id="paint11_linear_55_8149" x1="51.1841" y1="4.82501" x2="62.8555" y2="47.4599" gradientUnits="userSpaceOnUse">
<stop stop-color="#5618B8"/>
<stop offset="1" stop-color="#C7D7FF"/>
</linearGradient>
<linearGradient id="paint12_linear_55_8149" x1="48.4265" y1="14.9232" x2="42.5368" y2="132.995" gradientUnits="userSpaceOnUse">
<stop stop-color="#4076BC" stop-opacity="0"/>
<stop offset="1" stop-color="white"/>
</linearGradient>
</defs>
</svg>
