<svg width="60" height="60" viewBox="0 0 60 60" fill="none" xmlns="http://www.w3.org/2000/svg">
<path opacity="0.2" d="M59.9996 36.2696C59.9996 27.3457 51.4672 21.0774 42.0934 20.4938C41.4582 26.5472 37.6726 31.4798 32.4793 34.5117H35.3902V38.0274H31.8746V34.8551C28.7422 36.5719 25.1246 37.6453 21.4297 37.943C22.4727 46.4039 31.3484 52.0899 40.6637 52.0899C42.3594 52.0899 44.0949 51.8719 45.9535 51.4266L57.3582 57.1289L54.8305 47.0192C58.1738 44.086 59.9996 40.3078 59.9996 36.2696ZM42.4215 38.0274H38.9059V34.5117H42.4215V38.0274ZM49.4527 38.0274H45.9371V34.5117H49.4527V38.0274Z" fill="#273BEF"/>
<path d="M19.3359 2.87109C9.41836 2.87109 0 9.31523 0 18.6914C0 22.7297 1.82578 26.5078 5.16914 29.441L2.64141 39.5508L14.0461 33.8484C15.9047 34.2937 17.6402 34.5117 19.3359 34.5117C29.2535 34.5117 38.6719 28.0676 38.6719 18.6914C38.6719 9.48398 29.4656 2.87109 19.3359 2.87109ZM14.0625 20.4492H10.5469V16.9336H14.0625V20.4492ZM21.0938 20.4492H17.5781V16.9336H21.0938V20.4492ZM28.125 20.4492H24.6094V16.9336H28.125V20.4492Z" fill="#273BEF"/>
</svg>
