<svg width="84" height="37" viewBox="0 0 84 37" fill="none" xmlns="http://www.w3.org/2000/svg">
<path d="M0.5 33.2328H2.83435C3.14625 33.2328 3.4403 33.0873 3.62946 32.8393L4.67404 31.4698C5.04475 30.9838 5.7609 30.9411 6.18667 31.3797L9.18105 34.4643C9.36936 34.6583 9.6282 34.7677 9.89856 34.7677H13.2402C13.4563 34.7677 13.6667 34.6977 13.8397 34.5681L14.873 33.794C15.2944 33.4783 15.8885 33.5435 16.2314 33.9431L17.2828 35.1684C17.6397 35.5842 18.2647 35.6354 18.6845 35.2832L23.5717 31.1825C23.9914 30.8303 24.6165 30.8815 24.9733 31.2973L25.8143 32.2773C26.2335 32.7659 26.9983 32.7368 27.3793 32.2179L29.2473 29.6734C29.3795 29.4934 29.568 29.3628 29.783 29.3024L33.0385 28.3878C33.3577 28.2981 33.6117 28.0561 33.7166 27.7416L35.1905 23.3248C35.286 23.0386 35.5057 22.8108 35.7883 22.7049L38.047 21.8589C38.2833 21.7703 38.4774 21.5957 38.5904 21.37L39.0925 20.3669C39.4544 19.6439 40.4803 19.627 40.8658 20.3379L42.8503 23.9976C43.0947 24.4483 43.6403 24.6411 44.1137 24.4441L47.4456 23.0574C47.7266 22.9404 47.939 22.7018 48.0227 22.4092L50.6976 13.0574C50.8459 12.5391 51.3783 12.2316 51.9013 12.3622L53.293 12.7097C53.7317 12.8193 54.1894 12.6208 54.4092 12.2256L56.0408 9.29183C56.3353 8.76229 57.0294 8.61426 57.5143 8.97757L58.0553 9.38285C58.3632 9.6135 58.8048 9.50924 58.9769 9.16524V9.16524C59.18 8.75956 59.7367 8.70441 60.0155 9.06236L61.8053 11.3611C62.3052 12.0031 63.3217 11.8111 63.553 11.0311L65.7428 3.6489C65.9167 3.06251 66.5716 2.76827 67.1255 3.02763L69.5231 4.15026C69.9104 4.33163 70.3703 4.24658 70.6671 3.93866L73.2051 1.30596C73.3935 1.11045 73.6534 1 73.925 1H77.6036C78.0539 1 78.4486 1.30088 78.5679 1.73501L79.5795 5.41634C79.8064 6.24186 80.8982 6.41918 81.3746 5.70788L83.5 2.5349" stroke="#27B96A" stroke-linecap="round"/>
</svg>
