<svg width="48" height="48" viewBox="0 0 48 48" fill="none" xmlns="http://www.w3.org/2000/svg">
<path opacity="0.5" d="M43.788 19.9296L25.0673 1.20609C23.9632 0.104717 22.1772 0.117748 21.0875 1.20469C19.9917 2.30334 19.9917 4.08722 21.0875 5.18447L39.811 23.9066C40.9079 25.0035 42.6911 25.0035 43.788 23.9066C44.8879 22.8067 44.8879 21.0292 43.788 19.9296Z" fill="#273BEF"/>
<path d="M19.6988 7.77246L19.5579 8.47877C18.5654 13.4436 16.1532 18.1602 12.8906 21.9831L23.0763 32.1687C26.8987 28.9068 31.5503 26.4298 36.5153 25.4361L37.223 25.2952L19.6988 7.77246Z" fill="#273BEF"/>
<path d="M11.0226 24.0928L4.0614 31.0526C2.41655 32.6974 2.40971 35.3678 4.0614 37.0195L8.03846 40.9966C9.6833 42.6414 12.3537 42.6481 14.0054 40.9966L20.9659 34.036L11.0226 24.0928ZM12.0169 35.0311C11.4676 35.5803 10.5777 35.5803 10.0284 35.0311C9.47911 34.4818 9.47911 33.5918 10.0284 33.0425L12.0169 31.054C12.5662 30.5047 13.4562 30.5047 14.0055 31.054C14.5547 31.6033 14.5547 32.4932 14.0055 33.0425L12.0169 35.0311Z" fill="#273BEF"/>
<path d="M26.8374 41.7446L28.7504 39.8316C30.4021 38.1801 30.3967 35.5098 28.7505 33.8662L27.3296 32.4443C26.5442 32.9719 25.7942 33.5451 25.065 34.1567L26.7619 35.8561C27.3099 36.4012 27.3137 37.2885 26.7619 37.8432L24.8174 39.7878L21.9597 37.019L17.9824 40.9963L24.3628 47.1788C25.4516 48.2704 27.2393 48.2766 28.3384 47.1774C29.4357 46.0802 29.4357 44.2963 28.3384 43.1989L26.8374 41.7446Z" fill="#273BEF"/>
<path d="M32.5186 0C31.7413 0 31.1123 0.628969 31.1123 1.40625V4.21875C31.1123 4.99603 31.7413 5.625 32.5186 5.625C33.2958 5.625 33.9248 4.99603 33.9248 4.21875V1.40625C33.9248 0.628969 33.2958 0 32.5186 0Z" fill="#273BEF"/>
<path d="M43.7686 11.25H40.9561C40.1788 11.25 39.5498 11.879 39.5498 12.6562C39.5498 13.4335 40.1788 14.0625 40.9561 14.0625H43.7686C44.5458 14.0625 45.1748 13.4335 45.1748 12.6562C45.1748 11.879 44.5458 11.25 43.7686 11.25Z" fill="#273BEF"/>
<path d="M41.9503 3.22446C41.401 2.67518 40.511 2.67518 39.9618 3.22446L37.1493 6.03696C36.6 6.58624 36.6 7.47621 37.1493 8.02549C37.6985 8.57478 38.5885 8.57487 39.1378 8.02549L41.9503 5.21299C42.4996 4.66371 42.4996 3.77374 41.9503 3.22446Z" fill="#273BEF"/>
</svg>
