<svg width="12" height="12" viewBox="0 0 12 12" fill="none" xmlns="http://www.w3.org/2000/svg">
<circle cx="6" cy="6" r="5.5" stroke="white"/>
<path d="M5.899 7.941C5.839 7.941 5.791 7.923 5.755 7.887C5.719 7.851 5.701 7.803 5.701 7.743V7.374C5.713 7.056 5.794 6.78 5.944 6.546C6.1 6.312 6.319 6.051 6.601 5.763C6.817 5.541 6.976 5.358 7.078 5.214C7.186 5.07 7.249 4.914 7.267 4.746C7.273 4.722 7.276 4.683 7.276 4.629C7.276 4.353 7.159 4.134 6.925 3.972C6.691 3.81 6.418 3.729 6.106 3.729C5.77 3.729 5.488 3.819 5.26 3.999C5.038 4.173 4.894 4.449 4.828 4.827C4.804 4.959 4.726 5.025 4.594 5.025H4.198C4.144 5.025 4.096 5.007 4.054 4.971C4.018 4.935 4 4.887 4 4.827C4.012 4.497 4.105 4.194 4.279 3.918C4.459 3.636 4.708 3.414 5.026 3.252C5.35 3.084 5.719 3 6.133 3C6.571 3 6.94 3.075 7.24 3.225C7.54 3.375 7.762 3.573 7.906 3.819C8.05 4.059 8.122 4.314 8.122 4.584C8.122 4.89 8.053 5.154 7.915 5.376C7.777 5.598 7.57 5.856 7.294 6.15C7.066 6.396 6.895 6.606 6.781 6.78C6.667 6.948 6.601 7.137 6.583 7.347C6.571 7.515 6.565 7.641 6.565 7.725C6.535 7.869 6.46 7.941 6.34 7.941H5.899ZM5.818 9.39C5.758 9.39 5.707 9.372 5.665 9.336C5.629 9.294 5.611 9.243 5.611 9.183V8.661C5.611 8.601 5.629 8.55 5.665 8.508C5.707 8.466 5.758 8.445 5.818 8.445H6.376C6.436 8.445 6.487 8.466 6.529 8.508C6.571 8.55 6.592 8.601 6.592 8.661V9.183C6.592 9.243 6.571 9.294 6.529 9.336C6.487 9.372 6.436 9.39 6.376 9.39H5.818Z" fill="white"/>
</svg>
