<svg width="80" height="80" viewBox="0 0 80 80" fill="none" xmlns="http://www.w3.org/2000/svg">
<path opacity="0.5" d="M43.5414 0C19.4775 0 0 19.4742 0 43.5414C0 44.837 1.05031 45.8873 2.34594 45.8873H43.5414C44.837 45.8873 45.8873 44.837 45.8873 43.5414V2.34594C45.8873 1.05031 44.837 0 43.5414 0Z" fill="#273BEF"/>
<path d="M26.8514 52.6699C26.4399 51.9184 25.651 51.4512 24.7941 51.4512H10.92C10.1733 51.4512 9.47098 51.8066 9.02911 52.4088C8.58707 53.011 8.45832 53.7873 8.68192 54.4998C13.1005 68.573 25.8452 79.0362 41.196 80.0001V62.4157C35.175 61.6685 29.8139 58.0784 26.8514 52.6699Z" fill="#273BEF"/>
<path d="M54.4998 8.68178C53.7874 8.45835 53.0107 8.58725 52.4088 9.02897C51.8066 9.471 51.4512 10.1732 51.4512 10.9201V24.794C51.4512 25.6507 51.9185 26.4394 52.6699 26.8512C58.078 29.814 61.6684 35.1749 62.4156 41.1957H80.0001C79.0338 25.8116 68.5398 13.0901 54.4998 8.68178Z" fill="#273BEF"/>
<path opacity="0.5" d="M62.4177 45.8877C61.3534 54.5046 54.5036 61.3544 45.8867 62.4186V79.9986C64.1919 78.8464 78.8437 64.2179 79.9975 45.8877H62.4177Z" fill="#273BEF"/>
</svg>
