<svg width="207" height="46" viewBox="0 0 207 46" fill="none" xmlns="http://www.w3.org/2000/svg">
<line y1="23.5" x2="207" y2="23.5" stroke="#E5E5E5"/>
<circle cx="103" cy="23" r="20.5" fill="#E9EBFD" stroke="white" stroke-width="5"/>
<path d="M103.432 28C103.325 28 103.235 27.9627 103.16 27.888C103.085 27.8133 103.048 27.7227 103.048 27.616V19.328L100.616 21.2C100.552 21.2533 100.477 21.28 100.392 21.28C100.264 21.28 100.157 21.2213 100.072 21.104L99.4 20.24C99.3467 20.1547 99.32 20.0747 99.32 20C99.32 19.872 99.3787 19.7653 99.496 19.68L103.08 16.912C103.176 16.8373 103.309 16.8 103.48 16.8H104.888C105.005 16.8 105.096 16.8373 105.16 16.912C105.235 16.976 105.272 17.0667 105.272 17.184V27.616C105.272 27.7227 105.235 27.8133 105.16 27.888C105.096 27.9627 105.005 28 104.888 28H103.432Z" fill="#273BEF"/>
</svg>
