<svg width="48" height="48" viewBox="0 0 48 48" fill="none" xmlns="http://www.w3.org/2000/svg">
<rect opacity="0.5" x="16.7998" y="18.6" width="16.2" height="6.6" fill="white"/>
<rect opacity="0.5" x="6" y="22.8" width="16.2" height="6.6" fill="white"/>
<path opacity="0.5" d="M25.5 0C22.3977 0 19.875 2.52272 19.875 5.625C19.875 8.72728 22.3977 11.25 25.5 11.25C28.6023 11.25 31.125 8.72728 31.125 5.625C31.125 2.52272 28.6023 0 25.5 0Z" fill="#273BEF"/>
<path d="M45.1875 21.2812V22.6875C45.1875 24.4271 43.6623 25.7952 41.75 25.4018C39.8756 18.9686 33.9365 14.25 26.9062 14.25H17.5108C17.1194 14.25 16.7513 14.0866 16.5014 13.8023C15.1735 12.2999 13.2605 11.4375 11.25 11.4375H7.03125C6.11953 11.4375 5.45053 12.29 5.66484 13.1761L7.08891 19.0414C6.048 20.1291 5.18006 21.3513 4.49887 22.6875C1.68262 22.6875 0 24.6953 0 26.9062V31.0742C0 33.7441 2.067 34.7188 4.26544 36.2721C5.13609 38.1329 6.35147 39.7794 7.88409 41.1733C8.09147 41.3601 8.4375 41.7542 8.4375 42.2857V45.6022C8.4375 46.9247 9.51281 48 10.8352 48H15.8835C17.1983 48 18.2812 47.1103 18.2812 45.1875H26.9062C26.9062 47.1103 27.9892 48 29.304 48H34.3522C35.6747 48 36.75 46.9247 36.75 45.6022C36.75 43.477 36.5093 42.0291 37.9928 40.5073C40.7133 37.7103 42.375 33.8959 42.375 29.7188C42.375 29.2418 42.3458 28.7719 42.3034 28.3058C42.3298 28.3062 42.3567 28.3139 42.3832 28.3139C45.4644 28.3139 48 25.8076 48 22.6875V21.2812C48 19.4275 45.1875 19.4199 45.1875 21.2812ZM9.84375 26.9062C9.06713 26.9062 8.4375 26.2766 8.4375 25.5C8.4375 24.7232 9.06713 24.0938 9.84375 24.0938C10.6204 24.0938 11.25 24.7232 11.25 25.5C11.25 26.2766 10.6204 26.9062 9.84375 26.9062ZM26.9062 22.6875H20.5108C18.6571 22.6875 18.6495 19.875 20.5108 19.875H26.9062C28.76 19.875 28.7676 22.6875 26.9062 22.6875Z" fill="#273BEF"/>
<mask id="mask0_55_10649" style="mask-type:alpha" maskUnits="userSpaceOnUse" x="0" y="11" width="48" height="37">
<path d="M45.1875 21.2812V22.6875C45.1875 24.4271 43.6623 25.7952 41.75 25.4018C39.8756 18.9686 33.9365 14.25 26.9062 14.25H17.5108C17.1194 14.25 16.7513 14.0866 16.5014 13.8023C15.1735 12.2999 13.2605 11.4375 11.25 11.4375H7.03125C6.11953 11.4375 5.45053 12.29 5.66484 13.1761L7.08891 19.0414C6.048 20.1291 5.18006 21.3513 4.49887 22.6875C1.68262 22.6875 0 24.6953 0 26.9062V31.0742C0 33.7441 2.067 34.7188 4.26544 36.2721C5.13609 38.1329 6.35147 39.7794 7.88409 41.1733C8.09147 41.3601 8.4375 41.7542 8.4375 42.2857V45.6022C8.4375 46.9247 9.51281 48 10.8352 48H15.8835C17.1983 48 18.2812 47.1103 18.2812 45.1875H26.9062C26.9062 47.1103 27.9892 48 29.304 48H34.3522C35.6747 48 36.75 46.9247 36.75 45.6022C36.75 43.477 36.5093 42.0291 37.9928 40.5073C40.7133 37.7103 42.375 33.8959 42.375 29.7188C42.375 29.2418 42.3458 28.7719 42.3034 28.3058C42.3298 28.3062 42.3567 28.3139 42.3832 28.3139C45.4644 28.3139 48 25.8076 48 22.6875V21.2812C48 19.4275 45.1875 19.4199 45.1875 21.2812ZM9.84375 26.9062C9.06713 26.9062 8.4375 26.2766 8.4375 25.5C8.4375 24.7232 9.06713 24.0938 9.84375 24.0938C10.6204 24.0938 11.25 24.7232 11.25 25.5C11.25 26.2766 10.6204 26.9062 9.84375 26.9062ZM26.9062 22.6875H20.5108C18.6571 22.6875 18.6495 19.875 20.5108 19.875H26.9062C28.76 19.875 28.7676 22.6875 26.9062 22.6875Z" fill="#273BEF"/>
</mask>
<g mask="url(#mask0_55_10649)">
<rect opacity="0.5" x="-10.7998" y="30.6614" width="63" height="27" transform="rotate(-0.0558775 -10.7998 30.6614)" fill="white"/>
</g>
</svg>
