<svg width="48" height="48" viewBox="0 0 48 48" fill="none" xmlns="http://www.w3.org/2000/svg">
<path opacity="0.5" d="M24 22.5C25.6569 22.5 27 21.1569 27 19.5C27 17.8431 25.6569 16.5 24 16.5C22.3431 16.5 21 17.8431 21 19.5C21 21.1569 22.3431 22.5 24 22.5Z" fill="#273BEF"/>
<path opacity="0.5" d="M37.6875 8.25H10.3125C9.58875 8.25 9 8.83875 9 9.5625V38.4375C9 39.1612 9.58875 39.75 10.3125 39.75H37.6875C38.4112 39.75 39 39.1612 39 38.4375V9.5625C39 8.83875 38.4112 8.25 37.6875 8.25ZM15.75 31.5C15.75 32.3284 15.0785 33 14.25 33C13.4215 33 12.75 32.3284 12.75 31.5V25.5C12.75 24.6716 13.4215 24 14.25 24C15.0785 24 15.75 24.6716 15.75 25.5V31.5ZM24 25.5C20.6916 25.5 18 22.8084 18 19.5C18 16.1916 20.6916 13.5 24 13.5C27.3084 13.5 30 16.1916 30 19.5C30 22.8084 27.3084 25.5 24 25.5Z" fill="#273BEF"/>
<path opacity="0.5" d="M46.7812 22.5H42.4688C42.2099 22.5 42 22.7099 42 22.9688V25.0312C42 25.2901 42.2099 25.5 42.4688 25.5H46.7812C47.0401 25.5 47.25 25.2901 47.25 25.0312V22.9688C47.25 22.7099 47.0401 22.5 46.7812 22.5Z" fill="#273BEF"/>
<path opacity="0.5" d="M42.4688 19.5H46.7812C47.0401 19.5 47.25 19.2901 47.25 19.0312V15.4688C47.25 15.2099 47.0401 15 46.7812 15H42.4688C42.2099 15 42 15.2099 42 15.4688V19.0312C42 19.2901 42.2099 19.5 42.4688 19.5Z" fill="#273BEF"/>
<path d="M42 36.4688V38.4375C42 40.8192 40.0692 42.75 37.6875 42.75H10.3125C7.93078 42.75 6 40.8192 6 38.4375V9.5625C6 7.18078 7.93078 5.25 10.3125 5.25H37.6875C40.0692 5.25 42 7.18078 42 9.5625V11.5312C42 11.7901 42.2099 12 42.4688 12H46.7812C47.0401 12 47.25 11.7901 47.25 11.5312V4.3125C47.25 1.93078 45.3192 0 42.9375 0H5.0625C2.68078 0 0.75 1.93078 0.75 4.3125V43.6875C0.75 46.0692 2.68078 48 5.0625 48H42.9375C45.3192 48 47.25 46.0692 47.25 43.6875V36.4688C47.25 36.2099 47.0401 36 46.7812 36H42.4688C42.2099 36 42 36.2099 42 36.4688Z" fill="#273BEF"/>
<path opacity="0.5" d="M46.7812 28.5H42.4688C42.2099 28.5 42 28.7099 42 28.9688V32.5312C42 32.7901 42.2099 33 42.4688 33H46.7812C47.0401 33 47.25 32.7901 47.25 32.5312V28.9688C47.25 28.7099 47.0401 28.5 46.7812 28.5Z" fill="#273BEF"/>
</svg>
