<svg width="48" height="48" viewBox="0 0 48 48" fill="none" xmlns="http://www.w3.org/2000/svg">
<g clip-path="url(#clip0_55_10637)">
<path d="M42.1453 32.0541C40.8551 35.5507 38.9039 38.591 36.3452 41.0896C33.4327 43.9336 29.619 46.1935 25.0099 47.8056C24.8586 47.8583 24.7008 47.9015 24.5422 47.9334C24.3328 47.9748 24.1196 47.9971 23.9083 48H23.8669C23.6417 48 23.4154 47.9773 23.1909 47.9334C23.0323 47.9015 22.8767 47.8583 22.7262 47.8067C18.1116 46.1972 14.2931 43.9384 11.3777 41.0944C8.81786 38.5957 6.86705 35.5573 5.57872 32.0607C3.23607 25.7033 3.36937 18.6999 3.47667 13.0719L3.4785 12.9855C3.50011 12.5208 3.51402 12.0326 3.52172 11.4936C3.5609 8.84696 5.66515 6.65738 8.31212 6.5098C13.8309 6.20182 18.1002 4.40189 21.748 0.846349L21.7799 0.817052C22.3856 0.26151 23.1488 -0.010951 23.9083 0.00040162C24.6407 0.00992313 25.3702 0.282018 25.9543 0.817052L25.9855 0.846349C29.634 4.40189 33.9033 6.20182 39.4221 6.5098C42.0691 6.65738 44.1733 8.84696 44.2125 11.4936C44.2202 12.0363 44.2341 12.5237 44.2557 12.9855L44.2568 13.0221C44.3638 18.6607 44.4963 25.678 42.1453 32.0541Z" fill="#939DF7"/>
<path d="M42.1451 32.0541C40.855 35.5507 38.9038 38.591 36.3451 41.0896C33.4326 43.9336 29.6189 46.1935 25.0098 47.8055C24.8585 47.8583 24.7007 47.9015 24.5421 47.9334C24.3326 47.9747 24.1195 47.9971 23.9082 48V0.000366211C24.6406 0.00988772 25.3701 0.281982 25.9542 0.817017L25.9854 0.846314C29.6339 4.40186 33.9032 6.20178 39.422 6.50977C42.069 6.65735 44.1732 8.84692 44.2124 11.4935C44.2201 12.0363 44.234 12.5237 44.2556 12.9855L44.2567 13.0221C44.3636 18.6606 44.4962 25.678 42.1451 32.0541Z" fill="#273BEF"/>
<path d="M35.829 24C35.829 30.5819 30.4849 35.9396 23.9084 35.963H23.8663C17.2705 35.963 11.9033 30.5962 11.9033 24C11.9033 17.4042 17.2705 12.0374 23.8663 12.0374H23.9084C30.4849 12.0608 35.829 17.4185 35.829 24Z" fill="white"/>
<path d="M35.8287 24C35.8287 30.5819 30.4846 35.9396 23.9082 35.963V12.0374C30.4846 12.0608 35.8287 17.4185 35.8287 24Z" fill="white"/>
<path d="M29.296 22.2773L23.9083 27.6657L22.7441 28.8299C22.4691 29.1049 22.1083 29.2423 21.748 29.2423C21.3873 29.2423 21.0269 29.1049 20.7515 28.8299L18.2485 26.3258C17.6984 25.7757 17.6984 24.8847 18.2485 24.3343C18.7978 23.7843 19.6899 23.7843 20.2399 24.3343L21.748 25.8424L27.3045 20.2859C27.8546 19.7354 28.7466 19.7354 29.296 20.2859C29.846 20.8359 29.846 21.728 29.296 22.2773Z" fill="#273BEF"/>
<path d="M29.2969 22.2773L23.9092 27.6657V23.6817L27.3054 20.2859C27.8555 19.7354 28.7476 19.7354 29.2969 20.2859C29.8469 20.8359 29.8469 21.728 29.2969 22.2773Z" fill="#273BEF"/>
</g>
<defs>
<clipPath id="clip0_55_10637">
<rect width="48" height="48" fill="white"/>
</clipPath>
</defs>
</svg>
