<svg width="48" height="48" viewBox="0 0 48 48" fill="none" xmlns="http://www.w3.org/2000/svg">
<path d="M7.5673 14.25H10.3798V17.0625C10.3798 17.8391 9.75018 18.4688 8.97355 18.4688C8.19693 18.4688 7.5673 17.8391 7.5673 17.0625V14.25H3.43471C2.43955 14.25 1.61783 15.0274 1.56261 16.021L0.00589469 44.042C-0.113543 46.1915 1.5973 48 3.75008 48H18.9736C18.1241 46.7778 17.7045 45.2872 17.8101 43.7884L18.9246 27.9828C19.0084 26.7955 19.534 25.6948 20.4047 24.8833C21.2753 24.0718 22.4104 23.625 23.6005 23.625H30.0317L29.6092 16.021C29.554 15.0274 28.7323 14.25 27.7371 14.25H24.0673V8.25C24.0673 3.70097 20.3663 0 15.8173 0C11.2683 0 7.5673 3.70097 7.5673 8.25V14.25ZM10.3798 8.25C10.3798 5.25178 12.8191 2.8125 15.8173 2.8125C18.8155 2.8125 21.2548 5.25178 21.2548 8.25V14.25H24.0673V17.0625C24.0673 17.8391 23.4377 18.4688 22.661 18.4688C21.8844 18.4688 21.2548 17.8391 21.2548 17.0625V14.25H10.3798V8.25Z" fill="#273BEF"/>
<path opacity="0.5" d="M47.9907 43.9862L46.8762 28.1806C46.8069 27.1987 45.9902 26.4375 45.0058 26.4375H23.6007C22.6164 26.4375 21.7996 27.1987 21.7304 28.1806L20.6159 43.9862C20.4629 46.1558 22.1817 48 24.3566 48H44.25C46.4249 48 48.1437 46.1558 47.9907 43.9862ZM39.5416 33.7633C39.5416 36.7542 37.1083 39.1875 34.1175 39.1875C31.1266 39.1875 28.6933 36.7542 28.6933 33.7633V32.0625C28.6933 31.2859 29.323 30.6562 30.0996 30.6562C30.8762 30.6562 31.5058 31.2859 31.5058 32.0625V33.7633C31.5058 35.2034 32.6774 36.375 34.1175 36.375C35.5575 36.375 36.7291 35.2034 36.7291 33.7633V32.0625C36.7291 31.2859 37.3587 30.6562 38.1354 30.6562C38.912 30.6562 39.5416 31.2859 39.5416 32.0625V33.7633Z" fill="#273BEF"/>
</svg>
