<svg width="12" height="12" viewBox="0 0 12 12" fill="none" xmlns="http://www.w3.org/2000/svg">
<path d="M12 1.875V10.125C11.9994 10.6221 11.8017 11.0987 11.4502 11.4502C11.0987 11.8017 10.6221 11.9994 10.125 12H1.875C1.37789 11.9994 0.901301 11.8017 0.549791 11.4502C0.198282 11.0987 0.000558307 10.6221 0 10.125L0 8.95312C0 8.80394 0.0592632 8.66087 0.164752 8.55538C0.270242 8.44989 0.413316 8.39062 0.5625 8.39062C0.711684 8.39062 0.854758 8.44989 0.960248 8.55538C1.06574 8.66087 1.125 8.80394 1.125 8.95312V10.125C1.12522 10.3238 1.2043 10.5145 1.34491 10.6551C1.48551 10.7957 1.67615 10.8748 1.875 10.875H10.125C10.3238 10.8748 10.5145 10.7957 10.6551 10.6551C10.7957 10.5145 10.8748 10.3238 10.875 10.125V1.875C10.8748 1.67615 10.7957 1.48551 10.6551 1.34491C10.5145 1.2043 10.3238 1.12522 10.125 1.125H1.875C1.67616 1.12522 1.48552 1.20431 1.34492 1.34492C1.20431 1.48552 1.12522 1.67616 1.125 1.875V3.04688C1.125 3.19606 1.06574 3.33913 0.960248 3.44462C0.854758 3.55011 0.711684 3.60938 0.5625 3.60938C0.413316 3.60938 0.270242 3.55011 0.164752 3.44462C0.0592632 3.33913 0 3.19606 0 3.04688L0 1.875C0.000564497 1.37789 0.19829 0.901307 0.549798 0.549798C0.901307 0.19829 1.37789 0.000564497 1.875 0L10.125 0C10.6221 0.000558307 11.0987 0.198282 11.4502 0.549791C11.8017 0.901301 11.9994 1.37789 12 1.875ZM0 6C0 6.14918 0.0592632 6.29226 0.164752 6.39775C0.270242 6.50324 0.413316 6.5625 0.5625 6.5625H5.36569L4.20787 7.72031C4.15564 7.77255 4.11421 7.83455 4.08594 7.9028C4.05767 7.97105 4.04312 8.04419 4.04312 8.11806C4.04311 8.26725 4.10237 8.41032 4.20786 8.51582C4.31335 8.62131 4.45643 8.68057 4.60561 8.68058C4.7548 8.68058 4.89788 8.62132 5.00337 8.51583L7.12144 6.39776C7.17367 6.34552 7.21511 6.28351 7.24338 6.21527C7.27165 6.14702 7.2862 6.07387 7.2862 6C7.2862 5.92613 7.27165 5.85298 7.24338 5.78473C7.21511 5.71649 7.17367 5.65448 7.12144 5.60224L5.00337 3.48417C4.89788 3.37868 4.7548 3.31942 4.60561 3.31942C4.45642 3.31942 4.31334 3.37868 4.20785 3.48417C4.10236 3.58966 4.0431 3.73274 4.0431 3.88193C4.0431 4.03112 4.10236 4.1742 4.20785 4.27969L5.36566 5.4375H0.5625C0.413316 5.4375 0.270242 5.49676 0.164752 5.60225C0.0592632 5.70774 0 5.85082 0 6H0Z" fill="#273BEF"/>
</svg>
