<svg width="207" height="46" viewBox="0 0 207 46" fill="none" xmlns="http://www.w3.org/2000/svg">
<line y1="23.5" x2="207" y2="23.5" stroke="#E5E5E5"/>
<circle cx="103" cy="23" r="20.5" fill="#E9EBFD" stroke="white" stroke-width="5"/>
<path d="M99.104 28C98.9973 28 98.9067 27.9627 98.832 27.888C98.7573 27.8133 98.72 27.7227 98.72 27.616V26.8C98.72 26.512 98.8533 26.2613 99.12 26.048L101.648 23.536C102.747 22.672 103.509 22 103.936 21.52C104.373 21.0293 104.592 20.5493 104.592 20.08C104.592 19.5787 104.453 19.184 104.176 18.896C103.909 18.608 103.504 18.464 102.96 18.464C102.427 18.464 102.005 18.624 101.696 18.944C101.387 19.2533 101.195 19.6587 101.12 20.16C101.088 20.288 101.029 20.384 100.944 20.448C100.859 20.5013 100.763 20.528 100.656 20.528H99.232C99.136 20.528 99.056 20.496 98.992 20.432C98.928 20.368 98.896 20.2933 98.896 20.208C98.9173 19.5787 99.088 18.992 99.408 18.448C99.728 17.8933 100.192 17.4507 100.8 17.12C101.408 16.7787 102.123 16.608 102.944 16.608C103.797 16.608 104.517 16.7573 105.104 17.056C105.701 17.344 106.149 17.744 106.448 18.256C106.747 18.768 106.896 19.3493 106.896 20C106.896 20.7147 106.693 21.36 106.288 21.936C105.893 22.512 105.285 23.1307 104.464 23.792L102.192 26.096H106.752C106.869 26.096 106.96 26.1333 107.024 26.208C107.099 26.272 107.136 26.3627 107.136 26.48V27.616C107.136 27.7227 107.099 27.8133 107.024 27.888C106.96 27.9627 106.869 28 106.752 28H99.104Z" fill="#273BEF"/>
</svg>
