<svg width="60" height="60" viewBox="0 0 60 60" fill="none" xmlns="http://www.w3.org/2000/svg">
<path opacity="0.2" d="M51.3384 32.0297H46.6982C47.1712 33.3246 47.4296 34.7221 47.4296 36.1786V53.7157C47.4296 54.323 47.3239 54.9059 47.1316 55.448H54.8028C57.6684 55.448 59.9996 53.1167 59.9996 50.2512V40.6909C59.9997 35.9152 56.1143 32.0297 51.3384 32.0297Z" fill="#273BEF"/>
<g opacity="0.2">
<path d="M12.5701 36.1787C12.5701 34.722 12.8285 33.3247 13.3015 32.0298H8.66133C3.88547 32.0298 0 35.9153 0 40.6911V50.2514C0 53.1169 2.33121 55.4482 5.1968 55.4482H12.8681C12.6758 54.9058 12.5701 54.3231 12.5701 53.7158V36.1787Z" fill="#273BEF"/>
</g>
<path d="M35.3036 27.5174H24.6955C19.9197 27.5174 16.0342 31.4029 16.0342 36.1787V53.7158C16.0342 54.6724 16.8097 55.4481 17.7664 55.4481H42.2326C43.1894 55.4481 43.9649 54.6726 43.9649 53.7158V36.1787C43.9649 31.4029 40.0794 27.5174 35.3036 27.5174Z" fill="#273BEF"/>
<path d="M30.0003 4.55157C24.2567 4.55157 19.584 9.22431 19.584 14.968C19.584 18.8639 21.7343 22.2665 24.9098 24.0529C26.416 24.9001 28.1525 25.3843 30.0003 25.3843C31.8481 25.3843 33.5846 24.9001 35.0908 24.0529C38.2665 22.2665 40.4167 18.8638 40.4167 14.968C40.4167 9.22443 35.7439 4.55157 30.0003 4.55157Z" fill="#273BEF"/>
<g opacity="0.2">
<path d="M11.709 14.2604C7.41348 14.2604 3.91895 17.755 3.91895 22.0505C3.91895 26.346 7.41348 29.8405 11.709 29.8405C12.7986 29.8405 13.8362 29.6148 14.7787 29.2091C16.4083 28.5075 17.752 27.2656 18.5834 25.7099C19.167 24.6181 19.499 23.3725 19.499 22.0505C19.499 17.7551 16.0045 14.2604 11.709 14.2604Z" fill="#273BEF"/>
</g>
<g opacity="0.2">
<path d="M48.291 14.2604C43.9955 14.2604 40.501 17.755 40.501 22.0505C40.501 23.3726 40.833 24.6182 41.4166 25.7099C42.248 27.2657 43.5917 28.5076 45.2213 29.2091C46.1638 29.6148 47.2014 29.8405 48.291 29.8405C52.5865 29.8405 56.0811 26.346 56.0811 22.0505C56.0811 17.755 52.5865 14.2604 48.291 14.2604Z" fill="#273BEF"/>
</g>
</svg>
